<?xml version="1.0" encoding="UTF-8"?>
<svg version="1.1" xmlns="http://www.w3.org/2000/svg" width="512" height="512">
<path d="M0 0 C0.88681458 0.00270905 1.77362915 0.00541809 2.68731689 0.00820923 C17.39361226 0.07599005 31.43318168 1.15180147 45.8125 4.4375 C46.64749023 4.61941895 47.48248047 4.80133789 48.34277344 4.98876953 C74.06853766 10.69823605 99.58714806 21.75054164 120.8125 37.4375 C121.86179687 38.20449219 122.91109375 38.97148438 123.9921875 39.76171875 C131.71474235 45.50147087 138.8640068 51.7864299 145.8125 58.4375 C146.36550781 58.95795898 146.91851562 59.47841797 147.48828125 60.01464844 C179.66745355 90.39600016 200.66510269 131.86109933 207.8125 175.4375 C208.02390625 176.65824219 208.2353125 177.87898437 208.453125 179.13671875 C210.48183783 192.77256714 210.4692886 206.67555981 210.8125 220.4375 C211.67987793 220.76073242 212.54725586 221.08396484 213.44091797 221.41699219 C214.59221191 221.85172852 215.74350586 222.28646484 216.9296875 222.734375 C218.06519043 223.16073242 219.20069336 223.58708984 220.37060547 224.02636719 C232.02588835 228.80488436 244.71071391 236.78482087 251.8125 247.4375 C252.80892812 250.853825 253.00998347 252.76909441 252 256.1875 C251.73471517 260.78577033 253.83528427 263.24545918 256.3671875 266.97265625 C257.85865332 269.51621012 258.40915768 271.53653796 258.8125 274.4375 C259.72 274.355 260.6275 274.2725 261.5625 274.1875 C264.8125 274.4375 264.8125 274.4375 266.90795898 276.11035156 C272.6326407 283.1053094 272.33446272 294.05811232 272.25 302.6875 C272.23972778 304.31884888 272.23972778 304.31884888 272.22924805 305.9831543 C271.78041303 328.66529247 262.56435591 348.28623095 246.8125 364.4375 C245.88566406 365.32308594 244.95882813 366.20867187 244.00390625 367.12109375 C233.52141258 377.14844522 227.02105465 388.0922349 226.34375 402.8203125 C226.31752751 405.06757949 226.30732759 407.31508598 226.3125 409.5625 C226.28414063 410.69042969 226.25578125 411.81835938 226.2265625 412.98046875 C226.21210408 419.16144417 226.71717393 423.63917686 230.15039062 428.84716797 C235.14475338 433.62585172 240.34965534 433.87798448 246.8671875 433.87890625 C247.72756622 433.89211411 248.58794495 433.90532196 249.47439575 433.91893005 C252.21213014 433.95964107 254.9495326 433.98143179 257.6875 434 C260.41822266 434.02390288 263.14863813 434.05222802 265.87918091 434.09178162 C267.57314377 434.11584882 269.26726729 434.13094188 270.96139526 434.13539124 C279.81106203 434.25083854 288.09030728 435.94995039 294.69921875 442.23046875 C302.00566535 450.14961528 303.32298099 456.63842924 303.25 467.1875 C303.26998047 468.22777344 303.28996094 469.26804687 303.31054688 470.33984375 C303.30990234 471.33628906 303.30925781 472.33273437 303.30859375 473.359375 C303.31044678 474.26268555 303.3122998 475.16599609 303.31420898 476.09667969 C302.8125 478.4375 302.8125 478.4375 300.95629883 480.23657227 C298.17548382 481.79434804 296.22777194 481.73804543 293.0625 481.625 C292.07765625 481.59792969 291.0928125 481.57085937 290.078125 481.54296875 C289.33046875 481.50816406 288.5828125 481.47335937 287.8125 481.4375 C287.84730469 482.283125 287.88210938 483.12875 287.91796875 484 C288.12635903 492.73254504 287.57985531 498.32600068 282.625 505.6875 C274.5882425 513.54566289 265.99376695 513.01297499 255.42578125 512.95507812 C253.76271961 512.96050403 252.09966278 512.96762931 250.43661499 512.97631836 C245.93657439 512.99449909 241.43690206 512.98750599 236.93685532 512.97480202 C232.21871731 512.96464707 227.50061 512.97407461 222.7824707 512.98034668 C214.86045697 512.98761583 206.9385926 512.97805463 199.01660156 512.95898438 C189.86880047 512.93721704 180.72135603 512.94426893 171.57356358 512.96629 C163.70749397 512.98446489 155.84153148 512.98699211 147.97544765 512.97653532 C143.28261408 512.97031187 138.58994794 512.96943308 133.89712524 512.98268127 C129.48433431 512.99426961 125.07200145 512.98615983 120.6592598 512.96310425 C119.04361353 512.95783305 117.42792844 512.95930365 115.81229782 512.96815491 C106.53682496 513.01427045 99.13563616 513.03101711 91.7890625 506.69140625 C91.34304688 506.13324219 90.89703125 505.57507813 90.4375 505 C89.97601563 504.44441406 89.51453125 503.88882812 89.0390625 503.31640625 C85.90460377 498.51489463 85.54751061 494.2514965 85.6875 488.625 C85.69652344 487.93212891 85.70554687 487.23925781 85.71484375 486.52539062 C85.73823843 484.82927605 85.77410359 483.13334129 85.8125 481.4375 C84.99265625 481.49550781 84.1728125 481.55351562 83.328125 481.61328125 C82.25046875 481.65839844 81.1728125 481.70351563 80.0625 481.75 C78.99515625 481.80800781 77.9278125 481.86601562 76.828125 481.92578125 C73.8125 481.4375 73.8125 481.4375 71.453125 479.4921875 C69.21367657 475.3225478 69.20768893 471.91454835 69.3125 467.25 C69.32458496 466.40083008 69.33666992 465.55166016 69.34912109 464.67675781 C69.63006509 455.79211663 71.82118095 448.58109888 77.9765625 441.97265625 C86.03981533 435.23040441 94.84852863 434.31263397 104.9375 434.26171875 C106.71355367 434.23853189 108.48959539 434.21441502 110.265625 434.18945312 C113.04370286 434.15430936 115.82133585 434.12495743 118.59960938 434.11157227 C121.29610707 434.09606693 123.99133866 434.05586281 126.6875 434.01171875 C127.51266113 434.01362717 128.33782227 434.01553558 129.18798828 434.01750183 C134.51711918 433.90497795 137.58870493 432.97428743 141.8125 429.4375 C149.00855589 419.90758815 147.84809609 407.1677763 146.31640625 395.734375 C144.19089976 386.55987242 140.67349585 378.9428255 133.8125 372.4375 C133.08289063 373.03175781 132.35328125 373.62601562 131.6015625 374.23828125 C122.50520474 381.5112098 112.86991242 387.58657534 102.8125 393.4375 C102.19181641 393.80617188 101.57113281 394.17484375 100.93164062 394.5546875 C71.05845138 412.19346295 35.48220589 419.66227727 1.125 419.6875 C0.30025177 419.68817474 -0.52449646 419.68884949 -1.37423706 419.68954468 C-22.02149019 419.66274925 -47.86055699 419.21475286 -66.1875 408.4375 C-68.12028072 405.77159556 -69.14671393 403.55985821 -70.1875 400.4375 C-72.46131143 399.20205265 -74.62200855 398.17215576 -77 397.1875 C-77.94456055 396.76597656 -77.94456055 396.76597656 -78.90820312 396.3359375 C-81.56392037 395.21011403 -83.60842049 394.37131948 -86.51171875 394.703125 C-87.75259945 395.24691421 -88.97572721 395.83161361 -90.1875 396.4375 C-96.25869282 397.02430674 -99.71550808 395.58856095 -104.75 392.5625 C-105.44327393 392.15757324 -106.13654785 391.75264648 -106.85083008 391.33544922 C-118.87543737 384.18731304 -129.72209093 375.68615155 -140.1875 366.4375 C-140.97302246 365.74672363 -140.97302246 365.74672363 -141.77441406 365.04199219 C-180.07980218 331.1956833 -204.81136807 281.3675304 -209.1875 230.4375 C-209.33242367 227.40050246 -209.37355354 224.3682908 -209.390625 221.328125 C-209.39768463 220.48742462 -209.40474426 219.64672424 -209.41201782 218.7805481 C-209.63999137 183.66816724 -209.63999137 183.66816724 -206.1875 168.4375 C-205.98882324 167.53547852 -205.79014648 166.63345703 -205.58544922 165.70410156 C-197.39364985 129.46382662 -180.82365853 97.18836637 -156.1875 69.4375 C-155.31996094 68.4475 -154.45242187 67.4575 -153.55859375 66.4375 C-148.72807173 61.00961571 -143.77409861 56.07275754 -138.1875 51.4375 C-137.3521875 50.70273437 -136.516875 49.96796875 -135.65625 49.2109375 C-98.11927346 16.72701549 -49.40852729 -0.35772834 0 0 Z M-96.1875 98.4375 C-96.92178223 99.07341064 -96.92178223 99.07341064 -97.67089844 99.72216797 C-125.65431509 124.0058114 -144.01755216 160.19960214 -147.04248047 197.22265625 C-149.53770849 235.33159337 -138.99641529 274.40176689 -113.63208008 303.57324219 C-112.16658379 305.21015484 -110.68152858 306.82659642 -109.1875 308.4375 C-108.63465332 309.03949219 -108.08180664 309.64148438 -107.51220703 310.26171875 C-82.259986 337.47044344 -47.13533977 354.974497 -9.859375 357.34765625 C-8.97765625 357.37730469 -8.0959375 357.40695312 -7.1875 357.4375 C-6.07890625 357.47746094 -4.9703125 357.51742188 -3.828125 357.55859375 C28.83819648 358.14438222 63.57496519 348.59096651 89.14453125 327.6015625 C91.8125 325.4375 91.8125 325.4375 94.76171875 323.6484375 C98.02745763 321.43484044 99.81943044 319.86783759 101.8125 316.4375 C102.69782688 311.00022378 102.2455818 305.5009175 101.98828125 300.0234375 C101.11145728 280.65449461 109.56885787 261.70343051 122.125 247.3125 C128.27632672 240.74413418 134.26687438 234.60501277 142.375 230.5625 C145.867261 228.57305115 145.867261 228.57305115 147.66015625 225.1171875 C147.96403574 222.18111241 147.92778851 219.38665435 147.8125 216.4375 C147.84472656 215.38433594 147.87695312 214.33117187 147.91015625 213.24609375 C148.91433486 175.5675659 134.7986126 138.587125 109.23828125 110.99609375 C108.43777344 110.15175781 107.63726562 109.30742188 106.8125 108.4375 C105.91917969 107.47972656 105.02585937 106.52195313 104.10546875 105.53515625 C78.73288616 78.86783395 42.50866419 63.6232864 5.875 62.21484375 C-31.61023771 61.30572631 -67.96878749 73.50680857 -96.1875 98.4375 Z " fill="#000100" transform="translate(209.1875,-0.4375)"/>
<path d="M0 0 C49.28824937 -1.84286003 97.99153453 12.58100837 135.69824219 45.14892578 C136.478125 45.81923828 137.25800781 46.48955078 138.06152344 47.18017578 C140.65083394 49.45976015 143.18147963 51.78946088 145.69824219 54.14892578 C146.19195312 54.6086377 146.68566406 55.06834961 147.19433594 55.54199219 C177.95441127 84.41312275 196.20121473 123.03919255 203.69824219 164.14892578 C203.83101563 164.8753125 203.96378906 165.60169922 204.10058594 166.35009766 C206.21794849 178.54277528 205.9089213 190.81933583 205.69824219 203.14892578 C204.72383179 203.18651001 204.72383179 203.18651001 203.72973633 203.22485352 C200.73993131 203.34206429 197.75034684 203.46421497 194.76074219 203.58642578 C193.73916016 203.62574219 192.71757812 203.66505859 191.66503906 203.70556641 C185.6323401 203.95612579 179.69053719 204.40535633 173.69824219 205.14892578 C173.68365967 204.50157471 173.66907715 203.85422363 173.65405273 203.18725586 C172.55665444 159.20989159 161.722561 118.24034638 130.86230469 85.46923828 C128.69824219 83.14892578 128.69824219 83.14892578 126.26074219 80.02392578 C122.21777697 75.48791603 117.47398628 71.88538878 112.69824219 68.14892578 C111.26738281 67.01197266 111.26738281 67.01197266 109.80761719 65.85205078 C81.99740572 44.28798307 48.54979089 32.99514683 13.51733398 32.90869141 C11.16515901 32.8990464 8.81388281 32.86797267 6.46191406 32.83642578 C-3.82976809 32.76492294 -13.25424557 33.88736884 -23.30175781 36.14892578 C-24.66287084 36.44235273 -26.02411831 36.73515672 -27.38549805 37.02734375 C-49.95025978 42.00700816 -71.44390086 52.51810005 -89.30175781 67.14892578 C-89.84703125 67.59413574 -90.39230469 68.0393457 -90.95410156 68.49804688 C-119.53125321 91.93163523 -139.69383047 123.78735215 -147.30175781 160.14892578 C-147.55546143 161.27999756 -147.80916504 162.41106934 -148.07055664 163.57641602 C-150.11550604 173.11446133 -150.74420456 182.28036142 -150.63793945 192.02270508 C-150.6141626 194.34572792 -150.61743546 196.66760701 -150.62402344 198.99072266 C-150.60758925 207.87955687 -150.01673587 216.39794053 -148.30175781 225.14892578 C-148.16116943 225.87394287 -148.02058105 226.59895996 -147.87573242 227.34594727 C-142.00864458 255.40796582 -128.82595331 282.06956505 -109.25488281 303.04345703 C-107.66115057 304.76150039 -106.18716856 306.49757914 -104.73925781 308.33642578 C-87.01046373 328.79272664 -58.15198642 344.33360584 -32.30175781 351.14892578 C-31.45532715 351.37596191 -30.60889648 351.60299805 -29.73681641 351.83691406 C13.70149963 363.04704657 58.60438313 354.91568006 96.99121094 332.45751953 C101.62079483 329.64803172 105.89999573 326.4465517 110.14746094 323.09423828 C112.57830211 321.24039617 115.04804101 319.66741943 117.69824219 318.14892578 C117.96975098 318.6575415 118.24125977 319.16615723 118.52099609 319.69018555 C119.77952937 322.03548866 121.05126307 324.37338967 122.32324219 326.71142578 C122.74992187 327.51128906 123.17660156 328.31115234 123.61621094 329.13525391 C126.17996749 333.82271925 128.86892808 337.79508422 132.57470703 341.65649414 C133.69824219 343.14892578 133.69824219 343.14892578 133.69824219 346.14892578 C132.39501953 347.49243164 132.39501953 347.49243164 130.53417969 348.86376953 C129.48653442 349.63684448 129.48653442 349.63684448 128.41772461 350.42553711 C127.25720581 351.247677 127.25720581 351.247677 126.07324219 352.08642578 C125.26927002 352.6583667 124.46529785 353.23030762 123.63696289 353.81958008 C107.80206337 364.83114467 90.92763517 372.96256401 72.69824219 379.14892578 C71.95815918 379.40254883 71.21807617 379.65617187 70.45556641 379.91748047 C36.298474 391.48795154 -3.53994067 393.93600664 -38.18188477 382.77514648 C-43.17192019 381.21602146 -48.07254739 380.39905926 -53.30175781 381.14892578 C-55.87166779 382.96157226 -55.87166779 382.96157226 -57.30175781 385.14892578 C-64.02044831 383.1527931 -70.1091059 380.41978368 -76.30175781 377.14892578 C-76.19863281 376.07642578 -76.09550781 375.00392578 -75.98925781 373.89892578 C-75.8864521 370.10569948 -75.8864521 370.10569948 -78.37597656 368.18017578 C-81.63594827 365.91691105 -84.99447911 363.88428066 -88.42675781 361.89892578 C-101.89618782 353.94717266 -114.48434131 344.48145736 -125.30175781 333.14892578 C-126.12675781 332.32392578 -126.95175781 331.49892578 -127.80175781 330.64892578 C-128.62675781 329.82392578 -129.45175781 328.99892578 -130.30175781 328.14892578 C-130.81512695 327.65295898 -131.32849609 327.15699219 -131.85742188 326.64599609 C-158.94061358 300.21242978 -175.31201977 262.04008944 -181.30175781 225.14892578 C-181.41890137 224.46507812 -181.53604492 223.78123047 -181.65673828 223.07666016 C-189.39683667 176.5670645 -177.94173304 126.13939471 -151.51269531 87.21142578 C-144.92140267 78.08143738 -138.08160275 69.31483821 -130.30175781 61.14892578 C-129.75890137 60.57883789 -129.21604492 60.00875 -128.65673828 59.42138672 C-120.42264669 50.83143197 -112.04872442 42.9872361 -102.30175781 36.14892578 C-101.274375 35.42705078 -100.24699219 34.70517578 -99.18847656 33.96142578 C-69.57920551 14.10371107 -35.73507105 1.61183033 0 0 Z " fill="#45CA8B" transform="translate(198.3017578125,14.85107421875)"/>
<path d="M0 0 C1.57551636 0.01244751 1.57551636 0.01244751 3.18286133 0.02514648 C22.62626022 0.44352424 37.92007218 7.38221461 52.375 20.4375 C53.02855469 21.18128906 53.68210937 21.92507812 54.35546875 22.69140625 C56.93269435 24.91968447 58.27374733 24.86388172 61.625 24.6875 C62.96304688 24.63335937 62.96304688 24.63335937 64.328125 24.578125 C65.00359375 24.53171875 65.6790625 24.4853125 66.375 24.4375 C67.71909762 26.68166299 69.05029896 28.93192796 70.375 31.1875 C70.7565625 31.82171875 71.138125 32.4559375 71.53125 33.109375 C73.55415652 36.57721476 74.375 38.33098254 74.375 42.4375 C73.694375 42.97375 73.01375 43.51 72.3125 44.0625 C70.15774799 46.21520009 70.15774799 46.21520009 70.296875 48.66796875 C70.56562272 51.28035466 70.93017566 53.84943113 71.375 56.4375 C74.67895392 75.89411753 70.58215084 94.60565643 59.671875 110.99609375 C55.53204032 116.47687488 50.64873755 121.15096087 45.75 125.9375 C40.25298773 131.31299796 35.68749715 136.40980997 32.375 143.4375 C31.818125 144.530625 31.26125 145.62375 30.6875 146.75 C27.13533006 156.72990603 25.85080751 166.44602657 25.875 177 C25.84664063 178.12857422 25.81828125 179.25714844 25.7890625 180.41992188 C25.76586501 190.50503273 28.42717925 200.3759181 35.49609375 207.90625 C41.12762197 212.49576988 48.19549705 216.54464139 55.56762695 216.5793457 C56.40892654 216.58638016 57.25022614 216.59341461 58.11701965 216.60066223 C59.02328598 216.60482651 59.92955231 216.60899078 60.86328125 216.61328125 C62.78581822 216.63648098 64.7083443 216.66059838 66.63085938 216.68554688 C69.65917235 216.72064281 72.68708466 216.74999816 75.71557617 216.76342773 C78.64030371 216.77893277 81.5638635 216.81915892 84.48828125 216.86328125 C85.38847488 216.86137283 86.28866852 216.85946442 87.21614075 216.85749817 C93.76677458 216.98447474 97.38807646 218.6497047 102.25 223.1875 C103.375 225.4375 103.375 225.4375 103.375 233.4375 C36.715 233.4375 -29.945 233.4375 -98.625 233.4375 C-98.625 224.4375 -98.625 224.4375 -96.875 221.5 C-93.54300078 218.44566738 -90.9395914 217.18693404 -86.4140625 217.19799805 C-85.18127563 217.1924012 -85.18127563 217.1924012 -83.92358398 217.18669128 C-83.04130127 217.19082535 -82.15901855 217.19495941 -81.25 217.19921875 C-79.35806586 217.18378457 -77.46613866 217.1674799 -75.57421875 217.15039062 C-72.61003221 217.13402875 -69.64635631 217.12494862 -66.68212891 217.13208008 C-49.05769631 217.69035644 -49.05769631 217.69035644 -33.94921875 209.7722168 C-33.51222656 209.33176025 -33.07523437 208.89130371 -32.625 208.4375 C-31.965 208.4375 -31.305 208.4375 -30.625 208.4375 C-30.34785156 207.88191406 -30.07070313 207.32632813 -29.78515625 206.75390625 C-28.98459483 205.1554789 -28.17963202 203.55925099 -27.37109375 201.96484375 C-26.93925781 201.11019531 -26.50742187 200.25554687 -26.0625 199.375 C-25.62808594 198.51777344 -25.19367188 197.66054688 -24.74609375 196.77734375 C-21.82142686 190.67324804 -22.44089738 184.58278243 -22.4375 177.9375 C-22.42525391 176.70773437 -22.41300781 175.47796875 -22.40039062 174.2109375 C-22.3719295 156.33735064 -26.60218648 140.64886558 -39.42333984 127.60839844 C-41.48267712 125.5848538 -43.5524748 123.57253103 -45.625 121.5625 C-59.37416675 108.13964345 -67.48949083 92.10479221 -67.96850586 72.63208008 C-68.17864404 52.56795586 -63.08852474 36.60109546 -48.91796875 21.7421875 C-48.16128906 20.98164063 -47.40460938 20.22109375 -46.625 19.4375 C-45.96113281 18.73882812 -45.29726563 18.04015625 -44.61328125 17.3203125 C-32.87282221 5.82584404 -16.20997945 -0.16616897 0 0 Z " fill="#FC9637" transform="translate(393.625,232.5625)"/>
<path d="M0 0 C3.26910712 2.53217797 6.09126738 5.3822134 8.9375 8.375 C10.04834961 9.48875 10.04834961 9.48875 11.18164062 10.625 C17.11804996 16.70646187 20.57667272 22.08940351 21.3125 30.625 C21.02572402 42.05836321 13.68350405 49.1759558 6.00854492 56.73608398 C4.87521097 57.87428187 3.74317045 59.01376887 2.61231995 60.1544342 C-0.44437969 63.22984446 -3.51943729 66.28625232 -6.59882951 69.3389194 C-9.82694253 72.54429701 -13.03950855 75.76519237 -16.25431824 78.98390198 C-21.65177527 84.38312111 -27.06102812 89.77029234 -32.4777832 95.15014648 C-38.73327647 101.36326728 -44.97088486 107.59390449 -51.19898683 113.83447403 C-57.20275784 119.84964579 -63.21782353 125.85339363 -69.2385006 131.8516407 C-71.79565064 134.39952096 -74.34901593 136.95110665 -76.8994236 139.5057354 C-79.90340162 142.51348913 -82.9172275 145.51102153 -85.93885231 148.50104332 C-87.04397009 149.59769968 -88.14574701 150.69773487 -89.24384689 151.8014183 C-90.74727265 153.31132477 -92.2625323 154.80829425 -93.78132629 156.30271912 C-94.62510236 157.14238944 -95.46887842 157.98205976 -96.33822346 158.84717464 C-101.25276896 162.82202302 -106.6647487 164.67231459 -113 165 C-122.74131039 163.90815435 -128.45298692 158.8470618 -135.15112305 152.1394043 C-135.83968384 151.45756073 -136.52824463 150.77571716 -137.2376709 150.07321167 C-139.50099049 147.82881365 -141.75676431 145.57701911 -144.01171875 143.32421875 C-145.58764744 141.7547204 -147.16372494 140.18537144 -148.73994446 138.61616516 C-152.03763736 135.33042924 -155.33118821 132.04060368 -158.62231445 128.74829102 C-162.83549564 124.53490636 -167.06227989 120.33546095 -171.29272747 116.13942242 C-174.55010667 112.90429836 -177.7983369 109.66010657 -181.04407692 106.4133091 C-182.598555 104.86118763 -184.15626929 103.31230016 -185.71729088 101.76675987 C-187.90018725 99.60350045 -190.06999705 97.42788381 -192.23706055 95.2487793 C-193.20259605 94.30010231 -193.20259605 94.30010231 -194.18763733 93.33226013 C-199.44733316 87.99813928 -202.41546645 82.91175295 -202.5 75.1875 C-202.11376823 64.7978653 -197.20440691 58.80167763 -190.1875 51.625 C-189.60726074 51.02961426 -189.02702148 50.43422852 -188.42919922 49.82080078 C-182.52718604 44.05950652 -176.12153328 40.40168888 -167.8125 39.75 C-157.51492102 40.42525108 -152.16789937 44.99068041 -145.15234375 52.26171875 C-144.25504044 53.16751175 -143.35773712 54.07330475 -142.4332428 55.00654602 C-140.06961767 57.39793135 -137.71987466 59.80141568 -135.37597656 62.21203613 C-132.97336973 64.67642079 -130.55332551 67.12355354 -128.13476562 69.57226562 C-123.40707964 74.36589875 -118.69696283 79.17626962 -114 84 C-110.18820566 82.43140505 -107.8444366 80.04392392 -104.99121094 77.10717773 C-104.50604507 76.61105988 -104.02087921 76.11494202 -103.52101135 75.60379028 C-102.47078713 74.52927035 -101.42272917 73.45262978 -100.3766098 72.37411308 C-98.7171811 70.66589432 -97.04941356 68.96626033 -95.37872314 67.26905823 C-90.6300816 62.44419918 -85.88819941 57.6130272 -81.17333984 52.75512695 C-78.28558559 49.78100361 -75.38085654 46.82439851 -72.4645462 43.87828255 C-71.35931686 42.75514761 -70.26054242 41.62562128 -69.16857147 40.4895916 C-67.63710194 38.89760159 -66.08488686 37.32888352 -64.52636719 35.76342773 C-63.21209747 34.41679298 -63.21209747 34.41679298 -61.87127686 33.04295349 C-58.0433367 30.31932073 -55.67152925 30.16996251 -51 30 C-50.01 30.33 -49.02 30.66 -48 31 C-45.94903102 29.19297887 -43.93893433 27.36055124 -41.9375 25.5 C-41.35677734 24.9946875 -40.77605469 24.489375 -40.17773438 23.96875 C-36.94489916 20.99320086 -36.94489916 20.99320086 -35.88500977 16.89868164 C-36.1644633 14.91724558 -36.5766931 12.95575929 -37 11 C-34.90617738 5.27688484 -29.1109699 0.52080004 -23.72265625 -2.11328125 C-15.01596661 -5.25364281 -8.10956161 -4.25586582 0 0 Z " fill="#000100" transform="translate(295,138)"/>
<path d="M0 0 C4.73112493 1.37991144 7.53875086 4.47808634 11 7.875 C11.75539063 8.535 12.51078125 9.195 13.2890625 9.875 C16.68104732 12.9433679 18.73713358 14.89363202 19.9375 19.375 C17.57632021 28.1900712 7.80386693 35.21439939 1.5065918 41.49780273 C0.46427636 42.54147597 -0.57782683 43.58536121 -1.61973572 44.62944031 C-4.42696015 47.4411906 -7.23729829 50.24980866 -10.04837823 53.05770373 C-12.99576649 56.00254726 -15.94069955 58.94984448 -18.8860321 61.89674377 C-23.82432545 66.83685094 -28.76471172 71.77485767 -33.70629883 76.71166992 C-39.42219258 82.42210446 -45.13445063 88.13615691 -50.84486896 93.85206646 C-55.75441499 98.76614452 -60.66589948 103.67827876 -65.57902211 108.58878094 C-68.51096191 111.5191608 -71.44221951 114.45021448 -74.3717289 117.38302422 C-77.11999595 120.13417188 -79.87068231 122.88287713 -82.62328529 125.62968636 C-83.63439772 126.63947299 -84.64465359 127.65011812 -85.65400314 128.66166687 C-87.02783768 130.03821947 -88.40503694 131.41141159 -89.78242493 132.78440857 C-90.55317006 133.55477668 -91.3239152 134.32514479 -92.11801624 135.11885738 C-94.40208589 137.25019993 -95.59357857 137.80571723 -98.68180847 138.33216858 C-103.5679896 137.65896799 -105.72149361 134.99468852 -109.09106445 131.56030273 C-109.77308426 130.88879684 -110.45510406 130.21729095 -111.15779114 129.5254364 C-113.40828567 127.30135047 -115.63612005 125.05602752 -117.86328125 122.80859375 C-119.42085058 121.25506615 -120.97930967 119.70243014 -122.53862 118.15065002 C-125.80391361 114.89420463 -129.05810309 111.62714808 -132.30493164 108.35229492 C-136.46555125 104.15751938 -140.65248758 99.9902181 -144.84814167 95.83051968 C-148.07178537 92.62857148 -151.28098343 89.4124514 -154.48601341 86.19188118 C-156.02417904 84.64971552 -157.56680747 83.11198773 -159.11394691 81.578825 C-161.27613163 79.43189926 -163.41811473 77.26663725 -165.5559082 75.09545898 C-166.19743835 74.46607422 -166.83896851 73.83668945 -167.49993896 73.18823242 C-171.29903594 69.27863636 -173.00765911 66.57730299 -173 60.875 C-171.375 58.21484375 -171.375 58.21484375 -169 55.8125 C-167.75089844 54.54599609 -167.75089844 54.54599609 -166.4765625 53.25390625 C-165.65929687 52.46886719 -164.84203125 51.68382812 -164 50.875 C-163.05253906 49.89853516 -163.05253906 49.89853516 -162.0859375 48.90234375 C-159.13547047 46.05292011 -157.93299776 44.96612108 -153.69294739 44.55201721 C-149.22464991 44.94281162 -148.106062 45.91800514 -145.0144043 49.08178711 C-144.10043381 49.99951401 -143.18646332 50.91724091 -142.24479675 51.86277771 C-141.27096709 52.87567452 -140.29744838 53.88887038 -139.32421875 54.90234375 C-138.30929833 55.93287256 -137.29273617 56.96178684 -136.27461243 57.989151 C-133.60479007 60.69129051 -130.9562311 63.41333574 -128.31207275 66.14056396 C-125.09075245 69.4557996 -121.8461416 72.74821059 -118.60374928 76.04281712 C-116.08272128 78.60497408 -113.56578415 81.17074203 -111.06047058 83.74827576 C-110.16226089 84.66915482 -109.26405121 85.59003387 -108.33862305 86.53881836 C-107.54699265 87.35378281 -106.75536224 88.16874725 -105.93974304 89.00840759 C-103.3819815 91.46971209 -102.34920391 91.83120103 -98.77464294 92.27954102 C-93.96306276 91.76386799 -91.8477831 89.7193284 -88.60571289 86.40234375 C-88.0097229 85.82022629 -87.41373291 85.23810883 -86.79968262 84.63835144 C-84.83926273 82.71376775 -82.90559367 80.764656 -80.97265625 78.8125 C-79.61597446 77.46307556 -78.25832939 76.11461894 -76.89976501 74.76708984 C-74.0581311 71.94028025 -71.22978383 69.10095475 -68.40991211 66.25244141 C-64.7979072 62.60616527 -61.15318227 58.99476087 -57.49755192 55.39228821 C-54.6873621 52.6149297 -51.89630162 49.81895414 -49.11053276 47.01712036 C-47.7741229 45.67789288 -46.43163216 44.34470468 -45.08299446 43.01779175 C-43.19822286 41.15811511 -41.34095628 39.27463335 -39.48852539 37.3828125 C-38.92912766 36.84117966 -38.36972992 36.29954681 -37.79338074 35.74150085 C-34.95848941 32.78764975 -33.67259191 30.69426309 -33.65696716 26.65576172 C-33.770168 25.40811035 -33.88336884 24.16045898 -34 22.875 C-34 19.875 -34 19.875 -32.80664062 18.34106445 C-32.26201172 17.812146 -31.71738281 17.28322754 -31.15625 16.73828125 C-30.27646484 15.87299805 -30.27646484 15.87299805 -29.37890625 14.99023438 C-28.75886719 14.39533203 -28.13882813 13.80042969 -27.5 13.1875 C-26.87996094 12.58099609 -26.25992188 11.97449219 -25.62109375 11.34960938 C-24.08735293 9.85126257 -22.54451802 8.36223507 -21 6.875 C-20.01 7.205 -19.02 7.535 -18 7.875 C-14.71256453 8.54423762 -14.71256453 8.54423762 -11 7.875 C-8.91439832 6.31947474 -8.91439832 6.31947474 -6.9375 4.375 C-4.46695937 2.05145891 -3.30384146 0.96362042 0 0 Z " fill="#44CA8B" transform="translate(281,149.125)"/>
<path d="M0 0 C3.32354359 2.75761511 4.91399481 6.46954635 6.8125 10.25 C9.68783185 15.84834594 12.75192167 20.32711384 17 25 C17 28 17 28 15.69677734 29.34350586 C14.77566162 30.02231812 14.77566162 30.02231812 13.8359375 30.71484375 C13.13750732 31.23022705 12.43907715 31.74561035 11.71948242 32.27661133 C10.94580322 32.82470459 10.17212402 33.37279785 9.375 33.9375 C8.57102783 34.50944092 7.76705566 35.08138184 6.9387207 35.6706543 C-8.89617882 46.68221889 -25.77060701 54.81363823 -44 61 C-45.11012451 61.38043457 -45.11012451 61.38043457 -46.24267578 61.76855469 C-80.39976818 73.33902576 -120.23818286 75.78708086 -154.88012695 64.6262207 C-159.87016237 63.06709568 -164.77078958 62.25013348 -170 63 C-172.56990998 64.81264648 -172.56990998 64.81264648 -174 67 C-180.7186905 65.00386732 -186.80734808 62.2708579 -193 59 C-192.505 56.03 -192.505 56.03 -192 53 C-191.16251221 53.18175781 -191.16251221 53.18175781 -190.30810547 53.3671875 C-163.6366993 58.91594974 -134.74672346 59.45358572 -108 54 C-106.7109375 53.76023437 -105.421875 53.52046875 -104.09375 53.2734375 C-79.1429529 48.33751894 -56.75428169 37.82507326 -35 25 C-34.12730469 24.51144531 -33.25460937 24.02289063 -32.35546875 23.51953125 C-29.95637236 22.0970541 -29.95637236 22.0970541 -28.1640625 20.109375 C-25.22337626 17.24300213 -21.88775756 15.34698494 -18.375 13.25 C-11.8228991 9.25936477 -5.82436307 5.01231245 0 0 Z " fill="#00C078" transform="translate(315,333)"/>
<path d="M0 0 C13.90167575 6.95083787 25.88208952 17.26231902 37 28 C37.9827632 28.91960193 38.9658395 29.83886937 39.94921875 30.7578125 C69.51443922 58.83218688 86.77765647 97.39648819 94 137 C94.13277344 137.72638672 94.26554687 138.45277344 94.40234375 139.20117188 C96.5197063 151.3938495 96.21067911 163.67041005 96 176 C95.0255896 176.03758423 95.0255896 176.03758423 94.03149414 176.07592773 C91.04168912 176.19313851 88.05210465 176.31528919 85.0625 176.4375 C84.04091797 176.47681641 83.01933594 176.51613281 81.96679688 176.55664062 C75.93409791 176.80720001 69.992295 177.25643055 64 178 C63.96241577 176.95042114 63.96241577 176.95042114 63.92407227 175.87963867 C63.80662133 172.64880582 63.68458364 169.41816098 63.5625 166.1875 C63.52318359 165.08728516 63.48386719 163.98707031 63.44335938 162.85351562 C63.24193285 157.60093162 62.97390012 152.38406521 62.45703125 147.15234375 C62.03796308 142.86010515 61.98639186 138.69033352 62.125 134.375 C62.23663011 125.65637574 60.82639757 117.49922017 59 109 C58.75056641 107.79150391 58.75056641 107.79150391 58.49609375 106.55859375 C51.43381292 72.71195894 36.65882842 42.16651182 14 16 C13.21367187 15.09121094 12.42734375 14.18242188 11.6171875 13.24609375 C7.21648493 8.24210885 7.21648493 8.24210885 2.234375 3.83984375 C1.49703125 3.23269531 0.7596875 2.62554687 0 2 C0 1.34 0 0.68 0 0 Z " fill="#00BF78" transform="translate(308,42)"/>
<path d="M0 0 C4.80741157 1.27543572 7.57486255 4.38968853 11.0625 7.8125 C11.81789063 8.4725 12.57328125 9.1325 13.3515625 9.8125 C16.74354732 12.8808679 18.79963358 14.83113202 20 19.3125 C17.63882021 28.1275712 7.86636693 35.15189939 1.5690918 41.43530273 C0.52677636 42.47897597 -0.51532683 43.52286121 -1.55723572 44.56694031 C-4.36446015 47.3786906 -7.17479829 50.18730866 -9.98587823 52.99520373 C-12.93326649 55.94004726 -15.87819955 58.88734448 -18.8235321 61.83424377 C-23.76182545 66.77435094 -28.70221172 71.71235767 -33.64379883 76.64916992 C-39.35969258 82.35960446 -45.07195063 88.07365691 -50.78236896 93.78956646 C-55.69191499 98.70364452 -60.60339948 103.61577876 -65.51652211 108.52628094 C-68.44846191 111.4566608 -71.37971951 114.38771448 -74.3092289 117.32052422 C-77.05749595 120.07167188 -79.80818231 122.82037713 -82.56078529 125.56718636 C-83.57189772 126.57697299 -84.58215359 127.58761812 -85.59150314 128.59916687 C-86.96533768 129.97571947 -88.34253694 131.34891159 -89.71992493 132.72190857 C-90.49067006 133.49227668 -91.2614152 134.26264479 -92.05551624 135.05635738 C-94.29046677 137.14186522 -95.57058191 137.7338747 -98.5625 138.375 C-103.84968711 137.49380215 -106.49970621 133.72146349 -109.9375 129.8125 C-108.4902709 126.48950339 -106.68568232 124.32102263 -104.11734009 121.77874756 C-103.32102676 120.98546555 -102.52471344 120.19218353 -101.70426941 119.37486267 C-100.82942398 118.51349197 -99.95457855 117.65212128 -99.05322266 116.76464844 C-97.64026606 115.36110655 -96.22731165 113.95756246 -94.81443954 112.55393553 C-93.29634178 111.04760395 -91.77583338 109.54374304 -90.25468826 108.0404892 C-87.07982508 104.90226836 -83.91371515 101.75531595 -80.74911499 98.60675049 C-71.74936767 89.65525914 -62.73799512 80.71552579 -53.71777344 71.78466797 C-48.73465165 66.85076041 -43.75883624 61.90959891 -38.79064405 56.96065736 C-35.65044798 53.83349822 -32.50147935 50.7155452 -29.34558511 47.60423326 C-26.91581262 45.2035773 -24.49926172 42.7897443 -22.08056641 40.37792969 C-21.20976944 39.52465591 -20.33897247 38.67138214 -19.44178772 37.79225159 C-13.87319797 32.2055501 -9.46210428 27.23416463 -8.5 19.125 C-8.97778269 15.50750251 -9.5700113 13.58817641 -11.9375 10.8125 C-14.52872743 9.92591534 -14.52872743 9.92591534 -16.9375 9.8125 C-16.9375 9.4825 -16.9375 9.1525 -16.9375 8.8125 C-15.926875 8.60625 -14.91625 8.4 -13.875 8.1875 C-10.63732229 7.29974966 -8.80322793 5.9856443 -6.375 3.6875 C-4.07951332 1.62156199 -3.051345 0.84398904 0 0 Z " fill="#00C079" transform="translate(280.9375,149.1875)"/>
<path d="M0 0 C6.65833611 4.83815604 12.37101829 10.36369593 14.21484375 18.609375 C15.40340221 28.21668329 15.39568677 37.68114412 9.21484375 45.609375 C3.08514075 52.5233904 -3.73864102 56.90235251 -12.9921875 57.984375 C-20.16641709 58.25163384 -25.62449054 57.30577442 -31.78515625 53.609375 C-32.42195313 53.23554688 -33.05875 52.86171875 -33.71484375 52.4765625 C-40.45126709 48.11089759 -45.09059468 41.48256878 -46.78515625 33.609375 C-47.89178859 23.08287224 -46.27486767 14.62009668 -39.59765625 6.296875 C-29.67010399 -4.27254486 -12.70760347 -7.52729923 0 0 Z " fill="#030201" transform="translate(411.78515625,283.390625)"/>
<path d="M0 0 C56.43 0 112.86 0 171 0 C171 12 171 12 168.9174881 14.71783352 C165.48856671 16.22476274 163.06736716 16.50572106 159.32019043 16.5146637 C158.6619942 16.52160922 158.00379798 16.52855475 157.32565641 16.53571075 C155.12756347 16.55395823 152.93055262 16.54372386 150.73242188 16.53344727 C149.15360203 16.54050689 147.57478895 16.5492521 145.99598694 16.55955505 C141.71291509 16.58205275 137.43021269 16.57910873 133.14710426 16.57023358 C129.5709118 16.56512325 125.99478874 16.57241652 122.41860342 16.57970566 C113.98262051 16.59670547 105.54681848 16.59313755 97.11083984 16.57641602 C88.40775122 16.55948814 79.70516392 16.57533802 71.00213003 16.6076389 C63.52851445 16.634326 56.05505502 16.64161339 48.58139658 16.63312382 C44.11827371 16.62819278 39.6554526 16.63041981 35.19236755 16.65091133 C30.99622605 16.6692552 26.8008065 16.66332623 22.6047039 16.63871193 C21.06519876 16.63370014 19.52563872 16.63720348 17.98617744 16.64986038 C15.88322394 16.6657819 13.78265069 16.65085462 11.67980957 16.62818909 C9.91556011 16.62730962 9.91556011 16.62730962 8.11566925 16.62641239 C5 16 5 16 2.0825119 14.14823818 C0 11 0 11 0 0 Z " fill="#0054A2" transform="translate(310,481)"/>
<path d="M0 0 C1.22396484 -0.02449219 2.44792969 -0.04898437 3.70898438 -0.07421875 C11.90477569 -0.10095869 15.60426912 0.56398451 21.5625 6.125 C22.6875 8.375 22.6875 8.375 22.6875 16.375 C-43.9725 16.375 -110.6325 16.375 -179.3125 16.375 C-179.3125 7.375 -179.3125 7.375 -177.22371101 4.3492384 C-173.73673998 1.98454821 -171.92054529 1.76109539 -167.73312378 1.78718567 C-167.08576708 1.78432468 -166.43841038 1.78146368 -165.77143681 1.77851599 C-163.60972001 1.77497319 -161.45003456 1.80709626 -159.28857422 1.83911133 C-157.73607886 1.84379756 -156.18357538 1.8462486 -154.631073 1.84663391 C-151.29198651 1.85226758 -147.95350921 1.87371349 -144.61458969 1.90748024 C-139.33738965 1.96078215 -134.06041957 1.97913541 -128.7829895 1.99284363 C-120.43901469 2.01870437 -112.09537584 2.06835821 -103.75158036 2.12798852 C-88.80074143 2.23428895 -73.84973067 2.30496686 -58.89862072 2.35982531 C-53.64994105 2.3800893 -48.4015071 2.41232408 -43.15295768 2.45431292 C-39.89258813 2.4787475 -36.63221136 2.49520287 -33.37178421 2.50974846 C-31.85721186 2.51830228 -30.34265472 2.53035538 -28.82814026 2.54611969 C-26.76466106 2.56719957 -24.70147913 2.57603699 -22.63790894 2.5818634 C-20.90407865 2.59436992 -20.90407865 2.59436992 -19.13522148 2.6071291 C-12.70126124 2.07802646 -7.11327212 0.00742125 0 0 Z " fill="#FC850B" transform="translate(474.3125,449.625)"/>
<path d="M0 0 C3.4375 1.6875 3.4375 1.6875 6 4 C6.78375 4.66 7.5675 5.32 8.375 6 C10.99127547 10.83004701 10.71333805 15.63540668 10 21 C7.7343461 25.87986993 4.84534827 28.66705454 0 31 C-5.0226009 31.80165291 -8.80135239 31.59932381 -13.375 29.3125 C-16.84508548 26.25551994 -20.64170237 22.88400221 -21.23828125 18.08203125 C-21.43339091 12.11578332 -20.58975645 8.81783102 -17 4 C-11.96844758 -0.78611084 -6.6108623 -0.97537313 0 0 Z " fill="#AFC6E8" transform="translate(401,295)"/>
<path d="M0 0 C1.20560326 -0.00929787 1.20560326 -0.00929787 2.43556213 -0.01878357 C4.13256623 -0.02587574 5.82963999 -0.02271815 7.52661133 -0.01000977 C10.11735743 0.00384449 12.70448149 -0.03020312 15.29492188 -0.06835938 C16.94661546 -0.06931076 18.59831356 -0.06745071 20.25 -0.0625 C21.40646278 -0.08238731 21.40646278 -0.08238731 22.58628845 -0.10267639 C26.59058704 -0.0336898 28.49749981 0.41789984 31.71118164 2.87915039 C33.69140625 5.56640625 33.69140625 5.56640625 33.81640625 9.19140625 C32.69140625 12.56640625 32.69140625 12.56640625 30.63500977 14.25024414 C26.88462233 15.92714044 23.5019185 16.0158055 19.46875 16 C18.29500572 16.00786278 18.29500572 16.00786278 17.09754944 16.0158844 C15.44940372 16.02228678 13.8012122 16.02099074 12.15307617 16.01245117 C9.6331266 16.00392054 7.11543018 16.0327569 4.59570312 16.06445312 C2.99088609 16.06606484 1.38606506 16.06548817 -0.21875 16.0625 C-1.34543846 16.07935097 -1.34543846 16.07935097 -2.49488831 16.09654236 C-5.96143864 16.05036993 -7.95222754 15.82741329 -10.78295898 13.75415039 C-13.01975977 10.54660169 -12.85342671 8.38023696 -12.30859375 4.56640625 C-9.06266573 -0.12087524 -5.28956291 -0.03393992 0 0 Z " fill="#040200" transform="translate(385.30859375,434.43359375)"/>
<path d="M0 0 C0.495 0.99 0.495 0.99 1 2 C-2.86117151 8.48676813 -7.64519615 13.65838372 -15 16 C-21.83170874 16.85808902 -28.18922732 17.14807404 -34.125 13.3125 C-37.21048501 10.8659867 -40.01021138 8.43690762 -42 5 C-41.5859375 2.8515625 -41.5859375 2.8515625 -41 1 C-39.37239583 2.23697917 -37.74479167 3.47395833 -36.1171875 4.7109375 C-29.53006146 8.7215493 -22.47449904 8.71937667 -15 8 C-9.21111162 6.48237251 -4.40585121 4.1121278 0 0 Z " fill="#F8830A" transform="translate(417,332)"/>
<path d="M0 0 C0 0.99 0 1.98 0 3 C-1.64453125 4.421875 -1.64453125 4.421875 -3.8125 5.75 C-4.52019531 6.19859375 -5.22789062 6.6471875 -5.95703125 7.109375 C-8 8 -8 8 -11 7 C-8.81482901 4.59424393 -6.74080329 3.20464419 -3.8125 1.8125 C-2.73935547 1.29623047 -2.73935547 1.29623047 -1.64453125 0.76953125 C-1.10183594 0.51558594 -0.55914062 0.26164062 0 0 Z " fill="#38B87E" transform="translate(285,353)"/>
</svg>
