<?xml version="1.0" encoding="UTF-8"?>
<svg version="1.1" xmlns="http://www.w3.org/2000/svg" width="512" height="512">
<path d="M0 0 C7.51047381 4.57719863 10.51055205 10.36147212 13.5625 18.5 C13.5625 24.77 13.5625 31.04 13.5625 37.5 C36.6625 37.5 59.7625 37.5 83.5625 37.5 C83.5625 31.56 83.5625 25.62 83.5625 19.5 C85.23172876 11.44842597 88.86767566 6.23691175 95.3046875 1.11328125 C101.45844142 -2.6502807 108.60839895 -2.38293642 115.5625 -1.5 C122.99077543 0.66077181 127.80142042 4.79104724 131.5625 11.5 C133.5625 16.5 133.5625 16.5 133.5625 37.5 C156.9925 37.5 180.4225 37.5 204.5625 37.5 C204.5625 30.57 204.5625 23.64 204.5625 16.5 C207.15203799 8.8123091 210.478142 4.47153403 217.5625 0.5 C224.0680666 -2.67078036 232.051178 -2.63864038 239.0078125 -0.8828125 C245.56611339 2.02341495 250.73580212 7.80034243 253.5 14.375 C254.82210796 19.1770432 254.68279178 23.88381294 254.62890625 28.8203125 C254.6217157 30.0734021 254.6217157 30.0734021 254.61437988 31.35180664 C254.601928 33.40123956 254.58287385 35.45063052 254.5625 37.5 C255.13942093 37.49111755 255.71634186 37.48223511 256.31074524 37.4730835 C262.36241663 37.38399373 268.41389913 37.32401244 274.46606445 37.28027344 C276.71907123 37.26026536 278.97202679 37.23305009 281.22485352 37.19824219 C284.47945867 37.14924658 287.73337217 37.12692244 290.98828125 37.109375 C292.47803215 37.07840729 292.47803215 37.07840729 293.99787903 37.04681396 C304.87648587 37.04339092 313.47609424 40.31601883 321.328125 47.85546875 C326.83392297 54.37194642 330.69750942 62.36719866 330.6788187 70.97347832 C330.67935956 71.86949159 330.67990041 72.76550485 330.68045765 73.68867004 C330.6759788 74.66900872 330.67149995 75.6493474 330.66688538 76.65939331 C330.66617883 77.70396702 330.66547228 78.74854073 330.66474432 79.82476819 C330.66136105 83.33616327 330.6510013 86.84750512 330.64086914 90.35888672 C330.637354 92.87187634 330.6343866 95.38486679 330.63192749 97.89785767 C330.62771526 101.91616733 330.62314959 105.93447192 330.6161319 109.95277762 C330.59879057 119.91459521 330.59637209 129.87633612 330.60313416 139.83816528 C330.60359269 140.55859221 330.60405123 141.27901913 330.60452367 142.02127717 C330.60687326 145.70557025 330.60939155 149.38986317 330.61203277 153.07415605 C330.61746858 160.6651597 330.62254166 168.25616299 330.62573242 175.84716797 C330.62605905 176.60892948 330.62638568 177.37069099 330.62672221 178.15553619 C330.63123385 190.50235918 330.61043518 202.84902619 330.58121855 215.19580971 C330.55189168 227.87252801 330.55295437 240.54899283 330.58142942 253.22571385 C330.59796829 261.04487826 330.59029866 268.8632585 330.5516172 276.68234803 C330.52443735 282.67376421 330.53914238 288.66432619 330.56953049 294.6557579 C330.57536096 297.11401025 330.56746441 299.57233863 330.54493904 302.03049469 C330.51622422 305.38383504 330.53654042 308.73341758 330.56922913 312.0866394 C330.54913522 313.06251664 330.52904132 314.03839388 330.50833851 315.04384315 C330.60101801 320.20885602 330.60101801 320.20885602 333.3318795 324.41431642 C335.34703896 325.93958403 337.37435836 327.24020603 339.5625 328.5 C355.81153268 340.93753119 366.81274401 361.32096701 369.5625 381.5 C370.78460237 395.86474827 370.35412705 409.83208022 365.5625 423.5 C365.20027344 424.55960937 364.83804687 425.61921875 364.46484375 426.7109375 C359.95522362 438.60410516 352.41679432 448.48815596 343.5625 457.5 C342.96179688 458.11359375 342.36109375 458.7271875 341.7421875 459.359375 C322.73239081 477.29935629 298.86798272 481.39640072 273.70507812 480.67041016 C257.12841862 479.77152045 241.45253659 471.61120623 228.5625 461.5 C227.8921875 460.99339844 227.221875 460.48679687 226.53125 459.96484375 C218.17708023 453.21852015 211.55976654 443.9443753 206.5625 434.5 C206.5625 433.84 206.5625 433.18 206.5625 432.5 C205.96112988 432.50075944 205.35975976 432.50151888 204.74016631 432.50230134 C169.08312468 432.54707587 133.42608789 432.58138242 97.76902399 432.60213066 C93.48582715 432.60463202 89.20263036 432.60722067 84.91943359 432.60986328 C84.06674087 432.6103879 83.21404815 432.61091252 82.33551626 432.61145304 C68.53622907 432.62015116 54.73695857 432.63591787 40.93768127 432.65430559 C26.7740586 432.67302114 12.61044466 432.68412023 -1.55318987 432.68817699 C-10.2900243 432.69091861 -19.02681152 432.69957199 -27.76363142 432.71583293 C-33.75810834 432.72642023 -39.75256093 432.72959667 -45.74704652 432.72700275 C-49.20342251 432.72572418 -52.65971614 432.7276581 -56.11607742 432.73841095 C-59.86987996 432.74837962 -63.62348151 432.74596166 -67.37728882 432.74050903 C-69.00281302 432.74924756 -69.00281302 432.74924756 -70.66117609 432.75816262 C-82.73678471 432.71084117 -94.06722076 430.73998571 -103.25 422.3125 C-108.98920783 416.13912042 -112.55712931 408.23078693 -112.57172108 399.83326626 C-112.57617892 398.64562221 -112.58063676 397.45797816 -112.58522969 396.2343449 C-112.58504533 394.92309125 -112.58486097 393.61183761 -112.58467102 392.260849 C-112.58796978 390.8588288 -112.59169537 389.45680955 -112.5958125 388.05479151 C-112.60583951 384.19293759 -112.60955043 380.33109921 -112.61220181 376.46923411 C-112.61610286 372.30749578 -112.62568142 368.14576978 -112.63441467 363.98403931 C-112.65418608 353.92805575 -112.66424674 343.87207117 -112.67314246 333.81607303 C-112.67752478 329.08094441 -112.68289179 324.3458169 -112.68813133 319.61068916 C-112.70514527 303.87015865 -112.71963907 288.12962884 -112.72688007 272.38909054 C-112.72878999 268.30342038 -112.73071031 264.21775022 -112.73266602 260.13208008 C-112.73339163 258.60886004 -112.73339163 258.60886004 -112.7341319 257.05486787 C-112.74243075 240.60770284 -112.76776449 224.16061057 -112.80024669 207.71347731 C-112.83332139 190.82868729 -112.85132926 173.94393424 -112.85452431 157.05911165 C-112.85668917 147.57850005 -112.86543411 138.09799451 -112.89098549 128.61741447 C-112.91269819 120.54243279 -112.92074015 112.46758294 -112.91101871 104.39257538 C-112.90647548 100.27384564 -112.90836136 96.15538787 -112.92778015 92.03669548 C-112.94542351 88.26189095 -112.94440492 84.48755653 -112.92888286 80.71274693 C-112.92538856 78.70909634 -112.94152444 76.70544076 -112.95848733 74.70185894 C-112.88052462 63.74552751 -110.19638738 54.51751696 -102.4375 46.5 C-93.48473627 39.0506249 -84.49650022 37.03054426 -73.05859375 37.20703125 C-71.47958031 37.21339851 -71.47958031 37.21339851 -69.8686676 37.21989441 C-66.53717458 37.23656232 -63.20630732 37.2741925 -59.875 37.3125 C-57.60352442 37.32756219 -55.33203927 37.3412479 -53.06054688 37.35351562 C-47.5193211 37.38642674 -41.97845528 37.43650614 -36.4375 37.5 C-36.45321045 36.93603516 -36.4689209 36.37207031 -36.48510742 35.79101562 C-36.54811574 33.19411565 -36.58669598 30.59737725 -36.625 28 C-36.65013672 27.113125 -36.67527344 26.22625 -36.70117188 25.3125 C-36.78593494 17.62731526 -35.50272176 10.76995102 -30.0546875 4.88671875 C-21.82496148 -2.17017192 -10.13974677 -4.3906088 0 0 Z " fill="#C8E9F4" transform="translate(127.4375,16.5)"/>
<path d="M0 0 C7.51047381 4.57719863 10.51055205 10.36147212 13.5625 18.5 C13.5625 24.77 13.5625 31.04 13.5625 37.5 C36.6625 37.5 59.7625 37.5 83.5625 37.5 C83.5625 31.56 83.5625 25.62 83.5625 19.5 C85.23172876 11.44842597 88.86767566 6.23691175 95.3046875 1.11328125 C101.45844142 -2.6502807 108.60839895 -2.38293642 115.5625 -1.5 C122.99077543 0.66077181 127.80142042 4.79104724 131.5625 11.5 C133.5625 16.5 133.5625 16.5 133.5625 37.5 C156.9925 37.5 180.4225 37.5 204.5625 37.5 C204.5625 30.57 204.5625 23.64 204.5625 16.5 C207.15203799 8.8123091 210.478142 4.47153403 217.5625 0.5 C224.0680666 -2.67078036 232.051178 -2.63864038 239.0078125 -0.8828125 C245.56611339 2.02341495 250.73580212 7.80034243 253.5 14.375 C254.82210796 19.1770432 254.68279178 23.88381294 254.62890625 28.8203125 C254.6217157 30.0734021 254.6217157 30.0734021 254.61437988 31.35180664 C254.601928 33.40123956 254.58287385 35.45063052 254.5625 37.5 C255.13942093 37.49111755 255.71634186 37.48223511 256.31074524 37.4730835 C262.36241663 37.38399373 268.41389913 37.32401244 274.46606445 37.28027344 C276.71907123 37.26026536 278.97202679 37.23305009 281.22485352 37.19824219 C284.47945867 37.14924658 287.73337217 37.12692244 290.98828125 37.109375 C292.47803215 37.07840729 292.47803215 37.07840729 293.99787903 37.04681396 C304.87648587 37.04339092 313.47609424 40.31601883 321.328125 47.85546875 C326.83392297 54.37194642 330.69750942 62.36719866 330.6788187 70.97347832 C330.67935956 71.86949159 330.67990041 72.76550485 330.68045765 73.68867004 C330.6759788 74.66900872 330.67149995 75.6493474 330.66688538 76.65939331 C330.66617883 77.70396702 330.66547228 78.74854073 330.66474432 79.82476819 C330.66136105 83.33616327 330.6510013 86.84750512 330.64086914 90.35888672 C330.637354 92.87187634 330.6343866 95.38486679 330.63192749 97.89785767 C330.62771526 101.91616733 330.62314959 105.93447192 330.6161319 109.95277762 C330.59879057 119.91459521 330.59637209 129.87633612 330.60313416 139.83816528 C330.60359269 140.55859221 330.60405123 141.27901913 330.60452367 142.02127717 C330.60687326 145.70557025 330.60939155 149.38986317 330.61203277 153.07415605 C330.61746858 160.6651597 330.62254166 168.25616299 330.62573242 175.84716797 C330.62605905 176.60892948 330.62638568 177.37069099 330.62672221 178.15553619 C330.63123385 190.50235918 330.61043518 202.84902619 330.58121855 215.19580971 C330.55189168 227.87252801 330.55295437 240.54899283 330.58142942 253.22571385 C330.59796829 261.04487826 330.59029866 268.8632585 330.5516172 276.68234803 C330.52443735 282.67376421 330.53914238 288.66432619 330.56953049 294.6557579 C330.57536096 297.11401025 330.56746441 299.57233863 330.54493904 302.03049469 C330.51622422 305.38383504 330.53654042 308.73341758 330.56922913 312.0866394 C330.54913522 313.06251664 330.52904132 314.03839388 330.50833851 315.04384315 C330.60101801 320.20885602 330.60101801 320.20885602 333.3318795 324.41431642 C335.34703896 325.93958403 337.37435836 327.24020603 339.5625 328.5 C355.81153268 340.93753119 366.81274401 361.32096701 369.5625 381.5 C370.78460237 395.86474827 370.35412705 409.83208022 365.5625 423.5 C365.20027344 424.55960937 364.83804687 425.61921875 364.46484375 426.7109375 C359.95522362 438.60410516 352.41679432 448.48815596 343.5625 457.5 C342.96179688 458.11359375 342.36109375 458.7271875 341.7421875 459.359375 C322.73239081 477.29935629 298.86798272 481.39640072 273.70507812 480.67041016 C257.12841862 479.77152045 241.45253659 471.61120623 228.5625 461.5 C227.8921875 460.99339844 227.221875 460.48679687 226.53125 459.96484375 C218.17708023 453.21852015 211.55976654 443.9443753 206.5625 434.5 C206.5625 433.84 206.5625 433.18 206.5625 432.5 C205.96112988 432.50075944 205.35975976 432.50151888 204.74016631 432.50230134 C169.08312468 432.54707587 133.42608789 432.58138242 97.76902399 432.60213066 C93.48582715 432.60463202 89.20263036 432.60722067 84.91943359 432.60986328 C84.06674087 432.6103879 83.21404815 432.61091252 82.33551626 432.61145304 C68.53622907 432.62015116 54.73695857 432.63591787 40.93768127 432.65430559 C26.7740586 432.67302114 12.61044466 432.68412023 -1.55318987 432.68817699 C-10.2900243 432.69091861 -19.02681152 432.69957199 -27.76363142 432.71583293 C-33.75810834 432.72642023 -39.75256093 432.72959667 -45.74704652 432.72700275 C-49.20342251 432.72572418 -52.65971614 432.7276581 -56.11607742 432.73841095 C-59.86987996 432.74837962 -63.62348151 432.74596166 -67.37728882 432.74050903 C-69.00281302 432.74924756 -69.00281302 432.74924756 -70.66117609 432.75816262 C-82.73678471 432.71084117 -94.06722076 430.73998571 -103.25 422.3125 C-108.98920783 416.13912042 -112.55712931 408.23078693 -112.57172108 399.83326626 C-112.57617892 398.64562221 -112.58063676 397.45797816 -112.58522969 396.2343449 C-112.58504533 394.92309125 -112.58486097 393.61183761 -112.58467102 392.260849 C-112.58796978 390.8588288 -112.59169537 389.45680955 -112.5958125 388.05479151 C-112.60583951 384.19293759 -112.60955043 380.33109921 -112.61220181 376.46923411 C-112.61610286 372.30749578 -112.62568142 368.14576978 -112.63441467 363.98403931 C-112.65418608 353.92805575 -112.66424674 343.87207117 -112.67314246 333.81607303 C-112.67752478 329.08094441 -112.68289179 324.3458169 -112.68813133 319.61068916 C-112.70514527 303.87015865 -112.71963907 288.12962884 -112.72688007 272.38909054 C-112.72878999 268.30342038 -112.73071031 264.21775022 -112.73266602 260.13208008 C-112.73339163 258.60886004 -112.73339163 258.60886004 -112.7341319 257.05486787 C-112.74243075 240.60770284 -112.76776449 224.16061057 -112.80024669 207.71347731 C-112.83332139 190.82868729 -112.85132926 173.94393424 -112.85452431 157.05911165 C-112.85668917 147.57850005 -112.86543411 138.09799451 -112.89098549 128.61741447 C-112.91269819 120.54243279 -112.92074015 112.46758294 -112.91101871 104.39257538 C-112.90647548 100.27384564 -112.90836136 96.15538787 -112.92778015 92.03669548 C-112.94542351 88.26189095 -112.94440492 84.48755653 -112.92888286 80.71274693 C-112.92538856 78.70909634 -112.94152444 76.70544076 -112.95848733 74.70185894 C-112.88052462 63.74552751 -110.19638738 54.51751696 -102.4375 46.5 C-93.48473627 39.0506249 -84.49650022 37.03054426 -73.05859375 37.20703125 C-71.47958031 37.21339851 -71.47958031 37.21339851 -69.8686676 37.21989441 C-66.53717458 37.23656232 -63.20630732 37.2741925 -59.875 37.3125 C-57.60352442 37.32756219 -55.33203927 37.3412479 -53.06054688 37.35351562 C-47.5193211 37.38642674 -41.97845528 37.43650614 -36.4375 37.5 C-36.45321045 36.93603516 -36.4689209 36.37207031 -36.48510742 35.79101562 C-36.54811574 33.19411565 -36.58669598 30.59737725 -36.625 28 C-36.65013672 27.113125 -36.67527344 26.22625 -36.70117188 25.3125 C-36.78593494 17.62731526 -35.50272176 10.76995102 -30.0546875 4.88671875 C-21.82496148 -2.17017192 -10.13974677 -4.3906088 0 0 Z M-101.4375 133.5 C-101.540625 177.51375 -101.64375 221.5275 -101.75 266.875 C-101.79552002 280.77544434 -101.84104004 294.67588867 -101.88793945 308.99755859 C-101.90466102 321.45148921 -101.90466102 321.45148921 -101.91471863 333.90542603 C-101.91937926 339.45509438 -101.93771103 345.00451075 -101.96537781 350.55410767 C-101.99725514 356.95777878 -102.01166802 363.36120842 -102.00472475 369.76495943 C-102.0017187 373.03932678 -102.0092175 376.31304705 -102.03357565 379.58734012 C-102.05848978 383.09971028 -102.05243564 386.61073662 -102.03877258 390.12313843 C-102.05333591 391.13649073 -102.06789923 392.14984303 -102.08290386 393.19390297 C-102.0018867 400.95637723 -99.98925629 407.55260304 -94.7113331 413.41844976 C-87.48387561 420.3393613 -79.26482244 420.93805318 -69.73168945 420.86076355 C-68.56920874 420.86332682 -67.40672802 420.8658901 -66.20902061 420.86853105 C-63.00031301 420.87260342 -59.79197312 420.86328403 -56.58330894 420.84819686 C-53.1164783 420.83519844 -49.64966371 420.83962864 -46.18281555 420.84190369 C-40.18224056 420.84347402 -34.18176369 420.83408995 -28.18121338 420.81719017 C-19.50552338 420.79277215 -10.82988066 420.78499204 -2.15416002 420.7812262 C11.92280691 420.7746661 25.99972158 420.75471695 40.07666016 420.72631836 C53.74820698 420.69876634 67.4197396 420.67753835 81.09130859 420.66479492 C81.93452655 420.66400675 82.77774451 420.66321858 83.64651453 420.66240653 C87.87684154 420.65849131 92.10716864 420.65470021 96.3374958 420.65097082 C131.41253445 420.61988868 166.4875124 420.56706493 201.5625 420.5 C200.97098615 415.92243975 200.97098615 415.92243975 200.01049805 411.41601562 C198.92325455 406.76604997 199.37765643 401.74970113 199.375 397 C199.36275391 395.87851562 199.35050781 394.75703125 199.33789062 393.6015625 C199.30079215 372.1833761 206.40070793 353.59889486 220.5625 337.5 C221.56216797 336.35724609 221.56216797 336.35724609 222.58203125 335.19140625 C236.50074435 320.29141096 257.03489406 310.93313334 277.359375 310.03125 C279.67687118 309.99820632 281.99479811 309.98823665 284.3125 310 C286.13479126 310.00205444 286.13479126 310.00205444 287.99389648 310.00415039 C297.89284653 310.17188461 306.39103289 311.89058391 315.5625 315.5 C316.5525 315.83 317.5425 316.16 318.5625 316.5 C318.5625 256.11 318.5625 195.72 318.5625 133.5 C179.9625 133.5 41.3625 133.5 -101.4375 133.5 Z " fill="#1C1E1F" transform="translate(127.4375,16.5)"/>
<path d="M0 0 C138.6 0 277.2 0 420 0 C420 60.39 420 120.78 420 183 C413.4 181.02 406.8 179.04 400 177 C395.00971848 176.51757154 390.67742222 176.21693163 385.75 176.375 C384.5547168 176.39755859 383.35943359 176.42011719 382.12792969 176.44335938 C358.4818228 177.17527797 337.86493001 187.14575606 321.41796875 204.16796875 C306.68137029 221.42812042 300.82512104 240.71064181 300.8125 263.0625 C300.80025391 264.20783203 300.78800781 265.35316406 300.77539062 266.53320312 C300.76508486 272.47275958 301.11143947 277.3791064 303 283 C303 284.32 303 285.64 303 287 C267.11771438 287.09159479 231.2354493 287.16205865 195.3530708 287.20426132 C191.11493764 287.20926403 186.8768047 287.21444133 182.63867188 287.21972656 C181.794951 287.2207758 180.95123012 287.22182505 180.08194195 287.22290608 C166.42812462 287.24030198 152.7743748 287.27183517 139.1205975 287.30861118 C125.10613963 287.34604331 111.09171707 287.36824065 97.07721126 287.37635398 C88.43244262 287.38183705 79.7878648 287.39914251 71.1431549 287.43166587 C65.21173645 287.45284181 59.28041635 287.45919309 53.34896286 287.45400551 C49.92894319 287.45144849 46.5092565 287.45531357 43.08929634 287.4768219 C39.37470646 287.49676292 35.66092879 287.49192301 31.94631958 287.48101807 C30.87430963 287.49266943 29.80229967 287.5043208 28.69780457 287.51632524 C20.88304372 287.45444042 13.85454514 286.03976324 7.59765625 281.10546875 C7.09105469 280.47253906 6.58445312 279.83960938 6.0625 279.1875 C5.27552734 278.24970703 5.27552734 278.24970703 4.47265625 277.29296875 C0.07814076 270.4505799 -0.42906748 264.97346894 -0.36076355 256.98390198 C-0.3633316 255.88617462 -0.36589966 254.78844727 -0.36854553 253.65745544 C-0.37350558 249.97274096 -0.35694974 246.28843679 -0.34057617 242.60375977 C-0.33965708 239.91959967 -0.33992463 237.23546392 -0.34167194 234.55130672 C-0.34326483 228.09135737 -0.32943337 221.63153344 -0.31016796 215.17161628 C-0.28854504 207.69704016 -0.28618246 200.22253909 -0.28381348 192.7479248 C-0.26807051 173.01943003 -0.22618707 153.29096312 -0.1875 133.5625 C-0.125625 89.486875 -0.06375 45.41125 0 0 Z M1 1 C1 78.22 1 155.44 1 235 C17.17 235 33.34 235 50 235 C50.33 227.08 50.66 219.16 51 211 C55.87823402 202.46309046 55.87823402 202.46309046 61 200 C64.04242476 199.46272668 67.00595775 199.43837377 70.08984375 199.46875 C70.95259415 199.4649231 71.81534454 199.46109619 72.70423889 199.45715332 C74.52215751 199.4544411 76.34011562 199.46175388 78.15795898 199.47851562 C80.92586205 199.49991004 83.69116211 199.47870516 86.45898438 199.453125 C88.23177651 199.45576891 90.00456704 199.4608952 91.77734375 199.46875 C92.5973436 199.46065308 93.41734344 199.45255615 94.26219177 199.44421387 C99.96285297 199.53625428 103.33009652 200.67871805 108 204 C112.91547282 209.51385096 112.65224183 217.01727351 112.75 224 C112.8325 227.63 112.915 231.26 113 235 C120.59 235 128.18 235 136 235 C136.03738281 233.33710938 136.07476562 231.67421875 136.11328125 229.9609375 C136.17895365 227.76560292 136.24540055 225.57029142 136.3125 223.375 C136.34633789 221.73337891 136.34633789 221.73337891 136.38085938 220.05859375 C136.72263872 209.80521327 136.72263872 209.80521327 140 205 C145.27700255 200.23782696 148.76535639 199.82250176 155.69921875 199.76171875 C156.56762894 199.753647 157.43603912 199.74557526 158.33076477 199.73725891 C160.17255658 199.72341349 162.01437409 199.71269339 163.85620117 199.70483398 C166.65919479 199.68767329 169.46099279 199.64379854 172.26367188 199.59960938 C174.05467884 199.58947767 175.84569583 199.58096306 177.63671875 199.57421875 C178.88554085 199.54795662 178.88554085 199.54795662 180.15959167 199.52116394 C185.92742968 199.54242021 189.28645629 200.61891212 194 204 C198.51939816 209.22510406 198.64454013 215.90396423 198.75 222.5 C198.77964844 223.4178125 198.80929688 224.335625 198.83984375 225.28125 C198.90983336 227.52091764 198.96287317 229.75958788 199 232 C204.5021816 232.23136637 209.13853778 231.4350346 214.4375 230 C215.16904297 229.80921875 215.90058594 229.6184375 216.65429688 229.421875 C218.43819666 228.95549597 220.21939845 228.47881722 222 228 C222.05607422 226.26363281 222.05607422 226.26363281 222.11328125 224.4921875 C222.17897425 222.95309439 222.24542042 221.4140333 222.3125 219.875 C222.33505859 219.11445313 222.35761719 218.35390625 222.38085938 217.5703125 C222.61160083 212.70376539 223.35856646 209.23012183 226 205 C231.30357318 200.21384859 234.73590839 199.85046048 241.69921875 199.8671875 C242.56762894 199.86623077 243.43603912 199.86527405 244.33076477 199.86428833 C246.17257764 199.86360689 248.0143929 199.86545865 249.85620117 199.86962891 C252.65874736 199.87494546 255.46113091 199.86969947 258.26367188 199.86328125 C260.05468785 199.86394267 261.84570373 199.86522515 263.63671875 199.8671875 C264.46926682 199.86516327 265.30181488 199.86313904 266.15959167 199.86105347 C269.84892691 199.87570288 273.25786914 200.03863461 276.9206543 200.58740234 C280.0158685 201.2890001 280.0158685 201.2890001 282.6328125 199.734375 C283.45523437 199.07953125 284.27765625 198.4246875 285.125 197.75 C286.06472656 197.01007813 287.00445312 196.27015625 287.97265625 195.5078125 C288.97167969 194.68023437 289.97070312 193.85265625 291 193 C292.0820297 192.12239392 293.16406098 191.2447898 294.24609375 190.3671875 C301.2382858 184.62363797 307.72724788 178.52762693 314 172 C312.94312976 169.80496181 311.89832736 167.86168612 310.45068359 165.89233398 C308.53259406 162.06809859 308.56927226 158.59259951 308.6015625 154.41015625 C308.59869232 153.58801132 308.59582214 152.76586639 308.59286499 151.91880798 C308.59082908 150.18487863 308.59632584 148.45092607 308.60888672 146.71704102 C308.62492713 144.07450527 308.60903322 141.43350363 308.58984375 138.79101562 C308.59182667 137.10155915 308.59567135 135.41210362 308.6015625 133.72265625 C308.59245346 132.54583031 308.59245346 132.54583031 308.5831604 131.3452301 C308.64468497 126.50343021 309.36574947 123.21123569 312 119 C317.32940574 113.9510893 322.0342448 112.76458655 329.26953125 112.5859375 C329.95053391 112.56657135 330.63153656 112.5472052 331.33317566 112.5272522 C333.49282593 112.46781868 335.65253057 112.421218 337.8125 112.375 C339.28322544 112.33678672 340.75392929 112.29773306 342.22460938 112.2578125 C345.81620789 112.16214817 349.40796913 112.07798425 353 112 C354.15558273 109.12882484 355.29766867 106.25246071 356.4375 103.375 C356.76298828 102.56675781 357.08847656 101.75851563 357.42382812 100.92578125 C357.73642578 100.13300781 358.04902344 99.34023437 358.37109375 98.5234375 C358.65911865 97.80075684 358.94714355 97.07807617 359.24389648 96.33349609 C360.1352832 93.58248729 360.58124615 90.85759066 361 88 C359.78940918 88.02094727 358.57881836 88.04189453 357.33154297 88.06347656 C352.82531639 88.1360654 348.31914116 88.18186835 343.8125 88.21972656 C341.86482034 88.23979906 339.91720063 88.26706332 337.96972656 88.30175781 C335.16456279 88.35046852 332.36019813 88.37301241 329.5546875 88.390625 C328.68883026 88.41127014 327.82297302 88.43191528 326.93087769 88.45318604 C321.248254 88.45527875 318.47250426 87.49541283 314 84 C313.34 84 312.68 84 312 84 C311.5359375 82.824375 311.5359375 82.824375 311.0625 81.625 C310.07124962 79.07669872 310.07124962 79.07669872 309 77 C308.87652909 74.22602018 308.81157915 71.47816806 308.796875 68.703125 C308.79117493 67.87673523 308.78547485 67.05034546 308.77960205 66.19891357 C308.77014649 64.44707521 308.76361587 62.69521902 308.75976562 60.94335938 C308.75008854 58.27441918 308.71908294 55.60625844 308.6875 52.9375 C308.68096696 51.23437957 308.67571767 49.53125363 308.671875 47.828125 C308.6595282 47.03416321 308.6471814 46.24020142 308.63446045 45.42218018 C308.65389448 40.54032551 309.31977062 37.23824241 312 33 C317.23375629 28.27685408 320.64032006 27.83233811 327.515625 27.796875 C328.78850372 27.78832489 328.78850372 27.78832489 330.08709717 27.77960205 C331.88601432 27.77014602 333.68494884 27.76361568 335.48388672 27.75976562 C338.2252467 27.75008739 340.9658482 27.71908159 343.70703125 27.6875 C345.45572472 27.6809671 347.20442355 27.67571776 348.953125 27.671875 C349.76896057 27.6595282 350.58479614 27.6471814 351.425354 27.63446045 C356.40773433 27.65378155 359.62422832 28.38472431 364 31 C365.98 31.99 365.98 31.99 368 33 C368 22.44 368 11.88 368 1 C246.89 1 125.78 1 1 1 Z " fill="#A6D8E6" transform="translate(26,150)"/>
<path d="M0 0 C0.96061844 0.00015106 1.92123688 0.00030212 2.91096497 0.00045776 C3.93509995 0.01078033 4.95923492 0.02110291 6.0144043 0.03173828 C7.60190742 0.03598312 7.60190742 0.03598312 9.22148132 0.04031372 C12.59397803 0.05148789 15.96620692 0.07658771 19.33862305 0.10205078 C21.62833275 0.11208414 23.91804662 0.12120937 26.20776367 0.12939453 C31.81406908 0.14971459 37.41979708 0.18886922 43.02612305 0.22705078 C43.02612305 10.45705078 43.02612305 20.68705078 43.02612305 31.22705078 C39.06612305 31.55705078 35.10612305 31.88705078 31.02612305 32.22705078 C29.62179369 33.40424063 29.62179369 33.40424063 29.90112305 36.72705078 C29.62179369 40.04986093 29.62179369 40.04986093 31.02612305 41.22705078 C33.28519122 41.332002 35.54758716 41.36562466 37.80908203 41.37231445 C38.51802612 41.37567307 39.22697021 41.37903168 39.95739746 41.38249207 C42.31235483 41.39202894 44.6672413 41.39394654 47.0222168 41.39501953 C48.65267466 41.39823023 50.28313223 41.40159416 51.91358948 41.40510559 C55.33595447 41.41110373 58.75829418 41.41294479 62.18066406 41.41235352 C66.57371537 41.41225186 70.96660518 41.42590471 75.35961819 41.44312572 C78.72842661 41.45422502 82.09719574 41.45627336 85.46602058 41.45574379 C87.08599466 41.45692702 88.70596966 41.46136785 90.32592583 41.46907616 C92.58865659 41.47883445 94.8510335 41.47601471 97.11376953 41.4699707 C98.40314926 41.47139572 99.69252899 41.47282074 101.02098083 41.47428894 C104.14058427 41.54375409 104.14058427 41.54375409 106.02612305 39.22705078 C106.19289587 35.64361102 106.19289587 35.64361102 106.02612305 32.22705078 C101.73612305 31.89705078 97.44612305 31.56705078 93.02612305 31.22705078 C93.02612305 20.99705078 93.02612305 10.76705078 93.02612305 0.22705078 C116.45612305 0.22705078 139.88612305 0.22705078 164.02612305 0.22705078 C164.02612305 10.45705078 164.02612305 20.68705078 164.02612305 31.22705078 C159.40612305 31.55705078 154.78612305 31.88705078 150.02612305 32.22705078 C150.02612305 34.53705078 150.02612305 36.84705078 150.02612305 39.22705078 C152.87888806 42.07981579 154.81887111 41.48716117 158.81494141 41.50170898 C159.86153679 41.50937538 159.86153679 41.50937538 160.92927551 41.51719666 C163.24159258 41.5311257 165.55361269 41.53013341 167.8659668 41.52783203 C169.47018037 41.53171726 171.07439292 41.53605157 172.67860413 41.54081726 C176.04374524 41.54828667 179.40878145 41.5479831 182.77392578 41.54272461 C187.08960071 41.53693012 191.40484645 41.55385669 195.7204504 41.57706928 C199.03441383 41.59179083 202.34827354 41.59268048 205.66226387 41.58955956 C207.25350354 41.5900736 208.8447489 41.59532699 210.43595695 41.60537148 C212.66022613 41.61768791 214.88365476 41.61097383 217.10791016 41.59936523 C218.37428818 41.59999466 219.6406662 41.60062408 220.94541931 41.60127258 C223.99494578 41.47527732 223.99494578 41.47527732 225.97413635 39.86784363 C227.29412498 38.18046402 227.29412498 38.18046402 226.77612305 35.60205078 C226.24866659 33.29581008 226.24866659 33.29581008 225.02612305 32.22705078 C221.06612305 31.89705078 217.10612305 31.56705078 213.02612305 31.22705078 C213.02612305 20.99705078 213.02612305 10.76705078 213.02612305 0.22705078 C236.45612305 0.22705078 259.88612305 0.22705078 284.02612305 0.22705078 C284.02612305 10.45705078 284.02612305 20.68705078 284.02612305 31.22705078 C278.08612305 31.72205078 278.08612305 31.72205078 272.02612305 32.22705078 C271.36612305 32.88705078 270.70612305 33.54705078 270.02612305 34.22705078 C270.21369367 38.05269744 270.21369367 38.05269744 272.02612305 41.22705078 C274.28519122 41.332002 276.54758716 41.36562466 278.80908203 41.37231445 C279.51802612 41.37567307 280.22697021 41.37903168 280.95739746 41.38249207 C283.31235483 41.39202894 285.6672413 41.39394654 288.0222168 41.39501953 C289.65267466 41.39823023 291.28313223 41.40159416 292.91358948 41.40510559 C296.33595447 41.41110373 299.75829418 41.41294479 303.18066406 41.41235352 C307.57371537 41.41225186 311.96660518 41.42590471 316.35961819 41.44312572 C319.72842661 41.45422502 323.09719574 41.45627336 326.46602058 41.45574379 C328.08599466 41.45692702 329.70596966 41.46136785 331.32592583 41.46907616 C333.58865659 41.47883445 335.8510335 41.47601471 338.11376953 41.4699707 C339.40314926 41.47139572 340.69252899 41.47282074 342.02098083 41.47428894 C345.14058427 41.54375409 345.14058427 41.54375409 347.02612305 39.22705078 C347.35945638 36.72705078 347.35945638 36.72705078 347.02612305 34.22705078 C344.07678369 30.84708327 344.07678369 30.84708327 333.02612305 31.22705078 C333.02612305 20.99705078 333.02612305 10.76705078 333.02612305 0.22705078 C339.85905518 0.1119752 346.68859778 0.01251797 353.52172852 -0.04760742 C355.8437848 -0.07268188 358.16576269 -0.10675014 360.48754883 -0.15014648 C363.83393746 -0.21110727 367.17927857 -0.23923071 370.52612305 -0.26123047 C372.0719104 -0.29994011 372.0719104 -0.29994011 373.64892578 -0.33943176 C381.56571541 -0.34248131 386.24747631 1.78395955 392.04956055 7.07080078 C392.49557617 7.61736328 392.9415918 8.16392578 393.40112305 8.72705078 C394.09334961 9.54689453 394.09334961 9.54689453 394.79956055 10.38330078 C406.41759669 27.84735512 398.02612305 52.25154226 398.02612305 73.22705078 C259.42612305 73.22705078 120.82612305 73.22705078 -21.97387695 73.22705078 C-21.97387695 18.22705078 -21.97387695 18.22705078 -16.97387695 8.22705078 C-11.83458827 3.0877621 -7.49451233 -0.03954888 0 0 Z " fill="#FE4747" transform="translate(47.973876953125,65.77294921875)"/>
<path d="M0 0 C1.39641724 0.01341431 1.39641724 0.01341431 2.82104492 0.02709961 C20.17314677 0.31910028 35.13458883 5.25752268 48.75 16.25 C49.51699219 16.85457031 50.28398437 17.45914062 51.07421875 18.08203125 C64.72629615 29.46262548 74.27322245 46.62499113 76.06567383 64.3762207 C76.22161008 67.57030259 76.2687355 70.73973417 76.25 73.9375 C76.24500488 75.06873291 76.24000977 76.19996582 76.23486328 77.36547852 C75.84853901 96.08888418 69.02982043 111.17785864 56.75 125.25 C56.23050781 125.86488281 55.71101563 126.47976563 55.17578125 127.11328125 C46.66416944 136.43960653 34.65032068 142.55526203 22.75 146.25 C21.57566406 146.61480469 20.40132813 146.97960937 19.19140625 147.35546875 C5.5641998 150.64239242 -12.45633637 150.19190473 -25.25 144.25 C-26.72146484 143.63125 -26.72146484 143.63125 -28.22265625 143 C-48.63677242 133.72804014 -61.03286947 117.81669619 -69.375 97.51171875 C-75.65658209 80.02596861 -73.44546469 59.36399627 -65.87158203 42.81079102 C-62.52414915 35.85619447 -58.40409439 29.9645396 -53.25 24.25 C-52.65832031 23.56550781 -52.06664062 22.88101562 -51.45703125 22.17578125 C-38.42272195 8.02980378 -19.1025488 -0.20629851 0 0 Z " fill="#76E043" transform="translate(409.25,336.75)"/>
<path d="M0 0 C13.52521844 10.42568921 21.93991856 26.35978021 25 43 C25.4281333 47.23994346 25.52495743 51.42777853 25.5 55.6875 C25.49500488 56.81873291 25.49000977 57.94996582 25.48486328 59.11547852 C25.09853901 77.83888418 18.27982043 92.92785864 6 107 C5.48050781 107.61488281 4.96101563 108.22976563 4.42578125 108.86328125 C-4.08583056 118.18960653 -16.09967932 124.30526203 -28 128 C-29.17433594 128.36480469 -30.34867187 128.72960937 -31.55859375 129.10546875 C-45.1858002 132.39239242 -63.20633637 131.94190473 -76 126 C-76.98097656 125.5875 -77.96195312 125.175 -78.97265625 124.75 C-87.9446252 120.67498959 -98.42972498 114.36504968 -104 106 C-99.87309382 106.45020795 -95.93408142 106.98387019 -91.9140625 108.01953125 C-86.53802551 109.23153095 -81.30658592 109.34455151 -75.8125 109.3125 C-74.29184937 109.30404053 -74.29184937 109.30404053 -72.74047852 109.29541016 C-51.52279411 108.9535443 -33.24188736 100.87200525 -17.75 86.3125 C-3.294409 71.10596921 4.40049751 51.78614877 4.375 30.875 C4.37628906 29.77784668 4.37757813 28.68069336 4.37890625 27.55029297 C4.27844665 19.7977799 3.28546189 13.04387341 0.875 5.6953125 C0 3 0 3 0 0 Z " fill="#61D132" transform="translate(460,355)"/>
<path d="M0 0 C6.83293213 -0.11507558 13.66247474 -0.21453281 20.49560547 -0.2746582 C22.81766175 -0.29973266 25.13963965 -0.33380092 27.46142578 -0.37719727 C30.80781441 -0.43815805 34.15315553 -0.46628149 37.5 -0.48828125 C39.04578735 -0.52699089 39.04578735 -0.52699089 40.62280273 -0.56648254 C48.53959237 -0.56953209 53.22135327 1.55690877 59.0234375 6.84375 C59.46945312 7.3903125 59.91546875 7.936875 60.375 8.5 C60.83648437 9.0465625 61.29796875 9.593125 61.7734375 10.15625 C64.48872884 14.23783443 65.24898496 17.84983235 65.22705078 22.70825195 C65.22689972 23.82903641 65.22674866 24.94982086 65.22659302 26.10456848 C65.21627045 27.3036937 65.20594788 28.50281891 65.1953125 29.73828125 C65.1924826 30.97418503 65.18965271 32.21008881 65.18673706 33.48344421 C65.17745218 36.75664997 65.15950633 40.02965644 65.1373291 43.30279541 C65.11680817 46.64780848 65.10789268 49.99283026 65.09765625 53.33789062 C65.07732055 59.89208539 65.03816753 66.44578775 65 73 C47.84 73 30.68 73 13 73 C12.979375 67.575625 12.95875 62.15125 12.9375 56.5625 C12.928396 54.84877197 12.91929199 53.13504395 12.90991211 51.36938477 C12.90699284 50.01839273 12.90444431 48.66739981 12.90234375 47.31640625 C12.89722778 46.60899292 12.89211182 45.90157959 12.88684082 45.17272949 C12.88652968 43.44807383 12.93774239 41.72353162 13 40 C13.495 39.505 13.495 39.505 14 39 C14.2500773 36.54190002 14.2500773 36.54190002 14 34 C11.05066065 30.62003248 11.05066065 30.62003248 0 31 C0 20.77 0 10.54 0 0 Z " fill="#F81C1C" transform="translate(381,66)"/>
<path d="M0 0 C0.86841019 -0.00807175 1.73682037 -0.01614349 2.63154602 -0.02445984 C4.47333783 -0.03830526 6.31515534 -0.04902536 8.15698242 -0.05688477 C10.95997604 -0.07404546 13.76177404 -0.11792021 16.56445312 -0.16210938 C18.35546009 -0.17224108 20.14647708 -0.18075569 21.9375 -0.1875 C23.1863221 -0.21376213 23.1863221 -0.21376213 24.46037292 -0.24055481 C30.24589473 -0.21923337 33.61755026 0.76315984 38.30078125 4.23828125 C42.67687974 9.10763683 42.91588076 13.26786677 42.90234375 19.51171875 C42.910914 20.39429352 42.91948425 21.27686829 42.92831421 22.18618774 C42.93976165 24.04694195 42.94083011 25.90778562 42.93212891 27.76855469 C42.92581406 30.59857753 42.97273481 33.42440082 43.0234375 36.25390625 C43.02798501 38.06900519 43.02938976 39.88411527 43.02734375 41.69921875 C43.04576324 42.53593109 43.06418274 43.37264343 43.0831604 44.23471069 C42.98232474 50.71729447 40.92691492 54.70102906 36.30078125 59.23828125 C31.57332697 62.51943303 27.38974002 62.68115389 21.83203125 62.63671875 C21.03349731 62.63958893 20.23496338 62.64245911 19.41223145 62.64541626 C17.73135668 62.64744908 16.05045783 62.64197414 14.36962891 62.62939453 C11.80837714 62.6133289 9.24870315 62.62926903 6.6875 62.6484375 C5.04817363 62.64645493 3.40884823 62.64261096 1.76953125 62.63671875 C0.63022156 62.64582779 0.63022156 62.64582779 -0.53210449 62.65512085 C-6.11883439 62.58184126 -10.29414931 61.41141527 -14.5625 57.5546875 C-15.04074219 56.97589844 -15.51898438 56.39710938 -16.01171875 55.80078125 C-16.50285156 55.22457031 -16.99398437 54.64835937 -17.5 54.0546875 C-20.2777445 49.84735463 -19.87461236 45.06438418 -19.90234375 40.18359375 C-19.90804382 39.40442596 -19.9137439 38.62525818 -19.9196167 37.82247925 C-19.92904521 36.17675119 -19.93559213 34.53100444 -19.93945312 32.88525391 C-19.94915829 30.37889412 -19.98020082 27.87335503 -20.01171875 25.3671875 C-20.01824967 23.76432776 -20.02349979 22.16146219 -20.02734375 20.55859375 C-20.04586395 19.44268356 -20.04586395 19.44268356 -20.0647583 18.30422974 C-20.04154256 12.83209316 -18.95020586 8.64964403 -15.1640625 4.59375 C-9.80950246 0.49908644 -6.6325819 0.05814195 0 0 Z " fill="#1D2023" transform="translate(267.69921875,348.76171875)"/>
<path d="M0 0 C0.89297791 -0.00807175 1.78595581 -0.01614349 2.70599365 -0.02445984 C4.59906063 -0.03830445 6.49215262 -0.04902491 8.38525391 -0.05688477 C11.2716451 -0.07406855 14.15688222 -0.11794717 17.04296875 -0.16210938 C18.88280408 -0.17223895 20.72264915 -0.18075422 22.5625 -0.1875 C23.42208313 -0.20500809 24.28166626 -0.22251617 25.16729736 -0.24055481 C30.62989184 -0.22092051 33.70075423 0.62002205 38.046875 4.23828125 C42.50044074 9.15256069 42.21580887 14.36078998 42.25 20.73046875 C42.25570007 21.55402863 42.26140015 22.3775885 42.26727295 23.22610474 C42.27670389 24.96599042 42.28324935 26.70589382 42.28710938 28.44580078 C42.29681539 31.09699877 42.32785632 33.74742126 42.359375 36.3984375 C42.36590574 38.09244333 42.37115593 39.78645469 42.375 41.48046875 C42.3873468 42.26815643 42.3996936 43.05584412 42.41241455 43.86740112 C42.39288454 48.73135621 41.70691051 52.0110375 39.046875 56.23828125 C33.39441685 61.45593493 29.15404604 62.55285622 21.5546875 62.57421875 C20.73112762 62.58087555 19.90756775 62.58753235 19.05905151 62.59439087 C17.3191755 62.60450128 15.57926083 62.60920839 13.83935547 62.60888672 C11.18782092 62.61325498 8.53795843 62.6495759 5.88671875 62.6875 C4.192714 62.69336965 2.49870138 62.69733805 0.8046875 62.69921875 C0.01699982 62.71358978 -0.77068787 62.72796082 -1.58224487 62.74276733 C-7.61736543 62.69308251 -11.23547615 60.93656443 -15.59765625 56.60546875 C-19.65670468 51.41966106 -20.12197196 48.41053295 -20.15625 41.94140625 C-20.16195007 41.11501648 -20.16765015 40.28862671 -20.17352295 39.43719482 C-20.18297851 37.68535646 -20.18950913 35.93350027 -20.19335938 34.18164062 C-20.20303646 31.51270043 -20.23404206 28.84453969 -20.265625 26.17578125 C-20.27215804 24.47266082 -20.27740733 22.76953488 -20.28125 21.06640625 C-20.2997702 19.87546356 -20.2997702 19.87546356 -20.31866455 18.66046143 C-20.29654376 13.10368889 -19.35617193 8.81253763 -15.41796875 4.59375 C-9.99145556 0.44406345 -6.72378017 0.05724242 0 0 Z " fill="#1D2022" transform="translate(267.953125,176.76171875)"/>
<path d="M0 0 C0.86841019 -0.00807175 1.73682037 -0.01614349 2.63154602 -0.02445984 C4.47333783 -0.03830526 6.31515534 -0.04902536 8.15698242 -0.05688477 C10.95997604 -0.07404546 13.76177404 -0.11792021 16.56445312 -0.16210938 C18.35546009 -0.17224108 20.14647708 -0.18075569 21.9375 -0.1875 C23.1863221 -0.21376213 23.1863221 -0.21376213 24.46037292 -0.24055481 C30.24589473 -0.21923337 33.61755026 0.76315984 38.30078125 4.23828125 C42.66337253 9.09612866 42.88153163 13.14506009 42.796875 19.36328125 C42.79833023 20.22840332 42.79978546 21.09352539 42.80128479 21.98486328 C42.79963088 23.80700054 42.78812667 25.6291525 42.76733398 27.45117188 C42.73836993 30.22977437 42.74673745 33.00646746 42.75976562 35.78515625 C42.75352758 37.56120713 42.74513612 39.33725202 42.734375 41.11328125 C42.73731064 41.93844238 42.74024628 42.76360352 42.74327087 43.61376953 C42.66307729 48.55158067 42.01057997 51.9527531 39.30078125 56.23828125 C33.71149011 61.39762692 29.5433133 62.54796034 22.02734375 62.5390625 C20.825298 62.54549019 20.825298 62.54549019 19.59896851 62.55204773 C17.90615787 62.55778178 16.21332259 62.5582981 14.52050781 62.55395508 C11.94162525 62.55080063 9.36389662 62.57424552 6.78515625 62.59960938 C5.13672019 62.60188315 3.48828106 62.6025855 1.83984375 62.6015625 C1.07402985 62.61077225 0.30821594 62.61998199 -0.48080444 62.62947083 C-5.28143394 62.58836283 -8.52908086 61.85744892 -12.69921875 59.23828125 C-18.53694698 53.13520174 -20.01018479 48.38688248 -20 40.0859375 C-20.00428513 39.30818466 -20.00857025 38.53043182 -20.01298523 37.72911072 C-20.01871055 36.08935517 -20.01924207 34.44957423 -20.01489258 32.80981445 C-20.01173322 30.31221857 -20.03521079 27.81580899 -20.06054688 25.31835938 C-20.06282025 23.72005357 -20.06352318 22.1217446 -20.0625 20.5234375 C-20.07170975 19.78263443 -20.08091949 19.04183136 -20.09040833 18.27857971 C-20.04217739 12.82614516 -18.9366944 8.63516993 -15.1640625 4.59375 C-9.80950246 0.49908644 -6.6325819 0.05814195 0 0 Z " fill="#1D2123" transform="translate(181.69921875,348.76171875)"/>
<path d="M0 0 C0.86841019 -0.00807175 1.73682037 -0.01614349 2.63154602 -0.02445984 C4.47333783 -0.03830526 6.31515534 -0.04902536 8.15698242 -0.05688477 C10.95997604 -0.07404546 13.76177404 -0.11792021 16.56445312 -0.16210938 C18.35546009 -0.17224108 20.14647708 -0.18075569 21.9375 -0.1875 C23.1863221 -0.21376213 23.1863221 -0.21376213 24.46037292 -0.24055481 C30.24250628 -0.21924586 33.65632857 0.70021366 38.30078125 4.23828125 C42.32532169 9.56762437 42.91703916 13.83042395 42.90234375 20.390625 C42.910914 21.24958878 42.91948425 22.10855255 42.92831421 22.99354553 C42.93974527 24.80124401 42.94084233 26.60903443 42.93212891 28.41674805 C42.92580488 31.16551216 42.97278562 33.90996991 43.0234375 36.65820312 C43.0279843 38.42317171 43.0293901 40.18815175 43.02734375 41.953125 C43.04576324 42.76482651 43.06418274 43.57652802 43.0831604 44.41282654 C42.98062962 50.81304322 40.84618739 54.75407904 36.30078125 59.23828125 C31.53117853 62.56096742 27.22951991 62.69297426 21.61328125 62.671875 C20.79255127 62.67711685 19.97182129 62.6823587 19.1262207 62.6877594 C17.3982862 62.6941568 15.67030802 62.69287227 13.94238281 62.68432617 C11.30845241 62.67580606 8.67668587 62.70462324 6.04296875 62.73632812 C4.35807356 62.73794021 2.67317456 62.73736247 0.98828125 62.734375 C-0.18383911 62.75122597 -0.18383911 62.75122597 -1.37963867 62.76841736 C-7.38148287 62.69243174 -11.00725651 60.91106086 -15.34375 56.60546875 C-19.40279843 51.41966106 -19.86806571 48.41053295 -19.90234375 41.94140625 C-19.90804382 41.11501648 -19.9137439 40.28862671 -19.9196167 39.43719482 C-19.92907226 37.68535646 -19.93560288 35.93350027 -19.93945312 34.18164062 C-19.94913021 31.51270043 -19.98013581 28.84453969 -20.01171875 26.17578125 C-20.01825179 24.47266082 -20.02350108 22.76953488 -20.02734375 21.06640625 C-20.04586395 19.87546356 -20.04586395 19.87546356 -20.0647583 18.66046143 C-20.04263751 13.10368889 -19.10226568 8.81253763 -15.1640625 4.59375 C-9.80950246 0.49908644 -6.6325819 0.05814195 0 0 Z " fill="#1C2022" transform="translate(353.69921875,262.76171875)"/>
<path d="M0 0 C0.86841019 -0.00807175 1.73682037 -0.01614349 2.63154602 -0.02445984 C4.47333783 -0.03830526 6.31515534 -0.04902536 8.15698242 -0.05688477 C10.95997604 -0.07404546 13.76177404 -0.11792021 16.56445312 -0.16210938 C18.35546009 -0.17224108 20.14647708 -0.18075569 21.9375 -0.1875 C23.1863221 -0.21376213 23.1863221 -0.21376213 24.46037292 -0.24055481 C30.23388022 -0.21927765 33.53884703 0.94261939 38.30078125 4.23828125 C42.81189265 9.05013341 42.47007078 14.42704844 42.50390625 20.73046875 C42.50960632 21.55402863 42.5153064 22.3775885 42.5211792 23.22610474 C42.53061014 24.96599042 42.5371556 26.70589382 42.54101562 28.44580078 C42.55072164 31.09699877 42.58176257 33.74742126 42.61328125 36.3984375 C42.61981199 38.09244333 42.62506218 39.78645469 42.62890625 41.48046875 C42.64125305 42.26815643 42.65359985 43.05584412 42.6663208 43.86740112 C42.64679079 48.73135621 41.96081676 52.0110375 39.30078125 56.23828125 C33.71149011 61.39762692 29.5433133 62.54796034 22.02734375 62.5390625 C20.825298 62.54549019 20.825298 62.54549019 19.59896851 62.55204773 C17.90615787 62.55778178 16.21332259 62.5582981 14.52050781 62.55395508 C11.94162525 62.55080063 9.36389662 62.57424552 6.78515625 62.59960938 C5.13672019 62.60188315 3.48828106 62.6025855 1.83984375 62.6015625 C1.07402985 62.61077225 0.30821594 62.61998199 -0.48080444 62.62947083 C-6.10354841 62.58132303 -10.33324372 61.46537305 -14.5625 57.484375 C-15.04074219 56.88753906 -15.51898438 56.29070312 -16.01171875 55.67578125 C-16.50285156 55.07636719 -16.99398437 54.47695313 -17.5 53.859375 C-20.27495828 50.10820989 -19.87854427 46.43296546 -19.90234375 41.94140625 C-19.90804382 41.11501648 -19.9137439 40.28862671 -19.9196167 39.43719482 C-19.92907226 37.68535646 -19.93560288 35.93350027 -19.93945312 34.18164062 C-19.94913021 31.51270043 -19.98013581 28.84453969 -20.01171875 26.17578125 C-20.01825179 24.47266082 -20.02350108 22.76953488 -20.02734375 21.06640625 C-20.04586395 19.87546356 -20.04586395 19.87546356 -20.0647583 18.66046143 C-20.04263751 13.10368889 -19.10226568 8.81253763 -15.1640625 4.59375 C-9.80950246 0.49908644 -6.6325819 0.05814195 0 0 Z " fill="#1D2022" transform="translate(267.69921875,262.76171875)"/>
<path d="M0 0 C1.87187172 -0.01650795 3.74368175 -0.0437294 5.61523438 -0.08203125 C8.32308443 -0.13713703 11.0294557 -0.15872893 13.73779297 -0.17333984 C14.97887314 -0.2073439 14.97887314 -0.2073439 16.24502563 -0.24203491 C22.38856616 -0.2199765 26.490927 1.37050881 31.19873047 5.35009766 C34.92436639 9.59105948 34.63651833 13.99704691 34.59716797 19.37744141 C34.60003815 20.24397842 34.60290833 21.11051544 34.60586548 22.00331116 C34.607902 23.83139705 34.60240099 25.65950493 34.58984375 27.48754883 C34.57380346 30.27491389 34.58969606 33.06082474 34.60888672 35.84814453 C34.60690383 37.62874667 34.60305922 39.40934791 34.59716797 41.18994141 C34.60627701 42.43238869 34.60627701 42.43238869 34.61557007 43.69993591 C34.55583521 48.65382599 33.92275469 52.05156619 31.19873047 56.35009766 C25.60943933 61.50944332 21.44126251 62.65977674 13.92529297 62.65087891 C12.72324722 62.65730659 12.72324722 62.65730659 11.49691772 62.66386414 C9.80410709 62.66959818 8.11127181 62.67011451 6.41845703 62.66577148 C3.83957447 62.66261704 1.26184584 62.68606193 -1.31689453 62.71142578 C-2.96533059 62.71369956 -4.61376972 62.71440191 -6.26220703 62.71337891 C-7.02802094 62.72258865 -7.79383484 62.7317984 -8.58285522 62.74128723 C-14.19939738 62.69319254 -18.37130084 61.54572974 -22.66455078 57.66650391 C-23.14279297 57.08771484 -23.62103516 56.50892578 -24.11376953 55.91259766 C-24.60490234 55.33638672 -25.09603516 54.76017578 -25.60205078 54.16650391 C-28.3684855 49.97630148 -27.99131794 45.19406132 -28.03955078 40.33056641 C-28.04762253 39.55377029 -28.05569427 38.77697418 -28.06401062 37.97663879 C-28.07781514 36.33511564 -28.08855347 34.69356423 -28.09643555 33.05200195 C-28.1079551 31.38101738 -28.12840674 29.71006959 -28.15795898 28.03930664 C-28.20080443 25.61530751 -28.21682655 23.19239801 -28.22705078 20.76806641 C-28.25331291 19.65989815 -28.25331291 19.65989815 -28.28010559 18.52934265 C-28.2574029 13.04056775 -26.90754142 9.88763178 -23.80126953 5.35009766 C-16.65195412 -1.11833057 -9.15307176 0.05911392 0 0 Z " fill="#1D2123" transform="translate(189.80126953125,262.64990234375)"/>
<path d="M0 0 C0.89297791 -0.00807175 1.78595581 -0.01614349 2.70599365 -0.02445984 C4.59906063 -0.03830445 6.49215262 -0.04902491 8.38525391 -0.05688477 C11.2716451 -0.07406855 14.15688222 -0.11794717 17.04296875 -0.16210938 C18.88280408 -0.17223895 20.72264915 -0.18075422 22.5625 -0.1875 C23.42208313 -0.20500809 24.28166626 -0.22251617 25.16729736 -0.24055481 C30.6124716 -0.22098312 33.81261005 0.4961465 38.046875 4.23828125 C42.35878067 9.16771325 42.6280473 13.11406925 42.54296875 19.36328125 C42.54442398 20.22840332 42.54587921 21.09352539 42.54737854 21.98486328 C42.54572463 23.80700054 42.53422042 25.6291525 42.51342773 27.45117188 C42.48446368 30.22977437 42.4928312 33.00646746 42.50585938 35.78515625 C42.49962133 37.56120713 42.49122987 39.33725202 42.48046875 41.11328125 C42.48340439 41.93844238 42.48634003 42.76360352 42.48936462 43.61376953 C42.40917104 48.55158067 41.75667372 51.9527531 39.046875 56.23828125 C33.39441685 61.45593493 29.15404604 62.55285622 21.5546875 62.57421875 C20.73112762 62.58087555 19.90756775 62.58753235 19.05905151 62.59439087 C17.3191755 62.60450128 15.57926083 62.60920839 13.83935547 62.60888672 C11.18782092 62.61325498 8.53795843 62.6495759 5.88671875 62.6875 C4.192714 62.69336965 2.49870138 62.69733805 0.8046875 62.69921875 C0.01699982 62.71358978 -0.77068787 62.72796082 -1.58224487 62.74276733 C-7.62327708 62.69303384 -11.15251973 60.89918887 -15.59765625 56.67578125 C-20.0165263 51.23717196 -20.1235726 47.05866661 -20.19140625 40.21875 C-20.199478 39.44195389 -20.20754974 38.66515778 -20.21586609 37.86482239 C-20.22967061 36.22329924 -20.24040894 34.58174782 -20.24829102 32.94018555 C-20.25981057 31.26920097 -20.28026221 29.59825318 -20.30981445 27.92749023 C-20.3526599 25.50349111 -20.36868202 23.0805816 -20.37890625 20.65625 C-20.40516838 19.54808174 -20.40516838 19.54808174 -20.43196106 18.41752625 C-20.40925837 12.92875135 -19.05939689 9.77581537 -15.953125 5.23828125 C-10.61187177 0.4057188 -7.0287447 0.05983872 0 0 Z " fill="#1D2123" transform="translate(181.953125,176.76171875)"/>
<path d="M0 0 C0.86841019 -0.00807175 1.73682037 -0.01614349 2.63154602 -0.02445984 C4.47333783 -0.03830526 6.31515534 -0.04902536 8.15698242 -0.05688477 C10.95997604 -0.07404546 13.76177404 -0.11792021 16.56445312 -0.16210938 C18.35546009 -0.17224108 20.14647708 -0.18075569 21.9375 -0.1875 C23.1863221 -0.21376213 23.1863221 -0.21376213 24.46037292 -0.24055481 C30.24589473 -0.21923337 33.61755026 0.76315984 38.30078125 4.23828125 C42.66337253 9.09612866 42.88153163 13.14506009 42.796875 19.36328125 C42.79833023 20.22840332 42.79978546 21.09352539 42.80128479 21.98486328 C42.79963088 23.80700054 42.78812667 25.6291525 42.76733398 27.45117188 C42.73836993 30.22977437 42.74673745 33.00646746 42.75976562 35.78515625 C42.75352758 37.56120713 42.74513612 39.33725202 42.734375 41.11328125 C42.73731064 41.93844238 42.74024628 42.76360352 42.74327087 43.61376953 C42.66307729 48.55158067 42.01057997 51.9527531 39.30078125 56.23828125 C33.71149011 61.39762692 29.5433133 62.54796034 22.02734375 62.5390625 C20.825298 62.54549019 20.825298 62.54549019 19.59896851 62.55204773 C17.90615787 62.55778178 16.21332259 62.5582981 14.52050781 62.55395508 C11.94162525 62.55080063 9.36389662 62.57424552 6.78515625 62.59960938 C5.13672019 62.60188315 3.48828106 62.6025855 1.83984375 62.6015625 C1.07402985 62.61077225 0.30821594 62.61998199 -0.48080444 62.62947083 C-5.28143394 62.58836283 -8.52908086 61.85744892 -12.69921875 59.23828125 C-18.51711043 53.15593995 -20.01026073 48.3950789 -20.03515625 40.12109375 C-20.04181305 39.34571259 -20.04846985 38.57033142 -20.05532837 37.77145386 C-20.06542319 36.13590862 -20.07014637 34.50032245 -20.06982422 32.86474609 C-20.0741931 30.3778818 -20.11053127 27.89280024 -20.1484375 25.40625 C-20.15430746 23.81120393 -20.15827565 22.21614951 -20.16015625 20.62109375 C-20.1817128 19.51763107 -20.1817128 19.51763107 -20.20370483 18.39187622 C-20.15591374 12.9234326 -18.79020464 9.76131319 -15.69921875 5.23828125 C-10.42859177 0.46961874 -6.9357561 0.06079961 0 0 Z " fill="#1D2123" transform="translate(95.69921875,348.76171875)"/>
<path d="M0 0 C1.27287872 -0.00855011 1.27287872 -0.00855011 2.57147217 -0.01727295 C4.37038932 -0.02672898 6.16932384 -0.03325932 7.96826172 -0.03710938 C10.7096217 -0.04678761 13.4502232 -0.07779341 16.19140625 -0.109375 C17.94009972 -0.1159079 19.68879855 -0.12115724 21.4375 -0.125 C22.66125336 -0.1435202 22.66125336 -0.1435202 23.909729 -0.16241455 C29.52954628 -0.14062154 33.85737387 0.75084129 38.12890625 4.73828125 C43.72912326 12.06164196 42.81243013 19.09560683 42.8894043 28.00439453 C42.91093007 29.87632761 42.94496845 31.74816152 42.99194336 33.61962891 C43.05927132 36.32760269 43.08645954 39.0334924 43.10546875 41.7421875 C43.13329941 42.56957428 43.16113007 43.39696106 43.18980408 44.24942017 C43.17011995 49.88093777 41.82255054 53.25116741 38.16325378 57.55709839 C33.28253042 62.34231613 28.33015524 62.67019563 21.8671875 62.671875 C21.05120087 62.67948853 20.23521423 62.68710205 19.39450073 62.69494629 C17.67497808 62.70570987 15.95539026 62.70861566 14.23583984 62.70410156 C11.62354943 62.70313027 9.01421001 62.74476856 6.40234375 62.7890625 C4.7239644 62.79427131 3.04557493 62.79695766 1.3671875 62.796875 C0.5960965 62.81327026 -0.17499451 62.82966553 -0.9694519 62.84655762 C-6.88751407 62.77222082 -11.04843178 61.12961754 -15.515625 57.203125 C-19.67249024 52.40981256 -20.10061099 47.56029884 -20.01171875 41.41796875 C-20.01317398 40.59865372 -20.01462921 39.77933868 -20.01612854 38.93519592 C-20.01447743 37.21318992 -20.00300499 35.49116795 -19.98217773 33.76928711 C-19.95316648 31.14437811 -19.96159609 28.52148572 -19.97460938 25.89648438 C-19.9683724 24.21613609 -19.95998178 22.53579414 -19.94921875 20.85546875 C-19.95215439 20.07719223 -19.95509003 19.29891571 -19.95811462 18.49705505 C-19.86387563 13.01589206 -18.8592986 8.71377789 -14.98046875 4.55859375 C-9.66931707 0.49712482 -6.57580821 0.03391829 0 0 Z " fill="#1C2022" transform="translate(353.515625,176.796875)"/>
<path d="M0 0 C0.8627504 -0.0038269 1.72550079 -0.00765381 2.61439514 -0.01159668 C4.43231376 -0.0143089 6.25027187 -0.00699612 8.06811523 0.00976562 C10.8360183 0.03116004 13.60131836 0.00995516 16.36914062 -0.015625 C18.14193276 -0.01298109 19.91472329 -0.0078548 21.6875 0 C22.50749985 -0.00809692 23.32749969 -0.01619385 24.17234802 -0.02453613 C29.8905235 0.06778706 33.27366388 1.10996876 37.91015625 4.53125 C42.27274753 9.38909741 42.49090663 13.43802884 42.40625 19.65625 C42.40770523 20.52137207 42.40916046 21.38649414 42.41065979 22.27783203 C42.40900588 24.09996929 42.39750167 25.92212125 42.37670898 27.74414062 C42.34774493 30.52274312 42.35611245 33.29943621 42.36914062 36.078125 C42.36290258 37.85417588 42.35451112 39.63022077 42.34375 41.40625 C42.34668564 42.23141113 42.34962128 43.05657227 42.35264587 43.90673828 C42.27245229 48.84454942 41.61995497 52.24572185 38.91015625 56.53125 C33.32086511 61.69059567 29.1526883 62.84092909 21.63671875 62.83203125 C20.434673 62.83845894 20.434673 62.83845894 19.20834351 62.84501648 C17.51553287 62.85075053 15.82269759 62.85126685 14.12988281 62.84692383 C11.55100025 62.84376938 8.97327162 62.86721427 6.39453125 62.89257812 C4.74609519 62.8948519 3.09765606 62.89555425 1.44921875 62.89453125 C0.68340485 62.903741 -0.08240906 62.91295074 -0.87142944 62.92243958 C-5.67205894 62.88133158 -8.91970586 62.15041767 -13.08984375 59.53125 C-18.88791994 53.4696249 -20.40089342 48.69611801 -20.4609375 40.44921875 C-20.46996597 39.67620926 -20.47899445 38.90319977 -20.48829651 38.10676575 C-20.50276166 36.47543181 -20.51167644 34.84404035 -20.51538086 33.21264648 C-20.52725882 30.73645532 -20.57645952 28.26277397 -20.62695312 25.78710938 C-20.77809867 11.51423891 -20.77809867 11.51423891 -16.75415039 6.0324707 C-11.18677642 1.01064548 -7.25658145 -0.07147721 0 0 Z " fill="#1D2123" transform="translate(96.08984375,262.46875)"/>
<path d="M0 0 C3.92353019 1.95015702 6.41504481 4.94223186 8 9 C8.24050903 11.79681396 8.24050903 11.79681396 8.22705078 15.05371094 C8.22689972 16.27467468 8.22674866 17.49563843 8.22659302 18.75360107 C8.21627045 20.06725647 8.20594788 21.38091187 8.1953125 22.734375 C8.19158042 24.09629102 8.18873437 25.45820973 8.18673706 26.82012939 C8.17911594 30.39747586 8.15948069 33.97465885 8.1373291 37.55194092 C8.11683779 41.2051773 8.10761862 44.85844098 8.09765625 48.51171875 C8.07729552 55.67462334 8.03814573 62.83707957 8 70 C-0.91 70 -9.82 70 -19 70 C-19.08398372 62.15685332 -19.16410741 54.31534365 -19.20700073 46.47213745 C-19.22808592 42.81944456 -19.25624152 39.16712554 -19.30175781 35.51464844 C-19.34535643 31.99385013 -19.36916631 28.47341339 -19.37950897 24.95236588 C-19.39045006 22.96152053 -19.42165399 20.97081978 -19.45318604 18.98019409 C-19.45595939 7.77372298 -19.45595939 7.77372298 -15 3 C-10.65565184 -1.18475986 -5.71525963 -0.89326779 0 0 Z " fill="#F9E632" transform="translate(362,27)"/>
<path d="M0 0 C4.45956479 2.4155976 6.02632925 5.42251257 8 10 C8.36076355 12.99935913 8.36076355 12.99935913 8.34057617 16.18896484 C8.34034958 17.38975677 8.34012299 18.59054871 8.33988953 19.82772827 C8.32440567 21.10918732 8.30892181 22.39064636 8.29296875 23.7109375 C8.28736685 25.04757204 8.28309956 26.38421278 8.28010559 27.72085571 C8.26870334 31.22264904 8.23927697 34.72406342 8.20599365 38.22570801 C8.17519236 41.80536685 8.16141399 45.38508932 8.14648438 48.96484375 C8.11599719 55.97689612 8.05726752 62.98791071 8 70 C-0.91 70 -9.82 70 -19 70 C-19.08398372 62.15685332 -19.16410741 54.31534365 -19.20700073 46.47213745 C-19.22808592 42.81944456 -19.25624152 39.16712554 -19.30175781 35.51464844 C-19.34535643 31.99385013 -19.36916631 28.47341339 -19.37950897 24.95236588 C-19.39045006 22.96152053 -19.42165399 20.97081978 -19.45318604 18.98019409 C-19.45595912 7.77479829 -19.45595912 7.77479829 -15 3 C-10.64990893 -1.2077568 -5.72565799 -0.75718211 0 0 Z " fill="#F9E632" transform="translate(242,27)"/>
<path d="M0 0 C3.48805691 1.98102187 6.19713391 4.39426782 8 8 C8.09128293 9.94044277 8.11752248 11.8840756 8.11352539 13.82666016 C8.11344986 15.04777496 8.11337433 16.26888977 8.11329651 17.52700806 C8.10818952 18.86435995 8.10297352 20.20171143 8.09765625 21.5390625 C8.0957914 22.90383859 8.09436781 24.26861534 8.09336853 25.63339233 C8.08954863 29.22715093 8.07972283 32.82086917 8.06866455 36.41461182 C8.05843911 40.08108982 8.05386848 43.74757435 8.04882812 47.4140625 C8.0381001 54.60939553 8.02050756 61.80468697 8 69 C-0.58 69 -9.16 69 -18 69 C-18.09045709 61.00254919 -18.16380494 53.0054977 -18.20724869 45.00767231 C-18.22810212 41.29373951 -18.25637755 37.58017559 -18.30175781 33.86645508 C-18.34529746 30.28082352 -18.369154 26.6955462 -18.37950897 23.10967064 C-18.38688594 21.74332288 -18.40129181 20.37699398 -18.42292023 19.0107975 C-18.45205572 17.09373595 -18.45363476 15.17631609 -18.45410156 13.2590332 C-18.46298401 12.16871292 -18.47186646 11.07839264 -18.48101807 9.95503235 C-17.88141146 6.2714765 -16.57006582 4.65897375 -14 2 C-9.52852634 -0.98098244 -5.23732986 -0.86073109 0 0 Z " fill="#FEEA32" transform="translate(121,27)"/>
<path d="M0 0 C1.1149585 -0.00430527 1.1149585 -0.00430527 2.25244141 -0.00869751 C3.8225989 -0.01073726 5.39278186 -0.0052135 6.96289062 0.00732422 C9.36646332 0.02338047 11.76835461 0.00747398 14.171875 -0.01171875 C15.69792038 -0.0097363 17.22396471 -0.00589259 18.75 0 C19.46881348 -0.00607269 20.18762695 -0.01214539 20.92822266 -0.0184021 C23.67862173 0.02037139 25.87852197 0.13261114 28.32885742 1.44458008 C29.97924864 4.52697936 29.78176757 7.64970878 29.73828125 11.05859375 C29.73902901 12.17710976 29.73902901 12.17710976 29.73979187 13.31822205 C29.73745361 14.8925951 29.72773955 16.46697205 29.71118164 18.04125977 C29.68755244 20.45557928 29.69062656 22.8687971 29.69726562 25.28320312 C29.69168996 26.8125066 29.68458078 28.34180542 29.67578125 29.87109375 C29.67714836 30.95705589 29.67714836 30.95705589 29.67854309 32.06495667 C29.60604563 37.16739187 29.60604563 37.16739187 27.375 39.3984375 C24.67384093 39.61040764 22.07775462 39.70241429 19.375 39.69921875 C18.58351563 39.70350388 17.79203125 39.707789 16.9765625 39.71220398 C15.30209307 39.71795048 13.62759868 39.71844518 11.953125 39.71411133 C9.38498588 39.71094979 6.8179967 39.7344106 4.25 39.75976562 C2.62500146 39.76203836 0.99999981 39.76274223 -0.625 39.76171875 C-1.39585937 39.7709285 -2.16671875 39.78013824 -2.9609375 39.78962708 C-5.125 39.77075195 -5.125 39.77075195 -8.625 39.3984375 C-11.0257285 35.79734475 -10.93122383 33.15404661 -10.92578125 28.9921875 C-10.93006638 28.27107788 -10.9343515 27.54996826 -10.93876648 26.80700684 C-10.94450381 25.28394622 -10.94501442 23.76085821 -10.94067383 22.23779297 C-10.93751128 19.90675222 -10.96098708 17.57697782 -10.98632812 15.24609375 C-10.98860093 13.7656266 -10.9893047 12.28515604 -10.98828125 10.8046875 C-10.997491 10.1077478 -11.00670074 9.41080811 -11.01618958 8.69274902 C-10.99031691 5.98960963 -10.87603599 3.86348387 -9.57885742 1.46044922 C-6.51128017 -0.20692065 -3.40380111 -0.02875605 0 0 Z " fill="#656565" transform="translate(355.625,187.6015625)"/>
<path d="M0 0 C1.1149585 -0.00430527 1.1149585 -0.00430527 2.25244141 -0.00869751 C3.8225989 -0.01073726 5.39278186 -0.0052135 6.96289062 0.00732422 C9.36646332 0.02338047 11.76835461 0.00747398 14.171875 -0.01171875 C15.69792038 -0.0097363 17.22396471 -0.00589259 18.75 0 C19.46881348 -0.00607269 20.18762695 -0.01214539 20.92822266 -0.0184021 C23.67862173 0.02037139 25.87852197 0.13261114 28.32885742 1.44458008 C29.97924864 4.52697936 29.78176757 7.64970878 29.73828125 11.05859375 C29.73902901 12.17710976 29.73902901 12.17710976 29.73979187 13.31822205 C29.73745361 14.8925951 29.72773955 16.46697205 29.71118164 18.04125977 C29.68755244 20.45557928 29.69062656 22.8687971 29.69726562 25.28320312 C29.69168996 26.8125066 29.68458078 28.34180542 29.67578125 29.87109375 C29.67714836 30.95705589 29.67714836 30.95705589 29.67854309 32.06495667 C29.60604563 37.16739187 29.60604563 37.16739187 27.375 39.3984375 C24.67384093 39.61040764 22.07775462 39.70241429 19.375 39.69921875 C18.58351563 39.70350388 17.79203125 39.707789 16.9765625 39.71220398 C15.30209307 39.71795048 13.62759868 39.71844518 11.953125 39.71411133 C9.38498588 39.71094979 6.8179967 39.7344106 4.25 39.75976562 C2.62500146 39.76203836 0.99999981 39.76274223 -0.625 39.76171875 C-1.39585937 39.7709285 -2.16671875 39.78013824 -2.9609375 39.78962708 C-5.125 39.77075195 -5.125 39.77075195 -8.625 39.3984375 C-11.0257285 35.79734475 -10.93122383 33.15404661 -10.92578125 28.9921875 C-10.93006638 28.27107788 -10.9343515 27.54996826 -10.93876648 26.80700684 C-10.94450381 25.28394622 -10.94501442 23.76085821 -10.94067383 22.23779297 C-10.93751128 19.90675222 -10.96098708 17.57697782 -10.98632812 15.24609375 C-10.98860093 13.7656266 -10.9893047 12.28515604 -10.98828125 10.8046875 C-10.997491 10.1077478 -11.00670074 9.41080811 -11.01618958 8.69274902 C-10.99031691 5.98960963 -10.87603599 3.86348387 -9.57885742 1.46044922 C-6.51128017 -0.20692065 -3.40380111 -0.02875605 0 0 Z " fill="#656565" transform="translate(269.625,187.6015625)"/>
<path d="M0 0 C1.1149585 -0.00074776 1.1149585 -0.00074776 2.25244141 -0.00151062 C3.82261837 0.00082792 5.39279921 0.01054357 6.96289062 0.02709961 C9.36622642 0.05069511 11.76845279 0.04765899 14.171875 0.04101562 C15.69792328 0.04659253 17.22396689 0.05370248 18.75 0.0625 C19.46881348 0.06158859 20.18762695 0.06067719 20.92822266 0.05973816 C24.6211273 0.11221435 26.21997826 0.25993342 29.375 2.36328125 C29.66688604 5.03523481 29.77114259 7.47207272 29.73828125 10.14453125 C29.73902901 11.29846375 29.73902901 11.29846375 29.73979187 12.47570801 C29.73745006 14.10313498 29.72771513 15.73056548 29.71118164 17.35791016 C29.68759228 19.85351843 29.69061898 22.34805864 29.69726562 24.84375 C29.69168887 26.42318347 29.684579 28.00261243 29.67578125 29.58203125 C29.67714836 30.70550964 29.67714836 30.70550964 29.67854309 31.85168457 C29.60602759 37.13225366 29.60602759 37.13225366 27.375 39.36328125 C24.75736005 39.57521683 22.24815295 39.66726315 19.62890625 39.6640625 C18.86198959 39.66834763 18.09507294 39.67263275 17.30491638 39.67704773 C15.68172188 39.68279448 14.05850162 39.68328874 12.43530273 39.67895508 C9.95056206 39.67579785 7.46701498 39.69923879 4.98242188 39.72460938 C3.4062515 39.72688261 1.83007793 39.72758575 0.25390625 39.7265625 C-0.48991806 39.73577225 -1.23374237 39.74498199 -2.00010681 39.75447083 C-4.81729083 39.72918764 -7.0830072 39.65522699 -9.5925293 38.3034668 C-11.19435653 35.29336487 -11.05242432 32.28373787 -11.0234375 28.95703125 C-11.02630768 28.23592163 -11.02917786 27.51481201 -11.03213501 26.77185059 C-11.03417452 25.2487713 -11.02865247 23.72566575 -11.01611328 22.20263672 C-11.00005643 19.87147447 -11.0159641 17.54204583 -11.03515625 15.2109375 C-11.0331738 13.73046492 -11.02933007 12.24999343 -11.0234375 10.76953125 C-11.02951019 10.07259155 -11.03558289 9.37565186 -11.0418396 8.65759277 C-11.00257672 5.95560425 -10.87397099 3.82405733 -9.57666016 1.4230957 C-6.50832933 -0.24310697 -3.40233298 -0.04359215 0 0 Z " fill="#656565" transform="translate(269.625,359.63671875)"/>
<path d="M0 0 C1.1149585 -0.00430527 1.1149585 -0.00430527 2.25244141 -0.00869751 C3.8225989 -0.01073726 5.39278186 -0.0052135 6.96289062 0.00732422 C9.36646332 0.02338047 11.76835461 0.00747398 14.171875 -0.01171875 C15.69792038 -0.0097363 17.22396471 -0.00589259 18.75 0 C19.46881348 -0.00607269 20.18762695 -0.01214539 20.92822266 -0.0184021 C23.67862173 0.02037139 25.87852197 0.13261114 28.32885742 1.44458008 C29.97924864 4.52697936 29.78176757 7.64970878 29.73828125 11.05859375 C29.73902901 12.17710976 29.73902901 12.17710976 29.73979187 13.31822205 C29.73745361 14.8925951 29.72773955 16.46697205 29.71118164 18.04125977 C29.68755244 20.45557928 29.69062656 22.8687971 29.69726562 25.28320312 C29.69168996 26.8125066 29.68458078 28.34180542 29.67578125 29.87109375 C29.67714836 30.95705589 29.67714836 30.95705589 29.67854309 32.06495667 C29.60604563 37.16739187 29.60604563 37.16739187 27.375 39.3984375 C24.75736005 39.61037308 22.24815295 39.7024194 19.62890625 39.69921875 C18.86198959 39.70350388 18.09507294 39.707789 17.30491638 39.71220398 C15.68172188 39.71795073 14.05850162 39.71844499 12.43530273 39.71411133 C9.95056206 39.7109541 7.46701498 39.73439504 4.98242188 39.75976562 C3.4062515 39.76203886 1.83007793 39.762742 0.25390625 39.76171875 C-0.48991806 39.7709285 -1.23374237 39.78013824 -2.00010681 39.78962708 C-4.81729083 39.76434389 -7.0830072 39.69038324 -9.5925293 38.33862305 C-11.19435653 35.32852112 -11.05242432 32.31889412 -11.0234375 28.9921875 C-11.02630768 28.27107788 -11.02917786 27.54996826 -11.03213501 26.80700684 C-11.03417452 25.28392755 -11.02865247 23.760822 -11.01611328 22.23779297 C-11.00005643 19.90663072 -11.0159641 17.57720208 -11.03515625 15.24609375 C-11.0331738 13.76562117 -11.02933007 12.28514968 -11.0234375 10.8046875 C-11.02951019 10.1077478 -11.03558289 9.41080811 -11.0418396 8.69274902 C-11.00258685 5.99145787 -10.87483436 3.8602878 -9.57666016 1.46044922 C-6.51059917 -0.20797276 -3.40284076 -0.02874794 0 0 Z " fill="#656565" transform="translate(355.625,273.6015625)"/>
<path d="M0 0 C1.1149585 -0.00430527 1.1149585 -0.00430527 2.25244141 -0.00869751 C3.8225989 -0.01073726 5.39278186 -0.0052135 6.96289062 0.00732422 C9.36646332 0.02338047 11.76835461 0.00747398 14.171875 -0.01171875 C15.69792038 -0.0097363 17.22396471 -0.00589259 18.75 0 C19.46881348 -0.00607269 20.18762695 -0.01214539 20.92822266 -0.0184021 C23.67862173 0.02037139 25.87852197 0.13261114 28.32885742 1.44458008 C29.97924864 4.52697936 29.78176757 7.64970878 29.73828125 11.05859375 C29.73902901 12.17710976 29.73902901 12.17710976 29.73979187 13.31822205 C29.73745361 14.8925951 29.72773955 16.46697205 29.71118164 18.04125977 C29.68755244 20.45557928 29.69062656 22.8687971 29.69726562 25.28320312 C29.69168996 26.8125066 29.68458078 28.34180542 29.67578125 29.87109375 C29.67714836 30.95705589 29.67714836 30.95705589 29.67854309 32.06495667 C29.60604563 37.16739187 29.60604563 37.16739187 27.375 39.3984375 C24.75736005 39.61037308 22.24815295 39.7024194 19.62890625 39.69921875 C18.86198959 39.70350388 18.09507294 39.707789 17.30491638 39.71220398 C15.68172188 39.71795073 14.05850162 39.71844499 12.43530273 39.71411133 C9.95056206 39.7109541 7.46701498 39.73439504 4.98242188 39.75976562 C3.4062515 39.76203886 1.83007793 39.762742 0.25390625 39.76171875 C-0.48991806 39.7709285 -1.23374237 39.78013824 -2.00010681 39.78962708 C-4.81729083 39.76434389 -7.0830072 39.69038324 -9.5925293 38.33862305 C-11.19435653 35.32852112 -11.05242432 32.31889412 -11.0234375 28.9921875 C-11.02630768 28.27107788 -11.02917786 27.54996826 -11.03213501 26.80700684 C-11.03417452 25.28392755 -11.02865247 23.760822 -11.01611328 22.23779297 C-11.00005643 19.90663072 -11.0159641 17.57720208 -11.03515625 15.24609375 C-11.0331738 13.76562117 -11.02933007 12.28514968 -11.0234375 10.8046875 C-11.02951019 10.1077478 -11.03558289 9.41080811 -11.0418396 8.69274902 C-11.00258685 5.99145787 -10.87483436 3.8602878 -9.57666016 1.46044922 C-6.51059917 -0.20797276 -3.40284076 -0.02874794 0 0 Z " fill="#656565" transform="translate(269.625,273.6015625)"/>
<path d="M0 0 C1.12347839 0.00607269 1.12347839 0.00607269 2.26965332 0.01226807 C3.03894165 0.01035461 3.80822998 0.00844116 4.60083008 0.00646973 C6.22823412 0.00510799 7.85564902 0.00880368 9.48303223 0.01715088 C11.97855963 0.02785086 14.47336714 0.01725555 16.96887207 0.00445557 C18.54830075 0.00577716 20.12772898 0.00833956 21.70715332 0.01226807 C22.45613892 0.0082196 23.20512451 0.00417114 23.97680664 0 C29.25848089 0.04797064 29.25848089 0.04797064 31.48840332 2.27789307 C31.68805705 4.90729503 31.76824442 7.4290947 31.75402832 10.05914307 C31.7568985 11.21307556 31.7568985 11.21307556 31.75982666 12.39031982 C31.7611884 14.01772387 31.75749271 15.64513877 31.74914551 17.27252197 C31.73844553 19.76804937 31.74904083 22.26285689 31.76184082 24.75836182 C31.76051922 26.33779049 31.75795683 27.91721872 31.75402832 29.49664307 C31.75807678 30.24562866 31.76212524 30.99461426 31.76629639 31.76629639 C31.71832575 37.04797064 31.71832575 37.04797064 29.48840332 39.27789307 C26.85900136 39.4775468 24.33720169 39.55773416 21.70715332 39.54351807 C20.93786499 39.54543152 20.16857666 39.54734497 19.37597656 39.54931641 C17.74857252 39.55067815 16.12115762 39.54698246 14.49377441 39.53863525 C11.99824701 39.52793527 9.5034395 39.53853058 7.00793457 39.55133057 C5.42850589 39.55000897 3.84907766 39.54744657 2.26965332 39.54351807 C1.52066772 39.54756653 0.77168213 39.55161499 0 39.55578613 C-5.28167425 39.5078155 -5.28167425 39.5078155 -7.51159668 37.27789307 C-7.71125041 34.64849111 -7.79143778 32.12669144 -7.77722168 29.49664307 C-7.77913513 28.72735474 -7.78104858 27.95806641 -7.78302002 27.16546631 C-7.78438176 25.53806227 -7.78068607 23.91064736 -7.77233887 22.28326416 C-7.76163889 19.78773676 -7.77223419 17.29292924 -7.78503418 14.79742432 C-7.78371258 13.21799564 -7.78115018 11.63856741 -7.77722168 10.05914307 C-7.78127014 9.31015747 -7.7853186 8.56117188 -7.78948975 7.78948975 C-7.73019576 1.26108949 -6.52840025 0.05929398 0 0 Z " fill="#656565" transform="translate(181.5115966796875,359.72210693359375)"/>
<path d="M0 0 C1.12347839 0.00607269 1.12347839 0.00607269 2.26965332 0.01226807 C3.03894165 0.01035461 3.80822998 0.00844116 4.60083008 0.00646973 C6.22823412 0.00510799 7.85564902 0.00880368 9.48303223 0.01715088 C11.97855963 0.02785086 14.47336714 0.01725555 16.96887207 0.00445557 C18.54830075 0.00577716 20.12772898 0.00833956 21.70715332 0.01226807 C22.45613892 0.0082196 23.20512451 0.00417114 23.97680664 0 C29.25848089 0.04797064 29.25848089 0.04797064 31.48840332 2.27789307 C31.68805705 4.90729503 31.76824442 7.4290947 31.75402832 10.05914307 C31.7568985 11.21307556 31.7568985 11.21307556 31.75982666 12.39031982 C31.7611884 14.01772387 31.75749271 15.64513877 31.74914551 17.27252197 C31.73844553 19.76804937 31.74904083 22.26285689 31.76184082 24.75836182 C31.76051922 26.33779049 31.75795683 27.91721872 31.75402832 29.49664307 C31.75807678 30.24562866 31.76212524 30.99461426 31.76629639 31.76629639 C31.71832575 37.04797064 31.71832575 37.04797064 29.48840332 39.27789307 C26.85900136 39.4775468 24.33720169 39.55773416 21.70715332 39.54351807 C20.93786499 39.54543152 20.16857666 39.54734497 19.37597656 39.54931641 C17.74857252 39.55067815 16.12115762 39.54698246 14.49377441 39.53863525 C11.99824701 39.52793527 9.5034395 39.53853058 7.00793457 39.55133057 C5.42850589 39.55000897 3.84907766 39.54744657 2.26965332 39.54351807 C1.52066772 39.54756653 0.77168213 39.55161499 0 39.55578613 C-5.28167425 39.5078155 -5.28167425 39.5078155 -7.51159668 37.27789307 C-7.71125041 34.64849111 -7.79143778 32.12669144 -7.77722168 29.49664307 C-7.77913513 28.72735474 -7.78104858 27.95806641 -7.78302002 27.16546631 C-7.78438176 25.53806227 -7.78068607 23.91064736 -7.77233887 22.28326416 C-7.76163889 19.78773676 -7.77223419 17.29292924 -7.78503418 14.79742432 C-7.78371258 13.21799564 -7.78115018 11.63856741 -7.77722168 10.05914307 C-7.78127014 9.31015747 -7.7853186 8.56117188 -7.78948975 7.78948975 C-7.73019576 1.26108949 -6.52840025 0.05929398 0 0 Z " fill="#656565" transform="translate(95.5115966796875,359.72210693359375)"/>
<path d="M0 0 C0.72397476 0.00404846 1.44794952 0.00809692 2.19386292 0.01226807 C2.93858353 0.01035461 3.68330414 0.00844116 4.45059204 0.00646973 C6.02672157 0.00510793 7.60286232 0.00880404 9.17897034 0.01715088 C11.5910925 0.02783581 14.00246735 0.01726361 16.41456604 0.00445557 C17.94516664 0.00577746 19.47576678 0.00834047 21.00636292 0.01226807 C21.72831345 0.0082196 22.45026398 0.00417114 23.1940918 0 C26.90169586 0.0346782 28.49868264 0.16600205 31.66651917 2.27789307 C31.95840521 4.94984662 32.06266175 7.38668454 32.02980042 10.05914307 C32.03054817 11.21307556 32.03054817 11.21307556 32.03131104 12.39031982 C32.02896922 14.0177468 32.01923429 15.6451773 32.00270081 17.27252197 C31.97911145 19.76813024 31.98213815 22.26267045 31.98878479 24.75836182 C31.98320803 26.33779529 31.97609817 27.91722425 31.96730042 29.49664307 C31.96866753 30.62012146 31.96866753 30.62012146 31.97006226 31.76629639 C31.89754675 37.04686548 31.89754675 37.04686548 29.66651917 39.27789307 C27.03711721 39.4775468 24.51531753 39.55773416 21.88526917 39.54351807 C21.11598083 39.54543152 20.3466925 39.54734497 19.55409241 39.54931641 C17.92668837 39.55067815 16.29927346 39.54698246 14.67189026 39.53863525 C12.17636286 39.52793527 9.68155534 39.53853058 7.18605042 39.55133057 C5.60662174 39.55000897 4.02719351 39.54744657 2.44776917 39.54351807 C1.69878357 39.54756653 0.94979797 39.55161499 0.17811584 39.55578613 C-5.1035584 39.5078155 -5.1035584 39.5078155 -7.33348083 37.27789307 C-7.53313457 34.64849111 -7.61332193 32.12669144 -7.59910583 29.49664307 C-7.60101929 28.72735474 -7.60293274 27.95806641 -7.60490417 27.16546631 C-7.60626592 25.53806227 -7.60257022 23.91064736 -7.59422302 22.28326416 C-7.58352304 19.78773676 -7.59411835 17.29292924 -7.60691833 14.79742432 C-7.60559674 13.21799564 -7.60303434 11.63856741 -7.59910583 10.05914307 C-7.6031543 9.31015747 -7.60720276 8.56117188 -7.6113739 7.78948975 C-7.55318766 1.38305497 -6.44620975 0.0605764 0 0 Z " fill="#656565" transform="translate(181.33348083496094,273.72210693359375)"/>
<path d="M0 0 C0.72397476 0.00404846 1.44794952 0.00809692 2.19386292 0.01226807 C2.93858353 0.01035461 3.68330414 0.00844116 4.45059204 0.00646973 C6.02672157 0.00510793 7.60286232 0.00880404 9.17897034 0.01715088 C11.5910925 0.02783581 14.00246735 0.01726361 16.41456604 0.00445557 C17.94516664 0.00577746 19.47576678 0.00834047 21.00636292 0.01226807 C21.72831345 0.0082196 22.45026398 0.00417114 23.1940918 0 C26.90169586 0.0346782 28.49868264 0.16600205 31.66651917 2.27789307 C31.95840521 4.94984662 32.06266175 7.38668454 32.02980042 10.05914307 C32.03054817 11.21307556 32.03054817 11.21307556 32.03131104 12.39031982 C32.02896922 14.0177468 32.01923429 15.6451773 32.00270081 17.27252197 C31.97911145 19.76813024 31.98213815 22.26267045 31.98878479 24.75836182 C31.98320803 26.33779529 31.97609817 27.91722425 31.96730042 29.49664307 C31.96866753 30.62012146 31.96866753 30.62012146 31.97006226 31.76629639 C31.89754675 37.04686548 31.89754675 37.04686548 29.66651917 39.27789307 C27.03711721 39.4775468 24.51531753 39.55773416 21.88526917 39.54351807 C21.11598083 39.54543152 20.3466925 39.54734497 19.55409241 39.54931641 C17.92668837 39.55067815 16.29927346 39.54698246 14.67189026 39.53863525 C12.17636286 39.52793527 9.68155534 39.53853058 7.18605042 39.55133057 C5.60662174 39.55000897 4.02719351 39.54744657 2.44776917 39.54351807 C1.69878357 39.54756653 0.94979797 39.55161499 0.17811584 39.55578613 C-5.1035584 39.5078155 -5.1035584 39.5078155 -7.33348083 37.27789307 C-7.53313457 34.64849111 -7.61332193 32.12669144 -7.59910583 29.49664307 C-7.60101929 28.72735474 -7.60293274 27.95806641 -7.60490417 27.16546631 C-7.60626592 25.53806227 -7.60257022 23.91064736 -7.59422302 22.28326416 C-7.58352304 19.78773676 -7.59411835 17.29292924 -7.60691833 14.79742432 C-7.60559674 13.21799564 -7.60303434 11.63856741 -7.59910583 10.05914307 C-7.6031543 9.31015747 -7.60720276 8.56117188 -7.6113739 7.78948975 C-7.55318766 1.38305497 -6.44620975 0.0605764 0 0 Z " fill="#656565" transform="translate(95.33348083496094,273.72210693359375)"/>
<path d="M0 0 C0.72397476 0.00091141 1.44794952 0.00182281 2.19386292 0.00276184 C2.93858353 -0.00152328 3.68330414 -0.00580841 4.45059204 -0.01022339 C6.02670779 -0.01596972 7.60285007 -0.01646471 9.17897034 -0.01213074 C11.59129608 -0.00897356 14.00239229 -0.03241447 16.41456604 -0.05778503 C17.94516345 -0.06005828 19.47576416 -0.0607614 21.00636292 -0.05973816 C21.72831345 -0.06894791 22.45026398 -0.07815765 23.1940918 -0.08764648 C25.95444957 -0.06213745 28.16092722 0.03370895 30.62257385 1.3474884 C32.26877373 4.43199575 32.07329052 7.55451772 32.02980042 10.96369934 C32.03054817 12.08221535 32.03054817 12.08221535 32.03131104 13.22332764 C32.02897277 14.79770069 32.01925872 16.37207764 32.00270081 17.94636536 C31.97907161 20.36068487 31.98214573 22.77390269 31.98878479 25.18830872 C31.98320913 26.71761219 31.97609995 28.24691101 31.96730042 29.77619934 C31.96866753 30.86216148 31.96866753 30.86216148 31.97006226 31.97006226 C31.89756479 37.07249747 31.89756479 37.07249747 29.66651917 39.30354309 C27.03711721 39.50319682 24.51531753 39.58338419 21.88526917 39.56916809 C21.11598083 39.57108154 20.3466925 39.572995 19.55409241 39.57496643 C17.92668837 39.57632817 16.29927346 39.57263248 14.67189026 39.56428528 C12.17636286 39.5535853 9.68155534 39.5641806 7.18605042 39.57698059 C5.60662174 39.57565899 4.02719351 39.5730966 2.44776917 39.56916809 C1.69878357 39.57321655 0.94979797 39.57726501 0.17811584 39.58143616 C-5.1035584 39.53346552 -5.1035584 39.53346552 -7.33348083 37.30354309 C-7.53313457 34.67414113 -7.61332193 32.15234146 -7.59910583 29.52229309 C-7.60101929 28.75300476 -7.60293274 27.98371643 -7.60490417 27.19111633 C-7.60626592 25.56371229 -7.60257022 23.93629739 -7.59422302 22.30891418 C-7.58352304 19.81338678 -7.59411835 17.31857927 -7.60691833 14.82307434 C-7.60559674 13.24364566 -7.60303434 11.66421744 -7.59910583 10.08479309 C-7.6031543 9.3358075 -7.60720276 8.5868219 -7.6113739 7.81513977 C-7.55319998 1.41006137 -6.44219204 0.09153327 0 0 Z " fill="#656565" transform="translate(181.33348083496094,187.6964569091797)"/>
<path d="M0 0 C2.65966797 0.55810547 2.65966797 0.55810547 4.65966797 2.55810547 C5.09426345 6.04102903 5.11033791 7.8839542 3.13679504 10.83615112 C2.42351547 11.55118805 1.7102359 12.26622498 0.9753418 13.00292969 C-0.23172676 14.23352615 -0.23172676 14.23352615 -1.46318054 15.48898315 C-2.78489006 16.78776901 -2.78489006 16.78776901 -4.13330078 18.11279297 C-5.03148026 19.01434113 -5.92965973 19.91588928 -6.85505676 20.84475708 C-8.75744176 22.74684307 -10.66462553 24.64185872 -12.58276367 26.52783203 C-15.03853168 28.94379053 -17.46892904 31.3835302 -19.89246655 33.83176994 C-22.21026798 36.16717381 -24.54745547 38.48295747 -26.88330078 40.80029297 C-27.75431931 41.67829559 -28.62533783 42.55629822 -29.52275085 43.46090698 C-30.34322403 44.26239166 -31.1636972 45.06387634 -32.0090332 45.88964844 C-32.72629074 46.5999118 -33.44354828 47.31017517 -34.18254089 48.04196167 C-36.81159487 49.88923215 -38.1904688 49.992715 -41.34033203 49.55810547 C-43.54443359 48.00097656 -43.54443359 48.00097656 -45.73095703 45.83154297 C-46.52244141 45.04650391 -47.31392578 44.26146484 -48.12939453 43.45263672 C-49.34755859 42.20546875 -49.34755859 42.20546875 -50.59033203 40.93310547 C-51.41791016 40.12486328 -52.24548828 39.31662109 -53.09814453 38.48388672 C-53.88447266 37.69111328 -54.67080078 36.89833984 -55.48095703 36.08154297 C-56.55651855 34.99752197 -56.55651855 34.99752197 -57.65380859 33.89160156 C-59.68903929 31.0756295 -60.10674119 28.99971672 -60.34033203 25.55810547 C-59.27783203 23.68310547 -59.27783203 23.68310547 -57.34033203 22.55810547 C-54.35435458 22.06972465 -52.27776369 21.90154849 -49.7277832 23.6875 C-48.05897682 25.24899503 -46.50544351 26.86968696 -44.96533203 28.55810547 C-44.42005859 29.13044922 -43.87478516 29.70279297 -43.31298828 30.29248047 C-41.97474191 31.70116086 -40.65558228 33.12793044 -39.34033203 34.55810547 C-36.34338733 33.21795602 -34.31274788 31.75679048 -32.04394531 29.39355469 C-31.42294952 28.75304169 -30.80195374 28.11252869 -30.16213989 27.4526062 C-29.50164642 26.76296783 -28.84115295 26.07332947 -28.16064453 25.36279297 C-26.74326798 23.9103919 -25.32528037 22.45858695 -23.90673828 21.00732422 C-21.67938721 18.71797928 -19.45699548 16.42442057 -17.24511719 14.12011719 C-15.10541257 11.89579417 -12.94729652 9.69076423 -10.78564453 7.48779297 C-10.12919952 6.79410614 -9.47275452 6.10041931 -8.79641724 5.38571167 C-4.15623613 0.69442741 -4.15623613 0.69442741 0 0 Z " fill="#1A1E1F" transform="translate(440.34033203125,386.44189453125)"/>
<path d="M0 0 C2.3431213 0.25561323 4.67843403 0.59270772 7 1 C8.52264109 4.04528219 8.16285537 7.22145246 8.16796875 10.5625 C8.17296135 11.68313843 8.17296135 11.68313843 8.17805481 12.82641602 C8.18311966 14.40673201 8.18546327 15.98705871 8.18530273 17.56738281 C8.18749134 19.99041243 8.20565701 22.41298836 8.22460938 24.8359375 C8.22754292 26.3697901 8.22952798 27.90364488 8.23046875 29.4375 C8.23765427 30.16461182 8.24483978 30.89172363 8.25224304 31.64086914 C8.22882803 36.77117197 8.22882803 36.77117197 6 39 C3.38236005 39.21193558 0.87315295 39.3039819 -1.74609375 39.30078125 C-2.51301041 39.30506638 -3.27992706 39.3093515 -4.07008362 39.31376648 C-5.69327812 39.31951323 -7.31649838 39.32000749 -8.93969727 39.31567383 C-11.42443794 39.3125166 -13.90798502 39.33595754 -16.39257812 39.36132812 C-17.9687485 39.36360136 -19.54492207 39.3643045 -21.12109375 39.36328125 C-21.86491806 39.372491 -22.60874237 39.38170074 -23.37510681 39.39118958 C-26.1910918 39.36591716 -28.46101656 39.2875556 -30.97412109 37.94677734 C-32.58055254 34.89830415 -32.36657601 31.84613685 -32.29296875 28.48828125 C-32.28872391 27.76005661 -32.28447906 27.03183197 -32.28010559 26.28153992 C-32.26332733 23.95814873 -32.22567855 21.6356285 -32.1875 19.3125 C-32.17245197 17.73634066 -32.15876377 16.16016771 -32.14648438 14.58398438 C-32.11342685 10.72232123 -32.06165194 6.86130822 -32 3 C-31.67 3 -31.34 3 -31 3 C-31 12.24 -31 21.48 -31 31 C-16.19627814 29.3175695 -16.19627814 29.3175695 -5.28515625 19.91015625 C-1.15889762 13.77720649 -0.43053912 7.24493422 0 0 Z " fill="#575655" transform="translate(377,274)"/>
<path d="M0 0 C6.875 0.875 6.875 0.875 8 2 C8.11332093 4.57019485 8.16417485 7.11251477 8.16796875 9.68359375 C8.17296135 10.83964867 8.17296135 10.83964867 8.17805481 12.01905823 C8.1831271 13.65242921 8.18546304 15.2858106 8.18530273 16.91918945 C8.1874878 19.42351299 8.20563595 21.92739521 8.22460938 24.43164062 C8.22754347 26.01562349 8.22952816 27.59960845 8.23046875 29.18359375 C8.23765427 29.9357164 8.24483978 30.68783905 8.25224304 31.4627533 C8.22882279 36.77117721 8.22882279 36.77117721 6 39 C3.38236005 39.21193558 0.87315295 39.3039819 -1.74609375 39.30078125 C-2.51301041 39.30506638 -3.27992706 39.3093515 -4.07008362 39.31376648 C-5.69327812 39.31951323 -7.31649838 39.32000749 -8.93969727 39.31567383 C-11.42443794 39.3125166 -13.90798502 39.33595754 -16.39257812 39.36132812 C-17.9687485 39.36360136 -19.54492207 39.3643045 -21.12109375 39.36328125 C-21.86491806 39.372491 -22.60874237 39.38170074 -23.37510681 39.39118958 C-26.1910918 39.36591716 -28.46101656 39.2875556 -30.97412109 37.94677734 C-32.58055254 34.89830415 -32.36657601 31.84613685 -32.29296875 28.48828125 C-32.28872391 27.76005661 -32.28447906 27.03183197 -32.28010559 26.28153992 C-32.26332733 23.95814873 -32.22567855 21.6356285 -32.1875 19.3125 C-32.17245197 17.73634066 -32.15876377 16.16016771 -32.14648438 14.58398438 C-32.11342685 10.72232123 -32.06165194 6.86130822 -32 3 C-31.67 3 -31.34 3 -31 3 C-31 12.24 -31 21.48 -31 31 C-17.42442021 29.84845978 -17.42442021 29.84845978 -7.125 22.25 C-1.65953369 15.39286403 -0.51131556 8.60420663 0 0 Z " fill="#575655" transform="translate(291,360)"/>
<path d="M0 0 C2.3431213 0.25561323 4.67843403 0.59270772 7 1 C8.52264109 4.04528219 8.16285537 7.22145246 8.16796875 10.5625 C8.17296135 11.68313843 8.17296135 11.68313843 8.17805481 12.82641602 C8.18311966 14.40673201 8.18546327 15.98705871 8.18530273 17.56738281 C8.18749134 19.99041243 8.20565701 22.41298836 8.22460938 24.8359375 C8.22754292 26.3697901 8.22952798 27.90364488 8.23046875 29.4375 C8.23765427 30.16461182 8.24483978 30.89172363 8.25224304 31.64086914 C8.22882803 36.77117197 8.22882803 36.77117197 6 39 C3.38236005 39.21193558 0.87315295 39.3039819 -1.74609375 39.30078125 C-2.51301041 39.30506638 -3.27992706 39.3093515 -4.07008362 39.31376648 C-5.69327812 39.31951323 -7.31649838 39.32000749 -8.93969727 39.31567383 C-11.42443794 39.3125166 -13.90798502 39.33595754 -16.39257812 39.36132812 C-17.9687485 39.36360136 -19.54492207 39.3643045 -21.12109375 39.36328125 C-21.86491806 39.372491 -22.60874237 39.38170074 -23.37510681 39.39118958 C-26.1910918 39.36591716 -28.46101656 39.2875556 -30.97412109 37.94677734 C-32.58055254 34.89830415 -32.36657601 31.84613685 -32.29296875 28.48828125 C-32.28872391 27.76005661 -32.28447906 27.03183197 -32.28010559 26.28153992 C-32.26332733 23.95814873 -32.22567855 21.6356285 -32.1875 19.3125 C-32.17245197 17.73634066 -32.15876377 16.16016771 -32.14648438 14.58398438 C-32.11342685 10.72232123 -32.06165194 6.86130822 -32 3 C-31.67 3 -31.34 3 -31 3 C-31 12.24 -31 21.48 -31 31 C-21.51256974 30.13750634 -15.33475615 29.56413283 -8.1875 23.6875 C-2.0164649 16.10594259 -1.0180676 9.65824658 0 0 Z " fill="#575655" transform="translate(291,274)"/>
<path d="M0 0 C2.3431213 0.25561323 4.67843403 0.59270772 7 1 C8.52264109 4.04528219 8.16285537 7.22145246 8.16796875 10.5625 C8.17296135 11.68313843 8.17296135 11.68313843 8.17805481 12.82641602 C8.18311966 14.40673201 8.18546327 15.98705871 8.18530273 17.56738281 C8.18749134 19.99041243 8.20565701 22.41298836 8.22460938 24.8359375 C8.22754292 26.3697901 8.22952798 27.90364488 8.23046875 29.4375 C8.23765427 30.16461182 8.24483978 30.89172363 8.25224304 31.64086914 C8.22882803 36.77117197 8.22882803 36.77117197 6 39 C3.29884093 39.21197014 0.70275462 39.30397679 -2 39.30078125 C-2.79148437 39.30506638 -3.58296875 39.3093515 -4.3984375 39.31376648 C-6.07290693 39.31951298 -7.74740132 39.32000768 -9.421875 39.31567383 C-11.99001412 39.31251229 -14.5570033 39.3359731 -17.125 39.36132812 C-18.74999854 39.36360086 -20.37500019 39.36430473 -22 39.36328125 C-22.77085937 39.372491 -23.54171875 39.38170074 -24.3359375 39.39118958 C-26.5 39.37231445 -26.5 39.37231445 -30 39 C-32.42869909 35.35695136 -32.25675675 32.69277661 -32.1953125 28.48828125 C-32.1924826 27.76005661 -32.18965271 27.03183197 -32.18673706 26.28153992 C-32.17555257 23.95835863 -32.15045166 21.63556453 -32.125 19.3125 C-32.11496794 17.7363337 -32.10584248 16.16016135 -32.09765625 14.58398438 C-32.07561896 10.72250733 -32.04110141 6.86131929 -32 3 C-31.67 3 -31.34 3 -31 3 C-31 12.24 -31 21.48 -31 31 C-17.8103152 30.03545886 -17.8103152 30.03545886 -7 23 C-1.44345665 16.31842813 -0.80071606 8.40154311 0 0 Z " fill="#575655" transform="translate(377,188)"/>
<path d="M0 0 C2.3431213 0.25561323 4.67843403 0.59270772 7 1 C8.52264109 4.04528219 8.16285537 7.22145246 8.16796875 10.5625 C8.17296135 11.68313843 8.17296135 11.68313843 8.17805481 12.82641602 C8.18311966 14.40673201 8.18546327 15.98705871 8.18530273 17.56738281 C8.18749134 19.99041243 8.20565701 22.41298836 8.22460938 24.8359375 C8.22754292 26.3697901 8.22952798 27.90364488 8.23046875 29.4375 C8.23765427 30.16461182 8.24483978 30.89172363 8.25224304 31.64086914 C8.22882803 36.77117197 8.22882803 36.77117197 6 39 C3.29884093 39.21197014 0.70275462 39.30397679 -2 39.30078125 C-2.79148437 39.30506638 -3.58296875 39.3093515 -4.3984375 39.31376648 C-6.07290693 39.31951298 -7.74740132 39.32000768 -9.421875 39.31567383 C-11.99001412 39.31251229 -14.5570033 39.3359731 -17.125 39.36132812 C-18.74999854 39.36360086 -20.37500019 39.36430473 -22 39.36328125 C-22.77085937 39.372491 -23.54171875 39.38170074 -24.3359375 39.39118958 C-26.5 39.37231445 -26.5 39.37231445 -30 39 C-32.42869909 35.35695136 -32.25675675 32.69277661 -32.1953125 28.48828125 C-32.1924826 27.76005661 -32.18965271 27.03183197 -32.18673706 26.28153992 C-32.17555257 23.95835863 -32.15045166 21.63556453 -32.125 19.3125 C-32.11496794 17.7363337 -32.10584248 16.16016135 -32.09765625 14.58398438 C-32.07561896 10.72250733 -32.04110141 6.86131929 -32 3 C-31.67 3 -31.34 3 -31 3 C-31 12.24 -31 21.48 -31 31 C-17.8103152 30.03545886 -17.8103152 30.03545886 -7 23 C-1.44345665 16.31842813 -0.80071606 8.40154311 0 0 Z " fill="#575655" transform="translate(291,188)"/>
<path d="M0 0 C2.875 -0.125 2.875 -0.125 6 0 C8.51704805 2.51704805 8.24669599 4.07672899 8.27789307 7.51159668 C8.2738446 8.26058228 8.26979614 9.00956787 8.265625 9.78125 C8.26849518 10.9351825 8.26849518 10.9351825 8.27142334 12.11242676 C8.27278508 13.7398308 8.26908939 15.3672457 8.26074219 16.99462891 C8.25004221 19.49015631 8.26063751 21.98496382 8.2734375 24.48046875 C8.2721159 26.05989743 8.2695535 27.63932566 8.265625 29.21875 C8.26967346 29.9677356 8.27372192 30.71672119 8.27789307 31.48840332 C8.22992243 36.77007757 8.22992243 36.77007757 6 39 C3.37059804 39.19965373 0.84879837 39.2798411 -1.78125 39.265625 C-2.55053833 39.26753845 -3.31982666 39.2694519 -4.11242676 39.27142334 C-5.7398308 39.27278508 -7.3672457 39.26908939 -8.99462891 39.26074219 C-11.49015631 39.25004221 -13.98496382 39.26063751 -16.48046875 39.2734375 C-18.05989743 39.2721159 -19.63932566 39.2695535 -21.21875 39.265625 C-21.9677356 39.26967346 -22.71672119 39.27372192 -23.48840332 39.27789307 C-28.77007757 39.22992243 -28.77007757 39.22992243 -31 37 C-31.125 33.875 -31.125 33.875 -31 31 C-30.31035156 30.97421875 -29.62070313 30.9484375 -28.91015625 30.921875 C-20.81741771 30.43342439 -14.52322648 28.89687511 -8.1875 23.6875 C-2.0164649 16.10594259 -1.0180676 9.65824658 0 0 Z " fill="#585756" transform="translate(205,360)"/>
<path d="M0 0 C6.875 0.875 6.875 0.875 8 2 C8.11332093 4.57019485 8.16417485 7.11251477 8.16796875 9.68359375 C8.17296135 10.83964867 8.17296135 10.83964867 8.17805481 12.01905823 C8.1831271 13.65242921 8.18546304 15.2858106 8.18530273 16.91918945 C8.1874878 19.42351299 8.20563595 21.92739521 8.22460938 24.43164062 C8.22754347 26.01562349 8.22952816 27.59960845 8.23046875 29.18359375 C8.23765427 29.9357164 8.24483978 30.68783905 8.25224304 31.4627533 C8.22882279 36.77117721 8.22882279 36.77117721 6 39 C3.37059804 39.19965373 0.84879837 39.2798411 -1.78125 39.265625 C-2.55053833 39.26753845 -3.31982666 39.2694519 -4.11242676 39.27142334 C-5.7398308 39.27278508 -7.3672457 39.26908939 -8.99462891 39.26074219 C-11.49015631 39.25004221 -13.98496382 39.26063751 -16.48046875 39.2734375 C-18.05989743 39.2721159 -19.63932566 39.2695535 -21.21875 39.265625 C-21.9677356 39.26967346 -22.71672119 39.27372192 -23.48840332 39.27789307 C-28.77007757 39.22992243 -28.77007757 39.22992243 -31 37 C-31.125 33.875 -31.125 33.875 -31 31 C-30.31035156 30.97421875 -29.62070313 30.9484375 -28.91015625 30.921875 C-20.81741771 30.43342439 -14.52322648 28.89687511 -8.1875 23.6875 C-2.0164649 16.10594259 -1.0180676 9.65824658 0 0 Z " fill="#585756" transform="translate(205,274)"/>
<path d="M0 0 C2.875 -0.125 2.875 -0.125 6 0 C8.51704805 2.51704805 8.24669599 4.07672899 8.27789307 7.51159668 C8.2738446 8.26058228 8.26979614 9.00956787 8.265625 9.78125 C8.26849518 10.9351825 8.26849518 10.9351825 8.27142334 12.11242676 C8.27278508 13.7398308 8.26908939 15.3672457 8.26074219 16.99462891 C8.25004221 19.49015631 8.26063751 21.98496382 8.2734375 24.48046875 C8.2721159 26.05989743 8.2695535 27.63932566 8.265625 29.21875 C8.26967346 29.9677356 8.27372192 30.71672119 8.27789307 31.48840332 C8.22992243 36.77007757 8.22992243 36.77007757 6 39 C3.37059804 39.19965373 0.84879837 39.2798411 -1.78125 39.265625 C-2.55053833 39.26753845 -3.31982666 39.2694519 -4.11242676 39.27142334 C-5.7398308 39.27278508 -7.3672457 39.26908939 -8.99462891 39.26074219 C-11.49015631 39.25004221 -13.98496382 39.26063751 -16.48046875 39.2734375 C-18.05989743 39.2721159 -19.63932566 39.2695535 -21.21875 39.265625 C-21.9677356 39.26967346 -22.71672119 39.27372192 -23.48840332 39.27789307 C-28.77007757 39.22992243 -28.77007757 39.22992243 -31 37 C-31.125 33.875 -31.125 33.875 -31 31 C-30.02160156 30.92523438 -29.04320313 30.85046875 -28.03515625 30.7734375 C-18.77479546 29.84466975 -11.67521581 28.62180272 -5.41796875 21.09765625 C-1.27486695 14.68599726 -0.71059262 7.45591962 0 0 Z " fill="#585756" transform="translate(119,360)"/>
<path d="M0 0 C6.875 0.875 6.875 0.875 8 2 C8.11332093 4.57019485 8.16417485 7.11251477 8.16796875 9.68359375 C8.17296135 10.83964867 8.17296135 10.83964867 8.17805481 12.01905823 C8.1831271 13.65242921 8.18546304 15.2858106 8.18530273 16.91918945 C8.1874878 19.42351299 8.20563595 21.92739521 8.22460938 24.43164062 C8.22754347 26.01562349 8.22952816 27.59960845 8.23046875 29.18359375 C8.23765427 29.9357164 8.24483978 30.68783905 8.25224304 31.4627533 C8.22882279 36.77117721 8.22882279 36.77117721 6 39 C3.37059804 39.19965373 0.84879837 39.2798411 -1.78125 39.265625 C-2.55053833 39.26753845 -3.31982666 39.2694519 -4.11242676 39.27142334 C-5.7398308 39.27278508 -7.3672457 39.26908939 -8.99462891 39.26074219 C-11.49015631 39.25004221 -13.98496382 39.26063751 -16.48046875 39.2734375 C-18.05989743 39.2721159 -19.63932566 39.2695535 -21.21875 39.265625 C-21.9677356 39.26967346 -22.71672119 39.27372192 -23.48840332 39.27789307 C-28.77007757 39.22992243 -28.77007757 39.22992243 -31 37 C-31.125 33.875 -31.125 33.875 -31 31 C-30.02160156 30.92523438 -29.04320313 30.85046875 -28.03515625 30.7734375 C-19.87298145 29.9548123 -13.0049163 29.16088816 -7 23 C-3.05092115 17.41024105 -0.9989313 12.12988004 -0.4375 5.3125 C-0.35371094 4.31863281 -0.26992187 3.32476562 -0.18359375 2.30078125 C-0.09271484 1.16189453 -0.09271484 1.16189453 0 0 Z " fill="#585756" transform="translate(119,274)"/>
<path d="M0 0 C2.3431213 0.25561323 4.67843403 0.59270772 7 1 C8.52264109 4.04528219 8.16285537 7.22145246 8.16796875 10.5625 C8.17296135 11.68313843 8.17296135 11.68313843 8.17805481 12.82641602 C8.18311966 14.40673201 8.18546327 15.98705871 8.18530273 17.56738281 C8.18749134 19.99041243 8.20565701 22.41298836 8.22460938 24.8359375 C8.22754292 26.3697901 8.22952798 27.90364488 8.23046875 29.4375 C8.23765427 30.16461182 8.24483978 30.89172363 8.25224304 31.64086914 C8.22882803 36.77117197 8.22882803 36.77117197 6 39 C3.37059804 39.19965373 0.84879837 39.2798411 -1.78125 39.265625 C-2.55053833 39.26753845 -3.31982666 39.2694519 -4.11242676 39.27142334 C-5.7398308 39.27278508 -7.3672457 39.26908939 -8.99462891 39.26074219 C-11.49015631 39.25004221 -13.98496382 39.26063751 -16.48046875 39.2734375 C-18.05989743 39.2721159 -19.63932566 39.2695535 -21.21875 39.265625 C-21.9677356 39.26967346 -22.71672119 39.27372192 -23.48840332 39.27789307 C-28.77007757 39.22992243 -28.77007757 39.22992243 -31 37 C-31.125 33.875 -31.125 33.875 -31 31 C-29.87464844 30.97873047 -29.87464844 30.97873047 -28.7265625 30.95703125 C-20.36910278 30.56757784 -13.29166887 29.16701459 -7.1171875 23.171875 C-1.4639601 16.23506457 -0.76099541 8.65131621 0 0 Z " fill="#585756" transform="translate(205,188)"/>
<path d="M0 0 C1.98814521 1.52005862 2.88021378 2.41591075 3.38768005 4.8903656 C3.39308304 5.59999954 3.39848602 6.30963348 3.40405273 7.04077148 C3.41673691 7.84848495 3.42942108 8.65619843 3.44248962 9.48838806 C3.43808617 10.79157738 3.43808617 10.79157738 3.43359375 12.12109375 C3.4388356 13.01740005 3.44407745 13.91370636 3.44947815 14.83717346 C3.4559011 16.73266565 3.45455781 18.62819769 3.44604492 20.52368164 C3.43754131 23.42341176 3.46628127 26.32116803 3.49804688 29.22070312 C3.49965914 31.06249941 3.49908087 32.90429918 3.49609375 34.74609375 C3.50732773 35.6128624 3.51856171 36.47963104 3.53013611 37.37266541 C3.46096596 43.35155779 3.46096596 43.35155779 1.16430664 46.58227539 C-1 48 -1 48 -4.125 47.9375 C-7 47 -7 47 -9 44 C-9.26069641 42.10290527 -9.26069641 42.10290527 -9.2746582 39.94335938 C-9.28419022 39.13241821 -9.29372223 38.32147705 -9.30354309 37.48596191 C-9.30263168 36.61403198 -9.30172028 35.74210205 -9.30078125 34.84375 C-9.30506638 33.94507202 -9.3093515 33.04639404 -9.31376648 32.1204834 C-9.31950843 30.22079308 -9.32001103 28.32108077 -9.31567383 26.42138672 C-9.31251196 23.51101319 -9.33598096 20.60165421 -9.36132812 17.69140625 C-9.3636009 15.84635545 -9.36430472 14.00130191 -9.36328125 12.15625 C-9.372491 11.28432007 -9.38170074 10.41239014 -9.39118958 9.51403809 C-9.38496078 8.70309692 -9.37873199 7.89215576 -9.37231445 7.05664062 C-9.37294388 6.34399048 -9.3735733 5.63134033 -9.3742218 4.89709473 C-8.36096574 -0.23954541 -4.59043621 -0.57380453 0 0 Z " fill="#FBFDFE" transform="translate(65,202)"/>
<path d="M0 0 C4.29 0 8.58 0 13 0 C13 10.56 13 21.12 13 32 C8.71 31.67 4.42 31.34 0 31 C0 20.77 0 10.54 0 0 Z " fill="#F94747" transform="translate(381,66)"/>
<path d="M0 0 C3.375 0.3125 3.375 0.3125 7 1 C9.69469307 5.04203961 9.53918165 8.25862489 9 13 C7.875 15.5625 7.875 15.5625 6 17 C2.87280415 17.45604939 0.94461247 17.69182885 -1.6640625 15.78125 C-3.42083888 13.43888149 -3.40121145 11.96760287 -3.375 9.0625 C-3.38273437 8.20785156 -3.39046875 7.35320312 -3.3984375 6.47265625 C-2.9319174 3.5774874 -1.91238222 2.18052047 0 0 Z " fill="#FBFDFE" transform="translate(59,173)"/>
</svg>
