<?xml version="1.0" encoding="UTF-8"?>
<svg version="1.1" xmlns="http://www.w3.org/2000/svg" width="512" height="512">
<path d="M0 0 C1.94132813 -0.04253906 1.94132813 -0.04253906 3.921875 -0.0859375 C14.44107291 0.55550704 23.81061488 6.62665987 32.75 11.6875 C34.02478293 12.40110466 35.30002022 13.11389819 36.57568359 13.82592773 C39.19300997 15.28817577 41.80792366 16.75459989 44.42089844 18.22460938 C49.12023717 20.86674844 53.83517235 23.4803692 58.55029297 26.09423828 C65.23219652 29.79877432 71.90725781 33.51563637 78.58398438 37.22949219 C91.29458597 44.29878816 104.01268306 51.35397345 116.75 58.375 C129.48445308 65.39444794 142.19957161 72.44824725 154.90722656 79.51611328 C160.52046138 82.63758348 166.13529721 85.75617131 171.75 88.875 C178.47734574 92.61187437 185.20438199 96.3492985 191.9296875 100.08984375 C194.1614199 101.3307983 196.39319074 102.57168371 198.625 103.8125 C199.72271729 104.42287109 200.82043457 105.03324219 201.95141602 105.66210938 C207.95211881 108.99607559 213.95849722 112.31929319 219.97265625 115.62890625 C220.6186377 115.98456161 221.26461914 116.34021698 221.93017578 116.70664978 C225.0381453 118.41765663 228.14691996 120.12716344 231.25732422 121.83374023 C236.83153716 124.9004709 242.38928119 127.99436208 247.91015625 131.15625 C248.86672119 131.70345703 249.82328613 132.25066406 250.80883789 132.81445312 C254.96821449 135.47339254 254.96821449 135.47339254 256.25 137.375 C256.57317227 139.98762232 256.7180171 142.35739469 256.71875 144.97265625 C256.72636353 145.72155624 256.73397705 146.47045624 256.74182129 147.24205017 C256.75262721 148.82987136 256.75547336 150.41776365 256.75097656 152.00561523 C256.75001289 154.40538839 256.79143727 156.80186781 256.8359375 159.20117188 C256.91752319 169.47587753 255.78585822 176.70945634 249.1796875 184.9609375 C242.68510587 190.61591542 236.00735687 194.18807046 227.2734375 194.53125 C223.86747627 194.929047 222.42554008 195.78048399 220.23046875 198.41015625 C219.27466243 199.73504956 218.34476065 201.07890288 217.4375 202.4375 C216.93613525 203.14616211 216.43477051 203.85482422 215.91821289 204.58496094 C214.33730607 206.83215128 212.79254215 209.10134706 211.25 211.375 C210.21508255 212.86955775 209.17864725 214.36306571 208.140625 215.85546875 C205.87411433 219.12376022 203.63165459 222.40717729 201.40991211 225.70605469 C200.25 227.375 200.25 227.375 198.70552063 229.02302456 C196.74086868 232.19770518 196.80243788 235.05244562 196.80175781 238.67555237 C196.78415437 239.78150541 196.78415437 239.78150541 196.7661953 240.90980095 C196.73079808 243.38205627 196.71688032 245.85395236 196.703125 248.32641602 C196.68268781 250.09912392 196.66112471 251.87181915 196.63851929 253.64450073 C196.57023161 259.47253392 196.53416306 265.30058953 196.5 271.12890625 C196.48653955 273.14059994 196.4729281 275.15229263 196.45916748 277.1639843 C196.40377893 285.5425505 196.35610765 293.92109251 196.33004761 302.29980564 C196.29278014 314.27228632 196.21119604 326.24247216 196.06491852 338.21413475 C195.96543167 346.64842303 195.91670185 355.08210758 195.90483856 363.51696914 C195.89653227 368.54481313 195.86720306 373.57032947 195.78381348 378.59753609 C194.50840256 406.1914076 194.50840256 406.1914076 206.84423828 429.85020447 C207.40655151 430.41906309 207.96886475 430.98792171 208.54821777 431.57401848 C211.55424179 434.75526789 213.97596864 438.37185296 216.5 441.9375 C217.39850626 443.14901989 218.299336 444.35882214 219.203125 445.56640625 C221.25 448.375 221.25 448.375 222.25 450.375 C223.44496094 450.41238281 224.63992188 450.44976562 225.87109375 450.48828125 C245.85509603 451.24849655 245.85509603 451.24849655 251.078125 456.05859375 C255.69433614 461.24643852 256.4247079 464.76920435 256.48828125 471.671875 C256.496353 472.49826477 256.50442474 473.32465454 256.51274109 474.17608643 C256.52658371 475.92791648 256.53730507 477.67977352 256.54516602 479.43164062 C256.56234417 482.10078696 256.60622289 484.76868331 256.65039062 487.4375 C256.66052082 489.1406159 256.6690359 490.84374233 256.67578125 492.546875 C256.69328934 493.34083679 256.71079742 494.13479858 256.72883606 494.95281982 C256.70833587 500.23544693 255.71373125 503.16572824 252.25 507.375 C247.03660407 512.07977194 243.08111828 512.52199802 236.27633953 512.50642776 C235.03795406 512.50950672 235.03795406 512.50950672 233.77455071 512.51264787 C230.98410042 512.5183413 228.19369912 512.51685774 225.40324402 512.51544189 C223.39202785 512.51802418 221.38081219 512.52103696 219.36959726 512.5244453 C213.82398841 512.53253448 208.27839248 512.53430593 202.73277843 512.53504276 C196.75924192 512.53688998 190.78571218 512.54443559 184.81217957 512.55117798 C171.06031924 512.56548443 157.30846069 512.57128945 143.55659474 512.57586992 C136.76315921 512.57820484 129.96972453 512.58180736 123.17628965 512.5855653 C99.92838807 512.59840116 76.68048696 512.60912066 53.4325819 512.6125679 C51.97290558 512.61278954 50.51322926 512.61301132 49.05355294 512.61323325 C47.59032308 512.61345389 46.12709322 512.61367438 44.66386336 512.6138947 C41.72830148 512.61433726 38.79273961 512.61478437 35.85717773 512.61523438 C35.12932771 512.61534377 34.40147769 512.61545316 33.65157161 512.61556586 C10.04466228 512.61919746 -13.56221636 512.63512121 -37.16911393 512.65842474 C-62.11921028 512.68300925 -87.06928909 512.69674008 -112.01939791 512.69793582 C-114.7571762 512.69810728 -117.49495449 512.69832271 -120.23273277 512.69857025 C-120.90686617 512.69862602 -121.58099956 512.69868179 -122.27556124 512.69873925 C-133.13374656 512.69989085 -143.99190044 512.7109221 -154.85007514 512.72545731 C-165.7595251 512.73980887 -176.66893274 512.74281394 -187.57838944 512.73501733 C-193.49094623 512.73110019 -199.40339699 512.7320922 -205.31594086 512.74607468 C-210.72498355 512.75874981 -216.13383985 512.75767255 -221.54288205 512.74548396 C-223.50318402 512.74351585 -225.46349891 512.7466564 -227.42378268 512.75532833 C-230.08235563 512.76634786 -232.74026226 512.7589847 -235.39881611 512.7469368 C-236.16511706 512.75453199 -236.93141801 512.76212718 -237.7209402 512.76995254 C-243.16741419 512.71643697 -247.3565386 511.60927632 -251.39453125 507.83984375 C-255.3997669 502.6022279 -255.92856217 499.56230629 -255.98828125 493.078125 C-256.00038887 491.83854034 -256.00038887 491.83854034 -256.01274109 490.57391357 C-256.02658371 488.82208352 -256.03730507 487.07022648 -256.04516602 485.31835938 C-256.06234417 482.64921304 -256.10622289 479.98131669 -256.15039062 477.3125 C-256.16052082 475.6093841 -256.1690359 473.90625767 -256.17578125 472.203125 C-256.19328934 471.40916321 -256.21079742 470.61520142 -256.22883606 469.79718018 C-256.20832372 464.51142163 -255.20237246 461.59505274 -251.75 457.375 C-247.74405952 453.47732818 -243.38044127 451.36476018 -237.67260742 451.38085938 C-236.96080322 451.42791016 -236.24899902 451.47496094 -235.515625 451.5234375 C-227.34435808 452.15499668 -227.34435808 452.15499668 -220.05810547 449.05615234 C-216.80660753 445.35915485 -214.5144782 441.0683451 -212.15087891 436.77294922 C-209.63027094 432.45830797 -206.60016601 428.50813651 -203.625 424.5 C-202.51569057 422.98362469 -201.40872022 421.46553394 -200.3046875 419.9453125 C-199.83530762 419.30352051 -199.36592773 418.66172852 -198.88232422 418.00048828 C-196.44339796 414.49933024 -196.57773084 411.44106625 -196.54226685 407.30822754 C-196.53224007 406.57192879 -196.52221328 405.83563004 -196.51188266 405.07701921 C-196.47965877 402.59630204 -196.45480887 400.11556903 -196.43017578 397.63476562 C-196.40918486 395.86074024 -196.38793854 394.08671786 -196.36645508 392.31269836 C-196.17814201 376.06330577 -196.07573543 359.81288564 -195.99431038 343.56264496 C-195.93289047 331.56207888 -195.82964515 319.56340331 -195.67161572 307.56371355 C-195.5641371 299.11594852 -195.50719137 290.66869951 -195.48617923 282.22028303 C-195.47217492 277.18173347 -195.43625708 272.14565539 -195.344944 267.10786438 C-193.88124638 240.88691548 -193.88124638 240.88691548 -204.8526783 218.12515259 C-205.95813714 217.00339788 -207.08581293 215.90287793 -208.23965836 214.83095741 C-210.38162063 212.7661227 -211.9749213 210.40817806 -213.609375 207.93359375 C-214.104375 207.22912109 -214.599375 206.52464844 -215.109375 205.79882812 C-215.79773438 204.8155957 -215.79773438 204.8155957 -216.5 203.8125 C-219.39463651 199.3999164 -219.39463651 199.3999164 -222.75 195.375 C-224.76684039 195.07587977 -226.78881183 194.81110463 -228.8125 194.5625 C-238.40556983 193.11567635 -244.58594844 189.92087709 -250.75 182.375 C-256.46448461 174.41818608 -256.55919299 166.35811463 -256.45678711 156.94165039 C-256.43738454 154.54825707 -256.47721993 152.16054834 -256.52148438 149.76757812 C-256.52177446 148.23437157 -256.51864147 146.7011597 -256.51171875 145.16796875 C-256.53464241 144.10536079 -256.53464241 144.10536079 -256.55802917 143.02128601 C-256.46313271 138.9794276 -255.90075602 137.53103611 -253.05932617 134.59008789 C-250.10001766 132.60928331 -247.18884573 130.79807035 -244.0390625 129.140625 C-242.96793213 128.57158447 -241.89680176 128.00254395 -240.79321289 127.41625977 C-239.66520264 126.82514404 -238.53719238 126.23402832 -237.375 125.625 C-235.59782584 124.68293123 -233.8221401 123.73810025 -232.04658508 122.79298401 C-230.31312687 121.87035603 -228.57869025 120.94956705 -226.84423828 120.02880859 C-223.13789497 118.04784208 -219.46578036 116.0143132 -215.8125 113.9375 C-208.87590236 110.0021984 -201.91064572 106.12019197 -194.9375 102.25 C-193.79289307 101.61465332 -192.64828613 100.97930664 -191.46899414 100.32470703 C-189.70180712 99.34382003 -187.9345949 98.36297856 -186.16731262 97.38226318 C-181.90849809 95.01875346 -177.65119069 92.65254474 -173.39453125 90.28515625 C-171.59243002 89.28311939 -169.79031149 88.28111365 -167.9881897 87.27911377 C-166.30732791 86.34438026 -164.62668257 85.40925754 -162.94604492 84.47412109 C-160.87640792 83.32363091 -158.80462904 82.1769832 -156.73046875 81.03466797 C-154.72047038 79.91540446 -152.72312158 78.77315735 -150.73828125 77.60986328 C-149.78308594 77.05927246 -148.82789063 76.50868164 -147.84375 75.94140625 C-146.58594727 75.1999939 -146.58594727 75.1999939 -145.30273438 74.44360352 C-142.22991817 73.15728786 -140.05273376 73.04646905 -136.75 73.375 C-135.265 74.365 -135.265 74.365 -133.75 75.375 C-130.13249057 75.01324906 -127.23790608 73.08710818 -124.125 71.3125 C-118.96882353 68.375 -118.96882353 68.375 -116.75 68.375 C-116.8325 67.323125 -116.915 66.27125 -117 65.1875 C-116.7040032 60.67354884 -115.79533697 59.60639269 -112.75 56.375 C-110.27416992 54.72851562 -110.27416992 54.72851562 -107.48046875 53.28125 C-106.43914795 52.73291504 -105.39782715 52.18458008 -104.32495117 51.61962891 C-102.64816284 50.7560376 -102.64816284 50.7560376 -100.9375 49.875 C-98.56139928 48.62442067 -96.18641561 47.37189195 -93.8125 46.1171875 C-93.21330246 45.8018808 -92.61410492 45.4865741 -91.99674988 45.16171265 C-86.41322385 42.21749671 -80.91845057 39.12987782 -75.4375 36 C-63.65486974 29.2927734 -51.78760104 22.74473105 -39.90473938 16.21740723 C-36.16132335 14.15873419 -32.43060624 12.07869138 -28.70703125 9.984375 C-27.79719482 9.47535645 -26.8873584 8.96633789 -25.94995117 8.44189453 C-24.29712345 7.51636115 -22.64726287 6.58549746 -21.0012207 5.64794922 C-14.09919406 1.79817075 -7.98106109 0.07886424 0 0 Z M-104.60274065 208.44499981 C-106.17153353 211.08413328 -107.94354479 213.56382866 -109.73046875 216.05859375 C-110.80337707 217.64059262 -111.87257847 219.22511384 -112.9375 220.8125 C-114.0342991 222.43677704 -115.13190829 224.06050747 -116.23046875 225.68359375 C-116.69348389 226.37251709 -117.15649902 227.06144043 -117.63354492 227.77124023 C-118.75 229.375 -118.75 229.375 -119.75 230.375 C-119.87641266 232.72236944 -119.93786165 235.04155461 -119.95773315 237.39071655 C-119.96775993 238.13362241 -119.97778672 238.87652828 -119.98811734 239.64194643 C-120.020404 242.15107484 -120.0452148 244.6602189 -120.06982422 247.16943359 C-120.09081013 248.96139317 -120.11205646 250.75334972 -120.13354492 252.54530334 C-120.32203121 268.97481793 -120.4243009 285.40535911 -120.50568962 301.83571434 C-120.56708294 313.96997992 -120.67026742 326.10237291 -120.82838428 338.23577058 C-120.93590099 346.77609972 -120.99281568 355.31591826 -121.01382077 363.85689223 C-121.02782078 368.95080988 -121.06370492 374.04228175 -121.155056 379.13544846 C-122.63107551 406.52716382 -122.63107551 406.52716382 -110.71975708 430.0453186 C-110.10779134 430.65111 -109.4958256 431.2569014 -108.86531544 431.88105011 C-107.00496332 434.0743991 -105.70061208 436.08532942 -104.27868938 438.56432343 C-99.20317154 447.68612772 -99.20317154 447.68612772 -90.67279434 452.96641731 C-85.84531625 453.80140612 -81.03416588 453.70027421 -76.15258789 453.60644531 C-74.29990083 453.63280426 -72.44730427 453.66634152 -70.59486389 453.70645142 C-65.59300555 453.79204609 -60.59702543 453.77084697 -55.59485555 453.72439671 C-51.40734182 453.69586696 -47.22086831 453.72148507 -43.03339094 453.74724078 C-33.14861022 453.80769876 -23.26663944 453.78283341 -13.38208008 453.70117188 C-3.21070817 453.61835458 6.95398468 453.66587562 17.12490267 453.78005528 C25.88335269 453.87453196 34.63976476 453.89451903 43.39863211 453.8540771 C48.61874974 453.83027919 53.83530172 453.83236795 59.05506706 453.90348053 C81.20735969 455.4490006 81.20735969 455.4490006 100.51799011 447.25260925 C103.53669041 443.36822249 105.43732615 439.31793716 107.16952705 434.73827362 C109.00183738 430.73053731 112.00331545 427.81976892 114.99609375 424.64453125 C123.47641463 413.77250944 121.70753673 399.23483026 121.3626709 386.16357422 C121.24577936 381.26834998 121.22076786 376.37169285 121.19200134 371.47529602 C121.17115595 368.88078834 121.12976828 366.28634463 121.06544495 363.69255066 C121.04650681 362.52645767 121.02756866 361.36036469 121.00805664 360.15893555 C120.98296524 359.13543503 120.95787384 358.11193451 120.93202209 357.05741882 C121.30144208 353.94104154 122.09221759 352.61765373 124.25 350.375 C126.4375 349.625 126.4375 349.625 128.25 349.375 C128.4246397 346.29238544 128.53094067 343.21104167 128.625 340.125 C128.67527344 339.25230469 128.72554687 338.37960937 128.77734375 337.48046875 C128.8346538 334.97793001 128.81970621 332.8146564 128.25 330.375 C125.43194336 327.81431383 125.43194336 327.81431383 122.25 326.375 C120.60229394 323.07958789 121.1880683 319.42226898 121.25097656 315.8046875 C121.27375316 313.9625717 121.29596304 312.12044882 121.31768799 310.27832031 C121.33686153 308.80667419 121.33686153 308.80667419 121.35642242 307.30529785 C121.42705752 300.99550247 121.43325912 294.68524898 121.45027542 288.37512207 C121.46883353 282.84387781 121.51023868 277.3147131 121.60302734 271.78417969 C121.69165756 266.42533433 121.71506532 261.06952763 121.69664764 255.71002197 C121.70090646 253.68164189 121.72774726 251.6531611 121.7791214 249.62542725 C122.14548794 234.40657623 118.74362268 225.6651532 108.75794983 214.14466286 C106.80342758 211.85092247 105.08765398 209.42172028 103.390625 206.93359375 C102.895625 206.22912109 102.400625 205.52464844 101.890625 204.79882812 C101.43171875 204.14333984 100.9728125 203.48785156 100.5 202.8125 C97.60536349 198.3999164 97.60536349 198.3999164 94.25 194.375 C91.84935434 194.24190669 89.47598995 194.17376492 87.07328796 194.14707947 C86.31319248 194.13493599 85.55309701 194.12279251 84.76996833 194.11028105 C82.20305669 194.07092756 79.6361105 194.03911551 77.0690918 194.00756836 C75.23621826 193.98167598 73.40334782 193.95556305 71.57048035 193.929245 C54.79886556 193.69789554 38.02598192 193.56775225 21.25314617 193.46387386 C9.97527335 193.3924584 -1.30065113 193.29093388 -12.57739258 193.11303711 C-22.41278217 192.95788936 -32.24681655 192.85935755 -42.08341283 192.82891375 C-47.28884744 192.81095951 -52.49065593 192.7655653 -57.69497108 192.65275383 C-62.6005937 192.54747566 -67.50091586 192.51877305 -72.40752983 192.54698372 C-74.20075583 192.54419448 -75.99419249 192.5142992 -77.7864151 192.45425415 C-91.97706167 192.00318211 -97.46117001 196.30705264 -104.60274065 208.44499981 Z " fill="#000101" transform="translate(255.75,-0.375)"/>
<path d="M0 0 C4.37518984 2.06016812 8.58500072 4.42956189 12.8125 6.7734375 C14.98925947 7.96283248 17.16636961 9.15158584 19.34375 10.33984375 C26.23247744 14.10934713 33.09660399 17.92264368 39.95794678 21.74169922 C42.88341864 23.3692186 45.81092112 24.99306679 48.73828125 26.6171875 C54.31710734 29.7132963 59.89377686 32.81326532 65.46972656 35.91455078 C71.08296138 39.03602098 76.69779721 42.15460881 82.3125 45.2734375 C89.03984574 49.01031187 95.76688199 52.747736 102.4921875 56.48828125 C114.69766867 63.27544134 126.91405337 70.04222158 139.1449585 76.78341675 C148.9740916 82.20121814 158.79115036 87.64033581 168.59570312 93.10253906 C174.66523998 96.48106887 180.74665963 99.83559899 186.84375 103.1640625 C188.84837358 104.26087953 190.85279969 105.35805662 192.85717773 106.45532227 C194.14991919 107.1614958 195.44368708 107.86579388 196.73852539 108.56811523 C198.5365629 109.54342929 200.33106115 110.52498545 202.125 111.5078125 C203.15238281 112.06694336 204.17976563 112.62607422 205.23828125 113.20214844 C207.8125 114.7734375 207.8125 114.7734375 210.8125 117.7734375 C66.2725 117.7734375 -78.2675 117.7734375 -227.1875 117.7734375 C-224.36561872 114.95155622 -222.24786416 113.57260516 -218.76953125 111.734375 C-217.68873291 111.15888916 -216.60793457 110.58340332 -215.49438477 109.99047852 C-214.34123779 109.38260498 -213.18809082 108.77473145 -212 108.1484375 C-209.60798275 106.87630461 -207.21811281 105.60015934 -204.828125 104.32421875 C-203.67376953 103.70885254 -202.51941406 103.09348633 -201.33007812 102.45947266 C-197.61009614 100.46365262 -193.92032301 98.42135985 -190.25 96.3359375 C-181.87799848 91.58138268 -173.45412495 86.92092465 -165.02758789 82.26391602 C-161.74203644 80.44343532 -158.46314023 78.61168671 -155.1875 76.7734375 C-153.49077148 75.82645996 -153.49077148 75.82645996 -151.75976562 74.86035156 C-150.67888672 74.24643555 -149.59800781 73.63251953 -148.484375 73 C-147.51338867 72.45166504 -146.54240234 71.90333008 -145.54199219 71.33837891 C-142.94840587 69.83285173 -142.94840587 69.83285173 -141.1875 66.7734375 C-141.10844936 64.44144362 -141.09951231 62.10511128 -141.1875 59.7734375 C-138.56535672 58.26824363 -135.94005792 56.76912431 -133.3125 55.2734375 C-132.56613281 54.84417969 -131.81976563 54.41492188 -131.05078125 53.97265625 C-129.97763672 53.36357422 -129.97763672 53.36357422 -128.8828125 52.7421875 C-127.8930542 52.17661133 -127.8930542 52.17661133 -126.88330078 51.59960938 C-125.1875 50.7734375 -125.1875 50.7734375 -123.1875 50.7734375 C-122.775 51.2684375 -122.3625 51.7634375 -121.9375 52.2734375 C-120.21825778 54.0394768 -120.21825778 54.0394768 -117.41967773 54.0300293 C-113.83800414 53.74569219 -111.85209701 52.897695 -108.72265625 51.16796875 C-107.68737793 50.60327881 -106.65209961 50.03858887 -105.58544922 49.45678711 C-104.48475098 48.83940674 -103.38405273 48.22202637 -102.25 47.5859375 C-101.09773926 46.95244385 -99.94547852 46.3189502 -98.75830078 45.66625977 C-90.3758432 41.05227521 -82.04958632 36.33511381 -73.73461914 31.60083008 C-65.95335647 27.1766896 -58.0929728 22.91054633 -50.20922852 18.67236328 C-41.92970773 14.20857444 -33.73927356 9.59685292 -25.58398438 4.91015625 C-24.23723633 4.14058594 -24.23723633 4.14058594 -22.86328125 3.35546875 C-22.07864502 2.90405518 -21.29400879 2.4526416 -20.4855957 1.98754883 C-13.45506556 -1.72676398 -7.59792489 -2.92371129 0 0 Z " fill="#ADE59B" transform="translate(264.1875,16.2265625)"/>
<path d="M0 0 C22.357376 -0.73302872 44.53659899 6.75440981 61.109375 21.90625 C76.46060602 36.48189223 88.23443811 55.27846024 89.59887695 76.97021484 C90.19048792 104.93856418 84.42889342 127.74146814 64.94921875 148.6796875 C47.48390264 165.79407763 25.07255334 173.41494754 0.95336914 173.4050293 C-22.1305339 173.14083312 -43.27758933 163.36259317 -59.578125 147.15625 C-77.93230933 127.59913534 -83.50001873 103.45844824 -82.75732422 77.32373047 C-82.37474491 70.56135444 -80.84261869 64.5392916 -78.578125 58.15625 C-78.165625 56.97289062 -77.753125 55.78953125 -77.328125 54.5703125 C-68.48751615 31.81579086 -50.60400683 15.86981714 -28.65820312 6.01367188 C-19.47908464 2.2299789 -9.85223853 0.59710537 0 0 Z " fill="#FCDE77" transform="translate(252.578125,235.84375)"/>
<path d="M0 0 C159.06 0 318.12 0 482 0 C482 20.90909091 482 20.90909091 476.625 27.75 C472.08413862 31.24297029 466.6342695 31.28821782 461.14133453 31.25447559 C459.97626614 31.25928531 459.97626614 31.25928531 458.78766102 31.26419219 C456.18148567 31.27250249 453.57553952 31.26656432 450.96936035 31.26069641 C449.08342287 31.26371661 447.19748661 31.26760544 445.31155252 31.27228898 C440.12615203 31.28259443 434.94082047 31.28038068 429.75541425 31.27610838 C424.16434303 31.27364582 418.57328861 31.28264943 412.98222351 31.29014587 C402.0281379 31.30290748 391.07407678 31.30468478 380.11998498 31.30234561 C371.21905073 31.3005641 362.31812392 31.30230849 353.41719055 31.30657005 C352.15139574 31.30716524 350.88560093 31.30776043 349.5814487 31.30837366 C347.01018329 31.30958538 344.43891788 31.31079951 341.86765248 31.31201603 C324.5990615 31.31980526 307.3304741 31.32372092 290.06188202 31.31969929 C289.38656229 31.31954291 288.71124255 31.31938654 288.01545859 31.31922542 C284.59262829 31.31841963 281.16979801 31.31757386 277.74696773 31.31671212 C277.06717553 31.31654103 276.38738332 31.31636994 275.68699136 31.31619367 C274.31228706 31.31584702 272.93758276 31.31549849 271.56287847 31.31514808 C250.16673992 31.30978945 228.77064258 31.31772526 207.37451172 31.33618164 C183.33919196 31.35689028 159.30390121 31.36759553 135.26856947 31.36360615 C122.54087339 31.36169115 109.81321486 31.36421081 97.08552551 31.37832069 C86.25177522 31.39020922 75.41808558 31.39166778 64.58433449 31.37953053 C59.05453241 31.37362435 53.52484142 31.37259033 47.99504662 31.38453293 C42.93584436 31.39533247 37.87684675 31.39235943 32.81765431 31.37827124 C30.98463013 31.37560792 29.15159021 31.37804173 27.3185814 31.38600711 C24.83169376 31.39606629 22.34552391 31.38773164 19.85866547 31.37473011 C19.14295677 31.38203946 18.42724807 31.3893488 17.68985122 31.39687964 C12.39474158 31.33929129 8.27251452 30.12137341 4.35546875 26.46484375 C-3.01991562 16.82011034 0 17.79057089 0 0 Z " fill="#3C6C92" transform="translate(15,148)"/>
<path d="M0 0 C0.76717295 0.00234117 1.5343459 0.00468233 2.32476652 0.00709444 C3.13604013 0.005641 3.94731375 0.00418756 4.78317142 0.00269008 C7.53691776 -0.00099691 10.29060969 0.0025289 13.04435575 0.00595194 C15.02441058 0.00480119 17.0044652 0.00321397 18.98451936 0.0012247 C24.45309057 -0.0029749 29.92164446 -0.00087511 35.39021575 0.00221092 C41.27711741 0.00446225 47.16401598 0.00098674 53.05091703 -0.00176901 C63.92604126 -0.00597043 74.80115949 -0.00558977 85.67628404 -0.00285754 C95.72134866 -0.00034611 105.76641124 0.00031665 115.81147611 -0.00088018 C116.4767087 -0.00095657 117.14194129 -0.00103295 117.82733244 -0.00111165 C120.5274446 -0.00142297 123.22755675 -0.00174137 125.9276689 -0.00207142 C151.278404 -0.00513329 176.62913555 -0.0023524 201.9798701 0.00302548 C224.52309573 0.0077714 247.06631571 0.00734679 269.6095413 0.00256449 C294.91267424 -0.0027853 320.21580404 -0.00491618 345.51893747 -0.00182325 C348.21424901 -0.00150251 350.90956056 -0.00118967 353.60487211 -0.00088018 C354.26857041 -0.0008011 354.93226872 -0.00072203 355.6160791 -0.00064055 C365.65704237 0.00049892 375.69800339 -0.00083708 385.73896635 -0.00335974 C397.15120869 -0.00615691 408.56344416 -0.00542124 419.97568572 -0.00007899 C425.80453738 0.00255915 431.63337754 0.00356119 437.46222913 0.00027186 C442.78900034 -0.00268881 448.1157493 -0.00110217 453.44251847 0.00424941 C455.37856334 0.00537459 457.31461005 0.00478022 459.25065374 0.00237362 C461.86432386 -0.00062826 464.47791581 0.00241192 467.0915817 0.00709444 C467.85875465 0.00475328 468.6259276 0.00241211 469.41634822 0 C474.59402377 0.01878524 474.59402377 0.01878524 475.70817411 1.13293558 C475.80810943 3.19348869 475.83898317 5.25746148 475.84098661 7.32043558 C475.84227567 8.57598246 475.84356473 9.83152933 475.84489286 11.12512308 C475.84279813 11.78222269 475.84070341 12.4393223 475.8385452 13.11633402 C475.83319645 15.12454893 475.83849102 17.13254017 475.84489286 19.14074808 C475.84295927 21.0240684 475.84295927 21.0240684 475.84098661 22.94543558 C475.83985868 24.1068809 475.83873075 25.26832621 475.83756864 26.46496683 C475.70817411 29.13293558 475.70817411 29.13293558 474.70817411 30.13293558 C472.16047114 30.2327076 469.63982985 30.26655316 467.0915817 30.25877672 C465.87467128 30.26095689 465.87467128 30.26095689 464.6331768 30.26318109 C461.87943045 30.26686808 459.12573853 30.26334227 456.37199247 30.25991923 C454.39193764 30.26106998 452.41188302 30.26265719 450.43182886 30.26464647 C444.96325765 30.26884607 439.49470375 30.26674628 434.02613246 30.26366025 C428.13923081 30.26140892 422.25233224 30.26488443 416.36543119 30.26764017 C405.49030696 30.2718416 394.61518872 30.27146093 383.74006417 30.26872871 C373.69499956 30.26621728 363.64993698 30.26555451 353.60487211 30.26675135 C352.93963952 30.26682773 352.27440693 30.26690412 351.58901577 30.26698282 C348.88890362 30.26729414 346.18879147 30.26761253 343.48867932 30.26794258 C318.13794422 30.27100446 292.78721267 30.26822357 267.43647812 30.26284569 C244.89325249 30.25809976 222.35003251 30.25852438 199.80680692 30.26330668 C174.50367398 30.26865646 149.20054418 30.27078735 123.89741075 30.26769441 C121.2020992 30.26737368 118.50678766 30.26706084 115.81147611 30.26675135 C115.1477778 30.26667227 114.4840795 30.26659319 113.80026912 30.26651172 C103.75930585 30.26537224 93.71834483 30.26670825 83.67738187 30.2692309 C72.26513952 30.27202807 60.85290406 30.2712924 49.4406625 30.26595016 C43.61181084 30.26331202 37.78297068 30.26230997 31.95411909 30.26559931 C26.62734787 30.26855997 21.30059891 30.26697334 15.97382975 30.26162176 C14.03778488 30.26049658 12.10173817 30.26109095 10.16569448 30.26349755 C7.55202436 30.26649943 4.93843241 30.26345925 2.32476652 30.25877672 C1.55759357 30.26111789 0.79042062 30.26345906 0 30.26587117 C-5.17767555 30.24708592 -5.17767555 30.24708592 -6.29182589 29.13293558 C-6.39176121 27.07238248 -6.42263495 25.00840968 -6.42463839 22.94543558 C-6.42592745 21.68988871 -6.42721652 20.43434183 -6.42854464 19.14074808 C-6.42644991 18.48364847 -6.42435519 17.82654886 -6.42219698 17.14953715 C-6.41684823 15.14132224 -6.4221428 13.13333099 -6.42854464 11.12512308 C-6.42725558 9.86957621 -6.42596652 8.61402933 -6.42463839 7.32043558 C-6.4229465 5.57826761 -6.4229465 5.57826761 -6.42122042 3.80090433 C-6.19362899 -0.89177335 -4.18665614 0.0151897 0 0 Z " fill="#3C6C92" transform="translate(21.291825890541077,466.86706441640854)"/>
<path d="M0 0 C14.85 0 29.7 0 45 0 C45 57.42 45 114.84 45 174 C30.15 174 15.3 174 0 174 C-0.06058594 169.99230469 -0.12117188 165.98460937 -0.18359375 161.85546875 C-0.23455915 158.6605813 -0.28647797 155.46571252 -0.33904266 152.27085114 C-0.3942744 148.89796632 -0.44782467 145.52507397 -0.49731445 142.15209961 C-0.55496637 138.28230386 -0.61867568 134.41264856 -0.68359375 130.54296875 C-0.70030624 129.33352097 -0.71701874 128.12407318 -0.73423767 126.87797546 C-0.75418289 125.75703995 -0.77412811 124.63610443 -0.79467773 123.48120117 C-0.81022202 122.49302902 -0.8257663 121.50485687 -0.84178162 120.48674011 C-0.90213783 117.86800044 -0.90213783 117.86800044 -2 115 C-3.98 114.34 -5.96 113.68 -8 113 C-8 106.4 -8 99.8 -8 93 C-6.02 92.01 -4.04 91.02 -2 90 C-0.38696669 86.77393337 -0.81969995 83.24101712 -0.79467773 79.69482422 C-0.77982834 78.40691483 -0.77982834 78.40691483 -0.76467896 77.09298706 C-0.73301961 74.24691553 -0.70828902 71.40082729 -0.68359375 68.5546875 C-0.66302805 66.58455972 -0.64203168 64.6144364 -0.62062073 62.64431763 C-0.56536039 57.45265298 -0.5159686 52.26094826 -0.46777344 47.06921387 C-0.40876751 40.84337468 -0.34251778 34.61760892 -0.27747345 28.39183044 C-0.1794141 18.92793172 -0.09059213 9.46398643 0 0 Z " fill="#E9F5FE" transform="translate(392,236)"/>
<path d="M0 0 C14.85 0 29.7 0 45 0 C45 57.42 45 114.84 45 174 C30.15 174 15.3 174 0 174 C0 116.58 0 59.16 0 0 Z " fill="#E9F5FF" transform="translate(75,236)"/>
<path d="M0 0 C22.357376 -0.73302872 44.53659899 6.75440981 61.109375 21.90625 C76.46060602 36.48189223 88.23443811 55.27846024 89.59887695 76.97021484 C90.19048792 104.93856418 84.42889342 127.74146814 64.94921875 148.6796875 C47.48390264 165.79407763 25.07255334 173.41494754 0.95336914 173.4050293 C-22.1305339 173.14083312 -43.27758933 163.36259317 -59.578125 147.15625 C-77.93230933 127.59913534 -83.50001873 103.45844824 -82.75732422 77.32373047 C-82.37474491 70.56135444 -80.84261869 64.5392916 -78.578125 58.15625 C-78.165625 56.97289062 -77.753125 55.78953125 -77.328125 54.5703125 C-68.48751615 31.81579086 -50.60400683 15.86981714 -28.65820312 6.01367188 C-19.47908464 2.2299789 -9.85223853 0.59710537 0 0 Z M-52.40625 42.31640625 C-58.2541594 49.96286333 -63.3922083 58.72229372 -65.578125 68.15625 C-65.78050781 69.01992188 -65.98289063 69.88359375 -66.19140625 70.7734375 C-68.65362114 83.13476122 -69.02480735 96.24485592 -64.578125 108.15625 C-64.22621094 109.12949219 -63.87429687 110.10273438 -63.51171875 111.10546875 C-56.582998 128.96464665 -44.44841367 143.18588727 -27.140625 151.59375 C-8.27577825 159.46360747 10.37064806 161.04836787 29.51416016 153.31054688 C49.33249349 144.68950324 62.07399983 131.00144978 70.421875 111.15625 C71.62238946 107.85379673 72.62010858 104.57535307 73.421875 101.15625 C73.59170898 100.53685547 73.76154297 99.91746094 73.93652344 99.27929688 C77.92307173 81.84115607 72.36396439 63.05973232 63.421875 48.15625 C52.71838571 32.33466812 36.37271699 20.68365865 17.64794922 16.53125 C-9.23104042 12.00326929 -34.71641169 21.96054621 -52.40625 42.31640625 Z " fill="#010100" transform="translate(252.578125,235.84375)"/>
<path d="M0 0 C2 1 2 1 3 3 C3.23059307 5.71885319 3.13475823 8.25991592 3 11 C4.299375 11.04125 5.59875 11.0825 6.9375 11.125 C13.54274947 11.89474561 18.47292307 14.91331396 22.67578125 20.046875 C26.01842164 25.35743607 27.28822944 30.78429295 26 37 C24.71484375 39.2578125 24.71484375 39.2578125 23 41 C19.82989996 41.45287143 18.00727664 41.69258492 15 41 C11.11135738 37.62302088 10.2846766 33.86341855 9 29 C6.9714169 26.62841973 6.9714169 26.62841973 3 26 C3 34.58 3 43.16 3 52 C5.64 52.33 8.28 52.66 11 53 C17.3942336 54.80847011 20.47934292 58.41298212 23.87109375 63.9765625 C26.64523928 68.94890639 26.26011857 73.42975056 26.3125 79.0625 C26.34150391 80.07505859 26.37050781 81.08761719 26.40039062 82.13085938 C26.46297857 89.59808292 25.53054864 96.26897856 20.2199707 101.88110352 C14.96337214 106.63778426 11.19717746 108.27681452 4 108 C4.1546875 109.299375 4.1546875 109.299375 4.3125 110.625 C3.88937721 115.19472616 2.35298642 116.93857761 -1 120 C-4 120.75 -4 120.75 -7 120 C-10.35298642 116.93857761 -11.88937721 115.19472616 -12.3125 110.625 C-12.209375 109.75875 -12.10625 108.8925 -12 108 C-12.99 108.103125 -13.98 108.20625 -15 108.3125 C-20.54086947 108.30128367 -24.66772079 105.24982489 -28.546875 101.5078125 C-33.33027017 96.0772521 -34.4813901 91.39923498 -34.3125 84.31640625 C-34 82 -34 82 -32.375 79.375 C-29.22568648 77.55171323 -27.58638897 77.3412755 -24 78 C-20.32763113 80.67081372 -18.85638188 82.83422542 -18 87.1875 C-17.67 88.445625 -17.34 89.70375 -17 91 C-15.35 91.66 -13.7 92.32 -12 93 C-12 84.42 -12 75.84 -12 67 C-14.31 67 -16.62 67 -19 67 C-25.25014476 64.55617177 -30.25990075 59.69387471 -33.10742188 53.64916992 C-34.68581164 48.96451254 -34.4521966 44.21533597 -34.5 39.3125 C-34.54125 38.27416016 -34.5825 37.23582031 -34.625 36.16601562 C-34.70348702 28.3418412 -32.91682426 23.12204402 -28 17 C-24.00808347 13.38444654 -19.37282889 10.66960713 -13.875 10.625 C-12.92625 10.74875 -11.9775 10.8725 -11 11 C-11.061875 9.741875 -11.12375 8.48375 -11.1875 7.1875 C-11.16521115 4.66886049 -11.13502197 3.27004394 -10 1 C-6.73794446 -0.63102777 -3.56444611 -0.51981506 0 0 Z " fill="#040402" transform="translate(260,263)"/>
<path d="M0 0 C7.26 0 14.52 0 22 0 C22 57.42 22 114.84 22 174 C7.15 174 -7.7 174 -23 174 C-23 173.67 -23 173.34 -23 173 C-15.41 173 -7.82 173 0 173 C0 115.91 0 58.82 0 0 Z " fill="#D7EBFD" transform="translate(415,236)"/>
<path d="M0 0 C7.26 0 14.52 0 22 0 C22 57.42 22 114.84 22 174 C7.15 174 -7.7 174 -23 174 C-23 173.67 -23 173.34 -23 173 C-15.41 173 -7.82 173 0 173 C0 115.91 0 58.82 0 0 Z " fill="#D7EBFD" transform="translate(98,236)"/>
<path d="M0 0 C8.37691457 5.17622874 15.11821667 12.8257514 18.13671875 22.3203125 C19.14063397 33.08321756 18.63165213 42.94867578 12.21875 52.0390625 C6.56170118 58.84754604 0.45870859 62.54631589 -7.86328125 65.3203125 C-19.43070462 66.04154273 -28.76123997 65.46860932 -38.015625 57.98046875 C-44.81949253 51.86705712 -49.49369133 45.4715444 -50.31640625 36.1640625 C-50.9078184 25.01392464 -48.99900966 17.00011612 -42.0703125 7.98828125 C-31.66325713 -3.57749781 -14.09668926 -6.84491193 0 0 Z " fill="#010202" transform="translate(271.86328125,48.6796875)"/>
<path d="M0 0 C3.73273352 1.89904159 7.39372998 3.92010668 11.05615234 5.95068359 C13.23291182 7.14007858 15.41002195 8.32883194 17.58740234 9.51708984 C24.47612978 13.28659322 31.34025634 17.09988977 38.20159912 20.91894531 C41.12707099 22.54646469 44.05457347 24.17031289 46.98193359 25.79443359 C52.56075969 28.89054239 58.1374292 31.99051142 63.71337891 35.09179688 C69.32661373 38.21326707 74.94144956 41.3318549 80.55615234 44.45068359 C87.28349809 48.18755796 94.01053434 51.92498209 100.73583984 55.66552734 C112.94132101 62.45268743 125.15770571 69.21946767 137.38861084 75.96066284 C147.21774394 81.37846423 157.0348027 86.8175819 166.83935547 92.27978516 C172.90889232 95.65831496 178.99031197 99.01284508 185.08740234 102.34130859 C187.09202592 103.43812562 189.09645203 104.53530271 191.10083008 105.63256836 C192.39357153 106.3387419 193.68733942 107.04303998 194.98217773 107.74536133 C196.78021525 108.72067538 198.57471349 109.70223154 200.36865234 110.68505859 C201.39603516 111.24418945 202.42341797 111.80332031 203.48193359 112.37939453 C206.05615234 113.95068359 206.05615234 113.95068359 209.05615234 116.95068359 C64.51615234 116.95068359 -80.02384766 116.95068359 -228.94384766 116.95068359 C-226.94384766 114.95068359 -226.94384766 114.95068359 -224.06651866 114.7022866 C-222.82179542 114.70304604 -221.57707218 114.70380548 -220.29463005 114.70458794 C-219.60008915 114.70228025 -218.90554825 114.69997256 -218.18996066 114.69759494 C-215.83926408 114.69225892 -213.488836 114.7013086 -211.13815308 114.71017456 C-209.44525816 114.70930323 -207.7523635 114.70755359 -206.0594703 114.70499623 C-201.38930954 114.70050446 -196.71923977 114.70855136 -192.04909062 114.71855235 C-187.01976722 114.72715834 -181.9904493 114.72426872 -176.96112061 114.7227478 C-168.24142101 114.72169714 -159.52175126 114.72799265 -150.80205917 114.73922348 C-138.1947226 114.75545101 -125.58740052 114.76068366 -112.98005463 114.76319946 C-92.527385 114.76758089 -72.07473129 114.78090212 -51.62207031 114.79980469 C-31.74967529 114.81815191 -11.87728459 114.83231408 7.99511719 114.84082031 C9.21925993 114.84134576 10.44340267 114.84187121 11.70464064 114.84241258 C17.84556856 114.84502258 23.98649651 114.84755001 30.12742448 114.85003638 C81.1036781 114.87078282 132.07991445 114.90602051 183.05615234 114.95068359 C181.93533264 114.32800598 181.93533264 114.32800598 180.79187012 113.69274902 C166.84033188 105.94189445 166.84033188 105.94189445 165.06271088 104.95432717 C163.87117142 104.29236084 162.6796319 103.63039464 161.4880923 102.96842855 C158.41901167 101.26338447 155.3499323 99.5583381 152.28085518 97.8532877 C151.67090926 97.51442775 151.06096334 97.17556781 150.43253422 96.82643938 C148.74709667 95.89008203 147.06165962 94.95372377 145.37622261 94.01736546 C143.16913933 92.79122674 140.96203126 91.56513273 138.75488281 90.33911133 C133.29467269 87.30601195 127.83505611 84.27185176 122.37646484 81.23583984 C110.78055006 74.78764424 99.1759491 68.35571394 87.55615234 61.95068359 C72.59143718 53.70187711 57.65506559 45.40245168 42.72216797 37.09619141 C35.43333888 33.04234 28.142492 28.9921475 20.84942627 24.94592285 C18.98038681 23.9086349 17.11175337 22.87061814 15.24316406 21.83251953 C11.99809765 20.03005768 8.75145851 18.23045527 5.50384521 16.43258667 C4.27196254 15.7501196 3.04053754 15.06682557 1.80963135 14.38259888 C-6.01333412 10.03507578 -13.90433355 5.88409742 -21.94384766 1.95068359 C-15.09590839 -3.48044065 -7.86743891 -3.71951245 0 0 Z " fill="#82CC98" transform="translate(265.94384765625,17.04931640625)"/>
<path d="M0 0 C16.83399875 0.08093269 32.63098741 9.281212 44.5859375 20.49609375 C59.21723855 35.67192542 65.53243746 53.31074854 65.35375977 74.16674805 C65.17418204 80.47880907 64.27182504 86.07865683 62 92 C61.64808594 92.97066406 61.29617188 93.94132812 60.93359375 94.94140625 C58.12116841 102.20915886 54.4873891 108.6386448 50 115 C49.56300781 115.62390625 49.12601562 116.2478125 48.67578125 116.890625 C37.67168768 131.03402454 19.44980646 139.61618965 2 142 C-3.6712358 142.39039422 -9.32572543 142.25281421 -15 142 C-15 141.67 -15 141.34 -15 141 C-14.04480469 141.00902344 -13.08960938 141.01804687 -12.10546875 141.02734375 C-2.51339854 140.80738601 3.36901583 139.21913542 11 133 C11.86367188 132.30261719 12.72734375 131.60523438 13.6171875 130.88671875 C29.85673634 116.99178562 39.88519522 97.97627596 41.875 76.625 C42.79832666 54.32666108 35.94206132 34.7061942 21.45703125 17.60546875 C15.12837907 10.89448147 7.85850316 5.74475663 0 1 C0 0.67 0 0.34 0 0 Z " fill="#F7CF66" transform="translate(262,252)"/>
<path d="M0 0 C1.53332474 -0.07723801 1.53332474 -0.07723801 3.09762573 -0.15603638 C7.80921008 -0.32506814 12.52016957 -0.4562927 17.23388672 -0.54882812 C19.70986872 -0.61187546 22.18525724 -0.70715377 24.65869141 -0.8359375 C44.4998398 -1.85459163 44.4998398 -1.85459163 50.33410645 1.93225098 C54.73694254 6.13375607 57.31676408 11.12522819 60.09814453 16.48095703 C62.40814453 20.11095703 64.71814453 23.74095703 67.09814453 27.48095703 C37.06814453 27.48095703 7.03814453 27.48095703 -23.90185547 27.48095703 C-19.39792181 19.59907313 -19.39792181 19.59907313 -16.73779297 15.93017578 C-16.17318359 15.14964844 -15.60857422 14.36912109 -15.02685547 13.56494141 C-14.44935547 12.77410156 -13.87185547 11.98326172 -13.27685547 11.16845703 C-12.69162109 10.35828125 -12.10638672 9.54810547 -11.50341797 8.71337891 C-5.36648047 0.2610143 -5.36648047 0.2610143 0 0 Z " fill="#ADE59B" transform="translate(392.90185546875,424.51904296875)"/>
<path d="M0 0 C3.65021561 0.13171133 7.28096283 0.12320066 10.93310547 0.09619141 C13.26786878 0.12831787 15.602539 0.16840813 17.93701172 0.21728516 C19.01738708 0.21586517 20.09776245 0.21444519 21.21087646 0.21298218 C25.8594395 0.44449856 28.76808004 0.74374969 32.29724121 3.92863464 C34.34276973 6.45724533 36.1393296 9.017533 37.89013672 11.75634766 C38.94750416 13.24048648 40.00907077 14.72165744 41.07763672 16.19775391 C42.01912773 17.56871958 42.95671315 18.94237657 43.89013672 20.31884766 C44.62296875 21.38329102 44.62296875 21.38329102 45.37060547 22.46923828 C48.89013672 27.62037295 48.89013672 27.62037295 48.89013672 28.75634766 C18.86013672 28.75634766 -11.16986328 28.75634766 -42.10986328 28.75634766 C-39.79986328 25.12634766 -37.48986328 21.49634766 -35.10986328 17.75634766 C-34.32836914 16.26570801 -33.546875 14.77506836 -32.74169922 13.23925781 C-25.04406081 -0.53300328 -14.78611991 -0.56661773 0 0 Z " fill="#ADE59B" transform="translate(94.10986328125,423.24365234375)"/>
<path d="M0 0 C29.37 0 58.74 0 89 0 C87.60299172 2.79401656 86.32320058 5.11717676 84.57421875 7.64453125 C83.87329102 8.66063477 83.87329102 8.66063477 83.15820312 9.69726562 C82.67287109 10.39529297 82.18753906 11.09332031 81.6875 11.8125 C81.21376953 12.49892578 80.74003906 13.18535156 80.25195312 13.89257812 C78.8408679 15.93295717 77.42616408 17.97012091 76 20 C75.71010193 20.58354248 75.42020386 21.16708496 75.121521 21.76831055 C73.3724171 24.89694849 72.10413785 26.67442884 68.58226013 27.71290588 C65.47271239 28.06299914 62.43393081 28.17982486 59.3046875 28.2109375 C58.16146027 28.23660797 57.01823303 28.26227844 55.84036255 28.28872681 C53.42147943 28.32851507 51.00221642 28.34915776 48.58300781 28.35205078 C44.90298485 28.3748268 41.23943987 28.51452021 37.5625 28.66015625 C20.95267374 28.97236596 20.95267374 28.97236596 15.82980347 25.55032349 C12.34389993 22.12574793 10.03791568 18.23532695 7.9372406 13.85462952 C6.53255576 11.07501245 4.68789626 8.66430506 2.8125 6.1875 C0 2.25526932 0 2.25526932 0 0 Z " fill="#ADE59B" transform="translate(370,194)"/>
<path d="M0 0 C29.37 0 58.74 0 89 0 C87.47817729 3.80455677 86.38986928 6.11633502 84.06640625 9.28515625 C83.49986328 10.06310547 82.93332031 10.84105469 82.34960938 11.64257812 C81.75986328 12.44115234 81.17011719 13.23972656 80.5625 14.0625 C79.68368164 15.26616211 79.68368164 15.26616211 78.78710938 16.49414062 C77.19795855 18.66772376 75.60312458 20.83670674 74 23 C73.57713211 23.68655167 73.15426422 24.37310333 72.71858215 25.08045959 C71 27 71 27 68.71463013 27.60214233 C67.37112991 27.6702562 67.37112991 27.6702562 66.00048828 27.73974609 C64.98157501 27.79754242 63.96266174 27.85533875 62.91287231 27.91488647 C58.22311795 28.06718821 53.53547274 28.2141129 48.84375 28.29052734 C46.38126226 28.34646358 43.91932777 28.44166053 41.45996094 28.57763672 C21.66092803 29.66869094 21.66092803 29.66869094 15.63366699 25.27502441 C11.61594089 21.099122 8.80118857 16.38140764 6.1942749 11.23516846 C5.00784549 9.01468339 3.67859668 7.06051939 2.18017578 5.04052734 C0 2 0 2 0 0 Z " fill="#ADE59B" transform="translate(53,194)"/>
<path d="M0 0 C159.06 0 318.12 0 482 0 C482 20.90909091 482 20.90909091 476.625 27.75 C472.07736949 31.24817732 466.62463831 31.28637518 461.12457466 31.24609566 C460.34606482 31.24840335 459.56755498 31.25071103 458.76545393 31.25308865 C456.15321167 31.25838819 453.54121526 31.24940494 450.9289856 31.24050903 C449.03877291 31.24138111 447.14856046 31.24313213 445.2583493 31.24568737 C440.06135527 31.25016449 434.86444351 31.24215215 429.66745996 31.23213124 C424.0642411 31.22350433 418.46102698 31.22641637 412.85780334 31.22793579 C403.14888533 31.22898512 393.43999417 31.22270348 383.73108292 31.21146011 C369.69358329 31.19521462 355.65609667 31.18999808 341.61858867 31.18748413 C318.84434992 31.18310554 296.07012864 31.16980914 273.29589844 31.15087891 C251.17122472 31.13250982 229.04655482 31.1183427 206.921875 31.10986328 C206.23988061 31.10960023 205.55788621 31.10933718 204.85522532 31.10906615 C198.0063493 31.10642911 191.15747325 31.10387748 184.30859718 31.10138843 C126.87238822 31.08050672 69.43619469 31.04521456 12 31 C12 30.67 12 30.34 12 30 C158.19 30 304.38 30 455 30 C459.17106923 19.57232693 459.29111565 13.05103399 460 1 C308.2 1 156.4 1 0 1 C0 0.67 0 0.34 0 0 Z " fill="#26455E" transform="translate(15,148)"/>
<path d="M0 0 C3.90387701 2.95171189 7.35807825 6.52865649 9.5625 10.9375 C10.27548073 18.12841993 10.49388568 24.38429882 6.0625 30.3515625 C1.53336879 35.14017519 -3.16717057 37.07568256 -9.625 37.3125 C-15.46898824 37.23530068 -19.14304678 35.90161066 -23.4375 31.9375 C-27.71859848 27.51021767 -28.78433045 23.42081824 -29 17.3125 C-28.73639826 11.14279451 -27.48033138 7.7707486 -22.90625 3.51171875 C-16.24909304 -2.28066047 -8.38711111 -2.5923798 0 0 Z " fill="#325D7E" transform="translate(265.4375,62.0625)"/>
<path d="M0 0 C3.609375 -0.020625 7.21875 -0.04125 10.9375 -0.0625 C12.07695068 -0.071604 13.21640137 -0.08070801 14.39038086 -0.09008789 C15.28120361 -0.09258545 16.17202637 -0.09508301 17.08984375 -0.09765625 C18.46450806 -0.10551147 18.46450806 -0.10551147 19.86694336 -0.11352539 C22 0 22 0 23 1 C23.09993532 3.0605531 23.13080906 5.1245259 23.1328125 7.1875 C23.13410156 8.44304687 23.13539063 9.69859375 23.13671875 10.9921875 C23.13462402 11.64928711 23.1325293 12.30638672 23.13037109 12.98339844 C23.12502234 14.99161335 23.13031691 16.99960459 23.13671875 19.0078125 C23.13478516 20.89113281 23.13478516 20.89113281 23.1328125 22.8125 C23.13168457 23.97394531 23.13055664 25.13539063 23.12939453 26.33203125 C23 29 23 29 22 30 C19.45134215 30.09885765 16.92977764 30.13177362 14.38061428 30.12304783 C13.56904107 30.12420167 12.75746785 30.12535552 11.92130151 30.12654433 C9.16654414 30.12921845 6.41184372 30.12468233 3.65708923 30.12025452 C1.67632186 30.12069006 -0.30444545 30.12156464 -2.28521246 30.12284368 C-7.75571582 30.12509204 -13.2261998 30.12106274 -18.69670069 30.11606562 C-24.58562702 30.11176616 -30.47455216 30.11320718 -36.36347961 30.1139679 C-47.24208139 30.11452775 -58.12067606 30.11062829 -68.99927604 30.10462701 C-79.04693109 30.09913117 -89.09458403 30.09589773 -99.14224052 30.09487724 C-99.80761824 30.0948085 -100.47299595 30.09473976 -101.15853663 30.09466894 C-104.53744923 30.09433062 -107.91636183 30.09402923 -111.29527443 30.09374207 C-135.2480395 30.09163987 -159.20080125 30.08489752 -183.15356445 30.07543945 C-206.42797834 30.06625982 -229.70239131 30.05917386 -252.97680664 30.05493164 C-253.69382195 30.05480011 -254.41083726 30.05466859 -255.14958031 30.05453308 C-262.34993265 30.05321459 -269.55028499 30.05193877 -276.75063734 30.05069422 C-291.41948724 30.04815779 -306.08833708 30.04533653 -320.75718689 30.04234314 C-321.43168428 30.04220585 -322.10618168 30.04206856 -322.80111838 30.04192711 C-367.86741365 30.03272147 -412.93370701 30.01685495 -458 30 C-458 29.67 -458 29.34 -458 29 C-306.86 29 -155.72 29 0 29 C0 19.43 0 9.86 0 0 Z " fill="#335D7F" transform="translate(474,467)"/>
<path d="M0 0 C17.36219269 -1.61220361 17.36219269 -1.61220361 22.72265625 1.6640625 C24.81375109 4.3189982 26.36924527 7.03787316 28 10 C29.45260837 12.14915659 30.95194853 14.26132626 32.45288086 16.37695312 C39 25.62577915 39 25.62577915 39 27 C8.97 27 -21.06 27 -52 27 C-50 25 -50 25 -47.21591187 24.79745483 C-46.03010529 24.81966095 -44.84429871 24.84186707 -43.62255859 24.86474609 C-42.96877731 24.87420761 -42.31499603 24.88366913 -41.6414032 24.89341736 C-39.47679954 24.92714094 -37.31276337 24.97524223 -35.1484375 25.0234375 C-33.64915457 25.04959997 -32.14985576 25.07486736 -30.65054321 25.09927368 C-26.70149687 25.16597057 -22.75278353 25.24485302 -18.80401611 25.32623291 C-14.77572425 25.40710848 -10.74723684 25.47651623 -6.71875 25.546875 C1.18773739 25.68666217 9.09390982 25.8393168 17 26 C15.24541517 23.43357386 13.48817391 20.86897736 11.73046875 18.3046875 C11.23671753 17.58240967 10.74296631 16.86013184 10.23425293 16.1159668 C7.67450751 12.38437951 5.07689251 8.70956049 2.3125 5.125 C0 2 0 2 0 0 Z " fill="#89D59E" transform="translate(104,425)"/>
<path d="M0 0 C17.26868813 -2.52381052 17.26868813 -2.52381052 23.05957031 1.39306641 C27.27913406 5.66528694 30.07656925 10.79735956 33 16 C35.31 19.63 37.62 23.26 40 27 C9.97 27 -20.06 27 -51 27 C-51 26.67 -51 26.34 -51 26 C-28.56 25.67 -6.12 25.34 17 25 C13.37 19.72 9.74 14.44 6 9 C1.8515625 2.8125 1.8515625 2.8125 0 0 Z " fill="#89D59F" transform="translate(420,425)"/>
<path d="M0 0 C0.89267578 0.00966797 1.78535156 0.01933594 2.70507812 0.02929688 C3.63384766 0.05443359 4.56261719 0.07957031 5.51953125 0.10546875 C6.45990234 0.11900391 7.40027344 0.13253906 8.36914062 0.14648438 C10.69068163 0.18183779 13.01106778 0.23118201 15.33203125 0.29296875 C14.03601252 3.00024931 12.61360434 5.47029903 10.90625 7.9375 C10.20532227 8.95360352 10.20532227 8.95360352 9.49023438 9.99023438 C9.00490234 10.68826172 8.51957031 11.38628906 8.01953125 12.10546875 C7.54580078 12.79189453 7.07207031 13.47832031 6.58398438 14.18554688 C5.17289915 16.22592592 3.75819533 18.26308966 2.33203125 20.29296875 C2.04661972 20.88262924 1.76120819 21.47228973 1.46714783 22.07981873 C0.27054414 24.25794887 -0.75051148 25.69817358 -2.66796875 27.29296875 C-6.69697789 28.27855327 -10.62361845 28.10808568 -14.75 27.9765625 C-15.91931564 27.96665787 -17.08863129 27.95675323 -18.29338074 27.94654846 C-22.02369235 27.90740107 -25.75104843 27.81956753 -29.48046875 27.73046875 C-32.01102518 27.69535584 -34.54162779 27.66341683 -37.07226562 27.63476562 C-43.27183966 27.55763747 -49.46969308 27.44054105 -55.66796875 27.29296875 C-55.66796875 26.96296875 -55.66796875 26.63296875 -55.66796875 26.29296875 C-44.77796875 26.29296875 -33.88796875 26.29296875 -22.66796875 26.29296875 C-22.00796875 24.97296875 -21.34796875 23.65296875 -20.66796875 22.29296875 C-18.59995202 19.05321072 -16.40551141 15.89913746 -14.23046875 12.73046875 C-13.64458984 11.86744141 -13.05871094 11.00441406 -12.45507812 10.11523438 C-11.88724609 9.28572266 -11.31941406 8.45621094 -10.734375 7.6015625 C-10.21818604 6.84673584 -9.70199707 6.09190918 -9.17016602 5.31420898 C-6.28609216 1.43362269 -5.00140115 -0.09556817 0 0 Z " fill="#87D59F" transform="translate(443.66796875,193.70703125)"/>
<path d="M0 0 C0.92683594 0.03609375 1.85367188 0.0721875 2.80859375 0.109375 C5.08505061 0.20324951 7.35283215 0.3342879 9.625 0.5 C8.35189292 3.97982601 6.88019006 6.80001531 4.69140625 9.78515625 C4.12486328 10.56310547 3.55832031 11.34105469 2.97460938 12.14257812 C2.08999023 13.34043945 2.08999023 13.34043945 1.1875 14.5625 C0.60162109 15.36494141 0.01574219 16.16738281 -0.58789062 16.99414062 C-2.17704145 19.16772376 -3.77187542 21.33670674 -5.375 23.5 C-5.79361298 24.19244308 -6.21222595 24.88488617 -6.64352417 25.59831238 C-8.375 27.5 -8.375 27.5 -10.74784851 27.98101807 C-12.15016472 27.9676944 -12.15016472 27.9676944 -13.58081055 27.95410156 C-14.64168381 27.95379944 -15.70255707 27.95349731 -16.795578 27.95318604 C-17.93940445 27.93254089 -19.0832309 27.91189575 -20.26171875 27.890625 C-21.43386429 27.88496521 -22.60600983 27.87930542 -23.81367493 27.87347412 C-27.56369578 27.85105322 -31.31276711 27.80084384 -35.0625 27.75 C-37.60219976 27.7299425 -40.14191447 27.71169043 -42.68164062 27.6953125 C-48.91308532 27.65116961 -55.14397484 27.58419982 -61.375 27.5 C-61.375 27.17 -61.375 26.84 -61.375 26.5 C-60.43817383 26.55873291 -59.50134766 26.61746582 -58.53613281 26.67797852 C-41.58011354 28.2164175 -41.58011354 28.2164175 -25.73095703 23.91308594 C-21.86735501 20.09739145 -19.62981739 15.64080527 -17.42285156 10.73583984 C-13.24997344 1.83201461 -9.89445545 -0.73396816 0 0 Z " fill="#87D59F" transform="translate(132.375,193.5)"/>
<path d="M0 0 C3 1 3 1 4.16796875 2.93359375 C8.03548831 12.43198471 7.99104472 19.4968738 4.36328125 29.06640625 C3 31 3 31 0.35546875 31.77734375 C-0.42183594 31.85082031 -1.19914063 31.92429687 -2 32 C-7.85156644 25.22450201 -9.52020211 21.2498606 -9.38671875 12.0703125 C-9 9 -9 9 -6.75 5.9375 C-5.8425 5.298125 -4.935 4.65875 -4 4 C-3.236875 3.236875 -2.47375 2.47375 -1.6875 1.6875 C-1.130625 1.130625 -0.57375 0.57375 0 0 Z " fill="#3C6B91" transform="translate(246,64)"/>
<path d="M0 0 C5.99414319 1.19882864 5.99414319 1.19882864 8 4 C8.38818359 5.92944336 8.38818359 5.92944336 8.3984375 8.08984375 C8.40230469 8.87423828 8.40617187 9.65863281 8.41015625 10.46679688 C8.39855469 11.28212891 8.38695312 12.09746094 8.375 12.9375 C8.38660156 13.74896484 8.39820313 14.56042969 8.41015625 15.39648438 C8.39303122 18.87571868 8.28649736 21.39281043 6.7890625 24.56640625 C5 26 5 26 0 26 C0 17.42 0 8.84 0 0 Z " fill="#E9CD6E" transform="translate(263,330)"/>
<path d="M0 0 C0 8.58 0 17.16 0 26 C-1.65 25.67 -3.3 25.34 -5 25 C-7.70236878 20.94644682 -7.36747676 17.82094744 -7.375 13.0625 C-7.39949219 12.25103516 -7.42398438 11.43957031 -7.44921875 10.60351562 C-7.46834201 6.71830703 -7.47231412 4.66023485 -5.1640625 1.43359375 C-3 0 -3 0 0 0 Z " fill="#FADD76" transform="translate(248,289)"/>
</svg>
