<?xml version="1.0" encoding="UTF-8"?>
<svg version="1.1" xmlns="http://www.w3.org/2000/svg" width="512" height="512">
<path d="M0 0 C20.59274998 16.09358916 34.10501615 38.53745619 37.89892578 64.59423828 C40.92580323 90.54634241 34.5946591 118.13510828 18.52392578 138.98095703 C17.15289096 140.58581175 15.75576627 142.16866138 14.33642578 143.73095703 C13.53720703 144.62298828 12.73798828 145.51501953 11.91455078 146.43408203 C-5.1342558 164.49169373 -29.22645328 175.08468692 -54.12451172 175.93408203 C-78.21745449 176.32366587 -99.99141371 171.08564268 -119.66357422 156.73095703 C-120.57623047 156.08255859 -121.48888672 155.43416016 -122.42919922 154.76611328 C-142.29247737 139.86865467 -153.22146445 115.74163549 -156.97607422 91.73266602 C-160.55185532 65.50495017 -153.9645612 40.16046697 -138.31152344 18.89404297 C-105.68672642 -23.62841974 -42.92139776 -32.74221097 0 0 Z " fill="#DDF4FB" transform="translate(315.66357421875,231.26904296875)"/>
<path d="M0 0 C0.86496094 0.42410156 1.72992188 0.84820313 2.62109375 1.28515625 C16.04517586 8.62038529 24.30552994 20.67584776 29 35 C32.4989694 48.10947204 30.86413855 63.40921633 24.24609375 75.09765625 C19.94763514 82.05236486 19.94763514 82.05236486 17 85 C19.58911047 86.29455523 21.86617457 86.32255002 24.75 86.625 C36.78651014 88.42447826 48.09922488 94.49994938 55.671875 104.125 C63.65193556 115.50251208 66.29807779 126.67458136 66.37109375 140.421875 C66.38012222 141.48488831 66.3891507 142.54790161 66.39845276 143.64312744 C66.41287906 145.87517509 66.42182288 148.10726429 66.42553711 150.33935547 C66.43751506 153.75429328 66.48684475 157.1674694 66.53710938 160.58203125 C66.54656586 162.75780374 66.55380459 164.93358724 66.55859375 167.109375 C66.57812607 168.12715027 66.59765839 169.14492554 66.61778259 170.19354248 C66.58995176 174.55101646 66.3939521 177.29734104 64.23876953 181.14135742 C59.18008217 184.04440181 54.35534562 183.69418117 48.62109375 183.62890625 C46.81476219 183.63252419 46.81476219 183.63252419 44.97193909 183.63621521 C42.42925723 183.63523672 39.88655408 183.62184301 37.34399414 183.59692383 C33.4479964 183.56259249 29.55426334 183.57627324 25.65820312 183.59570312 C23.18749033 183.58880552 20.71678339 183.57913393 18.24609375 183.56640625 C17.0793663 183.57136612 15.91263885 183.57632599 14.71055603 183.58143616 C13.62585526 183.56559982 12.54115448 183.54976349 11.42358398 183.53344727 C9.99392555 183.5241494 9.99392555 183.5241494 8.53538513 183.5146637 C5.24884939 182.8475222 4.0259001 181.62735926 2 179 C2 178.01 2 177.02 2 176 C-4.6 176 -11.2 176 -18 176 C-18.33 177.65 -18.66 179.3 -19 181 C-22.75324878 183.50216586 -25.71584114 183.30267298 -30.06396484 183.30639648 C-30.88542496 183.31472 -31.70688507 183.32304352 -32.55323792 183.33161926 C-35.27251913 183.35574162 -37.99156059 183.36449403 -40.7109375 183.37109375 C-42.6003934 183.38005833 -44.48984856 183.38918014 -46.37930298 183.39845276 C-50.34207892 183.41495135 -54.30477029 183.42264446 -58.26757812 183.42553711 C-63.34436144 183.43092205 -68.4203495 183.46860287 -73.49690819 183.51428127 C-77.40028788 183.54403033 -81.30347556 183.5512602 -85.20695877 183.55226326 C-87.07847359 183.55646979 -88.94998876 183.56892144 -90.82139206 183.58978081 C-93.44060409 183.61665134 -96.0579664 183.61188344 -98.67724609 183.59936523 C-99.83543098 183.62161667 -99.83543098 183.62161667 -101.01701355 183.64431763 C-104.92621335 183.59113963 -106.82061269 183.13432796 -109.98171997 180.76724243 C-112.11247605 177.84578528 -112.62407923 176.66874696 -112.61523438 173.12475586 C-112.62453979 172.18284897 -112.63384521 171.24094208 -112.64343262 170.27049255 C-112.61883972 168.7579464 -112.61883972 168.7579464 -112.59375 167.21484375 C-112.59379028 166.16277237 -112.59383057 165.11070099 -112.59387207 164.02674866 C-112.58851537 161.80007967 -112.5709264 159.57341126 -112.54199219 157.34692383 C-112.50044362 153.97351821 -112.50090188 150.60213195 -112.5078125 147.22851562 C-112.49730789 145.05727803 -112.48436299 142.88605062 -112.46875 140.71484375 C-112.46854858 139.72064926 -112.46834717 138.72645477 -112.46813965 137.70213318 C-112.23261375 123.43351212 -107.87052607 110.39245433 -98.03515625 99.84375 C-88.61103911 91.30597017 -77.52761235 86.99425495 -65 86 C-64.34 85.67 -63.68 85.34 -63 85 C-63.44730469 84.48953125 -63.89460938 83.9790625 -64.35546875 83.453125 C-75.53626171 70.00756588 -77.22697719 55.87746277 -76 39 C-75.16928293 34.68388304 -73.88666878 30.95952197 -72 27 C-71.649375 26.21882813 -71.29875 25.43765625 -70.9375 24.6328125 C-63.9982615 10.70614634 -52.30535198 2.12949049 -38 -3 C-26.41286491 -6.38184772 -10.71616017 -5.31667297 0 0 Z " fill="#000101" transform="translate(279,4)"/>
<path d="M0 0 C12.58597873 8.18699587 20.94358323 19.67908986 24.9375 34.25 C27.92868076 49.85852504 25.27578323 64.75234429 16.37109375 77.98046875 C14.91433609 79.89013947 13.44030879 81.55190031 11.6875 83.1875 C12.58210937 83.28546875 13.47671875 83.3834375 14.3984375 83.484375 C29.05503364 85.29691781 42.21148831 90.30271796 51.6875 102.1875 C58.61215982 112.92479605 61.15318423 122.28857748 61.0859375 134.9921875 C61.09024277 136.79358688 61.09024277 136.79358688 61.09463501 138.63137817 C61.09666688 141.15432205 61.0911988 143.677282 61.07861328 146.20019531 C61.06246321 150.07131745 61.07853612 153.94140885 61.09765625 157.8125 C61.09567532 160.26823147 61.09183477 162.72396231 61.0859375 165.1796875 C61.09201019 166.33902802 61.09808289 167.49836853 61.1043396 168.69284058 C61.09015488 170.30063889 61.09015488 170.30063889 61.07568359 171.94091797 C61.07329681 172.88417938 61.07091003 173.8274408 61.06845093 174.79928589 C60.6875 177.1875 60.6875 177.1875 59.66249084 178.99015808 C56.52725002 180.89090373 53.25946737 180.61240913 49.69946289 180.59155273 C48.88615005 180.59841599 48.07283722 180.60527924 47.23487854 180.61235046 C44.54312745 180.63066989 41.85195638 180.62677364 39.16015625 180.62109375 C37.29072377 180.62565322 35.42129297 180.63095809 33.55186462 180.63697815 C29.6319193 180.64591945 25.7121776 180.64347472 21.79223633 180.63354492 C16.76699551 180.62205622 11.74245746 180.64225995 6.717309 180.67146206 C2.85598785 180.68980252 -1.00516425 180.68953587 -4.86651802 180.68382454 C-6.71929472 180.68367105 -8.57208268 180.68973831 -10.42481804 180.70211601 C-13.01535064 180.7169831 -15.60457684 180.70638109 -18.19506836 180.68920898 C-18.96143616 180.69887695 -19.72780396 180.70854492 -20.51739502 180.71850586 C-24.01045857 180.66998384 -25.97044062 180.43904493 -28.81983948 178.34364319 C-30.3125 176.1875 -30.3125 176.1875 -30.3125 173.1875 C-36.5825 173.1875 -42.8525 173.1875 -49.3125 173.1875 C-49.9725 174.8375 -50.6325 176.4875 -51.3125 178.1875 C-53.95915459 180.83415459 -55.19684065 180.45071979 -58.89208984 180.47802734 C-60.06025238 180.49078705 -61.22841492 180.50354675 -62.43197632 180.51669312 C-63.69965851 180.51891876 -64.9673407 180.52114441 -66.2734375 180.5234375 C-67.57068756 180.5300943 -68.86793762 180.5367511 -70.20449829 180.54360962 C-72.95342331 180.55559416 -75.70222257 180.55928933 -78.45117188 180.55810547 C-81.97100272 180.55790238 -85.49002519 180.5851871 -89.00966454 180.61964989 C-92.36843465 180.64726205 -95.7270553 180.64606811 -99.0859375 180.6484375 C-100.34957123 180.66280853 -101.61320496 180.67717957 -102.91513062 180.69198608 C-104.08959747 180.68583282 -105.26406433 180.67967957 -106.47412109 180.67333984 C-108.0239418 180.6776149 -108.0239418 180.6776149 -109.60507202 180.68197632 C-113.0792082 180.04747077 -114.24382186 179.02041802 -116.3125 176.1875 C-116.82043457 173.81983948 -116.82043457 173.81983948 -116.83007812 171.16625977 C-116.84268677 170.16744278 -116.85529541 169.16862579 -116.86828613 168.13954163 C-116.86018921 167.06353195 -116.85209229 165.98752228 -116.84375 164.87890625 C-116.8475769 163.76120346 -116.85140381 162.64350067 -116.85534668 161.4919281 C-116.85806965 159.12229515 -116.8506817 156.75263233 -116.83398438 154.38305664 C-116.81276245 150.79438131 -116.83368031 147.20774983 -116.859375 143.61914062 C-116.88170251 126.04830775 -115.59030732 111.57214811 -103.28125 97.9375 C-93.18663941 88.28178552 -80.97231284 84.23191225 -67.3125 83.1875 C-67.84359375 82.50945312 -68.3746875 81.83140625 -68.921875 81.1328125 C-77.74590779 69.50698827 -82.63107477 56.96390932 -81.3125 42.1875 C-78.96169218 25.39601554 -71.91627355 13.3183962 -59.0625 2.375 C-42.13512938 -10.25335586 -17.91990572 -10.12746187 0 0 Z " fill="#010100" transform="translate(451.3125,331.8125)"/>
<path d="M0 0 C12.43095823 9.57391913 19.15090806 21.30165458 22.31640625 36.6015625 C22.39890625 37.7153125 22.48140625 38.8290625 22.56640625 39.9765625 C22.66115234 41.00716797 22.66115234 41.00716797 22.7578125 42.05859375 C23.52500151 56.98165749 17.76875087 69.65212548 8.56640625 80.9765625 C9.87351563 81.10611328 9.87351563 81.10611328 11.20703125 81.23828125 C25.63537954 82.94032667 37.09569928 87.45892255 46.82421875 98.55078125 C51.50178005 104.60054226 54.46177295 110.64007241 56.56640625 117.9765625 C56.82982063 118.88136353 56.82982063 118.88136353 57.09855652 119.80444336 C57.63539822 122.29687639 57.71560452 124.59070712 57.7434082 127.140625 C57.76266106 128.68242432 57.76266106 128.68242432 57.78230286 130.25537109 C57.78968979 131.35961426 57.79707672 132.46385742 57.8046875 133.6015625 C57.81679512 135.31013428 57.81679512 135.31013428 57.82914734 137.05322266 C57.84296896 139.46059656 57.85369969 141.86798991 57.86157227 144.27539062 C57.87884092 147.96261288 57.92275186 151.64895127 57.96679688 155.3359375 C57.97691923 157.67447257 57.98543676 160.01301526 57.9921875 162.3515625 C58.00969559 163.45580566 58.02720367 164.56004883 58.04524231 165.69775391 C58.04085396 167.23955322 58.04085396 167.23955322 58.03637695 168.8125 C58.04224319 169.71532715 58.04810944 170.6181543 58.05415344 171.54833984 C57.38343179 174.88749083 56.33193927 176.00854665 53.56640625 177.9765625 C50.41687012 178.48449707 50.41687012 178.48449707 46.65820312 178.49414062 C45.97154068 178.5011499 45.28487823 178.50815918 44.57740784 178.51538086 C42.31290974 178.53295263 40.04966653 178.52134245 37.78515625 178.5078125 C36.20861573 178.51050769 34.63207683 178.51439033 33.05554199 178.51940918 C29.75350091 178.52530306 26.45189302 178.51674528 23.14990234 178.49804688 C18.91939565 178.47525681 14.68990397 178.48838057 10.45943451 178.51233673 C7.20457322 178.52679801 3.94995218 178.52218733 0.69508362 178.51182556 C-0.86462016 178.50915916 -2.42434583 178.51242504 -3.98402405 178.52174377 C-6.16506637 178.53191552 -8.34447022 178.51640291 -10.52539062 178.49414062 C-11.76575073 178.49095825 -13.00611084 178.48777588 -14.28405762 178.48449707 C-18.00779836 177.8839589 -19.23437213 176.99884457 -21.43359375 173.9765625 C-21.43359375 172.9865625 -21.43359375 171.9965625 -21.43359375 170.9765625 C-27.70359375 170.9765625 -33.97359375 170.9765625 -40.43359375 170.9765625 C-41.09359375 172.6265625 -41.75359375 174.2765625 -42.43359375 175.9765625 C-45.28635876 178.82932751 -47.22634182 178.23667289 -51.22241211 178.2512207 C-51.92014236 178.25633163 -52.61787262 178.26144257 -53.33674622 178.26670837 C-55.64906329 178.28063742 -57.9610834 178.27964513 -60.2734375 178.27734375 C-61.87765108 178.28122898 -63.48186363 178.28556329 -65.08607483 178.29032898 C-68.45121594 178.29779839 -71.81625216 178.29749482 -75.18139648 178.29223633 C-79.49707141 178.28644184 -83.81231716 178.30336841 -88.1279211 178.326581 C-91.44188453 178.34130254 -94.75574424 178.3421922 -98.06973457 178.33907127 C-99.66097425 178.33958532 -101.2522196 178.34483871 -102.84342766 178.35488319 C-105.06769683 178.36719963 -107.29112546 178.36048555 -109.51538086 178.34887695 C-110.78175888 178.34950638 -112.0481369 178.3501358 -113.35289001 178.3507843 C-116.43359375 177.9765625 -116.43359375 177.9765625 -118.33973694 176.77624512 C-119.81230502 174.35348269 -119.82783021 172.64103582 -119.85351562 169.80932617 C-119.86942749 168.75359909 -119.88533936 167.69787201 -119.9017334 166.6101532 C-119.90193481 165.46649796 -119.90213623 164.32284271 -119.90234375 163.14453125 C-119.90995728 161.96119705 -119.9175708 160.77786285 -119.92541504 159.55867004 C-119.93623652 157.04605213 -119.93906089 154.53338916 -119.93457031 152.02075195 C-119.93360711 148.21681901 -119.97501824 144.4149649 -120.01953125 140.61132812 C-120.11107706 122.16226139 -118.69744088 108.51309122 -105.3359375 94.828125 C-95.1090061 85.12426416 -84.12638555 82.04280448 -70.43359375 80.9765625 C-71.76390625 79.5534375 -71.76390625 79.5534375 -73.12109375 78.1015625 C-83.18226838 66.28442815 -85.49695893 52.01344483 -84.43359375 36.9765625 C-82.7028371 24.0660534 -76.1424119 11.68043281 -66.43359375 2.9765625 C-46.76524179 -11.87806368 -20.77787019 -14.21484569 0 0 Z " fill="#000101" transform="translate(119.43359375,334.0234375)"/>
<path d="M0 0 C0.90138702 -0.0071553 1.80277405 -0.01431061 2.73147583 -0.02168274 C5.70488476 -0.03856355 8.67678483 -0.01917224 11.65014648 0.00219727 C13.71850204 0.00136858 15.78685754 -0.00109077 17.85520935 -0.00511169 C22.18704076 -0.00796918 26.51835497 0.00672835 30.85009766 0.03417969 C36.4044224 0.0682834 41.9578236 0.06223656 47.51219273 0.04351711 C51.78187264 0.03295303 56.05133734 0.04187926 60.32099724 0.05690193 C62.36913349 0.0620871 64.41729218 0.0615979 66.46542549 0.05535698 C69.32640116 0.04991116 72.18605044 0.07025887 75.046875 0.09765625 C76.31794853 0.08786743 76.31794853 0.08786743 77.61470032 0.07788086 C83.35793964 0.17147796 83.35793964 0.17147796 86.45323181 2.53944397 C88.68295002 5.63727545 89.08255938 7.31329532 89.07226562 11.08081055 C89.07215233 12.46201584 89.07215233 12.46201584 89.07203674 13.87112427 C89.06687546 14.86699554 89.06171417 15.86286682 89.05639648 16.88891602 C89.05498154 17.90710419 89.05356659 18.92529236 89.05210876 19.97433472 C89.04649924 23.23495387 89.03394511 26.49550502 89.02124023 29.75610352 C89.01622646 31.96313378 89.01166334 34.17016511 89.00756836 36.37719727 C88.99652671 41.79518932 88.97977929 47.21314156 88.95874023 52.63110352 C90.04815918 52.60491943 91.13757813 52.57873535 92.26000977 52.55175781 C96.3188812 52.4609569 100.37766368 52.40374668 104.43725586 52.35644531 C106.19099039 52.33136885 107.9446211 52.29729856 109.69799805 52.25390625 C112.2252773 52.19294747 114.75117004 52.16482632 117.27905273 52.14282227 C118.05741486 52.11701584 118.83577698 52.09120941 119.63772583 52.06462097 C123.63194018 52.06258341 126.18759234 52.39523728 129.3762207 54.91162109 C133.01565013 58.7440662 134.20559437 61.28115214 134.22616577 66.55148315 C134.23896072 68.03602997 134.23896072 68.03602997 134.25201416 69.55056763 C134.2506546 71.16993729 134.2506546 71.16993729 134.24926758 72.82202148 C134.2559848 73.96388916 134.26270203 75.10575684 134.2696228 76.28222656 C134.28864416 80.06262546 134.29252908 83.84284722 134.29467773 87.62329102 C134.30110263 90.24879022 134.30783076 92.8742887 134.31484985 95.49978638 C134.32763633 101.00597285 134.33061519 106.51211123 134.3293457 112.01831055 C134.32814448 118.37588916 134.34924355 124.73312818 134.38083303 131.09062088 C134.41017051 137.21381834 134.41732091 143.33685325 134.41612625 149.46011734 C134.41848769 152.06204745 134.42734156 154.66398002 134.44279099 157.26586533 C134.4623744 160.9046628 134.45664205 164.54258508 134.44458008 168.18139648 C134.45581909 169.2569278 134.46705811 170.33245911 134.4786377 171.44058228 C134.4275785 177.49866683 133.99308853 181.01308928 129.95874023 185.63110352 C125.21935284 189.92617334 120.5094341 189.77429695 114.34936523 189.72875977 C113.70467285 189.72775269 113.05998047 189.72674561 112.39575195 189.72570801 C110.00006314 189.72049754 107.6043998 189.70653632 105.20874023 189.69360352 C97.16499023 189.66266602 97.16499023 189.66266602 88.95874023 189.63110352 C89.28874023 205.14110352 89.61874023 220.65110352 89.95874023 236.63110352 C91.93874023 234.65110352 93.91874023 232.67110352 95.95874023 230.63110352 C99.49746037 229.65490486 101.74830914 229.27124562 105.27124023 230.31860352 C107.43593914 232.00225822 108.17144939 232.98294341 108.95874023 235.63110352 C108.57777793 243.7605131 103.96552962 247.60544716 98.49609375 252.98583984 C96.89982852 254.56505356 95.34449568 256.17802505 93.78881836 257.79711914 C92.77350445 258.81565726 91.75599431 259.83201178 90.73608398 260.84594727 C89.82076904 261.76496826 88.9054541 262.68398926 87.96240234 263.63085938 C83.90272388 266.33434191 81.76073039 266.09267761 76.95874023 265.63110352 C74.95483398 264.62719727 74.95483398 264.62719727 73.39624023 263.06860352 C72.75299805 262.43954102 72.10975586 261.81047852 71.44702148 261.16235352 C70.62588867 260.32704102 69.80475586 259.49172852 68.95874023 258.63110352 C67.7045208 257.4307884 66.44778039 256.23310466 65.18920898 255.03735352 C63.81929941 253.71590734 62.45082496 252.3929719 61.08374023 251.06860352 C60.41656982 250.43172607 59.74939941 249.79484863 59.06201172 249.13867188 C55.44359174 245.56099674 52.9453025 242.80308147 51.95874023 237.63110352 C52.66033146 234.61426125 53.58389402 233.04759931 55.64624023 230.75610352 C59.23198591 229.0116867 61.16735745 229.47441046 64.95874023 230.63110352 C67.26874023 232.94110352 69.57874023 235.25110352 71.95874023 237.63110352 C72.28874023 221.79110352 72.61874023 205.95110352 72.95874023 189.63110352 C62.08436542 189.74942393 62.08436542 189.74942393 51.21044922 189.90136719 C49.83358462 189.91014005 48.45671216 189.91778209 47.07983398 189.92407227 C46.03237 189.94709412 46.03237 189.94709412 44.96374512 189.97058105 C39.81412856 189.973289 36.44606034 188.97120694 31.95874023 186.63110352 C28.10128918 182.57062872 26.83958032 179.44290717 26.81156921 173.91363525 C26.80441391 172.94358551 26.79725861 171.97353577 26.78988647 170.97409058 C26.78719757 169.91118805 26.78450867 168.84828552 26.78173828 167.75317383 C26.77188148 166.07226151 26.77188148 166.07226151 26.76182556 164.35739136 C26.74208177 160.64133643 26.7304277 156.92532192 26.72045898 153.20922852 C26.71638346 151.94093956 26.71230793 150.6726506 26.7081089 149.36592865 C26.68939572 143.34579528 26.67483088 137.32568643 26.66649693 131.30553174 C26.65672979 124.36536563 26.63042219 117.4255189 26.58999604 110.48546529 C26.55614882 104.46747326 26.54434796 98.4496358 26.54029274 92.43154144 C26.53541962 89.87508732 26.52378515 87.31863679 26.50525475 84.76224518 C26.48092512 81.18344161 26.48181759 77.60547217 26.48876953 74.02661133 C26.47595947 72.97180573 26.46314941 71.91700012 26.44995117 70.83023071 C26.49446003 64.54005407 27.23869627 60.76007235 30.95874023 55.63110352 C35.08095325 52.05718529 39.32514077 52.23506436 44.54077148 52.33813477 C45.35495041 52.34237961 46.16912933 52.34662445 47.00798035 52.35099792 C49.59607691 52.36772599 52.18338095 52.4053664 54.77124023 52.44360352 C56.53099457 52.45865799 58.29076118 52.47234506 60.05053711 52.48461914 C64.35381887 52.51505253 68.65539753 52.57378223 72.95874023 52.63110352 C72.95874023 40.75110352 72.95874023 28.87110352 72.95874023 16.63110352 C67.09737305 16.68911133 61.23600586 16.74711914 55.19702148 16.80688477 C51.48280109 16.83243381 47.76868909 16.85650337 44.05444336 16.87524414 C38.15943897 16.9051292 32.26482304 16.94047531 26.37011719 17.00830078 C21.61738518 17.06264403 16.86506973 17.09252901 12.11205101 17.10548973 C10.29911936 17.11472547 8.48621041 17.13276104 6.67345619 17.1597538 C4.13304078 17.19607592 1.59434441 17.2010477 -0.94628906 17.19873047 C-1.69507324 17.21670685 -2.44385742 17.23468323 -3.21533203 17.25320435 C-7.15859184 17.21430944 -8.87736118 16.76081248 -12.00813293 14.28312683 C-14.04125977 11.63110352 -14.04125977 11.63110352 -14.66625977 8.63110352 C-12.97105034 0.49409826 -7.048087 -0.09748252 0 0 Z " fill="#000101" transform="translate(343.041259765625,44.368896484375)"/>
<path d="M0 0 C0.89934265 -0.0065712 1.7986853 -0.0131424 2.72528076 -0.01991272 C5.7096769 -0.03966799 8.69402267 -0.05131302 11.6784668 -0.0612793 C12.69642019 -0.06535482 13.71437359 -0.06943035 14.76317406 -0.07362938 C20.15054498 -0.09449921 25.53789035 -0.10879722 30.92529297 -0.11816406 C36.49406545 -0.12923296 42.06243883 -0.16363595 47.63107014 -0.20333576 C51.90930431 -0.2294619 56.1874428 -0.23785232 60.46574974 -0.24144554 C62.51867558 -0.24632152 64.57159686 -0.25796416 66.62444496 -0.27648354 C69.49734891 -0.30079061 72.36921254 -0.29992538 75.2421875 -0.29296875 C76.09068771 -0.30577881 76.93918793 -0.31858887 77.81340027 -0.33178711 C81.7940863 -0.29664257 83.85499584 -0.0987668 87.34318542 1.99153137 C89.31518555 4.17700195 89.31518555 4.17700195 89.94018555 7.61450195 C89.14531838 12.14524479 87.91825767 13.36823381 84.31518555 16.17700195 C81.41313422 16.64678612 79.11096766 16.81402844 76.22021484 16.74462891 C75.01943047 16.74572411 75.01943047 16.74572411 73.79438782 16.74684143 C71.15869458 16.7433688 68.52478725 16.70452529 65.8894043 16.6652832 C64.05810003 16.65595387 62.22678326 16.64883832 60.39546204 16.6438446 C55.58321478 16.62478421 50.77172607 16.57569179 45.95977783 16.52032471 C40.18210272 16.46010208 34.40417348 16.4372114 28.62627411 16.40805817 C19.85538423 16.35962605 11.08615761 16.26380506 2.31518555 16.17700195 C2.31518555 28.05700195 2.31518555 39.93700195 2.31518555 52.17700195 C4.91651367 52.1305957 7.5178418 52.08418945 10.19799805 52.03637695 C12.72987926 52.00514218 15.26173865 51.98087683 17.79370117 51.95727539 C19.54738034 51.93721485 21.30099307 51.90995944 23.05444336 51.87524414 C25.58162873 51.82647893 28.10792646 51.80397803 30.63549805 51.78637695 C31.41386017 51.76573181 32.19222229 51.74508667 32.99417114 51.72381592 C38.20064141 51.72169115 41.32248599 52.53440989 45.31518555 56.17700195 C48.68660262 62.23202916 48.74323889 67.60020343 48.70336914 74.43310547 C48.7086261 75.54615051 48.71388306 76.65919556 48.71929932 77.80596924 C48.73246689 81.47275971 48.72377294 85.13911357 48.71362305 88.8059082 C48.71564456 91.35985904 48.71855664 93.91380931 48.72232056 96.46775818 C48.72673941 101.81482992 48.72061387 107.1617461 48.70629883 112.50878906 C48.68996588 118.68064174 48.69526958 124.85219716 48.71177804 131.02404267 C48.72705738 136.97584595 48.72540872 142.92755728 48.71663284 148.87937737 C48.71463249 151.40593444 48.71708433 153.93249911 48.7240715 156.45904732 C48.73169368 159.9896668 48.7200705 163.51971594 48.70336914 167.05029297 C48.70944183 168.09305893 48.71551453 169.13582489 48.72177124 170.21018982 C48.67443383 175.61437561 48.40248129 179.53280615 45.31518555 184.17700195 C39.96981681 189.24824922 35.60713065 189.32569957 28.48706055 189.2746582 C27.49053467 189.27314758 27.49053467 189.27314758 26.47387695 189.27160645 C24.00429546 189.26639457 21.53473868 189.25243335 19.06518555 189.23950195 C13.53768555 189.21887695 8.01018555 189.19825195 2.31518555 189.17700195 C2.64518555 205.01700195 2.97518555 220.85700195 3.31518555 237.17700195 C5.62518555 234.86700195 7.93518555 232.55700195 10.31518555 230.17700195 C13.94018555 228.98950195 13.94018555 228.98950195 17.31518555 229.17700195 C20.46316372 230.95629397 21.9102618 232.21530806 23.31518555 235.55200195 C23.31518555 240.07887148 21.05749008 243.31133206 18.17041016 246.67822266 C16.95623413 247.87838013 16.95623413 247.87838013 15.7175293 249.1027832 C14.83387695 249.9812793 13.95022461 250.85977539 13.03979492 251.76489258 C12.12004883 252.66401367 11.20030273 253.56313477 10.25268555 254.48950195 C9.32907227 255.40795898 8.40545898 256.32641602 7.45385742 257.27270508 C-0.42107871 265.05560397 -0.42107871 265.05560397 -5.44873047 265.53857422 C-10.12757891 265.46690234 -12.15171967 263.71568801 -15.4621582 260.3918457 C-16.20738487 259.65098473 -16.20738487 259.65098473 -16.96766663 258.89515686 C-18.00818889 257.85133034 -19.03890429 256.79764467 -20.06005859 255.73486328 C-21.6185645 254.11839138 -23.21109762 252.5426284 -24.81176758 250.96801758 C-33.34986567 242.32452236 -33.34986567 242.32452236 -33.68481445 235.17700195 C-32.89752361 232.52884185 -32.16201336 231.54815666 -29.99731445 229.86450195 C-26.47438336 228.81714406 -24.22353459 229.2008033 -20.68481445 230.17700195 C-18.70481445 232.15700195 -16.72481445 234.13700195 -14.68481445 236.17700195 C-14.35481445 220.66700195 -14.02481445 205.15700195 -13.68481445 189.17700195 C-24.23009514 189.29530491 -24.23009514 189.29530491 -34.77490234 189.44726562 C-36.11075109 189.45603902 -37.44660795 189.46368094 -38.7824707 189.4699707 C-39.797547 189.49299255 -39.797547 189.49299255 -40.83312988 189.51647949 C-45.91795422 189.5192345 -49.25081623 188.48476746 -53.68481445 186.17700195 C-57.32688851 182.24739573 -58.80569977 179.79019248 -58.83198547 174.49713135 C-58.83914078 173.5101828 -58.84629608 172.52323425 -58.85366821 171.50637817 C-58.85635712 170.41960785 -58.85904602 169.33283752 -58.86181641 168.21313477 C-58.8683876 167.07155914 -58.8749588 165.92998352 -58.88172913 164.7538147 C-58.90149713 160.96258484 -58.91313252 157.17139466 -58.9230957 153.38012695 C-58.92717123 152.08760765 -58.93124676 150.79508835 -58.93544579 149.46340179 C-58.95416706 143.32847282 -58.96872932 137.19356379 -58.97705775 131.05861211 C-58.98682565 123.98032754 -59.01313211 116.90235606 -59.05355865 109.8241818 C-59.08738149 103.69139515 -59.09920481 97.55873991 -59.10326195 91.42586517 C-59.10813932 88.81834541 -59.1197858 86.21082926 -59.13829994 83.60337067 C-59.16259598 79.95480825 -59.16174322 76.30706548 -59.15478516 72.65844727 C-59.16759521 71.57977386 -59.18040527 70.50110046 -59.19360352 69.38973999 C-59.14246901 62.03875562 -57.96623798 58.71976543 -52.96508789 53.3203125 C-49.47813745 51.57198392 -46.01007335 51.80924055 -42.20043945 51.8840332 C-41.38484558 51.88827805 -40.56925171 51.89252289 -39.72894287 51.89689636 C-37.13056061 51.9136548 -34.53296126 51.95130098 -31.93481445 51.98950195 C-30.17050276 52.00455249 -28.40617888 52.01824026 -26.6418457 52.03051758 C-22.32253481 52.06354894 -18.00380726 52.11531109 -13.68481445 52.17700195 C-13.69147629 51.61181351 -13.69813812 51.04662506 -13.70500183 50.46430969 C-13.77143169 44.57571101 -13.81664677 38.68721899 -13.84960938 32.79833984 C-13.86468497 30.60135575 -13.88514871 28.40440169 -13.91113281 26.20751953 C-13.94756948 23.04753195 -13.96455329 19.88794271 -13.9777832 16.7277832 C-14.00100899 15.25720207 -14.00100899 15.25720207 -14.02470398 13.75691223 C-14.02682607 5.13551594 -14.02682607 5.13551594 -10.68481445 1.17700195 C-7.36553561 -0.48263747 -3.65030107 0.01148563 0 0 Z " fill="#000001" transform="translate(93.684814453125,44.822998046875)"/>
<path d="M0 0 C20.59274998 16.09358916 34.10501615 38.53745619 37.89892578 64.59423828 C40.92580323 90.54634241 34.5946591 118.13510828 18.52392578 138.98095703 C17.15289096 140.58581175 15.75576627 142.16866138 14.33642578 143.73095703 C13.53720703 144.62298828 12.73798828 145.51501953 11.91455078 146.43408203 C-5.1342558 164.49169373 -29.22645328 175.08468692 -54.12451172 175.93408203 C-78.21745449 176.32366587 -99.99141371 171.08564268 -119.66357422 156.73095703 C-120.57623047 156.08255859 -121.48888672 155.43416016 -122.42919922 154.76611328 C-142.29247737 139.86865467 -153.22146445 115.74163549 -156.97607422 91.73266602 C-160.55185532 65.50495017 -153.9645612 40.16046697 -138.31152344 18.89404297 C-105.68672642 -23.62841974 -42.92139776 -32.74221097 0 0 Z M-116.66357422 17.73095703 C-117.58589844 18.51019531 -117.58589844 18.51019531 -118.52685547 19.30517578 C-131.86636145 31.47939158 -140.83487515 51.62019022 -141.81152344 69.42871094 C-141.9120615 72.44735365 -141.95919729 75.46070964 -141.97607422 78.48095703 C-141.98171387 79.43929443 -141.98735352 80.39763184 -141.99316406 81.38500977 C-141.77213896 103.09978928 -132.19407341 122.63756205 -117.38232422 138.20361328 C-99.83269178 154.51771125 -79.02630003 161.70832892 -55.51513672 160.98095703 C-33.01442085 159.94525089 -12.76770911 149.51897775 2.65673828 133.28955078 C19.33569095 113.43832672 23.81700069 91.18920918 22.33642578 65.73095703 C20.24847987 46.89380568 8.86693614 26.76031397 -5.66357422 14.73095703 C-39.53358363 -9.8227295 -84.51398079 -10.32385169 -116.66357422 17.73095703 Z " fill="#010101" transform="translate(315.66357421875,231.26904296875)"/>
<path d="M0 0 C1.33828102 -0.01029488 1.33828102 -0.01029488 2.70359802 -0.02079773 C5.63150276 -0.03898944 8.55886767 -0.03523876 11.48681641 -0.02954102 C13.53651095 -0.03410681 15.58620396 -0.03941357 17.63589478 -0.04542542 C21.92448153 -0.05434182 26.21288192 -0.0519505 30.50146484 -0.04199219 C35.97771323 -0.03051073 41.45331599 -0.05070921 46.9294796 -0.07990932 C51.16075682 -0.0983203 55.39188076 -0.09796899 59.62318802 -0.0922718 C61.64126109 -0.09211916 63.65934492 -0.09811646 65.67737961 -0.11056328 C79.46950426 -0.18364674 91.26584008 0.23771061 101.71337891 10.40405273 C108.44780529 18.5597486 111.0369494 25.25349153 110.90869141 35.73999023 C110.90586151 36.61934235 110.90303162 37.49869446 110.90011597 38.4046936 C110.88897602 41.19628867 110.86388302 43.98755564 110.83837891 46.77905273 C110.8283411 48.67878766 110.81921665 50.57852765 110.81103516 52.47827148 C110.78905697 57.1203238 110.75457001 61.76213275 110.71337891 66.40405273 C105.10337891 66.40405273 99.49337891 66.40405273 93.71337891 66.40405273 C93.67470703 63.76663086 93.67470703 63.76663086 93.63525391 61.07592773 C93.57897789 58.76861107 93.52163045 56.46132037 93.46337891 54.15405273 C93.44919922 52.99518555 93.43501953 51.83631836 93.42041016 50.64233398 C93.38818359 49.52729492 93.35595703 48.41225586 93.32275391 47.26342773 C93.30180664 46.23701172 93.28085937 45.2105957 93.25927734 44.15307617 C92.57860264 40.72534935 91.45266865 39.51721911 88.71337891 37.40405273 C85.60391662 36.95984384 83.68924255 36.72246283 81.06176758 38.55761719 C79.15196221 41.17283682 79.28011629 43.16781982 79.20166016 46.38452148 C79.14848633 48.12958984 79.14848633 48.12958984 79.09423828 49.90991211 C79.07167969 51.12485352 79.04912109 52.33979492 79.02587891 53.59155273 C78.99171875 54.8180957 78.95755859 56.04463867 78.92236328 57.30834961 C78.8397848 60.34015951 78.77066521 63.37167653 78.71337891 66.40405273 C77.54766357 66.42387207 76.38194824 66.44369141 75.1809082 66.46411133 C70.85890985 66.54014233 66.53724928 66.6288635 62.21557617 66.72143555 C60.34455022 66.75973567 58.47345038 66.79458674 56.60229492 66.82592773 C53.91379371 66.87155597 51.22580167 66.92955361 48.53759766 66.98999023 C47.70000412 67.00154144 46.86241058 67.01309265 45.99943542 67.0249939 C42.08964854 67.1245173 40.03628361 67.18878293 36.71337891 69.40405273 C36.05337891 71.05405273 35.39337891 72.70405273 34.71337891 74.40405273 C28.11337891 74.40405273 21.51337891 74.40405273 14.71337891 74.40405273 C14.05337891 72.75405273 13.39337891 71.10405273 12.71337891 69.40405273 C9.19181926 67.05634631 7.20566047 67.02735659 3.02587891 66.77905273 C1.84638672 66.70428711 0.66689453 66.62952148 -0.54833984 66.55249023 C-1.90378906 66.47901367 -1.90378906 66.47901367 -3.28662109 66.40405273 C-3.30063965 65.2994873 -3.30063965 65.2994873 -3.31494141 64.17260742 C-3.36866264 60.83241055 -3.45230731 57.49361154 -3.53662109 54.15405273 C-3.55080078 52.99518555 -3.56498047 51.83631836 -3.57958984 50.64233398 C-3.61181641 49.52729492 -3.64404297 48.41225586 -3.67724609 47.26342773 C-3.69819336 46.23701172 -3.71914063 45.2105957 -3.74072266 44.15307617 C-4.42139736 40.72534935 -5.54733135 39.51721911 -8.28662109 37.40405273 C-11.39608338 36.95984384 -13.31075745 36.72246283 -15.93823242 38.55761719 C-17.84803779 41.17283682 -17.71988371 43.16781982 -17.79833984 46.38452148 C-17.83378906 47.54790039 -17.86923828 48.7112793 -17.90576172 49.90991211 C-17.92832031 51.12485352 -17.95087891 52.33979492 -17.97412109 53.59155273 C-18.00828125 54.8180957 -18.04244141 56.04463867 -18.07763672 57.30834961 C-18.16020885 60.33992651 -18.22508839 63.37197583 -18.28662109 66.40405273 C-24.22662109 66.40405273 -30.16662109 66.40405273 -36.28662109 66.40405273 C-36.37908346 61.19277131 -36.45852301 55.98440126 -36.50634766 50.77294922 C-36.52630871 49.0049468 -36.55348761 47.23700907 -36.58837891 45.46923828 C-36.83371825 32.70798472 -36.48602913 21.55707193 -28.04833984 11.18530273 C-20.23307883 3.28339802 -10.89971136 -0.05946422 0 0 Z " fill="#FDCF5A" transform="translate(386.28662109375,430.595947265625)"/>
<path d="M0 0 C0.85927597 -0.0065712 1.71855194 -0.0131424 2.60386658 -0.01991272 C5.44090881 -0.03958256 8.27789817 -0.05129638 11.11499023 -0.0612793 C12.08835768 -0.06535482 13.06172512 -0.06943035 14.06458855 -0.07362938 C19.22014018 -0.09446669 24.37566541 -0.10877658 29.53125 -0.11816406 C34.83133713 -0.12920275 40.13100148 -0.16358015 45.43093967 -0.20333576 C49.52759022 -0.22960343 53.62414173 -0.23786505 57.72086906 -0.24144554 C59.67311383 -0.24628799 61.62535487 -0.25783434 63.57751656 -0.27648354 C76.45463798 -0.39182052 89.05703827 -0.34801164 99.54467773 8.27856445 C107.56187337 16.65782699 110.70413933 25.79350962 110.55639648 37.1730957 C110.55356659 38.00664078 110.55073669 38.84018585 110.54782104 39.69898987 C110.53670687 42.33764555 110.51161913 44.97595043 110.48608398 47.61450195 C110.47604284 49.41332514 110.46691898 51.2121537 110.45874023 53.01098633 C110.43850551 57.39989912 110.39934109 61.78806205 110.36108398 66.17700195 C104.42108398 66.17700195 98.48108398 66.17700195 92.36108398 66.17700195 C92.30500977 63.41389648 92.30500977 63.41389648 92.24780273 60.5949707 C92.18215589 58.18479365 92.11570812 55.77463832 92.04858398 53.36450195 C92.02602539 52.14956055 92.0034668 50.93461914 91.98022461 49.68286133 C91.94477539 48.51948242 91.90932617 47.35610352 91.87280273 46.1574707 C91.84661865 45.08392334 91.82043457 44.01037598 91.79345703 42.90429688 C91.56869425 40.17906792 91.56869425 40.17906792 90.04785156 38.33056641 C87.17098166 36.36310219 84.71349196 36.75795096 81.36108398 37.17700195 C78.25021221 40.24059604 77.95814723 42.77212257 77.84936523 47.03637695 C77.79619141 48.70893555 77.79619141 48.70893555 77.74194336 50.4152832 C77.71938477 51.57415039 77.69682617 52.73301758 77.67358398 53.92700195 C77.63942383 55.10133789 77.60526367 56.27567383 77.57006836 57.4855957 C77.48763226 60.38263585 77.41846588 63.27937493 77.36108398 66.17700195 C76.20322388 66.20673096 76.20322388 66.20673096 75.02197266 66.23706055 C71.5304944 66.33221338 68.03962247 66.44193243 64.54858398 66.55200195 C62.72617188 66.5984082 62.72617188 66.5984082 60.86694336 66.64575195 C59.70356445 66.68442383 58.54018555 66.7230957 57.34155273 66.76293945 C56.26800537 66.79436035 55.19445801 66.82578125 54.08837891 66.8581543 C51.14500749 66.99292503 51.14500749 66.99292503 48.36108398 69.17700195 C47.70108398 70.82700195 47.04108398 72.47700195 46.36108398 74.17700195 C39.76108398 74.17700195 33.16108398 74.17700195 26.36108398 74.17700195 C25.70108398 72.52700195 25.04108398 70.87700195 24.36108398 69.17700195 C20.92347283 66.88526118 19.44036783 66.88176148 15.38061523 66.76293945 C14.21723633 66.72426758 13.05385742 66.6855957 11.85522461 66.64575195 C10.6402832 66.61481445 9.4253418 66.58387695 8.17358398 66.55200195 C6.33376953 66.49399414 6.33376953 66.49399414 4.45678711 66.43481445 C1.42503742 66.34044092 -1.60670443 66.25485646 -4.63891602 66.17700195 C-4.65349854 65.40509521 -4.66808105 64.63318848 -4.68310547 63.83789062 C-4.75749634 60.34625102 -4.85418691 56.85557706 -4.95141602 53.36450195 C-4.97397461 52.14956055 -4.9965332 50.93461914 -5.01977539 49.68286133 C-5.07294922 47.93779297 -5.07294922 47.93779297 -5.12719727 46.1574707 C-5.15338135 45.08392334 -5.17956543 44.01037598 -5.20654297 42.90429688 C-5.43130575 40.17906792 -5.43130575 40.17906792 -6.95214844 38.33056641 C-9.82901834 36.36310219 -12.28650804 36.75795096 -15.63891602 37.17700195 C-18.74978779 40.24059604 -19.04185277 42.77212257 -19.15063477 47.03637695 C-19.18608398 48.15141602 -19.2215332 49.26645508 -19.25805664 50.4152832 C-19.28061523 51.57415039 -19.30317383 52.73301758 -19.32641602 53.92700195 C-19.36057617 55.10133789 -19.39473633 56.27567383 -19.42993164 57.4855957 C-19.51236092 60.38239596 -19.57731615 63.27968392 -19.63891602 66.17700195 C-25.24891602 66.17700195 -30.85891602 66.17700195 -36.63891602 66.17700195 C-36.73116989 60.64433193 -36.81067701 55.11437173 -36.85864258 49.58154297 C-36.87865422 47.70286983 -36.90587238 45.82425815 -36.94067383 43.94580078 C-36.98965572 41.23234823 -37.0119893 38.51972499 -37.02954102 35.8059082 C-37.05018616 34.9774086 -37.0708313 34.148909 -37.09210205 33.29530334 C-37.09546039 24.40102449 -33.37024673 16.00513739 -27.11157227 9.6184082 C-18.85773266 2.11321618 -11.01418531 0.03680217 0 0 Z " fill="#5E98D6" transform="translate(51.638916015625,430.822998046875)"/>
<path d="M0 0 C1.3502829 -0.01029488 1.3502829 -0.01029488 2.72784424 -0.02079773 C5.68884283 -0.03902256 8.64930917 -0.03523312 11.61035156 -0.02954102 C13.68149995 -0.03410605 15.75264682 -0.03941258 17.8237915 -0.04542542 C22.16123615 -0.05434896 26.49849661 -0.05194331 30.8359375 -0.04199219 C36.37152712 -0.03052483 41.9064767 -0.0506839 47.44198227 -0.07990932 C51.7196247 -0.09833473 55.99711571 -0.09796588 60.2747879 -0.0922718 C62.31436305 -0.09211925 64.3539489 -0.09810856 66.39348602 -0.11056328 C79.55511809 -0.17959685 91.25026876 -0.05673696 101.96582031 8.63452148 C107.84595064 14.46318459 111.7869934 21.47568005 111.97802734 29.84887695 C111.97771371 31.55219754 111.96659426 33.25554065 111.94628906 34.95874023 C111.94345917 35.86028839 111.94062927 36.76183655 111.93771362 37.69070435 C111.92657095 40.55362549 111.90147736 43.41622707 111.87597656 46.27905273 C111.86593912 48.22696486 111.8568146 50.17488193 111.84863281 52.12280273 C111.82665099 56.88334144 111.79216206 61.64364301 111.75097656 66.40405273 C106.14097656 66.40405273 100.53097656 66.40405273 94.75097656 66.40405273 C94.69490234 63.64094727 94.69490234 63.64094727 94.63769531 60.82202148 C94.57204847 58.41184443 94.5056007 56.0016891 94.43847656 53.59155273 C94.41591797 52.37661133 94.39335937 51.16166992 94.37011719 49.90991211 C94.33466797 48.7465332 94.29921875 47.5831543 94.26269531 46.38452148 C94.23651123 45.31097412 94.21032715 44.23742676 94.18334961 43.13134766 C93.95812938 40.40586049 93.95812938 40.40586049 92.43774414 38.55371094 C89.5940541 36.61552359 87.06776411 37.04868264 83.75097656 37.40405273 C81.94863031 38.4892511 81.94863031 38.4892511 80.75097656 40.40405273 C80.24490296 43.20692564 80.24490296 43.20692564 80.23925781 46.38452148 C80.18608398 48.12958984 80.18608398 48.12958984 80.13183594 49.90991211 C80.10927734 51.12485352 80.08671875 52.33979492 80.06347656 53.59155273 C80.02931641 54.8180957 79.99515625 56.04463867 79.95996094 57.30834961 C79.87738246 60.34015951 79.80826287 63.37167653 79.75097656 66.40405273 C78.50380859 66.46012695 78.50380859 66.46012695 77.23144531 66.51733398 C76.14476562 66.58307617 75.05808594 66.64881836 73.93847656 66.71655273 C72.85953125 66.77456055 71.78058594 66.83256836 70.66894531 66.89233398 C67.78674427 67.18290768 67.78674427 67.18290768 65.92675781 68.69702148 C64.44495953 70.63483242 64.44495953 70.63483242 63.75097656 74.40405273 C57.15097656 74.40405273 50.55097656 74.40405273 43.75097656 74.40405273 C43.09097656 72.75405273 42.43097656 71.10405273 41.75097656 69.40405273 C39.38464649 67.03772266 38.88461501 67.14298037 35.66845703 67.08520508 C34.82773651 67.06533539 33.98701599 67.0454657 33.12081909 67.0249939 C32.21244293 67.01344269 31.30406677 67.00189148 30.36816406 66.98999023 C29.43876007 66.97062408 28.50935608 66.95125793 27.55178833 66.93130493 C24.57661176 66.87141589 21.60139669 66.82508663 18.62597656 66.77905273 C16.61163656 66.74088153 14.59731302 66.70183031 12.58300781 66.66186523 C7.63913081 66.56570673 2.69517739 66.48171034 -2.24902344 66.40405273 C-2.26360596 65.632146 -2.27818848 64.86023926 -2.29321289 64.06494141 C-2.36760377 60.57330181 -2.46429434 57.08262784 -2.56152344 53.59155273 C-2.58408203 52.37661133 -2.60664063 51.16166992 -2.62988281 49.90991211 C-2.68305664 48.16484375 -2.68305664 48.16484375 -2.73730469 46.38452148 C-2.76348877 45.31097412 -2.78967285 44.23742676 -2.81665039 43.13134766 C-3.04187062 40.40586049 -3.04187062 40.40586049 -4.56225586 38.55371094 C-7.4059459 36.61552359 -9.93223589 37.04868264 -13.24902344 37.40405273 C-15.05136969 38.4892511 -15.05136969 38.4892511 -16.24902344 40.40405273 C-16.75509704 43.20692564 -16.75509704 43.20692564 -16.76074219 46.38452148 C-16.79619141 47.54790039 -16.83164063 48.7112793 -16.86816406 49.90991211 C-16.89072266 51.12485352 -16.91328125 52.33979492 -16.93652344 53.59155273 C-16.97068359 54.8180957 -17.00484375 56.04463867 -17.04003906 57.30834961 C-17.1226112 60.33992651 -17.18749074 63.37197583 -17.24902344 66.40405273 C-22.85902344 66.40405273 -28.46902344 66.40405273 -34.24902344 66.40405273 C-34.34849669 60.72986871 -34.42077592 55.05620123 -34.46875 49.38134766 C-34.48876587 47.45417428 -34.51598726 45.52706087 -34.55078125 43.60009766 C-34.59974384 40.81715021 -34.62209261 38.03501118 -34.63964844 35.25170898 C-34.66029358 34.4013356 -34.68093872 33.55096222 -34.70220947 32.67481995 C-34.70540762 23.99285389 -31.25662615 15.74625611 -25.24902344 9.40405273 C-17.31506938 3.05390118 -10.09314414 -0.05431517 0 0 Z " fill="#61DAF9" transform="translate(217.2490234375,105.595947265625)"/>
<path d="M0 0 C25.08 0 50.16 0 76 0 C76 34.98 76 69.96 76 106 C50.92 106 25.84 106 0 106 C0 71.02 0 36.04 0 0 Z " fill="#DEF5FC" transform="translate(386,112)"/>
<path d="M0 0 C25.08 0 50.16 0 76 0 C76 34.98 76 69.96 76 106 C50.92 106 25.84 106 0 106 C0 71.02 0 36.04 0 0 Z " fill="#DCF3FA" transform="translate(50,112)"/>
<path d="M0 0 C6.33388486 3.51550527 10.45923279 8.03424206 12.75 14.9375 C13.68355684 22.19970375 12.91973884 27.91871803 8.75 33.9375 C0.17683103 44.08527697 -9.39356511 53.37411019 -18.7512207 62.78881836 C-20.71404212 64.7650323 -22.66930483 66.74829355 -24.6184082 68.73803711 C-27.45915504 71.63793585 -30.32045325 74.51673734 -33.18359375 77.39453125 C-34.04431992 78.27792679 -34.90504608 79.16132233 -35.79185486 80.07148743 C-42.23965866 86.49717987 -48.88380796 91.84813863 -58.25 92.5625 C-70.30368697 91.75443808 -78.14789284 82.82279674 -86.11987305 74.71948242 C-88.0584643 72.75409149 -90.02233971 70.81685947 -91.99023438 68.88085938 C-99.16781772 61.72505903 -105.79533706 55.11142778 -107.87890625 44.8359375 C-107.69299672 37.77137519 -106.53610734 32.51642879 -101.671875 27.21875 C-96.56888407 22.52951509 -91.31777792 19.83205446 -84.3125 19.5 C-72.89885919 19.99773772 -66.61931905 28.1260218 -59.25 35.9375 C-56.2298347 34.58804691 -54.17739287 33.09670865 -51.87768555 30.72875977 C-50.92100227 29.75248375 -50.92100227 29.75248375 -49.94499207 28.75648499 C-49.26576187 28.054384 -48.58653168 27.35228302 -47.88671875 26.62890625 C-46.42801554 25.14490587 -44.96902203 23.66119079 -43.50976562 22.17773438 C-41.22164862 19.84004109 -38.93683014 17.49931049 -36.6574707 15.15307617 C-34.45111787 12.88610531 -32.23232292 10.63190694 -30.01171875 8.37890625 C-29.33856125 7.6788295 -28.66540375 6.97875275 -27.97184753 6.25746155 C-19.91917066 -1.87928858 -10.86064099 -4.94853266 0 0 Z " fill="#040605" transform="translate(304.25,269.0625)"/>
<path d="M0 0 C7.60519379 6.56679233 12.64773229 14.89651503 13.4453125 24.96875 C13.98269196 36.47233445 12.1938961 45.93653393 4.78125 55.12890625 C-3.93894463 64.16859077 -13.57283366 67.7725224 -26.03125 68.19140625 C-37.17670181 67.88754988 -45.04391276 63.47343683 -52.96875 55.75390625 C-60.62927064 46.65804595 -62.73481632 37.32489658 -62.31640625 25.6328125 C-61.39855526 15.3920705 -56.08458623 7.32926956 -48.59375 0.50390625 C-33.97505203 -11.31956815 -15.14120919 -10.94446099 0 0 Z " fill="#FCD0A3" transform="translate(447.96875,348.24609375)"/>
<path d="M0 0 C8.84019358 6.25824149 14.99286072 14.38480932 17.39453125 24.9921875 C17.47703125 26.2090625 17.55953125 27.4259375 17.64453125 28.6796875 C17.70769531 29.57558594 17.77085938 30.47148437 17.8359375 31.39453125 C18.25764105 41.96432658 15.50247575 50.44800627 8.70703125 58.60546875 C1.95761593 65.39323302 -5.74678547 69.92874245 -15.35546875 70.6796875 C-16.79986328 70.79570312 -16.79986328 70.79570312 -18.2734375 70.9140625 C-29.07148668 71.37849472 -37.25777258 68.55165147 -45.66796875 61.7421875 C-53.13034482 54.41242231 -57.56746041 46.17717067 -57.97998047 35.73242188 C-57.98260693 23.00984598 -54.9404368 14.36220838 -46.35546875 4.6796875 C-33.11495336 -7.03586908 -15.36351338 -8.6117206 0 0 Z " fill="#FCD0A3" transform="translate(108.35546875,345.3203125)"/>
<path d="M0 0 C10.27895042 -0.56445103 19.18073657 2.77911194 27.015625 9.4140625 C35.20855102 17.43380472 39.42722039 26.04137539 39.953125 37.4140625 C39.69778 48.90458728 35.56371365 57.95717438 27.765625 66.125 C19.35335657 74.16414362 10.94358394 75.84423088 -0.37988281 75.69287109 C-11.25362786 75.27398917 -18.40422459 72.22392756 -26.26171875 64.578125 C-33.94937022 56.20928922 -37.09073361 46.27167097 -36.703125 34.91796875 C-35.47599707 23.17503622 -29.69100853 14.46697012 -20.78515625 6.953125 C-14.24811098 2.17730019 -7.95700418 0.74436491 0 0 Z " fill="#FCD0A3" transform="translate(254.421875,14.7734375)"/>
<path d="M0 0 C12.52200624 11.38364204 21.25794239 29.83780534 22.14355469 46.73974609 C22.97656027 72.52580504 17.60549874 93.42159206 0.6875 113.3125 C-13.95401379 128.71003 -34.41305703 138.4067119 -55.71484375 139.23828125 C-79.35903645 139.7445712 -97.69512752 132.97671385 -116 118 C-112.85712429 116.42856214 -110.02887494 117.93650219 -106.8125 118.875 C-84.33459442 125.36116181 -61.1041761 121.94650381 -40.52734375 111.18359375 C-17.19434132 97.41740042 -3.80195204 77.76037798 3.8125 52.28125 C7.08101694 37.9360923 5.60227065 22.09278567 2 8 C1.78730469 7.11054688 1.57460938 6.22109375 1.35546875 5.3046875 C0.92593104 3.53091308 0.4680041 1.76401545 0 0 Z " fill="#C6ECFB" transform="translate(316,253)"/>
<path d="M0 0 C7.59 0 15.18 0 23 0 C23 34.98 23 69.96 23 106 C15.41 106 7.82 106 0 106 C-0.11470908 99.64511683 -0.21427153 93.29381392 -0.2746582 86.9387207 C-0.29982499 84.77648764 -0.33396158 82.61433982 -0.37719727 80.45239258 C-0.43775296 77.34695428 -0.46618787 74.24263903 -0.48828125 71.13671875 C-0.52699089 69.68346443 -0.52699089 69.68346443 -0.56648254 68.20085144 C-0.56753124 65.69971456 -0.53912976 63.44259169 0 61 C2.46801758 58.99145508 2.46801758 58.99145508 5 58 C6.39935013 55.20129973 6.25265405 53.09501208 6 50 C5.04138887 48.18268469 5.04138887 48.18268469 3 47 C0.27975904 46.66901087 -2.22459295 46.51149174 -4.94921875 46.48828125 C-5.72183548 46.47033005 -6.49445221 46.45237885 -7.29048157 46.43388367 C-9.756099 46.37973896 -12.22152243 46.34587269 -14.6875 46.3125 C-16.36005306 46.27933048 -18.03258051 46.24484115 -19.70507812 46.20898438 C-23.8032455 46.12401051 -27.90135494 46.0572198 -32 46 C-32 45.67 -32 45.34 -32 45 C-21.44 45 -10.88 45 0 45 C0 40.38 0 35.76 0 31 C-10.56 31 -21.12 31 -32 31 C-32 30.67 -32 30.34 -32 30 C-30.95545654 29.98541748 -29.91091309 29.97083496 -28.8347168 29.95581055 C-24.95985655 29.89784449 -21.08557849 29.82061226 -17.21118164 29.73754883 C-15.53419441 29.70429137 -13.85709503 29.67626192 -12.17993164 29.65356445 C-9.76920775 29.62003263 -7.35951238 29.56772022 -4.94921875 29.51171875 C-4.19912033 29.50532883 -3.44902191 29.4989389 -2.67619324 29.49235535 C1.37315526 29.38502703 1.37315526 29.38502703 4.96166992 27.68286133 C6.8150068 24.67908727 6.53764953 22.40511367 6 19 C5.00613281 18.42636719 4.01226562 17.85273438 2.98828125 17.26171875 C0 15 0 15 -0.5859375 11.328125 C-0.55190004 9.96735842 -0.47431255 8.60756446 -0.375 7.25 C-0.25125 4.8575 -0.1275 2.465 0 0 Z " fill="#C2E8F6" transform="translate(439,112)"/>
<path d="M0 0 C7.26 0 14.52 0 22 0 C22 34.98 22 69.96 22 106 C14.74 106 7.48 106 0 106 C0 91.15 0 76.3 0 61 C1.65 60.34 3.3 59.68 5 59 C5.24954005 57.56589632 5.47392642 56.12739928 5.6875 54.6875 C5.81511719 53.88699219 5.94273438 53.08648437 6.07421875 52.26171875 C6.18786905 50.00576516 6.18786905 50.00576516 5.00585938 48.390625 C1.87018478 46.21672012 -1.47983166 46.51880944 -5.16796875 46.48828125 C-5.96278152 46.47033005 -6.7575943 46.45237885 -7.57649231 46.43388367 C-10.11344101 46.3797303 -12.65020107 46.34586972 -15.1875 46.3125 C-16.90822941 46.27933126 -18.6289339 46.24484201 -20.34960938 46.20898438 C-24.56627022 46.12400127 -28.78287464 46.05721458 -33 46 C-33 45.67 -33 45.34 -33 45 C-22.11 45 -11.22 45 0 45 C0 40.38 0 35.76 0 31 C-10.56 31 -21.12 31 -32 31 C-32 30.67 -32 30.34 -32 30 C-30.95545654 29.9906543 -29.91091309 29.98130859 -28.8347168 29.97167969 C-24.959771 29.93181126 -21.08562186 29.86606259 -17.21118164 29.79248047 C-15.5342024 29.76425232 -13.85708965 29.7430469 -12.17993164 29.72900391 C-9.76899782 29.70759875 -7.35967216 29.66096574 -4.94921875 29.609375 C-3.82407112 29.60753204 -3.82407112 29.60753204 -2.67619324 29.60565186 C0.6126255 29.51307367 2.51228717 29.44340782 4.99682617 27.18457031 C6.56102219 23.77828508 6.02894329 21.53699256 5 18 C4.16082031 17.59265625 3.32164063 17.1853125 2.45703125 16.765625 C1.64621094 16.18296875 0.83539063 15.6003125 0 15 C-0.38666196 12.16963444 -0.48058758 10.10334884 -0.3125 7.3125 C-0.209375 4.899375 -0.10625 2.48625 0 0 Z " fill="#C6ECFB" transform="translate(104,112)"/>
<path d="M0 0 C2 1.625 2 1.625 3 4 C2.74671083 9.78720096 1.3641637 12.39031034 -2.68408203 16.46044922 C-3.17041611 16.95729721 -3.65675018 17.4541452 -4.15782166 17.96604919 C-5.75978408 19.59428802 -7.38254069 21.19974017 -9.0078125 22.8046875 C-10.13392499 23.93484512 -11.2591458 25.06589185 -12.3835144 26.19778442 C-14.73953743 28.56263725 -17.1060289 30.9163389 -19.48046875 33.26269531 C-22.51731028 36.26535215 -25.52641372 39.29414718 -28.52816963 42.33183098 C-30.84569037 44.67107364 -33.17736349 46.99578705 -35.51351547 49.31641006 C-36.62864077 50.42754404 -37.73935707 51.54312166 -38.8454628 52.66323471 C-40.39606259 54.22914201 -41.96472958 55.77442192 -43.53955078 57.31591797 C-44.42699982 58.19859344 -45.31444885 59.08126892 -46.22879028 59.99069214 C-49.60161635 62.43621111 -51.85513656 62.93970223 -56 63 C-57.97396851 62.02844238 -57.97396851 62.02844238 -59.53271484 60.47070312 C-60.12958099 59.89259888 -60.72644714 59.31449463 -61.34140015 58.71887207 C-61.95834747 58.07945679 -62.5752948 57.4400415 -63.2109375 56.78125 C-64.19134506 55.80520813 -64.19134506 55.80520813 -65.19155884 54.80944824 C-66.56758613 53.43010502 -67.9337398 52.04085076 -69.29052734 50.64257812 C-71.36471841 48.5105682 -73.47357961 46.41828674 -75.58984375 44.328125 C-76.92411135 42.98137862 -78.25621788 41.63248705 -79.5859375 40.28125 C-80.21503021 39.65802856 -80.84412292 39.03480713 -81.49227905 38.3927002 C-85.26301328 34.45645551 -87.04566278 31.70353981 -87 26 C-85 23 -85 23 -82 21 C-77.98899873 20.80019919 -76.05299388 21.17442573 -72.87255859 23.66796875 C-70.56479888 25.88014683 -68.36619144 28.16069384 -66.1875 30.5 C-64.6828039 32.07465238 -63.17637944 33.64765558 -61.66796875 35.21875 C-61.01078857 35.91935547 -60.3536084 36.61996094 -59.67651367 37.34179688 C-57.55917343 39.43601195 -56.30996478 39.94095909 -53.375 40.5 C-45.6971871 39.36254624 -39.36519711 30.492862 -34.0703125 25.1328125 C-33.35390594 24.41261932 -32.63749939 23.69242615 -31.89938354 22.95040894 C-29.63878438 20.67771159 -27.38149512 18.40177171 -25.125 16.125 C-22.13045544 13.1039215 -19.13265015 10.08613409 -16.1328125 7.0703125 C-15.44639679 6.37559845 -14.75998108 5.6808844 -14.05276489 4.96511841 C-13.10069656 4.00809525 -13.10069656 4.00809525 -12.12939453 3.03173828 C-11.57172394 2.46883087 -11.01405334 1.90592346 -10.43948364 1.32595825 C-7.05227382 -1.79411806 -4.3037441 -0.98155567 0 0 Z " fill="#6BF2C0" transform="translate(299,283)"/>
<path d="M0 0 C11.52722433 -0.09300741 23.05435821 -0.16392041 34.58188248 -0.20724869 C39.9355833 -0.22805249 45.28902588 -0.25623755 50.64257812 -0.30175781 C55.81677511 -0.34547373 60.99072494 -0.3691912 66.16509247 -0.37950897 C68.13130326 -0.38685436 70.09750175 -0.40119727 72.06360626 -0.42292023 C84.99834993 -0.56004547 97.64396092 -0.56778058 108.18359375 8.1015625 C116.20078939 16.48082504 119.34305534 25.61650767 119.1953125 36.99609375 C119.1924826 37.82963882 119.18965271 38.6631839 119.18673706 39.52198792 C119.17562289 42.1606436 119.15053515 44.79894848 119.125 47.4375 C119.11495885 49.23632319 119.10583499 51.03515175 119.09765625 52.83398438 C119.07742152 57.22289717 119.0382571 61.6110601 119 66 C113.06 66 107.12 66 101 66 C100.94392578 63.23689453 100.94392578 63.23689453 100.88671875 60.41796875 C100.8210719 58.0077917 100.75462413 55.59763636 100.6875 53.1875 C100.66494141 51.97255859 100.64238281 50.75761719 100.61914062 49.50585938 C100.58369141 48.34248047 100.54824219 47.17910156 100.51171875 45.98046875 C100.48553467 44.90692139 100.45935059 43.83337402 100.43237305 42.72729492 C100.2153804 39.99324094 100.2153804 39.99324094 98.63598633 38.16918945 C96.50362624 36.64525684 94.57099299 36.34743148 92 36 C92.66 35.67 93.32 35.34 94 35 C92.61132757 25.79863392 91.36094293 17.79463906 86 10 C85.42172707 8.95779297 85.42172707 8.95779297 84.83177185 7.89453125 C83.09830137 5.28081137 81.62797978 3.74618007 79 2 C73.01978703 0.80077494 67.11360463 0.92728048 61.03515625 1 C59.27394319 0.99247599 57.51274195 0.98143721 55.75157166 0.96704102 C51.13321602 0.93867768 46.51625122 0.95785009 41.89794922 0.98712158 C37.17861978 1.00855646 32.45953839 0.98476353 27.74023438 0.96484375 C18.49317623 0.93244468 9.24695595 0.95029161 0 1 C0 0.67 0 0.34 0 0 Z " fill="#3B83C9" transform="translate(43,431)"/>
<path d="M0 0 C7.23227964 5.67051219 10.67973041 11.41424405 12.8125 20.4375 C12.874375 21.613125 12.93625 22.78875 13 24 C13.061875 24.89332031 13.12375 25.78664063 13.1875 26.70703125 C13.62173572 37.27795696 10.85757796 45.76875878 4.0625 53.92578125 C-2.68691532 60.71354552 -10.39131672 65.24905495 -20 66 C-21.44439453 66.11601562 -21.44439453 66.11601562 -22.91796875 66.234375 C-33.82206768 66.7033685 -42.02974692 63.91875388 -50.25 56.6875 C-51.51515526 55.47393795 -52.77128037 54.25043943 -54 53 C-51.41268279 51.70634139 -49.27155949 52.04709055 -46.43945312 52.16772461 C-34.3764065 52.60844954 -24.36859138 49.91899266 -14.9921875 41.93359375 C-3.57909065 30.85617622 -0.40923246 19.20197336 -0.04296875 3.734375 C-0.02878906 2.50203125 -0.01460937 1.2696875 0 0 Z " fill="#FCBB84" transform="translate(113,350)"/>
<path d="M0 0 C3.58098396 2.63861976 5.95400298 5.03075044 8.1875 8.875 C8.92033203 10.10863281 8.92033203 10.10863281 9.66796875 11.3671875 C14.32397721 20.56997254 14.56853119 31.6138373 12.125 41.5625 C8.22787358 51.61298392 1.59103172 59.05823245 -8 64 C-17.37917423 67.8415474 -28.59262389 68.91116111 -38.25 65.5 C-43.7941786 62.94894108 -48.54774689 59.1396481 -53 55 C-53 54.67 -53 54.34 -53 54 C-51.76765625 53.98582031 -50.5353125 53.97164063 -49.265625 53.95703125 C-34.46100255 53.6050039 -23.03634387 50.75277659 -12.1328125 40.19140625 C-3.61047991 31.10213737 0.40076263 20.4399998 0.125 8.0625 C0.11597656 7.28326172 0.10695313 6.50402344 0.09765625 5.70117188 C0.07433691 3.80064553 0.03847586 1.90027992 0 0 Z " fill="#FCBA84" transform="translate(448,349)"/>
<path d="M0 0 C11.95291985 -0.09289589 23.90575306 -0.16386438 35.85896111 -0.20724869 C41.41001053 -0.22807654 46.960812 -0.2563064 52.51171875 -0.30175781 C57.87393743 -0.34538683 63.23591838 -0.36917319 68.59830093 -0.37950897 C70.63873153 -0.38686978 72.67914988 -0.40124345 74.71947861 -0.42292023 C88.62146462 -0.56467276 100.46031486 -0.25600831 111 10 C117.73442639 18.15569586 120.32357049 24.8494388 120.1953125 35.3359375 C120.1924826 36.21528961 120.18965271 37.09464172 120.18673706 38.00064087 C120.17559712 40.79223594 120.15050411 43.5835029 120.125 46.375 C120.1149622 48.27473493 120.10583775 50.17447492 120.09765625 52.07421875 C120.07567806 56.71627107 120.0411911 61.35808002 120 66 C114.39 66 108.78 66 103 66 C102.97421875 64.24171875 102.9484375 62.4834375 102.921875 60.671875 C102.86559898 58.36455834 102.80825154 56.05726763 102.75 53.75 C102.73582031 52.59113281 102.72164063 51.43226563 102.70703125 50.23828125 C102.67480469 49.12324219 102.64257812 48.00820313 102.609375 46.859375 C102.5779541 45.31975098 102.5779541 45.31975098 102.54589844 43.74902344 C101.86774102 40.33397312 100.66499255 39.16987085 98 37 C95.86690808 35.76487921 95.86690808 35.76487921 94 35 C94.0928125 33.081875 94.0928125 33.081875 94.1875 31.125 C94.13687909 20.35962083 89.52119106 12.54658552 82.88850403 4.40962219 C79.28178311 1.40085548 76.58388823 1.28746638 72.08862305 1.34057617 C70.91709938 1.32485062 70.91709938 1.32485062 69.72190857 1.30880737 C67.1514388 1.28010458 64.58231976 1.28634287 62.01171875 1.29296875 C60.22522803 1.27985075 58.43875213 1.2645462 56.65229797 1.24714661 C51.95869117 1.20729544 47.26547234 1.1971061 42.57171631 1.19311523 C37.77881093 1.183784 32.98613353 1.14637053 28.19335938 1.11132812 C18.79558357 1.04675113 9.39797826 1.01351197 0 1 C0 0.67 0 0.34 0 0 Z " fill="#F9BF43" transform="translate(377,431)"/>
<path d="M0 0 C7.1562779 5.15252009 11.47464262 11.94479344 13.64453125 20.55859375 C15.20784089 31.2956105 13.63373131 42.35754348 7.25 51.375 C0.9438901 58.84774023 -6.0507718 65.16564141 -16.12597656 66.22314453 C-28.72417264 67.05796475 -39.33167101 66.34147998 -49.1875 57.75 C-50.47359564 56.51570856 -51.75038569 55.27121258 -53 54 C-50.50027635 52.75013817 -48.53240029 53.04311141 -45.79492188 53.16748047 C-34.57139279 53.60695601 -24.65786493 51.02922662 -15.8359375 43.71484375 C-7.93934483 36.33909017 -0.49579628 27.19942001 0.11352539 15.89355469 C0.10828857 15.16040039 0.10305176 14.42724609 0.09765625 13.671875 C0.09443359 12.87265625 0.09121094 12.0734375 0.08789062 11.25 C0.07951172 10.425 0.07113281 9.6 0.0625 8.75 C0.05798828 7.90953125 0.05347656 7.0690625 0.04882812 6.203125 C0.03707961 4.13538599 0.01914522 2.06768376 0 0 Z " fill="#FCBB84" transform="translate(280,24)"/>
<path d="M0 0 C11.87927678 -0.62431236 21.74688151 0.55111539 31.21484375 8.23046875 C37.09497408 14.05913185 41.03601684 21.07162731 41.22705078 29.44482422 C41.22673714 31.14814481 41.21561769 32.85148792 41.1953125 34.5546875 C41.1924826 35.45623566 41.18965271 36.35778381 41.18673706 37.28665161 C41.17559439 40.14957276 41.1505008 43.01217434 41.125 45.875 C41.11496255 47.82291213 41.10583804 49.77082919 41.09765625 51.71875 C41.07567443 56.4792887 41.0411855 61.23959027 41 66 C35.39 66 29.78 66 24 66 C23.96261719 64.15792969 23.92523438 62.31585938 23.88671875 60.41796875 C23.8210719 58.0077917 23.75462413 55.59763636 23.6875 53.1875 C23.66494141 51.97255859 23.64238281 50.75761719 23.61914062 49.50585938 C23.5659668 47.76079102 23.5659668 47.76079102 23.51171875 45.98046875 C23.48553467 44.90692139 23.45935059 43.83337402 23.43237305 42.72729492 C23.21176313 39.99931159 23.21176313 39.99931159 21.66723633 38.16918945 C19.25549608 36.47789877 16.88427108 36.32047456 14 36 C14.99 35.505 14.99 35.505 16 35 C15.48551153 20.02838545 10.65406379 10.42042204 0 0 Z " fill="#01CDF8" transform="translate(288,106)"/>
<path d="M0 0 C1.13901512 -0.00786278 1.13901512 -0.00786278 2.30104065 -0.0158844 C3.90388773 -0.02229542 5.50678192 -0.02097947 7.10961914 -0.01245117 C9.55505651 -0.00394573 11.99815293 -0.03270359 14.44335938 -0.06445312 C16.00390555 -0.0660655 17.56445585 -0.06548691 19.125 -0.0625 C20.21584145 -0.07935097 20.21584145 -0.07935097 21.32872009 -0.09654236 C24.91781313 -0.04756469 27.00756279 0.35942887 30.09399414 2.24584961 C32.12890625 4.43359375 32.12890625 4.43359375 32.69140625 7.93359375 C32.02728541 12.06590117 31.46852786 12.99347941 28.12890625 15.43359375 C25.21905133 15.8434721 22.69424171 16.0185904 19.78515625 16 C18.57599548 16.00929787 18.57599548 16.00929787 17.34240723 16.01878357 C15.64120693 16.02587499 13.93993713 16.02271945 12.23876953 16.01000977 C9.63704738 15.99613716 7.03891871 16.03022623 4.4375 16.06835938 C2.7825512 16.06931056 1.12759791 16.06745176 -0.52734375 16.0625 C-1.30348022 16.07575821 -2.0796167 16.08901642 -2.87927246 16.10267639 C-6.73662688 16.03622828 -8.50715767 15.76740151 -11.39257812 13.12084961 C-12.87109375 10.43359375 -12.87109375 10.43359375 -12.87109375 6.80859375 C-11.87109375 3.43359375 -11.87109375 3.43359375 -10.30053711 1.74975586 C-6.91983017 -0.08175767 -3.75135893 -0.01510128 0 0 Z " fill="#050506" transform="translate(413.87109375,126.56640625)"/>
<path d="M0 0 C0.75792847 -0.00619858 1.51585693 -0.01239716 2.29675293 -0.01878357 C3.89362305 -0.02586364 5.49056727 -0.02273933 7.08740234 -0.01000977 C9.52449808 0.0038678 11.95775885 -0.03024639 14.39453125 -0.06835938 C15.95052177 -0.06931059 17.50651707 -0.06745161 19.0625 -0.0625 C20.14863586 -0.08238731 20.14863586 -0.08238731 21.25671387 -0.10267639 C25.15322284 -0.03130157 26.90999574 0.47286866 30.02929688 2.87915039 C32.03125 5.56640625 32.03125 5.56640625 32.03125 9.19140625 C30.66912208 13.78858797 30.66912208 13.78858797 28.03125 15.56640625 C25.20797905 15.87693416 22.60972266 16.01061299 19.78515625 16 C18.97763412 16.00524185 18.170112 16.0104837 17.33811951 16.0158844 C15.63094227 16.02230511 13.9237208 16.02096693 12.21655273 16.01245117 C9.60645575 16.00394764 6.9985522 16.03268838 4.38867188 16.06445312 C2.72916732 16.06606543 1.0696589 16.06548704 -0.58984375 16.0625 C-1.75875404 16.07935097 -1.75875404 16.07935097 -2.95127869 16.09654236 C-6.47953595 16.05125063 -8.56840228 15.85795742 -11.45727539 13.75415039 C-13.69360242 10.5172377 -13.58487732 8.40008735 -12.96875 4.56640625 C-9.06478789 0.38218607 -5.46823064 -0.03745624 0 0 Z " fill="#050506" transform="translate(78.96875,126.43359375)"/>
<path d="M0 0 C0.80610718 -0.0038269 1.61221436 -0.00765381 2.44274902 -0.01159668 C4.14397432 -0.0143139 5.84524153 -0.0069659 7.54638672 0.00976562 C10.14775896 0.0311801 12.74636972 0.00995981 15.34765625 -0.015625 C17.00261025 -0.01298169 18.65756254 -0.00785663 20.3125 0 C21.47670471 -0.01214539 21.47670471 -0.01214539 22.66442871 -0.02453613 C26.20551771 0.0368315 28.26386388 0.23934925 31.14257812 2.38085938 C32.65625 4.53125 32.65625 4.53125 33.21875 7.46875 C32.45213175 11.64256045 30.96046977 12.91041781 27.65625 15.53125 C24.79523479 16.0313615 22.5401015 16.23518544 19.6875 16.1953125 C18.92957153 16.20009613 18.17164307 16.20487976 17.39074707 16.20980835 C15.79384273 16.21319946 14.19686822 16.204052 12.60009766 16.18310547 C10.16280598 16.15632204 7.73011808 16.18287307 5.29296875 16.21484375 C3.73696905 16.2115395 2.18097221 16.20513295 0.625 16.1953125 C-0.09909058 16.20543365 -0.82318115 16.21555481 -1.56921387 16.22598267 C-5.47801148 16.13594339 -7.20847479 15.63854723 -10.30664062 13.18115234 C-12.34375 10.53125 -12.34375 10.53125 -12.90625 7.46875 C-11.52135881 0.23654045 -6.43461205 -0.0671281 0 0 Z " fill="#060707" transform="translate(413.34375,157.46875)"/>
<path d="M0 0 C0.82971817 -0.0038269 1.65943634 -0.00765381 2.51429749 -0.01159668 C4.2685772 -0.01431779 6.02289735 -0.00694259 7.77709961 0.00976562 C10.45974507 0.03114709 13.13970432 0.00998653 15.82226562 -0.015625 C17.52734966 -0.01298123 19.23243201 -0.00785522 20.9375 0 C22.13922096 -0.01214539 22.13922096 -0.01214539 23.36521912 -0.02453613 C26.95944669 0.03582365 29.10758399 0.21635021 32.04125977 2.37695312 C34.08640804 5.3261913 34.12104706 7.01590514 33.53515625 10.53125 C31.66805715 12.83400556 30.17867884 14.20948871 27.53515625 15.53125 C22.7370866 15.81435367 17.93820157 15.84494507 13.13256836 15.88134766 C11.53118342 15.89789525 9.92987198 15.92517009 8.32885742 15.96337891 C6.01572509 16.01827731 3.70432189 16.04003918 1.390625 16.0546875 C0.67899704 16.07735687 -0.03263092 16.10002625 -0.76582336 16.12338257 C-4.6694138 16.10687295 -6.32579577 15.64124506 -9.42456055 13.18994141 C-11.46484375 10.53125 -11.46484375 10.53125 -11.96484375 7.46875 C-10.71473048 0.12433451 -6.69908906 -0.06753478 0 0 Z " fill="#060707" transform="translate(77.46484375,157.46875)"/>
<path d="M0 0 C0.94166016 -0.02384766 1.88332031 -0.04769531 2.85351562 -0.07226562 C7.53450595 -0.06235527 9.8547997 0.04486278 13.71875 2.87109375 C15.5625 5.5625 15.5625 5.5625 15.625 9.1875 C14.44427401 12.93804138 13.84951841 13.62796766 10.5625 15.5625 C7.08355179 16.16882469 3.58876317 16.0263154 0.0625 16 C-0.88753906 16.01998047 -1.83757812 16.03996094 -2.81640625 16.06054688 C-9.72168089 16.05569085 -9.72168089 16.05569085 -13.0625 13.75390625 C-15.09370191 10.5166782 -14.97140597 8.29984177 -14.4375 4.5625 C-11.00675141 -0.8703285 -5.77980887 -0.06697802 0 0 Z " fill="#050606" transform="translate(80.4375,187.4375)"/>
<path d="M0 0 C0.94166016 -0.01546875 1.88332031 -0.0309375 2.85351562 -0.046875 C7.22237371 -0.02220961 9.86666674 0.08807368 13.68359375 2.34765625 C15.5625 4.5 15.5625 4.5 16.1875 7.4375 C15.32796716 11.6492109 13.98159891 12.89888805 10.5625 15.5 C7.21182975 16.23135892 3.98000393 16.19929356 0.5625 16.125 C-0.32695312 16.14433594 -1.21640625 16.16367188 -2.1328125 16.18359375 C-6.69256055 16.14956578 -8.80586849 15.97991218 -12.52734375 13.15234375 C-14.4375 10.5 -14.4375 10.5 -15 7.4375 C-13.42309428 -0.79745212 -6.94307978 -0.11358822 0 0 Z " fill="#040505" transform="translate(415.4375,187.5)"/>
</svg>
