<?xml version="1.0" encoding="UTF-8"?>
<svg version="1.1" xmlns="http://www.w3.org/2000/svg" width="512" height="512">
<path d="M0 0 C0.79379059 -0.0066568 1.58758118 -0.0133136 2.40542603 -0.02017212 C4.07787779 -0.03025591 5.75036943 -0.03499047 7.42285156 -0.03466797 C9.96227254 -0.03903791 12.49994874 -0.07539137 15.0390625 -0.11328125 C16.67186912 -0.11915127 18.30468391 -0.12311942 19.9375 -0.125 C20.68671722 -0.13937103 21.43593445 -0.15374207 22.20785522 -0.16854858 C27.75652348 -0.12118105 31.93703439 1.31028581 36.6015625 4.3359375 C38.44140625 6.3359375 38.44140625 6.3359375 39.5390625 8.3359375 C39.91933594 8.9959375 40.29960938 9.6559375 40.69140625 10.3359375 C43.20186032 15.85247177 43.36425379 21.16226733 41.3515625 26.8984375 C39.6015625 30.3359375 39.6015625 30.3359375 37.4140625 33.2734375 C34.93399479 37.46389674 34.98857338 39.50864817 35.6015625 44.3359375 C37.13704077 47.34291579 38.22042602 48.87171417 41.47265625 49.96484375 C45.01158834 50.60037976 47.11519738 50.53682744 50.4765625 49.1484375 C53.80205131 46.31199116 54.4265804 44.4514484 55.1015625 40.1484375 C54.40224119 34.81611251 51.72675033 31.58653923 48.6015625 27.3359375 C46.36464057 22.86209363 46.89474122 16.65999661 48.3203125 11.97265625 C50.9405427 6.36240529 54.80992118 2.64123547 60.6015625 0.3359375 C63.15371654 0.10916369 65.59489434 -0.01553657 68.1484375 -0.03515625 C68.87846985 -0.04418472 69.6085022 -0.0532132 70.36065674 -0.06251526 C71.90380775 -0.07699658 73.44701986 -0.08589924 74.99023438 -0.08959961 C77.33050494 -0.10145582 79.66810121 -0.15061951 82.0078125 -0.20117188 C95.55187859 -0.3487516 95.55187859 -0.3487516 101.2199707 3.95239258 C105.8267778 8.56571221 107.74162967 13.11700005 107.9765625 19.5234375 C107.94975977 24.58915437 106.87633024 27.53998 103.890625 31.58203125 C101.00410084 35.50945352 100.10078128 38.42828151 100.6015625 43.3359375 C101.84921556 46.08077423 102.95471685 47.80887808 105.2890625 49.7109375 C108.87573108 50.68030739 112.06303663 50.46216237 115.6015625 49.3359375 C118.10198337 47.0278567 119.26306208 45.11871973 120.6015625 42.0234375 C120.6015625 36.92960313 117.47099668 32.78499447 114.9140625 28.5234375 C112.16837852 23.94729754 111.84965176 19.45607104 113.09765625 14.27734375 C115.05528459 8.42657883 117.97339729 4.85526989 123.39087105 1.72344875 C126.78105649 0.25836856 128.99272779 -0.04310108 132.66012573 -0.05174255 C134.44737061 -0.0665995 134.44737061 -0.0665995 136.27072144 -0.08175659 C137.56438629 -0.07725494 138.85805115 -0.0727533 140.19091797 -0.06811523 C141.57782541 -0.0738224 142.96472815 -0.08078801 144.35162354 -0.08891296 C148.10795194 -0.10682315 151.86404647 -0.10567987 155.62040472 -0.09997058 C158.76142364 -0.09687506 161.90239787 -0.10297534 165.04341042 -0.10900933 C172.45687539 -0.12304643 179.87022511 -0.12150058 187.28369141 -0.11010742 C194.91934649 -0.09863174 202.5546501 -0.11269428 210.19025886 -0.1395039 C216.75692996 -0.16169294 223.32349101 -0.16829094 229.89019692 -0.16242748 C233.80731442 -0.15906376 237.72420676 -0.16143361 241.64129257 -0.17867851 C245.32686007 -0.1941965 249.01190899 -0.19013907 252.69745636 -0.17137337 C254.68542803 -0.16595674 256.67342325 -0.18016534 258.66134644 -0.19506836 C266.4789269 -0.13084914 272.57351731 0.436174 278.44140625 6.1171875 C278.80363281 6.684375 279.16585938 7.2515625 279.5390625 7.8359375 C279.91933594 8.403125 280.29960937 8.9703125 280.69140625 9.5546875 C283.05072534 14.17206734 283.21806885 19.26225686 282.6015625 24.3359375 C281.26301189 28.10640928 279.48575428 31.32543261 276.8515625 34.3359375 C274.854005 37.5320295 274.85432106 40.7491786 275.6015625 44.3359375 C278.13062392 47.93793406 279.83943737 49.10037155 284.0390625 50.3984375 C288.43313839 50.32134845 290.26486247 49.11652086 293.6015625 46.3359375 C295.24443493 43.05019265 295.26312608 39.87229553 294.6015625 36.3359375 C293.24721424 33.82187785 291.72213198 31.60100075 290.01171875 29.31640625 C286.95849986 25.02836753 287.02843909 20.39056757 287.6015625 15.3359375 C289.26329946 9.6733882 291.44343705 5.48113594 296.6015625 2.3359375 C302.65487307 -0.64385301 309.16294233 0.00113875 315.74829102 0.02026367 C318.02864414 0.02342307 320.30769766 -0.00005788 322.58789062 -0.02539062 C324.04947754 -0.02766407 325.51106792 -0.0283669 326.97265625 -0.02734375 C328.29193115 -0.03032471 329.61120605 -0.03330566 330.97045898 -0.03637695 C335.46722877 0.42469841 338.8490251 1.74078817 342.2109375 4.80078125 C347.596645 11.75424607 348.36683644 16.57649423 347.6015625 25.3359375 C346.28316519 28.89561025 344.64623016 31.27467899 342.4140625 34.3359375 C340.33475155 37.77755562 340.01373182 39.38907437 340.6015625 43.3359375 C341.84921556 46.08077423 342.95471685 47.80887808 345.2890625 49.7109375 C348.87150771 50.67916594 352.0448936 50.32917563 355.6015625 49.3359375 C358.83739942 47.17871289 359.47581377 45.75248017 360.6015625 42.0234375 C360.6015625 37.37253256 359.19282918 35.06483346 356.6015625 31.3359375 C353.15037843 26.35089384 352.14044453 21.79703471 352.93359375 15.84375 C354.53579802 9.04213447 357.79972999 5.16093595 363.6015625 1.3359375 C367.32018372 0.09639709 370.79692856 0.15432214 374.671875 0.1328125 C375.46753876 0.12711243 376.26320251 0.12141235 377.08297729 0.11553955 C378.76917189 0.10609401 380.45538491 0.09955733 382.14160156 0.09570312 C384.69630163 0.08605182 387.25017807 0.05504783 389.8046875 0.0234375 C401.34894132 -0.05312615 410.2341193 0.55220834 419.5234375 8.25 C426.72531353 15.47895075 429.80269867 24.46930072 429.85972512 34.52469158 C429.85389943 35.26790566 429.84807375 36.01111975 429.84207153 36.77685547 C429.84463481 37.99379829 429.84463481 37.99379829 429.84724987 39.23532581 C429.85052401 41.93301761 429.83957555 44.63045641 429.82861328 47.328125 C429.82804872 49.27016697 429.82836661 51.21220937 429.82949829 53.1542511 C429.83007104 58.41191177 429.81832924 63.66948079 429.80435038 68.92712021 C429.79183012 74.42707604 429.79067149 79.92703407 429.78829956 85.42700195 C429.78208861 95.83550853 429.76568297 106.243973 429.74560058 116.65246105 C429.72322964 128.50489401 429.71224514 140.35732901 429.70220971 152.20977783 C429.68131642 176.58518772 429.64614789 200.96056025 429.6015625 225.3359375 C430.21040283 225.62476807 430.81924316 225.91359863 431.4465332 226.21118164 C440.37357527 230.87039573 447.70300726 240.46404741 453.6015625 248.3359375 C454.75785156 249.87894531 454.75785156 249.87894531 455.9375 251.453125 C462.2279338 260.30387571 462.2279338 260.30387571 461.6015625 267.3359375 C461.1890625 268.1196875 460.7765625 268.9034375 460.3515625 269.7109375 C459.2487949 273.5706241 460.8932131 275.87412328 462.65625 279.34765625 C463.6015625 281.3359375 463.6015625 281.3359375 463.6015625 283.3359375 C464.5090625 283.2534375 465.4165625 283.1709375 466.3515625 283.0859375 C469.6015625 283.3359375 469.6015625 283.3359375 471.66796875 284.86328125 C474.16222986 288.05291212 474.94097028 291.27297809 475.7890625 295.1484375 C475.95341797 295.83486328 476.11777344 296.52128906 476.28710938 297.22851562 C478.37246965 306.15250677 478.78790279 314.85504386 478.78686523 323.98657227 C478.78904633 326.13252774 478.80722982 328.27796361 478.82617188 330.42382812 C478.90224998 348.65483753 478.90224998 348.65483753 474.7265625 355.3359375 C472.19031669 357.72299238 470.05896361 359.097763 466.59375 359.6640625 C461.00250375 359.45774345 458.51141312 357.67755272 454.6640625 353.6484375 C453.83003906 352.74480469 452.99601562 351.84117187 452.13671875 350.91015625 C445.90717943 344.58463019 437.83274565 341.31317396 429.6015625 338.3359375 C429.65376953 339.67785156 429.65376953 339.67785156 429.70703125 341.046875 C429.99892386 354.08474495 427.74343655 363.56434982 418.78515625 373.3125 C409.83403332 381.81154601 400.45942471 382.92239157 388.5 382.7265625 C387.18238678 382.72090271 385.86477356 382.71524292 384.50723267 382.70941162 C381.03823358 382.69428533 377.56992594 382.65512059 374.10119629 382.6105957 C370.54802804 382.56935813 366.99474585 382.55134044 363.44140625 382.53125 C356.49451123 382.48860983 349.54807024 382.42052119 342.6015625 382.3359375 C342.32441406 383.51671875 342.04726563 384.6975 341.76171875 385.9140625 C341.3958482 387.47135766 341.02996196 389.02864913 340.6640625 390.5859375 C340.48166016 391.36324219 340.29925781 392.14054687 340.11132812 392.94140625 C339.93408203 393.69550781 339.75683594 394.44960938 339.57421875 395.2265625 C339.33070679 396.26345215 339.33070679 396.26345215 339.08227539 397.32128906 C338.6029963 399.32992851 338.10609648 401.33350692 337.6015625 403.3359375 C338.32882034 403.33958313 339.05607819 403.34322876 339.80537415 403.34698486 C346.70406155 403.38506218 353.60236719 403.4421358 360.5007143 403.51984024 C364.04614762 403.55912573 367.59133962 403.59140562 371.13696289 403.60693359 C375.22581625 403.62516266 379.31377135 403.67519511 383.40234375 403.7265625 C384.65799637 403.72779114 385.91364899 403.72901978 387.20735168 403.73028564 C400.56019116 403.94962632 410.58236998 407.92530585 420.04296875 417.40625 C421.66155238 419.41021068 422.32191488 421.04829836 423.1640625 423.4609375 C424.54596427 426.57021647 425.39826076 427.24445172 428.5703125 428.671875 C431.01993009 429.46533809 433.47325138 430.24743566 435.9296875 431.01953125 C447.59309713 435.20098768 456.33772106 445.02680909 461.6015625 456.0859375 C463.63468327 462.69358 464.25078489 467.64011741 461.82421875 474.15234375 C459.13630162 478.95280917 454.79555032 482.60460823 449.6015625 484.3359375 C446.53878693 484.43679204 443.49862933 484.47934895 440.43559265 484.47637939 C439.01089628 484.48083608 439.01089628 484.48083608 437.55741817 484.4853828 C434.36077972 484.49408491 431.16417866 484.49557932 427.9675293 484.49707031 C425.68128377 484.5016974 423.39503901 484.50672191 421.10879517 484.51211548 C414.88769426 484.5252516 408.66660416 484.53168674 402.44549155 484.53612614 C398.56104432 484.53905476 394.67660005 484.54315916 390.79215431 484.54763031 C380.03735658 484.55974042 369.28256273 484.57012217 358.5277586 484.5735054 C357.83941991 484.57372497 357.15108123 484.57394453 356.44188379 484.57417075 C355.75189797 484.57438903 355.06191214 484.57460731 354.35101765 484.5748322 C352.95284315 484.57527567 351.55466864 484.57572223 350.15649414 484.57617188 C349.46295127 484.5763933 348.76940839 484.57661473 348.05484907 484.57684287 C336.81700697 484.58079088 325.57922973 484.59824504 314.34141269 484.6215314 C302.80385675 484.64524589 291.26634259 484.65744931 279.72876102 484.65887332 C273.25076836 484.65992273 266.77286714 484.66585951 260.29489708 484.68369293 C254.20217089 484.7001392 248.10960522 484.70234582 242.01686478 484.69355392 C239.77953602 484.69278172 237.54219875 484.69715032 235.30489159 484.70701218 C232.252563 484.71967846 229.20080754 484.7138836 226.14848328 484.70343018 C225.26141573 484.71148658 224.37434819 484.71954298 223.46039981 484.72784352 C217.56591135 484.68057266 213.19402268 483.77621973 208.73828125 479.58203125 C208.26003906 478.98519531 207.78179687 478.38835937 207.2890625 477.7734375 C206.79792969 477.17402344 206.30679688 476.57460938 205.80078125 475.95703125 C202.22552504 471.12403019 203.04912651 465.07477259 203.6015625 459.3359375 C206.85482033 448.24312176 216.88774 438.21496371 226.6015625 432.3359375 C237.60410057 427.3359375 237.60410057 427.3359375 241.6015625 427.3359375 C241.7871875 426.5109375 241.9728125 425.6859375 242.1640625 424.8359375 C245.88969872 415.76482323 253.66860904 409.97401604 262.41796875 406.16796875 C266.31146583 404.6844001 269.65779596 404.21228758 273.82910156 404.22241211 C274.86987854 404.22248764 275.91065552 404.22256317 276.98297119 404.22264099 C278.09976257 404.22780228 279.21655396 404.23296356 280.3671875 404.23828125 C282.08998932 404.24040367 282.08998932 404.24040367 283.84759521 404.24256897 C287.51561081 404.24816607 291.18356535 404.26071806 294.8515625 404.2734375 C297.33854079 404.27845287 299.82552003 404.28301572 302.3125 404.28710938 C308.408875 404.29813455 314.50521439 404.31486981 320.6015625 404.3359375 C320.76591797 403.33626953 320.76591797 403.33626953 320.93359375 402.31640625 C321.09214844 401.39472656 321.25070312 400.47304688 321.4140625 399.5234375 C321.64029297 398.18345703 321.64029297 398.18345703 321.87109375 396.81640625 C322.52399682 393.70551516 323.30383642 390.68173221 324.1472168 387.6184082 C324.55498604 386.13411064 324.55498604 386.13411064 324.97099304 384.61982727 C325.17908096 383.86614365 325.38716888 383.11246002 325.6015625 382.3359375 C324.54976188 382.33821582 324.54976188 382.33821582 323.47671276 382.34054017 C281.91598194 382.43005648 240.3552623 382.49868576 198.79445446 382.54019882 C193.80396883 382.54520163 188.81348339 382.55037892 183.82299805 382.55566406 C182.82948412 382.5567133 181.8359702 382.55776255 180.81234979 382.55884358 C164.72644842 382.57624783 148.64060424 382.60778564 132.5547368 382.64454868 C116.04860578 382.68195753 99.5425047 382.70417324 83.03633302 382.71229148 C72.85149451 382.71777936 62.66681765 382.73511112 52.48202889 382.76760337 C45.49751278 382.78875054 38.51308022 382.79513708 31.52853442 382.78994301 C27.49905337 382.78738155 23.46985477 382.7913024 19.44042397 382.8127594 C15.74820951 382.8322768 12.05646649 382.83317427 8.36422997 382.81953308 C6.40243838 382.81705245 4.44065204 382.8342579 2.4789415 382.85226274 C-8.20824375 382.78000234 -16.58910806 379.79606928 -24.3984375 372.3359375 C-30.85076784 364.53725477 -33.70410534 358.01593643 -33.67259216 347.82077026 C-33.67782884 346.97725419 -33.68306552 346.13373812 -33.68846089 345.26466095 C-33.70343086 342.44576079 -33.70416536 339.62704261 -33.70483398 336.80810547 C-33.71245716 334.78417658 -33.72088494 332.76025059 -33.73005676 330.73632812 C-33.75198524 325.24484884 -33.76079776 319.75342522 -33.76588321 314.2619071 C-33.76952688 310.83224292 -33.77576681 307.40259334 -33.7828846 303.97293472 C-33.80736745 292.01206063 -33.82042975 280.05122989 -33.82397461 268.09033203 C-33.82761524 256.93277976 -33.85755144 245.77550167 -33.89937919 234.61803329 C-33.93402407 225.04169863 -33.94952199 215.46545517 -33.95022064 205.88905823 C-33.95101504 200.16786613 -33.95982954 194.44695373 -33.98821831 188.72582626 C-34.01430145 183.34949275 -34.01665884 177.97367293 -34.00056267 172.5973053 C-33.99874075 170.62197377 -34.00550546 168.64661333 -34.02138138 166.67134476 C-34.04170333 163.97932676 -34.03137318 161.28913004 -34.01316833 158.59713745 C-34.03296829 157.41845055 -34.03296829 157.41845055 -34.05316824 156.2159518 C-33.99269321 152.31436003 -33.73217924 150.68390944 -30.98501682 147.8196125 C-28.3984375 146.3359375 -28.3984375 146.3359375 -26.3984375 146.3359375 C-26.3984375 142.0459375 -26.3984375 137.7559375 -26.3984375 133.3359375 C-28.0484375 133.0059375 -29.6984375 132.6759375 -31.3984375 132.3359375 C-33.79959669 129.93477831 -33.65157415 129.40658114 -33.66586304 126.13182068 C-33.67439301 125.25017746 -33.68292297 124.36853424 -33.69171143 123.46017456 C-33.69080505 122.49032623 -33.68989868 121.52047791 -33.68896484 120.52124023 C-33.69568207 119.50152634 -33.70239929 118.48181244 -33.70932007 117.43119812 C-33.72839004 114.04392684 -33.73222956 110.65685295 -33.734375 107.26953125 C-33.74079941 104.91740334 -33.7475275 102.56527624 -33.75454712 100.21315002 C-33.76654432 95.27253366 -33.77022571 90.33198733 -33.76904297 85.39135742 C-33.76884027 79.07190091 -33.79608113 72.75289659 -33.83058739 66.43354702 C-33.85287554 61.57009335 -33.85687982 56.70674788 -33.85582352 51.84324837 C-33.85817894 49.51453158 -33.86699909 47.18581178 -33.88248825 44.85714531 C-33.90217504 41.58991254 -33.89629767 38.3236462 -33.88427734 35.05639648 C-33.89551636 34.10071777 -33.90675537 33.14503906 -33.91833496 32.16040039 C-33.83168436 22.84993388 -30.63239282 15.90594943 -24.32421875 9.125 C-17.20570814 2.51186032 -9.66251053 0.02854947 0 0 Z " fill="#F7F5F6" transform="translate(33.3984375,13.6640625)"/>
<path d="M0 0 C0.79379059 -0.0066568 1.58758118 -0.0133136 2.40542603 -0.02017212 C4.07787779 -0.03025591 5.75036943 -0.03499047 7.42285156 -0.03466797 C9.96227254 -0.03903791 12.49994874 -0.07539137 15.0390625 -0.11328125 C16.67186912 -0.11915127 18.30468391 -0.12311942 19.9375 -0.125 C20.68671722 -0.13937103 21.43593445 -0.15374207 22.20785522 -0.16854858 C27.75652348 -0.12118105 31.93703439 1.31028581 36.6015625 4.3359375 C38.44140625 6.3359375 38.44140625 6.3359375 39.5390625 8.3359375 C39.91933594 8.9959375 40.29960938 9.6559375 40.69140625 10.3359375 C43.20186032 15.85247177 43.36425379 21.16226733 41.3515625 26.8984375 C39.6015625 30.3359375 39.6015625 30.3359375 37.4140625 33.2734375 C34.93399479 37.46389674 34.98857338 39.50864817 35.6015625 44.3359375 C37.13704077 47.34291579 38.22042602 48.87171417 41.47265625 49.96484375 C45.01158834 50.60037976 47.11519738 50.53682744 50.4765625 49.1484375 C53.80205131 46.31199116 54.4265804 44.4514484 55.1015625 40.1484375 C54.40224119 34.81611251 51.72675033 31.58653923 48.6015625 27.3359375 C46.36464057 22.86209363 46.89474122 16.65999661 48.3203125 11.97265625 C50.9405427 6.36240529 54.80992118 2.64123547 60.6015625 0.3359375 C63.15371654 0.10916369 65.59489434 -0.01553657 68.1484375 -0.03515625 C68.87846985 -0.04418472 69.6085022 -0.0532132 70.36065674 -0.06251526 C71.90380775 -0.07699658 73.44701986 -0.08589924 74.99023438 -0.08959961 C77.33050494 -0.10145582 79.66810121 -0.15061951 82.0078125 -0.20117188 C95.55187859 -0.3487516 95.55187859 -0.3487516 101.2199707 3.95239258 C105.8267778 8.56571221 107.74162967 13.11700005 107.9765625 19.5234375 C107.94975977 24.58915437 106.87633024 27.53998 103.890625 31.58203125 C101.00410084 35.50945352 100.10078128 38.42828151 100.6015625 43.3359375 C101.84921556 46.08077423 102.95471685 47.80887808 105.2890625 49.7109375 C108.87573108 50.68030739 112.06303663 50.46216237 115.6015625 49.3359375 C118.10198337 47.0278567 119.26306208 45.11871973 120.6015625 42.0234375 C120.6015625 36.92960313 117.47099668 32.78499447 114.9140625 28.5234375 C112.16837852 23.94729754 111.84965176 19.45607104 113.09765625 14.27734375 C115.05528459 8.42657883 117.97339729 4.85526989 123.39087105 1.72344875 C126.78105649 0.25836856 128.99272779 -0.04310108 132.66012573 -0.05174255 C134.44737061 -0.0665995 134.44737061 -0.0665995 136.27072144 -0.08175659 C137.56438629 -0.07725494 138.85805115 -0.0727533 140.19091797 -0.06811523 C141.57782541 -0.0738224 142.96472815 -0.08078801 144.35162354 -0.08891296 C148.10795194 -0.10682315 151.86404647 -0.10567987 155.62040472 -0.09997058 C158.76142364 -0.09687506 161.90239787 -0.10297534 165.04341042 -0.10900933 C172.45687539 -0.12304643 179.87022511 -0.12150058 187.28369141 -0.11010742 C194.91934649 -0.09863174 202.5546501 -0.11269428 210.19025886 -0.1395039 C216.75692996 -0.16169294 223.32349101 -0.16829094 229.89019692 -0.16242748 C233.80731442 -0.15906376 237.72420676 -0.16143361 241.64129257 -0.17867851 C245.32686007 -0.1941965 249.01190899 -0.19013907 252.69745636 -0.17137337 C254.68542803 -0.16595674 256.67342325 -0.18016534 258.66134644 -0.19506836 C266.4789269 -0.13084914 272.57351731 0.436174 278.44140625 6.1171875 C278.80363281 6.684375 279.16585938 7.2515625 279.5390625 7.8359375 C279.91933594 8.403125 280.29960937 8.9703125 280.69140625 9.5546875 C283.05072534 14.17206734 283.21806885 19.26225686 282.6015625 24.3359375 C281.26301189 28.10640928 279.48575428 31.32543261 276.8515625 34.3359375 C274.854005 37.5320295 274.85432106 40.7491786 275.6015625 44.3359375 C278.13062392 47.93793406 279.83943737 49.10037155 284.0390625 50.3984375 C288.43313839 50.32134845 290.26486247 49.11652086 293.6015625 46.3359375 C295.24443493 43.05019265 295.26312608 39.87229553 294.6015625 36.3359375 C293.24721424 33.82187785 291.72213198 31.60100075 290.01171875 29.31640625 C286.95849986 25.02836753 287.02843909 20.39056757 287.6015625 15.3359375 C289.26329946 9.6733882 291.44343705 5.48113594 296.6015625 2.3359375 C302.65487307 -0.64385301 309.16294233 0.00113875 315.74829102 0.02026367 C318.02864414 0.02342307 320.30769766 -0.00005788 322.58789062 -0.02539062 C324.04947754 -0.02766407 325.51106792 -0.0283669 326.97265625 -0.02734375 C328.29193115 -0.03032471 329.61120605 -0.03330566 330.97045898 -0.03637695 C335.46722877 0.42469841 338.8490251 1.74078817 342.2109375 4.80078125 C347.596645 11.75424607 348.36683644 16.57649423 347.6015625 25.3359375 C346.28316519 28.89561025 344.64623016 31.27467899 342.4140625 34.3359375 C340.33475155 37.77755562 340.01373182 39.38907437 340.6015625 43.3359375 C341.84921556 46.08077423 342.95471685 47.80887808 345.2890625 49.7109375 C348.87150771 50.67916594 352.0448936 50.32917563 355.6015625 49.3359375 C358.83739942 47.17871289 359.47581377 45.75248017 360.6015625 42.0234375 C360.6015625 37.37253256 359.19282918 35.06483346 356.6015625 31.3359375 C353.15037843 26.35089384 352.14044453 21.79703471 352.93359375 15.84375 C354.53579802 9.04213447 357.79972999 5.16093595 363.6015625 1.3359375 C367.32018372 0.09639709 370.79692856 0.15432214 374.671875 0.1328125 C375.46753876 0.12711243 376.26320251 0.12141235 377.08297729 0.11553955 C378.76917189 0.10609401 380.45538491 0.09955733 382.14160156 0.09570312 C384.69630163 0.08605182 387.25017807 0.05504783 389.8046875 0.0234375 C401.34894132 -0.05312615 410.2341193 0.55220834 419.5234375 8.25 C426.72531353 15.47895075 429.80269867 24.46930072 429.85972512 34.52469158 C429.85389943 35.26790566 429.84807375 36.01111975 429.84207153 36.77685547 C429.84463481 37.99379829 429.84463481 37.99379829 429.84724987 39.23532581 C429.85052401 41.93301761 429.83957555 44.63045641 429.82861328 47.328125 C429.82804872 49.27016697 429.82836661 51.21220937 429.82949829 53.1542511 C429.83007104 58.41191177 429.81832924 63.66948079 429.80435038 68.92712021 C429.79183012 74.42707604 429.79067149 79.92703407 429.78829956 85.42700195 C429.78208861 95.83550853 429.76568297 106.243973 429.74560058 116.65246105 C429.72322964 128.50489401 429.71224514 140.35732901 429.70220971 152.20977783 C429.68131642 176.58518772 429.64614789 200.96056025 429.6015625 225.3359375 C430.21040283 225.62476807 430.81924316 225.91359863 431.4465332 226.21118164 C440.37357527 230.87039573 447.70300726 240.46404741 453.6015625 248.3359375 C454.75785156 249.87894531 454.75785156 249.87894531 455.9375 251.453125 C462.2279338 260.30387571 462.2279338 260.30387571 461.6015625 267.3359375 C461.1890625 268.1196875 460.7765625 268.9034375 460.3515625 269.7109375 C459.2487949 273.5706241 460.8932131 275.87412328 462.65625 279.34765625 C463.6015625 281.3359375 463.6015625 281.3359375 463.6015625 283.3359375 C464.5090625 283.2534375 465.4165625 283.1709375 466.3515625 283.0859375 C469.6015625 283.3359375 469.6015625 283.3359375 471.66796875 284.86328125 C474.16222986 288.05291212 474.94097028 291.27297809 475.7890625 295.1484375 C475.95341797 295.83486328 476.11777344 296.52128906 476.28710938 297.22851562 C478.37246965 306.15250677 478.78790279 314.85504386 478.78686523 323.98657227 C478.78904633 326.13252774 478.80722982 328.27796361 478.82617188 330.42382812 C478.90224998 348.65483753 478.90224998 348.65483753 474.7265625 355.3359375 C472.19031669 357.72299238 470.05896361 359.097763 466.59375 359.6640625 C461.00250375 359.45774345 458.51141312 357.67755272 454.6640625 353.6484375 C453.83003906 352.74480469 452.99601562 351.84117187 452.13671875 350.91015625 C445.90717943 344.58463019 437.83274565 341.31317396 429.6015625 338.3359375 C429.65376953 339.67785156 429.65376953 339.67785156 429.70703125 341.046875 C429.99892386 354.08474495 427.74343655 363.56434982 418.78515625 373.3125 C409.83403332 381.81154601 400.45942471 382.92239157 388.5 382.7265625 C387.18238678 382.72090271 385.86477356 382.71524292 384.50723267 382.70941162 C381.03823358 382.69428533 377.56992594 382.65512059 374.10119629 382.6105957 C370.54802804 382.56935813 366.99474585 382.55134044 363.44140625 382.53125 C356.49451123 382.48860983 349.54807024 382.42052119 342.6015625 382.3359375 C342.32441406 383.51671875 342.04726563 384.6975 341.76171875 385.9140625 C341.3958482 387.47135766 341.02996196 389.02864913 340.6640625 390.5859375 C340.48166016 391.36324219 340.29925781 392.14054687 340.11132812 392.94140625 C339.93408203 393.69550781 339.75683594 394.44960938 339.57421875 395.2265625 C339.33070679 396.26345215 339.33070679 396.26345215 339.08227539 397.32128906 C338.6029963 399.32992851 338.10609648 401.33350692 337.6015625 403.3359375 C338.32882034 403.33958313 339.05607819 403.34322876 339.80537415 403.34698486 C346.70406155 403.38506218 353.60236719 403.4421358 360.5007143 403.51984024 C364.04614762 403.55912573 367.59133962 403.59140562 371.13696289 403.60693359 C375.22581625 403.62516266 379.31377135 403.67519511 383.40234375 403.7265625 C384.65799637 403.72779114 385.91364899 403.72901978 387.20735168 403.73028564 C400.56019116 403.94962632 410.58236998 407.92530585 420.04296875 417.40625 C421.66155238 419.41021068 422.32191488 421.04829836 423.1640625 423.4609375 C424.54596427 426.57021647 425.39826076 427.24445172 428.5703125 428.671875 C431.01993009 429.46533809 433.47325138 430.24743566 435.9296875 431.01953125 C447.59309713 435.20098768 456.33772106 445.02680909 461.6015625 456.0859375 C463.63468327 462.69358 464.25078489 467.64011741 461.82421875 474.15234375 C459.13630162 478.95280917 454.79555032 482.60460823 449.6015625 484.3359375 C446.53878693 484.43679204 443.49862933 484.47934895 440.43559265 484.47637939 C439.01089628 484.48083608 439.01089628 484.48083608 437.55741817 484.4853828 C434.36077972 484.49408491 431.16417866 484.49557932 427.9675293 484.49707031 C425.68128377 484.5016974 423.39503901 484.50672191 421.10879517 484.51211548 C414.88769426 484.5252516 408.66660416 484.53168674 402.44549155 484.53612614 C398.56104432 484.53905476 394.67660005 484.54315916 390.79215431 484.54763031 C380.03735658 484.55974042 369.28256273 484.57012217 358.5277586 484.5735054 C357.83941991 484.57372497 357.15108123 484.57394453 356.44188379 484.57417075 C355.75189797 484.57438903 355.06191214 484.57460731 354.35101765 484.5748322 C352.95284315 484.57527567 351.55466864 484.57572223 350.15649414 484.57617188 C349.46295127 484.5763933 348.76940839 484.57661473 348.05484907 484.57684287 C336.81700697 484.58079088 325.57922973 484.59824504 314.34141269 484.6215314 C302.80385675 484.64524589 291.26634259 484.65744931 279.72876102 484.65887332 C273.25076836 484.65992273 266.77286714 484.66585951 260.29489708 484.68369293 C254.20217089 484.7001392 248.10960522 484.70234582 242.01686478 484.69355392 C239.77953602 484.69278172 237.54219875 484.69715032 235.30489159 484.70701218 C232.252563 484.71967846 229.20080754 484.7138836 226.14848328 484.70343018 C225.26141573 484.71148658 224.37434819 484.71954298 223.46039981 484.72784352 C217.56591135 484.68057266 213.19402268 483.77621973 208.73828125 479.58203125 C208.26003906 478.98519531 207.78179687 478.38835937 207.2890625 477.7734375 C206.79792969 477.17402344 206.30679688 476.57460938 205.80078125 475.95703125 C202.22552504 471.12403019 203.04912651 465.07477259 203.6015625 459.3359375 C206.85482033 448.24312176 216.88774 438.21496371 226.6015625 432.3359375 C237.60410057 427.3359375 237.60410057 427.3359375 241.6015625 427.3359375 C241.7871875 426.5109375 241.9728125 425.6859375 242.1640625 424.8359375 C245.88969872 415.76482323 253.66860904 409.97401604 262.41796875 406.16796875 C266.31146583 404.6844001 269.65779596 404.21228758 273.82910156 404.22241211 C274.86987854 404.22248764 275.91065552 404.22256317 276.98297119 404.22264099 C278.09976257 404.22780228 279.21655396 404.23296356 280.3671875 404.23828125 C282.08998932 404.24040367 282.08998932 404.24040367 283.84759521 404.24256897 C287.51561081 404.24816607 291.18356535 404.26071806 294.8515625 404.2734375 C297.33854079 404.27845287 299.82552003 404.28301572 302.3125 404.28710938 C308.408875 404.29813455 314.50521439 404.31486981 320.6015625 404.3359375 C320.76591797 403.33626953 320.76591797 403.33626953 320.93359375 402.31640625 C321.09214844 401.39472656 321.25070312 400.47304688 321.4140625 399.5234375 C321.64029297 398.18345703 321.64029297 398.18345703 321.87109375 396.81640625 C322.52399682 393.70551516 323.30383642 390.68173221 324.1472168 387.6184082 C324.55498604 386.13411064 324.55498604 386.13411064 324.97099304 384.61982727 C325.17908096 383.86614365 325.38716888 383.11246002 325.6015625 382.3359375 C324.54976188 382.33821582 324.54976188 382.33821582 323.47671276 382.34054017 C281.91598194 382.43005648 240.3552623 382.49868576 198.79445446 382.54019882 C193.80396883 382.54520163 188.81348339 382.55037892 183.82299805 382.55566406 C182.82948412 382.5567133 181.8359702 382.55776255 180.81234979 382.55884358 C164.72644842 382.57624783 148.64060424 382.60778564 132.5547368 382.64454868 C116.04860578 382.68195753 99.5425047 382.70417324 83.03633302 382.71229148 C72.85149451 382.71777936 62.66681765 382.73511112 52.48202889 382.76760337 C45.49751278 382.78875054 38.51308022 382.79513708 31.52853442 382.78994301 C27.49905337 382.78738155 23.46985477 382.7913024 19.44042397 382.8127594 C15.74820951 382.8322768 12.05646649 382.83317427 8.36422997 382.81953308 C6.40243838 382.81705245 4.44065204 382.8342579 2.4789415 382.85226274 C-8.20824375 382.78000234 -16.58910806 379.79606928 -24.3984375 372.3359375 C-30.85076784 364.53725477 -33.70410534 358.01593643 -33.67259216 347.82077026 C-33.67782884 346.97725419 -33.68306552 346.13373812 -33.68846089 345.26466095 C-33.70343086 342.44576079 -33.70416536 339.62704261 -33.70483398 336.80810547 C-33.71245716 334.78417658 -33.72088494 332.76025059 -33.73005676 330.73632812 C-33.75198524 325.24484884 -33.76079776 319.75342522 -33.76588321 314.2619071 C-33.76952688 310.83224292 -33.77576681 307.40259334 -33.7828846 303.97293472 C-33.80736745 292.01206063 -33.82042975 280.05122989 -33.82397461 268.09033203 C-33.82761524 256.93277976 -33.85755144 245.77550167 -33.89937919 234.61803329 C-33.93402407 225.04169863 -33.94952199 215.46545517 -33.95022064 205.88905823 C-33.95101504 200.16786613 -33.95982954 194.44695373 -33.98821831 188.72582626 C-34.01430145 183.34949275 -34.01665884 177.97367293 -34.00056267 172.5973053 C-33.99874075 170.62197377 -34.00550546 168.64661333 -34.02138138 166.67134476 C-34.04170333 163.97932676 -34.03137318 161.28913004 -34.01316833 158.59713745 C-34.03296829 157.41845055 -34.03296829 157.41845055 -34.05316824 156.2159518 C-33.99370902 152.37989574 -33.70107287 150.66994089 -31.08657932 147.78445625 C-28.3984375 146.3359375 -28.3984375 146.3359375 -24.7734375 146.8984375 C-20.07589899 148.89924094 -20.07589899 148.89924094 -18.3984375 151.3359375 C-18.10671245 154.05797902 -17.99976546 156.55104641 -18.02662659 159.27360535 C-18.02280202 160.09131812 -18.01897746 160.90903089 -18.015037 161.75152284 C-18.00572471 164.50143114 -18.01776059 167.25083953 -18.02954102 170.00073242 C-18.02707399 171.9684673 -18.02323659 173.93620087 -18.01812744 175.90393066 C-18.00977659 180.14699355 -18.01060805 184.38992229 -18.01831245 188.63298607 C-18.02987602 195.34387314 -18.01774824 202.05458698 -18.00169373 208.76545715 C-17.96546267 225.43880155 -17.959268 242.11214229 -17.96179199 258.78552246 C-17.96350322 271.733614 -17.95637264 284.68156449 -17.92181343 297.62961656 C-17.90501915 304.29858555 -17.90681522 310.96721076 -17.92263615 317.63617837 C-17.92843759 321.79060485 -17.91768434 325.94486876 -17.90238953 330.09926605 C-17.8986664 332.02291346 -17.90176238 333.94658828 -17.91226006 335.87021065 C-17.92566093 338.50166729 -17.9143959 341.1319417 -17.89723206 343.76335144 C-17.91194222 344.89844872 -17.91194222 344.89844872 -17.92694956 346.05647725 C-17.84361059 352.25852369 -16.00536054 357.69537675 -11.58203125 362.17578125 C-11.00582031 362.53800781 -10.42960937 362.90023438 -9.8359375 363.2734375 C-9.25714844 363.65371094 -8.67835937 364.03398437 -8.08203125 364.42578125 C-4.59086135 366.31311904 -1.70292987 366.4644008 2.18690777 366.4746027 C3.35633504 366.48007714 4.5257623 366.48555159 5.73062676 366.49119192 C7.02146497 366.49217003 8.31230317 366.49314814 9.64225769 366.49415588 C11.02253164 366.49872038 12.40280421 366.50372023 13.78307515 366.50911945 C17.58441974 366.5227228 21.38575536 366.53012526 25.18711793 366.53654611 C29.2832287 366.54454041 33.37932076 366.55824152 37.47541809 366.57125854 C44.57500308 366.59303507 51.67458995 366.61117526 58.7741909 366.62686348 C69.03909167 366.6495514 79.30397174 366.67769572 89.56885497 366.70718276 C106.22191957 366.7548719 122.87499263 366.7981325 139.52807617 366.83862305 C155.70744485 366.87797125 171.886806 366.91939585 188.06616211 366.96362305 C189.06303046 366.96634732 190.05989881 366.96907159 191.0869753 366.97187842 C196.08784329 366.98555778 201.08871116 366.99927808 206.08957899 367.01301873 C247.59355783 367.12700427 289.09755289 367.23380903 330.6015625 367.3359375 C330.73555954 366.58465576 330.86955658 365.83337402 331.00761414 365.05932617 C331.18516739 364.0716626 331.36272064 363.08399902 331.5456543 362.06640625 C331.72090134 361.08824951 331.89614838 360.11009277 332.07670593 359.10229492 C332.70369477 355.79762974 333.5158908 352.57699964 334.4140625 349.3359375 C334.75824219 348.0778125 335.10242188 346.8196875 335.45703125 345.5234375 C335.64056152 344.85570312 335.8240918 344.18796875 336.01318359 343.5 C337.3295523 338.65838496 338.58315529 333.7998575 339.85083008 328.9453125 C341.04499597 324.39131464 342.29071002 319.85777726 343.6015625 315.3359375 C336.11987338 315.54035524 329.36163777 315.78886931 322.2890625 318.3984375 C316.99164783 320.30863126 312.18569077 321.86470704 306.6015625 320.3359375 C303.16429316 318.05723658 300.40984232 315.34079691 297.6015625 312.3359375 C290.62415438 305.18834869 284.07788211 300.59391185 274.6015625 297.3359375 C273.4878125 296.9234375 272.3740625 296.5109375 271.2265625 296.0859375 C260.62356576 293.89221404 249.57008248 295.28262194 239.6015625 299.3359375 C236.35138125 299.90118641 234.47752469 299.92231055 231.69921875 298.0625 C225.75542226 293.07894875 225.75542226 293.07894875 225.328125 288.23828125 C225.65832225 283.52589477 227.00304998 280.14063218 228.9765625 275.8984375 C229.33451904 275.11637939 229.69247559 274.33432129 230.0612793 273.52856445 C236.41006919 260.03142671 244.58035827 248.33900155 254.6015625 237.3359375 C255.19324219 236.67335937 255.78492188 236.01078125 256.39453125 235.328125 C273.61936208 217.04003301 298.43780035 205.02505127 322.6015625 199.3359375 C323.48714844 199.11164063 324.37273437 198.88734375 325.28515625 198.65625 C355.07067256 192.34466019 385.98533294 200.02782272 412.6015625 213.3359375 C412.9315625 172.4159375 413.2615625 131.4959375 413.6015625 89.3359375 C271.0415625 89.3359375 128.4815625 89.3359375 -18.3984375 89.3359375 C-18.3984375 102.2059375 -18.3984375 115.0759375 -18.3984375 128.3359375 C-23.3984375 133.3359375 -23.3984375 133.3359375 -27.0234375 133.8359375 C-30.59753415 133.3064417 -31.30821816 133.10374432 -33.3984375 130.3359375 C-33.77875423 128.33649254 -33.77875423 128.33649254 -33.78611755 126.01156616 C-33.79602219 125.12854828 -33.80592682 124.2455304 -33.81613159 123.33575439 C-33.81162994 122.36950134 -33.8071283 121.40324829 -33.80249023 120.40771484 C-33.80935349 119.38785492 -33.81621674 118.367995 -33.82328796 117.31723022 C-33.84163349 113.93530464 -33.83770546 110.55383983 -33.83203125 107.171875 C-33.83659115 104.82117562 -33.84189615 102.47047759 -33.84791565 100.11978149 C-33.85686336 95.18510537 -33.85440683 90.25059091 -33.84448242 85.31591797 C-33.83302374 79.00431163 -33.85314866 72.69326733 -33.88239956 66.38173485 C-33.90078977 61.52255729 -33.90046286 56.66351349 -33.89476204 51.80430984 C-33.89460899 49.47839193 -33.9006394 47.15246484 -33.91305351 44.82658005 C-33.92800452 41.56421021 -33.91725325 38.30286608 -33.90014648 35.04052734 C-33.91464844 33.60936584 -33.91464844 33.60936584 -33.92944336 32.14929199 C-33.82779716 22.84749366 -30.62711139 15.90027217 -24.32421875 9.125 C-17.20570814 2.51186032 -9.66251053 0.02854947 0 0 Z " fill="#010101" transform="translate(33.3984375,13.6640625)"/>
<path d="M0 0 C0.68146088 -0.00095673 1.36292175 -0.00191345 2.06503296 -0.00289917 C3.50234062 -0.00357865 4.93965138 -0.00174054 6.37695312 0.00244141 C8.58470478 0.0078095 10.79225453 0.0024802 13 -0.00390625 C14.39583378 -0.00324575 15.79166744 -0.00196517 17.1875 0 C18.46189941 0.00112793 19.73629883 0.00225586 21.04931641 0.00341797 C23.9609375 0.1328125 23.9609375 0.1328125 24.9609375 1.1328125 C25.37999849 4.82054918 25.39832702 6.54459901 23.1484375 9.5703125 C22.4265625 10.4159375 21.7046875 11.2615625 20.9609375 12.1328125 C17.2230918 18.80753696 16.89817849 25.32914176 18.546875 32.78125 C21.07570634 40.32134344 26.2414491 45.7769178 33.35546875 49.328125 C39.97766954 51.37336243 47.58599698 51.09964957 53.9609375 48.3828125 C55.31307331 47.66726618 56.6496341 46.92069648 57.9609375 46.1328125 C58.8684375 45.5965625 59.7759375 45.0603125 60.7109375 44.5078125 C66.29241986 38.61624779 69.33790999 30.66297061 69.24609375 22.609375 C68.61489993 17.1274999 66.16024456 12.55901549 62.6484375 8.3828125 C60.9609375 6.1328125 60.9609375 6.1328125 61.1484375 3.3828125 C61.9609375 1.1328125 61.9609375 1.1328125 62.9609375 0.1328125 C67.26741386 -0.12060986 71.58538804 -0.05241388 75.8984375 -0.0546875 C77.11724609 -0.06693359 78.33605469 -0.07917969 79.59179688 -0.09179688 C81.33493164 -0.09469727 81.33493164 -0.09469727 83.11328125 -0.09765625 C84.18570068 -0.10176514 85.25812012 -0.10587402 86.36303711 -0.11010742 C88.9609375 0.1328125 88.9609375 0.1328125 90.9609375 2.1328125 C90.85926754 5.69126119 89.59084161 7.80561825 87.5234375 10.5703125 C83.26572073 16.29238851 81.93304224 22.09815434 82.9609375 29.1328125 C85.47579194 37.85621385 88.83041574 43.73564439 96.80078125 48.15234375 C103.98303039 51.36893386 111.84845649 51.1503782 119.2109375 48.6328125 C125.71770471 45.70528449 129.27186294 40.91161258 132.8984375 34.9453125 C134.8497838 27.94342283 135.4028212 20.25431595 132.1484375 13.5703125 C130.93988893 11.5028312 129.70946535 9.83798308 128.1484375 8.0078125 C126.3980495 5.24404198 127.34262732 3.23698196 127.9609375 0.1328125 C145.67586217 0.10948418 163.39078287 0.09183366 181.10571957 0.08100033 C189.33049469 0.07583723 197.55526029 0.06879427 205.7800293 0.05737305 C212.94614196 0.04742664 220.11224773 0.04095918 227.2783671 0.03872401 C231.07510739 0.03741682 234.87182795 0.03433052 238.66856194 0.02708244 C242.23812652 0.0203229 245.80766313 0.0181954 249.37723351 0.01970482 C251.32008596 0.01929614 253.26293534 0.0139006 255.20578003 0.00839233 C256.92432945 0.01045433 256.92432945 0.01045433 258.67759705 0.01255798 C259.67958602 0.01163619 260.68157499 0.0107144 261.71392727 0.00976467 C263.9609375 0.1328125 263.9609375 0.1328125 264.9609375 1.1328125 C265.76446127 5.7243769 264.547383 8.11892831 262.0234375 11.8203125 C261.47816406 12.56667969 260.93289063 13.31304687 260.37109375 14.08203125 C257.03748857 18.93007203 257.42320952 24.48288189 257.9609375 30.1328125 C260.06367133 37.75071678 264.71195687 44.46908416 271.5234375 48.5703125 C278.15491687 51.52329372 286.50144981 51.22835617 293.3359375 49.0078125 C300.72236621 45.65742817 305.00636116 40.58279262 307.9609375 33.1328125 C310.20901022 26.38859434 309.72552661 19.9233634 306.5859375 13.5703125 C305.18841876 11.01636744 304.02463109 9.19650609 301.9609375 7.1328125 C301.7734375 4.0703125 301.7734375 4.0703125 301.9609375 1.1328125 C304.60634347 -1.51259347 312.33497935 -0.05280903 315.8984375 -0.0546875 C317.11724609 -0.06693359 318.33605469 -0.07917969 319.59179688 -0.09179688 C321.33493164 -0.09469727 321.33493164 -0.09469727 323.11328125 -0.09765625 C324.18570068 -0.10176514 325.25812012 -0.10587402 326.36303711 -0.11010742 C328.9609375 0.1328125 328.9609375 0.1328125 330.9609375 2.1328125 C330.65117543 6.10699391 329.24885631 8.31697729 326.8984375 11.4453125 C322.64185821 18.34035257 322.80434378 25.37497976 323.9609375 33.1328125 C326.59068919 40.79553466 331.77964921 45.59439591 338.9609375 49.1328125 C345.02036786 51.15262262 352.56511767 51.25303117 358.6015625 49.26171875 C365.95838894 45.44567782 370.73972853 39.71049893 373.9609375 32.1328125 C374.99026446 24.13930044 374.72540621 16.82008466 369.9609375 10.1328125 C369.3628125 9.4109375 368.7646875 8.6890625 368.1484375 7.9453125 C366.9609375 6.1328125 366.9609375 6.1328125 367.2109375 3.4453125 C367.9609375 1.1328125 367.9609375 1.1328125 368.9609375 0.1328125 C372.9472529 -0.13518441 376.93757906 -0.13862831 380.93212891 -0.16235352 C382.92504062 -0.1793808 384.91766517 -0.22323485 386.91015625 -0.26757812 C394.35138067 -0.31648405 400.60773738 -0.04406689 406.9609375 4.1328125 C419.98757914 17.15945414 411.9609375 48.16635817 411.9609375 59.1328125 C269.4009375 59.1328125 126.8409375 59.1328125 -20.0390625 59.1328125 C-20.0390625 10.25017191 -20.0390625 10.25017191 -14.44140625 4.48828125 C-9.44595011 0.50523756 -6.30035416 0.00556639 0 0 Z " fill="#F97E85" transform="translate(35.0390625,28.8671875)"/>
<path d="M0 0 C1.77741074 -0.01292336 1.77741074 -0.01292336 3.59072876 -0.02610779 C6.81618105 -0.04481998 10.04097941 -0.04569735 13.26645541 -0.03678632 C15.9700348 -0.0316462 18.67352379 -0.03899334 21.37709385 -0.04625839 C27.76042944 -0.06321056 34.14352571 -0.05973927 40.52685547 -0.04296875 C47.0884884 -0.02605151 53.64945584 -0.04188634 60.21101612 -0.07419163 C65.86740772 -0.10097416 71.52359326 -0.10814035 77.18004185 -0.09967655 C80.5483901 -0.09477242 83.91633831 -0.09682471 87.28463554 -0.11746407 C91.04441174 -0.13495556 94.80277947 -0.12032593 98.5625 -0.09765625 C99.66254868 -0.10934845 100.76259735 -0.12104065 101.89598083 -0.13308716 C109.91826531 -0.03507082 116.62746211 1.7589196 122.72399044 7.21384335 C126.21353563 10.87273565 128.05164157 14.86930992 129.69360352 19.61547852 C132.16198147 23.72386351 137.67907291 23.99807212 142.03344727 25.09594727 C151.38922257 27.94612117 158.32274477 34.26042288 163.14672852 42.74047852 C164.15115266 45.31606891 163.91303179 47.01817661 162.84594727 49.53344727 C160.98338133 51.3960132 158.31629437 50.66166365 155.83723933 50.67185277 C154.5304599 50.66952986 154.5304599 50.66952986 153.19728088 50.66716003 C152.27903831 50.66942559 151.36079574 50.67169115 150.41472763 50.67402536 C147.31309368 50.68039614 144.21150308 50.67953403 141.10986328 50.67871094 C138.89623965 50.68170051 136.68261655 50.68510256 134.46899414 50.68888855 C128.43811689 50.69775317 122.40725381 50.70006769 116.37637067 50.70070434 C111.35117375 50.70165133 106.32598017 50.70532717 101.30078453 50.70887643 C90.12828272 50.71656393 78.95578617 50.71954421 67.78328229 50.71887108 C67.11229913 50.71883112 66.44131598 50.71879117 65.75 50.71875 C65.0782018 50.71870912 64.4064036 50.71866824 63.71424787 50.71862612 C52.82278392 50.71821953 41.93135451 50.72779121 31.03990055 50.74188837 C19.8685559 50.75623421 8.69722392 50.76297618 -2.47413117 50.76229459 C-8.7507949 50.7620389 -15.02741955 50.76492896 -21.30407524 50.77547264 C-27.20467687 50.78511332 -33.10520173 50.78526068 -39.00580597 50.77795601 C-41.17708256 50.77690514 -43.34836383 50.77930256 -45.51963234 50.78531647 C-48.47264777 50.79296874 -51.42539359 50.78843686 -54.37840271 50.78068542 C-55.24735827 50.78582899 -56.11631384 50.79097255 -57.01160139 50.79627198 C-62.92578156 50.76171844 -62.92578156 50.76171844 -65.15405273 48.53344727 C-65.15405273 42.53643049 -61.93435454 38.83228605 -58.15405273 34.53344727 C-57.63327148 33.93274414 -57.11249023 33.33204102 -56.57592773 32.71313477 C-52.11376534 28.23087254 -47.34319366 26.31913279 -41.52905273 24.15844727 C-34.12024377 21.37678632 -30.74543231 18.72894181 -27.15405273 11.53344727 C-20.33513139 1.5021439 -11.60016919 -0.06868992 0 0 Z " fill="#FEDECE" transform="translate(317.154052734375,432.466552734375)"/>
<path d="M0 0 C5.8666524 3.41084442 7.94454548 8.6847903 9.9140625 14.87109375 C13.1607988 27.99458394 12.33219407 41.58766455 12 55 C11.98453125 55.80115234 11.9690625 56.60230469 11.953125 57.42773438 C11.62484899 71.83084421 10.20573325 88.50711292 5 102 C4.58492188 101.64808594 4.16984375 101.29617188 3.7421875 100.93359375 C-12.3395456 88.048021 -30.75408223 83.5945523 -51 85 C-53.34964876 85.27148848 -55.66473633 85.61803533 -58 86 C-56.53519805 78.18494868 -53.92963306 71.06667363 -51 63.6875 C-50.75734406 63.07427887 -50.51468811 62.46105774 -50.26467896 61.82925415 C-29.58801533 9.7603577 -29.58801533 9.7603577 -9.1328125 -0.2890625 C-5.70606355 -1.43131215 -3.3957492 -1.11014878 0 0 Z " fill="#FA7E85" transform="translate(413,230)"/>
<path d="M0 0 C18.16683373 8.0353303 32.8694945 23.4531935 43.14453125 40.1484375 C44.69610287 43.05879534 44.69610287 43.05879534 47 44 C48.37342831 44.0689472 49.75002102 44.08467708 51.125 44.0625 C53.043125 44.0315625 53.043125 44.0315625 55 44 C55.84026396 45.76755526 56.67198722 47.53917263 57.5 49.3125 C57.9640625 50.29863281 58.428125 51.28476562 58.90625 52.30078125 C60 55 60 55 60 58 C59.34 58.4125 58.68 58.825 58 59.25 C55.69273447 60.88785839 55.69273447 60.88785839 55.5625 63.9375 C55.8062759 68.3629702 57.06150345 72.58790852 58.24609375 76.83984375 C60.12908572 84.73279972 60.12527352 92.42636022 60.0625 100.5 C60.05798828 101.60859375 60.05347656 102.7171875 60.04882812 103.859375 C60.03713158 106.57297399 60.02074086 109.28645761 60 112 C56.80159618 110.43816558 53.90433297 108.65810629 50.9375 106.6875 C33.49554977 95.56073865 16.2544527 93.05389779 -4 96 C-3.39432155 90.13357158 -2.59154861 84.36717154 -1.5625 78.5625 C-1.02912552 75.3769872 -0.5126933 72.18889867 0 69 C0.21140625 67.700625 0.4228125 66.40125 0.640625 65.0625 C2.15976383 54.54327859 2.21163396 43.98230207 2.25 33.375 C2.25526703 32.63645782 2.26053406 31.89791565 2.26596069 31.13699341 C2.32397554 20.6059107 1.54571458 10.4168487 0 0 Z " fill="#FCCF5A" transform="translate(437,240)"/>
<path d="M0 0 C0.69287109 0.00451172 1.38574219 0.00902344 2.09960938 0.01367188 C3.79561068 0.02536844 5.49156703 0.04330076 7.1875 0.0625 C6.8471875 0.51238281 6.506875 0.96226562 6.15625 1.42578125 C5.10499582 2.82092975 4.0586745 4.21980062 3.015625 5.62109375 C1.8118159 7.22874479 0.59333004 8.82552596 -0.640625 10.41015625 C-17.35048107 32.38429624 -27.32014308 59.05211071 -35.8125 85.0625 C-39.71653237 85.0625 -40.82055102 83.75263582 -43.875 81.375 C-56.31240368 72.11240726 -69.27604676 67.84821004 -84.8125 67.9375 C-85.48539062 67.93363281 -86.15828125 67.92976563 -86.8515625 67.92578125 C-91.28139635 67.93433305 -95.45591336 68.3477475 -99.8125 69.0625 C-95.04657437 58.82939539 -90.05487789 49.79081405 -82.8125 41.0625 C-82.12671875 40.21300781 -81.4409375 39.36351562 -80.734375 38.48828125 C-63.52176981 18.18378216 -38.5145201 6.18637539 -12.8125 1.0625 C-11.575 0.76666016 -11.575 0.76666016 -10.3125 0.46484375 C-6.87402057 -0.08853653 -3.47105163 -0.04318055 0 0 Z " fill="#FCDE75" transform="translate(376.8125,225.9375)"/>
<path d="M0 0 C10.56 0 21.12 0 32 0 C32 41.25 32 82.5 32 125 C25.07 122.03 18.14 119.06 11 116 C4.52665396 113.87049472 4.52665396 113.87049472 -2 112 C-1.01 111.505 -1.01 111.505 0 111 C-0.05124023 110.01717041 -0.10248047 109.03434082 -0.15527344 108.02172852 C-0.34143182 104.33798438 -0.49836341 100.65345152 -0.64697266 96.96801758 C-0.71498263 95.38009747 -0.790674 93.79248542 -0.87451172 92.20532227 C-1.74777139 75.48187357 -1.74777139 75.48187357 3 68 C5.49710784 63.00578432 4.76197574 55.44178589 3.140625 50.24609375 C2.17004277 48.11151615 1.11192119 46.06308269 0 44 C-0.92645446 41.22063662 -1.10056322 39.74256078 -1.02172852 36.89575195 C-1.00163223 36.07512772 -0.98153595 35.25450348 -0.96083069 34.40901184 C-0.92027809 33.0870002 -0.92027809 33.0870002 -0.87890625 31.73828125 C-0.85529526 30.83248825 -0.83168427 29.92669525 -0.80735779 28.99345398 C-0.73076856 26.09964135 -0.64672369 23.20609952 -0.5625 20.3125 C-0.50927458 18.35092472 -0.45653421 16.38933622 -0.40429688 14.42773438 C-0.27607158 9.61826819 -0.13777021 4.80924019 0 0 Z " fill="#E4EDF8" transform="translate(415,103)"/>
<path d="M0 0 C8.2658716 4.82175843 12.7974241 11.70867854 15.765625 20.61328125 C16.72986765 32.0261205 14.5266865 39.87703662 7.46875 48.82421875 C1.48941316 55.10526525 -6.29961224 57.87714986 -14.859375 58.11328125 C-23.39401952 57.96908451 -29.88832197 55.29131528 -36.39453125 49.78515625 C-42.72651226 43.17085762 -45.40971508 35.8114192 -45.859375 26.73828125 C-45.60112763 18.56341629 -42.92029746 11.8748606 -37.55859375 5.67578125 C-26.78212134 -4.23361867 -13.22142816 -6.14346465 0 0 Z " fill="#030404" transform="translate(404.234375,135.38671875)"/>
<path d="M0 0 C6.40205701 4.90615153 10.33634703 10.7317656 12.75 18.375 C12.8325 19.24125 12.915 20.1075 13 21 C13.07476562 21.69480469 13.14953125 22.38960937 13.2265625 23.10546875 C13.73121043 31.45871999 10.94333814 38.8817491 6.1015625 45.65625 C4.06422322 47.92837559 2.17035895 49.52185283 -0.375 51.1875 C-1.10460937 51.67605469 -1.83421875 52.16460937 -2.5859375 52.66796875 C-9.75010492 56.62101259 -16.99111271 56.95323632 -25 56 C-34.88757387 52.84710423 -41.53368069 46.9645999 -46.4375 37.9375 C-49.36401971 30.525354 -49.31302952 22.15473209 -46.9296875 14.61328125 C-43.01973885 6.09899416 -37.74810414 0.49832067 -29.25 -3.4375 C-18.93510247 -7.06506335 -9.34315237 -5.45017222 0 0 Z " fill="#030303" transform="translate(328,137)"/>
<path d="M0 0 C7.72205624 4.46927227 13.12454313 10.64281622 15.890625 19.20703125 C17.73194798 29.16858857 16.39879194 38.11669493 10.80859375 46.5390625 C5.90747295 52.74946616 -0.31521998 55.85246916 -7.71875 58.3203125 C-18.34440459 59.21804786 -25.68532452 57.81120065 -33.96875 51.0703125 C-40.95541087 44.55685176 -44.62911158 37.11533591 -45.09375 27.5078125 C-44.85278273 18.67234586 -41.16938455 11.68160132 -35.10546875 5.37109375 C-24.85716626 -3.43473081 -12.4006599 -5.75744924 0 0 Z " fill="#030403" transform="translate(86.71875,134.6796875)"/>
<path d="M0 0 C7.24191037 4.18988647 12.24268625 10.49509151 14.66015625 18.5390625 C15.898024 28.61574031 14.9730203 37.40070401 9.08203125 45.78515625 C4.14402325 51.84644986 -1.63312584 55.76058914 -9.33984375 57.5390625 C-19.41123367 58.43464632 -27.56593004 56.68482023 -35.48828125 50.26171875 C-42.62098965 43.62559132 -46.17089117 35.89908294 -46.83984375 26.1640625 C-46.50218509 18.21501496 -42.93759511 10.76944707 -37.52734375 5.0390625 C-26.74609297 -4.78249361 -13.12699631 -6.19165307 0 0 Z " fill="#030403" transform="translate(88.33984375,288.4609375)"/>
<path d="M0 0 C6.01359056 4.91027064 10.70134913 10.35567698 11.82861328 18.25048828 C12.79125304 28.72854461 11.6514133 36.91651727 4.94140625 45.3203125 C-0.52969315 51.29334762 -7.27627174 54.88226479 -15.3671875 55.54296875 C-26.16956328 55.78818397 -32.81429229 53.46327713 -40.7265625 46.1015625 C-47.46923285 39.06839162 -48.91174081 32.23179227 -48.87866211 22.82641602 C-48.66687116 15.0715449 -46.66934001 9.74974371 -41.32421875 4.03125 C-29.38427312 -7.1422802 -13.81988502 -9.56591722 0 0 Z " fill="#030403" transform="translate(170.44921875,137.6953125)"/>
<path d="M0 0 C7.69696083 4.4679276 13.44895449 10.82733222 16.28125 19.32421875 C17.18351951 29.92303023 17.19519765 38.62269062 10.28125 47.32421875 C4.64220414 53.74646543 -2.15976358 57.61096256 -10.671875 58.703125 C-20.09692577 59.07771035 -27.23420623 56.64763397 -34.53125 50.69921875 C-41.53220997 43.90928062 -44.18167255 37.47835155 -44.34375 27.82421875 C-44.20983385 18.66495406 -41.6294459 12.24335005 -35.40625 5.44921875 C-25.72457677 -3.53334022 -12.00070706 -5.55227518 0 0 Z " fill="#030403" transform="translate(165.71875,287.67578125)"/>
<path d="M0 0 C6.53407163 4.33042394 11.14584848 10.36926585 13.3125 17.9375 C15.23381033 27.50674464 13.55825533 34.73969452 8.75 43.19921875 C4.73642359 49.18537675 -1.04984813 53.32267581 -7.890625 55.640625 C-18.58158515 57.46204784 -27.59509354 55.93028351 -36.75 50.3125 C-44.2849115 42.5682854 -47.43457768 34.85833006 -47.43823242 24.1706543 C-47.23654177 16.38468422 -44.58511347 10.97288049 -39.5 5.125 C-38.675 4.42375 -37.85 3.7225 -37 3 C-36.236875 2.29875 -35.47375 1.5975 -34.6875 0.875 C-24.41138428 -6.29438306 -10.76966095 -6.21475058 0 0 Z " fill="#030403" transform="translate(248,213)"/>
<path d="M0 0 C7.53834482 7.74774329 10.67580842 15.45247737 10.69042969 26.1418457 C10.53200567 32.45216235 8.81875655 37.07832373 5.25 42.3125 C4.651875 43.240625 4.05375 44.16875 3.4375 45.125 C-2.94726517 51.50976517 -10.48360839 54.58550462 -19.5 54.6875 C-28.28682832 54.53935537 -35.62993506 52.27385179 -42.1484375 46.21875 C-48.83198692 38.26369605 -51.63782507 29.56436684 -50.75 19.3125 C-49.2198187 11.17025087 -44.89395449 4.35352506 -38.2109375 -0.55078125 C-25.80943606 -8.21483598 -12.37954587 -7.59653951 0 0 Z " fill="#030403" transform="translate(92.75,214.6875)"/>
<path d="M0 0 C6.76936582 4.91445298 12.38897365 10.51624655 14 19 C14.71920891 29.02176351 14.68126735 38.04484795 8.234375 46.24609375 C1.40492212 53.57296741 -6.04411442 57.03487227 -16 57.4375 C-24.5352583 57.34170586 -30.98023655 54.46218336 -37.421875 48.9140625 C-43.94063646 42.13359894 -46.07803623 35.85409393 -46.4375 26.5625 C-46.18107217 17.39520525 -43.27810358 10.44182795 -37 3.7578125 C-26.54927168 -5.42739794 -12.11334982 -7.07768558 0 0 Z " fill="#020303" transform="translate(247,136)"/>
<path d="M0 0 C7.98893629 8.35206976 10.12508492 15.97416371 10.03125 27.2578125 C9.42827068 35.01279654 6.38567699 41.48435244 0.75 46.875 C-8.66773609 53.38319161 -15.78015456 54.76682384 -27.25 53.875 C-35.91839966 51.74835262 -41.8529571 47.39453006 -46.5625 39.8125 C-51.18865487 31.93225194 -51.71063361 22.82866962 -49.53125 13.9453125 C-45.98155598 4.52717272 -40.13744685 -0.68850214 -31.25 -5.125 C-20.44748691 -8.822355 -9.20203142 -6.01671285 0 0 Z " fill="#020303" transform="translate(172.25,215.125)"/>
<path d="M0 0 C9.30665443 3.52450962 15.33641345 9.06321199 21.73828125 16.609375 C24.97449363 20.03003472 26.90075612 20.88429012 31.5625 21.375 C36.1416243 21.28972767 39.93232076 19.67995726 44.09375 17.875 C47.88048208 16.73490862 51.05346468 16.86507572 55 17 C55.79398624 35.17346287 55.79398624 35.17346287 51 41 C47.20579459 45.02289725 43.0014042 47.719707 37.42460632 48.24050903 C36.05559929 48.2338472 36.05559929 48.2338472 34.65893555 48.22705078 C33.09788338 48.22682419 33.09788338 48.22682419 31.5052948 48.22659302 C29.83784966 48.21110916 29.83784966 48.21110916 28.13671875 48.1953125 C26.98959915 48.1924826 25.84247955 48.18965271 24.66059875 48.18673706 C21.00279232 48.17555697 17.34523222 48.15045595 13.6875 48.125 C11.20508167 48.11496741 8.72265949 48.10584205 6.24023438 48.09765625 C0.16007244 48.07562471 -5.91994618 48.04216848 -12 48 C-11.85164095 46.56956921 -11.70025413 45.13945225 -11.54760742 43.70947266 C-11.46363205 42.91304352 -11.37965668 42.11661438 -11.2931366 41.29605103 C-10.9018451 38.23118208 -10.15288404 35.34648451 -9.3125 32.375 C-8.7865625 30.48007812 -8.7865625 30.48007812 -8.25 28.546875 C-8.0540625 27.84240234 -7.858125 27.13792969 -7.65625 26.41210938 C-6.89084808 23.59880173 -6.16241676 20.77713327 -5.4375 17.953125 C-5.16897217 16.90850098 -4.90044434 15.86387695 -4.6237793 14.78759766 C-4.08673525 12.69404708 -3.55171195 10.59997701 -3.01879883 8.50537109 C-2.77154053 7.54711426 -2.52428223 6.58885742 -2.26953125 5.6015625 C-2.04885986 4.73869629 -1.82818848 3.87583008 -1.60083008 2.98681641 C-1 1 -1 1 0 0 Z " fill="#F6F4F5" transform="translate(392,333)"/>
<path d="M0 0 C15.86443208 -0.11704762 31.72874668 -0.20509256 47.59350395 -0.25906086 C54.9605952 -0.28479069 62.32741742 -0.31984029 69.69433594 -0.37719727 C76.11891308 -0.42719336 82.54329528 -0.45932894 88.96806157 -0.47044247 C92.36682034 -0.47693412 95.76502166 -0.49207964 99.16360092 -0.52865028 C102.96731017 -0.56508013 106.76987413 -0.56993917 110.57373047 -0.56762695 C111.68791855 -0.58560333 112.80210663 -0.60357971 113.95005798 -0.62210083 C122.03090901 -0.56913721 128.73615428 1.18318877 134.87748528 6.68064404 C138.36804854 10.33866235 140.20572029 14.33593776 141.84765625 19.08203125 C144.3160342 23.19041624 149.83312565 23.46462486 154.1875 24.5625 C163.5432753 27.4126739 170.47679751 33.72697562 175.30078125 42.20703125 C176.30520539 44.78262164 176.06708452 46.48472934 175 49 C173.13548235 50.86451765 170.46299928 50.12279455 167.98196787 50.12908131 C167.10941734 50.12616847 166.23686682 50.12325563 165.33787537 50.12025452 C163.95839481 50.12153615 163.95839481 50.12153615 162.55104595 50.12284368 C159.44473723 50.1245013 156.33848155 50.11897252 153.23217773 50.11352539 C151.01530966 50.11324355 148.7984415 50.11340118 146.58157349 50.1139679 C140.54256099 50.11425601 134.50356817 50.1083571 128.46456027 50.10139394 C122.16111267 50.09516264 115.85766468 50.09455678 109.55421448 50.09336853 C98.96753605 50.09060883 88.38086411 50.08435332 77.79418945 50.07543945 C66.88793982 50.06626603 55.98169216 50.05918486 45.07543945 50.05493164 C44.40362817 50.05466892 43.73181689 50.05440619 43.03964769 50.05413551 C39.66950231 50.05283051 36.29935691 50.05156679 32.9292115 50.05032361 C4.95280261 50.03985771 -23.02359819 50.02225698 -51 50 C-51 49.67 -51 49.34 -51 49 C13.35 49 77.7 49 144 49 C140.38086146 36.93620486 135.58692992 28.12929758 124.65234375 21.59765625 C120.45144638 19.35761051 117.06181789 17.92072322 112.3125 17.5 C110.11328125 17.12890625 110.11328125 17.12890625 108 16 C105.11497134 11.88085026 103.09150247 7.57516165 101 3 C98.83064216 0.83064216 93.72307801 1.81331493 90.70678711 1.79467773 C89.73128403 1.78477814 88.75578094 1.77487854 87.75071716 1.76467896 C84.50961782 1.73296052 81.26850378 1.70826581 78.02734375 1.68359375 C75.78674426 1.66303314 73.54614873 1.64203692 71.30555725 1.62062073 C65.39544877 1.56530775 59.48530475 1.5159393 53.57513428 1.46777344 C47.54940614 1.4176256 41.52372988 1.36190455 35.49804688 1.30664062 C23.66540886 1.19894628 11.83272588 1.09752652 0 1 C0 0.67 0 0.34 0 0 Z " fill="#EABFB1" transform="translate(305,433)"/>
<path d="M0 0 C17.36424499 16.85448216 25.35560607 46.86098751 26.07617188 70.4987793 C26.0977405 73.16667175 26.08770492 75.83215564 26.0625 78.5 C26.05798828 79.4178125 26.05347656 80.335625 26.04882812 81.28125 C26.03716326 83.52090391 26.02079614 85.76041545 26 88 C25.0255896 87.99214478 25.0255896 87.99214478 24.03149414 87.98413086 C21.04183957 87.96313497 18.05220059 87.9502687 15.0625 87.9375 C14.04091797 87.92912109 13.01933594 87.92074219 11.96679688 87.91210938 C5.8878003 87.89268766 0.0273768 88.20179682 -6 89 C-5.32365692 82.44913421 -4.37596019 76.01716297 -3.19335938 69.54101562 C-0.35780119 53.27695909 0.26865511 37.35196986 0.125 20.875 C0.11493621 18.83724405 0.10581645 16.79948321 0.09765625 14.76171875 C0.07594406 9.84102176 0.0416075 4.92056732 0 0 Z " fill="#FEE076" transform="translate(439,247)"/>
<path d="M0 0 C0.79398624 18.17346287 0.79398624 18.17346287 -4 24 C-7.79420541 28.02289725 -11.9985958 30.719707 -17.57539368 31.24050903 C-18.94440071 31.2338472 -18.94440071 31.2338472 -20.34106445 31.22705078 C-21.90211662 31.22682419 -21.90211662 31.22682419 -23.4947052 31.22659302 C-25.16215034 31.21110916 -25.16215034 31.21110916 -26.86328125 31.1953125 C-28.01040085 31.1924826 -29.15752045 31.18965271 -30.33940125 31.18673706 C-33.99720768 31.17555697 -37.65476778 31.15045595 -41.3125 31.125 C-43.79491833 31.11496741 -46.27734051 31.10584205 -48.75976562 31.09765625 C-54.83992756 31.07562471 -60.91994618 31.04216848 -67 31 C-67 30.67 -67 30.34 -67 30 C-65.76697144 30.02525757 -65.76697144 30.02525757 -64.5090332 30.05102539 C-60.77580303 30.10136404 -57.04598729 30.0826612 -53.3125 30.0625 C-52.01892578 30.09021484 -50.72535156 30.11792969 -49.39257812 30.14648438 C-42.6089737 30.29919913 -42.6089737 30.29919913 -37.02490234 27.06591797 C-33.68534212 21.2027606 -32.86892682 15.40629951 -32.4375 8.75 C-32.35371094 7.48671875 -32.26992188 6.2234375 -32.18359375 4.921875 C-32.09271484 3.47554688 -32.09271484 3.47554688 -32 2 C-31.24976563 2.32226562 -30.49953125 2.64453125 -29.7265625 2.9765625 C-22.7818031 5.58333465 -17.41432602 3.69777996 -10.90625 0.875 C-7.11951792 -0.26509138 -3.94653532 -0.13492428 0 0 Z " fill="#E3EBF6" transform="translate(447,350)"/>
<path d="M0 0 C5.3035228 2.70179463 9.09832298 6.29496895 11 12 C11.39680449 17.25765945 10.89498146 20.56102842 8 25 C4.04390427 29.01014075 0.41860248 31.11733625 -5.25 31.375 C-10.37953992 31.3081656 -13.44539724 29.63166731 -17 26 C-20.55951094 21.06261385 -20.84414184 15.88980783 -20 10 C-17.95260457 5.57762588 -15.37413781 2.93330429 -10.9921875 0.6953125 C-7.29228383 -0.59602643 -3.84128838 -0.69395538 0 0 Z " fill="#6CD29F" transform="translate(315,147)"/>
<path d="M0 0 C5.32182227 2.70256018 9.11814922 6.23683198 11 12 C11.82837075 17.59150259 10.44992694 20.76733834 7.3671875 25.26953125 C4.89494543 28.39868335 2.75248116 29.74917295 -1 31 C-5.63522786 31.53856933 -9.07906346 31.45178019 -13.3125 29.375 C-17.07280603 26.05193885 -19.63331855 23.51064546 -20.3828125 18.37890625 C-20.56651008 13.86606908 -20.32112611 10.70647745 -18.4375 6.5625 C-13.18037963 1.03578371 -7.62476162 -1.72636112 0 0 Z " fill="#6CD29F" transform="translate(236,147)"/>
<path d="M0 0 C4.78275683 2.11579206 7.70603828 4.38786116 9.8515625 9.3046875 C10.61063207 14.61026753 10.53298325 18.86322053 8.2265625 23.7421875 C4.10748301 28.18645747 0.98223042 30.52853129 -5.1484375 30.8046875 C-9.89033628 30.57719011 -12.59533813 29.60989622 -16.1484375 26.3046875 C-19.14193064 22.64420915 -20.93737073 19.4866614 -21.7734375 14.8046875 C-20.69913503 8.78859369 -17.86171927 4.82760463 -13.3359375 0.8046875 C-8.63906508 -1.4056054 -4.8479202 -1.56896326 0 0 Z " fill="#6CD29F" transform="translate(78.1484375,147.6953125)"/>
<path d="M0 0 C3.51520834 2.3707219 5.79390381 5.02530762 7.6875 8.8125 C8.31270076 14.41880843 8.31078103 19.55454687 5.0703125 24.3359375 C1.71884625 27.9146218 -1.96232654 29.63478627 -6.84375 30.00390625 C-11.00340315 29.7971765 -14.37081433 29.2114079 -17.75 26.6875 C-21.71530801 22.23861785 -23.63976583 18.30028112 -23.375 12.3125 C-22.60660666 7.31794331 -20.12505459 4.03576044 -16.3125 0.8125 C-11.12711721 -2.34290535 -5.58122398 -2.00081615 0 0 Z " fill="#6DD3A0" transform="translate(80.3125,301.1875)"/>
<path d="M0 0 C4.9710149 2.53240382 8.49430567 5.98861134 11 11 C11.37364646 16.60469691 11.20860998 20.18708503 8 25 C4.29153567 28.74899399 1.10818925 30.8378316 -4.25 31.25 C-9.13777343 30.92414844 -12.84554701 29.95366015 -16.55078125 26.59375 C-20.01760299 22.45309531 -20.71329543 18.6978941 -20.421875 13.36328125 C-19.39154421 7.59152082 -15.59181751 4.26260718 -11 1 C-7.52629893 -0.73685053 -3.79809188 -0.46115112 0 0 Z " fill="#6DD3A0" transform="translate(394,147)"/>
<path d="M0 0 C3.3332049 2.2726397 6.05544029 4.17581221 7.75 7.875 C8.62599242 13.42803023 8.47230419 18.18962357 6.25 23.375 C2.09727997 27.52772003 -1.96035509 29.50702135 -7.75 30.4375 C-13.30400717 29.5448917 -17.59435842 27.1243889 -20.94921875 22.56640625 C-23.25307096 17.79957691 -23.10295394 13.03366542 -22.25 7.875 C-17.54529119 -0.95584502 -9.14645382 -3.16608017 0 0 Z " fill="#6DD3A0" transform="translate(159.25,301.125)"/>
<path d="M0 0 C3.8957689 2.18616935 5.98575793 4.1887161 7.8125 8.375 C8.58306368 13.76091904 8.51505384 17.96989231 6.0625 22.875 C2.69093125 26.6211875 -0.08048011 29.01399388 -5.23828125 29.61328125 C-10.76114901 29.79451525 -13.88821475 29.17436836 -18.1875 25.375 C-21.61667072 21.67510527 -22.48719749 18.7957651 -22.6875 13.875 C-22.48029901 8.94896351 -21.67564876 6.04202818 -18.1875 2.375 C-12.40000253 -2.19483092 -6.85874664 -3.02292908 0 0 Z " fill="#6DD3A0" transform="translate(159.1875,148.625)"/>
<path d="M0 0 C4.57527405 2.04253306 7.07923994 4.7536461 9.3046875 9.1484375 C11.05730324 13.81551538 10.33869688 17.74314366 8.4375 22.1875 C6.17875907 26.22656798 3.46528521 28.66781546 -1 30 C-5.66251053 30.78280736 -9.9525259 31.1314028 -14.19140625 28.7890625 C-18.08647022 25.58518942 -20.59721414 22.52903048 -21.40625 17.44921875 C-21.57869953 12.36914306 -21.56571225 8.92764648 -18.1875 4.9375 C-12.63466002 -0.67018285 -7.61621685 -0.79692865 0 0 Z " fill="#6DD3A0" transform="translate(237,224)"/>
<path d="M0 0 C6.80157993 6.00139405 6.80157993 6.00139405 7.578125 10.5 C7.7509952 15.0440167 7.45870824 18.16907873 5.5 22.3125 C1.17065669 26.98363357 -1.95376026 29.11361982 -8.375 29.375 C-13.30870215 29.16078227 -16.23920505 28.42211702 -19.875 24.875 C-23.1706565 20.11231146 -24.81357121 15.71499866 -23.875 9.875 C-22.10031952 5.94742844 -19.88533688 2.8259053 -16.75 -0.125 C-11.31339954 -2.01599146 -5.37518898 -2.10333482 0 0 Z " fill="#6DD3A0" transform="translate(80.875,225.125)"/>
<path d="M0 0 C4.3067174 1.68523725 7.94501184 4.79699953 10 9 C10.77320689 13.92106442 10.70993282 18.33165788 8.75 22.9375 C3.08707865 29.6116573 3.08707865 29.6116573 -2.453125 30.30859375 C-7.5247129 30.54234012 -11.05050286 30.60318498 -15.0625 27.25 C-18.88660502 23.54744355 -20.32741299 20.05841635 -20.5625 14.75 C-20.49414687 9.08428474 -18.63773798 6.40430372 -14.7265625 2.4609375 C-10.46093399 -1.14844047 -5.3244873 -0.41730379 0 0 Z " fill="#6DD5A1" transform="translate(157,224)"/>
</svg>
