<?xml version="1.0" encoding="UTF-8"?>
<svg version="1.1" xmlns="http://www.w3.org/2000/svg" width="512" height="512">
<path d="M0 0 C1.12005936 -0.00860046 2.24011871 -0.01720093 3.39411926 -0.02606201 C4.62376404 -0.03032196 5.85340881 -0.03458191 7.12031555 -0.03897095 C8.41488174 -0.04714844 9.70944794 -0.05532593 11.04324341 -0.06375122 C15.33885116 -0.08994686 19.63446852 -0.10527815 23.93013 -0.11953735 C25.4105613 -0.12489838 26.89099254 -0.13027589 28.37142372 -0.13566971 C34.53164037 -0.1572964 40.69185442 -0.17603137 46.85209942 -0.1872921 C55.67088061 -0.20352013 64.48922045 -0.23667192 73.30783528 -0.29369295 C79.51348962 -0.33244558 85.71902618 -0.35193115 91.92479831 -0.35721266 C95.62857064 -0.3608594 99.33187197 -0.37280706 103.03551292 -0.4053154 C107.17211843 -0.44110348 111.30778053 -0.43701175 115.4445343 -0.42959595 C117.27381973 -0.45420395 117.27381973 -0.45420395 119.14006042 -0.47930908 C126.10986541 -0.42818907 131.37758099 0.23661506 136.60591125 5.15390015 C140.59879066 10.63274374 141.20286432 15.87184785 141.13716125 22.5093689 C141.14098816 23.37403275 141.14481506 24.23869659 141.14875793 25.12956238 C141.15146283 26.94392065 141.14420202 28.75831887 141.12739563 30.57260132 C141.10588547 33.34472339 141.12728492 36.11427739 141.15278625 38.88632202 C141.15014426 40.65651 141.14502193 42.4266964 141.13716125 44.1968689 C141.14525818 45.02091721 141.1533551 45.84496552 141.16169739 46.69398499 C141.09757632 50.6333593 140.84751758 52.73932566 138.82270813 56.2137146 C136.60591125 58.15390015 136.60591125 58.15390015 132.60591125 58.15390015 C132.93591125 62.77390015 133.26591125 67.39390015 133.60591125 72.15390015 C134.26591125 71.82390015 134.92591125 71.49390015 135.60591125 71.15390015 C137.55903625 70.9156189 137.55903625 70.9156189 139.85591125 70.84140015 C140.6035675 70.80401733 141.35122375 70.76663452 142.12153625 70.7281189 C147.99604411 71.73491348 152.66082965 76.76422356 157.04341125 80.59140015 C157.63960266 81.10710571 158.23579407 81.62281128 158.85005188 82.15414429 C160.77154119 83.81745222 162.68885607 85.48548468 164.60591125 87.15390015 C166.61973512 88.90139691 168.63430045 90.64803482 170.64912415 92.39437866 C171.91871163 93.49542703 173.18747918 94.59742182 174.45527649 95.70053101 C175.04123596 96.20979126 175.62719543 96.71905151 176.23091125 97.2437439 C176.79423157 97.73471558 177.35755188 98.22568726 177.9379425 98.73153687 C179.0439095 99.67465216 180.16648428 100.59865363 181.30513 101.50204468 C185.2445152 104.62946822 187.17878561 106.71966193 188.0473175 111.66952515 C188.27458017 116.80126286 188.1471906 120.27582458 184.73091125 124.27890015 C183.38751894 125.60340944 182.00966441 126.89354113 180.60591125 128.15390015 C179.46509094 129.23091187 179.46509094 129.23091187 178.30122375 130.3296814 C173.16838405 135.07714815 167.78535074 139.49367312 162.3441925 143.88046265 C158.76343216 146.8533621 155.37056813 150.00843574 151.99263 153.20858765 C148.64826815 155.93443414 145.51825728 158.06970881 141.12153625 158.26327515 C140.37388 158.1446814 139.62622375 158.02608765 138.85591125 157.90390015 C138.0979425 157.7956189 137.33997375 157.68733765 136.55903625 157.57577515 C134.60591125 157.15390015 134.60591125 157.15390015 132.60591125 156.15390015 C132.60591125 162.09390015 132.60591125 168.03390015 132.60591125 174.15390015 C134.25591125 174.48390015 135.90591125 174.81390015 137.60591125 175.15390015 C139.7186535 176.9231376 140.48335196 178.31480182 140.88200378 181.04415894 C141.02165156 183.44571429 141.04780269 185.8264076 141.039505 188.23202515 C141.04474686 189.11742981 141.04998871 190.00283447 141.0553894 190.91506958 C141.0618071 192.78780063 141.06047586 194.66057201 141.05195618 196.53329468 C141.04348171 199.38022984 141.07215241 202.22513371 141.10395813 205.0718689 C141.10557133 206.89608705 141.10499034 208.72030872 141.102005 210.54452515 C141.11885597 211.80900482 141.11885597 211.80900482 141.13604736 213.09902954 C141.06166759 219.50024135 139.6275049 224.96702981 135.12322998 229.71768188 C131.192138 233.13593029 128.15374402 234.28142846 123.04267883 234.26742554 C122.12195084 234.26735001 121.20122284 234.26727448 120.25259399 234.26719666 C119.261884 234.26203537 118.27117401 234.25687408 117.2504425 234.2515564 C115.72528267 234.24943398 115.72528267 234.24943398 114.16931152 234.24726868 C110.91898162 234.24166722 107.66872037 234.22911447 104.41841125 234.21640015 C102.21593829 234.21138533 100.01346425 234.2068224 97.81098938 234.20272827 C92.40924888 234.19254783 87.00765701 234.17297261 81.60591125 234.15390015 C81.60591125 241.41390015 81.60591125 248.67390015 81.60591125 256.15390015 C83.58591125 256.81390015 85.56591125 257.47390015 87.60591125 258.15390015 C89.50620897 260.77529918 89.8565908 262.97029064 89.86318016 266.16050816 C89.86962905 266.95241946 89.87607795 267.74433076 89.88272226 268.56023937 C89.87807645 269.85637525 89.87807645 269.85637525 89.87333679 271.17869568 C89.8778679 272.10131854 89.88239902 273.0239414 89.88706744 273.97452253 C89.89975168 277.07350952 89.89808844 280.17232167 89.8964386 283.27133179 C89.90242152 285.49050117 89.90922652 287.70966846 89.91679382 289.92883301 C89.93448968 295.96427731 89.93915085 301.99966492 89.9404254 308.03513265 C89.94232353 313.07454829 89.94968047 318.1139507 89.95676959 323.15336126 C89.97213514 334.36797837 89.9781063 345.58256868 89.97675888 356.79719312 C89.97667897 357.47008954 89.97659906 358.14298597 89.97651672 358.83627319 C89.97643496 359.50999533 89.9763532 360.18371746 89.97626896 360.87785541 C89.97545706 371.78249278 89.99456922 382.68699169 90.02279346 393.59158904 C90.05156916 404.79810471 90.06496537 416.00456978 90.0636059 427.21112722 C90.06309651 433.49869983 90.06876662 439.78611593 90.08996201 446.07365608 C90.10936824 451.99245602 90.10945225 457.91095062 90.09492874 463.82976151 C90.0928422 465.99726369 90.09753221 468.16478509 90.10964966 470.33225441 C90.23367209 494.06168868 90.23367209 494.06168868 83.41841125 503.52890015 C77.30973155 509.23033454 70.78858157 512.27364115 62.43942165 512.29091454 C61.14030895 512.29598908 59.84119624 512.30106362 58.50271648 512.30629194 C57.05244986 512.30689363 55.60218319 512.30739271 54.1519165 512.30780029 C52.61790259 512.31181446 51.08388975 512.3162526 49.54987818 512.32107985 C45.32317609 512.33305654 41.09648543 512.33869635 36.86976969 512.343261 C32.31538875 512.34921301 27.7610215 512.36082392 23.20664978 512.37155151 C12.20145773 512.39608566 1.19626114 512.41070464 -9.80894986 512.42361158 C-12.91691987 512.42732293 -16.02488943 512.43129621 -19.13285899 512.43536425 C-38.42918278 512.46060138 -57.72550726 512.4826565 -77.02184391 512.49509239 C-81.49252386 512.49802214 -85.96320378 512.50098379 -90.43388367 512.5039978 C-91.54506337 512.50474385 -92.65624307 512.5054899 -93.80109488 512.50625856 C-111.80023975 512.51891128 -129.79928581 512.55213253 -147.7983845 512.59379964 C-166.27423117 512.63622002 -184.75002727 512.6597876 -203.22592252 512.66501296 C-213.60081736 512.66842707 -223.97555782 512.68018226 -234.35040474 512.71311569 C-243.18663375 512.74111882 -252.02267675 512.75211438 -260.85894669 512.74092023 C-265.36657319 512.73573417 -269.87381018 512.73861687 -274.38138008 512.76338577 C-278.51152986 512.78589104 -282.64101061 512.7851288 -286.77117222 512.7661819 C-288.26183853 512.76338365 -289.75255034 512.76897083 -291.24314357 512.78399484 C-301.07144568 512.87696461 -309.098661 512.08383421 -316.53142124 505.16408765 C-322.12841047 499.30275855 -324.76482865 493.39819541 -324.7817688 485.29605103 C-324.78984711 484.31632737 -324.78984711 484.31632737 -324.79808861 483.31681132 C-324.81229294 481.14805302 -324.80528383 478.97991159 -324.79814148 476.81112671 C-324.80384874 475.24847425 -324.81081437 473.68582596 -324.81893921 472.1231842 C-324.83683901 467.89413288 -324.83570918 463.66528937 -324.82999682 459.43621159 C-324.82690274 455.90447651 -324.83299932 452.37278122 -324.83903557 448.84105182 C-324.85306647 440.51349738 -324.85152928 432.18604559 -324.84013367 423.85848999 C-324.82863193 415.26331485 -324.84276574 406.66845098 -324.86953014 398.07331681 C-324.89165704 390.69142655 -324.89833199 383.30963424 -324.89245373 375.92771316 C-324.88907836 371.51949458 -324.89153852 367.11147593 -324.90870476 362.70328522 C-324.9241258 358.56302903 -324.92027285 354.42323658 -324.90139961 350.28299904 C-324.89770134 348.76200006 -324.90085811 347.24096705 -324.9112854 345.71999931 C-324.92441279 343.64739693 -324.91302501 341.57634904 -324.89529419 339.5038147 C-324.89508491 338.34315113 -324.89487562 337.18248756 -324.89466 335.98665237 C-324.39408875 333.15390015 -324.39408875 333.15390015 -322.5502634 331.25703049 C-320.39408875 330.15390015 -320.39408875 330.15390015 -317.39408875 330.15390015 C-317.39408875 322.23390015 -317.39408875 314.31390015 -317.39408875 306.15390015 C-319.04408875 305.82390015 -320.69408875 305.49390015 -322.39408875 305.15390015 C-324.80748469 301.53380622 -324.65165726 299.86817071 -324.66824341 295.5584259 C-324.67348009 294.8850486 -324.67871677 294.21167129 -324.68411213 293.51788861 C-324.69914028 291.25644406 -324.6998179 288.99522523 -324.70048523 286.73373413 C-324.70810518 285.11406572 -324.7165324 283.49440094 -324.72570801 281.8747406 C-324.74768445 277.46942168 -324.75645688 273.0641722 -324.76153445 268.65880466 C-324.76517631 265.90467489 -324.77141567 263.15056334 -324.77853584 260.39644051 C-324.8030476 250.78230109 -324.8160846 241.1682157 -324.81962585 231.55404663 C-324.82325573 222.60347065 -324.85310727 213.65323872 -324.89503044 204.70276779 C-324.92978279 197.01258151 -324.9451752 189.32250888 -324.94587189 181.63224465 C-324.94666345 177.04202874 -324.95534498 172.45216266 -324.98386955 167.86202812 C-325.01013291 163.53873291 -325.01220966 159.21607532 -324.99621391 154.89273643 C-324.99440558 153.31177627 -325.00103428 151.73077878 -325.01703262 150.14989853 C-325.11048705 140.30962937 -324.53045489 131.9657726 -317.74801731 124.29134655 C-311.14924338 117.81664372 -302.63481832 115.69799667 -293.63783264 115.70071411 C-292.07471848 115.73168182 -292.07471848 115.73168182 -290.48002625 115.76327515 C-289.38437347 115.76893494 -288.2887207 115.77459473 -287.15986633 115.78042603 C-283.69580978 115.80263211 -280.2328272 115.85279976 -276.76908875 115.90390015 C-274.40582254 115.92398548 -272.04253996 115.94223266 -269.679245 115.95858765 C-263.9171662 116.00244497 -258.15570424 116.06919734 -252.39408875 116.15390015 C-252.40587158 115.15936073 -252.40587158 115.15936073 -252.41789246 114.14472961 C-252.44924158 111.11525642 -252.46864036 108.08581748 -252.48783875 105.0562439 C-252.5004071 104.01319092 -252.51297546 102.97013794 -252.52592468 101.89547729 C-252.57212806 92.17544164 -251.39317754 85.11821596 -244.76908875 77.71640015 C-237.85998472 71.50840446 -230.49036189 69.4094418 -221.2808075 69.7749939 C-213.20710251 70.83473596 -206.76898006 75.14666868 -201.39408875 81.15390015 C-194.21805841 92.06312546 -196.39408875 102.65982143 -196.39408875 116.15390015 C-179.56408875 116.15390015 -162.73408875 116.15390015 -145.39408875 116.15390015 C-145.39408875 107.90390015 -145.39408875 99.65390015 -145.39408875 91.15390015 C-142.45090984 82.69226079 -139.30027822 77.43767201 -131.39408875 73.15390015 C-130.77791687 72.81745483 -130.161745 72.48100952 -129.52690125 72.1343689 C-123.11054798 69.21905486 -115.62550466 68.99451839 -108.87065125 70.8453064 C-100.37645631 74.30966235 -95.35342122 79.31949791 -91.33940125 87.4937439 C-88.10391023 96.59857604 -89.39408875 106.77837821 -89.39408875 116.15390015 C-65.63408875 116.15390015 -41.87408875 116.15390015 -17.39408875 116.15390015 C-17.440495 108.72761108 -17.48690125 101.30132202 -17.53471375 93.6499939 C-17.55515447 88.94229761 -17.57441045 84.23465611 -17.58940125 79.52694702 C-17.61330264 72.05637229 -17.64156333 64.58599387 -17.69584656 57.11557007 C-17.73934179 51.09201469 -17.76323398 45.06866987 -17.77359772 39.04496956 C-17.7809824 36.74807484 -17.79540294 34.45119149 -17.81700897 32.15438652 C-17.84609097 28.93448962 -17.85004262 25.71546021 -17.84819031 22.49545288 C-17.86257141 21.54814301 -17.87695251 20.60083313 -17.89176941 19.62481689 C-17.85430888 13.59768578 -16.90211657 10.09411069 -13.39408875 5.15390015 C-9.02421045 1.10376904 -5.87271088 0.03356338 0 0 Z " fill="#D2E0F4" transform="translate(324.3940887451172,-0.153900146484375)"/>
<path d="M0 0 C1.12005936 -0.00860046 2.24011871 -0.01720093 3.39411926 -0.02606201 C4.62376404 -0.03032196 5.85340881 -0.03458191 7.12031555 -0.03897095 C8.41488174 -0.04714844 9.70944794 -0.05532593 11.04324341 -0.06375122 C15.33885116 -0.08994686 19.63446852 -0.10527815 23.93013 -0.11953735 C25.4105613 -0.12489838 26.89099254 -0.13027589 28.37142372 -0.13566971 C34.53164037 -0.1572964 40.69185442 -0.17603137 46.85209942 -0.1872921 C55.67088061 -0.20352013 64.48922045 -0.23667192 73.30783528 -0.29369295 C79.51348962 -0.33244558 85.71902618 -0.35193115 91.92479831 -0.35721266 C95.62857064 -0.3608594 99.33187197 -0.37280706 103.03551292 -0.4053154 C107.17211843 -0.44110348 111.30778053 -0.43701175 115.4445343 -0.42959595 C117.27381973 -0.45420395 117.27381973 -0.45420395 119.14006042 -0.47930908 C126.10986541 -0.42818907 131.37758099 0.23661506 136.60591125 5.15390015 C140.59879066 10.63274374 141.20286432 15.87184785 141.13716125 22.5093689 C141.14098816 23.37403275 141.14481506 24.23869659 141.14875793 25.12956238 C141.15146283 26.94392065 141.14420202 28.75831887 141.12739563 30.57260132 C141.10588547 33.34472339 141.12728492 36.11427739 141.15278625 38.88632202 C141.15014426 40.65651 141.14502193 42.4266964 141.13716125 44.1968689 C141.14525818 45.02091721 141.1533551 45.84496552 141.16169739 46.69398499 C141.09757632 50.6333593 140.84751758 52.73932566 138.82270813 56.2137146 C136.60591125 58.15390015 136.60591125 58.15390015 132.60591125 58.15390015 C132.93591125 62.77390015 133.26591125 67.39390015 133.60591125 72.15390015 C134.26591125 71.82390015 134.92591125 71.49390015 135.60591125 71.15390015 C137.55903625 70.9156189 137.55903625 70.9156189 139.85591125 70.84140015 C140.6035675 70.80401733 141.35122375 70.76663452 142.12153625 70.7281189 C147.99604411 71.73491348 152.66082965 76.76422356 157.04341125 80.59140015 C157.63960266 81.10710571 158.23579407 81.62281128 158.85005188 82.15414429 C160.77154119 83.81745222 162.68885607 85.48548468 164.60591125 87.15390015 C166.61973512 88.90139691 168.63430045 90.64803482 170.64912415 92.39437866 C171.91871163 93.49542703 173.18747918 94.59742182 174.45527649 95.70053101 C175.04123596 96.20979126 175.62719543 96.71905151 176.23091125 97.2437439 C176.79423157 97.73471558 177.35755188 98.22568726 177.9379425 98.73153687 C179.0439095 99.67465216 180.16648428 100.59865363 181.30513 101.50204468 C185.2445152 104.62946822 187.17878561 106.71966193 188.0473175 111.66952515 C188.27458017 116.80126286 188.1471906 120.27582458 184.73091125 124.27890015 C183.38751894 125.60340944 182.00966441 126.89354113 180.60591125 128.15390015 C179.46509094 129.23091187 179.46509094 129.23091187 178.30122375 130.3296814 C173.16838405 135.07714815 167.78535074 139.49367312 162.3441925 143.88046265 C158.76343216 146.8533621 155.37056813 150.00843574 151.99263 153.20858765 C148.64826815 155.93443414 145.51825728 158.06970881 141.12153625 158.26327515 C140.37388 158.1446814 139.62622375 158.02608765 138.85591125 157.90390015 C138.0979425 157.7956189 137.33997375 157.68733765 136.55903625 157.57577515 C134.60591125 157.15390015 134.60591125 157.15390015 132.60591125 156.15390015 C132.60591125 162.09390015 132.60591125 168.03390015 132.60591125 174.15390015 C134.25591125 174.48390015 135.90591125 174.81390015 137.60591125 175.15390015 C139.7186535 176.9231376 140.48335196 178.31480182 140.88200378 181.04415894 C141.02165156 183.44571429 141.04780269 185.8264076 141.039505 188.23202515 C141.04474686 189.11742981 141.04998871 190.00283447 141.0553894 190.91506958 C141.0618071 192.78780063 141.06047586 194.66057201 141.05195618 196.53329468 C141.04348171 199.38022984 141.07215241 202.22513371 141.10395813 205.0718689 C141.10557133 206.89608705 141.10499034 208.72030872 141.102005 210.54452515 C141.11885597 211.80900482 141.11885597 211.80900482 141.13604736 213.09902954 C141.06166759 219.50024135 139.6275049 224.96702981 135.12322998 229.71768188 C130.92710168 233.36639043 127.75872833 234.27602498 122.33244324 234.30780029 C121.2390715 234.31640076 120.14569977 234.32500122 119.01919556 234.3338623 C117.81917404 234.33812225 116.61915253 234.3423822 115.38276672 234.34677124 C113.48721794 234.35903748 113.48721794 234.35903748 111.55337524 234.37155151 C107.35997138 234.39774739 103.16655767 234.41308008 98.97309875 234.42733765 C97.52736022 234.43269897 96.08162175 234.43807648 94.63588333 234.44347 C88.61892753 234.46509817 82.60197438 234.48383215 76.58498955 234.49509239 C67.97490484 234.51131333 59.3652727 234.54444606 50.75535858 234.60149324 C44.69491037 234.64027197 38.63458279 234.65973461 32.57401383 234.66501296 C28.9579539 234.6686566 25.34237693 234.68057068 21.72645187 234.71311569 C17.6858382 234.74896113 13.64618901 234.74480548 9.60542297 234.73739624 C8.41754684 234.75380157 7.22967072 234.77020691 6.00579834 234.78710938 C-1.1615443 234.73341046 -6.71929239 233.78630709 -12.39408875 229.15390015 C-14.16248908 226.86807145 -15.18695908 224.81964483 -16.39408875 222.15390015 C-16.72408875 221.49390015 -17.05408875 220.83390015 -17.39408875 220.15390015 C-17.39408875 214.87390015 -17.39408875 209.59390015 -17.39408875 204.15390015 C-113.75408875 204.15390015 -210.11408875 204.15390015 -309.39408875 204.15390015 C-309.39408875 236.16390015 -309.39408875 268.17390015 -309.39408875 301.15390015 C-314.39408875 306.15390015 -314.39408875 306.15390015 -317.45658875 306.71640015 C-321.12407959 306.01411467 -322.12101113 305.0860694 -324.39408875 302.15390015 C-324.90024662 299.09715843 -324.90024662 299.09715843 -324.90875244 295.43817139 C-324.91569797 294.76393965 -324.9226435 294.08970792 -324.9297995 293.39504492 C-324.94809128 291.13642938 -324.93779983 288.87886171 -324.92753601 286.62020874 C-324.93459379 285.00038873 -324.94333822 283.38057531 -324.9536438 281.76077271 C-324.97617303 277.35954428 -324.97318847 272.9586749 -324.96432233 268.55741072 C-324.95921347 264.87984197 -324.96650483 261.20234076 -324.9737944 257.52477896 C-324.99080733 248.84266177 -324.98721677 240.16072025 -324.97050476 231.47860718 C-324.95361194 222.53536364 -324.96937556 213.59260922 -325.00172764 204.64941919 C-325.02847388 196.96343425 -325.03568509 189.27760109 -325.02721256 181.59157431 C-325.02229429 177.00476022 -325.02443799 172.41823983 -325.04500008 167.83146286 C-325.06343428 163.51221107 -325.05730476 159.19365791 -325.03280067 154.87444305 C-325.0278157 153.29511229 -325.03122206 151.71572763 -325.04394913 150.13644028 C-325.11684821 140.30730616 -324.52150964 131.95628104 -317.74814129 124.29128456 C-311.14887057 117.81688041 -302.63511565 115.69799658 -293.63783264 115.70071411 C-292.07471848 115.73168182 -292.07471848 115.73168182 -290.48002625 115.76327515 C-289.38437347 115.76893494 -288.2887207 115.77459473 -287.15986633 115.78042603 C-283.69580978 115.80263211 -280.2328272 115.85279976 -276.76908875 115.90390015 C-274.40582254 115.92398548 -272.04253996 115.94223266 -269.679245 115.95858765 C-263.9171662 116.00244497 -258.15570424 116.06919734 -252.39408875 116.15390015 C-252.40587158 115.15936073 -252.40587158 115.15936073 -252.41789246 114.14472961 C-252.44924158 111.11525642 -252.46864036 108.08581748 -252.48783875 105.0562439 C-252.5004071 104.01319092 -252.51297546 102.97013794 -252.52592468 101.89547729 C-252.57212806 92.17544164 -251.39317754 85.11821596 -244.76908875 77.71640015 C-237.85998472 71.50840446 -230.49036189 69.4094418 -221.2808075 69.7749939 C-213.20710251 70.83473596 -206.76898006 75.14666868 -201.39408875 81.15390015 C-194.21805841 92.06312546 -196.39408875 102.65982143 -196.39408875 116.15390015 C-179.56408875 116.15390015 -162.73408875 116.15390015 -145.39408875 116.15390015 C-145.39408875 107.90390015 -145.39408875 99.65390015 -145.39408875 91.15390015 C-142.45090984 82.69226079 -139.30027822 77.43767201 -131.39408875 73.15390015 C-130.77791687 72.81745483 -130.161745 72.48100952 -129.52690125 72.1343689 C-123.11054798 69.21905486 -115.62550466 68.99451839 -108.87065125 70.8453064 C-100.37645631 74.30966235 -95.35342122 79.31949791 -91.33940125 87.4937439 C-88.10391023 96.59857604 -89.39408875 106.77837821 -89.39408875 116.15390015 C-65.63408875 116.15390015 -41.87408875 116.15390015 -17.39408875 116.15390015 C-17.440495 108.72761108 -17.48690125 101.30132202 -17.53471375 93.6499939 C-17.55515447 88.94229761 -17.57441045 84.23465611 -17.58940125 79.52694702 C-17.61330264 72.05637229 -17.64156333 64.58599387 -17.69584656 57.11557007 C-17.73934179 51.09201469 -17.76323398 45.06866987 -17.77359772 39.04496956 C-17.7809824 36.74807484 -17.79540294 34.45119149 -17.81700897 32.15438652 C-17.84609097 28.93448962 -17.85004262 25.71546021 -17.84819031 22.49545288 C-17.86257141 21.54814301 -17.87695251 20.60083313 -17.89176941 19.62481689 C-17.85430888 13.59768578 -16.90211657 10.09411069 -13.39408875 5.15390015 C-9.02421045 1.10376904 -5.87271088 0.03356338 0 0 Z " fill="#020101" transform="translate(324.3940887451172,-0.153900146484375)"/>
<path d="M0 0 C1.05169876 -0.00281982 2.10339752 -0.00563965 3.18696594 -0.00854492 C4.93247993 -0.00550858 4.93247993 -0.00550858 6.71325684 -0.00241089 C7.93099289 -0.00416321 9.14872894 -0.00591553 10.40336609 -0.00772095 C13.75246237 -0.01137916 17.10149723 -0.01050602 20.45059013 -0.00734186 C23.94818075 -0.0048179 27.44576866 -0.0071559 30.94335938 -0.00872803 C36.81799798 -0.01054962 42.69262404 -0.00814369 48.56726074 -0.00338745 C55.36838172 0.00205515 62.16947272 0.00029249 68.97059298 -0.00521386 C74.79988249 -0.00974529 80.62916295 -0.01039539 86.45845366 -0.00777519 C89.94441946 -0.00621258 93.43037115 -0.0060182 96.91633606 -0.00931168 C100.80047784 -0.01272471 104.68458579 -0.00800016 108.56872559 -0.00241089 C109.73240158 -0.00443512 110.89607758 -0.00645935 112.09501648 -0.00854492 C113.67256462 -0.00431519 113.67256462 -0.00431519 115.28198242 0 C116.66134098 0.00056554 116.66134098 0.00056554 118.06856537 0.0011425 C120.14099121 0.12698364 120.14099121 0.12698364 121.14099121 1.12698364 C121.28881409 3.7445534 121.37603543 6.33908184 121.42224121 8.95901489 C121.44065063 9.74717087 121.45906006 10.53532684 121.47802734 11.34736633 C121.53695589 13.87799394 121.58966057 16.4086912 121.64099121 18.93948364 C121.70873543 22.25863391 121.78250003 25.57757368 121.85974121 28.89651489 C121.87331665 29.66018875 121.88689209 30.42386261 121.90087891 31.2106781 C121.77160478 36.34552604 121.77160478 36.34552604 123.14099121 41.12698364 C126.11099121 42.11698364 126.11099121 42.11698364 129.14099121 43.12698364 C129.47099121 47.74698364 129.80099121 52.36698364 130.14099121 57.12698364 C130.80099121 56.79698364 131.46099121 56.46698364 132.14099121 56.12698364 C134.09411621 55.88870239 134.09411621 55.88870239 136.39099121 55.81448364 C137.51247559 55.75840942 137.51247559 55.75840942 138.65661621 55.70120239 C144.53112406 56.70799698 149.19590961 61.73730706 153.57849121 65.56448364 C154.17468262 66.08018921 154.77087402 66.59589478 155.38513184 67.12722778 C157.30662115 68.79053572 159.22393603 70.45856818 161.14099121 72.12698364 C163.15481508 73.8744804 165.1693804 75.62111831 167.1842041 77.36746216 C168.45379159 78.46851052 169.72255914 79.57050532 170.99035645 80.6736145 C171.57631592 81.18287476 172.16227539 81.69213501 172.76599121 82.21682739 C173.32931152 82.70779907 173.89263184 83.19877075 174.47302246 83.70462036 C175.57898946 84.64773566 176.70156424 85.57173713 177.84020996 86.47512817 C181.77959516 89.60255171 183.71386556 91.69274543 184.58239746 96.64260864 C184.80966013 101.77434635 184.68227056 105.24890808 181.26599121 109.25198364 C179.92259889 110.57649293 178.54474437 111.86662463 177.14099121 113.12698364 C176.38044434 113.84499146 175.61989746 114.56299927 174.83630371 115.30276489 C169.703464 120.05023165 164.3204307 124.46675661 158.87927246 128.85354614 C155.29851212 131.8264456 151.90564808 134.98151924 148.52770996 138.18167114 C145.1833481 140.90751763 142.05333724 143.04279231 137.65661621 143.23635864 C136.53513184 143.05846802 136.53513184 143.05846802 135.39099121 142.87698364 C134.25403809 142.71456177 134.25403809 142.71456177 133.09411621 142.54885864 C131.14099121 142.12698364 131.14099121 142.12698364 129.14099121 141.12698364 C129.14099121 147.39698364 129.14099121 153.66698364 129.14099121 160.12698364 C126.66599121 161.11698364 126.66599121 161.11698364 124.14099121 162.12698364 C121.57243488 165.97981813 121.80839282 169.22519299 121.76208496 173.69729614 C121.74509048 174.53412933 121.72809601 175.37096252 121.71058655 176.2331543 C121.65744845 178.9060208 121.61714498 181.57887145 121.57849121 184.25198364 C121.53461287 186.93215888 121.48797332 189.61221167 121.4356842 192.29223633 C121.40364135 193.96037619 121.37677827 195.62862473 121.35545349 197.29693604 C121.25274269 203.01523216 121.25274269 203.01523216 120.14099121 204.12698364 C118.53873938 204.22732603 116.93206347 204.25774287 115.32667542 204.26069641 C114.28483597 204.2649614 113.24299652 204.26922638 112.16958618 204.27362061 C110.44045486 204.27294083 110.44045486 204.27294083 108.6763916 204.27224731 C106.86682732 204.27728523 106.86682732 204.27728523 105.02070618 204.28242493 C101.70253596 204.29032069 98.38442829 204.29360387 95.06625295 204.29424071 C92.30021815 204.29518821 89.53418942 204.29886467 86.76815695 204.30241281 C80.24440133 204.31056492 73.72065953 204.31299636 67.19689941 204.31228638 C60.45825924 204.31168541 53.71969908 204.32223931 46.98107916 204.33803004 C41.20357703 204.35108813 35.42610109 204.356471 29.64858431 204.35583097 C26.19442114 204.35557546 22.74032902 204.35845526 19.2861805 204.36900902 C15.43575005 204.38045165 11.58543007 204.37595381 7.73498535 204.36990356 C6.58425537 204.37552307 5.43352539 204.38114258 4.2479248 204.38693237 C3.20326553 204.38273788 2.15860626 204.3785434 1.08229065 204.3742218 C0.17101441 204.37476657 -0.74026182 204.37531134 -1.67915249 204.37587261 C-3.85900879 204.12698364 -3.85900879 204.12698364 -5.85900879 202.12698364 C-6.05444536 199.47100637 -6.12386802 196.91946173 -6.10624695 194.26246643 C-6.10866136 193.44066912 -6.11107578 192.61887181 -6.11356336 191.77217156 C-6.11922454 189.00291162 -6.1105191 186.2338799 -6.10192871 183.46463013 C-6.10300099 181.48568662 -6.10493885 179.50674341 -6.10768127 177.52780151 C-6.11254118 172.14163012 -6.10485993 166.75554118 -6.09472823 161.36937976 C-6.08596751 155.74439758 -6.08770478 150.11941815 -6.08808899 144.49443054 C-6.08715152 135.04779677 -6.078456 125.60119506 -6.06481934 116.15457153 C-6.0490884 105.21641655 -6.04382134 94.2782967 -6.04455489 83.34013122 C-6.04516422 72.8376049 -6.04006775 62.33509008 -6.03176308 51.83256721 C-6.02822294 47.35369845 -6.02639879 42.87483376 -6.02586937 38.39596367 C-6.02486835 33.12736083 -6.01879156 27.85878774 -6.00870323 22.5901947 C-6.00577058 20.65070846 -6.0045544 18.7112188 -6.00513077 16.77173042 C-6.00561784 14.13596056 -6.00000172 11.50027534 -5.99272156 8.86451721 C-5.99427016 8.08671369 -5.99581876 7.30891016 -5.99741429 6.50753683 C-5.9700899 0.56784413 -5.8983765 0.00241834 0 0 Z " fill="#FED671" transform="translate(327.8590087890625,14.873016357421875)"/>
<path d="M0 0 C1.05692047 0.00424484 2.11384094 0.00848969 3.20278931 0.01286316 C6.5651439 0.02960173 9.92689029 0.06724586 13.2890625 0.10546875 C15.57421007 0.12052178 17.85936707 0.13420911 20.14453125 0.14648438 C25.7345811 0.17948945 31.32427834 0.22964103 36.9140625 0.29296875 C36.91817139 0.91228271 36.92228027 1.53159668 36.92651367 2.16967773 C36.95977065 5.02419041 37.03044517 7.87665804 37.1015625 10.73046875 C37.10736328 11.70435547 37.11316406 12.67824219 37.11914062 13.68164062 C37.36351778 21.8003927 39.59527789 27.52790818 44.9765625 33.6328125 C45.6159375 34.16003906 46.2553125 34.68726563 46.9140625 35.23046875 C47.5534375 35.77574219 48.1928125 36.32101563 48.8515625 36.8828125 C55.7842656 41.62278564 63.87847868 41.05373408 71.9140625 40.29296875 C78.3336631 38.31226554 83.3425027 33.94252698 86.9140625 28.29296875 C91.2339681 19.34017466 91.2339681 19.34017466 90.9140625 0.29296875 C108.4040625 0.29296875 125.8940625 0.29296875 143.9140625 0.29296875 C144.2440625 7.88296875 144.5740625 15.47296875 144.9140625 23.29296875 C148.15931852 31.16271461 152.26338801 35.52327277 159.9140625 39.29296875 C166.52219858 41.55216057 175.42301376 41.59311448 181.9453125 39.1640625 C190.39606715 34.28960613 193.43041407 29.5826979 196.9140625 20.29296875 C197.2440625 13.69296875 197.5740625 7.09296875 197.9140625 0.29296875 C222.0040625 0.29296875 246.0940625 0.29296875 270.9140625 0.29296875 C270.9140625 19.43296875 270.9140625 38.57296875 270.9140625 58.29296875 C174.5540625 58.29296875 78.1940625 58.29296875 -21.0859375 58.29296875 C-21.0859375 9.29296875 -21.0859375 9.29296875 -17.0859375 3.29296875 C-11.78572501 -0.5554288 -6.28193043 -0.09545733 0 0 Z " fill="#FD9941" transform="translate(36.0859375,130.70703125)"/>
<path d="M0 0 C1.72324143 2.71252855 2.2506881 4.82053268 2.25726891 8.00660801 C2.2637178 8.79851931 2.27016669 9.59043061 2.276811 10.40633923 C2.2721652 11.7024751 2.2721652 11.7024751 2.26742554 13.02479553 C2.27195665 13.94741839 2.27648776 14.87004125 2.28115618 15.82062238 C2.29384042 18.91960938 2.29217719 22.01842152 2.29052734 25.11743164 C2.29651027 27.33660102 2.30331526 29.55576832 2.31088257 31.77493286 C2.32857842 37.81037716 2.33323959 43.84576477 2.33451414 49.8812325 C2.33641227 54.92064814 2.34376922 59.96005056 2.35085833 64.99946111 C2.36622388 76.21407822 2.37219504 87.42866854 2.37084763 98.64329297 C2.37076772 99.3161894 2.3706878 99.98908582 2.37060547 100.68237305 C2.37052371 101.35609518 2.37044195 102.02981731 2.37035771 102.72395527 C2.36954581 113.62859264 2.38865796 124.53309154 2.4168822 135.43768889 C2.4456579 146.64420456 2.45905412 157.85066963 2.45769465 169.05722708 C2.45718526 175.34479968 2.46285536 181.63221578 2.48405075 187.91975594 C2.50345698 193.83855587 2.50354099 199.75705047 2.48901749 205.67586136 C2.48693095 207.84336354 2.49162096 210.01088495 2.5037384 212.17835426 C2.62776083 235.90778853 2.62776083 235.90778853 -4.1875 245.375 C-10.29617971 251.07643439 -16.81732969 254.119741 -25.1664896 254.13701439 C-26.46560231 254.14208893 -27.76471501 254.14716347 -29.10319477 254.15239179 C-30.55346139 254.15299349 -32.00372806 254.15349256 -33.45399475 254.15390015 C-34.98800866 254.15791431 -36.52202151 254.16235246 -38.05603307 254.1671797 C-42.28273516 254.17915639 -46.50942583 254.1847962 -50.73614156 254.18936086 C-55.2905225 254.19531286 -59.84488976 254.20692377 -64.39926147 254.21765137 C-75.40445353 254.24218552 -86.40965012 254.25680449 -97.41486111 254.26971143 C-100.52283112 254.27342278 -103.63080068 254.27739607 -106.73877025 254.2814641 C-126.03509403 254.30670123 -145.33141852 254.32875636 -164.62775517 254.34119225 C-169.09843511 254.34412199 -173.56911503 254.34708365 -178.03979492 254.35009766 C-179.15097462 254.35084371 -180.26215432 254.35158976 -181.40700614 254.35235842 C-199.40615101 254.36501114 -217.40519707 254.39823238 -235.40429575 254.43989949 C-253.88014243 254.48231987 -272.35593853 254.50588745 -290.83183378 254.51111281 C-301.20672861 254.51452692 -311.58146908 254.52628211 -321.95631599 254.55921555 C-330.792545 254.58721868 -339.628588 254.59821423 -348.46485794 254.58702008 C-352.97248445 254.58183402 -357.47972144 254.58471673 -361.98729134 254.60948563 C-366.11744112 254.63199089 -370.24692187 254.63122865 -374.37708347 254.61228175 C-375.86774979 254.6094835 -377.35846159 254.61507068 -378.84905482 254.63009469 C-388.67735693 254.72306446 -396.70457225 253.92993406 -404.1373325 247.01018751 C-409.73432172 241.14885841 -412.3707399 235.24429526 -412.38768005 227.14215088 C-412.39306559 226.48900178 -412.39845113 225.83585268 -412.40399987 225.16291118 C-412.41820419 222.99415288 -412.41119508 220.82601144 -412.40405273 218.65722656 C-412.40975999 217.09457411 -412.41672563 215.53192582 -412.42485046 213.96928406 C-412.44275026 209.74023273 -412.44162044 205.51138923 -412.43590808 201.28231144 C-412.432814 197.75057636 -412.43891057 194.21888108 -412.44494683 190.68715167 C-412.45897773 182.35959724 -412.45744053 174.03214545 -412.44604492 165.70458984 C-412.43454318 157.1094147 -412.44867699 148.51455083 -412.4754414 139.91941667 C-412.49756829 132.53752641 -412.50424324 125.15573409 -412.49836498 117.77381301 C-412.49498961 113.36559443 -412.49744978 108.95757579 -412.51461601 104.54938507 C-412.53003705 100.40912889 -412.5261841 96.26933643 -412.50731087 92.12909889 C-412.5036126 90.60809991 -412.50676937 89.0870669 -412.51719666 87.56609917 C-412.53032404 85.49349678 -412.51893626 83.42244889 -412.50120544 81.34991455 C-412.50099616 80.18925098 -412.50078688 79.02858742 -412.50057125 77.83275223 C-412 75 -412 75 -410.09587193 73.11655807 C-407.71897209 71.85028475 -406.58105329 71.70085784 -403.9375 72.0625 C-403.26589844 72.13597656 -402.59429687 72.20945312 -401.90234375 72.28515625 C-399.22036806 73.29296231 -398.46783841 74.55125292 -397 77 C-396.62361908 79.84927177 -396.62361908 79.84927177 -396.62145996 83.21115112 C-396.61325729 84.48693024 -396.60505463 85.76270935 -396.59660339 87.07714844 C-396.60256178 88.48877062 -396.60878087 89.90039172 -396.61523438 91.31201172 C-396.61112877 92.80038875 -396.60566796 94.28876258 -396.59895325 95.77713013 C-396.58722753 98.98124122 -396.58474416 102.18518005 -396.58930969 105.38930893 C-396.59611727 110.45731145 -396.58025462 115.52508721 -396.56091309 120.5930481 C-396.52304371 131.3536865 -396.51025819 142.11430519 -396.5 152.875 C-396.48892689 164.48510572 -396.47356349 176.09510712 -396.42928743 187.70514119 C-396.41093899 192.74135744 -396.40703613 197.77731474 -396.41422272 202.81355643 C-396.41574607 205.94959505 -396.4049511 209.0855045 -396.39084435 212.22150803 C-396.38684635 213.6735129 -396.38795879 215.12554242 -396.39461708 216.57753754 C-396.40302208 218.56330833 -396.39125129 220.54913369 -396.37854004 222.53488159 C-396.37782753 223.64505583 -396.37711502 224.75523006 -396.37638092 225.89904594 C-395.93034515 229.57387737 -395.00055115 231.88715011 -393 235 C-389.17228058 237.84819093 -386.42377402 238.37543903 -381.69838715 238.37752342 C-380.42007601 238.38534666 -379.14176488 238.39316991 -377.82471704 238.40123022 C-376.40833059 238.39474421 -374.99194541 238.38797425 -373.57556152 238.38095093 C-372.06925413 238.38440738 -370.56294925 238.38917187 -369.05664968 238.39513266 C-364.91595635 238.40767404 -360.77547003 238.40145806 -356.63477588 238.39217401 C-352.16981769 238.38539668 -347.70489553 238.3958582 -343.23994446 238.40411377 C-334.49252508 238.41746738 -325.74518284 238.41456612 -316.99776042 238.40587585 C-309.88979179 238.39910611 -302.78184482 238.3981795 -295.6738739 238.4014473 C-294.15754522 238.40213684 -294.15754522 238.40213684 -292.61058363 238.40284032 C-290.55711495 238.40379948 -288.50364628 238.40477212 -286.45017761 238.4057581 C-267.18589451 238.41431676 -247.92165421 238.40447039 -228.65737814 238.388357 C-212.12068508 238.37495339 -195.5840552 238.37728135 -179.04736328 238.39111328 C-159.85293808 238.40716068 -140.65855041 238.41349274 -121.46411943 238.40427649 C-119.41812166 238.40332082 -117.37212388 238.40237771 -115.3261261 238.4014473 C-114.31940435 238.40098447 -113.3126826 238.40052164 -112.27545413 238.40004479 C-105.17440555 238.39745238 -98.07338072 238.4018313 -90.97233582 238.40888596 C-82.32084923 238.41729183 -73.66944431 238.41504007 -65.0179671 238.39904372 C-60.60218616 238.39114869 -56.18654149 238.38809034 -51.77076149 238.39799118 C-47.73051373 238.40691315 -43.69052891 238.40204667 -39.65030509 238.38605852 C-38.18671708 238.38270009 -36.72310698 238.38442857 -35.25953311 238.39168589 C-33.2735749 238.40078011 -31.28755469 238.38967735 -29.30161285 238.37752342 C-28.19743845 238.37703637 -27.09326406 238.37654931 -25.95562983 238.37604749 C-21.63704026 237.82658938 -18.99989359 236.18236388 -16.21073818 232.88421631 C-14.50711336 228.82584715 -14.58984111 225.21261341 -14.62818909 220.85253906 C-14.62436452 219.92891193 -14.62053996 219.00528481 -14.6165995 218.05366898 C-14.60731072 214.95750078 -14.61930839 211.86177929 -14.63110352 208.765625 C-14.62863578 206.54642552 -14.62479765 204.3272272 -14.61968994 202.10803223 C-14.61134837 197.32861451 -14.61216255 192.54931593 -14.61987495 187.76989746 C-14.63144485 180.21535718 -14.61930666 172.6609706 -14.60325623 165.10644531 C-14.58281867 154.51757662 -14.56994824 143.92872966 -14.56616211 133.33984375 C-14.56591724 132.66810387 -14.56567237 131.99636399 -14.56542008 131.30426836 C-14.56287372 123.80847676 -14.56230766 116.31268645 -14.56335449 108.81689453 C-14.56368753 106.09798177 -14.56397292 103.37906902 -14.56420898 100.66015625 C-14.56430317 99.6537757 -14.56430317 99.6537757 -14.56439925 98.62706423 C-14.565004 87.44085735 -14.54992878 76.25471645 -14.52337593 65.06853867 C-14.50655104 57.55576804 -14.50840317 50.04330238 -14.52419865 42.53053284 C-14.52998389 37.86056393 -14.51927662 33.19074055 -14.50395203 28.52079773 C-14.50021685 26.35239228 -14.50335953 24.18396265 -14.51382256 22.01557922 C-14.5271395 19.05916992 -14.51602955 16.10382676 -14.49879456 13.14746094 C-14.51350472 11.85539167 -14.51350472 11.85539167 -14.52851206 10.53722 C-14.47952168 6.48364024 -14.311363 4.49016781 -12.08601284 0.98687744 C-7.98522338 -2.91902664 -5.04440674 -2.30288134 0 0 Z " fill="#010101" transform="translate(412,258)"/>
<path d="M0 0 C96.36 0 192.72 0 292 0 C292.33 5.28 292.66 10.56 293 16 C293.99 17.98 294.98 19.96 296 22 C296.33 22.99 296.66 23.98 297 25 C299.3430809 26.12085312 299.3430809 26.12085312 302 27 C302.81769867 27.51413956 302.81769867 27.51413956 303.6519165 28.03866577 C307.12092564 29.45892073 310.56460639 29.30862779 314.25683594 29.31884766 C315.50129234 29.33391609 315.50129234 29.33391609 316.77088928 29.34928894 C319.50871091 29.38013982 322.24643467 29.39716136 324.984375 29.4140625 C326.88438765 29.43277262 328.78439197 29.45234591 330.68438721 29.4727478 C335.68201798 29.52409151 340.6796757 29.5637053 345.6774292 29.60089111 C350.77851032 29.64091668 355.87947912 29.69201564 360.98046875 29.7421875 C370.98690815 29.8389734 380.99339382 29.92234621 391 30 C391 35.61 391 41.22 391 47 C379.81205239 47.06790705 368.62424276 47.12289181 357.43613529 47.15543652 C352.24046707 47.17106012 347.04494777 47.19223789 341.84936523 47.22631836 C336.83080529 47.25902983 331.81238815 47.27687785 326.79372978 47.28463173 C324.88366894 47.29015412 322.97361548 47.30093784 321.0636158 47.31719017 C318.37826058 47.3391213 315.69348769 47.34196041 313.00805664 47.34057617 C312.22689987 47.351362 311.4457431 47.36214783 310.64091492 47.3732605 C300.434035 47.31671441 291.63327928 43.33283772 284.2421875 36.3359375 C274.22033803 25.30686697 275 16.49806522 275 1 C191.18 1 107.36 1 21 1 C21.11957416 51.68557625 21.11957416 51.68557625 21.2578125 102.37109375 C21.27782086 109.20165972 21.29770537 116.03222604 21.31738281 122.86279297 C21.31985425 123.71890588 21.32232569 124.57501879 21.32487202 125.45707452 C21.36460285 139.28251565 21.39733995 153.10796497 21.42749982 166.93342991 C21.45860212 181.11965917 21.49720629 195.30585367 21.54279006 209.49204385 C21.57068594 218.24729264 21.59271422 227.00251598 21.60726251 235.75779729 C21.61779596 241.75974432 21.63560922 247.76164209 21.65916704 253.76355202 C21.67254767 257.22751508 21.68269939 260.69140903 21.68421364 264.15539932 C21.68752809 267.91063169 21.70298395 271.66562337 21.7215271 275.42080688 C21.71959237 276.51614105 21.71765763 277.61147521 21.71566427 278.74000132 C21.75376151 283.88494611 21.92416427 288.19107707 24 293 C21.62374823 293.10883596 19.25256024 293.18766696 16.875 293.25 C16.20984375 293.28351563 15.5446875 293.31703125 14.859375 293.3515625 C9.70663395 293.45259664 6.86061313 292.37943527 3 289 C0.4203449 284.69690242 -0.3762378 281.51894645 -0.38526917 276.52815247 C-0.39491699 275.24528854 -0.40456482 273.96242462 -0.414505 272.64068604 C-0.41014203 271.23156655 -0.40550964 269.82244788 -0.40063477 268.41333008 C-0.40638085 266.91978913 -0.41346509 265.42625283 -0.42178345 263.932724 C-0.43686782 260.72428394 -0.44267334 257.51600998 -0.44125557 254.30753517 C-0.43921955 249.23599137 -0.45880265 244.1646707 -0.48143005 239.09318542 C-0.5223685 229.24832997 -0.54100729 219.40349226 -0.55760193 209.55857086 C-0.57997352 197.01608608 -0.61343145 184.47365281 -0.66480106 171.93125266 C-0.68474559 166.88756207 -0.69430413 161.84398868 -0.69575322 156.80026019 C-0.69849871 153.66767011 -0.70931754 150.53514508 -0.72226334 147.40258217 C-0.72655149 145.94770407 -0.72739732 144.49281124 -0.72458839 143.03792953 C-0.72119939 141.0555799 -0.73109358 139.07322068 -0.74171448 137.09089661 C-0.74334878 135.98055463 -0.74498308 134.87021265 -0.74666691 133.72622395 C-0.80247582 130.78134059 -0.80247582 130.78134059 -3 128 C-4.65 127.34 -6.3 126.68 -8 126 C-8 118.08 -8 110.16 -8 102 C-6.02 101.01 -4.04 100.02 -2 99 C12.76105988 69.47788023 -0.34025752 33.00497946 0 0 Z " fill="#B2CCE9" transform="translate(15,204)"/>
<path d="M0 0 C0.65355469 0.81855469 1.30710937 1.63710937 1.98046875 2.48046875 C5.93769343 5.78242207 8.35484429 5.60047821 13.3125 5.3125 C14.05306641 5.28994141 14.79363281 5.26738281 15.55664062 5.24414062 C17.37197357 5.1855815 19.18625681 5.09590886 21 5 C21.00386719 5.98226562 21.00386719 5.98226562 21.0078125 6.984375 C21.41763414 16.65616562 24.62307707 25.2344829 31.75 32 C39.88052421 38.12816817 47.66921817 39.55765883 57.66796875 39.29296875 C59.88215565 39.28310119 62.09634938 39.27468047 64.31054688 39.26757812 C67.76073378 39.23434407 71.20936082 39.18703416 74.65893555 39.11352539 C78.01707827 39.05038001 81.37181377 39.04304732 84.73046875 39.04296875 C86.26975288 38.98727974 86.26975288 38.98727974 87.84013367 38.9304657 C92.14736275 38.9590708 94.88562005 38.97982912 98.14859009 41.96694946 C99.91014439 44.24230363 101.44250989 46.58324173 103 49 C106.7418183 52.97767455 110.9683228 55.08796267 116 57 C114.02 59.31 112.04 61.62 110 64 C109.67 76.54 109.34 89.08 109 102 C72.7 102 36.4 102 -1 102 C-1.020625 85.355625 -1.04125 68.71125 -1.0625 51.5625 C-1.071604 46.29869385 -1.08070801 41.0348877 -1.09008789 35.61157227 C-1.09460449 29.20495605 -1.09460449 29.20495605 -1.09544373 26.20982361 C-1.09698362 24.10903207 -1.10050948 22.00824144 -1.10557556 19.90745544 C-1.11285028 16.73329116 -1.11390751 13.55918108 -1.11352539 10.38500977 C-1.1171235 9.44240327 -1.12072161 8.49979677 -1.12442875 7.52862644 C-1.11402634 1.11402634 -1.11402634 1.11402634 0 0 Z " fill="#FED671" transform="translate(340,116)"/>
<path d="M0 0 C4.55578388 2.67297347 8.47503081 5.97719494 12.4375 9.4375 C13.33178711 10.21105835 13.33178711 10.21105835 14.24414062 11.00024414 C16.16562994 12.66355207 18.08294481 14.33158453 20 16 C22.01382387 17.74749676 24.02838919 19.49413467 26.04321289 21.24047852 C27.31280038 22.34152688 28.58156793 23.44352168 29.84936523 24.54663086 C30.43532471 25.05589111 31.02128418 25.56515137 31.625 26.08984375 C32.18832031 26.58081543 32.75164062 27.07178711 33.33203125 27.57763672 C34.43799825 28.52075202 35.56057303 29.44475348 36.69921875 30.34814453 C40.63860395 33.47556807 42.57287435 35.56576179 43.44140625 40.515625 C43.66866892 45.64736271 43.54127935 49.12192443 40.125 53.125 C38.78160768 54.44950929 37.40375316 55.73964098 36 57 C35.23945313 57.71800781 34.47890625 58.43601563 33.6953125 59.17578125 C28.56247279 63.92324801 23.17943949 68.33977297 17.73828125 72.7265625 C14.15752091 75.69946196 10.76465687 78.85453559 7.38671875 82.0546875 C4.04235689 84.78053399 0.91234603 86.91580867 -3.484375 87.109375 C-4.60585938 86.93148437 -4.60585938 86.93148437 -5.75 86.75 C-6.50796875 86.64171875 -7.2659375 86.5334375 -8.046875 86.421875 C-10 86 -10 86 -12 85 C-12 84.34 -12 83.68 -12 83 C-13.485 82.505 -13.485 82.505 -15 82 C-17.8952303 78.6758467 -18.15448343 76.05567144 -18.08203125 71.80859375 C-18.06426636 70.45785767 -18.06426636 70.45785767 -18.04614258 69.07983398 C-18.03091553 68.39348877 -18.01568848 67.70714355 -18 67 C-19.17937889 67.0199855 -19.17937889 67.0199855 -20.38258362 67.04037476 C-27.81197558 67.16086824 -35.24089025 67.25208272 -42.6710062 67.31087303 C-46.49048795 67.34211498 -50.30915876 67.38445282 -54.12817383 67.45263672 C-57.81759989 67.51809066 -61.50624876 67.55375968 -65.19621086 67.56926346 C-66.60004848 67.58030378 -68.00384612 67.60186406 -69.40735054 67.63438034 C-81.76995089 67.90926365 -81.76995089 67.90926365 -86.29272461 64.21337891 C-92.14424589 58.22926299 -91.3666569 51.60093113 -91.375 43.6875 C-91.39949219 42.47642578 -91.42398437 41.26535156 -91.44921875 40.01757812 C-91.47167303 33.18025056 -91.46510735 28.35379377 -87 23 C-80.44966882 17.88289774 -73.76854539 18.48148194 -65.75390625 18.609375 C-64.37386397 18.61684607 -62.993811 18.62253491 -61.61375427 18.62652588 C-58.00169999 18.64171448 -54.39030089 18.68093568 -50.77850342 18.7253418 C-47.08484762 18.76644233 -43.39108475 18.78456823 -39.69726562 18.8046875 C-32.46454679 18.84743836 -25.2323656 18.9156051 -18 19 C-18.01957764 18.38874268 -18.03915527 17.77748535 -18.05932617 17.14770508 C-18.08216675 15.93957153 -18.08216675 15.93957153 -18.10546875 14.70703125 C-18.12504639 13.91014893 -18.14462402 13.1132666 -18.16479492 12.29223633 C-17.82929361 7.62553739 -14.83780505 4.90961692 -11.8125 1.625 C-7.93044599 -0.61796454 -4.37954514 -0.9780265 0 0 Z " fill="#030302" transform="translate(469,71)"/>
<path d="M0 0 C0.72316406 0.38800781 1.44632812 0.77601562 2.19140625 1.17578125 C2.29985656 3.73942608 2.37890369 6.29844404 2.44140625 8.86328125 C2.47492188 9.58451172 2.5084375 10.30574219 2.54296875 11.04882812 C2.61476566 14.97970896 2.50518635 16.71075914 0.23828125 20.0703125 C-0.4371875 20.76511719 -1.11265625 21.45992187 -1.80859375 22.17578125 C-2.95674372 24.47208119 -3.11629184 26.25276211 -3.37109375 28.80078125 C-3.49677734 30.02667969 -3.49677734 30.02667969 -3.625 31.27734375 C-3.68558594 31.90382812 -3.74617188 32.5303125 -3.80859375 33.17578125 C-4.56979019 33.17942688 -5.33098663 33.18307251 -6.11524963 33.18682861 C-13.30954692 33.22478811 -20.5033309 33.28172994 -27.6972971 33.35968399 C-31.39530198 33.39909451 -35.09307106 33.43131403 -38.79125977 33.44677734 C-42.3642088 33.46198696 -45.93650927 33.49650684 -49.50916862 33.54409027 C-50.86816692 33.55886011 -52.22725784 33.56681974 -53.58633614 33.5676651 C-63.97091879 33.44161416 -63.97091879 33.44161416 -72.80859375 38.17578125 C-76.90553593 44.30365489 -76.28778287 50.5583113 -76.24609375 57.67578125 C-76.26607422 58.88621094 -76.28605469 60.09664062 -76.30664062 61.34375 C-76.35053156 70.09793988 -76.35053156 70.09793988 -71.80859375 77.17578125 C-68.43333721 80.31118459 -66.03278422 80.56333843 -61.47949219 80.6081543 C-60.19846619 80.62794846 -58.91744019 80.64774261 -57.59759521 80.6681366 C-56.20438789 80.67490588 -54.81117896 80.6813528 -53.41796875 80.6875 C-51.98877418 80.70434993 -50.5595944 80.7225006 -49.13043213 80.74189758 C-45.37565737 80.78937021 -41.62094259 80.81919695 -37.8659668 80.84533691 C-34.0316178 80.87515647 -30.19747539 80.92168195 -26.36328125 80.96679688 C-18.84515465 81.0527987 -11.32701298 81.12015751 -3.80859375 81.17578125 C-3.7530835 81.86212646 -3.69757324 82.54847168 -3.64038086 83.25561523 C-3.56053955 84.15610596 -3.48069824 85.05659668 -3.3984375 85.984375 C-3.32230225 86.87697021 -3.24616699 87.76956543 -3.16772461 88.68920898 C-2.72423529 91.75986755 -1.75203602 93.76591284 0.19140625 96.17578125 C0.85140625 96.50578125 1.51140625 96.83578125 2.19140625 97.17578125 C2.19140625 104.10578125 2.19140625 111.03578125 2.19140625 118.17578125 C-6.24892285 113.9556167 -14.4183094 108.95634994 -18.80859375 100.17578125 C-19.41279144 100.17213562 -20.01698914 100.16848999 -20.63949585 100.16473389 C-26.96723959 100.12269993 -33.29427206 100.05320969 -39.62158203 99.96826172 C-41.97828025 99.94015579 -44.33507093 99.91889002 -46.69189453 99.90478516 C-50.09325132 99.88321207 -53.49350862 99.83648654 -56.89453125 99.78515625 C-57.93660736 99.78392761 -58.97868347 99.78269897 -60.05233765 99.78143311 C-70.23317179 99.58073768 -78.35659782 96.65602247 -85.7578125 89.5703125 C-91.79827921 82.51734851 -94.56912459 75.42472962 -94.01953125 66.16015625 C-93.94992187 65.5053125 -93.8803125 64.85046875 -93.80859375 64.17578125 C-95.29359375 64.67078125 -95.29359375 64.67078125 -96.80859375 65.17578125 C-98.95019165 65.3461039 -101.09823302 65.44195962 -103.24609375 65.48828125 C-104.94572266 65.54435547 -104.94572266 65.54435547 -106.6796875 65.6015625 C-109.80859375 65.17578125 -109.80859375 65.17578125 -112.1875 63.375 C-114.54526751 60.1763901 -114.36162815 58.04702202 -113.80859375 54.17578125 C-112.22265625 51.9765625 -112.22265625 51.9765625 -109.80859375 50.17578125 C-106.42578125 49.75 -106.42578125 49.75 -102.68359375 49.86328125 C-100.82347656 49.90001953 -100.82347656 49.90001953 -98.92578125 49.9375 C-95.80859375 50.17578125 -95.80859375 50.17578125 -93.80859375 51.17578125 C-93.87820313 50.5209375 -93.9478125 49.86609375 -94.01953125 49.19140625 C-94.56379725 40.01663648 -91.63232112 33.37871376 -86.23828125 26.0390625 C-81.27003453 20.50678777 -74.26088654 16.806795 -66.90170288 15.76379395 C-63.85182319 15.65483675 -60.83930506 15.6908123 -57.7890625 15.78515625 C-55.52800047 15.79792367 -53.26693213 15.809611 -51.00585938 15.8203125 C-47.48546065 15.8661568 -43.9663072 15.92646553 -40.4465332 16.00732422 C-37.01821335 16.0763045 -33.592989 16.09016721 -30.1640625 16.09765625 C-29.11397507 16.13791931 -28.06388763 16.17818237 -26.98197937 16.21966553 C-24.00007465 16.2099715 -21.64385978 16.10820759 -18.80859375 15.17578125 C-16.71263426 13.04324587 -15.37627195 10.98962968 -13.97555542 8.35435486 C-12.41654065 5.44386643 -10.43830828 3.85277848 -7.74609375 1.98828125 C-6.93011719 1.39660156 -6.11414063 0.80492187 -5.2734375 0.1953125 C-2.80859375 -0.82421875 -2.80859375 -0.82421875 0 0 Z " fill="#FBB340" transform="translate(454.80859375,56.82421875)"/>
<path d="M0 0 C4.95 0 9.9 0 15 0 C15 66.99 15 133.98 15 203 C51.3 203 87.6 203 125 203 C125 203.33 125 203.66 125 204 C108.86695886 204.04667569 92.73393954 204.08196705 76.60084724 204.10362434 C69.11034008 204.1139465 61.61987481 204.12802471 54.12939453 204.15087891 C47.60235055 204.17078411 41.07533691 204.1837096 34.54826343 204.18817699 C31.09072228 204.19078926 27.63326794 204.19694855 24.17575455 204.21146011 C20.32044064 204.22751073 16.46521243 204.22798154 12.60986328 204.22705078 C11.45756226 204.23424133 10.30526123 204.24143188 9.11804199 204.24884033 C8.07193756 204.246091 7.02583313 204.24334167 5.94802856 204.24050903 C5.03545351 204.24235262 4.12287846 204.24419621 3.18264961 204.24609566 C1 204 1 204 -1 202 C-1.19543657 199.34402272 -1.26485923 196.79247809 -1.24723816 194.13548279 C-1.24965257 193.31368548 -1.25206699 192.49188817 -1.25455457 191.64518791 C-1.26021575 188.87592798 -1.25151031 186.10689626 -1.24291992 183.33764648 C-1.2439922 181.35870297 -1.24593006 179.37975977 -1.24867249 177.40081787 C-1.25353239 172.01464648 -1.24585114 166.62855754 -1.23571944 161.24239612 C-1.22695872 155.61741394 -1.22869599 149.9924345 -1.2290802 144.3674469 C-1.22814273 134.92081313 -1.21944722 125.47421142 -1.20581055 116.02758789 C-1.19007961 105.08943291 -1.18481255 94.15131306 -1.1855461 83.21314758 C-1.18615543 72.71062126 -1.18105896 62.20810644 -1.17275429 51.70558357 C-1.16921415 47.22671481 -1.16739 42.74785012 -1.16686058 38.26898003 C-1.16585956 33.00037719 -1.15978277 27.7318041 -1.14969444 22.46321106 C-1.14676179 20.52372482 -1.14554561 18.58423515 -1.14612198 16.64474678 C-1.14660905 14.00897691 -1.14099293 11.3732917 -1.13371277 8.73753357 C-1.13526137 7.95973004 -1.13680997 7.18192652 -1.1384055 6.38055319 C-1.11417857 1.11417857 -1.11417857 1.11417857 0 0 Z " fill="#F4AE3E" transform="translate(323,15)"/>
<path d="M0 0 C0.75555679 -0.00524185 1.51111359 -0.0104837 2.28956604 -0.0158844 C3.88224055 -0.02228696 5.47496246 -0.0209905 7.06762695 -0.01245117 C9.49321428 -0.00394375 11.91644204 -0.03271859 14.34179688 -0.06445312 C15.89453055 -0.06606554 17.44726836 -0.06548684 19 -0.0625 C19.71892929 -0.07373398 20.43785858 -0.08496796 21.17857361 -0.09654236 C26.28038252 -0.02658564 29.19388769 1.14101928 33.06640625 4.43359375 C36.37668448 8.47161712 36.52051109 12.32993815 36.5 17.3671875 C36.50524185 18.12274429 36.5104837 18.87830109 36.5158844 19.65675354 C36.52228696 21.24942805 36.5209905 22.84214996 36.51245117 24.43481445 C36.50394375 26.86040178 36.53271859 29.28362954 36.56445312 31.70898438 C36.56606554 33.26171805 36.56548684 34.81445586 36.5625 36.3671875 C36.57935097 37.44558144 36.57935097 37.44558144 36.59654236 38.54576111 C36.52658323 43.64774526 35.41689936 46.59802769 32.06640625 50.43359375 C27.53088059 53.47984232 23.3677278 53.90084322 18.03515625 53.90234375 C17.2810144 53.90995728 16.52687256 53.9175708 15.74987793 53.92541504 C14.16320083 53.93616967 12.57645321 53.93908809 10.98974609 53.93457031 C8.57268743 53.93359628 6.15878999 53.97529814 3.7421875 54.01953125 C2.19401698 54.02473801 0.64583552 54.02742645 -0.90234375 54.02734375 C-1.61813599 54.04373901 -2.33392822 54.06013428 -3.07141113 54.07702637 C-6.86673219 54.0251587 -9.3691444 53.46803575 -12.31054688 51.14648438 C-16.88585753 46.41446167 -17.249717 43.06203146 -17.26953125 36.59765625 C-17.27618805 35.84068451 -17.28284485 35.08371277 -17.28970337 34.30380249 C-17.29980974 32.7051638 -17.30452101 31.1064831 -17.30419922 29.5078125 C-17.308567 27.07350423 -17.34488919 24.64101832 -17.3828125 22.20703125 C-17.3886824 20.64974575 -17.39265063 19.09245168 -17.39453125 17.53515625 C-17.40890228 16.8130899 -17.42327332 16.09102356 -17.43807983 15.34707642 C-17.39224204 10.22667184 -16.24185474 7.31763503 -12.93359375 3.43359375 C-8.89557038 0.12331552 -5.03724935 -0.02051109 0 0 Z " fill="#020202" transform="translate(156.93359375,323.56640625)"/>
<path d="M0 0 C1.0979187 -0.00574036 1.0979187 -0.00574036 2.21801758 -0.01159668 C3.75766382 -0.0143053 5.29735691 -0.00701781 6.83691406 0.00976562 C9.18139113 0.03119416 11.5228047 0.00993221 13.8671875 -0.015625 C15.36979837 -0.01298153 16.87240734 -0.00785615 18.375 0 C19.06891846 -0.00809692 19.76283691 -0.01619385 20.4777832 -0.02453613 C26.45063308 0.0894162 29.79609534 2.26811992 34.03540039 6.2800293 C35.74291258 9.6165349 35.63553546 12.88652502 35.62109375 16.55078125 C35.6263356 17.32757736 35.63157745 18.10437347 35.63697815 18.90470886 C35.64339148 20.54624235 35.64207023 22.18782183 35.63354492 23.8293457 C35.62506294 26.32522801 35.65375667 28.81879844 35.68554688 31.31445312 C35.68715992 32.91406182 35.68657938 34.51367453 35.68359375 36.11328125 C35.70044472 37.22144951 35.70044472 37.22144951 35.71763611 38.352005 C35.64526738 43.80848268 34.44451747 47.10735244 31.1875 51.53125 C27.15414726 54.07731216 22.68332606 53.86878717 18.03515625 53.90234375 C17.25740341 53.91137222 16.47965057 53.9204007 15.67832947 53.92970276 C14.03860297 53.94416486 12.39881929 53.95308192 10.7590332 53.95678711 C8.26088798 53.96869809 5.7652038 54.01792962 3.26757812 54.06835938 C1.66928281 54.07782338 0.07097242 54.08505853 -1.52734375 54.08984375 C-2.26814682 54.10937607 -3.00894989 54.12890839 -3.77220154 54.14903259 C-7.63029576 54.11573249 -10.20875788 53.61117054 -13.20532227 51.24633789 C-17.70001835 46.56560794 -18.12828582 43.29047221 -18.1484375 36.9140625 C-18.1550943 36.1792868 -18.1617511 35.44451111 -18.16860962 34.68746948 C-18.17871448 33.13590998 -18.18342731 31.58430721 -18.18310547 30.03271484 C-18.18747307 27.67081291 -18.22379571 25.31078963 -18.26171875 22.94921875 C-18.26758874 21.43750635 -18.27155691 19.92578513 -18.2734375 18.4140625 C-18.28780853 17.71386993 -18.30217957 17.01367737 -18.31698608 16.29226685 C-18.27020054 11.21821806 -17.08396241 8.37598428 -13.8125 4.53125 C-9.34916539 0.74656952 -5.70378329 -0.06655407 0 0 Z " fill="#060708" transform="translate(237.8125,394.46875)"/>
<path d="M0 0 C0.73240402 -0.0066568 1.46480804 -0.0133136 2.21940613 -0.02017212 C3.76676938 -0.03027814 5.31417604 -0.03498977 6.86157227 -0.03466797 C9.21249488 -0.03902916 11.56152015 -0.07533275 13.91210938 -0.11328125 C15.42056655 -0.11915257 16.92903257 -0.12311985 18.4375 -0.125 C19.48004692 -0.14655655 19.48004692 -0.14655655 20.5436554 -0.16854858 C26.03197286 -0.11793753 29.05330238 1.21005975 33.41796875 4.3359375 C36.78991319 8.31461647 36.87200621 12.24882892 36.8515625 17.26953125 C36.85680435 18.02508804 36.8620462 18.78064484 36.8674469 19.55909729 C36.87384946 21.1517718 36.872553 22.74449371 36.86401367 24.3371582 C36.85550625 26.76274553 36.88428109 29.18597329 36.91601562 31.61132812 C36.91762804 33.1640618 36.91704934 34.71679961 36.9140625 36.26953125 C36.93091347 37.34792519 36.93091347 37.34792519 36.94810486 38.44810486 C36.87814573 43.55008901 35.76846186 46.50037144 32.41796875 50.3359375 C27.89772052 53.36588817 23.73651677 53.81494703 18.421875 53.83984375 C17.67010483 53.84982895 16.91833466 53.85981415 16.14378357 53.87010193 C14.56132473 53.8852193 12.9787712 53.89232971 11.39624023 53.8918457 C8.98975727 53.89841215 6.58739561 53.95296 4.18164062 54.00976562 C-8.67470926 54.15086027 -8.67470926 54.15086027 -13.1171875 50.48828125 C-18.32773125 44.87160743 -16.88048419 36.23347513 -16.93212891 29.05834961 C-16.94867909 27.37363868 -16.97595719 25.6889977 -17.01416016 24.00463867 C-17.06912102 21.56652686 -17.09082955 19.1300553 -17.10546875 16.69140625 C-17.12813812 15.94432907 -17.1508075 15.19725189 -17.17416382 14.42753601 C-17.15860832 10.54902326 -16.67818392 7.9528831 -14.29931641 4.9387207 C-9.6242691 0.46067224 -6.36213841 0.02019654 0 0 Z " fill="#030303" transform="translate(317.58203125,323.6640625)"/>
<path d="M0 0 C0.73098907 -0.00524185 1.46197815 -0.0104837 2.21511841 -0.0158844 C3.75651789 -0.02228643 5.29796635 -0.02099117 6.83935547 -0.01245117 C9.18156262 -0.00395612 11.52131561 -0.03269849 13.86328125 -0.06445312 C15.36718678 -0.06606592 16.87109657 -0.06548611 18.375 -0.0625 C19.06689423 -0.07373398 19.75878845 -0.08496796 20.47164917 -0.09654236 C25.93765634 -0.01932341 28.96926124 1.32260875 33.3203125 4.43359375 C36.69225694 8.41227272 36.77434996 12.34648517 36.75390625 17.3671875 C36.7591481 18.12274429 36.76438995 18.87830109 36.76979065 19.65675354 C36.77619321 21.24942805 36.77489675 22.84214996 36.76635742 24.43481445 C36.75785 26.86040178 36.78662484 29.28362954 36.81835938 31.70898438 C36.81997179 33.26171805 36.81939309 34.81445586 36.81640625 36.3671875 C36.83325722 37.44558144 36.83325722 37.44558144 36.85044861 38.54576111 C36.78049189 43.64757002 35.61288697 46.56107519 32.3203125 50.43359375 C28.24161455 53.79361952 24.26161899 53.90096262 19.16796875 53.90234375 C18.39021591 53.90995728 17.61246307 53.9175708 16.81114197 53.92541504 C15.17140909 53.93618713 13.53160776 53.93908091 11.8918457 53.93457031 C9.3935218 53.93359792 6.89827158 53.97524694 4.40039062 54.01953125 C2.8020897 54.02473898 1.20377816 54.02742643 -0.39453125 54.02734375 C-1.13533432 54.04373901 -1.87613739 54.06013428 -2.63938904 54.07702637 C-6.49364478 54.02609234 -9.07869274 53.5090923 -12.07250977 51.14648438 C-16.62677502 46.40755793 -16.99583178 43.05517144 -17.015625 36.59765625 C-17.0222818 35.84068451 -17.0289386 35.08371277 -17.03579712 34.30380249 C-17.04590349 32.7051638 -17.05061476 31.1064831 -17.05029297 29.5078125 C-17.05466075 27.07350423 -17.09098294 24.64101832 -17.12890625 22.20703125 C-17.13477615 20.64974575 -17.13874438 19.09245168 -17.140625 17.53515625 C-17.15499603 16.8130899 -17.16936707 16.09102356 -17.18417358 15.34707642 C-17.13833579 10.22667184 -15.98794849 7.31763503 -12.6796875 3.43359375 C-8.69597616 0.19066934 -4.96403699 -0.02093939 0 0 Z " fill="#030303" transform="translate(156.6796875,394.56640625)"/>
<path d="M0 0 C0.7347757 -0.00428513 1.46955139 -0.00857025 2.22659302 -0.01298523 C3.77816744 -0.01871686 5.32976873 -0.01923739 6.88134766 -0.01489258 C9.24298506 -0.01173855 11.60336162 -0.03518372 13.96484375 -0.06054688 C15.47656093 -0.06282075 16.98828146 -0.06352295 18.5 -0.0625 C19.20019257 -0.07170975 19.90038513 -0.08091949 20.62179565 -0.09040833 C25.29278164 -0.04681058 28.49661048 0.69013713 32.3828125 3.30078125 C36.20180629 7.70624062 36.98052303 11.40810774 36.9140625 17.078125 C36.9178894 17.80769913 36.92171631 18.53727325 36.92565918 19.28895569 C36.92836809 20.8244058 36.92107854 22.35990288 36.90429688 23.89526367 C36.88289978 26.22876331 36.90411325 28.55917416 36.9296875 30.89257812 C36.92704343 32.3919338 36.92191682 33.89128757 36.9140625 35.390625 C36.92215942 36.07938217 36.93025635 36.76813934 36.93859863 37.47776794 C36.83455697 42.93052333 35.54444185 45.98979812 32.3828125 50.30078125 C27.94667323 53.36945078 23.82928133 53.75662319 18.5703125 53.734375 C17.4723938 53.74223778 17.4723938 53.74223778 16.35229492 53.7502594 C14.8126756 53.75665122 13.27300727 53.75537955 11.73339844 53.74682617 C9.38908396 53.73830405 7.04720005 53.76713151 4.703125 53.79882812 C3.20052156 53.80044023 1.69791384 53.79986242 0.1953125 53.796875 C-0.84556519 53.81372597 -0.84556519 53.81372597 -1.9074707 53.83091736 C-7.88865986 53.74601736 -11.20664196 51.56401568 -15.46289062 47.56787109 C-17.19947923 44.15713467 -17.08495796 40.77138332 -17.0859375 37.02734375 C-17.09355103 36.22597992 -17.10116455 35.42461609 -17.10900879 34.59896851 C-17.11979731 32.9061799 -17.12266795 31.2133248 -17.11816406 29.52050781 C-17.1171932 26.94091688 -17.1587926 24.36431671 -17.203125 21.78515625 C-17.20833363 20.13672492 -17.21102017 18.4882833 -17.2109375 16.83984375 C-17.22733276 16.07402985 -17.24372803 15.30821594 -17.26062012 14.51919556 C-17.21008895 10.56917837 -16.81524531 8.04162633 -14.33007812 4.89208984 C-9.63609461 0.40847384 -6.37933569 -0.00825594 0 0 Z " fill="#020303" transform="translate(317.6171875,252.69921875)"/>
<path d="M0 0 C0.73336075 -0.00287018 1.4667215 -0.00574036 2.2223053 -0.00869751 C3.76792171 -0.01073199 5.31356422 -0.00524529 6.85913086 0.00732422 C9.21201813 0.02336497 11.56318191 0.00746798 13.91601562 -0.01171875 C15.42318084 -0.00973576 16.93034499 -0.00589092 18.4375 0 C19.13455551 -0.00607269 19.83161102 -0.01214539 20.54978943 -0.0184021 C25.2031662 0.04785848 28.41153466 0.80140093 32.28515625 3.3984375 C36.181771 7.86703239 36.88149904 11.67529077 36.81640625 17.4296875 C36.82023315 18.18382935 36.82406006 18.93797119 36.82800293 19.71496582 C36.83071219 21.3016901 36.8234202 22.88845979 36.80664062 24.47509766 C36.78521357 26.89197163 36.80647244 29.30587378 36.83203125 31.72265625 C36.82938779 33.27083984 36.82426244 34.81902159 36.81640625 36.3671875 C36.82450317 37.08297974 36.8326001 37.79877197 36.84094238 38.53625488 C36.74680942 43.61973558 35.61993231 46.57415303 32.28515625 50.3984375 C27.80001115 53.39950391 23.74281535 53.85432678 18.47265625 53.83203125 C17.37473755 53.83989403 17.37473755 53.83989403 16.25463867 53.84791565 C14.71501935 53.85430747 13.17535102 53.8530358 11.63574219 53.84448242 C9.29142771 53.8359603 6.9495438 53.86478776 4.60546875 53.89648438 C3.10286531 53.89809648 1.60025759 53.89751867 0.09765625 53.89453125 C-0.94322144 53.91138222 -0.94322144 53.91138222 -2.00512695 53.92857361 C-7.03191435 53.85722086 -9.89561024 52.62661561 -13.71484375 49.3984375 C-17.02512198 45.36041413 -17.16894859 41.5020931 -17.1484375 36.46484375 C-17.15367935 35.70928696 -17.1589212 34.95373016 -17.1643219 34.17527771 C-17.17072446 32.5826032 -17.169428 30.98988129 -17.16088867 29.3972168 C-17.15238125 26.97162947 -17.18115609 24.54840171 -17.21289062 22.12304688 C-17.21450304 20.5703132 -17.21392434 19.01757539 -17.2109375 17.46484375 C-17.22217148 16.74591446 -17.23340546 16.02698517 -17.24497986 15.28627014 C-17.17502314 10.18446123 -16.00741822 7.27095606 -12.71484375 3.3984375 C-8.71831016 0.13805086 -4.98008983 -0.04326052 0 0 Z " fill="#020202" transform="translate(156.71484375,252.6015625)"/>
<path d="M0 0 C1.10004112 -0.00786278 1.10004112 -0.00786278 2.2223053 -0.0158844 C3.76790099 -0.02228572 5.31354551 -0.0209921 6.85913086 -0.01245117 C9.21231643 -0.00394363 11.56306968 -0.03271972 13.91601562 -0.06445312 C15.42317636 -0.06606555 16.93034136 -0.06548681 18.4375 -0.0625 C19.13455551 -0.07373398 19.83161102 -0.08496796 20.54978943 -0.09654236 C26.45366456 -0.01314708 29.7494141 2.24760914 34.09765625 5.99609375 C36.95248692 9.45194141 36.47932484 13.71677575 36.5234375 17.953125 C36.53150925 18.68931564 36.53958099 19.42550629 36.54789734 20.18400574 C36.5617166 21.74154317 36.5724484 23.29911062 36.58032227 24.85668945 C36.59183995 26.44434523 36.61228872 28.03196235 36.6418457 29.61938477 C36.68464585 31.91839804 36.70070753 34.21626214 36.7109375 36.515625 C36.72844559 37.21895462 36.74595367 37.92228424 36.76399231 38.64692688 C36.74184906 43.72238122 35.55404942 46.58305196 32.28515625 50.43359375 C28.21843565 53.77648589 24.24629268 53.91457982 19.16796875 53.9375 C18.39258759 53.9474852 17.61720642 53.9574704 16.81832886 53.96775818 C15.18281364 53.98290012 13.54720634 53.98998519 11.91162109 53.98950195 C9.42388413 53.99605757 6.94015532 54.05055155 4.453125 54.10742188 C-8.84351472 54.24876134 -8.84351472 54.24876134 -13.28515625 50.5859375 C-16.84255106 45.9704751 -16.89650536 42.30042512 -16.953125 36.6953125 C-16.96119675 35.93692581 -16.96926849 35.17853912 -16.97758484 34.39717102 C-16.99140557 32.79255445 -17.00213671 31.18790873 -17.01000977 29.58325195 C-17.02152856 27.94709627 -17.04197904 26.31097813 -17.0715332 24.67504883 C-17.11431878 22.30654456 -17.13039319 19.9391558 -17.140625 17.5703125 C-17.15813309 16.8451091 -17.17564117 16.1199057 -17.19367981 15.37272644 C-17.17190995 10.23387875 -16.0388168 7.32913538 -12.71484375 3.43359375 C-8.72357323 0.18136783 -4.97423812 -0.02088827 0 0 Z " fill="#030303" transform="translate(317.71484375,394.56640625)"/>
<path d="M0 0 C0.75792847 -0.00287018 1.51585693 -0.00574036 2.29675293 -0.00869751 C3.8936437 -0.01073216 5.49055974 -0.00524427 7.08740234 0.00732422 C9.52368197 0.0233876 11.95830287 0.00745641 14.39453125 -0.01171875 C15.95052447 -0.00973621 17.50651667 -0.00589231 19.0625 0 C19.78659058 -0.00607269 20.51068115 -0.01214539 21.25671387 -0.0184021 C27.1785236 0.06344334 30.10400115 1.5604876 34.31274414 5.57421875 C36.54928972 9.24979188 36.59023201 12.40999911 36.52734375 16.5859375 C36.52879898 17.36606201 36.53025421 18.14618652 36.53175354 18.94995117 C36.53009877 20.59395088 36.51858469 22.23796676 36.49780273 23.88183594 C36.46883994 26.39064694 36.47720301 28.8973435 36.49023438 31.40625 C36.48399638 33.00782271 36.47560496 34.60938879 36.46484375 36.2109375 C36.46777939 36.95690186 36.47071503 37.70286621 36.47373962 38.47143555 C36.39271772 42.9698076 35.91792634 45.90193219 33.03125 49.3984375 C28.49537738 53.25502285 24.75184297 53.98495881 18.96484375 53.89453125 C18.20833023 53.89598648 17.45181671 53.89744171 16.67237854 53.89894104 C15.08143237 53.89728895 13.49046906 53.88580519 11.8996582 53.86499023 C9.47212567 53.83597784 7.04677296 53.84440574 4.61914062 53.85742188 C3.06769778 53.85118507 1.51626179 53.84279458 -0.03515625 53.83203125 C-0.75610977 53.83496689 -1.47706329 53.83790253 -2.21986389 53.84092712 C-6.65711013 53.75827772 -9.55496206 53.2916348 -12.96875 50.3984375 C-16.53605579 45.37608667 -17.47829368 42.00291009 -17.5 35.7421875 C-17.5038269 35.03622437 -17.50765381 34.33026123 -17.51159668 33.60290527 C-17.51430073 32.12050945 -17.50704566 30.63806468 -17.49023438 29.15576172 C-17.46879844 26.90352695 -17.49008277 24.65448086 -17.515625 22.40234375 C-17.51298145 20.95311805 -17.5078559 19.50389432 -17.5 18.0546875 C-17.49548828 16.75337891 -17.49097656 15.45207031 -17.48632812 14.11132812 C-16.73452119 8.71817723 -14.96682918 5.09541846 -10.71679688 1.48583984 C-7.12461488 0.06441317 -3.80529788 -0.03191369 0 0 Z " fill="#030304" transform="translate(236.96875,252.6015625)"/>
<path d="M0 0 C0.73619064 -0.00807175 1.47238129 -0.01614349 2.23088074 -0.02445984 C3.78841817 -0.0382791 5.34598562 -0.0490109 6.90356445 -0.05688477 C8.49122023 -0.06840245 10.07883735 -0.08885122 11.66625977 -0.1184082 C13.96527304 -0.16120835 16.26313714 -0.17727003 18.5625 -0.1875 C19.26582962 -0.20500809 19.96915924 -0.22251617 20.69380188 -0.24055481 C26.73901229 -0.21418069 30.03929983 1.93659849 34.33056641 5.98266602 C36.04367087 9.34304227 35.90870997 12.64173137 35.87890625 16.328125 C35.88177643 17.10966446 35.88464661 17.89120392 35.88760376 18.69642639 C35.88964161 20.34637172 35.88413124 21.99634137 35.87158203 23.64624023 C35.85554506 26.16380229 35.87142802 28.67975383 35.890625 31.19726562 C35.88864209 32.80338894 35.88479744 34.40951126 35.87890625 36.015625 C35.88801529 37.13927711 35.88801529 37.13927711 35.89730835 38.28562927 C35.82378483 43.78607342 34.50261869 46.87910632 30.98046875 50.98828125 C27.4456213 53.93398746 23.09053096 53.43263802 18.7421875 53.4765625 C17.98380081 53.48463425 17.22541412 53.49270599 16.44404602 53.50102234 C14.83942945 53.51484307 13.23478373 53.52557421 11.63012695 53.53344727 C9.99397127 53.54496606 8.35785313 53.56541654 6.72192383 53.5949707 C4.35341956 53.63775628 1.9860308 53.65383069 -0.3828125 53.6640625 C-1.1080159 53.68157059 -1.8332193 53.69907867 -2.58039856 53.71711731 C-7.72098395 53.69534009 -10.69757462 52.67779841 -14.51953125 49.23828125 C-18.30223756 42.5179679 -18.01007623 35.84141075 -17.96557617 28.36791992 C-17.95703707 26.17727501 -17.9859258 23.98921821 -18.01757812 21.79882812 C-18.0191899 20.39192786 -18.01861305 18.98502302 -18.015625 17.578125 C-18.01840454 15.68114868 -18.01840454 15.68114868 -18.02124023 13.74584961 C-17.28487054 8.59771171 -14.52304324 4.54553029 -10.51953125 1.23828125 C-6.9665581 0.05395687 -3.70087115 0.03853679 0 0 Z " fill="#030304" transform="translate(237.51953125,323.76171875)"/>
<path d="M0 0 C1.10216354 -0.0099852 1.10216354 -0.0099852 2.22659302 -0.02017212 C3.77815252 -0.03027698 5.32975529 -0.03498981 6.88134766 -0.03466797 C9.24324959 -0.03903557 11.60327287 -0.07535821 13.96484375 -0.11328125 C15.47655615 -0.11915124 16.98827737 -0.12311941 18.5 -0.125 C19.20019257 -0.13937103 19.90038513 -0.15374207 20.62179565 -0.16854858 C26.64235194 -0.11303572 29.94594688 2.05071195 34.23071289 6.06884766 C35.96530671 9.48216365 35.83068333 12.86525434 35.81640625 16.609375 C35.8216481 17.41073883 35.82688995 18.21210266 35.83229065 19.03775024 C35.83870413 20.73055871 35.83738254 22.42341179 35.82885742 24.11621094 C35.82036341 26.69547725 35.84908922 29.27251579 35.88085938 31.8515625 C35.88247205 33.49999934 35.88189258 35.14844008 35.87890625 36.796875 C35.89575722 37.94559586 35.89575722 37.94559586 35.91294861 39.11752319 C35.84660116 44.26213942 34.90206439 47.33879041 31.3828125 51.3359375 C27.33138196 53.76951638 23.05943827 53.65764285 18.44921875 53.671875 C17.31588356 53.6818602 17.31588356 53.6818602 16.15965271 53.69204712 C14.56699038 53.70213903 12.97428606 53.70686521 11.3815918 53.70654297 C8.95615506 53.71091794 6.53253734 53.74727535 4.10742188 53.78515625 C2.55469368 53.79102501 1.0019569 53.79499401 -0.55078125 53.796875 C-1.26971054 53.81124603 -1.98863983 53.82561707 -2.72935486 53.84042358 C-7.82320691 53.79460835 -10.74488517 52.61774529 -14.6171875 49.3359375 C-17.39729751 45.77205438 -16.95807399 41.39901427 -16.98828125 37.0625 C-16.99730972 36.26113617 -17.0063382 35.45977234 -17.01564026 34.63412476 C-17.03012441 32.94134242 -17.03902494 31.24850432 -17.04272461 29.55566406 C-17.05461692 26.97624622 -17.10381204 24.39922545 -17.15429688 21.8203125 C-17.16376253 20.17188662 -17.17099689 18.52344611 -17.17578125 16.875 C-17.19531357 16.1091861 -17.21484589 15.34337219 -17.23497009 14.55435181 C-17.20193796 10.60095012 -16.82009968 8.08007453 -14.33227539 4.92724609 C-9.64477815 0.45344916 -6.36956906 0.02013006 0 0 Z " fill="#050506" transform="translate(76.6171875,394.6640625)"/>
<path d="M0 0 C1.10216354 -0.0099852 1.10216354 -0.0099852 2.22659302 -0.02017212 C3.77815252 -0.03027698 5.32975529 -0.03498981 6.88134766 -0.03466797 C9.24324959 -0.03903557 11.60327287 -0.07535821 13.96484375 -0.11328125 C15.47655615 -0.11915124 16.98827737 -0.12311941 18.5 -0.125 C19.20019257 -0.13937103 19.90038513 -0.15374207 20.62179565 -0.16854858 C26.64378591 -0.1130225 29.94313642 2.05369103 34.23291016 6.06665039 C35.96919089 9.49313223 35.81075042 12.88939239 35.78125 16.64453125 C35.78412018 17.44826675 35.78699036 18.25200226 35.78994751 19.08009338 C35.79198563 20.77711696 35.78647335 22.47416416 35.77392578 24.17114258 C35.75788878 26.76111751 35.77377135 29.34952706 35.79296875 31.93945312 C35.79098586 33.59114926 35.78714124 35.24284443 35.78125 36.89453125 C35.79035904 38.05099403 35.79035904 38.05099403 35.7996521 39.2308197 C35.7406413 43.77047241 35.37390143 46.84396551 32.3828125 50.3359375 C27.81311789 53.38018315 23.66937771 53.77959078 18.31640625 53.734375 C17.55989273 53.73724518 16.80337921 53.74011536 16.02394104 53.74307251 C14.43302659 53.74510424 12.84208666 53.739637 11.2512207 53.72705078 C8.82381158 53.71096069 6.39806151 53.72694009 3.97070312 53.74609375 C2.41926718 53.7441116 0.86783227 53.74026849 -0.68359375 53.734375 C-1.40454727 53.74044769 -2.12550079 53.74652039 -2.86830139 53.7527771 C-7.296002 53.69129172 -10.16090366 53.15502075 -13.6171875 50.3359375 C-17.02032415 46.20548755 -17.08458165 42.11250946 -17.0859375 36.96484375 C-17.09735779 35.76492043 -17.09735779 35.76492043 -17.10900879 34.54075623 C-17.11978274 32.853944 -17.1226739 31.16706521 -17.11816406 29.48022461 C-17.11719169 26.90950537 -17.15883937 24.34177311 -17.203125 21.77148438 C-17.20833268 20.12761035 -17.21102018 18.48372602 -17.2109375 16.83984375 C-17.22733276 16.0771669 -17.24372803 15.31449005 -17.26062012 14.52870178 C-17.20997544 10.58737827 -16.80938125 8.07160748 -14.33007812 4.92944336 C-9.64576833 0.45127355 -6.36948256 0.02012978 0 0 Z " fill="#030303" transform="translate(76.6171875,323.6640625)"/>
<path d="M0 0 C0.75980164 -0.00570007 1.51960327 -0.01140015 2.3024292 -0.01727295 C3.91303107 -0.02672692 5.52365233 -0.03325851 7.13427734 -0.03710938 C9.58596132 -0.04678262 12.03679527 -0.0777875 14.48828125 -0.109375 C16.05468253 -0.11590852 17.6210898 -0.12115762 19.1875 -0.125 C19.91584045 -0.1373468 20.64418091 -0.1496936 21.39459229 -0.16241455 C26.13308899 -0.14191825 29.40812935 0.55790947 33.359375 3.203125 C36.82570981 7.26781522 36.8267748 11.44801266 36.828125 16.57421875 C36.83954529 17.77414207 36.83954529 17.77414207 36.85119629 18.99830627 C36.86197024 20.6851185 36.8648614 22.37199729 36.86035156 24.05883789 C36.85937919 26.62955713 36.90102687 29.19728939 36.9453125 31.76757812 C36.95052018 33.41145215 36.95320768 35.05533648 36.953125 36.69921875 C36.9777179 37.84323402 36.9777179 37.84323402 37.00280762 39.01036072 C36.95216294 42.95168423 36.55156875 45.46745502 34.07226562 48.60961914 C29.35428146 53.11998143 25.97540575 53.53393515 19.55859375 53.609375 C18.80399368 53.62077515 18.04939362 53.63217529 17.27192688 53.6439209 C15.67751637 53.66277687 14.08302869 53.67587141 12.48852539 53.68359375 C10.06451443 53.7029839 7.64391665 53.76503717 5.22070312 53.828125 C-7.7668795 54.00434409 -7.7668795 54.00434409 -12.18359375 50.296875 C-17.06295301 44.15307129 -15.97515934 37.17731939 -16.0456543 29.62866211 C-16.06719272 27.895386 -16.10124668 26.16221743 -16.14819336 24.42944336 C-16.21546912 21.92252341 -16.24269815 19.41785369 -16.26171875 16.91015625 C-16.28954941 16.14322952 -16.31738007 15.3763028 -16.34605408 14.58613586 C-16.32555393 9.16438583 -14.83471395 6.45488747 -11.12660217 2.52592468 C-7.78342801 -0.45013027 -4.2420772 0.02448044 0 0 Z " fill="#030303" transform="translate(75.640625,252.796875)"/>
<path d="M0 0 C3.67956291 1.56232021 6.16515793 3.83584082 9.0625 6.5625 C13.74231253 10.90355934 18.56595247 14.95088758 23.58984375 18.89453125 C26.07742288 21.06763523 28.01799081 23.36498546 30 26 C23.66581456 31.86861668 17.24715929 37.52593026 10.5234375 42.94921875 C8.26923828 44.7811918 6.06467293 46.65435645 3.875 48.5625 C1 51 1 51 0 51 C-0.02578125 50.33613281 -0.0515625 49.67226562 -0.078125 48.98828125 C-0.42976174 43.51393662 -0.74113982 39.8830784 -5 36 C-8.30463401 34.89845533 -10.82610919 34.84181283 -14.30737305 34.79467773 C-15.60849533 34.77473251 -16.90961761 34.75478729 -18.25016785 34.73423767 C-19.6706836 34.71725454 -21.0912006 34.70037569 -22.51171875 34.68359375 C-23.96475306 34.66301863 -25.41778146 34.64202201 -26.87080383 34.62062073 C-30.6929953 34.56545766 -34.51524026 34.51602302 -38.33752441 34.46777344 C-42.23873652 34.41751628 -46.13987105 34.36185222 -50.04101562 34.30664062 C-57.69394652 34.19912956 -65.34694252 34.09816873 -73 34 C-73 28.06 -73 22.12 -73 16 C-70.99131836 15.98541748 -68.98263672 15.97083496 -66.91308594 15.95581055 C-60.27526997 15.9054661 -53.63768863 15.83887143 -47.000103 15.76428509 C-42.97583774 15.71956362 -38.95167414 15.68031162 -34.92724609 15.65356445 C-31.04318766 15.62754887 -27.15952003 15.58715941 -23.27570343 15.53681374 C-21.79420076 15.52013309 -20.31263049 15.50862625 -18.83104706 15.50238609 C-16.75511236 15.49275755 -14.68018009 15.46471603 -12.60449219 15.43237305 C-11.42312683 15.42126999 -10.24176147 15.41016693 -9.02459717 15.39872742 C-5.72099821 14.96321968 -4.32684799 14.35009221 -2 12 C-1.08656104 9.05484348 -1.08656104 9.05484348 -0.75 5.8125 C-0.60046875 4.72582031 -0.4509375 3.63914062 -0.296875 2.51953125 C-0.19890625 1.68808594 -0.1009375 0.85664062 0 0 Z " fill="#CEDBEF" transform="translate(466,89)"/>
<path d="M0 0 C3.68990426 2.10851672 5.41382823 4.12053041 7 8 C7.26069641 10.49069214 7.26069641 10.49069214 7.2746582 13.31591797 C7.28895622 14.90809647 7.28895622 14.90809647 7.30354309 16.53244019 C7.30263168 17.6741568 7.30172028 18.81587341 7.30078125 19.9921875 C7.30506638 21.17088409 7.3093515 22.34958069 7.31376648 23.56399536 C7.31950906 26.05714272 7.32001058 28.55030683 7.31567383 31.04345703 C7.31251782 34.85348196 7.33596144 38.66272754 7.36132812 42.47265625 C7.36360154 44.89583235 7.36430442 47.31901055 7.36328125 49.7421875 C7.372491 50.87985565 7.38170074 52.0175238 7.39118958 53.18966675 C7.35815139 58.85316557 7.29117492 63.15265803 4 68 C1.15937589 70.78169 -0.93039436 71.45084604 -4.875 71.5 C-8.46174294 71.39419637 -10.67673544 71.00304856 -13.5 68.75 C-17.13985936 64.74615471 -18.24753246 62.16218395 -18.2746582 56.76000977 C-18.28419022 55.71535049 -18.29372223 54.67069122 -18.30354309 53.59437561 C-18.30263168 52.47139572 -18.30172028 51.34841583 -18.30078125 50.19140625 C-18.30506638 49.03253403 -18.3093515 47.8736618 -18.31376648 46.67967224 C-18.31950828 44.22940728 -18.32001115 41.77912527 -18.31567383 39.32885742 C-18.31251497 35.58027055 -18.33597222 31.83247361 -18.36132812 28.08398438 C-18.36360123 25.703126 -18.36430456 23.32226549 -18.36328125 20.94140625 C-18.372491 19.82045059 -18.38170074 18.69949493 -18.39118958 17.54457092 C-18.38496078 16.49675949 -18.37873199 15.44894806 -18.37231445 14.36938477 C-18.37294388 13.45101334 -18.3735733 12.53264191 -18.3742218 11.58644104 C-17.92213877 8.46186061 -16.76377025 6.59312253 -15 4 C-14.505 3.236875 -14.01 2.47375 -13.5 1.6875 C-9.33837958 -1.12159378 -4.85223262 -0.71991582 0 0 Z " fill="#B0CBE8" transform="translate(212,86)"/>
<path d="M0 0 C3.12578143 1.6720747 5.39281175 3.7856235 7 7 C7.11103531 8.75496801 7.1591988 10.514074 7.17700195 12.27246094 C7.18983719 13.37410583 7.20267242 14.47575073 7.21589661 15.61077881 C7.22328354 16.80656555 7.23067047 18.00235229 7.23828125 19.234375 C7.246353 20.46029358 7.25442474 21.68621216 7.26274109 22.94927979 C7.27659237 25.54852886 7.28730983 28.1477962 7.29516602 30.74707031 C7.30838057 34.71968072 7.35624754 38.69167782 7.40039062 42.6640625 C7.41051809 45.18749387 7.41903402 47.71093233 7.42578125 50.234375 C7.44328934 51.42206482 7.46079742 52.60975464 7.47883606 53.83343506 C7.46221045 60.16558745 7.40033677 64.2610993 3 69 C-1.2418919 71.82792793 -5.01873743 71.78122286 -10 71 C-13.12291165 69.31987353 -15.39164837 67.21670326 -17 64 C-17.11623273 62.21453801 -17.16963166 60.4248326 -17.19287109 58.63574219 C-17.20893402 57.51407654 -17.22499695 56.39241089 -17.24154663 55.23675537 C-17.2859447 50.0997498 -17.32750913 44.96283349 -17.35009766 39.82568359 C-17.3634205 37.11537804 -17.39124011 34.40582838 -17.43212891 31.69580078 C-17.49102565 27.79201344 -17.50877086 23.88859141 -17.5234375 19.984375 C-17.54610687 18.7748114 -17.56877625 17.5652478 -17.59213257 16.31903076 C-17.5685653 6.93959078 -17.5685653 6.93959078 -14.59228516 3.25097656 C-10.05464028 -0.6892274 -5.86137855 -0.82579912 0 0 Z " fill="#B2CDEA" transform="translate(105,86)"/>
<path d="M0 0 C1.05692047 0.00424484 2.11384094 0.00848969 3.20278931 0.01286316 C6.5651439 0.02960173 9.92689029 0.06724586 13.2890625 0.10546875 C15.57421007 0.12052178 17.85936707 0.13420911 20.14453125 0.14648438 C25.73460791 0.17948961 31.32423222 0.2312394 36.9140625 0.29296875 C36.9140625 6.23296875 36.9140625 12.17296875 36.9140625 18.29296875 C36.5840625 18.29296875 36.2540625 18.29296875 35.9140625 18.29296875 C35.9140625 12.68296875 35.9140625 7.07296875 35.9140625 1.29296875 C19.5790625 1.78796875 19.5790625 1.78796875 2.9140625 2.29296875 C1.00628037 6.108533 0.65426521 7.46571603 0.59521484 11.52050781 C0.57534515 12.56128479 0.55547546 13.60206177 0.53500366 14.67437744 C0.51767685 16.34956451 0.51767685 16.34956451 0.5 18.05859375 C0.48063385 19.2071283 0.4612677 20.35566284 0.4413147 21.53900146 C0.38154124 25.20691505 0.33514186 28.87486004 0.2890625 32.54296875 C0.25088072 35.02996159 0.21182888 37.51694124 0.171875 40.00390625 C0.07584129 46.10015324 -0.00819851 52.19646213 -0.0859375 58.29296875 C-7.0159375 58.29296875 -13.9459375 58.29296875 -21.0859375 58.29296875 C-21.18496136 51.42452176 -21.2574809 44.55649216 -21.30566406 37.6875 C-21.32575459 35.35181437 -21.35303211 33.01617888 -21.38769531 30.68066406 C-21.43632441 27.31953544 -21.45893242 23.959073 -21.4765625 20.59765625 C-21.49720764 19.55680878 -21.51785278 18.5159613 -21.53912354 17.443573 C-21.54092518 11.59620742 -21.30156727 7.74241097 -17.0859375 3.29296875 C-11.78572501 -0.5554288 -6.28193043 -0.09545733 0 0 Z " fill="#F8773A" transform="translate(36.0859375,130.70703125)"/>
<path d="M0 0 C24.09 0 48.18 0 73 0 C73 19.14 73 38.28 73 58 C67.39 58 61.78 58 56 58 C56 39.19 56 20.38 56 1 C37.52 1 19.04 1 0 1 C0 0.67 0 0.34 0 0 Z " fill="#F7773A" transform="translate(234,131)"/>
<path d="M0 0 C7.59 0 15.18 0 23 0 C23 7.59 23 15.18 23 23 C15.41 23 7.82 23 0 23 C0 15.41 0 7.82 0 0 Z " fill="#F79540" transform="translate(316,410)"/>
<path d="M0 0 C7.59 0 15.18 0 23 0 C23 7.59 23 15.18 23 23 C15.41 23 7.82 23 0 23 C0 15.41 0 7.82 0 0 Z " fill="#AEC9E6" transform="translate(155,410)"/>
<path d="M0 0 C7.59 0 15.18 0 23 0 C23 7.59 23 15.18 23 23 C15.41 23 7.82 23 0 23 C0 15.41 0 7.82 0 0 Z " fill="#F99640" transform="translate(316,339)"/>
<path d="M0 0 C7.59 0 15.18 0 23 0 C23 7.59 23 15.18 23 23 C15.41 23 7.82 23 0 23 C0 15.41 0 7.82 0 0 Z " fill="#ADC8E5" transform="translate(235,339)"/>
<path d="M0 0 C7.59 0 15.18 0 23 0 C23 7.59 23 15.18 23 23 C15.41 23 7.82 23 0 23 C0 15.41 0 7.82 0 0 Z " fill="#B0CAE8" transform="translate(155,339)"/>
<path d="M0 0 C7.59 0 15.18 0 23 0 C23 7.59 23 15.18 23 23 C15.41 23 7.82 23 0 23 C0 15.41 0 7.82 0 0 Z " fill="#F99640" transform="translate(316,268)"/>
<path d="M0 0 C7.59 0 15.18 0 23 0 C23 7.59 23 15.18 23 23 C15.41 23 7.82 23 0 23 C0 15.41 0 7.82 0 0 Z " fill="#ADC8E5" transform="translate(235,268)"/>
<path d="M0 0 C7.59 0 15.18 0 23 0 C23 7.59 23 15.18 23 23 C15.41 23 7.82 23 0 23 C0 15.41 0 7.82 0 0 Z " fill="#B0CAE8" transform="translate(155,268)"/>
<path d="M0 0 C7.26 0 14.52 0 22 0 C22 7.59 22 15.18 22 23 C14.74 23 7.48 23 0 23 C0 15.41 0 7.82 0 0 Z " fill="#B1CCE9" transform="translate(75,339)"/>
<path d="M0 0 C7.26 0 14.52 0 22 0 C22 7.59 22 15.18 22 23 C14.74 23 7.48 23 0 23 C0 15.41 0 7.82 0 0 Z " fill="#B1CCE9" transform="translate(75,268)"/>
<path d="M0 0 C7.26 0 14.52 0 22 0 C22 7.26 22 14.52 22 22 C14.74 22 7.48 22 0 22 C0 14.74 0 7.48 0 0 Z " fill="#B3CEEC" transform="translate(236,411)"/>
<path d="M0 0 C7.26 0 14.52 0 22 0 C22 7.26 22 14.52 22 22 C14.74 22 7.48 22 0 22 C0 14.74 0 7.48 0 0 Z " fill="#B3CEEC" transform="translate(75,411)"/>
<path d="M0 0 C1.8253125 -0.01546875 1.8253125 -0.01546875 3.6875 -0.03125 C7.53405389 0.58565015 8.72673707 1.38746396 11 4.5 C11.5625 8 11.5625 8 11 11.5 C8.31434626 14.26464356 6.6353152 15.39424374 2.80859375 16.03125 C1.69613281 16.0209375 0.58367187 16.010625 -0.5625 16 C-1.67753906 16.0103125 -2.79257812 16.020625 -3.94140625 16.03125 C-7.61099878 15.39387505 -8.79697794 14.45849485 -11 11.5 C-11.55011608 7.64918741 -11.73379835 5.50717421 -9.40625 2.3125 C-6.16784828 -0.12681558 -4.01933712 -0.03406218 0 0 Z " fill="#050402" transform="translate(352,106.5)"/>
</svg>
