<?xml version="1.0" encoding="UTF-8"?>
<svg version="1.1" xmlns="http://www.w3.org/2000/svg" width="512" height="512">
<path d="M0 0 C7.67564888 5.20408994 12.78367064 10.95223653 16.265625 19.57421875 C18.24599881 30.37625771 16.45009467 38.36664305 11.953125 48.32421875 C12.860625 48.59363281 13.768125 48.86304688 14.703125 49.140625 C22.69771427 52.05211604 26.90649832 58.22147722 30.82421875 65.48046875 C31.953125 68.32421875 31.953125 68.32421875 32.953125 75.32421875 C56.713125 75.32421875 80.473125 75.32421875 104.953125 75.32421875 C105.613125 72.35421875 106.273125 69.38421875 106.953125 66.32421875 C109.78820763 59.90797911 113.87466161 54.01115556 119.953125 50.32421875 C121.93718048 49.61149979 123.93573114 48.93623711 125.953125 48.32421875 C125.5921875 47.525 125.23125 46.72578125 124.859375 45.90234375 C120.7190191 36.10350145 119.26243073 28.01067393 122.390625 17.69921875 C125.50125754 10.10399937 130.97297855 3.53428464 138.328125 -0.23828125 C146.9669113 -3.66400685 157.55887726 -4.36016732 166.453125 -1.11328125 C174.7985457 2.89813105 180.30228548 8.84737678 183.953125 17.32421875 C186.96182429 26.17673781 185.74548195 37.42924297 181.828125 45.69921875 C181.539375 46.23546875 181.250625 46.77171875 180.953125 47.32421875 C181.52160156 47.66453125 182.09007812 48.00484375 182.67578125 48.35546875 C191.44039041 53.85712659 197.75165838 60.30672643 200.953125 70.32421875 C202.00077197 75.39853279 202.1454042 80.32615572 202.19140625 85.484375 C202.199478 86.35186874 202.20754974 87.21936249 202.21586609 88.11314392 C202.22964014 89.93942299 202.24039187 91.76572708 202.24829102 93.59204102 C202.25985859 95.45702675 202.28038496 97.32197818 202.30981445 99.18676758 C202.3524339 101.89036402 202.36864621 104.59298466 202.37890625 107.296875 C202.39641434 108.12719742 202.41392242 108.95751984 202.43196106 109.81300354 C202.41699914 113.807631 202.24781723 115.84323628 200.11401367 119.32592773 C196.21495535 122.93159855 192.10481861 122.47793338 187.08862305 122.48535156 C186.28827637 122.49031647 185.48792969 122.49528137 184.66333008 122.50039673 C182.0138259 122.51500939 179.36438161 122.52181908 176.71484375 122.52734375 C174.8726247 122.53309622 173.03040566 122.53885394 171.18818665 122.5446167 C167.32377849 122.55512433 163.45939113 122.56096846 159.5949707 122.56445312 C154.64854158 122.5699354 149.70238807 122.59395871 144.75604534 122.62242508 C140.94958194 122.64106985 137.14318466 122.64625805 133.33667946 122.647789 C131.51346137 122.65081223 129.69024436 122.65882961 127.86707115 122.67197418 C125.3131058 122.68907217 122.75981027 122.68714532 120.20581055 122.68066406 C119.45598404 122.68987885 118.70615753 122.69909363 117.93360901 122.70858765 C113.21105579 122.6711377 109.956243 121.84350564 105.953125 119.32421875 C104.59611853 116.61020581 104.8407389 114.47575559 104.85546875 111.44140625 C104.85796631 110.39065918 104.86046387 109.33991211 104.86303711 108.25732422 C104.87669312 106.24856201 104.87669312 106.24856201 104.890625 104.19921875 C104.91125 99.95046875 104.931875 95.70171875 104.953125 91.32421875 C95.713125 91.32421875 86.473125 91.32421875 76.953125 91.32421875 C76.953125 117.39421875 76.953125 143.46421875 76.953125 170.32421875 C94.82873402 170.16603429 94.82873402 170.16603429 112.70385742 169.96386719 C114.94709513 169.95218325 117.19034133 169.94199073 119.43359375 169.93359375 C120.59556274 169.91312988 121.75753174 169.89266602 122.95471191 169.87158203 C131.15346232 169.86803087 131.15346232 169.86803087 135.1730957 172.16113281 C138.49905179 176.20282406 138.08500034 180.30031821 138.05078125 185.2734375 C138.04865883 186.43236259 138.04865883 186.43236259 138.04649353 187.61470032 C138.04089966 190.08041264 138.02834833 192.5460339 138.015625 195.01171875 C138.01060921 196.68424348 138.00604644 198.35676963 138.00195312 200.02929688 C137.99093224 204.12763921 137.97367184 208.22591354 137.953125 212.32421875 C139.12113647 212.53570557 139.12113647 212.53570557 140.31274414 212.75146484 C147.61075564 214.33455638 153.8574506 220.27947743 157.953125 226.32421875 C162.14227447 233.9961121 163.49731061 242.89149302 161.09375 251.34765625 C159.86043749 254.75267121 158.57329799 258.08387276 156.953125 261.32421875 C157.51 261.65292969 158.066875 261.98164063 158.640625 262.3203125 C168.69838124 268.58942069 174.93799925 275.71995188 177.953125 287.32421875 C177.953125 287.98421875 177.953125 288.64421875 177.953125 289.32421875 C194.783125 289.32421875 211.613125 289.32421875 228.953125 289.32421875 C229.613125 286.35421875 230.273125 283.38421875 230.953125 280.32421875 C233.56061569 273.5932544 237.90129348 268.27487187 243.953125 264.32421875 C245.93278271 263.59937409 247.93078826 262.91970055 249.953125 262.32421875 C249.5921875 261.62039063 249.23125 260.9165625 248.859375 260.19140625 C244.3418653 250.5791495 242.91257667 241.16307749 246.515625 230.94921875 C250.71757495 221.97031517 257.59772758 215.85213593 266.7421875 212.21484375 C274.8374607 209.9694395 284.44945616 209.97656442 291.96484375 213.99609375 C300.05931689 219.40301098 306.33404239 225.80132629 308.953125 235.32421875 C309.82519206 244.4505019 309.23062896 252.16432163 304.953125 260.32421875 C304.623125 260.98421875 304.293125 261.64421875 303.953125 262.32421875 C304.7575 262.48921875 305.561875 262.65421875 306.390625 262.82421875 C314.53504122 266.25344663 319.49502378 272.19987681 323.078125 280.125 C324.43843709 283.54399868 325.08834985 286.25708574 325.14599609 289.91577148 C325.16205902 290.84360947 325.17812195 291.77144745 325.19467163 292.72740173 C325.23916529 296.95538525 325.28015712 301.18321428 325.30322266 305.41137695 C325.3198117 307.64325364 325.34714009 309.87507657 325.38525391 312.10668945 C325.43990964 315.32401082 325.46187638 318.54008999 325.4765625 321.7578125 C325.49923187 322.75582382 325.52190125 323.75383514 325.54525757 324.78208923 C325.54098251 326.17857445 325.54098251 326.17857445 325.53662109 327.60327148 C325.54470795 328.42029037 325.5527948 329.23730927 325.56112671 330.0790863 C324.61840202 333.56023078 323.03500725 334.53201857 319.953125 336.32421875 C317.03057227 336.71155287 314.48840704 336.87215358 311.5703125 336.84179688 C310.32305389 336.85231079 310.32305389 336.85231079 309.05059814 336.86303711 C306.30943133 336.88060343 303.56930182 336.86899946 300.828125 336.85546875 C298.91910606 336.85816406 297.01008846 336.86204681 295.10107422 336.86706543 C291.10305695 336.87295862 287.10539751 336.86440326 283.10742188 336.84570312 C277.98590614 336.8229137 272.86522888 336.83603774 267.7437439 336.85999298 C263.80258887 336.87445577 259.86163223 336.86984275 255.92047119 336.85948181 C254.0322459 336.85681586 252.14400252 336.86007967 250.25579834 336.86940002 C247.6153603 336.87957357 244.97627494 336.86405392 242.3359375 336.84179688 C241.55760559 336.8498938 240.77927368 336.85799072 239.97735596 336.86633301 C236.29165888 336.80885465 234.12656796 336.43153409 230.9646759 334.47515869 C228.26079868 331.58391816 228.37255899 329.94021756 228.46484375 326.02734375 C228.48095703 324.82207031 228.49707031 323.61679687 228.51367188 322.375 C228.55556641 321.12074219 228.59746094 319.86648438 228.640625 318.57421875 C228.66318359 317.30449219 228.68574219 316.03476562 228.70898438 314.7265625 C228.76790575 311.59194526 228.85758491 308.45793365 228.953125 305.32421875 C222.683125 305.32421875 216.413125 305.32421875 209.953125 305.32421875 C209.953125 339.64421875 209.953125 373.96421875 209.953125 409.32421875 C221.833125 409.32421875 233.713125 409.32421875 245.953125 409.32421875 C246.283125 407.67421875 246.613125 406.02421875 246.953125 404.32421875 C251.01448059 396.20150758 257.255132 389.33039494 265.87890625 385.92578125 C275.65212502 383.09136375 285.24136703 384.04724312 294.140625 388.88671875 C300.684883 393.11579114 306.11435137 399.38726195 308.515625 406.90625 C310.33877176 416.98239147 309.25533176 426.08599799 304.953125 435.32421875 C305.52160156 435.66453125 306.09007812 436.00484375 306.67578125 436.35546875 C315.97995067 442.1958155 321.8295606 448.67375544 324.953125 459.32421875 C325.46216688 463.05632875 325.49292624 466.71413314 325.44921875 470.4765625 C325.45067398 471.49851212 325.45212921 472.52046173 325.45362854 473.57337952 C325.45198037 475.71374388 325.44054178 477.85412146 325.41967773 479.99438477 C325.39048591 483.27736139 325.39913868 486.55874366 325.41210938 489.84179688 C325.4058781 491.92839328 325.39749196 494.01498461 325.38671875 496.1015625 C325.38965439 497.08277573 325.39259003 498.06398895 325.39561462 499.07493591 C325.38293045 499.98340775 325.37024628 500.89187958 325.35717773 501.82788086 C325.35177475 502.62600693 325.34637177 503.424133 325.34080505 504.2464447 C324.953125 506.32421875 324.953125 506.32421875 323.95581055 508.07998657 C320.70599535 510.09903776 317.21817278 509.74877141 313.50610352 509.72827148 C312.21298248 509.73856636 312.21298248 509.73856636 310.89373779 509.74906921 C308.03966879 509.76739349 305.18614655 509.76349166 302.33203125 509.7578125 C300.35049764 509.76237171 298.36896562 509.7676765 296.38743591 509.7736969 C292.23210227 509.78263914 288.07696069 509.78019234 283.92163086 509.77026367 C278.59373432 509.75877456 273.26650058 509.77897904 267.93869114 509.80818081 C263.84575684 509.8265181 259.75298207 509.82625525 255.66001701 509.82054329 C253.69559741 509.82038976 251.73116721 509.82646002 249.76678658 509.83883476 C247.02061398 509.85369576 244.27567474 509.84310388 241.52954102 509.82592773 C240.71641953 509.8355957 239.90329803 509.84526367 239.0655365 509.85522461 C235.54686812 509.80908859 233.36975809 509.61526343 230.44944763 507.57524109 C228.77397673 505.05471354 228.44780856 503.80432786 228.43554688 500.80615234 C228.42293823 499.91777679 228.41032959 499.02940125 228.39733887 498.11410522 C228.40948425 496.68283798 228.40948425 496.68283798 228.421875 495.22265625 C228.4180481 494.23101471 228.41422119 493.23937317 228.41027832 492.21768188 C228.40755707 490.11792996 228.41493309 488.01814425 228.43164062 485.91845703 C228.45291084 482.73130878 228.43191639 479.54644996 228.40625 476.359375 C228.4088959 474.31379716 228.41402627 472.26822074 228.421875 470.22265625 C228.41377808 469.28062347 228.40568115 468.3385907 228.39733887 467.36801147 C228.53927579 457.15456159 231.93130112 449.6013705 238.92578125 442.2421875 C245.18123091 436.32421875 245.18123091 436.32421875 249.953125 436.32421875 C249.664375 435.69773437 249.375625 435.07125 249.078125 434.42578125 C248.706875 433.60851562 248.335625 432.79125 247.953125 431.94921875 C247.581875 431.13710938 247.210625 430.325 246.828125 429.48828125 C245.953125 427.32421875 245.953125 427.32421875 245.953125 425.32421875 C203.878125 425.81921875 203.878125 425.81921875 160.953125 426.32421875 C159.633125 429.62421875 158.313125 432.92421875 156.953125 436.32421875 C157.79875 436.53046875 158.644375 436.73671875 159.515625 436.94921875 C167.65311042 440.20421292 172.26427957 446.5468078 175.953125 454.32421875 C177.97693559 460.12241508 178.27416958 465.37769929 178.2890625 471.4921875 C178.2957193 472.44942215 178.3023761 473.4066568 178.30923462 474.39289856 C178.31931537 476.40571176 178.32405306 478.41855807 178.32373047 480.43139648 C178.32812649 483.51275981 178.36455675 486.59271559 178.40234375 489.67382812 C178.40820827 491.6341097 178.4121801 493.59439805 178.4140625 495.5546875 C178.42843353 496.47452927 178.44280457 497.39437103 178.45761108 498.34208679 C178.45145782 499.20010391 178.44530457 500.05812103 178.43896484 500.94213867 C178.44181488 501.69379807 178.44466492 502.44545746 178.44760132 503.21989441 C177.70325649 506.38757482 176.61620943 507.453476 173.953125 509.32421875 C170.97664032 509.72388853 168.36909213 509.8816009 165.39257812 509.85766602 C164.53035141 509.86628159 163.66812469 509.87489716 162.7797699 509.8837738 C159.93099918 509.90646813 157.08320934 509.89968906 154.234375 509.890625 C152.25426948 509.89585881 150.27416646 509.9021344 148.29406738 509.90940857 C144.14465602 509.919819 139.99558747 509.91524168 135.84619141 509.90063477 C130.52602068 509.88344043 125.20692925 509.90694698 119.88687897 509.94212437 C115.79820586 509.96407272 111.70979208 509.96266319 107.62107849 509.95435905 C105.65944738 509.95353824 103.69779748 509.96042649 101.73622131 509.97513008 C98.99469411 509.99253009 96.25512007 509.97807254 93.51367188 509.95532227 C92.70212143 509.96701447 91.89057098 509.97870667 91.0544281 509.99075317 C87.19079934 509.92544238 85.35060949 509.68659473 82.45043945 507.04258728 C81.01895009 504.44372395 80.44920319 503.10887874 80.43554688 500.19921875 C80.42293823 499.42070557 80.41032959 498.64219238 80.39733887 497.84008789 C80.40543579 497.00985107 80.41353271 496.17961426 80.421875 495.32421875 C80.4180481 494.4520874 80.41422119 493.57995605 80.41027832 492.68139648 C80.40756077 490.83560024 80.41491105 488.98976539 80.43164062 487.14404297 C80.45284671 484.36074423 80.43194272 481.58008822 80.40625 478.796875 C80.38660238 466.40839242 80.884593 454.0596168 89.16796875 444.0390625 C91.85532613 441.45755289 94.82415335 439.48437496 98 437.55078125 C100.08053258 436.34531768 100.08053258 436.34531768 101.953125 434.32421875 C101.67597656 433.80214844 101.39882813 433.28007812 101.11328125 432.7421875 C97.15306061 424.69490641 95.74232281 416.35840289 98.1015625 407.58203125 C101.62935616 398.2285233 107.28845241 391.47700039 116.203125 387.01171875 C125.51264572 383.26270702 134.64786099 383.74527105 143.953125 387.32421875 C146.97857117 389.00728208 149.44831607 390.942689 151.953125 393.32421875 C152.51902344 393.86175781 153.08492188 394.39929688 153.66796875 394.953125 C158.127635 399.6526755 158.73043845 402.65615911 160.953125 409.32421875 C171.843125 409.32421875 182.733125 409.32421875 193.953125 409.32421875 C193.953125 375.00421875 193.953125 340.68421875 193.953125 305.32421875 C188.673125 305.32421875 183.393125 305.32421875 177.953125 305.32421875 C178.00533203 308.06992187 178.00533203 308.06992187 178.05859375 310.87109375 C178.08673085 313.27212625 178.11403109 315.67316866 178.140625 318.07421875 C178.16576172 319.28078125 178.19089844 320.48734375 178.21679688 321.73046875 C178.22646484 322.890625 178.23613281 324.05078125 178.24609375 325.24609375 C178.2618042 326.3144043 178.27751465 327.38271484 178.29370117 328.48339844 C177.90709312 331.7081807 177.22343701 333.0356433 174.953125 335.32421875 C169.68872317 337.07901936 164.0880183 336.55130859 158.578125 336.57421875 C157.34578125 336.59484375 156.1134375 336.61546875 154.84375 336.63671875 C153.65523438 336.641875 152.46671875 336.64703125 151.2421875 336.65234375 C150.15631348 336.66168945 149.07043945 336.67103516 147.95166016 336.68066406 C144.48142233 336.26814597 142.64656762 335.54905206 139.953125 333.32421875 C139.623125 331.67421875 139.293125 330.02421875 138.953125 328.32421875 C132.683125 328.32421875 126.413125 328.32421875 119.953125 328.32421875 C119.623125 329.97421875 119.293125 331.62421875 118.953125 333.32421875 C115.30485411 336.33101739 112.33840269 336.70031064 107.69921875 336.6875 C105.92321289 336.6865332 105.92321289 336.6865332 104.11132812 336.68554688 C102.88349609 336.66943359 101.65566406 336.65332031 100.390625 336.63671875 C99.15892578 336.63994141 97.92722656 336.64316406 96.65820312 336.64648438 C86.15051909 336.58349553 86.15051909 336.58349553 82.953125 334.32421875 C81.29909535 331.56039781 80.69998377 329.48609464 80.6784668 326.28100586 C80.66893478 325.49596176 80.65940277 324.71091766 80.64958191 323.90208435 C80.65094902 322.63957603 80.65094902 322.63957603 80.65234375 321.3515625 C80.64805862 320.47327286 80.6437735 319.59498322 80.63935852 318.69007874 C80.63361902 316.82993428 80.63311217 314.96976739 80.63745117 313.10961914 C80.64058681 310.29598372 80.61723275 307.48342549 80.59179688 304.66992188 C80.54536256 291.80267869 80.65596393 280.18295331 89.953125 270.32421875 C93.67220902 266.69829098 97.20087425 263.49969354 101.953125 261.32421875 C101.67597656 260.81375 101.39882813 260.30328125 101.11328125 259.77734375 C97.02084072 251.56333499 95.64279631 242.50054399 98.109375 233.54296875 C101.63915286 224.2609603 107.4291536 217.31560232 116.54296875 213.13671875 C118.953125 212.32421875 118.953125 212.32421875 121.953125 212.32421875 C121.953125 203.74421875 121.953125 195.16421875 121.953125 186.32421875 C86.973125 186.32421875 51.993125 186.32421875 15.953125 186.32421875 C15.953125 194.90421875 15.953125 203.48421875 15.953125 212.32421875 C17.933125 212.65421875 19.913125 212.98421875 21.953125 213.32421875 C29.90849935 217.1560574 34.55653447 223.026884 38.765625 230.57421875 C41.86548562 240.36325229 41.57479568 249.57670996 37.328125 258.88671875 C36.874375 259.69109375 36.420625 260.49546875 35.953125 261.32421875 C36.52160156 261.66453125 37.09007812 262.00484375 37.67578125 262.35546875 C47.11097054 268.27805836 53.6331848 275.41717314 56.48803711 286.37792969 C57.1344298 290.47276801 57.11572764 294.50102296 57.12109375 298.640625 C57.12442215 299.53410141 57.12775055 300.42757782 57.13117981 301.34812927 C57.13622969 303.23167406 57.13858874 305.11522775 57.13842773 306.9987793 C57.14062004 309.88019453 57.15881209 312.76123026 57.17773438 315.64257812 C57.18066753 317.47525911 57.18265285 319.30794191 57.18359375 321.140625 C57.19437202 322.43136681 57.19437202 322.43136681 57.20536804 323.7481842 C57.20229141 324.55259445 57.19921478 325.3570047 57.19604492 326.18579102 C57.19746994 326.89018814 57.19889496 327.59458527 57.20036316 328.32032776 C56.89933808 330.7601673 56.31135002 332.27134786 54.953125 334.32421875 C51.3651215 337.06502884 47.09099616 336.612715 42.77563477 336.59887695 C41.54322556 336.60654335 41.54322556 336.60654335 40.28591919 336.61436462 C37.57204895 336.62825602 34.8584328 336.62730423 32.14453125 336.625 C30.25650437 336.62888713 28.36847836 336.63322184 26.48045349 336.63798523 C22.52364263 336.64544643 18.56692099 336.64515684 14.61010742 336.63989258 C9.5413979 336.63409756 4.47305375 336.65103022 -0.59559536 336.67423725 C-4.49467603 336.68897414 -8.3936687 336.68984636 -12.29277229 336.68672752 C-14.16146633 336.68724074 -16.0301653 336.69247856 -17.89883232 336.70253944 C-20.51279268 336.71488591 -23.12604114 336.70812312 -25.73999023 336.6965332 C-26.51054245 336.70417694 -27.28109467 336.71182068 -28.07499695 336.71969604 C-32.5673738 336.67570453 -35.48129164 336.11923074 -39.046875 333.32421875 C-40.40388147 330.61020581 -40.1592611 328.47575559 -40.14453125 325.44140625 C-40.14130859 324.27480469 -40.13808594 323.10820312 -40.13476562 321.90625 C-40.12638672 320.68292969 -40.11800781 319.45960938 -40.109375 318.19921875 C-40.10486328 316.96816406 -40.10035156 315.73710937 -40.09570312 314.46875 C-40.08388841 311.42055236 -40.0659525 308.37237959 -40.046875 305.32421875 C-45.656875 305.32421875 -51.266875 305.32421875 -57.046875 305.32421875 C-57.046875 332.05421875 -57.046875 358.78421875 -57.046875 386.32421875 C-55.066875 386.65421875 -53.086875 386.98421875 -51.046875 387.32421875 C-42.47474647 392.01998033 -36.71642123 399.23353741 -33.74609375 408.4453125 C-31.26237454 418.67157538 -34.1822096 426.8695909 -38.046875 436.32421875 C-36.685625 436.73027344 -36.685625 436.73027344 -35.296875 437.14453125 C-26.78974524 440.23245576 -22.9012003 446.64705414 -19.17578125 454.5546875 C-17.61760616 458.37733849 -16.92324398 461.62968425 -16.86987305 465.75390625 C-16.85703781 466.62160645 -16.84420258 467.48930664 -16.83097839 468.38330078 C-16.82359146 469.31255371 -16.81620453 470.24180664 -16.80859375 471.19921875 C-16.800522 472.16069824 -16.79245026 473.12217773 -16.78413391 474.11279297 C-16.77032108 476.14353647 -16.75958644 478.17430292 -16.75170898 480.20507812 C-16.73443766 483.31294267 -16.69051997 486.41975905 -16.64648438 489.52734375 C-16.63636191 491.50129427 -16.62784442 493.47525382 -16.62109375 495.44921875 C-16.60358566 496.37847168 -16.58607758 497.30772461 -16.56803894 498.26513672 C-16.58933016 504.57994299 -16.58933016 504.57994299 -18.6340332 507.90600586 C-21.90252761 509.82715167 -24.29398287 509.85775964 -28.078125 509.890625 C-28.75105591 509.89682358 -29.42398682 509.90302216 -30.11730957 509.90940857 C-31.53603676 509.91649316 -32.95484732 509.91335626 -34.37353516 509.90063477 C-36.54094666 509.88675671 -38.70404617 509.92085811 -40.87109375 509.95898438 C-42.25260522 509.95993558 -43.63412208 509.95807666 -45.015625 509.953125 C-46.89411133 509.95421265 -46.89411133 509.95421265 -48.81054688 509.95532227 C-52.046875 509.32421875 -52.046875 509.32421875 -54.48632812 506.90991211 C-56.046875 504.32421875 -56.046875 504.32421875 -56.046875 502.32421875 C-62.316875 502.32421875 -68.586875 502.32421875 -75.046875 502.32421875 C-75.376875 503.97421875 -75.706875 505.62421875 -76.046875 507.32421875 C-80.91202841 510.56765436 -86.60297261 509.73497335 -92.2980957 509.74975586 C-94.47396157 509.76166177 -96.64699759 509.81085501 -98.82226562 509.86132812 C-100.20831952 509.87079208 -101.5943908 509.87802725 -102.98046875 509.8828125 C-104.23915771 509.89626709 -105.49784668 509.90972168 -106.79467773 509.92358398 C-110.046875 509.32421875 -110.046875 509.32421875 -112.45532227 507.35180664 C-114.61492043 503.24363409 -114.62276759 499.90174957 -114.578125 495.32421875 C-114.58386536 494.01602173 -114.58386536 494.01602173 -114.58972168 492.68139648 C-114.59243923 490.83560024 -114.58508895 488.98976539 -114.56835938 487.14404297 C-114.54715329 484.36074423 -114.56805728 481.58008822 -114.59375 478.796875 C-114.61339762 466.40839242 -114.115407 454.0596168 -105.83203125 444.0390625 C-103.14467387 441.45755289 -100.17584665 439.48437496 -97 437.55078125 C-94.91946742 436.34531768 -94.91946742 436.34531768 -93.046875 434.32421875 C-93.32402344 433.80214844 -93.60117188 433.28007812 -93.88671875 432.7421875 C-97.84693939 424.69490641 -99.25767719 416.35840289 -96.8984375 407.58203125 C-93.99830827 399.89269778 -89.712954 394.06956312 -83.046875 389.32421875 C-78.591875 387.34421875 -78.591875 387.34421875 -74.046875 385.32421875 C-73.551875 345.72421875 -73.551875 345.72421875 -73.046875 305.32421875 C-78.986875 305.32421875 -84.926875 305.32421875 -91.046875 305.32421875 C-90.99466797 308.06992187 -90.99466797 308.06992187 -90.94140625 310.87109375 C-90.91326915 313.27212625 -90.88596891 315.67316866 -90.859375 318.07421875 C-90.83423828 319.28078125 -90.80910156 320.48734375 -90.78320312 321.73046875 C-90.77353516 322.890625 -90.76386719 324.05078125 -90.75390625 325.24609375 C-90.7381958 326.3144043 -90.72248535 327.38271484 -90.70629883 328.48339844 C-91.09290688 331.7081807 -91.77656299 333.0356433 -94.046875 335.32421875 C-97.76803873 336.56460666 -101.23405124 336.48779028 -105.11083984 336.5012207 C-105.93229996 336.5077919 -106.75376007 336.5143631 -107.60011292 336.52113342 C-110.31934704 336.54084939 -113.03852603 336.55252401 -115.7578125 336.5625 C-116.68658833 336.56657553 -117.61536415 336.57065105 -118.5722847 336.57485008 C-123.48633858 336.5957016 -128.40036459 336.6100084 -133.31445312 336.61938477 C-138.39109375 336.63045915 -143.46729726 336.66487349 -148.54378319 336.70455647 C-152.44714172 336.73068882 -156.35039545 336.73907349 -160.25383377 336.74266624 C-162.12534163 336.74753942 -163.99684459 336.75917415 -165.86826706 336.77770424 C-168.48723905 336.80202844 -171.10507094 336.80114341 -173.72412109 336.79418945 C-174.88230598 336.81340454 -174.88230598 336.81340454 -176.06388855 336.83300781 C-179.67213342 336.79809968 -181.88939406 336.41621464 -185.02760315 334.58296204 C-187.31125746 332.02848239 -187.67390951 331.08165757 -187.67797852 327.71435547 C-187.69051163 326.80595917 -187.70304474 325.89756287 -187.71595764 324.9616394 C-187.70269943 323.98558746 -187.68944122 323.00953552 -187.67578125 322.00390625 C-187.67819321 320.99006866 -187.68060516 319.97623108 -187.68309021 318.93167114 C-187.68211089 316.78481135 -187.66869713 314.63792657 -187.64379883 312.49121094 C-187.60971287 309.23152981 -187.62308083 305.97459453 -187.64257812 302.71484375 C-187.63567288 300.62368652 -187.62599439 298.53253624 -187.61328125 296.44140625 C-187.61824112 295.47749969 -187.62320099 294.51359314 -187.62831116 293.52047729 C-187.4537225 283.29729856 -184.14846422 275.63886437 -177.14453125 268.2421875 C-174.03843738 265.40216499 -170.44037086 262.32421875 -166.046875 262.32421875 C-166.32402344 261.793125 -166.60117188 261.26203125 -166.88671875 260.71484375 C-167.43005859 259.65523438 -167.43005859 259.65523438 -167.984375 258.57421875 C-168.52384766 257.53007813 -168.52384766 257.53007813 -169.07421875 256.46484375 C-172.28197206 249.40520995 -172.18953606 240.08760102 -170.3984375 232.62109375 C-167.12602291 224.62185808 -160.67211337 217.43134088 -153.046875 213.32421875 C-144.84549898 210.02974804 -134.94465912 209.87567813 -126.609375 212.88671875 C-117.67190168 217.11791459 -111.49305897 224.01926569 -107.9375 233.18359375 C-105.02344451 243.45947365 -107.38864704 253.00776283 -112.046875 262.32421875 C-111.221875 262.50984375 -110.396875 262.69546875 -109.546875 262.88671875 C-102.34281639 265.84552853 -97.7673651 270.99829612 -94.0546875 277.72265625 C-92.6115597 281.44793965 -91.91352112 285.42431122 -91.046875 289.32421875 C-74.216875 289.32421875 -57.386875 289.32421875 -40.046875 289.32421875 C-39.386875 286.35421875 -38.726875 283.38421875 -38.046875 280.32421875 C-33.75243126 271.71014392 -27.22488508 266.09303356 -19.046875 261.32421875 C-19.32402344 260.7209375 -19.60117188 260.11765625 -19.88671875 259.49609375 C-20.24894531 258.696875 -20.61117187 257.89765625 -20.984375 257.07421875 C-21.34402344 256.2853125 -21.70367187 255.49640625 -22.07421875 254.68359375 C-25.29990812 246.85902999 -24.75473191 238.63811508 -22.08203125 230.70703125 C-18.4395862 222.3225351 -11.41922059 215.92197368 -3.046875 212.32421875 C-2.056875 212.32421875 -1.066875 212.32421875 -0.046875 212.32421875 C-0.06258545 211.29014893 -0.0782959 210.2560791 -0.09448242 209.19067383 C-0.14891554 205.34228348 -0.18327349 201.49392696 -0.21166992 197.64526367 C-0.22672614 195.98179394 -0.24717563 194.3183637 -0.27319336 192.6550293 C-0.30971707 190.25950353 -0.32663282 187.86450408 -0.33984375 185.46875 C-0.35532761 184.72897415 -0.37081146 183.9891983 -0.38676453 183.227005 C-0.38821932 178.73055597 0.14921742 175.87862375 2.953125 172.32421875 C6.31960425 170.07989925 7.40935146 170.07916715 11.3425293 170.09716797 C12.45881714 170.09740967 13.57510498 170.09765137 14.72521973 170.09790039 C15.89742065 170.10813232 17.06962158 170.11836426 18.27734375 170.12890625 C19.35552368 170.13092041 20.43370361 170.13293457 21.54455566 170.13500977 C25.57662198 170.14548303 29.60862771 170.17340556 33.640625 170.19921875 C42.65375 170.24046875 51.666875 170.28171875 60.953125 170.32421875 C60.953125 144.25421875 60.953125 118.18421875 60.953125 91.32421875 C51.713125 91.32421875 42.473125 91.32421875 32.953125 91.32421875 C33.1110892 99.70120751 33.1110892 99.70120751 33.31347656 108.07714844 C33.3234668 109.12290039 33.33345703 110.16865234 33.34375 111.24609375 C33.36469727 112.3144043 33.38564453 113.38271484 33.40722656 114.48339844 C32.84049422 118.02882724 31.75197561 119.14705415 28.953125 121.32421875 C23.96907508 122.98556872 18.79656565 122.55071226 13.578125 122.57421875 C12.44117188 122.59484375 11.30421875 122.61546875 10.1328125 122.63671875 C9.03453125 122.641875 7.93625 122.64703125 6.8046875 122.65234375 C5.80260254 122.66168945 4.80051758 122.67103516 3.76806641 122.68066406 C0.40028199 122.25421434 -1.38988137 121.43166777 -4.046875 119.32421875 C-4.706875 117.67421875 -5.366875 116.02421875 -6.046875 114.32421875 C-12.316875 114.32421875 -18.586875 114.32421875 -25.046875 114.32421875 C-25.376875 115.97421875 -25.706875 117.62421875 -26.046875 119.32421875 C-31.42155122 123.54652014 -38.10974641 122.76657241 -44.609375 122.69921875 C-46.29450195 122.71662109 -46.29450195 122.71662109 -48.01367188 122.734375 C-49.09841797 122.73050781 -50.18316406 122.72664063 -51.30078125 122.72265625 C-52.28377197 122.71927246 -53.2667627 122.71588867 -54.27954102 122.71240234 C-57.54315581 122.25460371 -59.40124694 121.26546722 -62.046875 119.32421875 C-64.64892384 115.42114549 -64.33454738 112.12444397 -64.3125 107.59765625 C-64.31441345 106.73540436 -64.3163269 105.87315247 -64.31829834 104.98477173 C-64.31965981 103.15732533 -64.31596601 101.32986924 -64.30761719 99.50244141 C-64.29699513 96.73056728 -64.30747299 93.95935289 -64.3203125 91.1875 C-64.31898937 89.40755067 -64.31642381 87.62760175 -64.3125 85.84765625 C-64.31654846 85.02856781 -64.32059692 84.20947937 -64.32476807 83.36557007 C-64.23565871 72.19259443 -61.48614733 62.74743498 -53.671875 54.51171875 C-50.41669412 51.43539396 -47.02714732 49.35496993 -43.046875 47.32421875 C-43.32402344 46.70675781 -43.60117188 46.08929688 -43.88671875 45.453125 C-48.01835268 35.79304141 -49.18107106 27.5319215 -46.046875 17.32421875 C-42.22503966 8.87723236 -36.96095417 2.97812126 -28.609375 -1.05078125 C-19.92436803 -4.21138012 -8.24975574 -4.48698547 0 0 Z " fill="#010100" transform="translate(187.046875,2.67578125)"/>
<path d="M0 0 C1.15452164 -0.01354271 1.15452164 -0.01354271 2.33236694 -0.02735901 C3.96128464 -0.04184757 5.59026035 -0.05074479 7.21923828 -0.05444336 C9.68234839 -0.06626899 12.14289237 -0.11540121 14.60546875 -0.16601562 C31.42492911 -0.35161704 31.42492911 -0.35161704 38.0859375 5.37109375 C43.69718625 11.20195665 44.70450361 17.36594244 44.66021729 25.18792725 C44.61278239 27.29165539 44.53772934 29.39325295 44.4609375 31.49609375 C44.43077374 32.94395441 44.40340931 34.39187622 44.37890625 35.83984375 C44.31347642 39.35155257 44.21032127 42.86092002 44.0859375 46.37109375 C43.52608154 46.38567627 42.96622559 46.40025879 42.3894043 46.4152832 C39.85005613 46.48980727 37.31201672 46.58644956 34.7734375 46.68359375 C33.89236328 46.70615234 33.01128906 46.72871094 32.10351562 46.75195312 C31.25595703 46.78740234 30.40839844 46.82285156 29.53515625 46.859375 C28.75487061 46.88555908 27.97458496 46.91174316 27.1706543 46.9387207 C24.55139001 47.48195961 23.67783271 48.24180909 22.0859375 50.37109375 C21.7559375 51.69109375 21.4259375 53.01109375 21.0859375 54.37109375 C14.4859375 54.37109375 7.8859375 54.37109375 1.0859375 54.37109375 C0.0959375 52.39109375 -0.8940625 50.41109375 -1.9140625 48.37109375 C-4.15053881 47.2528556 -5.56297779 47.17713314 -8.046875 47.0546875 C-8.85253906 47.01279297 -9.65820312 46.97089844 -10.48828125 46.92773438 C-11.75091797 46.86875977 -11.75091797 46.86875977 -13.0390625 46.80859375 C-14.31330078 46.74381836 -14.31330078 46.74381836 -15.61328125 46.67773438 C-17.71334473 46.57155139 -19.81368198 46.47080878 -21.9140625 46.37109375 C-22.0133588 41.78131337 -22.08572998 37.19216587 -22.13378906 32.6015625 C-22.15383472 31.04188131 -22.18107907 29.48227462 -22.21582031 27.92285156 C-22.26465376 25.67364061 -22.28710065 23.42542785 -22.3046875 21.17578125 C-22.32533264 20.48491425 -22.34597778 19.79404724 -22.36724854 19.08224487 C-22.36989581 13.29716189 -20.31123855 9.84018509 -16.3515625 5.76171875 C-10.73060623 1.30161215 -7.16681622 0.05225916 0 0 Z " fill="#61DAFA" transform="translate(110.9140625,450.62890625)"/>
<path d="M0 0 C1.11910515 -0.01354271 1.11910515 -0.01354271 2.26081848 -0.02735901 C3.83668025 -0.04182476 5.41260158 -0.05073909 6.98852539 -0.05444336 C9.37036674 -0.0662861 11.74956816 -0.11545481 14.13085938 -0.16601562 C30.47859912 -0.35230916 30.47859912 -0.35230916 37.20703125 5.37109375 C42.82076101 11.19784929 43.82558315 17.36845122 43.78131104 25.18792725 C43.73387614 27.29165539 43.65882309 29.39325295 43.58203125 31.49609375 C43.55186749 32.94395441 43.52450306 34.39187622 43.5 35.83984375 C43.43457017 39.35155257 43.33141502 42.86092002 43.20703125 46.37109375 C42.64717529 46.38567627 42.08731934 46.40025879 41.51049805 46.4152832 C38.97114988 46.48980727 36.43311047 46.58644956 33.89453125 46.68359375 C33.01345703 46.70615234 32.13238281 46.72871094 31.22460938 46.75195312 C30.37705078 46.78740234 29.52949219 46.82285156 28.65625 46.859375 C27.87596436 46.88555908 27.09567871 46.91174316 26.29174805 46.9387207 C23.67248376 47.48195961 22.79892646 48.24180909 21.20703125 50.37109375 C20.87703125 51.69109375 20.54703125 53.01109375 20.20703125 54.37109375 C13.60703125 54.37109375 7.00703125 54.37109375 0.20703125 54.37109375 C-0.78296875 52.39109375 -1.77296875 50.41109375 -2.79296875 48.37109375 C-5.02944506 47.2528556 -6.44188404 47.17713314 -8.92578125 47.0546875 C-9.73144531 47.01279297 -10.53710938 46.97089844 -11.3671875 46.92773438 C-12.62982422 46.86875977 -12.62982422 46.86875977 -13.91796875 46.80859375 C-15.19220703 46.74381836 -15.19220703 46.74381836 -16.4921875 46.67773438 C-18.59225098 46.57155139 -20.69258823 46.47080878 -22.79296875 46.37109375 C-22.89243795 41.94203652 -22.96471693 37.51358466 -23.01269531 33.08374023 C-23.03271238 31.57939313 -23.05993502 30.07512286 -23.09472656 28.57104492 C-23.1436882 26.39873213 -23.16603528 24.22745469 -23.18359375 22.0546875 C-23.20454102 20.75072021 -23.22548828 19.44675293 -23.24707031 18.10327148 C-22.58838241 12.68963603 -20.24999036 8.00360654 -15.85546875 4.55859375 C-10.6318176 0.82741436 -6.33752131 0.04797569 0 0 Z " fill="#A1E52D" transform="translate(161.79296875,62.62890625)"/>
<path d="M0 0 C0.87078186 -0.00570007 1.74156372 -0.01140015 2.63873291 -0.01727295 C4.48472883 -0.02672943 6.33074168 -0.0332595 8.17675781 -0.03710938 C10.99053802 -0.0467887 13.80357963 -0.07779469 16.6171875 -0.109375 C18.411454 -0.11590777 20.20572572 -0.12115716 22 -0.125 C22.83770935 -0.1373468 23.6754187 -0.1496936 24.53851318 -0.16241455 C30.38354 -0.14031979 34.71475824 0.80199465 39.12890625 4.95703125 C39.60714844 5.55386719 40.08539063 6.15070313 40.578125 6.765625 C41.31482422 7.66474609 41.31482422 7.66474609 42.06640625 8.58203125 C44.69702419 12.13807831 44.39416365 15.35987572 44.36328125 19.6171875 C44.3618663 20.34682709 44.36045135 21.07646667 44.35899353 21.82821655 C44.35339031 24.16156085 44.34083735 26.49480964 44.328125 28.828125 C44.32311041 30.40885278 44.31854743 31.98958207 44.31445312 33.5703125 C44.30341984 37.44795354 44.28615311 41.32552307 44.265625 45.203125 C43.08484375 45.24050781 41.9040625 45.27789062 40.6875 45.31640625 C39.13017712 45.38207649 37.57288686 45.44852347 36.015625 45.515625 C35.23832031 45.53818359 34.46101563 45.56074219 33.66015625 45.58398438 C30.2630076 45.7436794 27.82793124 45.9104782 24.78125 47.49609375 C23.07512836 49.41767921 22.79448305 50.73246587 22.265625 53.203125 C19.01630573 53.37767521 15.76819052 53.48404253 12.515625 53.578125 C11.59523438 53.62839844 10.67484375 53.67867188 9.7265625 53.73046875 C7.11084953 53.78733208 4.82079218 53.77434682 2.265625 53.203125 C-0.25 50.2421875 -0.25 50.2421875 -1.734375 47.203125 C-5.03397641 45.5533243 -8.72565384 45.82054139 -12.359375 45.640625 C-13.56207031 45.57584961 -13.56207031 45.57584961 -14.7890625 45.50976562 C-16.7706261 45.40361043 -18.75247771 45.30285645 -20.734375 45.203125 C-20.80900228 40.91645764 -20.86320008 36.63014293 -20.89916992 32.34301758 C-20.91417813 30.88722132 -20.93459133 29.43146968 -20.96069336 27.97583008 C-20.99743176 25.87309711 -21.0141806 23.77096615 -21.02734375 21.66796875 C-21.0430542 20.405896 -21.05876465 19.14382324 -21.07495117 17.84350586 C-20.61756702 12.95457752 -19.32106212 8.97710481 -15.98046875 5.2421875 C-15.38363281 4.77554687 -14.78679687 4.30890625 -14.171875 3.828125 C-13.57246094 3.34601563 -12.97304688 2.86390625 -12.35546875 2.3671875 C-8.47305151 -0.42066873 -4.60829724 0.02315507 0 0 Z " fill="#A1E52D" transform="translate(304.734375,277.796875)"/>
<path d="M0 0 C0.75127167 -0.00807175 1.50254333 -0.01614349 2.27658081 -0.02445984 C3.86860866 -0.03828536 5.46066595 -0.04901437 7.05273438 -0.05688477 C8.66838364 -0.06836506 10.28399617 -0.08875398 11.89941406 -0.1184082 C31.2814575 -0.4740238 31.2814575 -0.4740238 37.92993164 5.6862793 C48.53435089 17.65791723 43.3671875 27.54795905 43.3671875 46.23828125 C21.5871875 46.23828125 -0.1928125 46.23828125 -22.6328125 46.23828125 C-22.6328125 11.28434651 -22.6328125 11.28434651 -16.59765625 5.1796875 C-15.92863281 4.72464844 -15.25960938 4.26960938 -14.5703125 3.80078125 C-13.89871094 3.32769531 -13.22710937 2.85460937 -12.53515625 2.3671875 C-8.48064887 -0.0388754 -4.56625144 0.04672701 0 0 Z " fill="#FDCF5A" transform="translate(453.6328125,450.76171875)"/>
<path d="M0 0 C0.79187714 -0.01140015 1.58375427 -0.02280029 2.39962769 -0.0345459 C4.07560923 -0.05341302 5.75166441 -0.06650085 7.42773438 -0.07421875 C9.96360074 -0.09353228 12.49615125 -0.15554536 15.03125 -0.21875 C24.56726533 -0.3496028 31.34819126 -0.1320076 38.8671875 6.40625 C43.8671875 16.40625 43.8671875 16.40625 43.8671875 46.40625 C22.0871875 46.40625 0.3071875 46.40625 -22.1328125 46.40625 C-22.1328125 11.52625 -22.1328125 11.52625 -16.5703125 5.796875 C-10.88391375 1.28484121 -7.25093553 0.08138126 0 0 Z " fill="#FED05A" transform="translate(306.1328125,450.59375)"/>
<path d="M0 0 C0.75364334 -0.00807175 1.50728668 -0.01614349 2.2837677 -0.02445984 C3.87999179 -0.03828375 5.47624523 -0.04901348 7.07250977 -0.05688477 C8.6949945 -0.06837797 10.31744222 -0.08878769 11.93969727 -0.1184082 C30.02043348 -0.44842266 30.02043348 -0.44842266 37.390625 6.0546875 C38.07318359 6.91900391 38.07318359 6.91900391 38.76953125 7.80078125 C39.24261719 8.37957031 39.71570313 8.95835938 40.203125 9.5546875 C46.87404262 19.50335702 42.33203125 39.31570114 42.33203125 46.23828125 C20.55203125 46.23828125 -1.22796875 46.23828125 -23.66796875 46.23828125 C-23.66796875 15.23828125 -23.66796875 15.23828125 -19.66796875 7.23828125 C-17.4140625 5.1796875 -17.4140625 5.1796875 -15.10546875 3.80078125 C-14.34105469 3.32769531 -13.57664062 2.85460937 -12.7890625 2.3671875 C-8.54838106 0.11017657 -4.68546548 0.04773948 0 0 Z " fill="#FB7E85" transform="translate(330.66796875,62.76171875)"/>
<path d="M0 0 C0.83535278 -0.00241196 1.67070557 -0.00482391 2.53137207 -0.00730896 C4.28610004 -0.00633557 6.04086068 0.0069359 7.79541016 0.03198242 C10.46233747 0.06632368 13.12594939 0.05260767 15.79296875 0.03320312 C17.50782643 0.04010237 19.22267565 0.04977547 20.9375 0.0625 C21.72419067 0.05754013 22.51088135 0.05258026 23.32141113 0.04747009 C29.67542607 0.18085623 35.2032676 1.89865292 39.80859375 6.4453125 C40.35193359 7.30962891 40.35193359 7.30962891 40.90625 8.19140625 C41.28652344 8.77019531 41.66679688 9.34898437 42.05859375 9.9453125 C47.72325238 20.42371538 43.96875 33.71734529 43.96875 45.62890625 C22.18875 45.62890625 0.40875 45.62890625 -22.03125 45.62890625 C-22.03125 13.62890625 -22.03125 13.62890625 -17.03125 5.62890625 C-12.03703047 0.81119834 -6.71578461 -0.11318207 0 0 Z " fill="#61DAFA" transform="translate(37.03125,277.37109375)"/>
<path d="M0 0 C2.65821281 0.04732434 5.31241775 0.04108419 7.97094727 0.02783203 C9.68125733 0.03898507 11.39155073 0.05320456 13.10180664 0.07080078 C14.27713707 0.06806656 14.27713707 0.06806656 15.47621155 0.0652771 C21.3480905 0.21430297 25.16010958 1.40242459 30.09790039 4.67236328 C36.09790039 13.67236328 36.09790039 13.67236328 36.09790039 45.67236328 C14.31790039 45.67236328 -7.46209961 45.67236328 -29.90209961 45.67236328 C-29.90209961 11.62986292 -29.90209961 11.62986292 -24.23046875 4.60058594 C-16.9729351 -0.83230006 -8.66802365 -0.16522743 0 0 Z " fill="#FDCF5A" transform="translate(460.902099609375,277.32763671875)"/>
<path d="M0 0 C1.9204309 -0.02152877 3.84076503 -0.05557065 5.76074219 -0.10253906 C8.5382035 -0.16984388 11.31363293 -0.1970518 14.09179688 -0.21606445 C15.36568771 -0.25781044 15.36568771 -0.25781044 16.66531372 -0.30039978 C23.21738814 -0.27806141 27.12592019 1.81779174 31.77148438 6.4050293 C40.63944092 16.8171124 35.77148438 33.3365367 35.77148438 45.4050293 C14.32148438 45.4050293 -7.12851563 45.4050293 -29.22851562 45.4050293 C-29.31101563 40.0837793 -29.39351562 34.7625293 -29.47851562 29.2800293 C-29.51493164 27.61182129 -29.55134766 25.94361328 -29.58886719 24.22485352 C-29.60056149 22.88648766 -29.61075156 21.54810745 -29.61914062 20.2097168 C-29.63960449 19.5278833 -29.66006836 18.8460498 -29.68115234 18.14355469 C-29.68535491 12.32510444 -27.62965119 8.82339789 -23.59570312 4.76049805 C-16.28295709 -0.96335291 -8.96241006 0.07550022 0 0 Z " fill="#FC7F86" transform="translate(192.228515625,277.594970703125)"/>
<path d="M0 0 C3.47207371 1.9005742 5.63204551 3.95795463 7.8125 7.3125 C8.225 7.93125 8.6375 8.55 9.0625 9.1875 C10.74001249 13.94045204 10.18858897 18.01357377 8.125 22.5 C5.72646861 26.86634059 2.83498138 29.24803612 -1.5625 31.5625 C-5.72752664 32.75250761 -9.20267143 33.17853943 -13.2734375 31.40234375 C-18.80892477 28.2024617 -22.13325102 24.47524694 -24.1875 18.3125 C-24.58514225 13.0437402 -24.11177667 9.74608076 -21.1875 5.3125 C-14.94820469 -1.00054585 -8.69742182 -4.02418025 0 0 Z " fill="#F8CDA0" transform="translate(55.1875,230.6875)"/>
<path d="M0 0 C5.11495804 1.93985654 8.97535149 5.09814815 11.37109375 10.05078125 C12.84303696 14.61289096 12.90386507 18.73633792 11.1171875 23.2109375 C8.44318739 27.97455358 5.31042177 31.39891778 0 33 C-5.33506866 33.82622745 -10.26165331 33.96639736 -14.9375 31 C-19.5704297 27.05755502 -21.71742895 22.34130296 -22.4375 16.375 C-21.5740639 9.71420725 -18.63726146 6.30924003 -13.62109375 2.19921875 C-9.44870068 -0.88734673 -5.00452557 -0.63654053 0 0 Z " fill="#F8CDA0" transform="translate(469,403)"/>
<path d="M0 0 C4.76574648 2.66139089 8.1588566 5.82284318 9.79296875 11.11328125 C10.56208842 16.16062911 10.40463476 19.88994923 8.10546875 24.48828125 C4.5716497 28.49964341 1.06638848 31.79492632 -4.20703125 33.11328125 C-9.93318351 33.30775435 -14.30589174 32.19951036 -18.765625 28.546875 C-22.65424693 24.67932961 -23.41429824 20.92302996 -23.64453125 15.61328125 C-23.47614467 10.64250953 -22.7320202 7.81451965 -19.20703125 4.11328125 C-13.37211767 -0.83915105 -7.35372572 -2.95450573 0 0 Z " fill="#F9CEA0" transform="translate(202.20703125,229.88671875)"/>
<path d="M0 0 C4.86182377 2.43091188 7.80741607 5.71281586 11 10 C12.70108067 15.10324201 12.56521247 19.31873434 10.3125 24.1875 C8.05618336 28.33077184 5.23077385 30.88461307 1 33 C-4.53042052 33.50502343 -9.41030524 33.73807257 -14.5 31.375 C-18.97453074 27.1241958 -21.64930738 22.98088728 -22.375 16.8125 C-21.77232327 10.68528656 -18.82405568 6.69376599 -14.375 2.5625 C-9.81191506 -0.43952956 -5.30474396 -0.64603228 0 0 Z " fill="#F9CEA0" transform="translate(469,229)"/>
<path d="M0 0 C4.6845922 2.02167762 7.5000611 4.70737964 9.9609375 9.171875 C11.87999446 14.20939951 11.4148212 18.62411027 9.6796875 23.63671875 C7.06774876 27.46756224 4.00145121 30.2883369 -0.1953125 32.38671875 C-5.79876543 32.98192619 -11.40881105 33.50826049 -16.2578125 30.26171875 C-20.01616041 26.96170595 -21.90504632 23.81769805 -22.5078125 18.76953125 C-22.76710813 12.78952579 -22.35429676 8.99532293 -18.1953125 4.38671875 C-12.43725291 -0.68585756 -7.53908913 -2.10611565 0 0 Z " fill="#F9CEA1" transform="translate(346.1953125,15.61328125)"/>
<path d="M0 0 C4.59747159 2.41194976 7.70472473 5.65554321 10.01171875 10.26953125 C10.73082671 17.37809026 10.52564763 22.59818471 6.01171875 28.26953125 C1.02212208 32.24084289 -3.06554499 32.90798584 -9.40234375 32.65625 C-14.39486342 31.90963452 -17.02711069 29.33461215 -20.30078125 25.70703125 C-23.44485893 21.16558571 -23.7422046 16.62498676 -22.98828125 11.26953125 C-20.99491108 6.17436984 -17.89291595 2.30570119 -12.94140625 -0.10546875 C-8.56331037 -1.50645943 -4.33350642 -1.59207407 0 0 Z " fill="#FACEA1" transform="translate(177.98828125,15.73046875)"/>
<path d="M0 0 C5.05494822 2.19491173 8.80111983 5.14483549 10.890625 10.33984375 C11.91484104 15.96463676 11.61263167 20.82060796 8.765625 25.83984375 C6.20218061 29.30510929 4.12232935 31.10880248 -0.109375 32.33984375 C-5.25976348 33.10985952 -9.95806011 33.57786458 -14.59375 30.91015625 C-18.56963391 27.52920387 -21.62574473 24.3332606 -22.48046875 19.04296875 C-22.65585548 12.56397673 -21.53511784 8.19027908 -17.109375 3.33984375 C-12.02904536 -1.02529386 -6.2902493 -1.96861506 0 0 Z " fill="#FACEA1" transform="translate(322.109375,229.66015625)"/>
<path d="M0 0 C4.0232987 3.88849745 6.14822266 7.15224643 6.25 12.75 C6.17518853 17.94939683 5.35900294 21.62810633 1.5703125 25.4375 C-3.32511377 29.72404241 -7.21431302 30.35440029 -13.49609375 30.28125 C-18.45046555 29.7247527 -21.13925306 26.97706409 -24.3125 23.375 C-27.78352499 18.48985372 -27.82260684 13.86898345 -27 8 C-24.8410895 3.26581769 -22.02802185 0.59812181 -17.5625 -2 C-10.86541823 -3.8798826 -6.10866303 -3.39370168 0 0 Z " fill="#FACFA1" transform="translate(327,406)"/>
<path d="M0 0 C3.62494844 3.11914168 7.42502344 6.50601982 7.890625 11.484375 C7.98842989 16.86364421 7.86786227 20.75398074 4.6875 25.3125 C0.48408918 29.53888028 -3.15195419 31.45067147 -9.125 31.625 C-13.9786481 31.56848008 -16.59419946 30.58814572 -20.3125 27.3125 C-24.18745559 23.12335882 -25.14238739 20.56649204 -25.5625 15 C-25.18148844 9.38007943 -23.62840947 5.18480759 -19.375 1.4375 C-13.55285824 -2.60235347 -6.34896755 -3.2343797 0 0 Z " fill="#FBCFA2" transform="translate(130.3125,404.6875)"/>
<path d="M0 0 C4.81968303 -0.0996515 9.63875277 -0.17183311 14.45922852 -0.21972656 C16.09540264 -0.23971332 17.73150651 -0.26691243 19.36743164 -0.30175781 C38.92264775 -0.70754197 38.92264775 -0.70754197 45.56201172 5.44824219 C50.21889247 10.70190461 51.25048658 14.43869145 51.1953125 21.390625 C51.1924826 22.09523865 51.18965271 22.79985229 51.18673706 23.52581787 C51.17557801 25.7673876 51.15048193 28.00855186 51.125 30.25 C51.11496464 31.77343171 51.10583976 33.29686971 51.09765625 34.8203125 C51.07735754 38.54715536 51.03820258 42.27312596 51 46 C44.73 46 38.46 46 32 46 C31.97421875 43.72222656 31.9484375 41.44445312 31.921875 39.09765625 C31.88333532 36.86340586 31.83821414 34.62937706 31.79248047 32.39526367 C31.76445558 30.85631088 31.74315014 29.3172191 31.72900391 27.77807617 C31.81577535 13.75795721 31.81577535 13.75795721 25 2 C22.3817233 1.62826984 22.3817233 1.62826984 19.3359375 1.5859375 C18.21445312 1.54726563 17.09296875 1.50859375 15.9375 1.46875 C14.761875 1.4378125 13.58625 1.406875 12.375 1.375 C10.59996094 1.31699219 10.59996094 1.31699219 8.7890625 1.2578125 C5.85953309 1.16331155 2.93001403 1.07775442 0 1 C0 0.67 0 0.34 0 0 Z " fill="#F9BF43" transform="translate(446,451)"/>
<path d="M0 0 C4.94375668 -0.12468733 9.88657507 -0.2148439 14.83154297 -0.2746582 C16.50943977 -0.29962211 18.18722986 -0.33360619 19.86474609 -0.37719727 C39.21881882 -0.86710083 39.21881882 -0.86710083 46 5 C51.60959191 10.83354628 52.61857549 16.99319183 52.57427979 24.8168335 C52.52684489 26.92056164 52.45179184 29.0221592 52.375 31.125 C52.34483624 32.57286066 52.31747181 34.02078247 52.29296875 35.46875 C52.23267356 38.98194989 52.11526729 42.48648216 52 46 C45.73 46 39.46 46 33 46 C32.96261719 43.86660156 32.92523438 41.73320312 32.88671875 39.53515625 C32.8403398 37.43992597 32.78916638 35.34486288 32.73754883 33.24975586 C32.70455407 31.8078043 32.67644523 30.36573148 32.65356445 28.92358398 C32.72181832 14.37329431 32.72181832 14.37329431 26 2 C23.20443095 1.35670908 23.20443095 1.35670908 20.01953125 1.390625 C18.85615234 1.35839844 17.69277344 1.32617188 16.49414062 1.29296875 C14.67172852 1.27169922 14.67172852 1.27169922 12.8125 1.25 C11.58595703 1.22035156 10.35941406 1.19070313 9.09570312 1.16015625 C6.06373547 1.08937101 3.03254067 1.03671587 0 1 C0 0.67 0 0.34 0 0 Z " fill="#02C8F1" transform="translate(103,451)"/>
<path d="M0 0 C5.08613544 -0.14956966 10.17096042 -0.25778195 15.25878906 -0.32958984 C16.98525319 -0.35955647 18.71156778 -0.40034571 20.4375 -0.45263672 C38.379752 -0.98218235 38.379752 -0.98218235 45.11499023 4.07421875 C51.32155128 10.4150235 52.51976579 16.80054405 52.47897339 25.53118896 C52.43905632 27.56316814 52.37650802 29.59365121 52.3125 31.625 C52.28736056 33.0246993 52.26455743 34.4244426 52.24414062 35.82421875 C52.18565099 39.21661776 52.09598713 42.60845484 52 46 C45.73 46 39.46 46 33 46 C32.94392578 42.92558594 32.94392578 42.92558594 32.88671875 39.7890625 C32.83798265 37.76999546 32.78914278 35.75092963 32.73754883 33.73193359 C32.70461081 32.34532345 32.6764856 30.95858923 32.65356445 29.57177734 C32.73740591 14.68759482 32.73740591 14.68759482 26 2 C23.20443095 1.35670908 23.20443095 1.35670908 20.01953125 1.390625 C18.85615234 1.35839844 17.69277344 1.32617188 16.49414062 1.29296875 C14.67172852 1.27169922 14.67172852 1.27169922 12.8125 1.25 C11.58595703 1.22035156 10.35941406 1.19070313 9.09570312 1.16015625 C6.06373547 1.08937101 3.03254067 1.03671587 0 1 C0 0.67 0 0.34 0 0 Z " fill="#F5BB41" transform="translate(298,451)"/>
<path d="M0 0 C4.83799361 -0.09951569 9.67538025 -0.17177037 14.51416016 -0.21972656 C16.1571695 -0.23973571 17.80010859 -0.26695213 19.44287109 -0.30175781 C21.81625788 -0.35075305 24.18869649 -0.37307504 26.5625 -0.390625 C27.64893799 -0.42159271 27.64893799 -0.42159271 28.75732422 -0.45318604 C35.12493967 -0.45593386 40.26827605 1.58965534 45.05859375 5.81640625 C45.74115234 6.68072266 45.74115234 6.68072266 46.4375 7.5625 C46.91058594 8.14128906 47.38367188 8.72007813 47.87109375 9.31640625 C50.40785806 13.09960839 50.13054194 16.93174941 50.09765625 21.29296875 C50.0962413 21.99899734 50.09482635 22.70502594 50.09336853 23.43244934 C50.08777764 25.68417626 50.07522688 27.93580321 50.0625 30.1875 C50.05748382 31.71549335 50.05292112 33.24348827 50.04882812 34.77148438 C50.0386627 38.51439228 50.01908569 42.25708443 50 46 C43.73 46 37.46 46 31 46 C30.97421875 43.6384375 30.9484375 41.276875 30.921875 38.84375 C30.88336159 36.53341214 30.83823176 34.2232905 30.79248047 31.91308594 C30.76441418 30.31879153 30.74312887 28.72436168 30.72900391 27.12988281 C30.86804776 13.42729769 30.86804776 13.42729769 24 2 C21.47962036 1.62864085 21.47962036 1.62864085 18.5546875 1.5859375 C16.94013672 1.52792969 16.94013672 1.52792969 15.29296875 1.46875 C14.16503906 1.4378125 13.03710938 1.406875 11.875 1.375 C10.17150391 1.31699219 10.17150391 1.31699219 8.43359375 1.2578125 C5.62256044 1.16332399 2.81153767 1.07776459 0 1 C0 0.67 0 0.34 0 0 Z " fill="#F7626D" transform="translate(323,63)"/>
<path d="M0 0 C4.80133868 -0.12473502 9.60170955 -0.21486503 14.40429688 -0.2746582 C16.03369603 -0.29961442 17.66298542 -0.33359254 19.29199219 -0.37719727 C38.15599935 -0.86905021 38.15599935 -0.86905021 45 5 C50.61180144 10.82989515 51.61856286 16.9954232 51.57427979 24.8168335 C51.52684489 26.92056164 51.45179184 29.0221592 51.375 31.125 C51.34483624 32.57286066 51.31747181 34.02078247 51.29296875 35.46875 C51.23267356 38.98194989 51.11526729 42.48648216 51 46 C44.73 46 38.46 46 32 46 C31.96261719 43.7828125 31.92523438 41.565625 31.88671875 39.28125 C31.84037394 37.10993144 31.78918789 34.93877649 31.73754883 32.76757812 C31.70450134 31.27028528 31.67640798 29.7728739 31.65356445 28.27539062 C31.71101391 14.08319143 31.71101391 14.08319143 25 2 C22.30267111 1.35750537 22.30267111 1.35750537 19.23828125 1.390625 C18.12001953 1.35839844 17.00175781 1.32617188 15.84960938 1.29296875 C14.68236328 1.27878906 13.51511719 1.26460938 12.3125 1.25 C11.13365234 1.22035156 9.95480469 1.19070312 8.74023438 1.16015625 C5.82675368 1.08938344 2.91407664 1.03672275 0 1 C0 0.67 0 0.34 0 0 Z " fill="#91CF27" transform="translate(154,63)"/>
<path d="M0 0 C7.53340564 -0.45200434 13.84006196 -0.74546326 20 4 C25.01272581 8.9623913 26.52405722 13.9294494 26.5859375 20.87890625 C26.56794607 23.77612959 26.47663477 26.66718761 26.375 29.5625 C26.34484865 31.06309726 26.31748198 32.56375318 26.29296875 34.06445312 C26.23254069 37.71229356 26.11513716 41.35185784 26 45 C19.73 45 13.46 45 7 45 C6.98582031 42.73382813 6.97164063 40.46765625 6.95703125 38.1328125 C6.92629894 35.90512876 6.88724007 33.67773289 6.84741211 31.45019531 C6.82440778 29.9180745 6.80987816 28.38579949 6.80444336 26.85351562 C6.76501887 17.56146633 6.23494098 10.01672465 1 2 C0.67 1.34 0.34 0.68 0 0 Z " fill="#FDC243" transform="translate(471,278)"/>
<path d="M0 0 C7.39253256 -0.44355195 13.96780383 -0.80341547 20 4 C24.90214156 9.39235572 26.12740933 13.78471336 26.09765625 21.07421875 C26.0962413 21.7580513 26.09482635 22.44188385 26.09336853 23.1464386 C26.08777876 25.32683722 26.07522822 27.50713251 26.0625 29.6875 C26.05748367 31.16731622 26.052921 32.64713406 26.04882812 34.12695312 C26.0386643 37.75137376 26.0190871 41.37557144 26 45 C19.73 45 13.46 45 7 45 C6.98582031 42.73382813 6.97164062 40.46765625 6.95703125 38.1328125 C6.92629894 35.90512876 6.88724007 33.67773289 6.84741211 31.45019531 C6.82440778 29.9180745 6.80987816 28.38579949 6.80444336 26.85351562 C6.76501887 17.56146633 6.23494098 10.01672465 1 2 C0.67 1.34 0.34 0.68 0 0 Z " fill="#01CDF8" transform="translate(55,278)"/>
<path d="M0 0 C13.156712 -0.57480781 13.156712 -0.57480781 18 3 C23.34894128 8.46274854 25.1533892 11.73096238 25.09765625 19.4140625 C25.0962413 20.14370209 25.09482635 20.87334167 25.09336853 21.62509155 C25.08776531 23.95843585 25.07521235 26.29168464 25.0625 28.625 C25.05748541 30.20572778 25.05292243 31.78645707 25.04882812 33.3671875 C25.03864517 37.24485818 25.01907055 41.12232202 25 45 C19.06 45.33 13.12 45.66 7 46 C6.96132813 42.70902344 6.96132813 42.70902344 6.921875 39.3515625 C6.88330716 37.19339945 6.83819529 35.03546356 6.79248047 32.87744141 C6.76449994 31.39383042 6.74317306 29.9100767 6.72900391 28.42626953 C6.63993674 19.62049597 6.17267956 11.968686 2 4 C1.62713867 3.25314941 1.25427734 2.50629883 0.87011719 1.73681641 C0.43940918 0.87709229 0.43940918 0.87709229 0 0 Z " fill="#96D628" transform="translate(324,278)"/>
<path d="M0 0 C13.62122707 -1.03307059 13.62122707 -1.03307059 18.6875 2.75 C22.35381601 5.9692043 25.1159297 9.13197909 26 14 C26.08220526 16.38943295 26.10745472 18.78104847 26.09765625 21.171875 C26.0962413 21.8542926 26.09482635 22.53671021 26.09336853 23.23980713 C26.08779084 25.40991684 26.07524254 27.5799217 26.0625 29.75 C26.05748211 31.22525892 26.05291971 32.70051947 26.04882812 34.17578125 C26.03868148 37.78392663 26.01910199 41.39184655 26 45 C20.06 45 14.12 45 8 45 C7.97421875 42.87820313 7.9484375 40.75640625 7.921875 38.5703125 C7.88329987 36.48164434 7.83819047 34.39321032 7.79248047 32.3046875 C7.76451136 30.86958271 7.74317897 29.43433076 7.72900391 27.99902344 C7.61867146 17.4512414 6.74224759 8.561546 0 0 Z " fill="#FD636E" transform="translate(202,278)"/>
</svg>
