<?xml version="1.0" encoding="UTF-8"?>
<svg version="1.1" xmlns="http://www.w3.org/2000/svg" width="512" height="512">
<path d="M0 0 C2.97206826 -0.32941669 5.7410347 -0.46092447 8.71940613 -0.46842957 C9.63341432 -0.48228189 10.54742252 -0.49613422 11.48912793 -0.51040632 C14.57112853 -0.55302281 17.65288686 -0.57381677 20.73510742 -0.59448242 C22.9376499 -0.61981519 25.14018 -0.64624383 27.34269714 -0.6736908 C34.59682437 -0.75765748 41.85102153 -0.80843549 49.10546875 -0.85546875 C51.60324925 -0.87285912 54.10102973 -0.89025224 56.5988102 -0.90764809 C66.99491824 -0.97733411 77.39102397 -1.03824201 87.78730297 -1.07538891 C90.48637633 -1.08519728 93.1854492 -1.09512361 95.88452148 -1.10522461 C96.8907414 -1.1089753 96.8907414 -1.1089753 97.917289 -1.11280177 C108.75868004 -1.15502072 119.59840172 -1.26244078 130.43900128 -1.39685126 C141.58213483 -1.53387074 152.72457763 -1.60847573 163.86856538 -1.62742692 C170.12057158 -1.63966473 176.36970487 -1.67849352 182.62090111 -1.78337669 C188.51298515 -1.88085115 194.40051753 -1.90130034 200.29324532 -1.86460304 C202.44633862 -1.86421728 204.59964752 -1.89085333 206.75199127 -1.94766235 C223.79792037 -2.37294087 223.79792037 -2.37294087 230.51314735 3.48050499 C233.80731232 6.78254024 236.69127679 10.32641609 239.48558962 14.05541074 C241.71057411 16.91241766 244.21334021 19.35575944 246.8125 21.875 C248.11380859 23.16470703 248.11380859 23.16470703 249.44140625 24.48046875 C250.28574219 25.31191406 251.13007813 26.14335938 252 27 C257.2820933 32.20430106 262.43997282 37.41335026 267.26660156 43.04394531 C270.46558911 46.65384507 273.93424174 49.99760746 277.375 53.375 C278.80175991 54.77632747 280.22635507 56.1798635 281.6484375 57.5859375 C282.26895996 58.1948584 282.88948242 58.8037793 283.52880859 59.43115234 C286.0491468 62.11878814 286.10806844 63.87778418 286.01690674 67.44967651 C285.98606743 68.85398674 285.98606743 68.85398674 285.9546051 70.28666687 C285.92736862 71.31725723 285.90013214 72.3478476 285.87207031 73.40966797 C285.82265475 75.65556494 285.77439013 77.90148744 285.72711182 80.14743042 C285.70135323 81.34347775 285.67559464 82.53952507 285.64905548 83.77181625 C285.50308725 91.42798916 285.44814346 99.08539473 285.3852272 106.7426281 C285.32649636 113.47258074 285.22900843 120.19804028 285.04345703 126.92578125 C284.86814913 133.43272 284.79649205 139.93356814 284.79433441 146.44278336 C284.77532195 148.91750288 284.71937172 151.39223655 284.62503815 153.86523056 C284.08874734 165.19982991 284.08874734 165.19982991 287 176 C292.03495864 181.40366409 298.66975222 184.22827673 305.42383003 186.92500687 C309.13495091 188.47359625 312.52336284 190.4662372 315.96484375 192.53125 C317.14351275 193.20604959 318.32384282 193.8779565 319.50585938 194.546875 C321.20452148 195.51367188 321.20452148 195.51367188 322.9375 196.5 C323.53167725 196.83708984 324.12585449 197.17417969 324.73803711 197.52148438 C326.50231174 198.52269414 328.26496548 199.52670684 330.02734375 200.53125 C331.03531006 201.10423828 332.04327637 201.67722656 333.08178711 202.26757812 C334.04479736 202.83927734 335.00780762 203.41097656 336 204 C337.03516786 204.49881085 338.07033571 204.99762171 339.13687229 205.51154804 C342.2193503 208.1906456 342.42555198 208.43761908 342.74108028 212.22194958 C342.76763152 213.9969907 342.76074307 215.77271079 342.72825623 217.5476532 C342.73408834 218.52633435 342.73992046 219.50501549 342.7459293 220.51335365 C342.75818184 223.80210919 342.72746025 227.08906828 342.69702148 230.37768555 C342.69696612 232.73130423 342.69953679 235.08492424 342.70454407 237.4385376 C342.71054877 243.83718634 342.67932182 250.23517863 342.64129519 256.63369727 C342.60819541 262.6413257 342.60764187 268.64901763 342.60396302 274.65672062 C342.59570855 286.5574827 342.5599258 298.45799926 342.50756836 310.35864258 C342.45676411 321.91658676 342.42137202 333.47442482 342.4050293 345.0324707 C342.40401836 345.74474635 342.40300742 346.457022 342.40196585 347.19088175 C342.39794627 350.05358151 342.39398381 352.91628135 342.39010939 355.77898131 C342.3721822 368.77324606 342.34120493 381.7674838 342.30859375 394.76171875 C342.30538445 396.09757223 342.30218098 397.43342573 342.29898334 398.76927924 C342.28020978 406.35626137 342.25590162 413.94318691 342.22286797 421.53012085 C342.21351577 423.83404227 342.20585362 426.13797122 342.19995499 428.44190407 C342.19155452 431.57241019 342.1769817 434.70282454 342.16062927 437.83329773 C342.15885946 439.21974071 342.15885946 439.21974071 342.15705389 440.63419265 C342.11429368 446.88570632 342.11429368 446.88570632 341 448 C338.88990949 448.09887648 336.77643782 448.12555726 334.66403198 448.12584114 C333.99120501 448.12729458 333.31837803 448.12874802 332.62516236 448.13024551 C330.34237138 448.13393119 328.0596461 448.13040729 325.77685547 448.12698364 C324.13503421 448.12813445 322.4932132 448.1297217 320.85139275 448.13171089 C316.31774941 448.13590978 311.78412695 448.13381101 307.25048351 448.13072467 C302.36972597 448.12847305 297.48897215 448.13194899 292.60821533 448.13470459 C283.0381068 448.13916385 273.46800609 448.13818513 263.89789724 448.13529195 C256.12380503 448.13303852 248.34971501 448.13272513 240.57562256 448.13381577 C239.471453 448.133969 238.36728344 448.13412223 237.22965419 448.13428011 C234.98693546 448.13459982 232.74421672 448.13492403 230.50149798 448.1352527 C209.44472788 448.13810795 188.38796212 448.13481977 167.33119273 448.12945233 C149.24227735 448.12498425 131.15336839 448.12576017 113.06445312 448.13037109 C92.08581245 448.13571607 71.10717558 448.13783325 50.12853432 448.13475883 C47.89381536 448.13444026 45.6590964 448.13412589 43.42437744 448.13381577 C42.32469725 448.13366149 41.22501707 448.13350721 40.09201324 448.13334826 C32.3223886 448.13248288 24.55276636 448.13394645 16.78314209 448.13629532 C7.32156206 448.13909267 -2.14000966 448.13835644 -11.60158873 448.13301457 C-16.43401007 448.13037667 -21.26641755 448.12937399 -26.09883881 448.13266373 C-30.51520363 448.13562488 -34.93154161 448.13403693 -39.34790397 448.12868617 C-40.9528608 448.12756121 -42.55781986 448.12815491 -44.16277528 448.13056196 C-46.32989394 448.13356494 -48.49691841 448.13052254 -50.66403198 448.12584114 C-51.87213972 448.12567879 -53.08024746 448.12551644 -54.32496452 448.12534916 C-57 448 -57 448 -58 447 C-58.13582875 443.95130175 -58.20586509 440.92412106 -58.23464966 437.87367249 C-58.2474987 436.9039047 -58.26034775 435.93413692 -58.27358615 434.93498224 C-58.31531088 431.65859992 -58.34944712 428.3821854 -58.38330078 425.10571289 C-58.41082684 422.76713829 -58.43856198 420.42856615 -58.4664917 418.08999634 C-58.712036 396.7109905 -58.85165658 375.33088303 -58.96293831 353.95079899 C-58.97810581 351.08788461 -58.99356336 348.22497197 -59.00927734 345.36206055 C-59.01317112 344.65049222 -59.0170649 343.9389239 -59.02107666 343.2057929 C-59.08589979 331.69169454 -59.21369553 320.17914046 -59.36573304 308.66589994 C-59.52055082 296.84369082 -59.61062379 285.02228433 -59.64017475 273.1990909 C-59.65855172 266.56105938 -59.70819846 259.92565374 -59.82797623 253.28856087 C-59.93966011 247.03867887 -59.97092644 240.79348763 -59.94112396 234.54272842 C-59.94419903 232.25202412 -59.97630945 229.96114209 -60.03995132 227.67131996 C-60.48421256 210.83274287 -60.48421256 210.83274287 -56.35806227 206.12770152 C-52.33612533 202.89402933 -47.93108892 200.8125651 -43.16204238 198.91010082 C-39.77406745 197.48394989 -36.7215063 195.61675489 -33.56640625 193.734375 C-32.39286301 193.06232535 -31.21792693 192.39269629 -30.04101562 191.7265625 C-29.46778564 191.40075195 -28.89455566 191.07494141 -28.30395508 190.73925781 C-27.7292749 190.41280273 -27.15459473 190.08634766 -26.5625 189.75 C-24.20886046 188.41281492 -21.85614459 187.07402306 -19.50390625 185.734375 C-18.49142822 185.15913086 -17.4789502 184.58388672 -16.43579102 183.99121094 C-14.73507446 183.00556152 -14.73507446 183.00556152 -13 182 C-12.18126876 181.69429801 -11.36253752 181.38859602 -10.51899624 181.07363033 C-7.40260098 179.70715221 -5.36577196 178.46533726 -3 176 C-1.47803592 170.53480761 -1.69657136 165.10566469 -1.8046875 159.4855957 C-1.80091814 157.78515139 -1.79272301 156.08471199 -1.78044128 154.38430786 C-1.75939722 149.77423467 -1.79947781 145.16646608 -1.84999466 140.55669808 C-1.89185901 135.73341975 -1.87558743 130.91035736 -1.86499023 126.08695984 C-1.85338789 116.95304198 -1.89090499 107.8200465 -1.94751072 98.68632239 C-2.02861129 85.27053248 -2.03968967 71.85464489 -2.04620361 58.43863964 C-2.04723684 56.46106148 -2.0482744 54.48348331 -2.04931641 52.50590515 C-2.04970917 51.54066821 -2.05010193 50.57543126 -2.05050659 49.58094472 C-2.05455464 43.83466193 -2.0741589 38.08869099 -2.10735226 32.34250414 C-2.12687204 28.77401977 -2.13892573 25.20553282 -2.149683 21.63701248 C-2.15659936 19.97892718 -2.16703739 18.32085239 -2.18120384 16.66281319 C-2.20021498 14.40452043 -2.20713375 12.14649939 -2.21118164 9.88813782 C-2.21863907 8.62293462 -2.2260965 7.35773142 -2.23377991 6.05418873 C-2 3 -2 3 0 0 Z " fill="#030202" transform="translate(114,32)"/>
<path d="M0 0 C69.96 0 139.92 0 212 0 C212.33 19.47 212.66 38.94 213 59 C214.70521893 60.70521893 216.92101087 60.16878541 219.25415039 60.20532227 C220.93578026 60.2352401 220.93578026 60.2352401 222.65138245 60.26576233 C223.8711528 60.28247482 225.09092316 60.29918732 226.34765625 60.31640625 C227.58921982 60.33718735 228.83078339 60.35796844 230.10997009 60.37937927 C233.41599123 60.43383609 236.72202245 60.48404205 240.02813721 60.53222656 C243.39967491 60.58239856 246.77112053 60.63810701 250.14257812 60.69335938 C256.76164551 60.80070038 263.3807816 60.90244198 270 61 C270.21022113 83.45256728 270.36893914 105.90497237 270.46630955 128.35832405 C270.51272181 138.78381365 270.57599913 149.20869188 270.67895508 159.63378906 C270.76864691 168.72011942 270.82672057 177.80600706 270.84679645 186.89276779 C270.85853274 191.70464435 270.88611926 196.51525436 270.95157051 201.32672501 C271.01268698 205.85625609 271.03150031 210.38399994 271.01796913 214.91390419 C271.02044413 216.57564194 271.03833613 218.23743973 271.07284927 219.89882088 C271.32101024 232.46148814 271.32101024 232.46148814 268.03735256 236.2857933 C265.73725945 237.84826697 263.56970033 238.95540974 261 240 C259.97060303 240.60585938 258.94120605 241.21171875 257.88061523 241.8359375 C256.94934814 242.34382812 256.01808105 242.85171875 255.05859375 243.375 C253.99116943 243.9613623 252.92374512 244.54772461 251.82397461 245.15185547 C250.70643799 245.76174316 249.58890137 246.37163086 248.4375 247 C246.05006766 248.31146559 243.66507737 249.62730667 241.28125 250.9453125 C240.67953476 251.27798126 240.07781952 251.61065002 239.45787048 251.95339966 C230.21071825 257.08310403 221.10807803 262.46484188 212.00170898 267.83935547 C208.51891453 269.85877306 206.43539371 270.14738567 202.38499451 270.21446228 C201.18990768 270.23606918 199.99482086 270.25767609 198.76351929 270.27993774 C196.78540756 270.30753677 196.78540756 270.30753677 194.76733398 270.33569336 C193.36919283 270.35832588 191.97105547 270.38119435 190.57292175 270.40428162 C177.72381485 270.60760784 164.87328527 270.71881914 152.02293301 270.80750179 C143.39892384 270.86833181 134.77691518 270.95516495 126.15405273 271.11108398 C118.61920616 271.24732538 111.08574625 271.33212872 103.54968315 271.35790926 C99.57175807 271.37310675 95.59750773 271.41121002 91.62072563 271.51078606 C70.93093801 272.00713223 56.82519105 269.69344192 39.37958145 257.62856293 C36.25878653 255.49272055 33.0329609 253.6561868 29.73046875 251.81640625 C27.88142793 250.73413287 26.0336653 249.64967123 24.1875 248.5625 C23.25615234 248.01658203 22.32480469 247.47066406 21.36523438 246.90820312 C19.52058252 245.82694352 17.6766387 244.74447483 15.83349609 243.66064453 C13.78221263 242.45843618 11.72738854 241.26226234 9.67041016 240.06982422 C8.57905762 239.43705566 7.48770508 238.80428711 6.36328125 238.15234375 C5.36208252 237.57347412 4.36088379 236.99460449 3.3293457 236.39819336 C1 235 1 235 0 234 C-0.09800724 230.99122211 -0.1299125 228.00538781 -0.12025452 224.99620056 C-0.12110894 224.03979488 -0.12196337 223.08338921 -0.12284368 222.09800154 C-0.1245014 218.86731774 -0.11897236 215.63668494 -0.11352539 212.40600586 C-0.11324356 210.10046897 -0.11340118 207.79493198 -0.1139679 205.48939514 C-0.11425602 199.20865513 -0.10835698 192.92793403 -0.10139394 186.64719844 C-0.09516278 180.09150585 -0.09455679 173.53581289 -0.09336853 166.9801178 C-0.09077542 155.96973338 -0.08435323 144.95935562 -0.07543945 133.94897461 C-0.06626611 122.60620152 -0.05919636 111.26343034 -0.05493164 99.9206543 C-0.05466364 99.21482659 -0.05439565 98.50899888 -0.05411953 97.78178245 C-0.05180681 91.64248649 -0.04965395 85.50319048 -0.04751682 79.36389446 C-0.03810033 52.90925642 -0.01818188 26.45463684 0 0 Z " fill="#DCDCDC" transform="translate(121,40)"/>
<path d="M0 0 C6.21036679 1.62826423 11.35491528 4.98515154 16.8125 8.25 C26.53946786 14.00262059 36.34251285 19.59160959 46.22875977 25.06567383 C50.78538612 27.59874236 55.30930349 30.1499985 59.73046875 32.9140625 C60.42197021 33.34549561 61.11347168 33.77692871 61.82592773 34.22143555 C63.05937527 35.00100694 64.28503614 35.79312104 65.50024414 36.60083008 C67.9173371 38.13337923 69.4335017 39.05665576 72.33374023 38.76660156 C75.36402219 37.89533654 77.80002676 36.65611495 80.55078125 35.11328125 C82.16980347 34.21041382 82.16980347 34.21041382 83.8215332 33.28930664 C84.9853512 32.63065797 86.14900284 31.97171526 87.3125 31.3125 C88.51827287 30.63562915 89.72424902 29.95912029 90.93041992 29.28295898 C104.22495307 21.81075738 117.41038089 14.13781577 130.5 6.3125 C131.77076953 5.5623919 133.04159708 4.81238207 134.3125 4.0625 C135.88451172 3.12083984 135.88451172 3.12083984 137.48828125 2.16015625 C140 1 140 1 143 2 C144.59295497 3.86340069 146.05276129 5.71619235 147.5 7.6875 C148.40025004 8.88601169 149.30131886 10.08390873 150.203125 11.28125 C150.66654297 11.9 151.12996094 12.51875 151.60742188 13.15625 C153.78011705 16.03286184 156.0143615 18.85971275 158.25 21.6875 C162.52203349 27.10798725 166.76633842 32.54949825 171 38 C176.53439981 45.12337349 182.09308215 52.22696763 187.67333984 59.31445312 C189.95086206 62.20808827 192.22524007 65.10419323 194.5 68 C195.4166523 69.16667796 196.33331895 70.33334464 197.25 71.5 C199.08333333 73.83333333 200.91666667 76.16666667 202.75 78.5 C203.2035083 79.07717773 203.6570166 79.65435547 204.12426758 80.24902344 C205.04343313 81.41890016 205.96254095 82.58882223 206.8815918 83.75878906 C209.13456094 86.62671157 211.38843723 89.4939099 213.64453125 92.359375 C219.38952887 99.65890138 225.10203617 106.983049 230.80126953 114.31835938 C234.41816086 118.97162345 238.04498484 123.61676818 241.6875 128.25 C242.12239746 128.80405518 242.55729492 129.35811035 243.00537109 129.92895508 C245.35485171 132.91940201 247.71619817 135.8997836 250.08984375 138.87109375 C250.59749268 139.50950195 251.1051416 140.14791016 251.62817383 140.80566406 C252.60238237 142.03045601 253.57991878 143.25261073 254.5612793 144.47167969 C256.551477 146.97918907 257.97851163 148.9355349 259 152 C135.25 152 11.5 152 -116 152 C-114.02 149.36 -112.04 146.72 -110 144 C-109.09121094 142.78441406 -108.18242188 141.56882812 -107.24609375 140.31640625 C-101.04298977 132.02178794 -94.7844024 123.7719683 -88.484375 115.55078125 C-84.64618013 110.54151831 -80.82293965 105.52090943 -77 100.5 C-71.6525849 93.47818665 -66.2975131 86.46233632 -60.93359375 79.453125 C-56.61477149 73.80788313 -52.30640882 68.15471518 -48 62.5 C-42.65472655 55.48115896 -37.30217048 48.46799486 -31.94018555 41.46191406 C-27.55566502 35.73116808 -23.18359624 29.99098892 -18.8125 24.25 C-14.23777575 18.24339196 -9.66135062 12.2381669 -5.0625 6.25 C-4.29035156 5.24453125 -3.51820313 4.2390625 -2.72265625 3.203125 C-1 1 -1 1 0 0 Z " fill="#FE6C4F" transform="translate(184,320)"/>
<path d="M0 0 C0 70.29 0 140.58 0 213 C-3.62508488 209.37491512 -6.57791022 206.10320602 -9.625 202.0625 C-10.50322698 200.90573398 -11.38215795 199.74950216 -12.26171875 198.59375 C-12.71208496 198.00078125 -13.16245117 197.4078125 -13.62646484 196.796875 C-15.86882437 193.86339365 -18.15216667 190.96255133 -20.4375 188.0625 C-20.89463379 187.48185791 -21.35176758 186.90121582 -21.82275391 186.30297852 C-22.75126078 185.12386272 -23.67997194 183.94490776 -24.60888672 182.76611328 C-26.90874237 179.84628952 -29.20415945 176.92298107 -31.5 174 C-32.4166451 172.83331639 -33.33331177 171.66664973 -34.25 170.5 C-54.41666667 144.83333333 -74.58333333 119.16666667 -94.75 93.5 C-95.20455566 92.92169434 -95.65911133 92.34338867 -96.12744141 91.74755859 C-97.03683434 90.58970825 -97.9453743 89.43118742 -98.85302734 88.27197266 C-101.24913855 85.2141522 -103.66232115 82.17200116 -106.1015625 79.1484375 C-106.86049805 78.20097656 -106.86049805 78.20097656 -107.63476562 77.234375 C-108.60461432 76.02428855 -109.57962551 74.81831571 -110.56054688 73.6171875 C-112.83926188 70.76290342 -114.2769547 68.56913594 -115 65 C-114.36835938 64.64921387 -113.73671875 64.29842773 -113.0859375 63.93701172 C-101.32571989 57.39814433 -89.6034648 50.81384249 -78 44 C-69.88583879 39.23566076 -61.72199344 34.57572364 -53.5 30 C-44.07750508 24.75611913 -34.7405453 19.38141588 -25.43725586 13.92919922 C-19.50196701 10.4530644 -13.55313555 7.00498397 -7.5625 3.625 C-6.89984131 3.24947998 -6.23718262 2.87395996 -5.55444336 2.48706055 C-1.12292088 0 -1.12292088 0 0 0 Z " fill="#FD4E21" transform="translate(448,251)"/>
<path d="M0 0 C7.93858429 3.96929215 15.58684044 7.9809684 23.1875 12.5 C31.56890411 17.43828961 39.99769858 22.27294437 48.5 27 C57.88446342 32.22140873 67.18066895 37.57704798 76.44189453 43.01367188 C83.26826635 47.0130292 90.14857255 50.89834484 97.0793457 54.71337891 C102.46431914 57.68262222 107.76851259 60.76646758 113 64 C111.20158149 68.17527572 108.42180264 71.5953513 105.6875 75.1875 C105.15479492 75.89237549 104.62208984 76.59725098 104.07324219 77.32348633 C102.38643329 79.55227254 100.69425566 81.77687042 99 84 C98.47937988 84.68320312 97.95875977 85.36640625 97.42236328 86.0703125 C94.78079572 89.53334824 92.13387272 92.99224762 89.484375 96.44921875 C85.64618009 101.45848174 81.82295283 106.47910055 78 111.5 C70.49233222 121.35800301 62.96730665 131.20261992 55.43652344 141.04296875 C48.94837166 149.52157406 42.468662 158.00651283 36 166.5 C30.58994083 173.60351973 25.17825767 180.70576794 19.74682617 187.79296875 C16.94362677 191.4515675 14.15223533 195.11851544 11.375 198.796875 C10.48107544 199.97685059 10.48107544 199.97685059 9.5690918 201.18066406 C8.42154512 202.69584036 7.27703832 204.2133251 6.13598633 205.73339844 C5.62318115 206.40918945 5.11037598 207.08498047 4.58203125 207.78125 C4.13061768 208.38001953 3.6792041 208.97878906 3.21411133 209.59570312 C2 211 2 211 0 212 C0 142.04 0 72.08 0 0 Z " fill="#FD4E21" transform="translate(64,251)"/>
<path d="M0 0 C37.62 0 75.24 0 114 0 C111.3116181 2.6883819 109.35264669 4.07072375 106.08203125 5.86328125 C105.08598877 6.4140332 104.08994629 6.96478516 103.0637207 7.53222656 C101.99081787 8.1197168 100.91791504 8.70720703 99.8125 9.3125 C97.55096078 10.56177209 95.29057452 11.81313329 93.03125 13.06640625 C92.4527681 13.38725189 91.87428619 13.70809753 91.27827454 14.03866577 C84.0358522 18.07087878 76.90708491 22.30013795 69.79418945 26.5559082 C67.21762995 28.08020444 64.61782234 29.54818731 62 31 C61.01644531 31.58007812 60.03289062 32.16015625 59.01953125 32.7578125 C53.58597411 33.19362174 49.40870525 29.85619464 44.875 27.125 C42.65106124 25.82939349 40.42710208 24.53382199 38.203125 23.23828125 C37.02519061 22.54281914 35.84745988 21.84701196 34.66992188 21.15087891 C30.88461816 18.92148117 27.06308654 16.7592274 23.234375 14.60546875 C21.32115639 13.5263737 19.40816125 12.44688324 17.49517822 11.36737061 C16.25287237 10.66665026 15.01015844 9.96665288 13.76702881 9.26739502 C12.02156748 8.28348492 10.28022449 7.29227973 8.5390625 6.30078125 C7.54084473 5.73528564 6.54262695 5.16979004 5.51416016 4.5871582 C3 3 3 3 0 0 Z " fill="#D5D5D5" transform="translate(199,318)"/>
<path d="M0 0 C0.7590309 0.00223072 1.51806181 0.00446144 2.30009365 0.00675976 C3.10061877 0.00519977 3.90114389 0.00363978 4.72592735 0.00203252 C7.42913455 -0.00198077 10.13228635 0.00121342 12.83549404 0.00434887 C14.76502929 0.00299498 16.69456428 0.00121511 18.62409878 -0.00096118 C23.88014383 -0.00553692 29.13616936 -0.00374539 34.39221478 -0.0005821 C39.87973746 0.00194078 45.36725841 -0.00039583 50.85478115 -0.00196826 C60.071988 -0.00379017 69.28918685 -0.0013831 78.50639248 0.00337231 C89.17925152 0.00881497 99.85209145 0.00705233 110.52495003 0.00154591 C119.67055933 -0.00298463 128.81616286 -0.00363607 137.96177292 -0.00101542 C143.43188001 0.00054768 148.9019781 0.0007402 154.37208462 -0.00255191 C159.51344991 -0.00542976 164.65479046 -0.00345654 169.79615307 0.00234234 C171.68887573 0.00367041 173.58160046 0.00327505 175.47432232 0.00107968 C178.0466458 -0.00163002 180.61888867 0.00174706 183.19120693 0.00675976 C183.95023784 0.00452904 184.70926874 0.00229832 185.49130058 0 C190.63150044 0.01959356 190.63150044 0.01959356 191.74565029 1.13374341 C191.87065029 4.13374341 191.87065029 4.13374341 191.74565029 7.13374341 C190.01813658 8.86125711 187.79946603 8.26128206 185.49596268 8.27214891 C184.73761389 8.27060031 183.97926511 8.2690517 183.19793606 8.26745617 C182.3981165 8.26972173 181.59829695 8.27198729 180.77424043 8.2743215 C178.07337116 8.28069086 175.37255168 8.27983026 172.67167568 8.27900708 C170.74376262 8.28199674 168.81585016 8.28539881 166.8879385 8.28918469 C161.63596162 8.29804843 156.38400101 8.30036379 151.13201737 8.30100048 C146.7554909 8.30194756 142.37896826 8.30562352 138.00244325 8.30917257 C127.68157346 8.31732611 117.36071239 8.31975598 107.03983974 8.31904614 C96.37493854 8.31844506 85.71008787 8.32900084 75.04519945 8.3447898 C65.90466925 8.35784238 56.76415562 8.363231 47.62361616 8.36259073 C42.15737474 8.36233507 36.6911782 8.36522328 31.22494602 8.37576878 C26.0860207 8.3854115 20.94718352 8.38555541 15.8082552 8.37825215 C13.91756341 8.37720153 12.02686625 8.37959724 10.13618374 8.38561261 C7.56413305 8.39326847 4.99239164 8.38873068 2.42034817 8.38098156 C1.28617107 8.38869691 1.28617107 8.38869691 0.12908131 8.39656812 C-5.02607848 8.36201463 -5.02607848 8.36201463 -7.25434971 6.13374341 C-6.54787481 0.34064926 -5.71765662 0.02179472 0 0 Z " fill="#000000" transform="translate(163.25434970855713,239.8662565946579)"/>
<path d="M0 0 C0.75445784 0.00223072 1.50891567 0.00446144 2.28623587 0.00675976 C3.08197187 0.00519977 3.87770788 0.00363978 4.69755709 0.00203252 C7.38461088 -0.00198077 10.07160895 0.00121344 12.75866324 0.00434887 C14.67672388 0.00299497 16.59478426 0.0012151 18.51284415 -0.00096118 C23.73796563 -0.00553709 28.96306748 -0.00374523 34.18818933 -0.0005821 C39.6445476 0.00194106 45.10090414 -0.00039595 50.55726248 -0.00196826 C59.72319473 -0.00379025 68.88911893 -0.00138307 78.05504996 0.00337231 C88.66540504 0.00881336 99.27574091 0.00705353 109.88609552 0.00154591 C118.97991622 -0.00298635 128.07373113 -0.00363517 137.16755259 -0.00101542 C142.6058335 0.00054694 148.04410536 0.00074225 153.48238569 -0.00255191 C158.595027 -0.00543219 163.70764344 -0.00345202 168.82028204 0.00234234 C170.70129676 0.00366916 172.58231356 0.00327714 174.46332747 0.00107968 C177.02216411 -0.0016349 179.58092005 0.00175315 182.13975149 0.00675976 C182.89197861 0.00452904 183.64420572 0.00229832 184.4192276 0 C189.54818559 0.01959345 189.54818559 0.01959345 191.7764855 1.13374341 C191.81902907 3.13329087 191.81729333 5.13415977 191.7764855 7.13374341 C190.04897179 8.86125711 187.83030124 8.26128206 185.52679789 8.27214891 C184.76844911 8.27060031 184.01010032 8.2690517 183.22877127 8.26745617 C182.42895171 8.26972173 181.62913216 8.27198729 180.80507565 8.2743215 C178.10420637 8.28069086 175.40338689 8.27983026 172.70251089 8.27900708 C170.77459783 8.28199674 168.84668537 8.28539881 166.91877371 8.28918469 C161.66679683 8.29804843 156.41483622 8.30036379 151.16285259 8.30100048 C146.78632611 8.30194756 142.40980347 8.30562352 138.03327847 8.30917257 C127.71240867 8.31732611 117.3915476 8.31975598 107.07067496 8.31904614 C96.40577375 8.31844506 85.74092308 8.32900084 75.07603467 8.3447898 C65.93550446 8.35784238 56.79499083 8.363231 47.65445137 8.36259073 C42.18820995 8.36233507 36.72201341 8.36522328 31.25578123 8.37576878 C26.11685592 8.3854115 20.97801873 8.38555541 15.83909041 8.37825215 C13.94839862 8.37720153 12.05770146 8.37959724 10.16701895 8.38561261 C7.59496826 8.39326847 5.02322685 8.38873068 2.45118338 8.38098156 C1.31700628 8.38869691 1.31700628 8.38869691 0.15991652 8.39656812 C-4.99524327 8.36201463 -4.99524327 8.36201463 -7.2235145 6.13374341 C-6.51922431 0.35856385 -5.70237493 0.02186753 0 0 Z " fill="#050505" transform="translate(163.22351449728012,274.8662565946579)"/>
<path d="M0 0 C0.7590309 0.00223072 1.51806181 0.00446144 2.30009365 0.00675976 C3.10061877 0.00519977 3.90114389 0.00363978 4.72592735 0.00203252 C7.42913455 -0.00198077 10.13228635 0.00121342 12.83549404 0.00434887 C14.76502929 0.00299498 16.69456428 0.00121511 18.62409878 -0.00096118 C23.88014383 -0.00553692 29.13616936 -0.00374539 34.39221478 -0.0005821 C39.87973746 0.00194078 45.36725841 -0.00039583 50.85478115 -0.00196826 C60.071988 -0.00379017 69.28918685 -0.0013831 78.50639248 0.00337231 C89.17925152 0.00881497 99.85209145 0.00705233 110.52495003 0.00154591 C119.67055933 -0.00298463 128.81616286 -0.00363607 137.96177292 -0.00101542 C143.43188001 0.00054768 148.9019781 0.0007402 154.37208462 -0.00255191 C159.51344991 -0.00542976 164.65479046 -0.00345654 169.79615307 0.00234234 C171.68887573 0.00367041 173.58160046 0.00327505 175.47432232 0.00107968 C178.0466458 -0.00163002 180.61888867 0.00174706 183.19120693 0.00675976 C183.95023784 0.00452904 184.70926874 0.00229832 185.49130058 0 C190.63150044 0.01959356 190.63150044 0.01959356 191.74565029 1.13374341 C191.78645812 3.13332704 191.78819385 5.13419595 191.74565029 7.13374341 C188.67986828 8.66663441 185.472497 8.27070171 182.10891628 8.26072705 C180.91297229 8.26306703 180.91297229 8.26306703 179.69286782 8.26545429 C177.00658606 8.26946044 174.32036026 8.26627614 171.63407803 8.26313794 C169.71424737 8.26449214 167.79441696 8.26627217 165.87458706 8.268448 C160.64959192 8.27301979 155.42461646 8.27123388 150.19962096 8.26806891 C144.74280063 8.26554437 139.28598204 8.26788308 133.82916164 8.26945508 C124.66500959 8.27127634 115.50086558 8.26887142 106.33671474 8.2641145 C95.72575086 8.25867034 85.11480619 8.26043583 74.50384277 8.2659409 C65.40916829 8.27047132 56.31449961 8.27112298 47.21982437 8.26850224 C41.7810313 8.26693928 36.34224728 8.26674624 30.90345478 8.27003872 C25.79244488 8.27291646 20.68145988 8.27094355 15.57045269 8.26514447 C13.68901708 8.26381641 11.8075794 8.26421175 9.9261446 8.26640713 C7.36920117 8.26911683 4.81233884 8.26573977 2.25540066 8.26072705 C1.1237139 8.26407313 1.1237139 8.26407313 -0.03083521 8.26748681 C-5.14019975 8.24789336 -5.14019975 8.24789336 -6.25434971 7.13374341 C-6.37934971 4.13374341 -6.37934971 4.13374341 -6.25434971 1.13374341 C-4.52573882 -0.59486748 -2.3046109 0.00878478 0 0 Z " fill="#050505" transform="translate(163.25434970855713,204.8662565946579)"/>
<path d="M0 0 C3.53571429 0.53571429 3.53571429 0.53571429 5 2 C5.14115161 4.67058851 5.04247107 7.32432238 5 10 C6.175625 10.103125 7.35125 10.20625 8.5625 10.3125 C12.82485903 10.82914958 16.14087534 12.1508361 20 14 C20 15.98 20 17.96 20 20 C16.05307977 21.31564008 14.01829131 20.25627333 10.21875 18.7109375 C5.45189381 17.18352935 0.75530818 17.48803511 -4 18.875 C-6.15378056 19.84063665 -6.15378056 19.84063665 -7 22 C-7.50646546 26.07036431 -7.50646546 26.07036431 -7 30 C-3.25817085 33.72740977 1.21293507 35.63894885 5.9375 37.8125 C12.00790056 40.71793819 16.25900147 43.21845681 20 49 C21.64480616 53.93441849 21.5902043 58.26410499 19.9375 63.125 C17.1557107 67.25281638 13.91079017 71.13524098 8.98828125 72.59765625 C7.0625 72.875 7.0625 72.875 4 73 C4 76.3 4 79.6 4 83 C2.34385343 83.38218767 0.67542976 83.71395102 -1 84 C-2 83 -2 83 -2.09765625 80.93359375 C-2.08605469 80.10988281 -2.07445312 79.28617187 -2.0625 78.4375 C-2.05347656 77.61121094 -2.04445312 76.78492188 -2.03515625 75.93359375 C-2.02355469 75.29550781 -2.01195312 74.65742188 -2 74 C-2.94875 74.0825 -3.8975 74.165 -4.875 74.25 C-9.9704768 74.2708404 -14.50084172 72.25369171 -19 70 C-19.66 69.34 -20.32 68.68 -21 68 C-20.625 65.375 -20.625 65.375 -20 63 C-17.59120667 62.14125978 -16.4169855 61.83856009 -13.9921875 62.77734375 C-12.94417969 63.35162109 -12.94417969 63.35162109 -11.875 63.9375 C-6.85199654 66.32073723 -2.49457289 66.79159101 3 66 C7.35264503 64.46523242 7.35264503 64.46523242 10 61 C10.47836579 57.91787103 10.52995551 55.07802445 10 52 C6.63233826 47.88396898 3.02418551 46.5474652 -1.875 44.625 C-8.46124717 42.01999179 -13.79681139 38.67198102 -17.5 32.5 C-18.54717073 27.26414635 -18.59032126 23.50729553 -15.9375 18.8125 C-13.17629614 14.77267048 -10.46838665 12.94984145 -6 11 C-4.68 11 -3.36 11 -2 11 C-2.02320313 10.37351562 -2.04640625 9.74703125 -2.0703125 9.1015625 C-2.08835938 8.28429687 -2.10640625 7.46703125 -2.125 6.625 C-2.14820313 5.81289062 -2.17140625 5.00078125 -2.1953125 4.1640625 C-2 2 -2 2 0 0 Z " fill="#080808" transform="translate(256,89)"/>
<path d="M0 0 C4.68926882 4.01937327 9.16531691 8.00867688 13.5 12.375 C14.02980469 12.9009375 14.55960937 13.426875 15.10546875 13.96875 C17.98136885 16.85161354 20.72323369 19.80326827 23.37890625 22.890625 C27.85027006 28.05905024 32.75433229 32.76984509 37.65429688 37.52734375 C38.34458984 38.20667969 39.03488281 38.88601562 39.74609375 39.5859375 C40.37185303 40.1948584 40.9976123 40.8037793 41.64233398 41.43115234 C43 43 43 43 43 45 C28.81 45 14.62 45 0 45 C0 30.15 0 15.3 0 0 Z " fill="#C2C2C2" transform="translate(341,47)"/>
<path d="M0 0 C12.87 0 25.74 0 39 0 C35.20174482 3.03860414 31.97823437 5.26531189 27.78125 7.56640625 C27.20088989 7.88657211 26.62052979 8.20673798 26.02258301 8.53660583 C24.1841455 9.54972112 22.34225154 10.5563398 20.5 11.5625 C18.65850723 12.57355825 16.81776207 13.58596017 14.97741699 14.59910583 C13.30848889 15.51704815 11.63769452 16.43159495 9.96679688 17.34594727 C8.03149672 18.42491851 6.11916065 19.54647833 4.23632812 20.71459961 C2 22 2 22 0 22 C0 14.74 0 7.48 0 0 Z " fill="#C42700" transform="translate(399,247)"/>
<path d="M0 0 C12.87 0 25.74 0 39 0 C39 7.26 39 14.52 39 22 C34.51793136 20.50597712 31.42085399 19.25712881 27.48046875 16.91796875 C26.45759766 16.31533203 25.43472656 15.71269531 24.38085938 15.09179688 C23.32705078 14.46337891 22.27324219 13.83496094 21.1875 13.1875 C19.09816855 11.9509569 17.00833241 10.71526611 14.91796875 9.48046875 C13.92071777 8.89056152 12.9234668 8.3006543 11.89599609 7.69287109 C7.96657039 5.39590281 3.99461711 3.18124203 0 1 C0 0.67 0 0.34 0 0 Z " fill="#C42700" transform="translate(74,247)"/>
<path d="M0 0 C5.82400292 2.32960117 11.17113953 5.29600657 16.63818359 8.33984375 C18.49140743 9.3702226 20.34900735 10.39237061 22.20703125 11.4140625 C23.39871315 12.0750241 24.5901284 12.73646673 25.78125 13.3984375 C26.85439453 13.99317871 27.92753906 14.58791992 29.03320312 15.20068359 C32 17 32 17 37 21 C24.79 21 12.58 21 0 21 C0 14.07 0 7.14 0 0 Z " fill="#C72800" transform="translate(399,218)"/>
<path d="M0 0 C0 6.93 0 13.86 0 21 C-12.21 21 -24.42 21 -37 21 C-33.5865026 18.43987695 -30.29033012 16.37375098 -26.58984375 14.27734375 C-25.9811293 13.93119522 -25.37241486 13.58504669 -24.74525452 13.22840881 C-22.81078772 12.12885879 -20.87427684 11.03297509 -18.9375 9.9375 C-16.99748041 8.83789083 -15.05791459 7.73749547 -13.11903381 6.63587952 C-11.36275176 5.63835345 -9.6051159 4.64321209 -7.84741211 3.64819336 C-1.54480818 0 -1.54480818 0 0 0 Z " fill="#C82800" transform="translate(113,218)"/>
</svg>
