<?xml version="1.0" encoding="UTF-8"?>
<svg version="1.1" xmlns="http://www.w3.org/2000/svg" width="512" height="512">
<path d="M0 0 C1.23416159 -0.00445784 2.46832318 -0.00891569 3.7398836 -0.01350862 C5.11685353 -0.01341932 6.49382344 -0.01322946 7.87079334 -0.01294994 C9.32786129 -0.01624858 10.78492833 -0.01997414 12.2419942 -0.02409142 C16.25592976 -0.03411963 20.26985036 -0.03782953 24.28379667 -0.04048073 C28.6090972 -0.04438135 32.93438587 -0.05395985 37.25967884 -0.0626936 C47.7101678 -0.08246479 58.16065774 -0.09252501 68.61116073 -0.10142139 C73.53084372 -0.10580318 78.45052564 -0.11117027 83.37020779 -0.11641026 C99.72152165 -0.13342313 116.07283483 -0.14791774 132.42415619 -0.155159 C136.66831621 -0.15706893 140.91247623 -0.15898926 145.15663624 -0.16094494 C146.7389602 -0.16167055 146.7389602 -0.16167055 148.3532503 -0.16241082 C165.4451845 -0.17071275 182.53704876 -0.19605217 199.62895241 -0.22852562 C217.17139993 -0.26158371 234.71381189 -0.27960662 252.25629073 -0.28280324 C262.10795542 -0.28496948 271.9595181 -0.29373491 281.81115246 -0.31926441 C290.20056511 -0.34095432 298.58985097 -0.34903025 306.97928848 -0.33929763 C311.25978778 -0.33474797 315.5400254 -0.3366777 319.82048893 -0.35605907 C323.74074993 -0.37365621 327.66055769 -0.37272134 331.58082328 -0.35716178 C332.99742658 -0.35478044 334.41406097 -0.35913661 335.83061668 -0.37099043 C343.73145967 -0.43299874 349.38202173 -0.14543758 356.12465382 4.13422108 C357.01152882 4.69109608 357.89840382 5.24797108 358.81215382 5.82172108 C364.51151639 11.52108365 367.22663999 18.34202094 367.27238351 26.3132481 C367.27210697 27.59173338 367.27210697 27.59173338 367.27182484 28.89604664 C367.27550152 29.80233627 367.27917821 30.70862591 367.28296632 31.64237887 C367.29401564 34.69166723 367.29784907 37.74092154 367.30165577 40.79022694 C367.30791931 42.97134478 367.31456601 45.15246156 367.32156849 47.33357716 C367.33898443 53.26735943 367.34953115 59.20113364 367.35777402 65.13493514 C367.36292126 68.83912627 367.36899701 72.54331488 367.37528515 76.24750423 C367.39433598 87.82857143 367.40856926 99.40963225 367.41689712 110.99071211 C367.42570655 123.04340891 367.44487359 135.09597893 367.48134327 147.14862537 C367.51653613 158.81727941 367.53793335 170.48585366 367.54167813 182.15456206 C367.54403388 188.33294965 367.55306283 194.51116106 367.57813931 200.68950176 C367.6013354 206.49827087 367.60568742 212.30674671 367.59537792 218.11555004 C367.59488044 220.25052075 367.60126294 222.38550548 367.61493397 224.52043247 C367.63252173 227.42911512 367.62561164 230.33673014 367.61240101 233.24541187 C367.62885488 234.52055107 367.62885488 234.52055107 367.64564115 235.82145065 C367.60539985 239.47668738 367.45005267 241.6830109 365.28166962 244.68977165 C363.12465382 246.13422108 363.12465382 246.13422108 360.12465382 246.13422108 C360.12465382 252.73422108 360.12465382 259.33422108 360.12465382 266.13422108 C361.77465382 266.46422108 363.42465382 266.79422108 365.12465382 267.13422108 C367.72977792 271.04190724 367.40861946 274.32892046 367.39207935 278.86240101 C367.39661047 279.76516281 367.40114158 280.66792462 367.40581 281.59804285 C367.41851229 284.63570706 367.41682986 287.67319333 367.41518116 290.71088123 C367.42116293 292.88388774 367.42796766 295.05689212 367.43553638 297.22989368 C367.45324334 303.14336619 367.45789385 309.05678086 367.45916796 314.97027731 C367.46106493 319.90544765 367.46842049 324.84060445 367.47551215 329.77576959 C367.49274588 342.08864096 367.49653718 354.40147918 367.49501152 366.71436076 C367.49414905 378.06007458 367.51689418 389.40561602 367.54674661 400.75128806 C367.57290944 411.0622405 367.58362651 421.3731342 367.58234847 431.68411958 C367.58183866 437.84309446 367.58753166 444.00190966 367.60870457 450.16085148 C367.62808583 455.95733848 367.62821189 461.75351355 367.6136713 467.55001163 C367.61158171 469.67481409 367.61629303 471.79963606 367.62839222 473.9244051 C367.64386972 476.83134801 367.63451956 479.73721882 367.61913013 482.64413929 C367.62941726 483.47966788 367.63970439 484.31519647 367.65030324 485.17604411 C367.5580432 493.09426134 364.78904989 500.469825 359.12465382 506.13422108 C353.52075336 510.13538327 349.23577463 512.25676267 342.24930763 512.26844215 C341.01514604 512.2729 339.78098446 512.27735784 338.50942403 512.28195077 C337.13245411 512.28186147 335.75548419 512.28167161 334.37851429 512.2813921 C332.92144634 512.28469073 331.4643793 512.2884163 330.00731343 512.29253358 C325.99337787 512.30256178 321.97945727 512.30627169 317.96551096 512.30892289 C313.64021043 512.3128235 309.31492176 512.322402 304.98962879 512.33113575 C294.53913983 512.35090694 284.0886499 512.36096716 273.63814691 512.36986354 C268.71846391 512.37424533 263.79878199 512.37961242 258.87909985 512.38485241 C242.52778598 512.40186528 226.1764728 512.41635989 209.82515144 512.42360115 C205.58099142 512.42551109 201.3368314 512.42743141 197.09267139 512.42938709 C195.51034743 512.4301127 195.51034743 512.4301127 193.89605733 512.43085297 C176.80412313 512.43915491 159.71225888 512.46449433 142.62035523 512.49696777 C125.0779077 512.53002586 107.53549574 512.54804878 89.9930169 512.55124539 C80.14135221 512.55341164 70.28978953 512.56217706 60.43815517 512.58770657 C52.04874253 512.60939648 43.65945666 512.61747241 35.27001915 512.60773978 C30.98951985 512.60319013 26.70928224 512.60511985 22.4288187 512.62450123 C18.5085577 512.64209836 14.58874994 512.64116349 10.66848435 512.62560394 C9.25188106 512.6232226 7.83524666 512.62757876 6.41869096 512.63943259 C-1.48215204 512.70144089 -7.1327141 512.41387973 -13.87534618 508.13422108 C-14.76222118 507.57734608 -15.64909618 507.02047108 -16.56284618 506.44672108 C-21.97815896 501.0314083 -24.97745092 494.30156378 -25.01406309 486.68184084 C-25.01183765 485.56164477 -25.01183765 485.56164477 -25.00956726 484.41881847 C-25.01191949 483.62114093 -25.01427172 482.82346339 -25.01669523 482.0016138 C-25.02339695 479.30608717 -25.02292666 476.61060862 -25.0225172 473.91507435 C-25.0258151 471.97199289 -25.02954051 470.02891213 -25.03365868 468.08583224 C-25.04369527 462.72844194 -25.04739814 457.37106285 -25.05004799 452.01366448 C-25.05394614 446.24252516 -25.06352482 440.47139476 -25.07226086 434.70026112 C-25.09203925 420.75399899 -25.10209327 406.80773613 -25.11098865 392.86146349 C-25.11536934 386.29768478 -25.12073672 379.73390689 -25.12597752 373.17012882 C-25.14299125 351.35697495 -25.15751097 329.54382181 -25.16472626 307.73066235 C-25.16520102 306.31970973 -25.1656769 304.90875712 -25.16615392 303.4978045 C-25.1663903 302.79809448 -25.16662667 302.09838447 -25.16687021 301.37747112 C-25.16807142 297.83235782 -25.16928686 294.28724452 -25.1705122 290.74213123 C-25.17075235 290.03859097 -25.1709925 289.33505071 -25.17123993 288.61019105 C-25.17913267 265.80026926 -25.20256346 242.99039947 -25.23506814 220.18050039 C-25.26936657 196.06785211 -25.28907629 171.95523445 -25.2923705 147.84256136 C-25.29453755 134.69719833 -25.30331479 121.55191171 -25.32883167 108.40657139 C-25.35050997 97.21270628 -25.35860322 86.01893615 -25.34886489 74.82505243 C-25.34431188 69.1125907 -25.34626471 63.40032505 -25.36562634 57.68789005 C-25.38319907 52.45813145 -25.38230807 47.22871283 -25.36672904 41.99895091 C-25.36434402 40.10723341 -25.36872269 38.21549273 -25.38055769 36.32381074 C-25.48708323 18.17230587 -25.48708323 18.17230587 -20.87534618 11.13422108 C-20.29784618 10.22672108 -19.72034618 9.31922108 -19.12534618 8.38422108 C-13.59057846 2.84945335 -7.82724744 0.01308504 0 0 Z " fill="#DDE9F8" transform="translate(84.87534618377686,-0.13422107696533203)"/>
<path d="M0 0 C1.23416159 -0.00445784 2.46832318 -0.00891569 3.7398836 -0.01350862 C5.11685353 -0.01341932 6.49382344 -0.01322946 7.87079334 -0.01294994 C9.32786129 -0.01624858 10.78492833 -0.01997414 12.2419942 -0.02409142 C16.25592976 -0.03411963 20.26985036 -0.03782953 24.28379667 -0.04048073 C28.6090972 -0.04438135 32.93438587 -0.05395985 37.25967884 -0.0626936 C47.7101678 -0.08246479 58.16065774 -0.09252501 68.61116073 -0.10142139 C73.53084372 -0.10580318 78.45052564 -0.11117027 83.37020779 -0.11641026 C99.72152165 -0.13342313 116.07283483 -0.14791774 132.42415619 -0.155159 C136.66831621 -0.15706893 140.91247623 -0.15898926 145.15663624 -0.16094494 C146.7389602 -0.16167055 146.7389602 -0.16167055 148.3532503 -0.16241082 C165.4451845 -0.17071275 182.53704876 -0.19605217 199.62895241 -0.22852562 C217.17139993 -0.26158371 234.71381189 -0.27960662 252.25629073 -0.28280324 C262.10795542 -0.28496948 271.9595181 -0.29373491 281.81115246 -0.31926441 C290.20056511 -0.34095432 298.58985097 -0.34903025 306.97928848 -0.33929763 C311.25978778 -0.33474797 315.5400254 -0.3366777 319.82048893 -0.35605907 C323.74074993 -0.37365621 327.66055769 -0.37272134 331.58082328 -0.35716178 C332.99742658 -0.35478044 334.41406097 -0.35913661 335.83061668 -0.37099043 C343.73145967 -0.43299874 349.38202173 -0.14543758 356.12465382 4.13422108 C357.01152882 4.69109608 357.89840382 5.24797108 358.81215382 5.82172108 C364.51151639 11.52108365 367.22663999 18.34202094 367.27238351 26.3132481 C367.27210697 27.59173338 367.27210697 27.59173338 367.27182484 28.89604664 C367.27550152 29.80233627 367.27917821 30.70862591 367.28296632 31.64237887 C367.29401564 34.69166723 367.29784907 37.74092154 367.30165577 40.79022694 C367.30791931 42.97134478 367.31456601 45.15246156 367.32156849 47.33357716 C367.33898443 53.26735943 367.34953115 59.20113364 367.35777402 65.13493514 C367.36292126 68.83912627 367.36899701 72.54331488 367.37528515 76.24750423 C367.39433598 87.82857143 367.40856926 99.40963225 367.41689712 110.99071211 C367.42570655 123.04340891 367.44487359 135.09597893 367.48134327 147.14862537 C367.51653613 158.81727941 367.53793335 170.48585366 367.54167813 182.15456206 C367.54403388 188.33294965 367.55306283 194.51116106 367.57813931 200.68950176 C367.6013354 206.49827087 367.60568742 212.30674671 367.59537792 218.11555004 C367.59488044 220.25052075 367.60126294 222.38550548 367.61493397 224.52043247 C367.63252173 227.42911512 367.62561164 230.33673014 367.61240101 233.24541187 C367.62885488 234.52055107 367.62885488 234.52055107 367.64564115 235.82145065 C367.60574223 239.44558752 367.45837411 241.66996603 365.31291962 244.6546154 C362.06904919 246.84797285 359.94244524 246.7477947 356.12465382 246.13422108 C319.67459146 200.57164313 352.12465382 129.48279052 352.12465382 71.13422108 C232.66465382 71.13422108 113.20465382 71.13422108 -9.87534618 71.13422108 C-9.78493079 145.12741382 -9.78493079 145.12741382 -9.66636181 219.1205492 C-9.64831083 229.08742706 -9.63044674 239.05430522 -9.61289501 249.02118397 C-9.61068732 250.27042111 -9.60847963 251.51965826 -9.60620505 252.80675107 C-9.57080643 272.99159829 -9.54596423 293.17644546 -9.52499916 313.36131223 C-9.50325945 334.06657849 -9.47022648 354.77180437 -9.42664462 375.4770363 C-9.40009636 388.25984477 -9.38242438 401.04260289 -9.37600014 413.82543758 C-9.37075597 422.58349656 -9.35457173 431.34149211 -9.32968052 440.09951713 C-9.31563222 445.15725802 -9.30650711 450.21488528 -9.31033802 455.2726469 C-9.31373653 459.89968025 -9.30345137 464.52647047 -9.28211067 469.15345398 C-9.27682196 470.83050871 -9.27662955 472.50758855 -9.28195056 474.18464317 C-9.28843335 476.45890073 -9.27660678 478.73234846 -9.26010704 481.00653839 C-9.25820844 482.27138681 -9.25630984 483.53623523 -9.2543537 484.83941239 C-8.73677398 489.33886444 -7.25019912 491.78349718 -4.05448478 494.92312586 C-1.22499808 496.49566366 0.75813904 496.51023604 3.99087143 496.5117445 C5.1975236 496.51956774 6.40417578 496.52739098 7.64739317 496.53545129 C8.98811694 496.52896497 10.32883936 496.522195 11.66956043 496.515172 C13.09250897 496.51862771 14.51545484 496.52339169 15.93839508 496.52935374 C19.85332016 496.54190562 23.76802654 496.53567441 27.68295252 496.52639508 C31.90320977 496.51962195 36.12342877 496.53007722 40.34367847 496.53833485 C48.61330913 496.55169331 56.88285822 496.54878495 65.1524921 496.54009692 C71.8724224 496.53332863 78.5923298 496.53239995 85.31226254 496.53566837 C86.26777659 496.53612807 87.22329064 496.53658777 88.20775967 496.5370614 C90.14872988 496.53802055 92.08970009 496.53899319 94.03067029 496.53997917 C112.24292396 496.54853938 130.45513237 496.5386893 148.66737861 496.52257808 C164.30070201 496.50917647 179.93395858 496.51150047 195.56728077 496.52533436 C213.7117061 496.54138275 231.85609172 496.54771308 250.00052315 496.53849757 C251.93475854 496.5375419 253.86899393 496.53659879 255.80322933 496.53566837 C256.75496386 496.53520555 257.70669839 496.53474272 258.68727336 496.53426587 C265.40008232 496.53167359 272.11286613 496.53605213 278.8256712 496.54310703 C287.00507213 496.5515141 295.18438667 496.54925872 303.36377769 496.5332648 C307.53854761 496.52537104 311.71317341 496.52230921 315.88794231 496.53221226 C319.70803513 496.54113701 323.52784993 496.53626317 327.34791745 496.5202796 C328.73145497 496.51692232 330.11501588 496.5186471 331.49853843 496.52590697 C333.37654119 496.53500728 335.25460955 496.52389403 337.13259506 496.5117445 C338.69853689 496.51101391 338.69853689 496.51101391 340.29611391 496.51026857 C344.54238189 495.94573758 347.18497239 494.25513272 349.91391563 490.99987602 C351.59084026 487.03082026 351.53537442 483.55131717 351.49646473 479.28374195 C351.50028929 478.39207768 351.50411386 477.5004134 351.50805432 476.58172899 C351.51734049 473.59377743 351.50534717 470.60628907 351.4935503 467.61835194 C351.49601811 465.4763466 351.49985632 463.33434247 351.50496387 461.1923418 C351.51330433 456.57989387 351.51249225 451.96756938 351.50477886 447.35512066 C351.49320876 440.06549189 351.50534707 432.77602241 351.52139759 425.48640919 C351.55761105 407.38226753 351.56381865 389.27812953 351.56129932 371.17395496 C351.55959001 357.10138378 351.56665057 343.02894235 351.60127789 328.95640761 C351.61810962 321.70594996 351.61624499 314.45580827 351.60045516 307.20535171 C351.59467335 302.7004083 351.60537086 298.19561593 351.62070179 293.69069958 C351.62443954 291.59766431 351.62128691 289.50460402 351.61083126 287.41159153 C351.59753189 284.55991526 351.60860874 281.70934736 351.62585926 278.85771656 C351.6111491 277.60796941 351.6111491 277.60796941 351.59614176 276.33297485 C351.64121691 272.74358152 351.80907772 270.5719487 353.93707848 267.62025261 C357.15177549 265.43649188 359.3319653 265.59240843 363.12465382 266.13422108 C365.31165791 267.61244392 365.31165791 267.61244392 367.12465382 270.13422108 C367.51737768 273.20360287 367.66495991 275.9134341 367.63258839 278.98265553 C367.64194833 280.33807987 367.64194833 280.33807987 367.65149736 281.72088653 C367.66748078 284.75565689 367.65480187 287.78962998 367.64223194 290.82440662 C367.64765086 292.99756305 367.65477222 295.17071581 367.66347218 297.34386158 C367.68174107 303.2532227 367.67462174 309.16230512 367.66195583 315.07167125 C367.65184023 321.2547858 367.66121811 327.43787623 367.6675005 333.62099171 C367.67478381 344.0107804 367.66517405 354.40045548 367.64613819 364.79022694 C367.62439681 376.79514302 367.63139823 388.79971364 367.65344381 400.80463666 C367.67161244 411.11137806 367.67414808 421.41803767 367.66368914 431.72478992 C367.65745861 437.8803775 367.65660602 444.0358374 367.66983509 450.19141674 C367.68141308 455.98384182 367.67333179 461.77591757 367.65025806 467.56830502 C367.64498021 469.69148523 367.64646887 471.81469497 367.65530872 473.93786335 C367.66628488 476.84259181 367.65247498 479.74621015 367.63258839 482.65086842 C367.64597272 483.90313812 367.64597272 483.90313812 367.65962744 485.1807062 C367.55497105 493.09457219 364.78633602 500.47253888 359.12465382 506.13422108 C353.52075336 510.13538327 349.23577463 512.25676267 342.24930763 512.26844215 C341.01514604 512.2729 339.78098446 512.27735784 338.50942403 512.28195077 C337.13245411 512.28186147 335.75548419 512.28167161 334.37851429 512.2813921 C332.92144634 512.28469073 331.4643793 512.2884163 330.00731343 512.29253358 C325.99337787 512.30256178 321.97945727 512.30627169 317.96551096 512.30892289 C313.64021043 512.3128235 309.31492176 512.322402 304.98962879 512.33113575 C294.53913983 512.35090694 284.0886499 512.36096716 273.63814691 512.36986354 C268.71846391 512.37424533 263.79878199 512.37961242 258.87909985 512.38485241 C242.52778598 512.40186528 226.1764728 512.41635989 209.82515144 512.42360115 C205.58099142 512.42551109 201.3368314 512.42743141 197.09267139 512.42938709 C195.51034743 512.4301127 195.51034743 512.4301127 193.89605733 512.43085297 C176.80412313 512.43915491 159.71225888 512.46449433 142.62035523 512.49696777 C125.0779077 512.53002586 107.53549574 512.54804878 89.9930169 512.55124539 C80.14135221 512.55341164 70.28978953 512.56217706 60.43815517 512.58770657 C52.04874253 512.60939648 43.65945666 512.61747241 35.27001915 512.60773978 C30.98951985 512.60319013 26.70928224 512.60511985 22.4288187 512.62450123 C18.5085577 512.64209836 14.58874994 512.64116349 10.66848435 512.62560394 C9.25188106 512.6232226 7.83524666 512.62757876 6.41869096 512.63943259 C-1.48215204 512.70144089 -7.1327141 512.41387973 -13.87534618 508.13422108 C-14.76222118 507.57734608 -15.64909618 507.02047108 -16.56284618 506.44672108 C-21.97815896 501.0314083 -24.97745092 494.30156378 -25.01406309 486.68184084 C-25.01183765 485.56164477 -25.01183765 485.56164477 -25.00956726 484.41881847 C-25.01191949 483.62114093 -25.01427172 482.82346339 -25.01669523 482.0016138 C-25.02339695 479.30608717 -25.02292666 476.61060862 -25.0225172 473.91507435 C-25.0258151 471.97199289 -25.02954051 470.02891213 -25.03365868 468.08583224 C-25.04369527 462.72844194 -25.04739814 457.37106285 -25.05004799 452.01366448 C-25.05394614 446.24252516 -25.06352482 440.47139476 -25.07226086 434.70026112 C-25.09203925 420.75399899 -25.10209327 406.80773613 -25.11098865 392.86146349 C-25.11536934 386.29768478 -25.12073672 379.73390689 -25.12597752 373.17012882 C-25.14299125 351.35697495 -25.15751097 329.54382181 -25.16472626 307.73066235 C-25.16520102 306.31970973 -25.1656769 304.90875712 -25.16615392 303.4978045 C-25.1663903 302.79809448 -25.16662667 302.09838447 -25.16687021 301.37747112 C-25.16807142 297.83235782 -25.16928686 294.28724452 -25.1705122 290.74213123 C-25.17075235 290.03859097 -25.1709925 289.33505071 -25.17123993 288.61019105 C-25.17913267 265.80026926 -25.20256346 242.99039947 -25.23506814 220.18050039 C-25.26936657 196.06785211 -25.28907629 171.95523445 -25.2923705 147.84256136 C-25.29453755 134.69719833 -25.30331479 121.55191171 -25.32883167 108.40657139 C-25.35050997 97.21270628 -25.35860322 86.01893615 -25.34886489 74.82505243 C-25.34431188 69.1125907 -25.34626471 63.40032505 -25.36562634 57.68789005 C-25.38319907 52.45813145 -25.38230807 47.22871283 -25.36672904 41.99895091 C-25.36434402 40.10723341 -25.36872269 38.21549273 -25.38055769 36.32381074 C-25.48708323 18.17230587 -25.48708323 18.17230587 -20.87534618 11.13422108 C-20.29784618 10.22672108 -19.72034618 9.31922108 -19.12534618 8.38422108 C-13.59057846 2.84945335 -7.82724744 0.01308504 0 0 Z " fill="#000000" transform="translate(84.87534618377686,-0.13422107696533203)"/>
<path d="M0 0 C2.5 1.625 2.5 1.625 4 4 C4.5 7 4.5 7 4 10 C0.93128 13.87904215 -2.3385499 15.08052163 -6.9375 16.6875 C-23.51070161 22.90371736 -35.18490236 34.11259898 -43 50 C-49.90513637 65.21574298 -48.69270599 83.5758439 -43 99 C-41.79940013 101.79869565 -40.51321871 104.35186726 -39 107 C-38.85304687 106.29875 -38.70609375 105.5975 -38.5546875 104.875 C-36.17646123 94.81537622 -31.40919904 88.02851255 -23 82 C-19.88070821 80.08734783 -17.64210726 79.79766071 -14 80 C-14.27714844 79.32453125 -14.55429688 78.6490625 -14.83984375 77.953125 C-15.38318359 76.61507812 -15.38318359 76.61507812 -15.9375 75.25 C-16.29714844 74.36828125 -16.65679687 73.4865625 -17.02734375 72.578125 C-19.89617843 64.97398489 -20.25461074 56.60869993 -17.5625 48.875 C-13.37052989 39.78996374 -6.40983686 33.06994623 2.6953125 29.00390625 C12.15093774 26.13145272 21.49265265 27.1554225 30.34375 31.390625 C38.06264925 36.06736984 43.84528797 43.27510259 46.61328125 51.9140625 C48.44405579 61.78914943 46.60323807 71.19380542 42 80 C42.99 80.04125 43.98 80.0825 45 80.125 C51.97097557 81.13896008 57.444838 86.80584809 61.75 92.0703125 C64.6723078 96.58162517 65.73058674 101.840825 67 107 C67.96875787 104.8583749 68.92489389 102.71239126 69.875 100.5625 C70.40867187 99.36753906 70.94234375 98.17257813 71.4921875 96.94140625 C77.25792939 82.74216429 77.06467965 65.47618695 71.54296875 51.29296875 C63.32622184 33.75697472 50.75461172 22.52876795 32.8125 15.6875 C32.16458496 15.45708008 31.51666992 15.22666016 30.84912109 14.98925781 C27.34171265 13.71434714 26.14280022 13.21420033 24 10 C23.54332937 6.4227467 23.56222569 4.66541695 25.5625 1.625 C28.88953222 -0.59302148 31.19237231 -0.75886286 35 0 C54.83823437 5.99390504 71.72584041 18.66620517 82.01220703 36.78271484 C91.6226374 54.74962972 94.05080549 75.18199074 89 95 C82.58124414 115.44234203 70.30284095 133.00444518 51.1171875 143.140625 C39.32345134 148.982604 27.81990503 152.21396441 14.625 152.125 C13.4963855 152.11774902 13.4963855 152.11774902 12.3449707 152.11035156 C-8.61007523 151.8834917 -26.96778299 143.56730308 -42 129 C-44.92500512 125.82258327 -47.52099886 122.53425162 -50 119 C-50.53109375 118.25621094 -51.0621875 117.51242188 -51.609375 116.74609375 C-62.4397531 100.24930648 -65.87998386 78.66822815 -62.1875 59.375 C-61.81439411 57.91068715 -61.41933545 56.45174995 -61 55 C-60.81695312 54.22269531 -60.63390625 53.44539063 -60.4453125 52.64453125 C-57.44259815 40.98584405 -50.9339845 30.91424514 -43 22 C-42.06027344 20.93652344 -42.06027344 20.93652344 -41.1015625 19.8515625 C-31.7252505 9.86291993 -14.29267489 -2.0418107 0 0 Z " fill="#020203" transform="translate(242,89)"/>
<path d="M0 0 C37.87831913 -0.06779184 75.75662233 -0.12151409 113.6349899 -0.15319599 C118.10488595 -0.1569482 122.57478187 -0.16083115 127.04467773 -0.16479492 C127.93456938 -0.16558185 128.82446103 -0.16636878 129.7413191 -0.16717956 C144.15831429 -0.18024046 158.57527367 -0.20389807 172.9922476 -0.23145839 C187.7807418 -0.25949356 202.56921721 -0.27617226 217.35773689 -0.28226548 C226.48615506 -0.28638585 235.61447202 -0.29940885 244.74285904 -0.3237494 C250.99894762 -0.33958329 257.25498372 -0.34440569 263.5110909 -0.34050413 C267.12283004 -0.33857891 270.73439205 -0.34157073 274.34609985 -0.35761642 C278.25929761 -0.37487488 282.17226326 -0.36897754 286.085495 -0.36076355 C287.23043338 -0.36950207 288.37537176 -0.3782406 289.55500525 -0.38724393 C290.60301238 -0.38127078 291.6510195 -0.37529764 292.73078442 -0.36914349 C293.63413908 -0.37028265 294.53749375 -0.37142181 295.4682228 -0.37259549 C301.24511833 0.47757617 303.38016552 3.4752069 307 8 C307 18.89 307 29.78 307 41 C205.69 41 104.38 41 0 41 C0 27.47 0 13.94 0 0 Z " fill="#5AB0F4" transform="translate(130,15)"/>
<path d="M0 0 C8.58 0 17.16 0 26 0 C26.17072543 28.9247855 26.32949547 57.84962808 26.48164892 86.77451706 C26.49991641 90.23416979 26.51837423 93.69382146 26.53688431 97.1534729 C26.83376408 152.75773843 27.04543478 208.36061667 26.9991622 263.96576214 C26.99610936 267.68410668 26.99340398 271.40245133 26.99078751 275.1207962 C26.9744583 297.80134367 26.95181317 320.48185225 26.89793819 343.16234469 C26.87711489 352.06489419 26.86279569 360.96743905 26.85329586 369.87000775 C26.84628106 376.00247471 26.83063494 382.13483389 26.8080343 388.26726222 C26.79637466 391.98890825 26.79299992 395.71052673 26.79204655 399.43218946 C26.78992632 401.13792831 26.78437099 402.84366701 26.77505589 404.54938173 C26.76284864 406.86728718 26.76301869 409.18487959 26.76622009 411.50280762 C26.76150649 413.43488697 26.76150649 413.43488697 26.75669765 415.40599823 C27.01842989 419.27224177 27.80733626 422.33091892 29 426 C25.64650673 426.17576433 22.29421021 426.28132437 18.9375 426.375 C17.99455078 426.42527344 17.05160156 426.47554688 16.08007812 426.52734375 C11.06753684 426.63213555 7.8311091 426.43046271 3.87890625 423.1640625 C0.91382696 420.31280328 0.04628866 418.13539467 -0.1241985 413.95358831 C-0.12381878 412.68798045 -0.12343906 411.42237259 -0.12304783 410.11841297 C-0.12420167 409.41089961 -0.12535552 408.70338625 -0.12654433 407.97443309 C-0.12920713 405.58570009 -0.12469157 403.19703346 -0.12025452 400.80830383 C-0.12069029 399.08567275 -0.1215653 397.36304174 -0.12284368 395.64041108 C-0.1250875 390.89272444 -0.12106889 386.1450602 -0.11606562 381.39737642 C-0.1117597 376.28286194 -0.11320765 371.16834879 -0.1139679 366.05383301 C-0.11449304 357.18792228 -0.11134723 348.32201889 -0.10573006 339.45611 C-0.09761378 326.6373871 -0.0949997 313.81866776 -0.09374207 300.99994256 C-0.09155175 280.20397988 -0.08489221 259.40802111 -0.07543945 238.61206055 C-0.06626481 218.40698262 -0.05918423 198.20190576 -0.05493164 177.99682617 C-0.05466892 176.75203719 -0.05440619 175.5072482 -0.05413551 174.22473834 C-0.0528305 167.98019253 -0.05156679 161.73564672 -0.05032361 155.49110091 C-0.03995162 103.66073121 -0.02225968 51.83036585 0 0 Z " fill="#B0D9F9" transform="translate(75,71)"/>
<path d="M0 0 C0.79073914 -0.0049649 1.58147827 -0.00992981 2.3961792 -0.01504517 C5.00778071 -0.02963052 7.61932151 -0.03646233 10.23095703 -0.04199219 C12.04932659 -0.04774612 13.86769614 -0.05350383 15.68606567 -0.05926514 C19.49741905 -0.06976445 23.30875139 -0.07561428 27.12011719 -0.07910156 C31.99813787 -0.08458751 36.8758796 -0.10862217 41.75381279 -0.13707352 C45.50966194 -0.15571741 49.26544409 -0.16090641 53.0213356 -0.16243744 C54.81943412 -0.16545996 56.61753157 -0.17347496 58.41558456 -0.18662262 C60.93352119 -0.20372172 63.4507785 -0.20179372 65.96875 -0.1953125 C66.70765472 -0.20452728 67.44655945 -0.21374207 68.20785522 -0.22323608 C73.77519459 -0.17845834 77.8891346 1.06708442 81.97705078 4.91503906 C82.45529297 5.511875 82.93353516 6.10871094 83.42626953 6.72363281 C84.16296875 7.62275391 84.16296875 7.62275391 84.91455078 8.54003906 C87.42065946 11.92777556 87.25651006 14.433871 87.29077148 18.61108398 C87.29734268 19.27312836 87.30391388 19.93517273 87.3106842 20.61727905 C87.33042657 22.8128877 87.34208416 25.00842779 87.35205078 27.20410156 C87.35612631 27.95477716 87.36020184 28.70545277 87.36440086 29.47887611 C87.38526944 33.45507152 87.39956554 37.43123237 87.40893555 41.4074707 C87.4199786 45.50535638 87.45435121 49.60269582 87.49410725 53.70038891 C87.52032059 56.85837274 87.52863171 60.01622764 87.53221703 63.17431068 C87.53707387 64.68412257 87.54866217 66.19392905 87.56725502 67.70363426 C87.73659838 82.37025257 87.73659838 82.37025257 83.11376953 88.16113281 C77.62976941 93.36390216 72.63121364 94.46087976 65.23754883 94.45166016 C64.07067032 94.46173599 64.07067032 94.46173599 62.88021851 94.47201538 C60.31607624 94.49096656 57.75219617 94.49491824 55.18798828 94.49707031 C53.3982584 94.50350075 51.60852957 94.51022929 49.81880188 94.51724243 C46.06887374 94.52920835 42.31903768 94.53292401 38.5690918 94.53173828 C33.77749142 94.53153525 28.98648517 94.55882424 24.19502544 94.5932827 C20.49826884 94.61558481 16.8016544 94.61957479 13.10483742 94.61851883 C11.33908862 94.6208703 9.57333563 94.62966818 7.80765343 94.64518356 C5.3307444 94.66490915 2.85510588 94.65898036 0.37817383 94.64697266 C-0.34261856 94.65821167 -1.06341095 94.66945068 -1.80604553 94.68103027 C-8.141582 94.60347698 -12.9507944 92.40683605 -17.95443726 88.57888794 C-23.39315941 82.00762244 -22.72054229 74.36214338 -22.61279297 66.27832031 C-22.61175398 64.73471071 -22.61279628 63.19109845 -22.61581421 61.64749146 C-22.61563551 58.42458185 -22.59493055 55.20268065 -22.55859375 51.97998047 C-22.51314202 47.859567 -22.51215177 43.74061916 -22.52562904 39.62002373 C-22.53232627 36.43709394 -22.51901723 33.2544954 -22.49937057 30.07162857 C-22.49170223 28.55267192 -22.4893553 27.03367832 -22.49254227 25.51470566 C-22.49328817 23.38946597 -22.46792887 21.26607382 -22.43554688 19.14111328 C-22.42633209 17.93502411 -22.41711731 16.72893494 -22.40762329 15.48629761 C-21.36650387 8.84659431 -17.06550148 4.93768459 -11.88623047 1.16113281 C-8.06529721 -0.25180536 -4.01981722 0.00604828 0 0 Z " fill="#42C88C" transform="translate(123.88623046875,375.8388671875)"/>
<path d="M0 0 C0.80747177 -0.00700928 1.61494354 -0.01401855 2.44688416 -0.02124023 C5.09784035 -0.03874619 7.74771588 -0.02722318 10.39868164 -0.01367188 C12.25281477 -0.01636919 14.10694652 -0.0202536 15.96107483 -0.02526855 C19.84039829 -0.0311538 23.71935241 -0.02263311 27.59863281 -0.00390625 C32.55613888 0.01886678 37.51277785 0.00576455 42.47025204 -0.01819611 C46.29743405 -0.0326941 50.12441268 -0.02802953 53.95160103 -0.01768494 C55.77873399 -0.01502787 57.60588578 -0.01825131 59.43299675 -0.02760315 C61.99358441 -0.03783325 64.55279536 -0.02217823 67.11328125 0 C67.85898376 -0.00809692 68.60468628 -0.01619385 69.37298584 -0.02453613 C75.45315407 0.07237346 80.88821115 1.76460437 85.25718689 6.16530609 C90.23047256 12.32665286 89.32576997 20.40915147 89.25024414 27.89257812 C89.25107428 29.38655775 89.25353914 30.88053726 89.2575531 32.37451172 C89.26040051 35.4947482 89.24581518 38.61426267 89.21826172 41.734375 C89.18417964 45.71556841 89.19020663 49.69547211 89.20892429 53.67672729 C89.21953922 56.75848975 89.21051609 59.83995684 89.19553947 62.92169189 C89.19039003 64.38876465 89.19079976 65.85586868 89.19708443 67.32293701 C89.21827284 75.23949006 89.17950842 81.77039149 84.62133789 88.51757812 C79.03493244 92.96390083 74.63110314 93.67168847 67.69677734 93.71044922 C66.48644585 93.72271545 66.48644585 93.72271545 65.25166321 93.73522949 C62.57932268 93.76005559 59.90703525 93.77659414 57.23461914 93.79101562 C55.86362092 93.79900114 55.86362092 93.79900114 54.46492577 93.80714798 C49.62522597 93.83387001 44.78555187 93.85324621 39.94580078 93.86767578 C35.94654415 93.88100474 31.94779898 93.90883933 27.94873047 93.94970703 C23.11468937 93.99910511 18.28111155 94.02380584 13.44682884 94.03090286 C11.60848115 94.03760294 9.77014329 94.05279257 7.93194008 94.07679367 C5.3517079 94.1085558 2.77324893 94.10846571 0.19287109 94.10107422 C-0.5591156 94.11747955 -1.31110229 94.13388489 -2.08587646 94.15078735 C-7.87028407 94.08334404 -11.92715213 92.20807527 -16.37866211 88.51757812 C-21.84433949 81.84804342 -20.98007869 73.31524798 -20.94506836 65.14257812 C-20.95031225 63.64859634 -20.95659152 62.15461787 -20.96385193 60.66064453 C-20.97421952 57.54053079 -20.96974708 54.42087417 -20.95507812 51.30078125 C-20.93788394 47.31946273 -20.96141044 43.33958668 -20.99656773 39.35842896 C-21.0186169 36.27667843 -21.0170825 33.19526923 -21.00880241 30.11346436 C-21.00798721 28.64636654 -21.01476764 27.17924257 -21.02957344 25.71221924 C-21.14638411 12.04697687 -21.14638411 12.04697687 -17.13389587 6.11767578 C-11.70891774 1.17218363 -7.10522897 -0.07694054 0 0 Z " fill="#42CA8D" transform="translate(122.378662109375,263.482421875)"/>
<path d="M0 0 C0.79073914 -0.0049649 1.58147827 -0.00992981 2.3961792 -0.01504517 C5.00778071 -0.02963052 7.61932151 -0.03646233 10.23095703 -0.04199219 C12.04932659 -0.04774612 13.86769614 -0.05350383 15.68606567 -0.05926514 C19.49741905 -0.06976445 23.30875139 -0.07561428 27.12011719 -0.07910156 C31.99813787 -0.08458751 36.8758796 -0.10862217 41.75381279 -0.13707352 C45.50966194 -0.15571741 49.26544409 -0.16090641 53.0213356 -0.16243744 C54.81943412 -0.16545996 56.61753157 -0.17347496 58.41558456 -0.18662262 C60.93352119 -0.20372172 63.4507785 -0.20179372 65.96875 -0.1953125 C66.70765472 -0.20452728 67.44655945 -0.21374207 68.20785522 -0.22323608 C73.77519459 -0.17845834 77.8891346 1.06708442 81.97705078 4.91503906 C82.45529297 5.511875 82.93353516 6.10871094 83.42626953 6.72363281 C84.16296875 7.62275391 84.16296875 7.62275391 84.91455078 8.54003906 C87.42065946 11.92777556 87.25651006 14.433871 87.29077148 18.61108398 C87.29734268 19.27312836 87.30391388 19.93517273 87.3106842 20.61727905 C87.33042657 22.8128877 87.34208416 25.00842779 87.35205078 27.20410156 C87.35612631 27.95477716 87.36020184 28.70545277 87.36440086 29.47887611 C87.38526944 33.45507152 87.39956554 37.43123237 87.40893555 41.4074707 C87.4199786 45.50535638 87.45435121 49.60269582 87.49410725 53.70038891 C87.52032059 56.85837274 87.52863171 60.01622764 87.53221703 63.17431068 C87.53707387 64.68412257 87.54866217 66.19392905 87.56725502 67.70363426 C87.73659838 82.37025257 87.73659838 82.37025257 83.11376953 88.16113281 C77.62976941 93.36390216 72.63121364 94.46087976 65.23754883 94.45166016 C64.07067032 94.46173599 64.07067032 94.46173599 62.88021851 94.47201538 C60.31607624 94.49096656 57.75219617 94.49491824 55.18798828 94.49707031 C53.3982584 94.50350075 51.60852957 94.51022929 49.81880188 94.51724243 C46.06887374 94.52920835 42.31903768 94.53292401 38.5690918 94.53173828 C33.77749142 94.53153525 28.98648517 94.55882424 24.19502544 94.5932827 C20.49826884 94.61558481 16.8016544 94.61957479 13.10483742 94.61851883 C11.33908862 94.6208703 9.57333563 94.62966818 7.80765343 94.64518356 C5.3307444 94.66490915 2.85510588 94.65898036 0.37817383 94.64697266 C-0.34261856 94.65821167 -1.06341095 94.66945068 -1.80604553 94.68103027 C-8.141582 94.60347698 -12.9507944 92.40683605 -17.95443726 88.57888794 C-23.39315941 82.00762244 -22.72054229 74.36214338 -22.61279297 66.27832031 C-22.61175398 64.73471071 -22.61279628 63.19109845 -22.61581421 61.64749146 C-22.61563551 58.42458185 -22.59493055 55.20268065 -22.55859375 51.97998047 C-22.51314202 47.859567 -22.51215177 43.74061916 -22.52562904 39.62002373 C-22.53232627 36.43709394 -22.51901723 33.2544954 -22.49937057 30.07162857 C-22.49170223 28.55267192 -22.4893553 27.03367832 -22.49254227 25.51470566 C-22.49328817 23.38946597 -22.46792887 21.26607382 -22.43554688 19.14111328 C-22.42633209 17.93502411 -22.41711731 16.72893494 -22.40762329 15.48629761 C-21.36650387 8.84659431 -17.06550148 4.93768459 -11.88623047 1.16113281 C-8.06529721 -0.25180536 -4.01981722 0.00604828 0 0 Z M-6.88623047 16.16113281 C-6.9854391 18.08875099 -7.01422412 20.02002635 -7.015625 21.95019531 C-7.01877716 23.18817871 -7.02192932 24.42616211 -7.025177 25.70166016 C-7.02338722 27.0631514 -7.02133627 28.42464232 -7.01904297 29.78613281 C-7.01971606 31.17236345 -7.02068613 32.55859398 -7.02194214 33.94482422 C-7.02341887 36.85352703 -7.02126537 39.76219918 -7.01660156 42.67089844 C-7.01090427 46.4070988 -7.01418341 50.14322733 -7.02017403 53.87942505 C-7.02378032 56.74292547 -7.02264074 59.60640874 -7.02004623 62.46990967 C-7.01937715 63.84788013 -7.02020473 65.22585213 -7.02252579 66.6038208 C-7.02505339 68.52657035 -7.0205207 70.44932533 -7.015625 72.37207031 C-7.01482941 73.46825684 -7.01403381 74.56444336 -7.01321411 75.69384766 C-7.16527282 78.10536633 -7.16527282 78.10536633 -5.88623047 79.16113281 C-3.48813898 79.26141077 -1.11883548 79.29731957 1.27978516 79.29052734 C2.40413216 79.29315582 2.40413216 79.29315582 3.55119324 79.2958374 C6.04082522 79.30025601 8.53038676 79.29731791 11.02001953 79.29394531 C12.74255385 79.29461835 14.46508808 79.29558837 16.18762207 79.29684448 C19.80249941 79.29832147 23.41735208 79.29616688 27.03222656 79.29150391 C31.67643446 79.28580662 36.32058457 79.28908562 40.96479034 79.29507637 C44.52313679 79.29868197 48.08146943 79.2975434 51.63981628 79.29494858 C53.35271715 79.29427931 55.06561925 79.29510774 56.77851868 79.29742813 C59.16829775 79.29995464 61.55798194 79.29611411 63.94775391 79.29052734 C64.66259445 79.29255157 65.377435 79.29457581 66.11393738 79.29666138 C69.39549271 79.56517147 69.39549271 79.56517147 72.11376953 78.16113281 C72.21297816 76.23351464 72.24176318 74.30223927 72.24316406 72.37207031 C72.2478923 70.51509521 72.2478923 70.51509521 72.25271606 68.62060547 C72.25092628 67.25911422 72.24887533 65.8976233 72.24658203 64.53613281 C72.24725512 63.14990217 72.24822519 61.76367164 72.2494812 60.37744141 C72.25095793 57.4687386 72.24880443 54.56006644 72.24414062 51.65136719 C72.23844334 47.91516683 72.24172248 44.1790383 72.24771309 40.44284058 C72.25131938 37.57934016 72.2501798 34.71585688 72.2475853 31.85235596 C72.24691622 30.47438549 72.2477438 29.09641349 72.25006485 27.71844482 C72.25259245 25.79569527 72.24805977 23.87294029 72.24316406 21.95019531 C72.24236847 20.85400879 72.24157288 19.75782227 72.24075317 18.62841797 C72.39281188 16.2168993 72.39281188 16.2168993 71.11376953 15.16113281 C68.71567804 15.06085486 66.34637455 15.02494605 63.94775391 15.03173828 C62.82340691 15.0291098 62.82340691 15.0291098 61.67634583 15.02642822 C59.18671384 15.02200961 56.6971523 15.02494772 54.20751953 15.02832031 C52.48498521 15.02764728 50.76245098 15.02667725 49.03991699 15.02542114 C45.42503965 15.02394416 41.81018698 15.02609874 38.1953125 15.03076172 C33.5511046 15.03645901 28.90695449 15.03318001 24.26274872 15.02718925 C20.70440227 15.02358366 17.14606963 15.02472222 13.58772278 15.02731705 C11.87482191 15.02798632 10.16191981 15.02715788 8.44902039 15.02483749 C6.05924132 15.02231099 3.66955712 15.02615151 1.27978516 15.03173828 C0.56494461 15.02971405 -0.14989594 15.02768982 -0.88639832 15.02560425 C-4.16795365 14.75709415 -4.16795365 14.75709415 -6.88623047 16.16113281 Z " fill="#020403" transform="translate(123.88623046875,375.8388671875)"/>
<path d="M0 0 C0.80747177 -0.00700928 1.61494354 -0.01401855 2.44688416 -0.02124023 C5.09784035 -0.03874619 7.74771588 -0.02722318 10.39868164 -0.01367188 C12.25281477 -0.01636919 14.10694652 -0.0202536 15.96107483 -0.02526855 C19.84039829 -0.0311538 23.71935241 -0.02263311 27.59863281 -0.00390625 C32.55613888 0.01886678 37.51277785 0.00576455 42.47025204 -0.01819611 C46.29743405 -0.0326941 50.12441268 -0.02802953 53.95160103 -0.01768494 C55.77873399 -0.01502787 57.60588578 -0.01825131 59.43299675 -0.02760315 C61.99358441 -0.03783325 64.55279536 -0.02217823 67.11328125 0 C67.85898376 -0.00809692 68.60468628 -0.01619385 69.37298584 -0.02453613 C75.45315407 0.07237346 80.88821115 1.76460437 85.25718689 6.16530609 C90.23047256 12.32665286 89.32576997 20.40915147 89.25024414 27.89257812 C89.25107428 29.38655775 89.25353914 30.88053726 89.2575531 32.37451172 C89.26040051 35.4947482 89.24581518 38.61426267 89.21826172 41.734375 C89.18417964 45.71556841 89.19020663 49.69547211 89.20892429 53.67672729 C89.21953922 56.75848975 89.21051609 59.83995684 89.19553947 62.92169189 C89.19039003 64.38876465 89.19079976 65.85586868 89.19708443 67.32293701 C89.21827284 75.23949006 89.17950842 81.77039149 84.62133789 88.51757812 C79.03493244 92.96390083 74.63110314 93.67168847 67.69677734 93.71044922 C66.48644585 93.72271545 66.48644585 93.72271545 65.25166321 93.73522949 C62.57932268 93.76005559 59.90703525 93.77659414 57.23461914 93.79101562 C55.86362092 93.79900114 55.86362092 93.79900114 54.46492577 93.80714798 C49.62522597 93.83387001 44.78555187 93.85324621 39.94580078 93.86767578 C35.94654415 93.88100474 31.94779898 93.90883933 27.94873047 93.94970703 C23.11468937 93.99910511 18.28111155 94.02380584 13.44682884 94.03090286 C11.60848115 94.03760294 9.77014329 94.05279257 7.93194008 94.07679367 C5.3517079 94.1085558 2.77324893 94.10846571 0.19287109 94.10107422 C-0.5591156 94.11747955 -1.31110229 94.13388489 -2.08587646 94.15078735 C-7.87028407 94.08334404 -11.92715213 92.20807527 -16.37866211 88.51757812 C-21.84433949 81.84804342 -20.98007869 73.31524798 -20.94506836 65.14257812 C-20.95031225 63.64859634 -20.95659152 62.15461787 -20.96385193 60.66064453 C-20.97421952 57.54053079 -20.96974708 54.42087417 -20.95507812 51.30078125 C-20.93788394 47.31946273 -20.96141044 43.33958668 -20.99656773 39.35842896 C-21.0186169 36.27667843 -21.0170825 33.19526923 -21.00880241 30.11346436 C-21.00798721 28.64636654 -21.01476764 27.17924257 -21.02957344 25.71221924 C-21.14638411 12.04697687 -21.14638411 12.04697687 -17.13389587 6.11767578 C-11.70891774 1.17218363 -7.10522897 -0.07694054 0 0 Z M-5.37866211 16.51757812 C-5.47782005 18.41456661 -5.50665525 20.31526599 -5.50805664 22.21484375 C-5.5112088 23.4328064 -5.51436096 24.65076904 -5.51760864 25.90563965 C-5.51581886 27.24503617 -5.51376791 28.58443237 -5.51147461 29.92382812 C-5.51214771 31.28763852 -5.51311778 32.6514488 -5.51437378 34.01525879 C-5.51585049 36.87688334 -5.51369708 39.73847672 -5.5090332 42.60009766 C-5.50333591 46.27576426 -5.50661507 49.95135786 -5.51260567 53.62702179 C-5.51621202 56.44419916 -5.51507236 59.2613591 -5.51247787 62.07853699 C-5.51180881 63.43417876 -5.51263632 64.78982209 -5.51495743 66.14546204 C-5.51748512 68.03707857 -5.51295225 69.92870062 -5.50805664 71.8203125 C-5.50726105 72.89873413 -5.50646545 73.97715576 -5.50564575 75.08825684 C-5.65304757 77.46626992 -5.65304757 77.46626992 -4.37866211 78.51757812 C-1.98057062 78.61785608 0.38873287 78.65376489 2.78735352 78.64697266 C3.91170052 78.64960114 3.91170052 78.64960114 5.0587616 78.65228271 C7.54839358 78.65670132 10.03795512 78.65376322 12.52758789 78.65039062 C14.25012221 78.65106366 15.97265644 78.65203368 17.69519043 78.65328979 C21.31006777 78.65476678 24.92492044 78.65261219 28.53979492 78.64794922 C33.18400282 78.64225193 37.82815293 78.64553093 42.4723587 78.65152168 C46.03070515 78.65512728 49.58903779 78.65398872 53.14738464 78.65139389 C54.86028551 78.65072462 56.57318761 78.65155305 58.28608704 78.65387344 C60.67586611 78.65639995 63.0655503 78.65255942 65.45532227 78.64697266 C66.17016281 78.64899689 66.88500336 78.65102112 67.62150574 78.65310669 C70.90306107 78.92161678 70.90306107 78.92161678 73.62133789 77.51757812 C73.72049584 75.62058964 73.74933103 73.71989026 73.75073242 71.8203125 C73.75546066 69.99336853 73.75546066 69.99336853 73.76028442 68.1295166 C73.75849464 66.79012008 73.75644369 65.45072388 73.75415039 64.11132812 C73.75482349 62.74751773 73.75579356 61.38370745 73.75704956 60.01989746 C73.75852627 57.15827291 73.75637286 54.29667953 73.75170898 51.43505859 C73.7460117 47.75939199 73.74929085 44.08379839 73.75528145 40.40813446 C73.7588878 37.59095709 73.75774814 34.77379715 73.75515366 31.95661926 C73.75448459 30.60097749 73.7553121 29.24533416 73.75763321 27.88969421 C73.7601609 25.99807768 73.75562803 24.10645563 73.75073242 22.21484375 C73.74993683 21.13642212 73.74914124 20.05800049 73.74832153 18.94689941 C73.89572335 16.56888633 73.89572335 16.56888633 72.62133789 15.51757812 C70.2232464 15.41730017 67.85394291 15.38139136 65.45532227 15.38818359 C64.33097527 15.38555511 64.33097527 15.38555511 63.18391418 15.38287354 C60.6942822 15.37845493 58.20472066 15.38139303 55.71508789 15.38476562 C53.99255357 15.38409259 52.27001934 15.38312257 50.54748535 15.38186646 C46.93260801 15.38038947 43.31775534 15.38254406 39.70288086 15.38720703 C35.05867296 15.39290432 30.41452285 15.38962532 25.77031708 15.38363457 C22.21197063 15.38002897 18.65363799 15.38116753 15.09529114 15.38376236 C13.38239027 15.38443163 11.66948817 15.3836032 9.95658875 15.38128281 C7.56680967 15.3787563 5.17712548 15.38259683 2.78735352 15.38818359 C2.07251297 15.38615936 1.35767242 15.38413513 0.62117004 15.38204956 C-2.66038529 15.11353947 -2.66038529 15.11353947 -5.37866211 16.51757812 Z " fill="#010302" transform="translate(122.378662109375,263.482421875)"/>
<path d="M0 0 C6.6 0 13.2 0 20 0 C20.99 3.465 20.99 3.465 22 7 C23.73913804 8.51315434 23.73913804 8.51315434 25.96484375 9.15234375 C26.75971191 9.44931152 27.55458008 9.7462793 28.37353516 10.05224609 C29.21964355 10.34437988 30.06575195 10.63651367 30.9375 10.9375 C49.23434097 17.96263831 61.22021446 30.03633132 69.3203125 47.9140625 C74.63926809 62.30871854 73.76440324 80.48921728 67.46484375 94.38671875 C66.03596341 97.29514894 64.55681555 100.15843376 63 103 C62.67 103 62.34 103 62 103 C61.85304688 102.2265625 61.70609375 101.453125 61.5546875 100.65625 C59.36140251 90.47134041 55.55350922 84.22748823 47.03515625 78.1875 C44.08342701 76.46518582 41.33711616 75.69523253 38 75 C38.49135625 72.90100241 39.04194802 70.88002431 39.75390625 68.84375 C42.92174987 59.66159457 43.59373776 50.43388031 39.44140625 41.44921875 C34.76952875 33.51082528 29.05838448 27.89238457 20.3046875 24.78515625 C10.38631994 22.42866467 1.55853026 22.99159836 -7.33984375 28.10546875 C-14.72916411 33.36805374 -19.92517039 40.08736713 -22 49 C-22.91311933 56.92419649 -21.60404958 63.55214835 -19 71 C-18.65168938 72.32949938 -18.31325859 73.66180796 -18 75 C-18.54527344 75.12375 -19.09054688 75.2475 -19.65234375 75.375 C-27.64541294 77.56113858 -33.94579313 82.35462852 -38.4375 89.375 C-40.36336643 93.84301011 -41.26717921 98.20773772 -42 103 C-44.90831041 100.50716251 -46.11349581 97.89076566 -47.5625 94.375 C-47.97628906 93.39273438 -48.39007813 92.41046875 -48.81640625 91.3984375 C-54.28706528 75.69060465 -54.08309239 58.11657439 -47 43 C-37.74846724 25.30041748 -23.67238064 14.61177228 -4.984375 8.6796875 C-1.09942165 6.95368276 -1.09942165 6.95368276 0 0 Z " fill="#5AB0F4" transform="translate(246,94)"/>
<path d="M0 0 C1.5567266 -0.0083016 1.5567266 -0.0083016 3.14490223 -0.0167709 C6.63354523 -0.03041872 10.12147793 -0.01538522 13.61010742 -0.00050354 C16.10664169 -0.0042852 18.60317387 -0.00978396 21.09970093 -0.01687622 C27.18330721 -0.02941388 33.26663355 -0.02324541 39.35021281 -0.00820064 C46.43275879 0.00864873 53.51525295 0.00545056 60.59781277 0.00170528 C73.23378888 -0.0041751 85.86966537 0.0100052 98.50561523 0.03465271 C110.77062718 0.05857403 123.03550603 0.06565721 135.30053711 0.05516052 C148.65205649 0.04375448 162.00351429 0.04181735 175.35503292 0.05625862 C176.77838579 0.05778448 178.20173867 0.05930484 179.62509155 0.06081963 C180.67560337 0.06195635 180.67560337 0.06195635 181.74733764 0.06311603 C186.68578525 0.0678613 191.62420539 0.06600571 196.56265259 0.06175423 C203.20777987 0.05631675 209.85274925 0.06705648 216.49785233 0.08870888 C218.94080609 0.09428671 221.38377758 0.09473298 223.82673264 0.08975601 C227.15341295 0.08382724 230.47952347 0.09626255 233.80615234 0.11352539 C234.78007337 0.10751535 235.75399439 0.1015053 236.75742817 0.09531313 C237.64770804 0.10375307 238.53798792 0.11219301 239.45524597 0.12088871 C240.60710278 0.1224324 240.60710278 0.1224324 241.78222942 0.12400728 C244.48812218 0.60525741 245.88817604 1.66525678 247.90307617 3.50120544 C248.59600611 6.20745149 248.38947809 8.76018758 247.90307617 11.50120544 C246.35969526 13.67596946 245.26642344 14.31953181 242.90307617 15.50120544 C241.5164758 15.59816196 240.12534921 15.63396872 238.73536968 15.63821983 C237.85665539 15.64329438 236.97794111 15.64836892 236.07259911 15.65359724 C234.61567508 15.65434387 234.61567508 15.65434387 233.12931824 15.65510559 C231.58846391 15.66167897 231.58846391 15.66167897 230.01648122 15.66838515 C226.55183855 15.6818096 223.08722134 15.68796015 219.62255859 15.69407654 C217.14764795 15.70197454 214.67273846 15.7102433 212.1978302 15.71885681 C204.75475438 15.74284215 197.31168274 15.7580087 189.8685815 15.77091688 C187.76700856 15.774628 185.66543628 15.77860129 183.56386399 15.78266954 C170.51848746 15.80790388 157.4731099 15.82996095 144.42771435 15.84239769 C141.40542281 15.84532747 138.3831313 15.84828912 135.36083984 15.8513031 C134.60964748 15.85204915 133.85845511 15.8527952 133.08449934 15.85356386 C120.91146361 15.86622164 108.7385738 15.8994499 96.56560632 15.94110493 C84.07323078 15.98350324 71.58092999 16.00709023 59.08848268 16.01231825 C52.07221167 16.01573465 45.05616876 16.02751647 38.03996849 16.06042099 C31.44162936 16.09131483 24.84361628 16.09685019 18.24519157 16.08503723 C15.82037627 16.08481564 13.39554303 16.09319082 10.97079086 16.11069107 C7.66597045 16.13324909 4.36261099 16.12514876 1.05778503 16.10920715 C-0.38910075 16.13003028 -0.38910075 16.13003028 -1.86521655 16.15127409 C-6.43624025 16.09676472 -8.45430509 15.98772224 -12.19643688 13.15461159 C-14.09692383 10.50120544 -14.09692383 10.50120544 -14.65942383 7.43870544 C-13.10103311 -0.69955721 -6.86366803 -0.06769089 0 0 Z " fill="#000102" transform="translate(166.096923828125,27.498794555664063)"/>
<path d="M0 0 C1.15367065 -0.00145523 2.30734131 -0.00291046 3.49597168 -0.00440979 C5.93012014 -0.00275308 8.36427933 0.00878247 10.79833984 0.02954102 C14.51835756 0.05849341 18.23694929 0.05014417 21.95703125 0.03710938 C24.32552774 0.04334721 26.69401974 0.0517385 29.0625 0.0625 C30.17202026 0.05956436 31.28154053 0.05662872 32.42468262 0.05360413 C38.00860267 0.12162366 42.26199604 0.24614064 47.03125 3.49609375 C53.32324518 10.46830463 52.84143632 17.45354014 52.609375 26.51171875 C52.37462883 29.7168175 52.17797135 31.24954138 50.515625 34.04296875 C48.06894944 35.72845636 45.86385587 36.59255729 43.03125 37.49609375 C41.89816406 37.95628906 40.76507813 38.41648438 39.59765625 38.890625 C22.50160005 45.57078474 4.83816035 45.11098917 -12.08203125 38.0078125 C-13.03464844 37.50894531 -13.98726562 37.01007813 -14.96875 36.49609375 C-15.59160889 36.19388916 -16.21446777 35.89168457 -16.85620117 35.58032227 C-18.95301018 34.38233564 -20.40952838 33.34751724 -21.96875 31.49609375 C-22.9252299 27.98699165 -22.81356264 24.67179045 -22.65625 21.05859375 C-22.65818359 20.12982422 -22.66011719 19.20105469 -22.66210938 18.24414062 C-22.54467792 12.55478921 -21.91163135 8.87487153 -17.96875 4.49609375 C-12.43090543 -0.4254323 -7.17986982 -0.07269674 0 0 Z " fill="#FD646E" transform="translate(240.96875,182.50390625)"/>
<path d="M0 0 C0.98729434 -0.00935994 0.98729434 -0.00935994 1.99453402 -0.01890898 C4.19264691 -0.03482127 6.3896481 -0.02224298 8.58776855 -0.00964355 C10.16658677 -0.01506551 11.74539991 -0.02218858 13.32420349 -0.03088379 C17.60729069 -0.04911154 21.88999227 -0.042052 26.17308617 -0.02936745 C30.65641694 -0.0192369 35.1397148 -0.02863328 39.62304688 -0.03491211 C47.15187505 -0.04218836 54.68054625 -0.03260142 62.20935059 -0.0135498 C70.91238183 0.00821894 79.61503824 0.00116755 88.3180604 -0.02085543 C95.79167084 -0.03901009 103.26516848 -0.04156744 110.73879385 -0.03110075 C115.20186602 -0.02486617 119.66476204 -0.02402918 124.12782288 -0.0372467 C128.32388916 -0.04880559 132.5194724 -0.04077908 136.71548653 -0.01766968 C138.25498719 -0.01238275 139.79452853 -0.01389615 141.33401299 -0.02272034 C143.43668344 -0.03366104 145.53780873 -0.01993322 147.64038086 0 C148.81654716 0.0015081 149.99271347 0.0030162 151.20452118 0.00457001 C154.99307826 0.61664569 156.66797224 1.76887839 159.32019043 4.50793457 C159.88269043 8.00793457 159.88269043 8.00793457 159.32019043 11.50793457 C157.13416167 14.45904612 155.9511724 15.40299544 152.29354095 16.01129913 C151.10040535 16.01280724 149.90726974 16.01431534 148.67797852 16.01586914 C148.01176404 16.0221091 147.34554957 16.02834907 146.65914679 16.03477812 C144.4279622 16.05072637 142.19786738 16.03809794 139.9666748 16.0255127 C138.36667748 16.03093305 136.76668514 16.03805522 135.16670227 16.04675293 C130.82164351 16.06499972 126.47696434 16.05791327 122.13189888 16.04523659 C117.58670141 16.0351159 113.04153663 16.04449967 108.49633789 16.05078125 C100.86318114 16.05806038 93.23017916 16.04846302 85.5970459 16.02941895 C76.76961728 16.00764966 67.94255819 16.01470084 59.11513853 16.03672457 C51.53880508 16.05487103 43.96258292 16.05744059 36.38623476 16.04696989 C31.86002323 16.0407308 27.33398544 16.0399107 22.80778503 16.05311584 C18.55264153 16.06466282 14.29797486 16.05667003 10.04288292 16.03353882 C8.48038716 16.02824551 6.91785134 16.02977616 5.35537148 16.03858948 C3.22383836 16.04950494 1.09383753 16.0358328 -1.03759766 16.01586914 C-2.82730106 16.01360699 -2.82730106 16.01360699 -4.6531601 16.01129913 C-8.31079154 15.40299544 -9.49378081 14.45904612 -11.67980957 11.50793457 C-12.24230957 8.00793457 -12.24230957 8.00793457 -11.67980957 4.50793457 C-7.93946998 0.64513011 -5.29020698 0.0067832 0 0 Z " fill="#050505" transform="translate(243.6798095703125,414.4920654296875)"/>
<path d="M0 0 C0.66621447 -0.00623996 1.33242894 -0.01247993 2.01883173 -0.01890898 C4.25001632 -0.03485723 6.48011113 -0.0222288 8.71130371 -0.00964355 C10.31130104 -0.01506391 11.91129338 -0.02218608 13.51127625 -0.03088379 C17.85633501 -0.04913058 22.20101418 -0.04204413 26.54607964 -0.02936745 C31.09127711 -0.01924676 35.63644189 -0.02863053 40.18164062 -0.03491211 C47.81479737 -0.04219124 55.44779936 -0.03259388 63.08093262 -0.0135498 C71.90836123 0.00821948 80.73542032 0.0011683 89.56283998 -0.02085543 C97.13917344 -0.03900189 104.71539559 -0.04157145 112.29174376 -0.03110075 C116.81795529 -0.02486166 121.34399308 -0.02404156 125.87019348 -0.0372467 C130.12533699 -0.04879368 134.38000365 -0.04080089 138.6350956 -0.01766968 C140.19759135 -0.01237637 141.76012717 -0.01390702 143.32260704 -0.02272034 C145.45414015 -0.0336358 147.58414098 -0.01996365 149.71557617 0 C151.50527958 0.00226215 151.50527958 0.00226215 153.33113861 0.00457001 C156.97803618 0.61108854 158.15804847 1.58605042 160.35778809 4.50793457 C160.92028809 7.44543457 160.92028809 7.44543457 160.35778809 10.50793457 C157.8057342 13.70409894 156.30376124 15.31774452 152.24211884 16.13434696 C151.06595253 16.13493327 149.88978622 16.13551958 148.67797852 16.13612366 C147.69068418 16.14676524 147.69068418 16.14676524 146.6834445 16.1576218 C144.48509976 16.17517866 142.28852873 16.15711188 140.09020996 16.13903809 C138.51139014 16.14417787 136.93257605 16.15145959 135.35377502 16.16072083 C131.07059801 16.17923587 126.78804346 16.16629591 122.50489235 16.14663053 C118.02156476 16.13024343 113.53827657 16.139057 109.05493164 16.14414978 C101.52606261 16.14867068 93.99744202 16.13280121 86.46862793 16.1048584 C77.7655859 16.07280645 69.06299196 16.0728222 60.35991812 16.09007317 C51.98614988 16.10593968 43.61254585 16.09920392 35.23878479 16.08213615 C31.67586392 16.07526545 28.11307466 16.07629829 24.55015564 16.08368111 C20.35406891 16.0913451 16.15849182 16.07921448 11.96249199 16.0518322 C10.42299856 16.04494842 8.88345753 16.04485037 7.34396553 16.05204773 C5.24127516 16.06074501 3.14015667 16.04478524 1.03759766 16.02259827 C-0.13856865 16.01979135 -1.31473495 16.01698442 -2.52654266 16.01409245 C-6.3135404 15.39887351 -7.99036453 14.24608114 -10.64221191 11.50793457 C-11.20471191 8.00793457 -11.20471191 8.00793457 -10.64221191 4.50793457 C-7.52327602 0.29741003 -5.10408306 0.00645147 0 0 Z " fill="#040404" transform="translate(242.6422119140625,385.4920654296875)"/>
<path d="M0 0 C0.66621447 -0.00623996 1.33242894 -0.01247993 2.01883173 -0.01890898 C4.25001632 -0.03485723 6.48011113 -0.0222288 8.71130371 -0.00964355 C10.31130104 -0.01506391 11.91129338 -0.02218608 13.51127625 -0.03088379 C17.85633501 -0.04913058 22.20101418 -0.04204413 26.54607964 -0.02936745 C31.09127711 -0.01924676 35.63644189 -0.02863053 40.18164062 -0.03491211 C47.81479737 -0.04219124 55.44779936 -0.03259388 63.08093262 -0.0135498 C71.90836123 0.00821948 80.73542032 0.0011683 89.56283998 -0.02085543 C97.13917344 -0.03900189 104.71539559 -0.04157145 112.29174376 -0.03110075 C116.81795529 -0.02486166 121.34399308 -0.02404156 125.87019348 -0.0372467 C130.12533699 -0.04879368 134.38000365 -0.04080089 138.6350956 -0.01766968 C140.19759135 -0.01237637 141.76012717 -0.01390702 143.32260704 -0.02272034 C145.45414015 -0.0336358 147.58414098 -0.01996365 149.71557617 0 C151.50527958 0.00226215 151.50527958 0.00226215 153.33113861 0.00457001 C156.97803618 0.61108854 158.15804847 1.58605042 160.35778809 4.50793457 C160.92028809 7.44543457 160.92028809 7.44543457 160.35778809 10.50793457 C157.8057342 13.70409894 156.30376124 15.31774452 152.24211884 16.13434696 C151.06595253 16.13493327 149.88978622 16.13551958 148.67797852 16.13612366 C147.69068418 16.14676524 147.69068418 16.14676524 146.6834445 16.1576218 C144.48509976 16.17517866 142.28852873 16.15711188 140.09020996 16.13903809 C138.51139014 16.14417787 136.93257605 16.15145959 135.35377502 16.16072083 C131.07059801 16.17923587 126.78804346 16.16629591 122.50489235 16.14663053 C118.02156476 16.13024343 113.53827657 16.139057 109.05493164 16.14414978 C101.52606261 16.14867068 93.99744202 16.13280121 86.46862793 16.1048584 C77.7655859 16.07280645 69.06299196 16.0728222 60.35991812 16.09007317 C51.98614988 16.10593968 43.61254585 16.09920392 35.23878479 16.08213615 C31.67586392 16.07526545 28.11307466 16.07629829 24.55015564 16.08368111 C20.35406891 16.0913451 16.15849182 16.07921448 11.96249199 16.0518322 C10.42299856 16.04494842 8.88345753 16.04485037 7.34396553 16.05204773 C5.24127516 16.06074501 3.14015667 16.04478524 1.03759766 16.02259827 C-0.13856865 16.01979135 -1.31473495 16.01698442 -2.52654266 16.01409245 C-6.3135404 15.39887351 -7.99036453 14.24608114 -10.64221191 11.50793457 C-11.20471191 8.00793457 -11.20471191 8.00793457 -10.64221191 4.50793457 C-7.52327602 0.29741003 -5.10408306 0.00645147 0 0 Z " fill="#050505" transform="translate(242.6422119140625,332.4920654296875)"/>
<path d="M0 0 C0.65819623 -0.00694553 1.31639245 -0.01389106 1.99453402 -0.02104706 C4.19262696 -0.03929454 6.38963781 -0.02906016 8.58776855 -0.01878357 C10.1665884 -0.0258432 11.74540148 -0.0345884 13.32420349 -0.04489136 C17.60727534 -0.06738905 21.88997774 -0.06444503 26.17308617 -0.05556989 C29.74927863 -0.05045955 33.32540169 -0.05775282 36.90158701 -0.06504196 C45.33756992 -0.08204177 53.77337195 -0.07847386 62.20935059 -0.06175232 C70.91243921 -0.04482445 79.61502651 -0.06067433 88.3180604 -0.0929752 C95.79167597 -0.1196623 103.26513541 -0.12694969 110.73879385 -0.11846012 C115.20191672 -0.11352908 119.66473783 -0.11575612 124.12782288 -0.13624763 C128.32396437 -0.15459151 132.51938393 -0.14866253 136.71548653 -0.12404823 C138.25499167 -0.11903644 139.79455171 -0.12253978 141.33401299 -0.13519669 C143.43696649 -0.1511182 145.53753974 -0.13619093 147.64038086 -0.11352539 C149.40463032 -0.11264593 149.40463032 -0.11264593 151.20452118 -0.1117487 C155.26616358 0.70485375 156.76813655 2.31849933 159.32019043 5.5146637 C159.88269043 8.5771637 159.88269043 8.5771637 159.32019043 11.5146637 C157.12045081 14.43654785 155.94043853 15.41150973 152.29354095 16.01802826 C151.10040535 16.01953636 149.90726974 16.02104446 148.67797852 16.02259827 C148.01176404 16.02883823 147.34554957 16.03507819 146.65914679 16.04150724 C144.4279622 16.05745549 142.19786738 16.04482707 139.9666748 16.03224182 C138.36667748 16.03766217 136.76668514 16.04478435 135.16670227 16.05348206 C130.82164351 16.07172885 126.47696434 16.0646424 122.13189888 16.05196571 C117.58670141 16.04184502 113.04153663 16.0512288 108.49633789 16.05751038 C100.86318114 16.0647895 93.23017916 16.05519214 85.5970459 16.03614807 C76.76961728 16.01437878 67.94255819 16.02142997 59.11513853 16.04345369 C51.53880508 16.06160016 43.96258292 16.06416972 36.38623476 16.05369902 C31.86002323 16.04745992 27.33398544 16.04663982 22.80778503 16.05984497 C18.55264153 16.07139194 14.29797486 16.06339916 10.04288292 16.04026794 C8.48038716 16.03497464 6.91785134 16.03650529 5.35537148 16.0453186 C3.22383836 16.05623407 1.09383753 16.04256192 -1.03759766 16.02259827 C-2.82730106 16.02033611 -2.82730106 16.02033611 -4.6531601 16.01802826 C-8.31079154 15.40972457 -9.49378081 14.46577525 -11.67980957 11.5146637 C-12.24230957 8.0146637 -12.24230957 8.0146637 -11.67980957 4.5146637 C-7.94032065 0.65348042 -5.28860974 0.01262127 0 0 Z " fill="#070707" transform="translate(243.6798095703125,272.48533630371094)"/>
<path d="M0 0 C0.66142535 -0.00623996 1.32285071 -0.01247993 2.00431925 -0.01890898 C4.219353 -0.03485647 6.4332889 -0.02222908 8.64833069 -0.00964355 C10.23685345 -0.015064 11.82537119 -0.02218622 13.41387939 -0.03088379 C17.72801544 -0.04913103 22.04176918 -0.04204356 26.35591197 -0.02936745 C30.86994509 -0.01924522 35.38394534 -0.02863112 39.89797974 -0.03491211 C47.47986226 -0.04219154 55.061589 -0.03259388 62.64344788 -0.0135498 C71.40837345 0.0082117 80.17292674 0.00117408 88.93784326 -0.02085543 C96.46238832 -0.0390104 103.98682133 -0.04156704 111.51138121 -0.03110075 C116.00576698 -0.02486533 120.49997782 -0.02403131 124.99435234 -0.0372467 C129.22077279 -0.04880577 133.44671368 -0.04077871 137.67308235 -0.01766968 C139.22387013 -0.01238251 140.77469829 -0.01389656 142.32546997 -0.02272034 C144.44351676 -0.03366025 146.56002936 -0.01993396 148.67797852 0 C150.45523772 0.00226215 150.45523772 0.00226215 152.26840115 0.00457001 C156.06951108 0.61506626 157.74131959 1.76108588 160.40248108 4.50793457 C161.02748108 8.00793457 161.02748108 8.00793457 160.40248108 11.50793457 C157.74131959 14.25478326 156.06951108 15.40080289 152.26840115 16.01129913 C151.08356168 16.01280724 149.89872221 16.01431534 148.67797852 16.01586914 C147.6835005 16.02522908 147.6835005 16.02522908 146.66893202 16.03477812 C144.45466836 16.05069142 142.24150812 16.03811174 140.02723694 16.0255127 C138.43694417 16.03093455 136.84665642 16.03805757 135.25637817 16.04675293 C130.94236828 16.06498036 126.62874123 16.05792165 122.31472468 16.04523659 C117.80022956 16.03510765 113.28576716 16.04450181 108.77127075 16.05078125 C101.19116836 16.05805722 93.6112219 16.04847051 86.03114319 16.02941895 C77.26560891 16.00764241 68.50044668 16.01470737 59.7349214 16.03672457 C52.20952255 16.05487066 44.68423577 16.05744101 37.15882212 16.04696989 C32.66392419 16.0407316 28.16920121 16.03990865 23.6743145 16.05311584 C19.44952518 16.06466255 15.22521613 16.05667056 11.00047874 16.03353882 C9.4492701 16.0282457 7.8980211 16.02977584 6.34682846 16.03858948 C4.23067169 16.04950554 2.11605815 16.03583228 0 16.01586914 C-1.18446244 16.01436104 -2.36892488 16.01285294 -3.58928013 16.01129913 C-7.23340128 15.40153323 -8.41983128 14.44980675 -10.59751892 11.50793457 C-11.1495983 7.64337891 -11.33964527 5.51048462 -8.97861385 2.32093048 C-5.83189137 -0.07502396 -3.93483496 0.00500998 0 0 Z " fill="#010101" transform="translate(242.59751892089844,302.4920654296875)"/>
<path d="M0 0 C0.66142535 -0.00623996 1.32285071 -0.01247993 2.00431925 -0.01890898 C4.219353 -0.03485647 6.4332889 -0.02222908 8.64833069 -0.00964355 C10.23685345 -0.015064 11.82537119 -0.02218622 13.41387939 -0.03088379 C17.72801544 -0.04913103 22.04176918 -0.04204356 26.35591197 -0.02936745 C30.86994509 -0.01924522 35.38394534 -0.02863112 39.89797974 -0.03491211 C47.47986226 -0.04219154 55.061589 -0.03259388 62.64344788 -0.0135498 C71.40837345 0.0082117 80.17292674 0.00117408 88.93784326 -0.02085543 C96.46238832 -0.0390104 103.98682133 -0.04156704 111.51138121 -0.03110075 C116.00576698 -0.02486533 120.49997782 -0.02403131 124.99435234 -0.0372467 C129.22077279 -0.04880577 133.44671368 -0.04077871 137.67308235 -0.01766968 C139.22387013 -0.01238251 140.77469829 -0.01389656 142.32546997 -0.02272034 C144.44351676 -0.03366025 146.56002936 -0.01993396 148.67797852 0 C150.45523772 0.00226215 150.45523772 0.00226215 152.26840115 0.00457001 C156.05688467 0.61303833 157.73078083 1.79453844 160.40248108 4.50793457 C161.02748108 7.44543457 161.02748108 7.44543457 160.40248108 10.50793457 C157.84151436 13.71357656 156.34376187 15.31979963 152.26840115 16.13434696 C151.08356168 16.13493327 149.89872221 16.13551958 148.67797852 16.13612366 C148.01499317 16.14321804 147.35200783 16.15031243 146.66893202 16.1576218 C144.45443824 16.17517975 142.24170496 16.15711131 140.02723694 16.13903809 C138.43694257 16.14417777 136.84665388 16.15145943 135.25637817 16.16072083 C130.9422791 16.17923555 126.62879803 16.1662967 122.31472468 16.14663053 C117.80023271 16.13024603 113.28577994 16.13905651 108.77127075 16.14414978 C101.19112778 16.1486705 93.61123159 16.13280114 86.03114319 16.1048584 C77.2655982 16.07279498 68.50049802 16.07282673 59.7349214 16.09007317 C51.303485 16.10593152 42.8722118 16.09920993 34.44078255 16.08213615 C30.85191572 16.07526086 27.26317951 16.07630295 23.6743145 16.08368111 C19.4495048 16.09133702 15.22520198 16.07924095 11.00047874 16.0518322 C9.44927729 16.04494036 7.89802857 16.04485897 6.34682846 16.05204773 C4.23065165 16.06072543 2.11604534 16.04481854 0 16.02259827 C-1.18446244 16.01979135 -2.36892488 16.01698442 -3.58928013 16.01409245 C-7.23197008 15.40118359 -8.42001775 14.44898916 -10.59751892 11.50793457 C-11.1495983 7.64337891 -11.33964527 5.51048462 -8.97861385 2.32093048 C-5.83189137 -0.07502396 -3.93483496 0.00500998 0 0 Z " fill="#010101" transform="translate(242.59751892089844,444.4920654296875)"/>
<path d="M0 0 C6.6 0 13.2 0 20 0 C19.67 1.32 19.34 2.64 19 4 C16.50270688 5.44188948 14.11984313 6.64359273 11.5 7.8125 C4.99342306 10.88994476 -0.62249386 14.14904134 -6 19 C-6.598125 19.50660156 -7.19625 20.01320313 -7.8125 20.53515625 C-17.60917521 29.43526073 -24.33198331 43.1192133 -27 56 C-27.0550621 57.72442135 -27.06254834 59.4506985 -27.03515625 61.17578125 C-27.04095703 62.16900391 -27.04675781 63.16222656 -27.05273438 64.18554688 C-27.05920849 66.25855812 -27.03867458 68.33184155 -26.99023438 70.40429688 C-27.10152793 77.88999809 -27.10152793 77.88999809 -29.75976562 81.17407227 C-31.91015625 83.0234375 -31.91015625 83.0234375 -34.05102539 84.55615234 C-39.99556217 88.96000935 -40.94487109 96.10001227 -42 103 C-44.90831041 100.50716251 -46.11349581 97.89076566 -47.5625 94.375 C-47.97628906 93.39273438 -48.39007813 92.41046875 -48.81640625 91.3984375 C-54.28706528 75.69060465 -54.08309239 58.11657439 -47 43 C-37.74846724 25.30041748 -23.67238064 14.61177228 -4.984375 8.6796875 C-1.09942165 6.95368276 -1.09942165 6.95368276 0 0 Z " fill="#028EF1" transform="translate(246,94)"/>
<path d="M0 0 C1.29437988 0.00249756 2.58875977 0.00499512 3.92236328 0.00756836 C5.57478027 0.01667236 7.22719727 0.02577637 8.9296875 0.03515625 C14.1684375 0.05578125 19.4071875 0.07640625 24.8046875 0.09765625 C24.8046875 13.62765625 24.8046875 27.15765625 24.8046875 41.09765625 C11.6046875 41.09765625 -1.5953125 41.09765625 -15.1953125 41.09765625 C-15.3190625 35.79703125 -15.4428125 30.49640625 -15.5703125 25.03515625 C-15.62493652 23.37605225 -15.67956055 21.71694824 -15.73583984 20.00756836 C-15.96582712 7.96527364 -15.96582712 7.96527364 -12.296875 3.6015625 C-7.93085506 0.0768537 -5.41833405 -0.04072248 0 0 Z " fill="#FA4655" transform="translate(90.1953125,14.90234375)"/>
<path d="M0 0 C4.36775158 3.14884416 7.96773395 6.77820184 9.6875 11.9375 C10.47221904 18.459673 9.46784234 23.52473711 5.6875 28.9375 C1.44949786 33.06683542 -2.26414951 34.7360229 -8.125 35.3125 C-12.82224796 35.16183356 -16.53321602 33.71543524 -20.3125 30.9375 C-24.97045839 25.86447601 -26.69005379 21.14007065 -26.58984375 14.28125 C-25.96484651 8.99958319 -23.13331671 5.44739179 -19.1875 2.0625 C-13.39046918 -2.22226191 -6.81329504 -2.18539652 0 0 Z " fill="#FCCBBB" transform="translate(264.3125,133.0625)"/>
<path d="M0 0 C2.52620042 2.20023907 2.93634689 3.49210033 3.35180664 6.80712891 C2.88671989 11.02808974 1.39179545 12.39594565 -1.56640625 15.3984375 C-2.03811752 15.8782608 -2.5098288 16.35808411 -2.99583435 16.85244751 C-3.99472107 17.85977402 -5.00128252 18.85954082 -6.01489258 19.85205078 C-7.55666499 21.36925796 -9.06064979 22.91791406 -10.56445312 24.47265625 C-11.54218009 25.45001268 -12.52193549 26.42534498 -13.50390625 27.3984375 C-14.83143921 28.72367432 -14.83143921 28.72367432 -16.18579102 30.07568359 C-19.76853639 32.52551434 -21.73955604 32.6147212 -26 32 C-28.26342773 30.62646484 -28.26342773 30.62646484 -30.18359375 28.7109375 C-30.88291016 28.01613281 -31.58222656 27.32132812 -32.30273438 26.60546875 C-33.00720703 25.86941406 -33.71167969 25.13335937 -34.4375 24.375 C-35.16904297 23.66214844 -35.90058594 22.94929688 -36.65429688 22.21484375 C-41.82675554 16.95062345 -41.82675554 16.95062345 -42.609375 12.65625 C-41.73617305 8.8499851 -40.07976392 7.32693274 -37 5 C-33.60719257 4.45313301 -32.37050444 4.7361113 -29.54296875 6.75 C-28.76566406 7.4925 -27.98835937 8.235 -27.1875 9 C-26.39730469 9.7425 -25.60710937 10.485 -24.79296875 11.25 C-24.20128906 11.8275 -23.60960937 12.405 -23 13 C-18.60168469 9.31977699 -14.46241588 5.545708 -10.48046875 1.41796875 C-7.10871894 -1.81143806 -4.35828801 -0.99399551 0 0 Z " fill="#010302" transform="translate(176,407)"/>
<path d="M0 0 C1.9375 1.1875 1.9375 1.1875 3 3 C3.625 5.6875 3.625 5.6875 3 9 C1.05359082 12.02539688 -1.47175881 14.45583288 -4 17 C-5.17061394 18.19657445 -6.34118317 19.39319264 -7.51171875 20.58984375 C-9.99476293 23.10945045 -12.48175472 25.62483146 -14.98828125 28.12109375 C-15.51977783 28.6514624 -16.05127441 29.18183105 -16.59887695 29.72827148 C-18.57806388 31.52467934 -19.99955033 31.99991073 -22.63671875 32.5234375 C-27.84021998 31.71360107 -30.3133187 28.36656361 -33.8125 24.625 C-34.49248047 23.92632812 -35.17246094 23.22765625 -35.87304688 22.5078125 C-41.82581011 16.3354558 -41.82581011 16.3354558 -42.375 12.125 C-42 9 -42 9 -39.9375 6.5625 C-37 5 -37 5 -33.625 4.8125 C-28.78501256 6.39801313 -26.26394307 9.20033375 -23 13 C-18.60168469 9.31977699 -14.46241588 5.545708 -10.48046875 1.41796875 C-7.10524554 -1.81476483 -4.36868716 -0.91972361 0 0 Z " fill="#000201" transform="translate(176,295)"/>
<path d="M0 0 C0 13.2 0 26.4 0 40 C-4.62 40 -9.24 40 -14 40 C-14.07433779 35.10704853 -14.12869027 30.21442817 -14.16479492 25.32104492 C-14.17985114 23.65757519 -14.20030063 21.99414495 -14.22631836 20.33081055 C-14.26284207 17.93528478 -14.27975782 15.54028533 -14.29296875 13.14453125 C-14.30845261 12.4047554 -14.32393646 11.66497955 -14.33988953 10.90278625 C-14.34090137 7.77540814 -14.00147987 5.00535979 -13.16918945 1.9909668 C-11 0 -11 0 0 0 Z " fill="#FF646E" transform="translate(115,15)"/>
<path d="M0 0 C1.50433594 0.01353516 1.50433594 0.01353516 3.0390625 0.02734375 C3.80992187 0.03894531 4.58078125 0.05054688 5.375 0.0625 C4.385 0.3925 3.395 0.7225 2.375 1.0625 C1.25414688 3.4055809 1.25414688 3.4055809 0.375 6.0625 C0.0346875 6.61808594 -0.305625 7.17367187 -0.65625 7.74609375 C-2.03893802 11.05227922 -2.04986001 14.28227201 -2.0625 17.8125 C-2.06564209 18.52680176 -2.06878418 19.24110352 -2.07202148 19.97705078 C-1.93566367 25.98364655 -0.47556035 29.59332504 3.375 34.0625 C3.705 34.7225 4.035 35.3825 4.375 36.0625 C-1.91669448 36.51190675 -6.45340358 35.86384438 -11.625 32.0625 C-16.28295839 26.98947601 -18.00255379 22.26507065 -17.90234375 15.40625 C-17.27734651 10.12458319 -14.44581671 6.57239179 -10.5 3.1875 C-6.55771051 0.27363386 -4.84301826 -0.05631417 0 0 Z " fill="#F9AD9C" transform="translate(255.625,131.9375)"/>
<path d="M0 0 C-0.72123047 1.50046875 -0.72123047 1.50046875 -1.45703125 3.03125 C-3.91386579 9.58280877 -3.57479423 16.59494729 -3.6875 23.5 C-3.72072842 24.90888486 -3.75522305 26.31774045 -3.79101562 27.7265625 C-3.87310738 31.15096131 -3.94238811 34.57511644 -4 38 C-14.59694131 35.93155115 -14.59694131 35.93155115 -18 31 C-18.73221313 27.49452963 -18.81829128 24.07352563 -18.8125 20.5 C-18.81161377 19.57348633 -18.81072754 18.64697266 -18.80981445 17.69238281 C-18.59581443 12.02163646 -17.79588158 8.45998609 -14 4 C-9.20232338 -0.14344799 -6.06966268 -0.41859743 0 0 Z " fill="#FC4655" transform="translate(237,183)"/>
<path d="M0 0 C0.33 0.99 0.66 1.98 1 3 C-0.8125 5.6875 -0.8125 5.6875 -3 8 C-3.66 8 -4.32 8 -5 8 C-3.375 2.25 -3.375 2.25 0 0 Z " fill="#52A7E9" transform="translate(228,129)"/>
</svg>
