<?xml version="1.0" encoding="UTF-8"?>
<svg version="1.1" xmlns="http://www.w3.org/2000/svg" width="512" height="512">
<path d="M0 0 C1.28738697 -0.01043099 2.57477394 -0.02086198 3.90117264 -0.03160906 C5.33298209 -0.0229605 6.76478929 -0.01393386 8.19659424 -0.00457001 C9.71512831 -0.00917726 11.23365794 -0.015529 12.75217819 -0.02347898 C16.93131833 -0.04021974 21.1100944 -0.03190457 25.28923607 -0.01953411 C29.79374061 -0.01050526 34.29818136 -0.02444256 38.80267334 -0.0354538 C47.62945613 -0.05326681 56.45610309 -0.04938667 65.28289127 -0.03780323 C72.45477987 -0.02878011 79.62663031 -0.02754005 86.79852295 -0.0318985 C87.81815903 -0.03251143 88.83779512 -0.03312436 89.88832927 -0.03375587 C91.95951622 -0.03503473 94.03070316 -0.03633159 96.10189009 -0.03764623 C115.53640191 -0.04906018 134.97083835 -0.03592555 154.40533781 -0.01444477 C171.09132824 0.00342695 187.77720738 0.00032307 204.4631958 -0.01811981 C223.82681233 -0.03951214 243.19036272 -0.04796147 262.55398941 -0.03567076 C264.61767831 -0.03439652 266.68136723 -0.03313904 268.74505615 -0.0318985 C269.76050593 -0.0312814 270.77595571 -0.03066429 271.82217669 -0.03002849 C278.98781083 -0.02657067 286.15340311 -0.03241322 293.31903076 -0.04181671 C302.04818067 -0.0530199 310.77718665 -0.05003212 319.50632 -0.02869374 C323.96251029 -0.01816062 328.41846038 -0.01409981 332.87464905 -0.02729034 C336.9507323 -0.03917352 341.02635175 -0.03271963 345.10239267 -0.01138014 C346.58012255 -0.00689668 348.05789129 -0.00921926 349.53559637 -0.01888329 C351.53823064 -0.0309798 353.54097403 -0.01622601 355.5435791 0 C356.65778858 0.00064941 357.77199806 0.00129882 358.91997147 0.00196791 C361.77178955 0.50336456 361.77178955 0.50336456 364.12959242 2.08309221 C366.39015373 5.41471052 366.27316191 7.71659346 366.27515411 11.73108673 C366.28096788 12.46388115 366.28678164 13.19667558 366.29277158 13.95167589 C366.30743365 16.42073312 366.29345813 18.88880586 366.27972412 21.35785675 C366.2843306 23.14037715 366.29068181 24.92289376 366.2986331 26.70540237 C366.31538437 31.61422517 366.3070538 36.52273828 366.29468822 41.43156242 C366.28566371 46.72134664 366.29959452 52.0110764 366.31060791 57.30084991 C366.32842555 67.66768819 366.32453871 78.03441084 366.31295735 88.4012537 C366.30393605 96.82409428 366.30269337 105.24690238 366.30705261 113.6697464 C366.30766554 114.8670056 366.30827848 116.06426481 366.30890998 117.29780459 C366.31018884 119.72975954 366.31148569 122.16171448 366.31280035 124.59366941 C366.32421565 147.4160248 366.31107753 170.23831598 366.28959888 193.06066084 C366.27172706 212.65747966 366.2748309 232.25420371 366.29327393 251.85102081 C366.31466385 274.58984819 366.32311693 297.32861926 366.31082487 320.06745529 C366.30955063 322.49063109 366.30829315 324.91380691 366.30705261 327.33698273 C366.30612696 329.12551198 366.30612696 329.12551198 366.30518261 330.95017314 C366.30172407 339.36615137 366.30756889 347.78209399 366.31697083 356.19806671 C366.32817134 366.44967724 366.32519184 376.70116522 366.30384785 386.95276165 C366.29331118 392.18664231 366.28926005 397.42031839 366.30244446 402.65419769 C366.31432013 407.44081839 366.30788592 412.2270439 366.28653425 417.01362848 C366.28204763 418.74976919 366.2843803 420.48594294 366.2940374 422.22206259 C366.30612009 424.57373725 366.29381099 426.92404057 366.27515411 429.2756424 C366.2745047 430.58426868 366.2738553 431.89289497 366.27318621 433.24117661 C365.68811929 437.04774016 364.83737227 438.24340339 361.77178955 440.50336456 C359.01293945 440.98438263 359.01293945 440.98438263 355.80987549 440.95746613 C354.6089325 440.957164 353.4079895 440.95686188 352.1706543 440.9565506 C350.87887268 440.93590546 349.58709106 440.91526031 348.25616455 440.89398956 C346.91667526 440.88652527 345.57717503 440.88083322 344.2376709 440.87683868 C340.71927519 440.86159669 337.2015444 440.82232874 333.68341064 440.77802277 C330.09056594 440.7370382 326.49761335 440.71882096 322.90460205 440.69867706 C315.86005989 440.65583201 308.81596823 440.58759903 301.77178955 440.50336456 C301.780672 441.14594208 301.78955444 441.78851959 301.79870605 442.45056915 C301.88714603 449.13376731 301.94751009 455.81679946 301.99151611 462.50043488 C302.01164119 464.99529522 302.03894407 467.49010834 302.07354736 469.98480988 C302.12202412 473.56923824 302.14474976 477.15304341 302.16241455 480.73773956 C302.18305969 481.85453094 302.20370483 482.97132233 302.22497559 484.12195587 C302.22527771 485.16273285 302.22557983 486.20350983 302.22589111 487.2758255 C302.23477356 488.19071747 302.24365601 489.10560944 302.25280762 490.0482254 C301.60252705 493.36728843 300.39806323 494.40580643 297.77178955 496.50336456 C294.9712677 497.00476122 294.9712677 497.00476122 291.66851807 497.00672913 C290.40899826 497.01716012 289.14947845 497.0275911 287.85179138 497.03833818 C286.45142389 497.02968967 285.05105869 497.02066303 283.6506958 497.01129913 C282.16515999 497.01590651 280.67962874 497.02225832 279.19410706 497.03020811 C275.10617679 497.04694729 271.01861877 497.03863444 266.93068695 497.02626324 C262.52434228 497.01723374 258.11806279 497.03117201 253.71173096 497.04218292 C245.07745494 497.05999525 236.44331778 497.05611611 227.80903625 497.04453236 C220.79351662 497.03550896 213.77803598 497.03426929 206.76251221 497.03862762 C205.76507901 497.03924056 204.76764582 497.03985349 203.73998737 497.04048499 C201.71389642 497.04176386 199.68780548 497.04306071 197.66171455 497.04437536 C178.65068306 497.05578911 159.63972865 497.042655 140.62870979 497.02117389 C124.30657277 497.0033022 107.98454952 497.00640608 91.66241455 497.02484894 C72.72069931 497.04624163 53.77905168 497.0546904 34.83732605 497.04239988 C32.81857301 497.04112565 30.79981996 497.03986817 28.78106689 497.03862762 C27.29106155 497.03770197 27.29106155 497.03770197 25.77095509 497.03675762 C18.76161391 497.03329991 11.75231551 497.03914212 4.74298096 497.04854584 C-3.79586157 497.05974942 -12.33455696 497.05676041 -20.87338257 497.03542286 C-25.23236187 497.02489028 -29.59109561 497.02082801 -33.95007324 497.03401947 C-37.93733993 497.04590378 -41.92413254 497.03944694 -45.91135597 497.01810926 C-47.35678448 497.01362628 -48.80225272 497.01594734 -50.24765587 497.02561241 C-52.20672299 497.0377114 -54.16590167 497.02295332 -56.12493896 497.00672913 C-57.75980003 497.00575501 -57.75980003 497.00575501 -59.4276886 497.00476122 C-62.22821045 496.50336456 -62.22821045 496.50336456 -64.57820463 494.92363691 C-66.84920911 491.59246723 -66.72958024 489.29531525 -66.73157501 485.2756424 C-66.73738878 484.54284797 -66.74320254 483.81005355 -66.74919248 483.05505323 C-66.76385454 480.58599601 -66.74987903 478.11792326 -66.73614502 475.64887238 C-66.7407515 473.86635198 -66.74710271 472.08383537 -66.755054 470.30132675 C-66.77180527 465.39250396 -66.7634747 460.48399084 -66.75110912 455.5751667 C-66.74208461 450.28538248 -66.75601542 444.99565272 -66.76702881 439.70587921 C-66.78484645 429.33904094 -66.78095961 418.97231829 -66.76937824 408.60547543 C-66.76035694 400.18263485 -66.75911427 391.75982675 -66.76347351 383.33698273 C-66.76408644 382.13972352 -66.76469938 380.94246432 -66.76533088 379.70892453 C-66.76660974 377.27696958 -66.76790659 374.84501464 -66.76922125 372.41305971 C-66.78063655 349.59070433 -66.76749843 326.76841314 -66.74601978 303.94606829 C-66.72814795 284.34924947 -66.73125179 264.75252542 -66.74969482 245.15570831 C-66.77108475 222.41688093 -66.77953783 199.67810987 -66.76724577 176.93927383 C-66.76597153 174.51609803 -66.76471405 172.09292222 -66.76347351 169.6697464 C-66.76285641 168.47739356 -66.76223931 167.28504073 -66.7616035 166.05655599 C-66.75814497 157.64057775 -66.76398978 149.22463513 -66.77339172 140.80866241 C-66.78459224 130.55705188 -66.78161273 120.30556391 -66.76026875 110.05396748 C-66.74973208 104.82008681 -66.74568095 99.58641074 -66.75886536 94.35253143 C-66.77074103 89.56591074 -66.76430682 84.77968523 -66.74295515 79.99310064 C-66.73846853 78.25695994 -66.7408012 76.52078618 -66.7504583 74.78466654 C-66.76254099 72.43299187 -66.75023189 70.08268856 -66.73157501 67.73108673 C-66.7309256 66.42246044 -66.73027619 65.11383415 -66.72960711 63.76555252 C-66.14521517 59.96338051 -65.27854773 58.77220237 -62.22821045 56.50336456 C-59.77307129 56.0223465 -59.77307129 56.0223465 -57.00067139 56.049263 C-55.43950592 56.04971619 -55.43950592 56.04971619 -53.84680176 56.05017853 C-52.17161469 56.08114624 -52.17161469 56.08114624 -50.46258545 56.11273956 C-48.73978363 56.12122925 -48.73978363 56.12122925 -46.98217773 56.12989044 C-43.31376471 56.15228125 -39.64632828 56.20248515 -35.97821045 56.25336456 C-33.49124539 56.27342595 -31.00426502 56.29167735 -28.51727295 56.30805206 C-22.42058556 56.35215501 -16.32446777 56.41909507 -10.22821045 56.50336456 C-10.2370929 55.86078705 -10.24597534 55.21820953 -10.25512695 54.55615997 C-10.34356693 47.87296181 -10.40393098 41.18992966 -10.44793701 34.50629425 C-10.46806209 32.01143391 -10.49536497 29.51662079 -10.52996826 27.02191925 C-10.57844502 23.43749088 -10.60117065 19.85368572 -10.61883545 16.26898956 C-10.63948059 15.15219818 -10.66012573 14.0354068 -10.68139648 12.88477325 C-10.68169861 11.84399628 -10.68200073 10.8032193 -10.68231201 9.73090363 C-10.69119446 8.81601166 -10.7000769 7.90111969 -10.70922852 6.95850372 C-9.54531561 1.01783673 -5.46626983 0.00318598 0 0 Z " fill="#FEEA98" transform="translate(106.22821044921875,7.496635437011719)"/>
<path d="M0 0 C1.28738697 -0.01043099 2.57477394 -0.02086198 3.90117264 -0.03160906 C5.33298209 -0.0229605 6.76478929 -0.01393386 8.19659424 -0.00457001 C9.71512831 -0.00917726 11.23365794 -0.015529 12.75217819 -0.02347898 C16.93131833 -0.04021974 21.1100944 -0.03190457 25.28923607 -0.01953411 C29.79374061 -0.01050526 34.29818136 -0.02444256 38.80267334 -0.0354538 C47.62945613 -0.05326681 56.45610309 -0.04938667 65.28289127 -0.03780323 C72.45477987 -0.02878011 79.62663031 -0.02754005 86.79852295 -0.0318985 C87.81815903 -0.03251143 88.83779512 -0.03312436 89.88832927 -0.03375587 C91.95951622 -0.03503473 94.03070316 -0.03633159 96.10189009 -0.03764623 C115.53640191 -0.04906018 134.97083835 -0.03592555 154.40533781 -0.01444477 C171.09132824 0.00342695 187.77720738 0.00032307 204.4631958 -0.01811981 C223.82681233 -0.03951214 243.19036272 -0.04796147 262.55398941 -0.03567076 C264.61767831 -0.03439652 266.68136723 -0.03313904 268.74505615 -0.0318985 C269.76050593 -0.0312814 270.77595571 -0.03066429 271.82217669 -0.03002849 C278.98781083 -0.02657067 286.15340311 -0.03241322 293.31903076 -0.04181671 C302.04818067 -0.0530199 310.77718665 -0.05003212 319.50632 -0.02869374 C323.96251029 -0.01816062 328.41846038 -0.01409981 332.87464905 -0.02729034 C336.9507323 -0.03917352 341.02635175 -0.03271963 345.10239267 -0.01138014 C346.58012255 -0.00689668 348.05789129 -0.00921926 349.53559637 -0.01888329 C351.53823064 -0.0309798 353.54097403 -0.01622601 355.5435791 0 C356.65778858 0.00064941 357.77199806 0.00129882 358.91997147 0.00196791 C361.77178955 0.50336456 361.77178955 0.50336456 364.12959242 2.08309221 C366.39015373 5.41471052 366.27316191 7.71659346 366.27515411 11.73108673 C366.28096788 12.46388115 366.28678164 13.19667558 366.29277158 13.95167589 C366.30743365 16.42073312 366.29345813 18.88880586 366.27972412 21.35785675 C366.2843306 23.14037715 366.29068181 24.92289376 366.2986331 26.70540237 C366.31538437 31.61422517 366.3070538 36.52273828 366.29468822 41.43156242 C366.28566371 46.72134664 366.29959452 52.0110764 366.31060791 57.30084991 C366.32842555 67.66768819 366.32453871 78.03441084 366.31295735 88.4012537 C366.30393605 96.82409428 366.30269337 105.24690238 366.30705261 113.6697464 C366.30766554 114.8670056 366.30827848 116.06426481 366.30890998 117.29780459 C366.31018884 119.72975954 366.31148569 122.16171448 366.31280035 124.59366941 C366.32421565 147.4160248 366.31107753 170.23831598 366.28959888 193.06066084 C366.27172706 212.65747966 366.2748309 232.25420371 366.29327393 251.85102081 C366.31466385 274.58984819 366.32311693 297.32861926 366.31082487 320.06745529 C366.30955063 322.49063109 366.30829315 324.91380691 366.30705261 327.33698273 C366.30612696 329.12551198 366.30612696 329.12551198 366.30518261 330.95017314 C366.30172407 339.36615137 366.30756889 347.78209399 366.31697083 356.19806671 C366.32817134 366.44967724 366.32519184 376.70116522 366.30384785 386.95276165 C366.29331118 392.18664231 366.28926005 397.42031839 366.30244446 402.65419769 C366.31432013 407.44081839 366.30788592 412.2270439 366.28653425 417.01362848 C366.28204763 418.74976919 366.2843803 420.48594294 366.2940374 422.22206259 C366.30612009 424.57373725 366.29381099 426.92404057 366.27515411 429.2756424 C366.2745047 430.58426868 366.2738553 431.89289497 366.27318621 433.24117661 C365.68811929 437.04774016 364.83737227 438.24340339 361.77178955 440.50336456 C359.01293945 440.98438263 359.01293945 440.98438263 355.80987549 440.95746613 C354.6089325 440.957164 353.4079895 440.95686188 352.1706543 440.9565506 C350.87887268 440.93590546 349.58709106 440.91526031 348.25616455 440.89398956 C346.91667526 440.88652527 345.57717503 440.88083322 344.2376709 440.87683868 C340.71927519 440.86159669 337.2015444 440.82232874 333.68341064 440.77802277 C330.09056594 440.7370382 326.49761335 440.71882096 322.90460205 440.69867706 C315.86005989 440.65583201 308.81596823 440.58759903 301.77178955 440.50336456 C301.780672 441.14594208 301.78955444 441.78851959 301.79870605 442.45056915 C301.88714603 449.13376731 301.94751009 455.81679946 301.99151611 462.50043488 C302.01164119 464.99529522 302.03894407 467.49010834 302.07354736 469.98480988 C302.12202412 473.56923824 302.14474976 477.15304341 302.16241455 480.73773956 C302.18305969 481.85453094 302.20370483 482.97132233 302.22497559 484.12195587 C302.22527771 485.16273285 302.22557983 486.20350983 302.22589111 487.2758255 C302.23477356 488.19071747 302.24365601 489.10560944 302.25280762 490.0482254 C301.60252705 493.36728843 300.39806323 494.40580643 297.77178955 496.50336456 C294.9712677 497.00476122 294.9712677 497.00476122 291.66851807 497.00672913 C290.40899826 497.01716012 289.14947845 497.0275911 287.85179138 497.03833818 C286.45142389 497.02968967 285.05105869 497.02066303 283.6506958 497.01129913 C282.16515999 497.01590651 280.67962874 497.02225832 279.19410706 497.03020811 C275.10617679 497.04694729 271.01861877 497.03863444 266.93068695 497.02626324 C262.52434228 497.01723374 258.11806279 497.03117201 253.71173096 497.04218292 C245.07745494 497.05999525 236.44331778 497.05611611 227.80903625 497.04453236 C220.79351662 497.03550896 213.77803598 497.03426929 206.76251221 497.03862762 C205.76507901 497.03924056 204.76764582 497.03985349 203.73998737 497.04048499 C201.71389642 497.04176386 199.68780548 497.04306071 197.66171455 497.04437536 C178.65068306 497.05578911 159.63972865 497.042655 140.62870979 497.02117389 C124.30657277 497.0033022 107.98454952 497.00640608 91.66241455 497.02484894 C72.72069931 497.04624163 53.77905168 497.0546904 34.83732605 497.04239988 C32.81857301 497.04112565 30.79981996 497.03986817 28.78106689 497.03862762 C27.29106155 497.03770197 27.29106155 497.03770197 25.77095509 497.03675762 C18.76161391 497.03329991 11.75231551 497.03914212 4.74298096 497.04854584 C-3.79586157 497.05974942 -12.33455696 497.05676041 -20.87338257 497.03542286 C-25.23236187 497.02489028 -29.59109561 497.02082801 -33.95007324 497.03401947 C-37.93733993 497.04590378 -41.92413254 497.03944694 -45.91135597 497.01810926 C-47.35678448 497.01362628 -48.80225272 497.01594734 -50.24765587 497.02561241 C-52.20672299 497.0377114 -54.16590167 497.02295332 -56.12493896 497.00672913 C-57.75980003 497.00575501 -57.75980003 497.00575501 -59.4276886 497.00476122 C-62.22821045 496.50336456 -62.22821045 496.50336456 -64.57820463 494.92363691 C-66.84920911 491.59246723 -66.72958024 489.29531525 -66.73157501 485.2756424 C-66.73738878 484.54284797 -66.74320254 483.81005355 -66.74919248 483.05505323 C-66.76385454 480.58599601 -66.74987903 478.11792326 -66.73614502 475.64887238 C-66.7407515 473.86635198 -66.74710271 472.08383537 -66.755054 470.30132675 C-66.77180527 465.39250396 -66.7634747 460.48399084 -66.75110912 455.5751667 C-66.74208461 450.28538248 -66.75601542 444.99565272 -66.76702881 439.70587921 C-66.78484645 429.33904094 -66.78095961 418.97231829 -66.76937824 408.60547543 C-66.76035694 400.18263485 -66.75911427 391.75982675 -66.76347351 383.33698273 C-66.76408644 382.13972352 -66.76469938 380.94246432 -66.76533088 379.70892453 C-66.76660974 377.27696958 -66.76790659 374.84501464 -66.76922125 372.41305971 C-66.78063655 349.59070433 -66.76749843 326.76841314 -66.74601978 303.94606829 C-66.72814795 284.34924947 -66.73125179 264.75252542 -66.74969482 245.15570831 C-66.77108475 222.41688093 -66.77953783 199.67810987 -66.76724577 176.93927383 C-66.76597153 174.51609803 -66.76471405 172.09292222 -66.76347351 169.6697464 C-66.76285641 168.47739356 -66.76223931 167.28504073 -66.7616035 166.05655599 C-66.75814497 157.64057775 -66.76398978 149.22463513 -66.77339172 140.80866241 C-66.78459224 130.55705188 -66.78161273 120.30556391 -66.76026875 110.05396748 C-66.74973208 104.82008681 -66.74568095 99.58641074 -66.75886536 94.35253143 C-66.77074103 89.56591074 -66.76430682 84.77968523 -66.74295515 79.99310064 C-66.73846853 78.25695994 -66.7408012 76.52078618 -66.7504583 74.78466654 C-66.76254099 72.43299187 -66.75023189 70.08268856 -66.73157501 67.73108673 C-66.7309256 66.42246044 -66.73027619 65.11383415 -66.72960711 63.76555252 C-66.14521517 59.96338051 -65.27854773 58.77220237 -62.22821045 56.50336456 C-59.77307129 56.0223465 -59.77307129 56.0223465 -57.00067139 56.049263 C-55.43950592 56.04971619 -55.43950592 56.04971619 -53.84680176 56.05017853 C-52.17161469 56.08114624 -52.17161469 56.08114624 -50.46258545 56.11273956 C-48.73978363 56.12122925 -48.73978363 56.12122925 -46.98217773 56.12989044 C-43.31376471 56.15228125 -39.64632828 56.20248515 -35.97821045 56.25336456 C-33.49124539 56.27342595 -31.00426502 56.29167735 -28.51727295 56.30805206 C-22.42058556 56.35215501 -16.32446777 56.41909507 -10.22821045 56.50336456 C-10.2370929 55.86078705 -10.24597534 55.21820953 -10.25512695 54.55615997 C-10.34356693 47.87296181 -10.40393098 41.18992966 -10.44793701 34.50629425 C-10.46806209 32.01143391 -10.49536497 29.51662079 -10.52996826 27.02191925 C-10.57844502 23.43749088 -10.60117065 19.85368572 -10.61883545 16.26898956 C-10.63948059 15.15219818 -10.66012573 14.0354068 -10.68139648 12.88477325 C-10.68169861 11.84399628 -10.68200073 10.8032193 -10.68231201 9.73090363 C-10.69119446 8.81601166 -10.7000769 7.90111969 -10.70922852 6.95850372 C-9.54531561 1.01783673 -5.46626983 0.00318598 0 0 Z M-50.22821045 72.50336456 C-50.22821045 207.14336456 -50.22821045 341.78336456 -50.22821045 480.50336456 C60.65178955 480.50336456 171.53178955 480.50336456 285.77178955 480.50336456 C285.77178955 345.86336456 285.77178955 211.22336456 285.77178955 72.50336456 C174.89178955 72.50336456 64.01178955 72.50336456 -50.22821045 72.50336456 Z " fill="#000000" transform="translate(106.22821044921875,7.496635437011719)"/>
<path d="M0 0 C0.67453043 -0.00638882 1.34906087 -0.01277764 2.04403162 -0.01936007 C4.29766372 -0.03458527 6.54953056 -0.01416828 8.80310059 0.00622559 C10.42132652 0.0027236 12.039549 -0.00293586 13.65776062 -0.0105896 C18.04838486 -0.02483627 22.43838272 -0.00777747 26.82894707 0.01569557 C31.42437378 0.03580428 36.01977448 0.029925 40.61523438 0.02758789 C48.33242115 0.02764146 56.04936309 0.04739822 63.76647949 0.07946777 C72.68759387 0.11636058 81.6083875 0.12514332 90.5295682 0.11817026 C99.11262625 0.11186423 107.69557436 0.12262141 116.27861023 0.14213562 C119.93081733 0.15030875 123.58296823 0.15301933 127.23518372 0.15144348 C131.53625924 0.1505643 135.83703013 0.16478968 140.13802528 0.19067001 C141.71622046 0.19782995 143.29444804 0.19991626 144.87265587 0.19655228 C147.02765731 0.19283514 149.18177086 0.20759174 151.33666992 0.22705078 C153.14516544 0.23264385 153.14516544 0.23264385 154.99019623 0.23834991 C158.47968144 0.65899135 160.37295768 1.52661727 163.16833496 3.62145996 C164.63154794 6.54788593 164.30110413 9.12692873 164.30877686 12.39607239 C164.31174798 13.10070797 164.3147191 13.80534355 164.31778026 14.53133172 C164.32648639 16.90424115 164.32797712 19.27710025 164.32946777 21.65002441 C164.33409461 23.34661976 164.33911909 25.04321405 164.34451294 26.73980713 C164.3576523 31.35764534 164.36408494 35.975469 164.3685236 40.59332299 C164.37145198 43.476887 164.37555635 46.36044702 164.38002777 49.24400902 C164.39370705 58.261657 164.40337147 67.27929586 164.40722966 76.2969535 C164.41171095 86.714484 164.42926035 97.13188332 164.45823026 107.54937392 C164.47983233 115.59613767 164.48993316 123.64286447 164.49127078 131.68965691 C164.49231991 136.49817103 164.49825059 141.3065619 164.51609039 146.11504555 C164.5325455 150.63844889 164.53473907 155.16163603 164.52595139 159.68505859 C164.52517962 161.34551255 164.52954205 163.005978 164.53940964 164.66640282 C164.55209066 166.93315932 164.54627383 169.19914568 164.53582764 171.46589661 C164.5372942 172.73445149 164.53876076 174.00300638 164.54027176 175.31000233 C164.13675776 178.9026006 163.39337979 180.79388584 161.16833496 183.62145996 C157.76347822 184.75641221 155.16186989 184.75306399 151.57044983 184.76190186 C150.89692268 184.76487298 150.22339553 184.7678441 149.52945846 184.77090526 C147.26787678 184.77959138 145.00634803 184.78110041 142.74475098 184.78259277 C141.1252023 184.78722092 139.50565471 184.79224558 137.8861084 184.79763794 C133.48326574 184.81076221 129.08043833 184.81720668 124.67757916 184.8216486 C121.92819275 184.82457862 119.17881051 184.82868324 116.42942619 184.83315277 C107.83092345 184.84682632 99.23243025 184.85649429 90.63391739 184.86035466 C80.70086854 184.8648385 70.76795709 184.88240207 60.83495003 184.91135526 C53.16100231 184.93294915 45.48709332 184.94305768 37.81311554 184.94439578 C33.22765221 184.94544524 28.64231807 184.95138317 24.05688667 184.96921539 C19.74523011 184.98565703 15.4338004 184.98787071 11.12212372 184.97907639 C9.53865134 184.97830397 7.95516696 184.98267557 6.37172508 184.99253464 C4.21194566 185.00519496 2.05297694 184.99941048 -0.10679626 184.98895264 C-1.31597938 184.9904192 -2.52516249 184.99188576 -3.77098751 184.99339676 C-7.11465522 184.58707069 -8.4853603 183.9996775 -10.83166504 181.62145996 C-11.99306048 178.13727365 -11.96938314 175.40453434 -11.98556519 171.72659302 C-11.98994744 171.02110301 -11.99432969 170.31561301 -11.99884474 169.58874452 C-12.01222564 167.21895035 -12.01840993 164.84919336 -12.02453613 162.47937012 C-12.03243749 160.78262667 -12.04070646 159.0858849 -12.04931641 157.3891449 C-12.07552674 151.81295373 -12.09084038 146.23675507 -12.10510254 140.66052246 C-12.11046212 138.74169281 -12.11583963 136.82286321 -12.12123489 134.90403366 C-12.14285977 126.92433892 -12.16159793 118.9446462 -12.17285728 110.96492958 C-12.18910737 99.52319659 -12.22231526 88.08180258 -12.27925813 76.6401974 C-12.31792279 68.59766239 -12.33748569 60.5552182 -12.34277785 52.51259267 C-12.34643531 47.70734412 -12.35849883 42.90245721 -12.39088058 38.09730911 C-12.42090114 33.57789431 -12.42729471 29.05906112 -12.41549683 24.53956795 C-12.4152756 22.88070956 -12.42362092 21.22182463 -12.44115067 19.56305885 C-12.46378443 17.29810074 -12.45557721 15.03526229 -12.43966675 12.77029419 C-12.44297689 11.50303812 -12.44628704 10.23578205 -12.44969749 8.93012428 C-11.11485826 1.78400288 -6.77056555 -0.00400119 0 0 Z " fill="#010000" transform="translate(219.8316650390625,87.3785400390625)"/>
<path d="M0 0 C113.52 0 227.04 0 344 0 C344 134.64 344 269.28 344 408 C328.16 408 312.32 408 296 408 C295.99191315 403.45897018 295.98382629 398.91794037 295.97549438 394.23930359 C295.90047917 352.63318917 295.81561216 311.02710412 295.71994839 269.42103187 C295.70742895 263.97217572 295.69499627 258.52331937 295.68261719 253.07446289 C295.6789182 251.44725354 295.6789182 251.44725354 295.67514448 249.78717128 C295.6353801 232.20348771 295.60264907 214.61979767 295.57250018 197.03609528 C295.54142735 179.00445346 295.50283594 160.97283914 295.45720994 142.94122821 C295.42927658 131.80752209 295.40726464 120.67383618 295.39273749 109.54010437 C295.38222582 101.91367009 295.36443595 94.28727484 295.34083296 86.66086992 C295.32741661 82.25553249 295.31729515 77.85024995 295.31578636 73.44489098 C295.31433608 69.41630568 295.30380158 65.38785278 295.28586559 61.3593081 C295.28099301 59.89762987 295.27953055 58.43593571 295.28172119 56.97425099 C295.28420102 54.99557398 295.27334009 53.01689342 295.26171303 51.03824902 C295.25943471 49.93668034 295.25715638 48.83511166 295.25480902 47.70016211 C295.19428182 44.77784146 295.19428182 44.77784146 293 42 C290.06135432 41.02045144 288.16372329 40.87058527 285.10181904 40.8613348 C284.08566118 40.85586036 283.06950331 40.85038591 282.02255279 40.84474558 C280.90291631 40.84376747 279.78327983 40.84278936 278.62971497 40.84178162 C277.44292151 40.83684364 276.25612805 40.83190566 275.03337115 40.82681805 C271.7336836 40.81408876 268.43403844 40.80581437 265.13433611 40.79939139 C261.57810608 40.79139387 258.02189756 40.77769387 254.46568298 40.76467896 C248.30245957 40.742907 242.13923398 40.72476514 235.9759922 40.70907402 C227.06492947 40.68638194 218.15389055 40.6582382 209.242848 40.62875474 C194.78601399 40.58107071 180.32917026 40.53780872 165.87231445 40.49731445 C151.82705935 40.45796365 137.7818129 40.41653843 123.73657227 40.37231445 C122.87113172 40.36959018 122.00569117 40.36686591 121.11402515 40.36405908 C116.77245628 40.35037967 112.43088755 40.33665939 108.08931887 40.32291877 C72.05956372 40.20894125 36.02978976 40.10240667 0 40 C0 26.8 0 13.6 0 0 Z " fill="#FE9710" transform="translate(112,24)"/>
<path d="M0 0 C47.52 0 95.04 0 144 0 C144 50.16 144 100.32 144 152 C141.36 152 138.72 152 136 152 C135.96132813 150.20755859 135.96132813 150.20755859 135.921875 148.37890625 C135.71966162 136.10433585 135.71966162 136.10433585 131 125 C130.60039062 124.36964844 130.20078125 123.73929687 129.7890625 123.08984375 C125.76882413 117.61720713 120.48335378 114.76282316 114 113 C108.02867123 112.19668801 102.01750063 112.07281904 96 112 C95.54775943 104.62617925 95.54775943 104.62617925 97.57421875 101.8203125 C98.27160156 101.26085937 98.96898437 100.70140625 99.6875 100.125 C106.68098903 93.81229308 110.25530641 85.3042772 111.20916748 75.94839478 C111.31006605 73.82436268 111.35541422 71.70839627 111.37109375 69.58203125 C111.38012222 68.80292892 111.3891507 68.0238266 111.39845276 67.22111511 C111.41286771 65.581612 111.42182001 63.9420525 111.42553711 62.30249023 C111.43738997 59.83540198 111.48662065 57.37085598 111.53710938 54.90429688 C111.6622097 42.63937129 109.91998699 31.57410871 101.7734375 21.7734375 C93.30994326 13.30994326 82.82312826 8.97978235 70.875 8.5 C60.35935213 8.91563826 50.44289141 13.48029359 43.0625 20.96484375 C33.97052789 31.80075016 32.19635763 42.77642137 32.40307617 56.42651367 C32.4374064 58.9306728 32.4236755 61.43128927 32.40429688 63.93554688 C32.41544236 76.90744757 33.69732223 89.10252186 43 99 C43.94875 99.825 44.8975 100.65 45.875 101.5 C48.91903192 105.08121402 48.15953619 107.38283508 48 112 C46.20755859 112.03867188 46.20755859 112.03867188 44.37890625 112.078125 C33.00653272 112.43549123 24.22774038 113.33047687 15.50390625 121.28515625 C11.38389079 125.98304401 8.9916532 132.02527117 8.68359375 138.23046875 C8.64169922 139.03291016 8.59980469 139.83535156 8.55664062 140.66210938 C8.51732422 141.49548828 8.47800781 142.32886719 8.4375 143.1875 C8.39431641 144.03248047 8.35113281 144.87746094 8.30664062 145.74804688 C8.20068482 147.83184433 8.0998498 149.91590103 8 152 C5.36 152 2.72 152 0 152 C0 101.84 0 51.68 0 0 Z " fill="#DFDFE1" transform="translate(224,104)"/>
<path d="M0 0 C1.21189499 -0.00554901 2.42378998 -0.01109802 3.67240906 -0.01681519 C6.98903489 -0.0265929 10.30409834 -0.01402681 13.62055779 0.00946999 C17.09489473 0.02960797 20.56919813 0.02369791 24.0435791 0.0213623 C29.87766191 0.02141585 35.71142052 0.04115355 41.54541016 0.07324219 C48.28528902 0.11013385 55.0247433 0.11891746 61.76470995 0.11194468 C68.25475312 0.10563404 74.74465106 0.11640428 81.23466492 0.13591003 C83.99372938 0.14407354 86.75271952 0.14679553 89.51179504 0.1452179 C93.3660937 0.14417378 97.22000933 0.16837667 101.07421875 0.1953125 C102.21722946 0.1923819 103.36024017 0.18945129 104.53788757 0.18643188 C106.11501274 0.20345657 106.11501274 0.20345657 107.72399902 0.2208252 C108.63468895 0.22455391 109.54537888 0.22828262 110.48366547 0.23212433 C113.59447653 0.69885985 115.49506771 1.79130185 118.03710938 3.61523438 C119.19754611 5.93610784 119.17561554 7.30937144 119.19824219 9.89379883 C119.20784973 10.77844315 119.21745728 11.66308746 119.22735596 12.57453918 C119.23373077 14.01200752 119.23373077 14.01200752 119.24023438 15.47851562 C119.24593445 16.46264938 119.25163452 17.44678314 119.25750732 18.46073914 C119.26696487 20.54632489 119.27349429 22.63192565 119.27734375 24.7175293 C119.28703839 27.90440064 119.31805037 31.09062417 119.34960938 34.27734375 C119.35614046 36.30273054 119.36139052 38.32812195 119.36523438 40.35351562 C119.37758118 41.30575516 119.38992798 42.25799469 119.40264893 43.23908997 C119.37401586 51.7695816 119.37401586 51.7695816 116.03710938 55.61523438 C113.05055605 56.61075215 111.07641988 56.74552462 107.95777893 56.75567627 C106.90766632 56.76138641 105.85755371 56.76709656 104.77561951 56.77297974 C103.6238472 56.7740976 102.47207489 56.77521545 101.28540039 56.77636719 C99.46558655 56.78381454 99.46558655 56.78381454 97.60900879 56.79141235 C94.28049553 56.80352057 90.95204508 56.8109787 87.62351727 56.81542301 C85.54416905 56.81835493 83.46482633 56.82245991 81.38548088 56.82692719 C74.88000723 56.84059747 68.37454616 56.85026708 61.86905915 56.85412908 C54.35841279 56.85861235 46.84794819 56.87617451 39.3373571 56.90512967 C33.53175818 56.92673538 27.72621045 56.93683272 21.92057174 56.93817019 C18.45291813 56.9392188 14.98543548 56.94513839 11.51782417 56.96298981 C7.65122715 56.98250872 3.78485807 56.97818595 -0.08178711 56.97167969 C-1.23153519 56.98089447 -2.38128326 56.99010925 -3.56587219 56.99960327 C-5.14527084 56.99124954 -5.14527084 56.99124954 -6.75657654 56.98272705 C-7.67078589 56.98419361 -8.58499525 56.98566017 -9.52690792 56.98717117 C-12.47186691 56.53752159 -13.82443231 55.66435111 -15.96289062 53.61523438 C-16.88671052 50.84377468 -17.10833312 49.09118194 -17.15576172 46.22314453 C-17.17182465 45.33857574 -17.18788757 44.45400696 -17.20443726 43.54263306 C-17.24898913 39.50759765 -17.28993342 35.4727238 -17.31298828 31.4375 C-17.32956282 29.30945918 -17.35687238 27.18147437 -17.39501953 25.05371094 C-17.44977257 21.98277971 -17.4716579 18.91315037 -17.48632812 15.84179688 C-17.5089975 14.8926944 -17.53166687 13.94359192 -17.55502319 12.96572876 C-17.55217316 12.07485565 -17.54932312 11.18398254 -17.54638672 10.26611328 C-17.55447357 9.48684479 -17.56256042 8.70757629 -17.57089233 7.9046936 C-15.22404506 -0.93247094 -7.48828281 -0.08689238 0 0 Z " fill="#000000" transform="translate(80.962890625,215.384765625)"/>
<path d="M0 0 C1.21189499 -0.00554901 2.42378998 -0.01109802 3.67240906 -0.01681519 C6.98903489 -0.0265929 10.30409834 -0.01402681 13.62055779 0.00946999 C17.09489473 0.02960797 20.56919813 0.02369791 24.0435791 0.0213623 C29.87766191 0.02141585 35.71142052 0.04115355 41.54541016 0.07324219 C48.28528902 0.11013385 55.0247433 0.11891746 61.76470995 0.11194468 C68.25475312 0.10563404 74.74465106 0.11640428 81.23466492 0.13591003 C83.99372938 0.14407354 86.75271952 0.14679553 89.51179504 0.1452179 C93.3660937 0.14417378 97.22000933 0.16837667 101.07421875 0.1953125 C102.21722946 0.1923819 103.36024017 0.18945129 104.53788757 0.18643188 C106.11501274 0.20345657 106.11501274 0.20345657 107.72399902 0.2208252 C108.63468895 0.22455391 109.54537888 0.22828262 110.48366547 0.23212433 C113.59447653 0.69885985 115.49506771 1.79130185 118.03710938 3.61523438 C119.19754611 5.93610784 119.17561554 7.30937144 119.19824219 9.89379883 C119.20784973 10.77844315 119.21745728 11.66308746 119.22735596 12.57453918 C119.23373077 14.01200752 119.23373077 14.01200752 119.24023438 15.47851562 C119.24593445 16.46264938 119.25163452 17.44678314 119.25750732 18.46073914 C119.26696487 20.54632489 119.27349429 22.63192565 119.27734375 24.7175293 C119.28703839 27.90440064 119.31805037 31.09062417 119.34960938 34.27734375 C119.35614046 36.30273054 119.36139052 38.32812195 119.36523438 40.35351562 C119.37758118 41.30575516 119.38992798 42.25799469 119.40264893 43.23908997 C119.37401586 51.7695816 119.37401586 51.7695816 116.03710938 55.61523438 C113.05055605 56.61075215 111.07641988 56.74552462 107.95777893 56.75567627 C106.90766632 56.76138641 105.85755371 56.76709656 104.77561951 56.77297974 C103.6238472 56.7740976 102.47207489 56.77521545 101.28540039 56.77636719 C99.46558655 56.78381454 99.46558655 56.78381454 97.60900879 56.79141235 C94.28049553 56.80352057 90.95204508 56.8109787 87.62351727 56.81542301 C85.54416905 56.81835493 83.46482633 56.82245991 81.38548088 56.82692719 C74.88000723 56.84059747 68.37454616 56.85026708 61.86905915 56.85412908 C54.35841279 56.85861235 46.84794819 56.87617451 39.3373571 56.90512967 C33.53175818 56.92673538 27.72621045 56.93683272 21.92057174 56.93817019 C18.45291813 56.9392188 14.98543548 56.94513839 11.51782417 56.96298981 C7.65122715 56.98250872 3.78485807 56.97818595 -0.08178711 56.97167969 C-1.23153519 56.98089447 -2.38128326 56.99010925 -3.56587219 56.99960327 C-5.14527084 56.99124954 -5.14527084 56.99124954 -6.75657654 56.98272705 C-7.67078589 56.98419361 -8.58499525 56.98566017 -9.52690792 56.98717117 C-12.47186691 56.53752159 -13.82443231 55.66435111 -15.96289062 53.61523438 C-16.88671052 50.84377468 -17.10833312 49.09118194 -17.15576172 46.22314453 C-17.17182465 45.33857574 -17.18788757 44.45400696 -17.20443726 43.54263306 C-17.24898913 39.50759765 -17.28993342 35.4727238 -17.31298828 31.4375 C-17.32956282 29.30945918 -17.35687238 27.18147437 -17.39501953 25.05371094 C-17.44977257 21.98277971 -17.4716579 18.91315037 -17.48632812 15.84179688 C-17.5089975 14.8926944 -17.53166687 13.94359192 -17.55502319 12.96572876 C-17.55217316 12.07485565 -17.54932312 11.18398254 -17.54638672 10.26611328 C-17.55447357 9.48684479 -17.56256042 8.70757629 -17.57089233 7.9046936 C-15.22404506 -0.93247094 -7.48828281 -0.08689238 0 0 Z " fill="#000000" transform="translate(80.962890625,151.384765625)"/>
<path d="M0 0 C1.21189499 -0.00554901 2.42378998 -0.01109802 3.67240906 -0.01681519 C6.98903489 -0.0265929 10.30409834 -0.01402681 13.62055779 0.00946999 C17.09489473 0.02960797 20.56919813 0.02369791 24.0435791 0.0213623 C29.87766191 0.02141585 35.71142052 0.04115355 41.54541016 0.07324219 C48.28528902 0.11013385 55.0247433 0.11891746 61.76470995 0.11194468 C68.25475312 0.10563404 74.74465106 0.11640428 81.23466492 0.13591003 C83.99372938 0.14407354 86.75271952 0.14679553 89.51179504 0.1452179 C93.3660937 0.14417378 97.22000933 0.16837667 101.07421875 0.1953125 C102.21722946 0.1923819 103.36024017 0.18945129 104.53788757 0.18643188 C106.11501274 0.20345657 106.11501274 0.20345657 107.72399902 0.2208252 C108.63468895 0.22455391 109.54537888 0.22828262 110.48366547 0.23212433 C113.59447653 0.69885985 115.49506771 1.79130185 118.03710938 3.61523438 C119.19754611 5.93610784 119.17561554 7.30937144 119.19824219 9.89379883 C119.20784973 10.77844315 119.21745728 11.66308746 119.22735596 12.57453918 C119.23373077 14.01200752 119.23373077 14.01200752 119.24023438 15.47851562 C119.24593445 16.46264938 119.25163452 17.44678314 119.25750732 18.46073914 C119.26696487 20.54632489 119.27349429 22.63192565 119.27734375 24.7175293 C119.28703839 27.90440064 119.31805037 31.09062417 119.34960938 34.27734375 C119.35614046 36.30273054 119.36139052 38.32812195 119.36523438 40.35351562 C119.37758118 41.30575516 119.38992798 42.25799469 119.40264893 43.23908997 C119.37401586 51.7695816 119.37401586 51.7695816 116.03710938 55.61523438 C113.05055605 56.61075215 111.07641988 56.74552462 107.95777893 56.75567627 C106.90766632 56.76138641 105.85755371 56.76709656 104.77561951 56.77297974 C103.6238472 56.7740976 102.47207489 56.77521545 101.28540039 56.77636719 C99.46558655 56.78381454 99.46558655 56.78381454 97.60900879 56.79141235 C94.28049553 56.80352057 90.95204508 56.8109787 87.62351727 56.81542301 C85.54416905 56.81835493 83.46482633 56.82245991 81.38548088 56.82692719 C74.88000723 56.84059747 68.37454616 56.85026708 61.86905915 56.85412908 C54.35841279 56.85861235 46.84794819 56.87617451 39.3373571 56.90512967 C33.53175818 56.92673538 27.72621045 56.93683272 21.92057174 56.93817019 C18.45291813 56.9392188 14.98543548 56.94513839 11.51782417 56.96298981 C7.65122715 56.98250872 3.78485807 56.97818595 -0.08178711 56.97167969 C-1.23153519 56.98089447 -2.38128326 56.99010925 -3.56587219 56.99960327 C-5.14527084 56.99124954 -5.14527084 56.99124954 -6.75657654 56.98272705 C-7.67078589 56.98419361 -8.58499525 56.98566017 -9.52690792 56.98717117 C-12.47186691 56.53752159 -13.82443231 55.66435111 -15.96289062 53.61523438 C-16.88671052 50.84377468 -17.10833312 49.09118194 -17.15576172 46.22314453 C-17.17182465 45.33857574 -17.18788757 44.45400696 -17.20443726 43.54263306 C-17.24898913 39.50759765 -17.28993342 35.4727238 -17.31298828 31.4375 C-17.32956282 29.30945918 -17.35687238 27.18147437 -17.39501953 25.05371094 C-17.44977257 21.98277971 -17.4716579 18.91315037 -17.48632812 15.84179688 C-17.5089975 14.8926944 -17.53166687 13.94359192 -17.55502319 12.96572876 C-17.55217316 12.07485565 -17.54932312 11.18398254 -17.54638672 10.26611328 C-17.55447357 9.48684479 -17.56256042 8.70757629 -17.57089233 7.9046936 C-15.22404506 -0.93247094 -7.48828281 -0.08689238 0 0 Z " fill="#000000" transform="translate(80.962890625,87.384765625)"/>
<path d="M0 0 C1.26256197 -0.00638882 2.52512395 -0.01277764 3.82594538 -0.01936007 C7.32833244 -0.0363619 10.83000525 -0.02216403 14.33235478 -0.00284529 C18.11020379 0.01257218 21.88796473 -0.00081766 25.66581726 -0.0105896 C33.06575777 -0.0251238 40.46542413 -0.01287456 47.86533868 0.00852364 C56.48063201 0.03252281 65.09586237 0.03081994 73.7111817 0.02821773 C89.08188482 0.0245266 104.45245869 0.04536133 119.82312012 0.07946777 C134.74209866 0.11255974 149.66094155 0.12672618 164.57995605 0.1204834 C180.8210805 0.11372083 197.06214809 0.11617583 213.30326414 0.1358428 C214.59126422 0.13740203 214.59126422 0.13740203 215.90528449 0.13899276 C217.62992809 0.14108367 219.35457166 0.14319465 221.0792152 0.14532593 C227.08620624 0.15222434 233.09317978 0.15289037 239.10017395 0.15144348 C246.41951933 0.15000442 253.73875402 0.15968274 261.05806267 0.18338984 C264.7933538 0.19525772 268.52849056 0.20236979 272.26379967 0.19655228 C276.3103843 0.19043614 280.35653411 0.20752865 284.40307617 0.22705078 C286.1795685 0.21905889 286.1795685 0.21905889 287.99194956 0.21090555 C289.61681103 0.22449051 289.61681103 0.22449051 291.27449799 0.23834991 C292.20855768 0.23992112 293.14261737 0.24149232 294.1049819 0.24311113 C297.24473219 0.70060974 299.14064798 1.77730529 301.70153809 3.62145996 C303.10611546 6.4306147 302.95048966 8.5095653 302.70153809 11.62145996 C300.92169404 14.75737566 300.17845602 15.46248732 296.70153809 16.62145996 C294.97659231 16.71692192 293.24817356 16.75416724 291.52059364 16.75847435 C290.44133476 16.76354889 289.36207587 16.76862344 288.25011218 16.77385175 C286.46488133 16.77459839 286.46488133 16.77459839 284.64358521 16.77536011 C283.38273208 16.77974236 282.12187896 16.78412462 280.82281816 16.78863966 C277.31616387 16.80060826 273.80952334 16.80625424 270.30285263 16.81082082 C266.52362413 16.81677562 262.7444121 16.82838557 258.9651947 16.83911133 C249.83620602 16.86363494 240.70721188 16.87826077 231.5782004 16.8911714 C229.00076182 16.89488283 226.42332379 16.89885608 223.84588575 16.90292406 C207.84673377 16.92815592 191.84758095 16.95021301 175.84841347 16.96265221 C172.14255393 16.96558198 168.43669443 16.96854364 164.73083496 16.97155762 C163.80974305 16.97230367 162.88865115 16.97304972 161.93964736 16.97381838 C147.00871491 16.98648001 132.07790132 17.01971432 117.14702447 17.06135945 C101.8250664 17.10374594 86.50316926 17.12734328 71.1811527 17.13257277 C62.57536488 17.13599022 53.96976295 17.14778482 45.36403275 17.18067551 C38.0373102 17.20863186 30.71081165 17.21969478 23.38403989 17.20848005 C19.64457853 17.20328233 15.90558661 17.20625144 12.16619301 17.23094559 C8.11495318 17.25747639 4.06475309 17.24541619 0.01345825 17.22946167 C-1.17223421 17.24334376 -2.35792666 17.25722584 -3.57954919 17.2715286 C-11.51130242 17.19420632 -11.51130242 17.19420632 -15.52889442 14.27095985 C-17.29846191 11.62145996 -17.29846191 11.62145996 -17.92346191 8.62145996 C-15.93810704 -0.90824344 -7.93500089 -0.0838696 0 0 Z " fill="#000000" transform="translate(81.2984619140625,327.3785400390625)"/>
<path d="M0 0 C1.26256197 -0.00638882 2.52512395 -0.01277764 3.82594538 -0.01936007 C7.32833244 -0.0363619 10.83000525 -0.02216403 14.33235478 -0.00284529 C18.11020379 0.01257218 21.88796473 -0.00081766 25.66581726 -0.0105896 C33.06575777 -0.0251238 40.46542413 -0.01287456 47.86533868 0.00852364 C56.48063201 0.03252281 65.09586237 0.03081994 73.7111817 0.02821773 C89.08188482 0.0245266 104.45245869 0.04536133 119.82312012 0.07946777 C134.74209866 0.11255974 149.66094155 0.12672618 164.57995605 0.1204834 C180.8210805 0.11372083 197.06214809 0.11617583 213.30326414 0.1358428 C214.59126422 0.13740203 214.59126422 0.13740203 215.90528449 0.13899276 C217.62992809 0.14108367 219.35457166 0.14319465 221.0792152 0.14532593 C227.08620624 0.15222434 233.09317978 0.15289037 239.10017395 0.15144348 C246.41951933 0.15000442 253.73875402 0.15968274 261.05806267 0.18338984 C264.7933538 0.19525772 268.52849056 0.20236979 272.26379967 0.19655228 C276.3103843 0.19043614 280.35653411 0.20752865 284.40307617 0.22705078 C286.1795685 0.21905889 286.1795685 0.21905889 287.99194956 0.21090555 C289.61681103 0.22449051 289.61681103 0.22449051 291.27449799 0.23834991 C292.20855768 0.23992112 293.14261737 0.24149232 294.1049819 0.24311113 C297.24473219 0.70060974 299.14064798 1.77730529 301.70153809 3.62145996 C303.10611546 6.4306147 302.95048966 8.5095653 302.70153809 11.62145996 C300.92169404 14.75737566 300.17845602 15.46248732 296.70153809 16.62145996 C294.97659231 16.71692192 293.24817356 16.75416724 291.52059364 16.75847435 C290.44133476 16.76354889 289.36207587 16.76862344 288.25011218 16.77385175 C286.46488133 16.77459839 286.46488133 16.77459839 284.64358521 16.77536011 C283.38273208 16.77974236 282.12187896 16.78412462 280.82281816 16.78863966 C277.31616387 16.80060826 273.80952334 16.80625424 270.30285263 16.81082082 C266.52362413 16.81677562 262.7444121 16.82838557 258.9651947 16.83911133 C249.83620602 16.86363494 240.70721188 16.87826077 231.5782004 16.8911714 C229.00076182 16.89488283 226.42332379 16.89885608 223.84588575 16.90292406 C207.84673377 16.92815592 191.84758095 16.95021301 175.84841347 16.96265221 C172.14255393 16.96558198 168.43669443 16.96854364 164.73083496 16.97155762 C163.80974305 16.97230367 162.88865115 16.97304972 161.93964736 16.97381838 C147.00871491 16.98648001 132.07790132 17.01971432 117.14702447 17.06135945 C101.8250664 17.10374594 86.50316926 17.12734328 71.1811527 17.13257277 C62.57536488 17.13599022 53.96976295 17.14778482 45.36403275 17.18067551 C38.0373102 17.20863186 30.71081165 17.21969478 23.38403989 17.20848005 C19.64457853 17.20328233 15.90558661 17.20625144 12.16619301 17.23094559 C8.11495318 17.25747639 4.06475309 17.24541619 0.01345825 17.22946167 C-1.17223421 17.24334376 -2.35792666 17.25722584 -3.57954919 17.2715286 C-11.51130242 17.19420632 -11.51130242 17.19420632 -15.52889442 14.27095985 C-17.29846191 11.62145996 -17.29846191 11.62145996 -17.92346191 8.62145996 C-15.93810704 -0.90824344 -7.93500089 -0.0838696 0 0 Z " fill="#000000" transform="translate(81.2984619140625,303.3785400390625)"/>
<path d="M0 0 C1.26256197 -0.00638882 2.52512395 -0.01277764 3.82594538 -0.01936007 C7.32833244 -0.0363619 10.83000525 -0.02216403 14.33235478 -0.00284529 C18.11020379 0.01257218 21.88796473 -0.00081766 25.66581726 -0.0105896 C33.06575777 -0.0251238 40.46542413 -0.01287456 47.86533868 0.00852364 C56.48063201 0.03252281 65.09586237 0.03081994 73.7111817 0.02821773 C89.08188482 0.0245266 104.45245869 0.04536133 119.82312012 0.07946777 C134.74209866 0.11255974 149.66094155 0.12672618 164.57995605 0.1204834 C180.8210805 0.11372083 197.06214809 0.11617583 213.30326414 0.1358428 C214.59126422 0.13740203 214.59126422 0.13740203 215.90528449 0.13899276 C217.62992809 0.14108367 219.35457166 0.14319465 221.0792152 0.14532593 C227.08620624 0.15222434 233.09317978 0.15289037 239.10017395 0.15144348 C246.41951933 0.15000442 253.73875402 0.15968274 261.05806267 0.18338984 C264.7933538 0.19525772 268.52849056 0.20236979 272.26379967 0.19655228 C276.3103843 0.19043614 280.35653411 0.20752865 284.40307617 0.22705078 C286.1795685 0.21905889 286.1795685 0.21905889 287.99194956 0.21090555 C289.61681103 0.22449051 289.61681103 0.22449051 291.27449799 0.23834991 C292.20855768 0.23992112 293.14261737 0.24149232 294.1049819 0.24311113 C297.24473219 0.70060974 299.14064798 1.77730529 301.70153809 3.62145996 C303.10611546 6.4306147 302.95048966 8.5095653 302.70153809 11.62145996 C300.92169404 14.75737566 300.17845602 15.46248732 296.70153809 16.62145996 C294.97659231 16.71692192 293.24817356 16.75416724 291.52059364 16.75847435 C290.44133476 16.76354889 289.36207587 16.76862344 288.25011218 16.77385175 C286.46488133 16.77459839 286.46488133 16.77459839 284.64358521 16.77536011 C283.38273208 16.77974236 282.12187896 16.78412462 280.82281816 16.78863966 C277.31616387 16.80060826 273.80952334 16.80625424 270.30285263 16.81082082 C266.52362413 16.81677562 262.7444121 16.82838557 258.9651947 16.83911133 C249.83620602 16.86363494 240.70721188 16.87826077 231.5782004 16.8911714 C229.00076182 16.89488283 226.42332379 16.89885608 223.84588575 16.90292406 C207.84673377 16.92815592 191.84758095 16.95021301 175.84841347 16.96265221 C172.14255393 16.96558198 168.43669443 16.96854364 164.73083496 16.97155762 C163.80974305 16.97230367 162.88865115 16.97304972 161.93964736 16.97381838 C147.00871491 16.98648001 132.07790132 17.01971432 117.14702447 17.06135945 C101.8250664 17.10374594 86.50316926 17.12734328 71.1811527 17.13257277 C62.57536488 17.13599022 53.96976295 17.14778482 45.36403275 17.18067551 C38.0373102 17.20863186 30.71081165 17.21969478 23.38403989 17.20848005 C19.64457853 17.20328233 15.90558661 17.20625144 12.16619301 17.23094559 C8.11495318 17.25747639 4.06475309 17.24541619 0.01345825 17.22946167 C-1.17223421 17.24334376 -2.35792666 17.25722584 -3.57954919 17.2715286 C-11.51130242 17.19420632 -11.51130242 17.19420632 -15.52889442 14.27095985 C-17.29846191 11.62145996 -17.29846191 11.62145996 -17.92346191 8.62145996 C-15.93810704 -0.90824344 -7.93500089 -0.0838696 0 0 Z " fill="#000000" transform="translate(81.2984619140625,279.3785400390625)"/>
<path d="M0 0 C1.06655146 -0.00638882 2.13310292 -0.01277764 3.23197412 -0.01936007 C6.81205226 -0.03464173 10.39102942 -0.01412636 13.97106934 0.00622559 C16.53509387 0.00272537 19.09911623 -0.00293207 21.66313171 -0.0105896 C27.908074 -0.02337855 34.15260654 -0.0128818 40.39751375 0.00852364 C47.66945508 0.03253449 54.94132192 0.03081922 62.21329409 0.02821773 C75.18812133 0.02452737 88.1627954 0.04535462 101.13757324 0.07946777 C113.72843294 0.11255926 126.31913187 0.12672609 138.91003418 0.1204834 C152.61975242 0.11371942 166.32940332 0.11617982 180.03911161 0.1358428 C180.76407665 0.13688229 181.48904168 0.13792177 182.23597535 0.13899276 C183.69203852 0.14108366 185.14810165 0.14319463 186.60416475 0.14532593 C191.6733968 0.15222168 196.74260811 0.15289081 201.81184387 0.15144348 C208.63430134 0.14985348 215.45653887 0.16474801 222.27895546 0.19067001 C224.78598916 0.19784474 227.29304335 0.19990919 229.80008507 0.19655228 C233.21613634 0.19285007 236.63162138 0.20754199 240.04760742 0.22705078 C241.04517012 0.22172286 242.04273282 0.21639493 243.07052469 0.21090555 C247.99943306 0.25963644 251.57357503 0.30772029 255.52380371 3.62145996 C256.92838108 6.4306147 256.77275528 8.5095653 256.52380371 11.62145996 C254.74395966 14.75737566 254.00072164 15.46248732 250.52380371 16.62145996 C249.04898247 16.71539127 247.57029606 16.75410907 246.09249306 16.75847435 C244.72440921 16.76608616 244.72440921 16.76608616 243.32868731 16.77385175 C241.82360474 16.77459839 241.82360474 16.77459839 240.28811646 16.77536011 C239.22327384 16.77974236 238.15843123 16.78412462 237.06132066 16.78863966 C233.47540831 16.80204758 229.88952055 16.80821095 226.30358887 16.81433105 C223.73986194 16.82223028 221.17613613 16.83049912 218.6124115 16.83911133 C210.90723818 16.86308153 203.20206607 16.87825954 195.49686724 16.8911714 C193.32114292 16.89488334 191.14541925 16.89885655 188.96969557 16.90292406 C175.46178605 16.92815614 161.95387553 16.95021143 148.44594765 16.96265221 C145.31760276 16.96558194 142.1892579 16.9685436 139.06091309 16.97155762 C138.28337069 16.97230367 137.50582829 16.97304972 136.704724 16.97381838 C124.10173031 16.98647907 111.49887748 17.01971257 98.89594968 17.06135945 C85.96057765 17.10375513 73.02527781 17.12734432 60.08983648 17.13257277 C52.82542614 17.13598915 45.5612361 17.1477711 38.29689407 17.18067551 C31.46623155 17.21156484 24.63595945 17.21710623 17.80523872 17.20529175 C15.29495755 17.20507013 12.78465906 17.21344747 10.27443886 17.23094559 C6.85364307 17.25349791 3.43425929 17.24540576 0.01345825 17.22946167 C-0.98546869 17.24334376 -1.98439563 17.25722584 -3.01359308 17.2715286 C-7.66236988 17.21794948 -9.78714292 17.14114511 -13.5927372 14.27095985 C-15.47619629 11.62145996 -15.47619629 11.62145996 -16.10119629 8.62145996 C-14.2669466 -0.18293854 -7.46662429 -0.09369443 0 0 Z " fill="#000000" transform="translate(127.4761962890625,439.3785400390625)"/>
<path d="M0 0 C1.06655146 -0.00638882 2.13310292 -0.01277764 3.23197412 -0.01936007 C6.81205226 -0.03464173 10.39102942 -0.01412636 13.97106934 0.00622559 C16.53509387 0.00272537 19.09911623 -0.00293207 21.66313171 -0.0105896 C27.908074 -0.02337855 34.15260654 -0.0128818 40.39751375 0.00852364 C47.66945508 0.03253449 54.94132192 0.03081922 62.21329409 0.02821773 C75.18812133 0.02452737 88.1627954 0.04535462 101.13757324 0.07946777 C113.72843294 0.11255926 126.31913187 0.12672609 138.91003418 0.1204834 C152.61975242 0.11371942 166.32940332 0.11617982 180.03911161 0.1358428 C180.76407665 0.13688229 181.48904168 0.13792177 182.23597535 0.13899276 C183.69203852 0.14108366 185.14810165 0.14319463 186.60416475 0.14532593 C191.6733968 0.15222168 196.74260811 0.15289081 201.81184387 0.15144348 C208.63430134 0.14985348 215.45653887 0.16474801 222.27895546 0.19067001 C224.78598916 0.19784474 227.29304335 0.19990919 229.80008507 0.19655228 C233.21613634 0.19285007 236.63162138 0.20754199 240.04760742 0.22705078 C241.04517012 0.22172286 242.04273282 0.21639493 243.07052469 0.21090555 C247.99943306 0.25963644 251.57357503 0.30772029 255.52380371 3.62145996 C256.92838108 6.4306147 256.77275528 8.5095653 256.52380371 11.62145996 C254.74395966 14.75737566 254.00072164 15.46248732 250.52380371 16.62145996 C249.04898247 16.71539127 247.57029606 16.75410907 246.09249306 16.75847435 C244.72440921 16.76608616 244.72440921 16.76608616 243.32868731 16.77385175 C241.82360474 16.77459839 241.82360474 16.77459839 240.28811646 16.77536011 C239.22327384 16.77974236 238.15843123 16.78412462 237.06132066 16.78863966 C233.47540831 16.80204758 229.88952055 16.80821095 226.30358887 16.81433105 C223.73986194 16.82223028 221.17613613 16.83049912 218.6124115 16.83911133 C210.90723818 16.86308153 203.20206607 16.87825954 195.49686724 16.8911714 C193.32114292 16.89488334 191.14541925 16.89885655 188.96969557 16.90292406 C175.46178605 16.92815614 161.95387553 16.95021143 148.44594765 16.96265221 C145.31760276 16.96558194 142.1892579 16.9685436 139.06091309 16.97155762 C138.28337069 16.97230367 137.50582829 16.97304972 136.704724 16.97381838 C124.10173031 16.98647907 111.49887748 17.01971257 98.89594968 17.06135945 C85.96057765 17.10375513 73.02527781 17.12734432 60.08983648 17.13257277 C52.82542614 17.13598915 45.5612361 17.1477711 38.29689407 17.18067551 C31.46623155 17.21156484 24.63595945 17.21710623 17.80523872 17.20529175 C15.29495755 17.20507013 12.78465906 17.21344747 10.27443886 17.23094559 C6.85364307 17.25349791 3.43425929 17.24540576 0.01345825 17.22946167 C-0.98546869 17.24334376 -1.98439563 17.25722584 -3.01359308 17.2715286 C-7.66236988 17.21794948 -9.78714292 17.14114511 -13.5927372 14.27095985 C-15.47619629 11.62145996 -15.47619629 11.62145996 -16.10119629 8.62145996 C-14.2669466 -0.18293854 -7.46662429 -0.09369443 0 0 Z " fill="#000000" transform="translate(127.4761962890625,383.3785400390625)"/>
<path d="M0 0 C34.32 0 68.64 0 104 0 C104 7.92 104 15.84 104 24 C69.68 24 35.36 24 0 24 C0 16.08 0 8.16 0 0 Z " fill="#78B9EB" transform="translate(80,232)"/>
<path d="M0 0 C34.32 0 68.64 0 104 0 C104 7.92 104 15.84 104 24 C69.68 24 35.36 24 0 24 C0 16.08 0 8.16 0 0 Z " fill="#78B9EB" transform="translate(80,168)"/>
<path d="M0 0 C34.32 0 68.64 0 104 0 C104 7.92 104 15.84 104 24 C69.68 24 35.36 24 0 24 C0 16.08 0 8.16 0 0 Z " fill="#78B9EB" transform="translate(80,104)"/>
<path d="M0 0 C1.38177674 -0.00350281 2.76354945 -0.0091632 4.14530945 -0.01681519 C7.89136588 -0.03105033 11.63668715 -0.01401494 15.38267326 0.00946999 C19.30544621 0.02959424 23.2281891 0.02369861 27.15100098 0.0213623 C33.73832303 0.02141586 40.32535809 0.0411625 46.91259766 0.07324219 C54.52496883 0.11013438 62.13696411 0.11891759 69.74941301 0.11194468 C77.07666117 0.1056362 84.40378063 0.11640032 91.73100281 0.13591003 C94.84732398 0.14407805 97.9635793 0.14679469 101.07991028 0.1452179 C104.75065178 0.14433798 108.42103688 0.15858337 112.09168434 0.18444443 C114.07901385 0.19500583 116.06640425 0.19093756 118.05375671 0.18643188 C119.23979996 0.19778168 120.4258432 0.20913147 121.64782715 0.2208252 C122.67650658 0.22455391 123.705186 0.22828262 124.76503754 0.23212433 C128.02772903 0.67801316 129.92266195 1.68405782 132.56835938 3.61523438 C133.97293674 6.42438911 133.81731095 8.50333972 133.56835938 11.61523438 C131.78851533 14.75115008 131.04527731 15.45626173 127.56835938 16.61523438 C125.67703626 16.71657014 123.78234442 16.75889314 121.88833618 16.76913452 C120.11339531 16.78203522 120.11339531 16.78203522 118.30259705 16.79519653 C117.00278397 16.79945648 115.70297089 16.80371643 114.36376953 16.80810547 C112.98229263 16.81600827 111.60081778 16.82427733 110.21934509 16.83288574 C105.68205734 16.85907946 101.14476047 16.87440806 96.60742188 16.88867188 C95.04520029 16.89403214 93.48297876 16.89940965 91.92075729 16.90480423 C85.42340456 16.92642669 78.92605429 16.94516434 72.4286747 16.95642662 C63.11692618 16.97267388 53.80559436 17.00587727 44.49400294 17.06282747 C37.94614771 17.10151022 31.39840403 17.12105715 24.85043752 17.12634718 C20.93941523 17.13000222 17.02883764 17.14203925 13.117939 17.17444992 C9.43896041 17.20450282 5.76069629 17.21085295 2.08162117 17.19906616 C0.08940576 17.19873991 -1.90276538 17.22322271 -3.89482117 17.2484436 C-13.63144368 17.18032044 -13.63144368 17.18032044 -16.73403931 14.26626587 C-18.84416727 10.97101885 -19.23120632 9.45314969 -18.43164062 5.61523438 C-14.02012043 -1.26075497 -7.50945324 -0.07705244 0 0 Z " fill="#000000" transform="translate(130.431640625,463.384765625)"/>
<path d="M0 0 C1.38177674 -0.00350281 2.76354945 -0.0091632 4.14530945 -0.01681519 C7.89136588 -0.03105033 11.63668715 -0.01401494 15.38267326 0.00946999 C19.30544621 0.02959424 23.2281891 0.02369861 27.15100098 0.0213623 C33.73832303 0.02141586 40.32535809 0.0411625 46.91259766 0.07324219 C54.52496883 0.11013438 62.13696411 0.11891759 69.74941301 0.11194468 C77.07666117 0.1056362 84.40378063 0.11640032 91.73100281 0.13591003 C94.84732398 0.14407805 97.9635793 0.14679469 101.07991028 0.1452179 C104.75065178 0.14433798 108.42103688 0.15858337 112.09168434 0.18444443 C114.07901385 0.19500583 116.06640425 0.19093756 118.05375671 0.18643188 C119.23979996 0.19778168 120.4258432 0.20913147 121.64782715 0.2208252 C122.67650658 0.22455391 123.705186 0.22828262 124.76503754 0.23212433 C128.02772903 0.67801316 129.92266195 1.68405782 132.56835938 3.61523438 C133.97293674 6.42438911 133.81731095 8.50333972 133.56835938 11.61523438 C131.78851533 14.75115008 131.04527731 15.45626173 127.56835938 16.61523438 C125.67703626 16.71657014 123.78234442 16.75889314 121.88833618 16.76913452 C120.11339531 16.78203522 120.11339531 16.78203522 118.30259705 16.79519653 C117.00278397 16.79945648 115.70297089 16.80371643 114.36376953 16.80810547 C112.98229263 16.81600827 111.60081778 16.82427733 110.21934509 16.83288574 C105.68205734 16.85907946 101.14476047 16.87440806 96.60742188 16.88867188 C95.04520029 16.89403214 93.48297876 16.89940965 91.92075729 16.90480423 C85.42340456 16.92642669 78.92605429 16.94516434 72.4286747 16.95642662 C63.11692618 16.97267388 53.80559436 17.00587727 44.49400294 17.06282747 C37.94614771 17.10151022 31.39840403 17.12105715 24.85043752 17.12634718 C20.93941523 17.13000222 17.02883764 17.14203925 13.117939 17.17444992 C9.43896041 17.20450282 5.76069629 17.21085295 2.08162117 17.19906616 C0.08940576 17.19873991 -1.90276538 17.22322271 -3.89482117 17.2484436 C-13.63144368 17.18032044 -13.63144368 17.18032044 -16.73403931 14.26626587 C-18.84416727 10.97101885 -19.23120632 9.45314969 -18.43164062 5.61523438 C-14.02012043 -1.26075497 -7.50945324 -0.07705244 0 0 Z " fill="#000000" transform="translate(130.431640625,407.384765625)"/>
<path d="M0 0 C1.70079964 -0.00832352 1.70079964 -0.00832352 3.43595886 -0.01681519 C7.18364735 -0.02862501 10.93013045 -0.00432053 14.67773438 0.02148438 C17.28177841 0.02319516 19.88582417 0.02313013 22.48986816 0.0213623 C27.94733302 0.02141584 33.40445119 0.04114814 38.86181641 0.07324219 C45.16545045 0.11013354 51.46863051 0.11891739 57.77235842 0.11194468 C63.84380714 0.10563272 69.91507565 0.11662028 75.98649597 0.13591003 C78.56690207 0.14294482 81.14732188 0.14606399 83.72773743 0.1452179 C87.33306708 0.14701417 90.93775069 0.16838292 94.54296875 0.1953125 C95.61117355 0.1923819 96.67937836 0.18945129 97.779953 0.18643188 C106.90331966 0.29165284 106.90331966 0.29165284 110.77148438 3.61523438 C112.17606174 6.42438911 112.02043595 8.50333972 111.77148438 11.61523438 C109.99164033 14.75115008 109.24840231 15.45626173 105.77148438 16.61523438 C104.18415184 16.7148891 102.59301778 16.75875149 101.00259399 16.76913452 C100.02123978 16.77773499 99.03988556 16.78633545 98.02879333 16.79519653 C96.4157003 16.80158646 96.4157003 16.80158646 94.77001953 16.80810547 C93.06965797 16.8203717 93.06965797 16.8203717 91.33494568 16.83288574 C87.57681815 16.8577367 83.81872832 16.87425294 80.06054688 16.88867188 C78.77872906 16.89399555 77.49691124 16.89931923 76.17625046 16.90480423 C70.79065111 16.92603021 65.40506406 16.94516107 60.01943398 16.95642662 C52.30516086 16.97267077 44.59139096 17.0058691 36.87730753 17.06282747 C30.7963042 17.10619564 24.71549835 17.12217123 18.63434982 17.12855911 C16.04831734 17.13528837 13.46229267 17.15055346 10.87636185 17.17444992 C7.26109492 17.20595872 3.64710564 17.20615919 0.03173828 17.19873047 C-1.03960861 17.2151358 -2.11095551 17.23154114 -3.21476746 17.2484436 C-10.45765215 17.18739986 -10.45765215 17.18739986 -14.39321899 14.26626587 C-16.22851562 11.61523438 -16.22851562 11.61523438 -16.85351562 8.61523438 C-14.95432095 -0.50090008 -7.66739512 -0.09520135 0 0 Z " fill="#010100" transform="translate(80.228515625,351.384765625)"/>
<path d="M0 0 C2.3686351 1.8240704 3.03479108 3.15419718 4.140625 5.89453125 C5.82930838 10.03180553 9.4802236 12.11346377 13.25 14.3125 C20.38814224 16.09703556 27.52878774 15.58467567 34 12 C38.94573814 8.63332283 41.46024622 5.46847886 44 0 C46.72977064 -0.08126109 49.4571017 -0.14061663 52.1875 -0.1875 C52.95642578 -0.21263672 53.72535156 -0.23777344 54.51757812 -0.26367188 C59.19967609 -0.3239564 62.23626126 -0.08185357 66 3 C70 8 70 8 70 24 C38.32 24 6.64 24 -26 24 C-26 8 -26 8 -23.125 3.5625 C-17.32312002 -1.80493969 -7.48020309 -1.43481676 0 0 Z " fill="#006CEE" transform="translate(274,232)"/>
<path d="M0 0 C0.14688806 4.12461681 0.23460044 8.24854924 0.3125 12.375 C0.35439453 13.53128906 0.39628906 14.68757812 0.43945312 15.87890625 C0.55882016 24.33009227 -0.77206758 31.04059919 -6.37304688 37.6105957 C-12.05078144 42.84439614 -18.92909292 44.59931007 -26.4765625 44.35546875 C-32.70580891 43.47797429 -38.56525594 40.43474406 -43 36 C-47.4289378 29.5893002 -48.15015567 24.38278604 -48.0625 16.75 C-48.05798828 16.00492188 -48.05347656 15.25984375 -48.04882812 14.4921875 C-48.03709246 12.6614236 -48.0191585 10.83070127 -48 9 C-46.41638672 8.87044922 -46.41638672 8.87044922 -44.80078125 8.73828125 C-31.48359314 7.5204314 -18.27491198 5.13398852 -5.578125 0.84375 C-3 0 -3 0 0 0 Z " fill="#FBD7A7" transform="translate(320,156)"/>
<path d="M0 0 C1.26972656 0.00257813 2.53945312 0.00515625 3.84765625 0.0078125 C5.16636719 0.03617187 6.48507813 0.06453125 7.84375 0.09375 C9.16246094 0.09117187 10.48117188 0.08859375 11.83984375 0.0859375 C22.77449158 0.19694915 22.77449158 0.19694915 27.34375 3.59375 C29.44189417 7.79003834 28.57063527 13.24409849 28.58398438 17.86010742 C28.59366423 19.88827939 28.62467532 21.91542642 28.65625 23.94335938 C28.66398437 25.86825195 28.66398437 25.86825195 28.671875 27.83203125 C28.68589355 29.596073 28.68589355 29.596073 28.70019531 31.39575195 C28.30607939 34.93172759 27.52010611 36.79999468 25.34375 39.59375 C20.35941711 41.2551943 15.16688439 40.81884154 9.94702148 40.83398438 C7.91673966 40.8436998 5.8874667 40.87474209 3.85742188 40.90625 C2.57544922 40.91140625 1.29347656 40.9165625 -0.02734375 40.921875 C-1.20224365 40.9312207 -2.37714355 40.94056641 -3.58764648 40.95019531 C-6.94642967 40.56004308 -8.29947237 39.97740837 -10.65625 37.59375 C-12.31310067 32.62319799 -11.95963389 27.45864453 -12.00634766 22.25195312 C-12.02290751 20.89989001 -12.05019924 19.54791446 -12.08837891 18.19628906 C-12.14332871 16.23816461 -12.161916 14.2791272 -12.1796875 12.3203125 C-12.19950684 11.15064941 -12.21932617 9.98098633 -12.23974609 8.77587891 C-10.96283381 1.81216565 -6.58790688 -0.04037157 0 0 Z " fill="#010100" transform="translate(75.65625,439.40625)"/>
<path d="M0 0 C1.26972656 0.00257813 2.53945312 0.00515625 3.84765625 0.0078125 C5.16636719 0.03617187 6.48507813 0.06453125 7.84375 0.09375 C9.16246094 0.09117187 10.48117188 0.08859375 11.83984375 0.0859375 C22.77449158 0.19694915 22.77449158 0.19694915 27.34375 3.59375 C29.44189417 7.79003834 28.57063527 13.24409849 28.58398438 17.86010742 C28.59366423 19.88827939 28.62467532 21.91542642 28.65625 23.94335938 C28.66398437 25.86825195 28.66398437 25.86825195 28.671875 27.83203125 C28.68589355 29.596073 28.68589355 29.596073 28.70019531 31.39575195 C28.30607939 34.93172759 27.52010611 36.79999468 25.34375 39.59375 C20.35941711 41.2551943 15.16688439 40.81884154 9.94702148 40.83398438 C7.91673966 40.8436998 5.8874667 40.87474209 3.85742188 40.90625 C2.57544922 40.91140625 1.29347656 40.9165625 -0.02734375 40.921875 C-1.20224365 40.9312207 -2.37714355 40.94056641 -3.58764648 40.95019531 C-6.94642967 40.56004308 -8.29947237 39.97740837 -10.65625 37.59375 C-12.31310067 32.62319799 -11.95963389 27.45864453 -12.00634766 22.25195312 C-12.02290751 20.89989001 -12.05019924 19.54791446 -12.08837891 18.19628906 C-12.14332871 16.23816461 -12.161916 14.2791272 -12.1796875 12.3203125 C-12.19950684 11.15064941 -12.21932617 9.98098633 -12.23974609 8.77587891 C-10.96283381 1.81216565 -6.58790688 -0.04037157 0 0 Z " fill="#010100" transform="translate(75.65625,383.40625)"/>
<path d="M0 0 C3.12090272 2.13768027 5.04908572 4.41866349 7.20703125 7.51171875 C3.65397553 10.69369815 -0.35838 11.81746156 -4.85546875 13.07421875 C-5.61553223 13.29037842 -6.3755957 13.50653809 -7.15869141 13.72924805 C-16.81674349 16.42182694 -25.73618825 17.86185811 -35.79296875 17.51171875 C-35.79296875 10.72597084 -33.80576009 7.35051979 -29.09765625 2.5 C-20.20701856 -5.17005862 -10.11088537 -5.55700629 0 0 Z " fill="#F84E22" transform="translate(308.79296875,131.48828125)"/>
<path d="M0 0 C4.64963504 2.29927007 4.64963504 2.29927007 6 5 C6.29123466 8.34919863 6.36462337 10.35756835 4.6875 13.3125 C1.52592843 16.47407157 -2.11841691 16.24837396 -6.375 16.375 C-10.79028114 16.3356218 -12.53327074 16.29941123 -16.3125 13.875 C-18.32483711 10.44657382 -18.81252952 8.9001417 -18 5 C-14.0594899 -1.71346165 -6.95616502 -1.03309382 0 0 Z " fill="#060604" transform="translate(290,464)"/>
<path d="M0 0 C4.64963504 2.29927007 4.64963504 2.29927007 6 5 C6.29123466 8.34919863 6.36462337 10.35756835 4.6875 13.3125 C1.52592843 16.47407157 -2.11841691 16.24837396 -6.375 16.375 C-10.79028114 16.3356218 -12.53327074 16.29941123 -16.3125 13.875 C-18.32483711 10.44657382 -18.81252952 8.9001417 -18 5 C-14.0594899 -1.71346165 -6.95616502 -1.03309382 0 0 Z " fill="#060604" transform="translate(290,408)"/>
<path d="M0 0 C4.64963504 2.29927007 4.64963504 2.29927007 6 5 C6.29123466 8.34919863 6.36462337 10.35756835 4.6875 13.3125 C1.52592843 16.47407157 -2.11841691 16.24837396 -6.375 16.375 C-10.79028114 16.3356218 -12.53327074 16.29941123 -16.3125 13.875 C-18.32483711 10.44657382 -18.81252952 8.9001417 -18 5 C-14.0594899 -1.71346165 -6.95616502 -1.03309382 0 0 Z " fill="#060604" transform="translate(218,352)"/>
<path d="M0 0 C5.28 0 10.56 0 16 0 C16.43505338 12.03647687 16.43505338 12.03647687 13 16 C10.19084526 17.40457737 8.11189466 17.24895157 5 17 C1.8640843 15.22015595 1.15897264 14.47691793 0 11 C-0.13281695 7.32893957 -0.04323297 3.67480286 0 0 Z " fill="#FAD5A6" transform="translate(288,215)"/>
<path d="M0 0 C2.64 0 5.28 0 8 0 C8 2.64 8 5.28 8 8 C5.36 8 2.72 8 0 8 C0 5.36 0 2.72 0 0 Z " fill="#78B9EB" transform="translate(80,456)"/>
<path d="M0 0 C2.64 0 5.28 0 8 0 C8 2.64 8 5.28 8 8 C5.36 8 2.72 8 0 8 C0 5.36 0 2.72 0 0 Z " fill="#78B9EB" transform="translate(80,400)"/>
</svg>
