<?xml version="1.0" encoding="UTF-8"?>
<svg version="1.1" xmlns="http://www.w3.org/2000/svg" width="512" height="512">
<path d="M0 0 C3.19668859 2.13569896 6.14203433 4.43071773 9 7 C11.67040071 5.72336106 14.06539853 4.30145803 16.5 2.625 C28.14045131 -4.53345272 41.76880467 -6.16063388 55.13964844 -3.58837891 C62.72078674 -1.64723312 69.2058666 1.76368689 75 7 C78.03965391 5.54625248 80.84185006 3.86337025 83.6875 2.0625 C95.02666483 -4.64910407 106.5696298 -5.76033577 119.515625 -3.34375 C137.08274869 1.8813432 145.84367668 17.3936619 155 32 C151.83844282 34.53686395 148.5416758 36.34380861 144.9375 38.1875 C138.50537217 41.61604742 132.71529467 45.48561847 127 50 C126.24203125 50.59167969 125.4840625 51.18335938 124.703125 51.79296875 C117.76567165 57.56187943 112.16888666 64.63795956 107 72 C107 72.66 107 73.32 107 74 C107.9075 74.70125 108.815 75.4025 109.75 76.125 C114.46686344 79.88287938 116.79480489 85.16915127 118 91 C118.38133987 96.62476303 117.69566009 100.67228237 115.65625 105.921875 C114.79924575 108.2725082 114.79924575 108.2725082 115 112 C116.88744631 113.99247114 118.73539893 115.72745155 120.8125 117.5 C155.72744801 148.59731412 185.26735056 196.60410333 193 243 C227.98 243 262.96 243 299 243 C299 330.45 299 417.9 299 508 C130.04 508 -38.92 508 -213 508 C-213 420.55 -213 333.1 -213 243 C-178.02 243 -143.04 243 -107 243 C-105.68 237.72 -104.36 232.44 -103 227 C-101.98988277 223.70667376 -100.97083189 220.48518339 -99.8125 217.25 C-99.51770752 216.42129395 -99.22291504 215.59258789 -98.91918945 214.73876953 C-87.69764798 183.90205493 -70.66722106 155.52207605 -48.296875 131.484375 C-46.3204205 129.34657727 -44.43445344 127.166016 -42.5625 124.9375 C-38.15278214 119.83876373 -33.0456136 115.45254871 -28 111 C-28.30679688 110.24332031 -28.61359375 109.48664063 -28.9296875 108.70703125 C-32.32013065 100.13193233 -33.20276948 92.8639258 -30.05859375 84.18359375 C-28.06877289 80.07912933 -25.13786066 76.06893033 -21 74 C-22.54216542 68.95904679 -25.58464523 65.57119893 -29 61.6875 C-29.58523437 61.02032959 -30.17046875 60.35315918 -30.7734375 59.66577148 C-41.37543021 47.80363472 -54.67085065 39.72790759 -69 33 C-61.17008012 17.42258046 -50.89335076 2.68200832 -33.80078125 -3.078125 C-22.86569539 -5.73041715 -10.07297229 -5.1782539 0 0 Z " fill="#020201" transform="translate(213,4)"/>
<path d="M0 0 C3.19668859 2.13569896 6.14203433 4.43071773 9 7 C11.67040071 5.72336106 14.06539853 4.30145803 16.5 2.625 C28.14045131 -4.53345272 41.76880467 -6.16063388 55.13964844 -3.58837891 C62.72078674 -1.64723312 69.2058666 1.76368689 75 7 C78.03965391 5.54625248 80.84185006 3.86337025 83.6875 2.0625 C95.02666483 -4.64910407 106.5696298 -5.76033577 119.515625 -3.34375 C137.08274869 1.8813432 145.84367668 17.3936619 155 32 C151.83844282 34.53686395 148.5416758 36.34380861 144.9375 38.1875 C138.50537217 41.61604742 132.71529467 45.48561847 127 50 C126.24203125 50.59167969 125.4840625 51.18335938 124.703125 51.79296875 C117.76567165 57.56187943 112.16888666 64.63795956 107 72 C107 72.66 107 73.32 107 74 C107.9075 74.70125 108.815 75.4025 109.75 76.125 C114.46686344 79.88287938 116.79480489 85.16915127 118 91 C118.38133987 96.62476303 117.69566009 100.67228237 115.65625 105.921875 C114.79924575 108.2725082 114.79924575 108.2725082 115 112 C116.88744631 113.99247114 118.73539893 115.72745155 120.8125 117.5 C155.72744801 148.59731412 185.26735056 196.60410333 193 243 C227.98 243 262.96 243 299 243 C299 330.45 299 417.9 299 508 C130.04 508 -38.92 508 -213 508 C-213 420.55 -213 333.1 -213 243 C-178.02 243 -143.04 243 -107 243 C-105.68 237.72 -104.36 232.44 -103 227 C-101.98988277 223.70667376 -100.97083189 220.48518339 -99.8125 217.25 C-99.51770752 216.42129395 -99.22291504 215.59258789 -98.91918945 214.73876953 C-87.69764798 183.90205493 -70.66722106 155.52207605 -48.296875 131.484375 C-46.3204205 129.34657727 -44.43445344 127.166016 -42.5625 124.9375 C-38.15278214 119.83876373 -33.0456136 115.45254871 -28 111 C-28.30679688 110.24332031 -28.61359375 109.48664063 -28.9296875 108.70703125 C-32.32013065 100.13193233 -33.20276948 92.8639258 -30.05859375 84.18359375 C-28.06877289 80.07912933 -25.13786066 76.06893033 -21 74 C-22.54216542 68.95904679 -25.58464523 65.57119893 -29 61.6875 C-29.58523437 61.02032959 -30.17046875 60.35315918 -30.7734375 59.66577148 C-41.37543021 47.80363472 -54.67085065 39.72790759 -69 33 C-61.17008012 17.42258046 -50.89335076 2.68200832 -33.80078125 -3.078125 C-22.86569539 -5.73041715 -10.07297229 -5.1782539 0 0 Z M-197 260 C-197 336.23 -197 412.46 -197 491 C-38.6 491 119.8 491 283 491 C283 414.77 283 338.54 283 260 C124.6 260 -33.8 260 -197 260 Z " fill="#010101" transform="translate(213,4)"/>
<path d="M0 0 C158.4 0 316.8 0 480 0 C480 76.23 480 152.46 480 231 C321.6 231 163.2 231 0 231 C0 154.77 0 78.54 0 0 Z M17 17 C17 82.34 17 147.68 17 215 C164.18 215 311.36 215 463 215 C463 149.66 463 84.32 463 17 C315.82 17 168.64 17 17 17 Z " fill="#9CCF65" transform="translate(16,264)"/>
<path d="M0 0 C21.14863578 -0.84230304 42.30583843 6.90430756 57.87890625 21.23046875 C58.70777344 21.9678125 59.53664063 22.70515625 60.390625 23.46484375 C73.10316516 35.37919992 83.95541743 53.50280864 85.06616211 71.21679688 C85.14760533 74.66126143 85.15166006 78.09766284 85.12890625 81.54296875 C85.13664063 82.70248047 85.144375 83.86199219 85.15234375 85.05664062 C85.12911432 95.38792752 84.05000008 104.79935262 79.69140625 114.23046875 C79.38315918 114.91125488 79.07491211 115.59204102 78.75732422 116.29345703 C73.98029275 126.58823914 67.83317729 135.13713703 59.87890625 143.23046875 C59.2653125 143.85695313 58.65171875 144.4834375 58.01953125 145.12890625 C48.43901224 154.17717421 36.29994892 159.3833751 23.87890625 163.23046875 C22.86699219 163.5965625 21.85507812 163.96265625 20.8125 164.33984375 C1.68244332 169.68769037 -20.16182039 165.00150539 -37.11962891 155.79345703 C-42.94384182 152.4832347 -48.16803282 148.75559978 -53.12109375 144.23046875 C-53.80171875 143.64136719 -54.48234375 143.05226563 -55.18359375 142.4453125 C-68.18150057 130.48825369 -78.1771024 110.90176727 -79.31396484 93.23291016 C-80.02392242 65.46711485 -80.02392242 65.46711485 -74.12109375 52.23046875 C-73.85876953 51.62074219 -73.59644531 51.01101563 -73.32617188 50.3828125 C-69.71523807 42.08718999 -65.20635283 34.93644642 -59.12109375 28.23046875 C-58.38246094 27.39902344 -57.64382812 26.56757813 -56.8828125 25.7109375 C-41.85124746 9.69530928 -21.71186443 1.60325407 0 0 Z " fill="#F9D46E" transform="translate(253.12109375,296.76953125)"/>
<path d="M0 0 C-0.45890625 0.94617188 -0.9178125 1.89234375 -1.390625 2.8671875 C-6.80550155 14.39777612 -10.43272171 26.11198621 -11.3671875 38.8671875 C-11.77157357 42.75929832 -11.77157357 42.75929832 -13.671875 44.76171875 C-14.35765625 45.06722656 -15.0434375 45.37273437 -15.75 45.6875 C-22.2824928 49.11150785 -25.74396256 53.87567123 -28 61 C-29.17827836 68.67823149 -27.36444252 74.63472993 -23 81 C-18.60966502 85.95346583 -13.32475423 89.34252047 -6.6875 90.3515625 C0.89499435 90.8017731 7.16917249 88.39532291 12.85546875 83.35546875 C18.11825943 77.59888536 20.68420542 71.44936796 20.41015625 63.62109375 C19.25709245 56.25246698 15.4528698 50.67372672 9.6484375 46.15625 C8.11512061 45.0807481 6.55834935 44.03889957 5 43 C5.21198861 29.41345757 7.03025538 15.17963398 17 5 C22.15725525 0.42879648 25.19065456 -0.36242589 31.98046875 -0.2734375 C38.55774552 0.32217618 44.03842535 2.48979736 48.5 7.4375 C51.3050697 11.13797331 53 14.28304493 53 19 C51.4221875 19.804375 51.4221875 19.804375 49.8125 20.625 C43.66753098 24.16301247 40.12615974 29.28581135 38 36 C36.73514115 43.2729384 38.6131505 48.87495343 42.078125 55.28515625 C45.62045215 60.28905334 50.25132862 63.08377621 56 65 C64.95145292 65.89514529 71.61723817 64.3866796 78.75 58.875 C83.57294725 52.71234518 86.94555735 46.51012091 86.48046875 38.515625 C85.09169362 31.24431459 81.49028989 25.71976841 75.74609375 21.15625 C74.02319362 19.92022194 74.02319362 19.92022194 71.94921875 19.23828125 C68.98168526 17.35309464 68.52028682 14.9497202 67.375 11.6875 C66.97023438 10.55699219 66.56546875 9.42648438 66.1484375 8.26171875 C65.76945313 7.18535156 65.39046875 6.10898438 65 5 C64.3425963 3.32965794 63.67954538 1.66145728 63 0 C82.47971922 -1.30668911 82.47971922 -1.30668911 87.9609375 1.53515625 C89.88891406 3.57723755 91.42227988 5.68079262 93 8 C94.23718373 9.12160818 95.50977189 10.20523785 96.8125 11.25 C127.52681184 37.90093984 151.08101211 79.86020995 161 119 C161 120.65 161 122.3 161 124 C73.88 124 -13.24 124 -103 124 C-97.69468829 86.86281805 -74.34576251 48.89438343 -49 22 C-47.95502136 20.75276743 -46.91331864 19.50278244 -45.875 18.25 C-45.01261719 17.31414062 -45.01261719 17.31414062 -44.1328125 16.359375 C-42.93872414 15.03844209 -41.76405556 13.69661809 -40.67089844 12.29101562 C-29.34431357 -2.14351885 -17.45297895 -1.7306539 0 0 Z " fill="#CD9C75" transform="translate(227,124)"/>
<path d="M0 0 C33.99 0 67.98 0 103 0 C99.58435234 3.41564766 96.64824129 6.09348977 92.875 8.9375 C74.66490111 23.74086437 62.67701398 47.25421157 60.21826172 70.43774414 C58.99833324 84.75894031 59.43133694 98.32406782 64 112 C64.350625 113.09054687 64.70125 114.18109375 65.0625 115.3046875 C71.57754171 133.8092157 82.35158503 147.78403341 97.16015625 160.4140625 C98.84354861 161.86513956 100.4284666 163.4284666 102 165 C68.34 165 34.68 165 0 165 C-0.99 161.37 -1.98 157.74 -3 154 C-9.52435052 137.50628792 -19.97137979 128.34983625 -35.33984375 120.515625 C-39.77515267 118.555355 -39.77515267 118.555355 -48 117 C-48 94.56 -48 72.12 -48 49 C-43.71 47.68 -39.42 46.36 -35 45 C-18.28855443 37.10338286 -8.13665014 25.03731267 -1.61328125 8.0546875 C-0.83012125 5.43085208 -0.45016069 2.70096413 0 0 Z " fill="#B3DC7E" transform="translate(98,297)"/>
<path d="M0 0 C33.99 0 67.98 0 103 0 C103.99 3.96 103.99 3.96 105 8 C110.89379139 24.89126446 120.3922891 36.13972784 136.35546875 44.1875 C141.29928857 46.50199052 145.51059006 47.62764751 151 49 C151 71.44 151 93.88 151 117 C147.37 117.99 143.74 118.98 140 120 C124.95883495 125.94977241 114.11876732 135.89508473 107.36328125 150.55078125 C105.4531854 155.38348794 104.02153503 159.89232486 103 165 C69.34 165 35.68 165 1 165 C3.95245526 162.04754474 6.72858279 159.30141298 9.875 156.625 C27.937099 140.86725884 41.52068017 117.60686133 43.18896484 93.23999023 C43.26695244 90.36512912 43.27781979 87.5007511 43.25 84.625 C43.24323242 83.61058838 43.23646484 82.59617676 43.22949219 81.55102539 C43.13242807 74.52572789 42.70244784 67.83914391 41 61 C40.75507813 59.92363281 40.51015625 58.84726562 40.2578125 57.73828125 C36.54170251 43.05471389 29.56249449 30.64281779 20 19 C19.44957031 18.28585937 18.89914062 17.57171875 18.33203125 16.8359375 C13.83949629 11.26741269 8.31564006 7.22464152 2.59765625 3.00390625 C1.74042969 2.34261719 0.88320313 1.68132812 0 1 C0 0.67 0 0.34 0 0 Z " fill="#B3DC7E" transform="translate(311,297)"/>
<path d="M0 0 C7.4831971 4.11818801 13.35262627 10.91160799 19.15625 17.07421875 C22.91760833 15.53352506 25.09575428 13.21326971 27.84375 10.26171875 C35.308276 2.63180443 42.1235869 -1.01378502 52.78125 -1.23828125 C65.06089097 -1.08573913 71.62025148 3.58354412 80.15625 12.07421875 C80.72988281 12.63367187 81.30351562 13.193125 81.89453125 13.76953125 C82.99668988 14.85616652 84.07991153 15.96200233 85.15625 17.07421875 C89.13251462 15.48927411 91.44646121 12.85132397 94.34375 9.76171875 C101.48506759 2.50699065 106.64875748 -1.34635903 117.09375 -1.61328125 C125.35561445 -1.52602154 130.98573601 1.02720518 136.87109375 6.73828125 C140.15625 10.43294451 140.15625 10.43294451 140.15625 13.07421875 C138.30334617 14.42674757 136.39554645 15.70421182 134.46875 16.94921875 C123.24890748 24.45651075 110.4971083 34.6378205 104.75215149 47.12652588 C102.70525523 51.23244397 100.74945165 55.1142686 96.22109604 56.79057312 C90.24358633 58.01311859 84.14803154 57.85758502 78.07421875 57.80859375 C76.09415332 57.82686002 74.11411321 57.848088 72.1341095 57.87213135 C67.98996826 57.90780244 63.84891167 57.89824617 59.70483398 57.85839844 C54.41546312 57.81247194 49.13679022 57.8931638 43.84882641 58.01006699 C39.76013075 58.08379877 35.6739664 58.08229618 31.58477211 58.05951691 C29.63715932 58.05890703 27.68936669 58.08284409 25.74239159 58.1326828 C10.9862355 58.45716636 10.9862355 58.45716636 6.30887222 54.5186615 C2.99556299 50.72837423 0.64505873 46.53518452 -1.67455101 42.09215546 C-8.61015315 30.1219038 -22.04740353 19.82128795 -33.84375 13.07421875 C-32.19249533 6.83614555 -27.39458875 3.59964931 -22.09375 0.4296875 C-15.43392816 -2.34790646 -6.8428394 -2.22768261 0 0 Z " fill="#D19F6B" transform="translate(202.84375,17.92578125)"/>
<path d="M0 0 C24.42 0 48.84 0 74 0 C74 5.28 74 10.56 74 16 C66.08 16 58.16 16 50 16 C50.969375 17.876875 51.93875 19.75375 52.9375 21.6875 C54.99789901 25.67678319 56.10465713 28.52328567 57 33 C62.61 33 68.22 33 74 33 C74 38.28 74 43.56 74 49 C65.585 49.495 65.585 49.495 57 50 C56.46375 51.65 55.9275 53.3 55.375 55 C51.93274879 64.36724109 45.98302697 71.05186226 38 77 C34.4375 78.5 34.4375 78.5 32 79 C32.43570313 79.49628906 32.87140625 79.99257813 33.3203125 80.50390625 C34.57350091 81.93340904 35.82326144 83.3659213 37.0703125 84.80078125 C38.21470496 86.105018 39.37162585 87.39870411 40.5546875 88.66796875 C49.83079739 98.82154849 57.26829653 113.46539942 57.3125 127.5 C57.209375 128.655 57.10625 129.81 57 131 C55.27192682 131.33895656 53.54248026 131.67091525 51.8125 132 C50.84957031 132.185625 49.88664062 132.37125 48.89453125 132.5625 C46.2065794 132.96877612 43.71228981 133.07933572 41 133 C40.86464844 132.07960938 40.72929687 131.15921875 40.58984375 130.2109375 C37.89529113 114.36632271 31.43628893 100.51357658 18.04296875 90.87109375 C11.98117936 87.1437547 5.92750939 84.60926656 -1 83 C-1.02721176 81.10424749 -1.04649136 79.20838021 -1.0625 77.3125 C-1.07410156 76.25675781 -1.08570313 75.20101562 -1.09765625 74.11328125 C-1.00865425 71.27589738 -0.64939838 68.7561081 0 66 C0.589021 65.9906543 1.17804199 65.98130859 1.78491211 65.97167969 C4.50323016 65.91736125 7.21993848 65.8338416 9.9375 65.75 C10.86369141 65.73582031 11.78988281 65.72164063 12.74414062 65.70703125 C21.13170337 65.4127308 28.99370844 63.17789989 35 57 C36.32 54.36 37.64 51.72 39 49 C26.13 49 13.26 49 0 49 C0 43.72 0 38.44 0 33 C12.87 32.67 25.74 32.34 39 32 C33.20992788 23.31489181 30.25010147 20.29883555 21 17 C18.49570535 16.64189679 18.49570535 16.64189679 15.91796875 16.5859375 C14.98662109 16.54726563 14.05527344 16.50859375 13.09570312 16.46875 C12.13599609 16.4378125 11.17628906 16.406875 10.1875 16.375 C9.20845703 16.33632813 8.22941406 16.29765625 7.22070312 16.2578125 C4.8141002 16.16389629 2.40707649 16.08087436 0 16 C0 10.72 0 5.44 0 0 Z " fill="#010100" transform="translate(223,314)"/>
<path d="M0 0 C1.02657715 -0.0087616 2.0531543 -0.01752319 3.11083984 -0.02655029 C6.50140756 -0.0485419 9.89066922 -0.03399136 13.28125 -0.01708984 C15.63867442 -0.02045802 17.99609715 -0.02531064 20.35351562 -0.03158569 C25.29313701 -0.03895675 30.23230619 -0.02824333 35.171875 -0.00488281 C41.50415033 0.02360429 47.83536609 0.00720168 54.16760254 -0.02274513 C59.03523749 -0.04081132 63.90262116 -0.03506301 68.77026367 -0.02210617 C71.10506312 -0.01877032 73.43988538 -0.02286546 75.7746582 -0.03450394 C79.03788699 -0.04720069 82.29939911 -0.02784981 85.5625 0 C86.52784668 -0.01012115 87.49319336 -0.02024231 88.48779297 -0.03067017 C93.07412626 0.04185905 95.1313571 0.15363428 98.88085938 2.99990845 C100.78125 5.64697266 100.78125 5.64697266 101.40625 8.64697266 C100.537 12.81937268 99.17605992 14.06994801 95.78125 16.64697266 C92.37687277 17.38545393 89.03527525 17.33035554 85.5625 17.29394531 C84.53592285 17.30270691 83.5093457 17.31146851 82.45166016 17.32049561 C79.06109244 17.34248721 75.67183078 17.32793667 72.28125 17.31103516 C69.92382558 17.31440333 67.56640285 17.31925596 65.20898438 17.32553101 C60.26936299 17.33290206 55.33019381 17.32218864 50.390625 17.29882812 C44.05834967 17.27034103 37.72713391 17.28674363 31.39489746 17.31669044 C26.52726251 17.33475663 21.65987884 17.32900832 16.79223633 17.31605148 C14.45743688 17.31271563 12.12261462 17.31681077 9.7878418 17.32844925 C6.52461301 17.341146 3.26310089 17.32179512 0 17.29394531 C-1.44802002 17.30912704 -1.44802002 17.30912704 -2.92529297 17.32461548 C-7.51162626 17.25208626 -9.5688571 17.14031103 -13.31835938 14.29403687 C-15.21875 11.64697266 -15.21875 11.64697266 -15.84375 8.64697266 C-14.03518351 -0.0341465 -7.39168197 -0.07749792 0 0 Z " fill="#FDE8A6" transform="translate(213.21875,90.35302734375)"/>
<path d="M0 0 C10.89 0 21.78 0 33 0 C33 10.56 33 21.12 33 32 C21.42394552 30.34627793 13.80804413 25.1217684 6.359375 15.98828125 C2.85998135 10.79189248 1.88667539 6.28891795 0 0 Z " fill="#86B84E" transform="translate(430,297)"/>
<path d="M0 0 C10.89 0 21.78 0 33 0 C29.04082782 13.19724059 23.32541841 22.72971644 10.875 29.4375 C7.12468985 31.29598703 4.54531759 31.35066892 0 32 C0 21.44 0 10.88 0 0 Z " fill="#86B84E" transform="translate(49,297)"/>
<path d="M0 0 C0 10.23 0 20.46 0 31 C-10.23 31 -20.46 31 -31 31 C-29.48843321 20.41903247 -24.34353763 12.68625961 -16 6 C-10.52409032 2.40066611 -6.65229251 0 0 0 Z " fill="#8ABF51" transform="translate(462,431)"/>
<path d="M0 0 C10.58096753 1.51156679 18.31374039 6.65646237 25 15 C28.59933389 20.47590968 31 24.34770749 31 31 C20.77 31 10.54 31 0 31 C0 20.77 0 10.54 0 0 Z " fill="#8BBF51" transform="translate(50,431)"/>
<path d="M0 0 C2.9375 1.5625 2.9375 1.5625 5 4 C5.625 7.4375 5.625 7.4375 5 11 C2.38431879 14.72536415 0.9396067 15.83515672 -3.5625 16.625 C-7 16 -7 16 -9.4375 13.9375 C-11.38925759 10.26819573 -11.59677999 8.10286241 -11 4 C-8.10445004 -0.51705794 -5.12679803 -0.7195506 0 0 Z " fill="#F6D16D" transform="translate(226,182)"/>
<path d="M0 0 C4.10703441 0.85563217 5.55401113 2.24378009 8 5.625 C8.62491523 9.58279649 8.61006839 11.63363886 6.5 15.0625 C3.46813683 16.95741448 1.43919544 17.26536692 -2.09375 17.07421875 C-4 16.625 -4 16.625 -6.5 14.5 C-8.27801176 11.09214413 -8.70960213 9.40954468 -8 5.625 C-5.54405875 2.30225596 -4.0743356 0.84881992 0 0 Z " fill="#F6D26D" transform="translate(289,156.375)"/>
</svg>
