<?xml version="1.0" encoding="UTF-8"?>
<svg version="1.1" xmlns="http://www.w3.org/2000/svg" width="512" height="512">
<path d="M0 0 C1.48908319 -0.00599236 2.9781633 -0.01279952 4.46723938 -0.02035522 C8.49431922 -0.03795163 12.52131396 -0.04270794 16.54842854 -0.0439868 C19.06993038 -0.0454127 21.59141089 -0.04969062 24.11290741 -0.05498123 C32.92538313 -0.07346131 41.73779852 -0.08165449 50.55029297 -0.08007812 C58.73915609 -0.07887766 66.92775526 -0.09996652 75.11655164 -0.13156545 C82.16823468 -0.15779785 89.21983188 -0.16844249 96.27156329 -0.16716731 C100.47383341 -0.16665967 104.67586879 -0.17223238 108.8780899 -0.19352341 C112.83451912 -0.21302344 116.79049252 -0.21295092 120.74693871 -0.19849014 C122.18998831 -0.19641534 123.63306735 -0.20102268 125.07606697 -0.21321106 C139.24205257 -0.32501122 150.61253371 2.58746363 161.23730469 12.29052734 C164.03606489 15.42742772 166.31228196 18.55314224 168.23730469 22.29052734 C168.59034668 22.93723389 168.94338867 23.58394043 169.30712891 24.25024414 C173.91915912 34.32238871 172.66288551 45.66459526 172.48730469 56.47802734 C172.4394106 60.36902255 172.39665823 64.26007264 172.35351562 68.15112305 C172.33144082 70.08421418 172.30929124 72.01730447 172.28704834 73.95039368 C172.27746975 74.78612569 172.26789116 75.6218577 172.25802231 76.48291492 C172.25118549 77.07942702 172.24434868 77.67593912 172.23730469 78.29052734 C173.33089294 78.28608612 174.4244812 78.2816449 175.5512085 78.27706909 C185.85125108 78.23654665 196.15127751 78.20655429 206.45138168 78.186903 C211.74691843 78.1764605 217.04239088 78.16229273 222.33789062 78.13964844 C227.44719323 78.11793678 232.55643394 78.10596223 237.66577911 78.10077286 C239.61624374 78.09707409 241.56670493 78.08985145 243.51714325 78.07906723 C246.24652967 78.06457467 248.9756595 78.06254847 251.70507812 78.06347656 C252.51356201 78.05628601 253.3220459 78.04909546 254.1550293 78.04168701 C261.51346205 78.06880801 261.51346205 78.06880801 264.23730469 80.29052734 C266.65172408 84.42682626 266.47694205 88.62215974 266.3815918 93.27441406 C266.36579865 94.90949503 266.35000582 96.54457601 266.33421326 98.17965698 C266.3161604 99.47241358 266.3161604 99.47241358 266.29774284 100.79128647 C266.24114333 105.37290758 266.24181386 109.95470497 266.23144531 114.53662109 C266.2139134 120.35938103 266.17985059 126.18079407 266.09008789 132.00292969 C266.01890086 136.71665893 266.00145765 141.42795566 266.01935005 146.14215469 C266.01623342 147.93397451 265.99340952 149.72587592 265.95020866 151.51717758 C265.3917857 161.40366077 265.3917857 161.40366077 269.59036255 169.84918213 C272.40554323 171.64270536 275.18908525 172.94522152 278.23730469 174.29052734 C281.71045835 176.79428511 284.97011101 179.52478586 288.23730469 182.29052734 C289.07261719 182.99048828 289.90792969 183.69044922 290.76855469 184.41162109 C315.10541561 205.4810331 330.25411841 236.57349181 334.23730469 268.29052734 C335.13623598 286.09928616 335.29997806 304.06728127 330.23730469 321.29052734 C330.03363281 322.0048291 329.82996094 322.71913086 329.62011719 323.45507812 C324.6923418 340.21179582 316.35269684 355.83929191 305.23730469 369.29052734 C309.424082 375.10549583 313.96090181 380.5303147 318.64282227 385.94555664 C321.70984084 389.49676679 324.72326768 393.07944839 327.67480469 396.72802734 C331.27366498 401.16292052 334.98462533 405.4862052 338.73730469 409.79052734 C343.22904669 414.94255413 347.6270272 420.14912648 351.90917969 425.47802734 C353.6735586 427.6094918 355.46383582 429.67472986 357.31542969 431.72802734 C364.92119857 440.20604375 371.21622605 447.74203271 370.61230469 459.78271484 C369.10602667 469.85594912 363.85742441 476.07543755 355.89355469 482.04833984 C348.01470919 487.48474324 341.85996659 489.23681721 332.23730469 488.29052734 C321.21960775 485.68888417 314.40801516 475.69726031 307.68652344 467.31005859 C304.93205387 463.91419739 302.09449911 460.59987492 299.23730469 457.29052734 C295.68236204 453.16621447 292.1693688 449.01843241 288.73730469 444.79052734 C284.35774508 439.39908393 279.84074032 434.13403889 275.31152344 428.86865234 C272.25267168 425.31216504 269.20901361 421.74305473 266.17480469 418.16552734 C265.72186035 417.63330566 265.26891602 417.10108398 264.80224609 416.55273438 C262.52198813 413.86087126 260.31694707 411.14066019 258.23730469 408.29052734 C253.13531945 408.95144802 248.61718272 410.45720421 243.79980469 412.16552734 C210.03715433 423.77262766 173.30732441 421.43411525 141.02636719 406.21240234 C134.02449187 402.74598353 126.41579385 398.951918 120.51181334 393.77856988 C115.04866358 389.07444461 110.88881512 388.43438202 103.81794739 388.55122375 C102.79375173 388.54413035 101.76955607 388.53703695 100.71432418 388.52972859 C97.29537362 388.51320933 93.87810067 388.53927161 90.45922852 388.56518555 C88.00313337 388.5619256 85.54704054 388.55598828 83.09095764 388.5475769 C77.80888941 388.53517917 72.52731313 388.54083519 67.24530983 388.56264687 C59.60314456 388.59390941 51.96132429 388.58911927 44.31912323 388.57510366 C31.9116773 388.55304362 19.5043692 388.55545132 7.09692383 388.57543945 C6.3551057 388.57662878 5.61328757 388.5778181 4.84899011 388.57904347 C3.73485539 388.58083171 3.73485539 388.58083171 2.5982129 388.58265609 C-7.93900142 388.59951401 -18.47620029 388.61053305 -29.01342773 388.61450195 C-30.12615787 388.61493029 -30.12615787 388.61493029 -31.2613674 388.61536727 C-43.62738136 388.61963432 -55.99337082 388.61181176 -68.35937673 388.59780377 C-75.98358731 388.58994943 -83.60761315 388.59448431 -91.23180113 388.61506035 C-97.06892777 388.63026993 -102.90599626 388.63099556 -108.74314308 388.62649155 C-111.13892999 388.62727966 -113.53472154 388.63326513 -115.93048096 388.64476967 C-119.1952491 388.65982019 -122.4595071 388.65660851 -125.72428894 388.64888 C-126.67700485 388.6578203 -127.62972076 388.66676059 -128.61130685 388.67597181 C-133.46037729 388.64410301 -136.86124087 388.5216181 -140.76269531 385.29052734 C-142.00443305 382.80705187 -141.89257452 381.152564 -141.8997097 378.37318707 C-141.90478424 377.32726979 -141.90985879 376.28135251 -141.9150871 375.20374078 C-141.91558486 374.04569257 -141.91608262 372.88764436 -141.91659546 371.69450378 C-141.92097771 370.47125706 -141.92535997 369.24801033 -141.92987502 367.98769552 C-141.94095738 364.58138361 -141.94749294 361.17511774 -141.95205617 357.76879442 C-141.95800564 354.09929686 -141.96961704 350.4298163 -141.98034668 346.7603302 C-142.00488455 337.89344034 -142.01949925 329.02654484 -142.03240675 320.15963146 C-142.03611747 317.65634426 -142.0400908 315.15305762 -142.04415941 312.64977098 C-142.06939317 297.11315191 -142.09145179 281.576532 -142.10388756 266.03989697 C-142.10681737 262.44009078 -142.10977902 258.84028463 -142.11279297 255.24047852 C-142.11353902 254.34573664 -142.11428507 253.45099476 -142.11505373 252.5291395 C-142.12771295 238.02816572 -142.16094289 223.5273144 -142.2025948 209.02639791 C-142.24498323 194.14743633 -142.26857895 179.26853751 -142.27380812 164.3895157 C-142.27722561 156.0318682 -142.28902048 147.67441212 -142.32191086 139.31682396 C-142.34987005 132.20051281 -142.36092896 125.08443229 -142.3497154 117.96807047 C-142.34451815 114.33594989 -142.34748351 110.70431261 -142.37218094 107.07226181 C-142.39871633 103.13714378 -142.38664923 99.20268958 -142.37069702 95.26750183 C-142.38457911 94.11614579 -142.3984612 92.96478975 -142.41276395 91.77854413 C-142.33565175 84.09251463 -142.33565175 84.09251463 -139.46870327 80.07954597 C-135.76105853 77.62831685 -132.50585852 77.62580051 -128.20874023 77.72290039 C-127.35944946 77.72217026 -126.51015869 77.72144012 -125.63513184 77.72068787 C-122.83715207 77.72416219 -120.04085179 77.76301497 -117.24316406 77.80224609 C-115.29975799 77.8115748 -113.35634014 77.81869064 -111.41291809 77.82368469 C-106.30477272 77.84274996 -101.19734135 77.89184696 -96.08947754 77.94720459 C-90.87452859 77.99840709 -85.65946395 78.02120089 -80.44433594 78.04638672 C-70.21680917 78.09996593 -59.98981168 78.18527327 -49.76269531 78.29052734 C-49.76953213 77.70939808 -49.77636894 77.12826881 -49.78341293 76.52952957 C-49.79299152 75.71534939 -49.80257011 74.9011692 -49.81243896 74.06231689 C-49.82304478 73.16436779 -49.83365059 72.26641869 -49.84457779 71.341259 C-49.86756605 69.38006348 -49.89021473 67.41886394 -49.91253281 65.45766068 C-49.95880863 61.42075797 -50.00695939 57.38414859 -50.07434082 53.34753418 C-50.32090157 38.4803534 -50.20760109 25.91835016 -39.76269531 14.29052734 C-39.23804687 13.67435547 -38.71339844 13.05818359 -38.17285156 12.42333984 C-27.81965875 1.07136843 -14.49589785 -0.01167099 0 0 Z M-2.76269531 47.29052734 C-2.76269531 57.52052734 -2.76269531 67.75052734 -2.76269531 78.29052734 C39.47730469 78.29052734 81.71730469 78.29052734 125.23730469 78.29052734 C125.23730469 68.06052734 125.23730469 57.83052734 125.23730469 47.29052734 C82.99730469 47.29052734 40.75730469 47.29052734 -2.76269531 47.29052734 Z " fill="#020101" transform="translate(141.7626953125,11.70947265625)"/>
<path d="M0 0 C124.74 0 249.48 0 378 0 C378 63 378 63 377 66 C372.40461975 65.43494697 368.21655115 64.53648472 363.8125 63.125 C329.56849733 53.21702035 293.97948306 57.13123015 262.59375 73.95703125 C255.58600293 77.86793934 248.92155078 82.21082005 242.875 87.5 C240 90 240 90 238 90 C238 90.66 238 91.32 238 92 C237.34 92 236.68 92 236 92 C235.96132813 90.91332031 235.96132813 90.91332031 235.921875 89.8046875 C235.5705581 83.8163312 235.16860608 79.63178454 231 75 C226.88429893 71.92999036 223.81651227 71.61730821 218.73461914 71.59594727 C218.02176254 71.58908401 217.30890594 71.58222076 216.57444763 71.57514954 C214.22781215 71.55691086 211.88184712 71.56071467 209.53515625 71.56640625 C207.89757572 71.56184292 206.25999711 71.5565369 204.62242126 71.55052185 C201.19359549 71.54159646 197.76500269 71.54400715 194.33618164 71.55395508 C189.95012842 71.56544248 185.56488058 71.54523446 181.17893314 71.51603794 C177.7979169 71.49765886 174.41709303 71.49797179 171.03603935 71.50367546 C169.41936552 71.50382848 167.80267848 71.49780044 166.18605232 71.48538399 C163.92178503 71.47044315 161.65899756 71.48117178 159.39477539 71.49829102 C157.46547935 71.49854027 157.46547935 71.49854027 155.49720764 71.49879456 C150.29290791 72.24465343 147.25646106 74.69715951 143.671875 78.4140625 C141.09994403 83.93049387 141.32169772 89.35890964 141.25 95.375 C141.22035156 96.58800781 141.19070312 97.80101562 141.16015625 99.05078125 C141.0896884 102.03392021 141.0368752 105.01628795 141 108 C128.5773547 108.09301047 116.15479335 108.16392202 103.7318697 108.20724869 C97.96231528 108.22805178 92.19300052 108.25623569 86.42358398 108.30175781 C80.84738523 108.34547603 75.27141584 108.36919174 69.69505882 108.37950897 C67.57616762 108.38685393 65.45728782 108.40119593 63.33849525 108.42292023 C49.62335358 108.55784816 36.78659725 108.60328561 25 100.5 C24.154375 99.9328125 23.30875 99.365625 22.4375 98.78125 C10.15347763 89.80446442 3.66369444 78.65477776 0 64 C0 42.88 0 21.76 0 0 Z " fill="#D38F50" transform="translate(15,105)"/>
<path d="M0 0 C3.68683276 3.16014237 7.04557577 6.04228642 10.4375 9.375 C22.80104593 20.28115349 38.69011042 24.0991391 54.72070312 24.20532227 C56.1269696 24.22017166 56.1269696 24.22017166 57.56164551 24.23532104 C60.63482205 24.26669893 63.708014 24.29159891 66.78125 24.31640625 C68.92216372 24.3369963 71.06307357 24.35799328 73.20397949 24.37937927 C78.81971075 24.43438824 84.4354774 24.48389032 90.05126953 24.53222656 C95.7894198 24.58259685 101.52751911 24.63820161 107.265625 24.69335938 C118.51037307 24.80068169 129.75516551 24.90218351 141 25 C141.02187378 26.08099976 141.02187378 26.08099976 141.04418945 27.18383789 C141.11906959 30.47724087 141.21559841 33.76967436 141.3125 37.0625 C141.33505859 38.19623047 141.35761719 39.32996094 141.38085938 40.49804688 C141.57974652 46.69970978 141.90395141 51.56321901 145 57 C148.73452998 60.46127169 151.22236024 62.1044472 156.26611328 62.20532227 C157.58725632 62.2352401 157.58725632 62.2352401 158.93508911 62.26576233 C160.36327469 62.29083107 160.36327469 62.29083107 161.8203125 62.31640625 C162.79410858 62.33718735 163.76790466 62.35796844 164.77120972 62.37937927 C167.88906647 62.44488598 171.00700903 62.50376497 174.125 62.5625 C176.23568604 62.60568415 178.34636333 62.6492984 180.45703125 62.69335938 C185.6379295 62.80056847 190.81891356 62.90233278 196 63 C195.86142578 63.82137451 195.72285156 64.64274902 195.58007812 65.48901367 C194.12053157 74.774145 193.5193 83.91859296 193.5 93.3125 C193.4976535 94.04823242 193.49530701 94.78396484 193.4928894 95.54199219 C193.51134245 109.6469652 195.60805413 122.55257131 200 136 C200.26731934 136.83402344 200.53463867 137.66804687 200.81005859 138.52734375 C205.88419605 153.90238518 213.75155952 167.88068429 224.3828125 180.09375 C226 182 226 182 226 183 C151.42 183 76.84 183 0 183 C0 122.61 0 62.22 0 0 Z " fill="#C77527" transform="translate(15,202)"/>
<path d="M0 0 C16.10902869 14.75247891 28.41094041 36.29799566 29.72192383 58.48168945 C30.54639617 82.85084558 24.72036732 104.04912518 9.59765625 123.37890625 C8.84742188 124.384375 8.84742188 124.384375 8.08203125 125.41015625 C-4.0568906 140.75821836 -26.3027216 152.78579531 -45.7578125 155.13671875 C-73.36729694 156.97143261 -97.23066252 152.17090144 -118.74609375 133.80859375 C-133.10657193 120.67297989 -141.35746099 106.01659233 -146.40234375 87.37890625 C-146.59812012 86.65960938 -146.79389648 85.9403125 -146.99560547 85.19921875 C-148.41843708 79.47260507 -148.71572909 74.01507489 -148.65234375 68.12890625 C-148.64485107 67.20650146 -148.6373584 66.28409668 -148.62963867 65.33374023 C-148.24361532 40.71666432 -138.93928329 19.47998619 -121.40234375 2.37890625 C-120.685625 1.65316406 -119.96890625 0.92742187 -119.23046875 0.1796875 C-109.11283839 -9.50052651 -96.70080067 -15.62650023 -83.40234375 -19.62109375 C-82.64308594 -19.85441406 -81.88382812 -20.08773437 -81.1015625 -20.328125 C-52.49822125 -28.2957892 -22.06701597 -18.76490135 0 0 Z " fill="#C3EFF5" transform="translate(401.40234375,229.62109375)"/>
<path d="M0 0 C22.546529 19.9574539 38.39790218 49.08398613 40.69189453 79.37207031 C42.05957199 112.2257418 33.799814 143.86409622 11.63671875 168.79296875 C10.25213067 170.26198293 8.85813625 171.72227228 7.44921875 173.16796875 C6.64484375 174.01359375 5.84046875 174.85921875 5.01171875 175.73046875 C4.16609375 176.53484375 3.32046875 177.33921875 2.44921875 178.16796875 C1.77890625 178.82152344 1.10859375 179.47507812 0.41796875 180.1484375 C-24.30685864 203.46844515 -55.13454496 210.94325271 -88.3828125 210.48046875 C-112.79934855 209.70992718 -138.32772118 199.50262881 -156.55078125 183.16796875 C-157.80955078 182.08708984 -157.80955078 182.08708984 -159.09375 180.984375 C-180.90461757 161.94523644 -195.87082214 135.05680496 -199.55078125 106.16796875 C-199.81638947 101.53869878 -199.83104757 96.92876034 -199.80078125 92.29296875 C-199.80851563 91.11605469 -199.81625 89.93914062 -199.82421875 88.7265625 C-199.75211771 55.9566393 -186.50218559 27.23719948 -163.73828125 4.04296875 C-118.78203149 -40.56816801 -47.2838802 -40.10501371 0 0 Z M-143.55078125 28.16796875 C-144.31132812 28.90402344 -145.071875 29.64007813 -145.85546875 30.3984375 C-162.54134009 47.63280634 -168.94340368 70.51465376 -168.99414062 94.00585938 C-168.47095998 117.58274182 -157.56318313 139.37346994 -140.99951172 155.79248047 C-121.6098771 174.20185044 -97.86590761 179.85793115 -71.91845703 179.25244141 C-50.59757061 178.49176635 -28.58642191 167.07265212 -14.09326172 151.61328125 C-3.76078322 139.99922811 3.41655208 126.17373369 7.44921875 111.16796875 C7.67351562 110.34941406 7.8978125 109.53085937 8.12890625 108.6875 C12.54107423 89.19538801 9.02785011 68.95601319 0.44921875 51.16796875 C-0.17726563 49.82025391 -0.17726563 49.82025391 -0.81640625 48.4453125 C-10.99893175 28.10952164 -29.52041191 13.95039356 -50.55078125 6.16796875 C-51.70320313 5.72324219 -51.70320313 5.72324219 -52.87890625 5.26953125 C-84.72397062 -6.30007847 -120.16133669 5.20308506 -143.55078125 28.16796875 Z " fill="#3E6E90" transform="translate(421.55078125,205.83203125)"/>
<path d="M0 0 C1.94652466 -0.01498535 1.94652466 -0.01498535 3.93237305 -0.03027344 C27.70675238 0.18042563 50.39368074 8.94494465 68.375 24.4375 C69.03757812 24.95570313 69.70015625 25.47390625 70.3828125 26.0078125 C88.93549259 40.95511346 101.10898412 65.90129815 104.15966797 89.27636719 C106.96794436 117.4610187 99.30313161 144.9418602 81.9140625 167.390625 C65.00995457 187.67555451 40.99693788 202.43125858 14.375 205.4375 C-16.40512806 206.96261367 -42.89384848 200.83796358 -66.625 180.4375 C-67.29789062 179.90898437 -67.97078125 179.38046875 -68.6640625 178.8359375 C-86.37358124 164.51309963 -98.80151795 139.56944561 -101.4140625 117.1015625 C-102.21217374 103.23807465 -102.51189703 89.87264409 -98.625 76.4375 C-98.36976563 75.40238281 -98.11453125 74.36726563 -97.8515625 73.30078125 C-90.75120355 46.82100224 -71.91287327 25.71011601 -48.5625 12.1875 C-43.06598978 9.09815594 -37.62321133 6.39895889 -31.625 4.4375 C-30.60792969 4.06625 -29.59085937 3.695 -28.54296875 3.3125 C-19.11451235 0.37057644 -9.81760334 0.03448927 0 0 Z M-62.625 40.4375 C-63.38554687 41.17355469 -64.14609375 41.90960938 -64.9296875 42.66796875 C-81.61555884 59.90233759 -88.01762243 82.78418501 -88.06835938 106.27539062 C-87.54517873 129.85227307 -76.63740188 151.64300119 -60.07373047 168.06201172 C-40.68409585 186.47138169 -16.94012636 192.1274624 9.00732422 191.52197266 C30.32821064 190.7612976 52.33935934 179.34218337 66.83251953 163.8828125 C77.16499803 152.26875936 84.34233333 138.44326494 88.375 123.4375 C88.59929687 122.61894531 88.82359375 121.80039062 89.0546875 120.95703125 C93.46685548 101.46491926 89.95363136 81.22554444 81.375 63.4375 C80.74851562 62.08978516 80.74851562 62.08978516 80.109375 60.71484375 C69.9268495 40.37905289 51.40536934 26.21992481 30.375 18.4375 C29.22257812 17.99277344 29.22257812 17.99277344 28.046875 17.5390625 C-3.79818937 5.96945278 -39.23555544 17.47261631 -62.625 40.4375 Z " fill="#020203" transform="translate(340.625,193.5625)"/>
<path d="M0 0 C1.43513517 -0.00379063 2.87026667 -0.00929677 4.3053894 -0.01637268 C8.17527076 -0.03024656 12.0447035 -0.01921549 15.9145596 -0.00266147 C19.97957724 0.0112686 24.04457093 0.00472005 28.10960388 0.00120544 C34.93267988 -0.00149012 41.75557931 0.01192347 48.57861328 0.03515625 C56.44945517 0.06177257 64.3200022 0.06350726 72.19087368 0.05176789 C79.7866748 0.04096266 87.38237003 0.04719798 94.97816277 0.06132317 C98.20003726 0.06705813 101.42183362 0.06702003 104.64370918 0.06225777 C108.44172646 0.0574607 112.23942372 0.06770162 116.03738022 0.08921242 C117.42523431 0.09474311 118.81311939 0.09528006 120.20097542 0.09025955 C130.63925193 0.05725431 139.30835544 0.97572144 147.65405273 7.61889648 C152.72842524 12.75723167 156.64837428 19.48493815 156.62695312 26.78955078 C156.62687759 27.65021652 156.62680206 28.51088226 156.62672424 29.39762878 C156.62156296 30.32271744 156.61640167 31.24780609 156.61108398 32.20092773 C156.60896156 33.62620537 156.60896156 33.62620537 156.60679626 35.08027649 C156.60119649 38.11661928 156.58864405 41.15288846 156.57592773 44.18920898 C156.5709127 46.24715063 156.5663498 48.30509343 156.56225586 50.36303711 C156.55122713 55.40928945 156.53396266 60.45548674 156.51342773 65.50170898 C150.57342773 65.50170898 144.63342773 65.50170898 138.51342773 65.50170898 C138.47604492 62.58842773 138.43866211 59.67514648 138.40014648 56.67358398 C138.35392823 53.8504284 138.30269566 51.02740524 138.25097656 48.2043457 C138.21773346 46.24316462 138.18969959 44.281888 138.16699219 42.32055664 C138.13343492 39.50031851 138.08111874 36.68095534 138.02514648 33.86108398 C138.0155616 32.54681427 138.0155616 32.54681427 138.00578308 31.20599365 C137.98598892 30.38544495 137.96619476 29.56489624 137.94580078 28.71948242 C137.93469772 28.00000427 137.92359467 27.28052612 137.91215515 26.53924561 C137.3720031 23.77901507 136.47818999 22.52040907 134.51342773 20.50170898 C131.71907793 19.90290096 131.71907793 19.90290096 128.47154236 20.00723267 C127.20818558 19.99884369 125.9448288 19.99045471 124.64318848 19.98181152 C123.24047545 19.99277863 121.83776549 20.0041446 120.43505859 20.01586914 C118.96004398 20.01372362 117.48503101 20.00984643 116.01002502 20.00436401 C112.00176566 19.99465954 107.9939508 20.00998671 103.98574519 20.0302701 C99.7959675 20.04781703 95.60620403 20.0443165 91.41639709 20.04354858 C84.38087509 20.04542238 77.34552549 20.06279786 70.31005859 20.09008789 C62.16831402 20.12155177 54.02675823 20.13208372 45.88495725 20.13061678 C38.06116733 20.12939738 30.23743909 20.13959691 22.41366768 20.15620041 C19.07996706 20.16327337 15.74628825 20.16692794 12.41258049 20.16798782 C8.48997618 20.16999249 4.56753124 20.18216739 0.64497948 20.2023201 C-0.79741185 20.20817639 -2.23982152 20.21061956 -3.68222427 20.20946503 C-5.64539021 20.20848804 -7.60854929 20.22099914 -9.57167053 20.23428345 C-11.22228784 20.23931098 -11.22228784 20.23931098 -12.90625095 20.24444008 C-15.65004948 20.24287658 -15.65004948 20.24287658 -17.48657227 22.50170898 C-17.81592607 24.43857028 -17.81592607 24.43857028 -17.80541992 26.67602539 C-17.82528961 27.53676666 -17.8451593 28.39750793 -17.8656311 29.28433228 C-17.88295792 30.67970718 -17.88295792 30.67970718 -17.90063477 32.10327148 C-17.92000092 33.05487152 -17.93936707 34.00647156 -17.95932007 34.98690796 C-18.01921358 38.03341645 -18.06554021 41.07996253 -18.11157227 44.12670898 C-18.14974306 46.18922568 -18.18879425 48.25172628 -18.22875977 50.31420898 C-18.32658426 55.37662638 -18.4060752 60.43886742 -18.48657227 65.50170898 C-24.75657227 65.50170898 -31.02657227 65.50170898 -37.48657227 65.50170898 C-37.62523355 59.59576529 -37.74437939 53.6955887 -37.81616211 47.78930664 C-37.8461173 45.78553003 -37.88689703 43.78188207 -37.93920898 41.77856445 C-38.26308631 29.04574003 -38.47256961 18.83339614 -29.8972168 8.60620117 C-21.52935166 0.52128355 -11.04326493 -0.08378061 0 0 Z " fill="#3E6C8E" transform="translate(143.486572265625,25.498291015625)"/>
<path d="M0 0 C1.07242699 -0.00929787 1.07242699 -0.00929787 2.16651917 -0.01878357 C3.67520795 -0.02587154 5.18397511 -0.02272538 6.69262695 -0.01000977 C8.99382456 0.00384555 11.2909434 -0.03020464 13.59179688 -0.06835938 C15.06119891 -0.06931079 16.530606 -0.06745052 18 -0.0625 C18.68348007 -0.07575821 19.36696014 -0.08901642 20.07115173 -0.10267639 C23.63526653 -0.03367779 25.4021696 0.44014363 28.24780273 2.62782288 C31.07948748 6.21668215 31.27042047 8.82776722 31.19750977 13.21484375 C31.20466507 13.96832092 31.21182037 14.7217981 31.2191925 15.49810791 C31.23605178 17.97983094 31.21669524 20.4597403 31.1953125 22.94140625 C31.19614146 24.67106272 31.19860188 26.4007191 31.20262146 28.13037109 C31.20547754 31.75186939 31.19079729 35.37274858 31.16333008 38.99414062 C31.12924722 43.63144463 31.13526707 48.26764179 31.15399265 52.90499878 C31.16457167 56.47559805 31.15561671 60.04594069 31.14060783 63.61651611 C31.13543216 65.32610308 31.13590037 67.03571692 31.14215279 68.74530029 C31.14761609 71.13677401 31.12719657 73.52667442 31.09985352 75.91796875 C31.10637939 76.62149475 31.11290527 77.32502075 31.11962891 78.04986572 C31.02737577 82.8055571 29.92324007 85.22110642 26.56640625 88.56640625 C22.17818212 90.76051832 16.31940747 89.87592047 11.44555664 89.91650391 C9.98966467 89.93304629 8.53385335 89.96031461 7.07836914 89.99853516 C4.97369502 90.05348748 2.87092118 90.07520241 0.765625 90.08984375 C-0.49419189 90.10966309 -1.75400879 90.12948242 -3.05200195 90.14990234 C-7.45747758 89.38973436 -8.68510912 88.05384763 -11.43359375 84.56640625 C-11.92418222 81.74600811 -12.11013307 79.53118181 -12.06469727 76.71850586 C-12.07185257 75.94391525 -12.07900787 75.16932465 -12.08638 74.3712616 C-12.10324102 71.81981808 -12.08388317 69.270138 -12.0625 66.71875 C-12.06332886 64.94185745 -12.06578889 63.16496498 -12.06980896 61.38807678 C-12.07266505 57.66823181 -12.05798304 53.94898959 -12.03051758 50.22924805 C-11.99640997 45.46181904 -12.00246286 40.69546594 -12.02118015 35.92798519 C-12.03174871 32.26049331 -12.02281412 28.59325176 -12.00779533 24.92578316 C-12.00261365 23.167921 -12.00309516 21.4100327 -12.00934029 19.652174 C-12.0147919 17.19584797 -11.99442208 14.74106255 -11.96704102 12.28491211 C-11.97356689 11.55908936 -11.98009277 10.8332666 -11.98681641 10.08544922 C-11.9228079 6.70804453 -11.65155449 4.85960851 -9.61300659 2.11734009 C-6.52770763 -0.07824877 -3.65345971 -0.02643409 0 0 Z " fill="#030405" transform="translate(332.43359375,278.43359375)"/>
<path d="M0 0 C22.11 0 44.22 0 67 0 C67 25.42254581 67 25.42254581 58.34716797 36.17138672 C55.98112125 39.38300141 54.29005186 42.91624 52.5625 46.5 C52.24539062 47.14702881 51.92828125 47.79405762 51.6015625 48.46069336 C49.60632994 52.58870536 47.79744567 56.78256487 46 61 C39.60962769 61.02527062 33.21926817 61.04283317 26.82885742 61.05493164 C24.65307127 61.05997308 22.47728853 61.06680607 20.30151367 61.07543945 C17.18146933 61.08751338 14.06146962 61.09323005 10.94140625 61.09765625 C9.47266808 61.10539818 9.47266808 61.10539818 7.97425842 61.11329651 C7.07340012 61.11337204 6.17254181 61.11344757 5.24438477 61.11352539 C4.44718521 61.115746 3.64998566 61.11796661 2.82862854 61.12025452 C1 61 1 61 0 60 C-0.09386381 58.1281906 -0.11743804 56.2528194 -0.11352539 54.37866211 C-0.11340454 53.1606189 -0.11328369 51.94257568 -0.11315918 50.68762207 C-0.10804321 49.39723022 -0.10292725 48.10683838 -0.09765625 46.77734375 C-0.09664917 45.59885864 -0.09564209 44.42037354 -0.09460449 43.20617676 C-0.08935316 38.78327468 -0.07539205 34.36038641 -0.0625 29.9375 C-0.041875 20.058125 -0.02125 10.17875 0 0 Z " fill="#FDC128" transform="translate(170,190)"/>
<path d="M0 0 C3.54208647 2.67350526 6.31740975 5.39471217 9.0625 8.875 C12.5925407 13.27730615 16.19103969 17.60072976 19.875 21.875 C20.89985029 23.06631102 21.92458951 24.2577176 22.94921875 25.44921875 C23.45630371 26.03880371 23.96338867 26.62838867 24.48583984 27.23583984 C30.19291452 33.88519837 35.85560504 40.56875157 41.375 47.375 C45.65820435 52.64365173 50.09820359 57.76755716 54.57177734 62.87451172 C56.05748694 64.57497922 57.53078643 66.28528313 59 68 C59.61101562 68.70382812 60.22203125 69.40765625 60.8515625 70.1328125 C63.09920274 73.78713915 62.70432611 77.8880771 62 82 C59.9375 84.75 59.9375 84.75 57 87 C56.46890625 87.5259375 55.9378125 88.051875 55.390625 88.59375 C52.46209335 91.44167987 50.00990577 93.36336686 45.9375 94.125 C41.35338487 93.97947254 39.16132554 93.15363375 36 90 C33.33247568 86.95292813 30.82006791 83.79553262 28.30664062 80.62109375 C25.97870987 77.73292854 23.5486052 74.93289695 21.125 72.125 C20.10005602 70.93376958 19.07531707 69.74236272 18.05078125 68.55078125 C17.54369629 67.96119629 17.03661133 67.37161133 16.51416016 66.76416016 C10.80708548 60.11480163 5.14439496 53.43124843 -0.375 46.625 C-4.60773817 41.42194098 -8.98647988 36.35435797 -13.39599609 31.30126953 C-14.93458609 29.5375431 -16.4678002 27.76927802 -18 26 C-18.49564453 25.43490723 -18.99128906 24.86981445 -19.50195312 24.28759766 C-23 20.22745253 -23 20.22745253 -23 18 C-21.06911716 16.56848341 -19.1376277 15.24488373 -17.125 13.9375 C-10.89266427 9.77602717 -5.42769651 5.18265377 0 0 Z " fill="#FA4654" transform="translate(435,392)"/>
<path d="M0 0 C1 1 1 1 1.1328125 3.3984375 C1.13023437 4.38070312 1.12765625 5.36296875 1.125 6.375 C1.12757813 7.35210937 1.13015625 8.32921875 1.1328125 9.3359375 C1 12 1 12 0 15 C-4.59538025 14.43494697 -8.78344885 13.53648472 -13.1875 12.125 C-47.43150267 2.21702035 -83.02051694 6.13123015 -114.40625 22.95703125 C-121.41399707 26.86793934 -128.07844922 31.21082005 -134.125 36.5 C-137 39 -137 39 -139 39 C-139 39.66 -139 40.32 -139 41 C-139.66 41 -140.32 41 -141 41 C-141.07347656 39.89591797 -141.07347656 39.89591797 -141.1484375 38.76953125 C-141.22320312 37.79371094 -141.29796875 36.81789062 -141.375 35.8125 C-141.44460937 34.84957031 -141.51421875 33.88664062 -141.5859375 32.89453125 C-142.00215853 29.98491062 -142.79874096 27.67109226 -144 25 C-139.41907094 20.88404582 -134.73893084 17.29750389 -129.5 14.0625 C-128.80567871 13.63356445 -128.11135742 13.20462891 -127.39599609 12.76269531 C-90.07122351 -9.86402015 -41.10985389 -16.03736058 0 0 Z " fill="#C77527" transform="translate(392,156)"/>
<path d="M0 0 C5.32461071 3.0349201 9.10941759 7.68621167 12.25 12.875 C13.66901125 19.49705249 13.62059005 25.6380751 10.21484375 31.61328125 C5.90228777 37.41541088 0.51310877 41.74905789 -6.73046875 42.90625 C-14.25458609 43.17298385 -19.43305478 41.42497564 -25.1875 36.5 C-29.99577221 30.63059185 -31.67976078 25.0313209 -31.58984375 17.48828125 C-30.78374125 11.50120928 -27.76960077 6.61528029 -23.11328125 2.80078125 C-16.02775454 -1.77010382 -7.98777589 -3.54145533 0 0 Z " fill="#030405" transform="translate(351.1875,226.5)"/>
<path d="M0 0 C4.62 0 9.24 0 14 0 C14 20.13 14 40.26 14 61 C9.38 61 4.76 61 0 61 C0 40.87 0 20.74 0 0 Z " fill="#2FA0F1" transform="translate(335,293)"/>
<path d="M0 0 C0.33 0 0.66 0 1 0 C2.30670535 14.6692753 1.54557732 23.60230004 -7.65283203 35.15087891 C-10.01500767 38.39319828 -11.70767051 41.95454625 -13.4375 45.5625 C-13.75460938 46.21782715 -14.07171875 46.8731543 -14.3984375 47.54833984 C-15.27091076 49.36302805 -16.13563337 51.1814365 -17 53 C-17.99 54.98 -18.98 56.96 -20 59 C-24.95 59 -29.9 59 -35 59 C-31.65785375 38.9471225 -18.27777664 20.80823687 -5 6 C-4.07734264 4.88299703 -3.15800633 3.76324163 -2.2421875 2.640625 C-1.50226563 1.76921875 -0.76234375 0.8978125 0 0 Z " fill="#FCB164" transform="translate(236,191)"/>
<path d="M0 0 C21.33793967 13.14293385 33.91910937 32.0244678 40.30859375 55.94921875 C45.4816942 78.77515916 41.08847029 103.02879938 28.6875 122.8515625 C26.59573578 126.00862606 24.33371648 129.01705413 22 132 C21.24976563 133.00546875 21.24976563 133.00546875 20.484375 134.03125 C16.18476476 139.4675388 10.67952543 144.06802085 5 148 C4.01 148 3.02 148 2 148 C2.72574219 147.28714844 3.45148438 146.57429687 4.19921875 145.83984375 C12.8523229 137.06605475 19.33733785 127.88193913 25 117 C25.48339844 116.10925781 25.96679688 115.21851563 26.46484375 114.30078125 C36.14063817 95.09624097 37.33664539 69.88796935 31.19140625 49.4609375 C30.60166016 47.74777344 30.60166016 47.74777344 30 46 C29.63777344 44.87851562 29.27554687 43.75703125 28.90234375 42.6015625 C23.56834263 27.3770576 14.11332332 13.83665841 1.6875 3.59375 C1.130625 3.0678125 0.57375 2.541875 0 2 C0 1.34 0 0.68 0 0 Z " fill="#A5D9F1" transform="translate(389,221)"/>
<path d="M0 0 C3.72975427 1.15283314 5.35163561 1.75988138 7.4375 5.0625 C7.37702191 8.50975099 7.09986979 10.95855036 5.3125 13.9375 C2.28014294 15.75691423 -0.04116855 16.0625 -3.5625 16.0625 C-6.98514067 13.65936932 -8.33064736 12.17539267 -9.1875 8.0625 C-8.06449489 2.67207546 -5.55537361 0.09746269 0 0 Z " fill="#2FA1F2" transform="translate(342.5625,238.9375)"/>
</svg>
