<?xml version="1.0" encoding="UTF-8"?>
<svg version="1.1" xmlns="http://www.w3.org/2000/svg" width="512" height="512">
<path d="M0 0 C46.2 0 92.4 0 140 0 C140.33 17.16 140.66 34.32 141 52 C152.82200358 57.05046902 152.82200358 57.05046902 165 61 C166.9640721 59.76437526 166.9640721 59.76437526 168.75878906 57.80883789 C169.47923401 57.08801529 170.19967896 56.36719269 170.94195557 55.62452698 C171.70876648 54.83190964 172.47557739 54.0392923 173.265625 53.22265625 C174.05902283 52.42218369 174.85242065 51.62171112 175.66986084 50.79698181 C178.2085068 48.23028253 180.72925331 45.64676874 183.25 43.0625 C184.964997 41.32243468 186.68112888 39.5834871 188.3984375 37.84570312 C192.61222701 33.57669876 196.8114365 29.29374986 201 25 C206.75628153 29.78352587 212.05263186 34.91663033 217.33178711 40.21826172 C218.23989136 41.12621994 219.14799561 42.03417816 220.08361816 42.96965027 C222.55437636 45.4401235 225.02205581 47.91365083 227.48916316 50.38776922 C230.07516336 52.98005325 232.66402707 55.56947443 235.25257874 58.15921021 C240.14530237 63.0550324 245.03547296 67.95339636 249.92471462 72.85269558 C255.49472932 78.4339174 261.06760984 84.01227394 266.64072406 89.59040046 C278.09699112 101.05709847 289.54968266 112.52736069 301 124 C294.74542083 131.38169635 294.74542083 131.38169635 291.56494141 134.54858398 C290.96477203 135.14867783 290.36460266 135.74877167 289.74624634 136.36705017 C289.12100067 136.98713455 288.495755 137.60721893 287.8515625 138.24609375 C286.86547501 139.23005882 286.86547501 139.23005882 285.85946655 140.23390198 C283.78367138 142.30415268 281.70440573 144.37087651 279.625 146.4375 C278.2067992 147.85067862 276.78882824 149.26408794 275.37109375 150.67773438 C271.91671223 154.12116065 268.4592163 157.56143099 265 161 C267.70185122 169.10555365 270.90325779 177.0369486 274 185 C291.16 185.33 308.32 185.66 326 186 C326 232.2 326 278.4 326 326 C308.84 326.33 291.68 326.66 274 327 C268.94953098 338.82200358 268.94953098 338.82200358 265 351 C266.23562474 352.9640721 266.23562474 352.9640721 268.19116211 354.75878906 C268.91198471 355.47923401 269.63280731 356.19967896 270.37547302 356.94195557 C271.16809036 357.70876648 271.9607077 358.47557739 272.77734375 359.265625 C273.57781631 360.05902283 274.37828888 360.85242065 275.20301819 361.66986084 C277.76971747 364.2085068 280.35323126 366.72925331 282.9375 369.25 C284.67756532 370.964997 286.4165129 372.68112888 288.15429688 374.3984375 C292.42330124 378.61222701 296.70625014 382.8114365 301 387 C296.21647413 392.75628153 291.08336967 398.05263186 285.78173828 403.33178711 C284.87378006 404.23989136 283.96582184 405.14799561 283.03034973 406.08361816 C280.5598765 408.55437636 278.08634917 411.02205581 275.61223078 413.48916316 C273.01994675 416.07516336 270.43052557 418.66402707 267.84078979 421.25257874 C262.9449676 426.14530237 258.04660364 431.03547296 253.14730442 435.92471462 C247.5660826 441.49472932 241.98772606 447.06760984 236.40959954 452.64072406 C224.94290153 464.09699112 213.47263931 475.54968266 202 487 C194.61830365 480.74542083 194.61830365 480.74542083 191.45141602 477.56494141 C190.85132217 476.96477203 190.25122833 476.36460266 189.63294983 475.74624634 C189.01286545 475.12100067 188.39278107 474.495755 187.75390625 473.8515625 C186.76994118 472.86547501 186.76994118 472.86547501 185.76609802 471.85946655 C183.69584732 469.78367138 181.62912349 467.70440573 179.5625 465.625 C178.14932138 464.2067992 176.73591206 462.78882824 175.32226562 461.37109375 C171.87883935 457.91671223 168.43856901 454.4592163 165 451 C156.89444635 453.70185122 148.9630514 456.90325779 141 460 C140.67 477.16 140.34 494.32 140 512 C93.8 512 47.6 512 0 512 C-0.33 494.84 -0.66 477.68 -1 460 C-12.82200358 454.94953098 -12.82200358 454.94953098 -25 451 C-26.9640721 452.23562474 -26.9640721 452.23562474 -28.75878906 454.19116211 C-29.47923401 454.91198471 -30.19967896 455.63280731 -30.94195557 456.37547302 C-31.70876648 457.16809036 -32.47557739 457.9607077 -33.265625 458.77734375 C-34.05902283 459.57781631 -34.85242065 460.37828888 -35.66986084 461.20301819 C-38.2085068 463.76971747 -40.72925331 466.35323126 -43.25 468.9375 C-44.964997 470.67756532 -46.68112888 472.4165129 -48.3984375 474.15429688 C-52.61222701 478.42330124 -56.8114365 482.70625014 -61 487 C-66.75628153 482.21647413 -72.05263186 477.08336967 -77.33178711 471.78173828 C-78.69394348 470.41980095 -78.69394348 470.41980095 -80.08361816 469.03034973 C-82.55437636 466.5598765 -85.02205581 464.08634917 -87.48916316 461.61223078 C-90.07516336 459.01994675 -92.66402707 456.43052557 -95.25257874 453.84078979 C-100.14530237 448.9449676 -105.03547296 444.04660364 -109.92471462 439.14730442 C-115.49472932 433.5660826 -121.06760984 427.98772606 -126.64072406 422.40959954 C-138.09699112 410.94290153 -149.54968266 399.47263931 -161 388 C-154.74542083 380.61830365 -154.74542083 380.61830365 -151.56494141 377.45141602 C-150.96477203 376.85132217 -150.36460266 376.25122833 -149.74624634 375.63294983 C-149.12100067 375.01286545 -148.495755 374.39278107 -147.8515625 373.75390625 C-147.19417084 373.09792953 -146.53677917 372.44195282 -145.85946655 371.76609802 C-143.78367138 369.69584732 -141.70440573 367.62912349 -139.625 365.5625 C-138.2067992 364.14932138 -136.78882824 362.73591206 -135.37109375 361.32226562 C-131.91671223 357.87883935 -128.4592163 354.43856901 -125 351 C-127.70185122 342.89444635 -130.90325779 334.9630514 -134 327 C-151.16 326.67 -168.32 326.34 -186 326 C-186 279.8 -186 233.6 -186 186 C-168.84 185.67 -151.68 185.34 -134 185 C-128.94953098 173.17799642 -128.94953098 173.17799642 -125 161 C-126.23562474 159.0359279 -126.23562474 159.0359279 -128.19116211 157.24121094 C-128.91198471 156.52076599 -129.63280731 155.80032104 -130.37547302 155.05804443 C-131.16809036 154.29123352 -131.9607077 153.52442261 -132.77734375 152.734375 C-133.57781631 151.94097717 -134.37828888 151.14757935 -135.20301819 150.33013916 C-137.76971747 147.7914932 -140.35323126 145.27074669 -142.9375 142.75 C-144.67756532 141.035003 -146.4165129 139.31887112 -148.15429688 137.6015625 C-152.42330124 133.38777299 -156.70625014 129.1885635 -161 125 C-156.21647413 119.24371847 -151.08336967 113.94736814 -145.78173828 108.66821289 C-144.87378006 107.76010864 -143.96582184 106.85200439 -143.03034973 105.91638184 C-140.5598765 103.44562364 -138.08634917 100.97794419 -135.61223078 98.51083684 C-133.01994675 95.92483664 -130.43052557 93.33597293 -127.84078979 90.74742126 C-122.9449676 85.85469763 -118.04660364 80.96452704 -113.14730442 76.07528538 C-107.5660826 70.50527068 -101.98772606 64.93239016 -96.40959954 59.35927594 C-84.94290153 47.90300888 -73.47263931 36.45031734 -62 25 C-54.61830365 31.25457917 -54.61830365 31.25457917 -51.45141602 34.43505859 C-50.85132217 35.03522797 -50.25122833 35.63539734 -49.63294983 36.25375366 C-48.70282326 37.19162216 -48.70282326 37.19162216 -47.75390625 38.1484375 C-47.09792953 38.80582916 -46.44195282 39.46322083 -45.76609802 40.14053345 C-43.69584732 42.21632862 -41.62912349 44.29559427 -39.5625 46.375 C-38.14932138 47.7932008 -36.73591206 49.21117176 -35.32226562 50.62890625 C-31.87883935 54.08328777 -28.43856901 57.5407837 -25 61 C-16.89444635 58.29814878 -8.9630514 55.09674221 -1 52 C-0.67 34.84 -0.34 17.68 0 0 Z M40 40 C40 54.52 40 69.04 40 84 C35.05 84.99 30.1 85.98 25 87 C21.4826634 87.99381113 18.07097397 89.00432856 14.625 90.1875 C13.73852783 90.48938232 12.85205566 90.79126465 11.9387207 91.10229492 C-0.86399786 95.57871377 -12.62004281 101.27773576 -23.82543945 108.9387207 C-28.50452055 112.05385825 -28.50452055 112.05385825 -31.01678467 111.78077698 C-33.22023366 110.91329566 -34.36707666 109.99609957 -36.02441406 108.31616211 C-36.58469299 107.75565659 -37.14497192 107.19515106 -37.722229 106.61766052 C-38.31404968 106.01035599 -38.90587036 105.40305145 -39.515625 104.77734375 C-40.13145447 104.15726944 -40.74728394 103.53719513 -41.3817749 102.89833069 C-43.34500635 100.91832095 -45.29754436 98.92813081 -47.25 96.9375 C-48.58003748 95.59241465 -49.91075879 94.24800512 -51.2421875 92.90429688 C-54.50277537 89.61065094 -57.75381188 86.30783661 -61 83 C-66.39190397 87.4978935 -71.39391684 92.26126542 -76.33984375 97.2421875 C-77.10680069 98.01055939 -77.87375763 98.77893127 -78.66395569 99.57058716 C-81.0908474 102.00303509 -83.51422127 104.43895322 -85.9375 106.875 C-87.59156486 108.53408552 -89.24585945 110.19294202 -90.90039062 111.8515625 C-94.93625433 115.89839709 -98.96924277 119.94807953 -103 124 C-99.31629191 128.42036897 -95.51717787 132.56246492 -91.34765625 136.5390625 C-90.31372896 137.54091986 -89.28054597 138.54354583 -88.24804688 139.546875 C-86.64616795 141.09907368 -85.04033942 142.64600985 -83.42163086 144.18066406 C-81.84146037 145.68233591 -80.28096581 147.20226051 -78.72265625 148.7265625 C-77.79203369 149.61939941 -76.86141113 150.51223633 -75.90258789 151.43212891 C-74 154 -74 154 -74.12060547 156.68383789 C-75.13743237 159.36197137 -76.43253569 161.45480675 -78.0625 163.8125 C-90.2062039 182.35155616 -98.86418994 204.04932958 -102 226 C-116.52 226 -131.04 226 -146 226 C-146 245.8 -146 265.6 -146 286 C-131.48 286 -116.96 286 -102 286 C-101.01 290.95 -100.02 295.9 -99 301 C-98.00618887 304.5173366 -96.99567144 307.92902603 -95.8125 311.375 C-95.51061768 312.26147217 -95.20873535 313.14794434 -94.89770508 314.0612793 C-90.42128623 326.86399786 -84.72226424 338.62004281 -77.0612793 349.82543945 C-73.94614175 354.50452055 -73.94614175 354.50452055 -74.21922302 357.01678467 C-75.08670434 359.22023366 -76.00390043 360.36707666 -77.68383789 362.02441406 C-78.24434341 362.58469299 -78.80484894 363.14497192 -79.38233948 363.722229 C-79.98964401 364.31404968 -80.59694855 364.90587036 -81.22265625 365.515625 C-81.84273056 366.13145447 -82.46280487 366.74728394 -83.10166931 367.3817749 C-85.08167905 369.34500635 -87.07186919 371.29754436 -89.0625 373.25 C-90.40758535 374.58003748 -91.75199488 375.91075879 -93.09570312 377.2421875 C-96.38934906 380.50277537 -99.69216339 383.75381188 -103 387 C-98.5021065 392.39190397 -93.73873458 397.39391684 -88.7578125 402.33984375 C-87.98944061 403.10680069 -87.22106873 403.87375763 -86.42941284 404.66395569 C-83.99696491 407.0908474 -81.56104678 409.51422127 -79.125 411.9375 C-77.46591448 413.59156486 -75.80705798 415.24585945 -74.1484375 416.90039062 C-70.10160291 420.93625433 -66.05192047 424.96924277 -62 429 C-57.57963103 425.31629191 -53.43753508 421.51717787 -49.4609375 417.34765625 C-48.45908014 416.31372896 -47.45645417 415.28054597 -46.453125 414.24804688 C-44.90092632 412.64616795 -43.35399015 411.04033942 -41.81933594 409.42163086 C-40.31766409 407.84146037 -38.79773949 406.28096581 -37.2734375 404.72265625 C-36.38060059 403.79203369 -35.48776367 402.86141113 -34.56787109 401.90258789 C-32 400 -32 400 -29.38012695 400.07958984 C-25.88410296 401.43152445 -22.90730048 403.48603807 -19.8125 405.5625 C-8.53231847 412.84222799 3.51261856 417.96384191 16.1875 422.3125 C17.18209229 422.65812988 17.18209229 422.65812988 18.19677734 423.01074219 C25.41184045 425.37014578 32.40545116 426.48109023 40 428 C40 442.52 40 457.04 40 472 C59.8 472 79.6 472 100 472 C100 457.48 100 442.96 100 428 C104.95 427.01 109.9 426.02 115 425 C118.5173366 424.00618887 121.92902603 422.99567144 125.375 421.8125 C126.26147217 421.51061768 127.14794434 421.20873535 128.0612793 420.89770508 C140.86399786 416.42128623 152.62004281 410.72226424 163.82543945 403.0612793 C168.50452055 399.94614175 168.50452055 399.94614175 171.01678467 400.21922302 C173.22023366 401.08670434 174.36707666 402.00390043 176.02441406 403.68383789 C176.58469299 404.24434341 177.14497192 404.80484894 177.722229 405.38233948 C178.31404968 405.98964401 178.90587036 406.59694855 179.515625 407.22265625 C180.13145447 407.84273056 180.74728394 408.46280487 181.3817749 409.10166931 C183.34500635 411.08167905 185.29754436 413.07186919 187.25 415.0625 C188.58003748 416.40758535 189.91075879 417.75199488 191.2421875 419.09570312 C194.50277537 422.38934906 197.75381188 425.69216339 201 429 C206.39190397 424.5021065 211.39391684 419.73873458 216.33984375 414.7578125 C217.10680069 413.98944061 217.87375763 413.22106873 218.66395569 412.42941284 C221.0908474 409.99696491 223.51422127 407.56104678 225.9375 405.125 C227.59156486 403.46591448 229.24585945 401.80705798 230.90039062 400.1484375 C234.93625433 396.10160291 238.96924277 392.05192047 243 388 C239.31629191 383.57963103 235.51717787 379.43753508 231.34765625 375.4609375 C230.31372896 374.45908014 229.28054597 373.45645417 228.24804688 372.453125 C226.64616795 370.90092632 225.04033942 369.35399015 223.42163086 367.81933594 C221.84146037 366.31766409 220.28096581 364.79773949 218.72265625 363.2734375 C217.79203369 362.38060059 216.86141113 361.48776367 215.90258789 360.56787109 C214 358 214 358 214.12060547 355.31616211 C215.13743237 352.63802863 216.43253569 350.54519325 218.0625 348.1875 C229.03710703 331.40016655 242 306.49771262 242 286 C256.52 286 271.04 286 286 286 C286 266.2 286 246.4 286 226 C271.48 226 256.96 226 242 226 C241.01 221.05 240.02 216.1 239 211 C238.00618887 207.4826634 236.99567144 204.07097397 235.8125 200.625 C235.51061768 199.73852783 235.20873535 198.85205566 234.89770508 197.9387207 C230.42128623 185.13600214 224.72226424 173.37995719 217.0612793 162.17456055 C213.94614175 157.49547945 213.94614175 157.49547945 214.21922302 154.98321533 C215.08670434 152.77976634 216.00390043 151.63292334 217.68383789 149.97558594 C218.24434341 149.41530701 218.80484894 148.85502808 219.38233948 148.277771 C219.98964401 147.68595032 220.59694855 147.09412964 221.22265625 146.484375 C221.84273056 145.86854553 222.46280487 145.25271606 223.10166931 144.6182251 C225.08167905 142.65499365 227.07186919 140.70245564 229.0625 138.75 C230.40758535 137.41996252 231.75199488 136.08924121 233.09570312 134.7578125 C236.38934906 131.49722463 239.69216339 128.24618812 243 125 C238.5021065 119.60809603 233.73873458 114.60608316 228.7578125 109.66015625 C227.60525467 108.50972084 227.60525467 108.50972084 226.42941284 107.33604431 C223.99696491 104.9091526 221.56104678 102.48577873 219.125 100.0625 C217.46591448 98.40843514 215.80705798 96.75414055 214.1484375 95.09960938 C210.10160291 91.06374567 206.05192047 87.03075723 202 83 C197.57963103 86.68370809 193.43753508 90.48282213 189.4609375 94.65234375 C188.45908014 95.68627104 187.45645417 96.71945403 186.453125 97.75195312 C184.90092632 99.35383205 183.35399015 100.95966058 181.81933594 102.57836914 C180.31766409 104.15853963 178.79773949 105.71903419 177.2734375 107.27734375 C175.93418213 108.67327759 175.93418213 108.67327759 174.56787109 110.09741211 C172 112 172 112 169.31616211 111.87939453 C166.63802863 110.86256763 164.54519325 109.56746431 162.1875 107.9375 C143.64844384 95.7937961 121.95067042 87.13581006 100 84 C100 69.48 100 54.96 100 40 C80.2 40 60.4 40 40 40 Z " fill="#000000" transform="translate(186,0)"/>
<path d="M0 0 C2.47980387 2.19672124 4.90517849 4.439372 7.31640625 6.7109375 C7.98027344 7.31035156 8.64414062 7.90976563 9.328125 8.52734375 C26.28257767 24.45008531 36.05170452 45.6928138 42.31640625 67.7109375 C42.67863281 68.95359375 43.04085938 70.19625 43.4140625 71.4765625 C51.02909619 103.6367978 44.15948254 139.91303835 27.37548828 168.02050781 C21.96195393 176.66119749 15.28964594 184.30896336 8.31640625 191.7109375 C7.71699219 192.37480469 7.11757813 193.03867187 6.5 193.72265625 C-9.42274156 210.67710892 -30.66547005 220.44623577 -52.68359375 226.7109375 C-53.92625 227.07316406 -55.16890625 227.43539063 -56.44921875 227.80859375 C-88.60945405 235.42362744 -124.8856946 228.55401379 -152.99316406 211.77001953 C-161.63385374 206.35648518 -169.28161961 199.68417719 -176.68359375 192.7109375 C-177.34746094 192.11152344 -178.01132813 191.51210938 -178.6953125 190.89453125 C-195.64976517 174.97178969 -205.41889202 153.7290612 -211.68359375 131.7109375 C-212.04582031 130.46828125 -212.40804687 129.225625 -212.78125 127.9453125 C-220.39628369 95.7850772 -213.52667004 59.50883665 -196.74267578 31.40136719 C-191.32914143 22.76067751 -184.65683344 15.11291164 -177.68359375 7.7109375 C-177.08417969 7.04707031 -176.48476562 6.38320312 -175.8671875 5.69921875 C-159.94444594 -11.25523392 -138.70171745 -21.02436077 -116.68359375 -27.2890625 C-115.4409375 -27.65128906 -114.19828125 -28.01351562 -112.91796875 -28.38671875 C-73.58186922 -37.70088329 -30.36775036 -25.90320482 0 0 Z M-147.19482422 35.25341797 C-163.67862405 51.39121479 -173.74336147 72.86150981 -174.06396484 96.02246094 C-174.02143145 122.26169834 -166.34902884 144.64288898 -147.7265625 163.82421875 C-130.16158948 181.02097747 -106.39769855 189.51026264 -82.0546875 189.74609375 C-57.49438563 188.60050515 -34.33868993 177.82470785 -17.68359375 159.7109375 C0.40459798 138.35602473 5.87083226 114.18658194 4.31640625 86.7109375 C1.58601712 63.48709106 -12.27402362 42.27653029 -30.37109375 27.9609375 C-66.79722564 1.96249362 -114.52771641 4.56676002 -147.19482422 35.25341797 Z " fill="#000000" transform="translate(340.68359375,156.2890625)"/>
</svg>
