<?xml version="1.0" encoding="UTF-8"?>
<svg version="1.1" xmlns="http://www.w3.org/2000/svg" width="512" height="512">
<path d="M0 0 C26.54027671 21.96190013 43.07299061 51.14424594 46.5859375 85.6015625 C49.24308278 117.88587768 39.12721329 149.97708656 18.30517578 174.77636719 C-2.41924884 198.67311783 -31.35943523 214.56239571 -63.17578125 217.234375 C-98.35720733 219.20716525 -129.56685396 209.28330762 -156.2265625 186.0234375 C-177.68742109 166.1420981 -193.09404183 138.85634042 -195.2590332 109.24462891 C-195.4350614 103.77469267 -195.4350614 103.77469267 -192.6640625 100.6484375 C-191.8184375 99.9059375 -190.9728125 99.1634375 -190.1015625 98.3984375 C-189.24037116 96.22497182 -189.24037116 96.22497182 -189.1015625 94.3984375 C-189.9059375 93.9446875 -190.7103125 93.4909375 -191.5390625 93.0234375 C-194.1015625 91.3984375 -194.1015625 91.3984375 -195.1015625 89.3984375 C-195.61910747 83.22789738 -194.79038907 77.35028753 -193.4765625 71.3359375 C-193.20924316 70.10375488 -193.20924316 70.10375488 -192.93652344 68.84667969 C-188.66866179 50.13596984 -180.29969165 33.21191092 -168.1015625 18.3984375 C-167.34230469 17.47417969 -166.58304688 16.54992187 -165.80078125 15.59765625 C-124.72565655 -31.93117053 -49.19099234 -38.64064546 0 0 Z " fill="#2B292A" transform="translate(195.1015625,74.6015625)"/>
<path d="M0 0 C22.8552019 19.94054162 39.31938145 48.2572466 41.54199219 78.96142578 C41.6712727 83.0674873 41.63773367 84.49933477 39.01171875 87.81640625 C36.38671875 89.81640625 36.38671875 89.81640625 34.38671875 89.81640625 C34.71671875 90.80640625 35.04671875 91.79640625 35.38671875 92.81640625 C35.05671875 93.47640625 34.72671875 94.13640625 34.38671875 94.81640625 C35.17046875 94.91953125 35.95421875 95.02265625 36.76171875 95.12890625 C39.38671875 95.81640625 39.38671875 95.81640625 41.38671875 98.81640625 C42.1750429 104.88436748 41.05470336 110.95996519 39.76171875 116.87890625 C39.58350586 117.70036133 39.40529297 118.52181641 39.22167969 119.36816406 C34.80439835 138.733944 26.03194945 155.59341584 13.38671875 170.81640625 C12.71769531 171.63882813 12.04867187 172.46125 11.359375 173.30859375 C6.32106307 179.26389906 0.56784452 184.08248341 -5.61328125 188.81640625 C-6.78310547 189.72712891 -6.78310547 189.72712891 -7.9765625 190.65625 C-33.95823785 209.91325644 -67.58212624 216.55770246 -99.28515625 212.12109375 C-121.13451369 208.42917109 -140.69056316 198.96916537 -157.61328125 184.81640625 C-158.55945313 184.03523437 -159.505625 183.2540625 -160.48046875 182.44921875 C-182.90641027 163.07269704 -197.62292804 133.56506488 -200.0234375 104.09375 C-202.09175675 74.3841576 -195.67121631 44.98844531 -177.61328125 20.81640625 C-176.9996875 19.98109375 -176.38609375 19.14578125 -175.75390625 18.28515625 C-155.87307376 -7.67493906 -127.27421628 -24.07498749 -94.8527832 -28.46069336 C-59.95336852 -32.54199272 -26.90234688 -22.47894156 0 0 Z " fill="#E8F4FD" transform="translate(470.61328125,249.18359375)"/>
<path d="M0 0 C17.0937148 13.33887422 29.29277521 33.31666186 32 55 C33.27695613 79.80299503 28.82712297 102.45129066 12.09570312 121.62719727 C-1.74413196 136.96186891 -21.24611332 149.01579171 -42.37719727 150.12475586 C-66.85724207 150.86503795 -89.02470988 146.28435706 -107.6875 129.3125 C-119.85970183 117.82641018 -129.29124367 103.48045946 -133 87 C-133.20367187 86.11441406 -133.40734375 85.22882813 -133.6171875 84.31640625 C-138.3398591 60.4766188 -133.05297596 38.27578002 -120 18 C-109.34094038 2.92085327 -93.61223461 -8.34770145 -76 -14 C-75.07574219 -14.29777344 -74.15148437 -14.59554687 -73.19921875 -14.90234375 C-48.05065658 -21.83657245 -20.70272746 -15.3258138 0 0 Z " fill="#FCE3E8" transform="translate(172,104)"/>
<path d="M0 0 C9.8732609 6.27169403 15.67831131 15.30123877 18.875 26.375 C20.21874428 38.85060481 17.64770224 49.41622526 9.875 59.375 C8.2457726 61.07828319 6.58858643 62.75661281 4.875 64.375 C5.89207031 64.97634766 5.89207031 64.97634766 6.9296875 65.58984375 C13.94909074 69.87731858 20.01053626 74.61130024 25.875 80.375 C26.50148438 80.98859375 27.12796875 81.6021875 27.7734375 82.234375 C41.44323238 96.70827546 50.14325055 119.42286194 51.05078125 139.20703125 C50.76788153 144.30551296 49.07596394 147.29120327 45.3125 150.6875 C41.86563914 153.07378829 40.12358917 153.50407163 35.97407532 153.53562927 C34.93808701 153.5456749 33.90209869 153.55572052 32.8347168 153.56607056 C31.69341309 153.57190155 30.55210937 153.57773254 29.3762207 153.58374023 C28.17772995 153.59352402 26.9792392 153.6033078 25.74443054 153.61338806 C21.76322404 153.64339484 17.7820535 153.66504483 13.80078125 153.68359375 C12.78439815 153.68853973 12.78439815 153.68853973 11.74748206 153.69358563 C5.35522231 153.72437277 -1.03704217 153.75107724 -7.42935467 153.76800442 C-15.60121558 153.78989824 -23.77241835 153.83183662 -31.94401616 153.90144199 C-37.69188528 153.94873553 -43.43957721 153.97294521 -49.18763477 153.9802013 C-52.61931631 153.98515069 -56.05025632 154.00016006 -59.48172569 154.0399456 C-63.31475534 154.07878058 -67.14606895 154.07990359 -70.97924805 154.07202148 C-72.1104306 154.09202209 -73.24161316 154.11202271 -74.40707397 154.13262939 C-80.70184176 154.07452366 -84.35161541 153.42037604 -88.88036823 148.89492893 C-92.53245849 144.43504144 -92.42566542 139.92336189 -92.125 134.375 C-91.66506585 131.64786104 -91.15882872 129.04951581 -90.5 126.375 C-90.32178711 125.64442383 -90.14357422 124.91384766 -89.95996094 124.16113281 C-84.39164915 102.2553377 -73.30314542 81.12114576 -53.55859375 68.76953125 C-51.43614088 67.58374772 -49.30643482 66.44766771 -47.125 65.375 C-48.40652779 62.55077999 -49.74885266 60.61459775 -51.9375 58.4375 C-58.95732782 50.3138172 -60.94291566 40.45293541 -60.54296875 29.95703125 C-59.13108891 17.85708909 -52.85692206 8.95763733 -43.73046875 1.20703125 C-30.0888909 -8.38502274 -14.20578424 -7.78399137 0 0 Z " fill="#2A2A2B" transform="translate(412.125,257.625)"/>
<path d="M0 0 C26.54027671 21.96190013 43.07299061 51.14424594 46.5859375 85.6015625 C49.24308278 117.88587768 39.12721329 149.97708656 18.30517578 174.77636719 C-2.41924884 198.67311783 -31.35943523 214.56239571 -63.17578125 217.234375 C-98.35720733 219.20716525 -129.56685396 209.28330762 -156.2265625 186.0234375 C-177.70171854 166.12885295 -193.05653288 138.87187827 -195.26123047 109.25341797 C-195.39997966 105.05936489 -195.37538292 103.727022 -192.6015625 100.3984375 C-191.3640625 99.4084375 -191.3640625 99.4084375 -190.1015625 98.3984375 C-183.3515625 100.1484375 -183.3515625 100.1484375 -181.1015625 102.3984375 C-180.58666992 104.22338867 -180.58666992 104.22338867 -180.20703125 106.44140625 C-179.98503052 107.66996338 -179.98503052 107.66996338 -179.75854492 108.92333984 C-179.52615112 110.24132568 -179.52615112 110.24132568 -179.2890625 111.5859375 C-174.06728105 139.11896699 -160.78546671 165.12308704 -137.37011719 181.61816406 C-112.60141734 198.39778147 -83.79205226 205.78371971 -54.0390625 200.2109375 C-51.71536409 199.65138471 -49.40188012 199.04744634 -47.1015625 198.3984375 C-45.87566406 198.058125 -44.64976562 197.7178125 -43.38671875 197.3671875 C-15.95990512 188.98913091 6.18698285 170.27357746 19.671875 145.0859375 C32.84663631 117.80013743 35.05527813 87.91927426 25.13574219 59.18945312 C15.32654687 32.41466842 -5.15741732 11.37661754 -30.80859375 -0.60400391 C-42.3781075 -5.63733368 -54.50594549 -8.77037965 -67.1015625 -9.6015625 C-67.80684082 -9.65070801 -68.51211914 -9.69985352 -69.23876953 -9.75048828 C-98.55900988 -11.53231077 -125.22788293 -0.26671259 -147.12011719 18.67895508 C-166.04261652 35.75476857 -177.90946918 61.54770199 -180.4140625 86.65625 C-181.25144585 89.99626767 -182.41304731 91.29309288 -185.1015625 93.3984375 C-188.66872653 93.99296484 -190.37607714 93.83754706 -193.4765625 91.9609375 C-197.19999045 86.08937804 -194.88592163 77.78761027 -193.4765625 71.3359375 C-193.20924316 70.10375488 -193.20924316 70.10375488 -192.93652344 68.84667969 C-188.66866179 50.13596984 -180.29969165 33.21191092 -168.1015625 18.3984375 C-167.34230469 17.47417969 -166.58304688 16.54992187 -165.80078125 15.59765625 C-124.72565655 -31.93117053 -49.19099234 -38.64064546 0 0 Z " fill="#292828" transform="translate(195.1015625,74.6015625)"/>
<path d="M0 0 C22.8854921 19.966969 39.25956408 48.23967705 41.54638672 78.96142578 C41.68513591 83.15547886 41.66053917 84.48782175 38.88671875 87.81640625 C38.06171875 88.47640625 37.23671875 89.13640625 36.38671875 89.81640625 C29.87647924 88.46522446 29.87647924 88.46522446 27.71484375 85.6015625 C26.28258078 82.5980228 25.82262964 80.23916982 25.44921875 76.94140625 C21.49403611 48.81214731 6.77951801 24.91274032 -15.34375 7.19140625 C-33.1912467 -6.10565999 -55.0314566 -13.60736514 -77.23828125 -13.49609375 C-78.38256592 -13.4919043 -79.52685059 -13.48771484 -80.70581055 -13.48339844 C-89.69765844 -13.36405729 -97.90830428 -12.44886617 -106.61328125 -10.18359375 C-107.66515625 -9.93996094 -108.71703125 -9.69632813 -109.80078125 -9.4453125 C-124.44838028 -5.58200826 -138.62213272 2.46781717 -149.61328125 12.81640625 C-150.09313477 13.25146484 -150.57298828 13.68652344 -151.06738281 14.13476562 C-166.92772631 28.56065856 -177.35606404 47.05171916 -182.61328125 67.81640625 C-182.83886719 68.68523437 -183.06445312 69.5540625 -183.296875 70.44921875 C-189.06051069 97.71717795 -182.57091385 127.4033205 -167.7734375 150.71484375 C-152.42730648 172.61995511 -130.95379838 188.91088106 -104.61328125 194.81640625 C-103.55753906 195.11160156 -102.50179687 195.40679687 -101.4140625 195.7109375 C-75.90517689 202.32211614 -48.27625743 196.60870695 -25.734375 183.6484375 C-0.63091445 168.46055641 17.2617558 144.36534738 24.38671875 115.81640625 C25.10685732 111.88255652 25.54403098 107.94040423 25.9296875 103.9609375 C26.35265157 101.05080006 26.76586749 99.23932824 28.38671875 96.81640625 C31.87795892 94.4889128 33.27894126 94.31341309 37.38671875 94.81640625 C39.76171875 96.25390625 39.76171875 96.25390625 41.38671875 98.81640625 C42.08033844 104.92402582 41.06234916 110.92496475 39.76171875 116.87890625 C39.58350586 117.70036133 39.40529297 118.52181641 39.22167969 119.36816406 C34.80439835 138.733944 26.03194945 155.59341584 13.38671875 170.81640625 C12.71769531 171.63882813 12.04867187 172.46125 11.359375 173.30859375 C6.32106307 179.26389906 0.56784452 184.08248341 -5.61328125 188.81640625 C-6.78310547 189.72712891 -6.78310547 189.72712891 -7.9765625 190.65625 C-33.95823785 209.91325644 -67.58212624 216.55770246 -99.28515625 212.12109375 C-121.13451369 208.42917109 -140.69056316 198.96916537 -157.61328125 184.81640625 C-158.55945313 184.03523437 -159.505625 183.2540625 -160.48046875 182.44921875 C-182.90641027 163.07269704 -197.62292804 133.56506488 -200.0234375 104.09375 C-202.09175675 74.3841576 -195.67121631 44.98844531 -177.61328125 20.81640625 C-176.9996875 19.98109375 -176.38609375 19.14578125 -175.75390625 18.28515625 C-155.87307376 -7.67493906 -127.27421628 -24.07498749 -94.8527832 -28.46069336 C-59.95336852 -32.54199272 -26.90234688 -22.47894156 0 0 Z " fill="#292929" transform="translate(470.61328125,249.18359375)"/>
<path d="M0 0 C1.48712284 2.31012458 2.74647502 4.56388431 4 7 C4.98284578 8.83805811 5.96735626 10.6752266 6.953125 12.51171875 C7.48583008 13.51114502 8.01853516 14.51057129 8.56738281 15.5402832 C22.18069404 43.04526236 22.18069404 43.04526236 45 62 C47.56792437 62.23505111 50.03878418 62.37171528 52.609375 62.4140625 C53.33618469 62.43342865 54.06299438 62.4527948 54.81182861 62.4727478 C57.12443448 62.53234271 59.43709067 62.57884758 61.75 62.625 C63.32163582 62.66319836 64.89325113 62.70225117 66.46484375 62.7421875 C70.30972842 62.83802743 74.15471107 62.92213195 78 63 C77.9685791 62.03960815 77.9685791 62.03960815 77.93652344 61.05981445 C77.85310716 58.14420425 77.80126031 55.22884548 77.75 52.3125 C77.71648437 51.30509766 77.68296875 50.29769531 77.6484375 49.25976562 C77.54970487 41.78076923 77.54970487 41.78076923 79.8203125 37.84375 C82 36 82 36 85.125 35.1875 C91.06365597 36.43270206 94.52785531 40.04555128 99 44 C100.58773022 45.35286483 102.18301383 46.69645708 103.77880859 48.03979492 C105.44922661 49.44738149 107.11348424 50.86201442 108.77734375 52.27734375 C112.53409831 55.46283062 116.3543261 58.56840823 120.17578125 61.67578125 C123.94055967 64.77404289 127.64503479 67.94122672 131.35083008 71.10961914 C134.94584547 74.16432439 138.6167887 77.02303125 142.51171875 79.68359375 C144.44114429 81.3901985 145.20738309 82.52890021 146 85 C146.02320418 88.3491372 145.9181304 90.84483832 143.77441406 93.54199219 C142.12295986 95.0892537 140.41256245 96.48732085 138.625 97.875 C137.99231201 98.3903833 137.35962402 98.9057666 136.70776367 99.43676758 C135.42169111 100.48179266 134.1293035 101.51909642 132.83056641 102.54833984 C130.29501534 104.55906092 127.80699966 106.62619854 125.3125 108.6875 C123.54285703 110.12646516 121.77204173 111.56398989 120 113 C114.60765473 117.38177398 109.23765063 121.7825617 103.95507812 126.29614258 C101.31619377 128.54622224 98.65951433 130.77433217 96 133 C95.29617187 133.59683594 94.59234375 134.19367188 93.8671875 134.80859375 C90.98645066 137.08863883 88.96273497 138.00631611 85.3125 138.625 C82 138 82 138 79.80859375 136.16796875 C77.09945957 131.42259549 77.57171411 127.04636244 77.75 121.6875 C77.76804687 120.66076172 77.78609375 119.63402344 77.8046875 118.57617188 C77.85168937 116.04982115 77.91737728 113.52539531 78 111 C76.99324219 111.02094727 75.98648438 111.04189453 74.94921875 111.06347656 C71.13231233 111.13712608 67.31546518 111.18224209 63.49804688 111.21972656 C61.86121993 111.23956301 60.22446105 111.26664112 58.58789062 111.30175781 C40.07915045 111.68830398 23.44377466 108.94644509 9.25 95.9375 C-9.21555172 76.23422108 -13.17190537 47.10590004 -13.1875 21.25 C-13.19974609 20.16589844 -13.21199219 19.08179688 -13.22460938 17.96484375 C-13.24896725 4.66544267 -13.24896725 4.66544267 -9.3125 0 C-5.74105016 -1.54441074 -3.67550321 -1.18141175 0 0 Z " fill="#292928" transform="translate(122,301)"/>
<path d="M0 0 C2.62716409 2.07144077 3.86335817 3.22804711 4.45410156 6.56542969 C4.4331543 7.50805664 4.41220703 8.45068359 4.390625 9.421875 C4.37773437 10.44667969 4.36484375 11.47148438 4.3515625 12.52734375 C4.31804687 13.59082031 4.28453125 14.65429688 4.25 15.75 C4.23195313 16.82894531 4.21390625 17.90789062 4.1953125 19.01953125 C4.14821415 21.68058788 4.082456 24.33984254 4 27 C4.89605957 26.98952637 5.79211914 26.97905273 6.71533203 26.96826172 C10.11119269 26.93372161 13.50686077 26.90888242 16.90283203 26.89013672 C18.35924262 26.8802161 19.81563407 26.86667532 21.27197266 26.84912109 C38.98502181 26.64130754 56.09837098 27.76306185 70 40 C70.98226562 40.82564453 70.98226562 40.82564453 71.984375 41.66796875 C87.18084724 55.4802662 93.92407004 79.15105192 95.12145996 99.01493835 C95.2808562 103.69536371 95.31676494 108.37872737 95.35009766 113.06152344 C95.36673534 114.77422601 95.39412695 116.486857 95.43212891 118.19921875 C95.48691332 120.68786032 95.50875968 123.17489931 95.5234375 125.6640625 C95.55744156 126.80640854 95.55744156 126.80640854 95.59213257 127.97183228 C95.57626758 131.96751122 95.14864479 133.8061114 92.68994141 137.01318359 C90 139 90 139 86.4375 139.125 C81.25928132 137.43031025 79.64631832 134.21524137 77.140625 129.50390625 C76.50589788 128.19228133 75.8758904 126.87836461 75.25 125.5625 C66.55265872 107.78567392 56.30394848 87.72844806 39 77 C35.52482871 75.84160957 32.3272998 75.77198782 28.70703125 75.68359375 C28.00100266 75.66281265 27.29497406 75.64203156 26.56755066 75.62062073 C24.31596449 75.55532509 22.06426338 75.49633353 19.8125 75.4375 C18.2844934 75.39429575 16.75649836 75.35068084 15.22851562 75.30664062 C11.48579438 75.19966426 7.7429577 75.09834078 4 75 C4.01571045 75.7113208 4.0314209 76.4226416 4.04760742 77.15551758 C4.10991915 80.37443104 4.14897867 83.59321768 4.1875 86.8125 C4.21263672 87.93205078 4.23777344 89.05160156 4.26367188 90.20507812 C4.27333984 91.27822266 4.28300781 92.35136719 4.29296875 93.45703125 C4.3086792 94.44678955 4.32438965 95.43654785 4.34057617 96.45629883 C4 99 4 99 2.70043945 100.79956055 C0.35060963 102.45844257 -1.80135952 102.77926909 -4.64453125 102.66015625 C-9.43427209 101.31775791 -12.86843327 97.64461869 -16.48193359 94.36474609 C-19.09935945 92.01167268 -21.8063189 89.76482448 -24.5 87.5 C-25.60432061 86.56268134 -26.70848849 85.62518271 -27.8125 84.6875 C-30.68228204 82.25922289 -33.58439388 79.87316777 -36.5 77.5 C-41.71040293 73.25561338 -46.85850162 68.94360852 -51.9609375 64.5703125 C-53.80988904 63.00654629 -55.68452698 61.4717014 -57.6015625 59.9921875 C-62.79902423 55.89666112 -62.79902423 55.89666112 -63.8125 51.375 C-62.81247518 47.22105075 -61.1644957 45.60857078 -58 43 C-56.45706347 41.58471649 -54.9155431 40.1678884 -53.375 38.75 C-48.99223596 34.82687591 -44.48901902 31.08349354 -39.91796875 27.3828125 C-36.74581886 24.79243575 -33.61977467 22.15293532 -30.5 19.5 C-24.72253075 14.59697239 -18.91472303 9.73747478 -13 5 C-11.99646484 4.17435547 -11.99646484 4.17435547 -10.97265625 3.33203125 C-7.26546398 0.43604079 -4.71112372 -0.94222474 0 0 Z " fill="#292828" transform="translate(304,71)"/>
<path d="M0 0 C1.24652344 0.0721875 2.49304688 0.144375 3.77734375 0.21875 C29.91085207 2.71576274 55.79246613 16.18416626 73 36 C93.78665713 61.21720571 101.45233352 89.05508434 98.80078125 121.43261719 C95.8360547 148.22451078 80.01311716 172.65738479 60 190 C36.04663074 209.10844232 7.38931259 215.17388498 -22.74609375 212.69140625 C-25.55095495 212.2613529 -28.24908723 211.69370844 -31 211 C-32.07507813 210.75507813 -33.15015625 210.51015625 -34.2578125 210.2578125 C-43.88928399 207.82301098 -52.35409557 203.77812267 -61 199 C-61.99 198.45472656 -62.98 197.90945313 -64 197.34765625 C-87.76078176 183.22242407 -104.32571371 158.5246099 -111.47265625 132.17333984 C-112.57394381 127.63460751 -113.33554218 123.02682787 -114.01245117 118.4074707 C-114.55641855 114.26972069 -114.55641855 114.26972069 -117 111 C-118.64991582 110.29289322 -120.31562256 109.62056011 -122 109 C-121.67 107.35 -121.34 105.7 -121 104 C-118.03 103.01 -118.03 103.01 -115 102 C-114.92523438 101.14921875 -114.85046875 100.2984375 -114.7734375 99.421875 C-112.26134334 76.27120337 -103.76325513 55.98929977 -89 38 C-88.42765625 37.27554688 -87.8553125 36.55109375 -87.265625 35.8046875 C-66.45233855 10.53141109 -32.07095488 -2.17779368 0 0 Z M-47 17 C-47.99515625 17.43054688 -48.9903125 17.86109375 -50.015625 18.3046875 C-72.11467226 28.5442984 -89.75419951 47.9587931 -98.75390625 70.4453125 C-108.31594356 97.72259762 -107.29693802 124.75454254 -95.02880859 150.90429688 C-83.10865825 175.18587508 -61.1862479 192.31364762 -35.921875 201.06640625 C-10.12529567 208.52435586 17.54918239 204.71216884 40.86816406 191.97998047 C65.12804459 178.08662826 80.62688614 155.9432099 88.03515625 129.2734375 C93.64927571 104.04906819 89.95179668 78.97566405 77.0859375 56.68359375 C72.69979395 49.84225829 67.60524142 43.86409804 62 38 C61.38769531 37.31292969 60.77539062 36.62585938 60.14453125 35.91796875 C46.57389685 21.24779468 23.03120162 10.04867639 3.01953125 9.05859375 C1.52486328 9.02958984 1.52486328 9.02958984 0 9 C-0.64662598 8.97566895 -1.29325195 8.95133789 -1.95947266 8.92626953 C-18.01272363 8.34033133 -32.1878907 10.42101744 -47 17 Z " fill="#F85673" transform="translate(128,64)"/>
<path d="M0 0 C3.59235977 2.76847099 6.81213207 5.77875125 10 9 C10.62519531 9.59167969 11.25039063 10.18335938 11.89453125 10.79296875 C21.31358193 20.42463908 25.93502342 34.18597363 29 47 C29.19722656 47.64453125 29.39445312 48.2890625 29.59765625 48.953125 C30.17986709 51.91505197 30 54.98139422 30 58 C-7.62 58 -45.24 58 -84 58 C-80.68167389 36.43088027 -73.9534741 16.19794169 -56.25 2.1875 C-38.48999884 -10.53037155 -18.57788614 -11.37471097 0 0 Z " fill="#56A2FE" transform="translate(418,339)"/>
<path d="M0 0 C0.05607422 1.57201172 0.05607422 1.57201172 0.11328125 3.17578125 C0.17894515 4.55472305 0.24539235 5.93362771 0.3125 7.3125 C0.34633789 8.34793945 0.34633789 8.34793945 0.38085938 9.40429688 C0.54419083 13.29536732 0.54419083 13.29536732 2.24047852 16.70033264 C4.51672445 18.38167758 5.84889226 18.37215605 8.6640625 18.36889648 C10.08199097 18.37922157 10.08199097 18.37922157 11.52856445 18.38975525 C13.06130005 18.38051781 13.06130005 18.38051781 14.625 18.37109375 C16.79817853 18.38849218 18.97135558 18.40607636 21.14453125 18.42382812 C24.56301811 18.43385516 27.98140147 18.43750935 31.39990234 18.43579102 C34.70441079 18.4393907 38.00813301 18.46686055 41.3125 18.49609375 C42.82094482 18.48381996 42.82094482 18.48381996 44.35986328 18.47129822 C55.42030852 18.58566952 65.15869607 22.03312359 73 30 C84.16396501 43.52486909 90.42827566 60.37307526 90 78 C87.2289047 75.48391347 85.38583775 72.64451995 83.375 69.5 C75.5740428 57.6916041 66.61722228 45.32046209 53 40 C52.16702393 39.6599292 51.33404785 39.3198584 50.47583008 38.96948242 C46.03448675 37.73069796 41.95549898 37.69444052 37.3671875 37.69921875 C35.99580124 37.69279106 35.99580124 37.69279106 34.59671021 37.68623352 C32.67206651 37.68051086 30.74740119 37.67997468 28.82275391 37.68432617 C25.87755711 37.68749725 22.93335486 37.66396307 19.98828125 37.63867188 C18.1145846 37.63639979 16.24088525 37.63569496 14.3671875 37.63671875 C13.48795624 37.627509 12.60872498 37.61829926 11.70285034 37.60881042 C8.1446139 37.63579949 5.66109661 37.66634706 2.45263672 39.28564453 C0.02090586 42.15549564 0.31909983 45.59116799 0.25 49.1875 C0.20552734 50.31188477 0.20552734 50.31188477 0.16015625 51.45898438 C0.0895921 53.30541307 0.04251524 55.15271261 0 57 C-5.80389769 52.82119366 -11.22948736 48.30257467 -16.62207031 43.61425781 C-19.48405446 41.13181442 -22.35689168 38.68982719 -25.34765625 36.36328125 C-26.34667969 35.58339844 -27.34570312 34.80351562 -28.375 34 C-29.26960938 33.319375 -30.16421875 32.63875 -31.0859375 31.9375 C-33 30 -33 30 -33 26 C-31.10514584 24.08707092 -29.28656665 22.4710616 -27.1875 20.8125 C-26.6001709 20.33272705 -26.0128418 19.8529541 -25.40771484 19.35864258 C-23.61320012 17.89548619 -21.80694659 16.44775539 -20 15 C-18.0404045 13.3973754 -16.08195578 11.79334688 -14.125 10.1875 C-12.80048828 9.11242187 -12.80048828 9.11242187 -11.44921875 8.015625 C-9.23890728 6.19661269 -7.08356524 4.33134726 -4.9375 2.4375 C-2 0 -2 0 0 0 Z " fill="#FBB755" transform="translate(294,94)"/>
<path d="M0 0 C2.64212862 2.40409901 4.34152219 5.01510196 6.1875 8.0625 C9.73368006 13.73039033 13.7204603 18.87294361 18 24 C18.77214844 24.98871094 19.54429687 25.97742188 20.33984375 26.99609375 C22.96908764 30.14387183 26.04654729 32.47350076 29.4375 34.75 C30.25831055 35.32814453 30.25831055 35.32814453 31.09570312 35.91796875 C37.94557727 40.60344479 43.79610052 41.30197971 51.8515625 41.265625 C53.25624283 41.26849518 53.25624283 41.26849518 54.68930054 41.27142334 C56.66103384 41.27277974 58.63277623 41.2691215 60.60449219 41.26074219 C63.62194818 41.25001085 66.63881211 41.26066839 69.65625 41.2734375 C71.57552215 41.27211628 73.49479392 41.26955466 75.4140625 41.265625 C76.31516754 41.26967346 77.21627258 41.27372192 78.14468384 41.27789307 C78.9859079 41.27158875 79.82713196 41.26528442 80.69384766 41.25878906 C81.43075836 41.25719788 82.16766907 41.25560669 82.9269104 41.25396729 C85.33963333 40.95839265 86.93802259 40.27490661 89 39 C90.4807848 36.0384304 90.35314037 33.16493705 90.5625 29.875 C90.68818359 27.95300781 90.68818359 27.95300781 90.81640625 25.9921875 C90.87699219 25.00476563 90.93757813 24.01734375 91 23 C95.36086099 25.40092347 98.90789397 28.35980769 102.625 31.625 C103.86374592 32.70018431 105.10333981 33.77439238 106.34375 34.84765625 C106.95734375 35.37891113 107.5709375 35.91016602 108.203125 36.45751953 C113.65994114 41.14178099 119.21737573 45.72298988 125 50 C123.76145489 53.71563534 122.30982822 54.59458591 119.25 57 C118.25871094 57.79019531 117.26742187 58.58039063 116.24609375 59.39453125 C115.71741699 59.81557129 115.18874023 60.23661133 114.64404297 60.67041016 C111.82007912 62.95423954 109.07180562 65.32635734 106.3125 67.6875 C93.02163337 79 93.02163337 79 91 79 C90.97421875 78.03578125 90.9484375 77.0715625 90.921875 76.078125 C90.86515625 74.81484375 90.8084375 73.5515625 90.75 72.25 C90.70359375 70.99703125 90.6571875 69.7440625 90.609375 68.453125 C90.23525382 65.07212508 90.23525382 65.07212508 88.63208008 62.81347656 C84.44780741 59.930555 80.23904474 60.47600613 75.27734375 60.53125 C74.22148575 60.52420044 73.16562775 60.51715088 72.07777405 60.5098877 C67.56677658 60.48044333 63.05621113 60.49694055 58.54516602 60.50927734 C55.24730198 60.51167666 51.95012241 60.49062923 48.65234375 60.46875 C47.64985092 60.48006958 46.64735809 60.49138916 45.61448669 60.50305176 C34.52894128 60.42502965 26.16039338 57.12951983 18.21875 49.4140625 C11.82322156 42.4555474 8.37489285 34.75515681 5 26 C4.65710938 25.22140625 4.31421875 24.4428125 3.9609375 23.640625 C2.69606048 20.16478409 2.03097492 16.62794293 1.375 13 C1.2409375 12.30132812 1.106875 11.60265625 0.96875 10.8828125 C0.29001136 7.21208312 -0.16043696 3.73380565 0 0 Z " fill="#FCB856" transform="translate(124,337)"/>
<path d="M0 0 C17.85850966 2.55121567 33.41787704 14.82838676 46 27 C46.73863281 27.71285156 47.47726562 28.42570312 48.23828125 29.16015625 C64.84547537 46.35730398 73.52854658 68.99816999 76.47265625 92.3828125 C76.77847574 95.14747965 76.77847574 95.14747965 79 97 C81.06874034 97.6425235 81.06874034 97.6425235 83 98 C84.125 101.75 84.125 101.75 83 104 C81.02111039 104.72693904 79.02045442 105.39816251 77 106 C76.91548584 106.60247559 76.83097168 107.20495117 76.74389648 107.82568359 C73.2867889 131.6835747 66.13213134 150.99809962 51 170 C50.42378906 170.7321875 49.84757812 171.464375 49.25390625 172.21875 C36.37379272 187.78608146 17.33014203 198.74591588 -2 204 C0.59947202 201.05754209 3.62695835 199.34531039 7 197.375 C13.49901369 193.47431586 19.31711308 189.02957866 25 184 C26.02673828 183.09894531 26.02673828 183.09894531 27.07421875 182.1796875 C38.16621765 171.78515709 45.82106051 158.74008372 52 145 C52.51175781 143.8759375 53.02351563 142.751875 53.55078125 141.59375 C64.23455152 115.10030351 62.94543923 84.07898684 52.24487305 57.86328125 C42.1258734 34.46169778 26.45252064 17.23859686 4.87109375 3.84765625 C2 2 2 2 0 0 Z " fill="#D1DAE3" transform="translate(422,240)"/>
<path d="M0 0 C24.90462688 -0.36093662 48.84278226 14.33091061 66.3125 30.9375 C86.7255659 52.39515776 96.72452733 79.16020994 96.39990234 108.52612305 C95.60670858 138.70515155 82.41949912 164.94696441 60.73828125 185.66796875 C44.11799632 200.89561393 20.66902308 211.45075054 -2 212 C0.26301016 210.49132656 2.33769005 209.2782484 4.7578125 208.08984375 C5.46550781 207.73986328 6.17320312 207.38988281 6.90234375 207.02929688 C7.63582031 206.66900391 8.36929688 206.30871094 9.125 205.9375 C13.87472238 203.90536524 13.87472238 203.90536524 18 201 C17.34 200.34 16.68 199.68 16 199 C16.85980469 198.72027344 17.71960938 198.44054687 18.60546875 198.15234375 C42.63646688 190.00224515 63.20112465 175.05601067 75.0546875 152.1796875 C86.33889061 129.18690801 90.69688015 101.82304875 82.68896484 76.98681641 C77.32489435 61.51806884 69.33544075 48.87522365 58 37 C57.46117187 36.38640625 56.92234375 35.7728125 56.3671875 35.140625 C48.41120844 26.42502985 37.33513643 20.81828963 26.64453125 16.19140625 C23.66947219 14.85109161 21.30662049 13.26297541 18.83203125 11.140625 C15.32248621 8.48789302 11.63785285 6.6563365 7.6875 4.75 C6.94693359 4.38648437 6.20636719 4.02296875 5.44335938 3.6484375 C3.63160746 2.76009463 1.81617047 1.87927407 0 1 C0 0.67 0 0.34 0 0 Z " fill="#E24260" transform="translate(131,65)"/>
<path d="M0 0 C6.08885622 3.45887967 10.11942859 8.36462162 12.66015625 14.87109375 C14.78911538 22.72319593 13.72188803 29.14972317 9.73046875 36.16796875 C5.67585569 42.3737793 0.2929833 45.96195113 -6.67578125 48.3203125 C-14.25286769 49.45151202 -20.30887442 48.58971031 -26.67578125 44.3203125 C-27.56265625 43.7634375 -28.44953125 43.2065625 -29.36328125 42.6328125 C-34.8311552 37.16493855 -37.72577991 30.37034416 -38.05078125 22.6953125 C-37.94906767 15.78896015 -35.40383532 10.35655678 -30.80859375 5.2421875 C-21.56437324 -3.31860815 -11.50673652 -5.16628987 0 0 Z " fill="#FDCABA" transform="translate(403.67578125,268.6796875)"/>
<path d="M0 0 C2.22851562 1.46875 2.22851562 1.46875 4 4 C4.39464155 7.00265618 4.1301433 9.92586734 3.90625 12.9375 C3.82780556 14.73343865 3.75642579 16.5296971 3.69140625 18.32617188 C3.63944092 19.72113892 3.63944092 19.72113892 3.58642578 21.14428711 C2.69625439 35.17476186 2.69625439 35.17476186 6.9765625 48.0859375 C11.66144929 52.33023932 17.02472564 54.7059862 23.06640625 56.43554688 C25 57 25 57 26 58 C26.58309038 65.2303207 26.58309038 65.2303207 24.4375 68.0625 C20.97590849 69.39388135 18.61101068 68.73041006 15 68 C12.01806641 66.63305664 12.01806641 66.63305664 9.1015625 64.91015625 C8.04582031 64.29076172 6.99007812 63.67136719 5.90234375 63.03320312 C4.82082031 62.38287109 3.73929688 61.73253906 2.625 61.0625 C1.52027344 60.41603516 0.41554688 59.76957031 -0.72265625 59.10351562 C-8.85704047 54.28591907 -8.85704047 54.28591907 -10 52 C-10.10507037 50.44345394 -10.14870332 48.88254852 -10.16113281 47.32250977 C-10.17074036 46.35132706 -10.1803479 45.38014435 -10.19024658 44.37953186 C-10.19449646 43.32745041 -10.19874634 42.27536896 -10.203125 41.19140625 C-10.20882507 40.11374496 -10.21452515 39.03608368 -10.22039795 37.92576599 C-10.22985523 35.64347315 -10.23638481 33.36116661 -10.24023438 31.07885742 C-10.24995049 27.5803256 -10.28097184 24.08237848 -10.3125 20.58398438 C-10.31902878 18.36979517 -10.32427974 16.15560175 -10.328125 13.94140625 C-10.3466452 12.36632042 -10.3466452 12.36632042 -10.36553955 10.75941467 C-10.36253845 9.7850798 -10.35953735 8.81074493 -10.35644531 7.80688477 C-10.36191376 6.52020653 -10.36191376 6.52020653 -10.36749268 5.20753479 C-9.399717 -0.60591023 -5.112433 -0.62784265 0 0 Z " fill="#2D2C2D" transform="translate(124,122)"/>
<path d="M0 0 C15.34441788 3.49493249 26.88285759 13.22603267 35.3125 26.3125 C41.89280099 37.61575896 47.90982534 51.65589502 47 65 C43.04 65 39.08 65 35 65 C34.78085937 63.8140625 34.56171875 62.628125 34.3359375 61.40625 C30.07552971 39.26179654 22.24739341 16.61372229 2.9375 2.9375 C1.968125 2.298125 0.99875 1.65875 0 1 C0 0.67 0 0.34 0 0 Z " fill="#3281E0" transform="translate(401,332)"/>
<path d="M0 0 C9.41935147 1.5908238 15.39385447 5.21093055 21 13 C24.36748693 18.83697734 24.96739222 24.40907542 24 31 C20.69809842 40.57959101 15.24557692 45.62862451 6.40234375 50.1796875 C3.75181702 51.08474541 2.58359827 50.96661182 0 50 C0.38671875 49.59910156 0.7734375 49.19820313 1.171875 48.78515625 C8.9790155 40.26300536 10.92690109 32.47106817 10.453125 21.10546875 C10.0088942 15.63868461 8.09666448 11.48597882 5 7 C4.52304687 6.2884375 4.04609375 5.576875 3.5546875 4.84375 C2.41234867 3.19878208 1.21268616 1.5938161 0 0 Z " fill="#FAA88F" transform="translate(393,266)"/>
<path d="M0 0 C5.16350634 4.15599291 8.55583462 9.08824916 9.5625 15.6875 C9 19 9 19 6.875 21.5 C4 23 4 23 1.0625 23.3125 C-3.68253067 21.27891543 -5.54709082 17.396027 -8 13 C-8.38929688 12.30648437 -8.77859375 11.61296875 -9.1796875 10.8984375 C-10.4456499 7.9686388 -9.89419358 6.00193559 -9 3 C-6.25531568 0.0592668 -3.95849436 -0.77238914 0 0 Z " fill="#302F2F" transform="translate(154,217)"/>
<path d="M0 0 C0.969375 0.845625 1.93875 1.69125 2.9375 2.5625 C4.28856208 3.71199234 5.64299893 4.85752484 7 6 C8.0828125 6.91652344 8.0828125 6.91652344 9.1875 7.8515625 C9.93 8.45742188 10.6725 9.06328125 11.4375 9.6875 C12.11683594 10.24824219 12.79617187 10.80898438 13.49609375 11.38671875 C20.12752527 15.65938836 26.27607387 16.45569512 33.96875 16.51171875 C34.88966431 16.52966995 35.81057861 16.54762115 36.75939941 16.56611633 C39.6728877 16.61988015 42.5862154 16.65400545 45.5 16.6875 C47.48700135 16.72070307 49.4739816 16.75519546 51.4609375 16.79101562 C56.30717514 16.87558684 61.15336796 16.94255891 66 17 C66 18.65 66 20.3 66 22 C60.16508882 22.09933715 54.33067663 22.17168936 48.49511719 22.21972656 C46.51260801 22.23976497 44.53015737 22.26700353 42.54785156 22.30175781 C39.68800359 22.35061954 36.82894119 22.37304673 33.96875 22.390625 C33.09134155 22.41127014 32.21393311 22.43191528 31.30993652 22.45318604 C20.18950918 22.45718446 13.63578843 16.55943054 6 9 C0 2.69047619 0 2.69047619 0 0 Z " fill="#E99B2C" transform="translate(142,362)"/>
<path d="M0 0 C3.5 0.9375 3.5 0.9375 5.5 2.625 C6.95735035 5.99512269 6.61331088 7.40110073 5.5 10.9375 C0.7890625 20.078125 0.7890625 20.078125 -3.5 22.9375 C-6.57728941 22.74516941 -8.75518099 22.4092187 -11.375 20.75 C-13.1884805 17.82828142 -13.06114549 16.36672246 -12.5 12.9375 C-6.03829611 -0.10782672 -6.03829611 -0.10782672 0 0 Z " fill="#2F2E2E" transform="translate(90.5,217.0625)"/>
<path d="M0 0 C3.86984479 1.12577303 4.53497323 1.57319362 6.4375 5 C7.1821101 10.20606558 7.65908564 16.13334571 5.55859375 21.0625 C4.375 22.4375 4.375 22.4375 1.4375 24 C-2.58284924 23.93185849 -4.6801825 23.8823175 -7.5625 21 C-7.8151603 18.16197848 -7.93278432 15.46384221 -7.9375 12.625 C-7.96199219 11.85671875 -7.98648438 11.0884375 -8.01171875 10.296875 C-8.03125378 6.53312582 -7.98633054 4.59759187 -5.76171875 1.4609375 C-3.5625 0 -3.5625 0 0 0 Z " fill="#313030" transform="translate(121.5625,92)"/>
<path d="M0 0 C0.7115625 -0.01546875 1.423125 -0.0309375 2.15625 -0.046875 C5.63009262 -0.0209508 7.65937332 0.25357789 10.5 2.30859375 C12 4.5 12 4.5 12 8.0625 C10.87422697 11.93234479 10.42680638 12.59747323 7 14.5 C1.83867568 15.23821087 -4.19904062 15.81143185 -9.02734375 13.55078125 C-11.14911225 11.60121425 -11.95249357 9.7164182 -12.5625 6.9375 C-11.02012068 0.25385627 -5.99011935 -0.13021999 0 0 Z " fill="#2F2E2E" transform="translate(187,163.5)"/>
<path d="M0 0 C0.71607422 -0.02449219 1.43214844 -0.04898438 2.16992188 -0.07421875 C5.67055426 -0.09368473 7.69326289 0.10944882 10.56640625 2.17578125 C12.0625 4.375 12.0625 4.375 12.0625 7.9375 C10.93672697 11.80734479 10.48930638 12.47247323 7.0625 14.375 C1.85643442 15.1196101 -4.07084571 15.59658564 -9 13.49609375 C-10.375 12.3125 -10.375 12.3125 -11.9375 9.375 C-11.9375 5.6875 -11.9375 5.6875 -10.9375 2.375 C-7.22932221 -0.09711853 -4.2949099 0.00769008 0 0 Z " fill="#2F2E2E" transform="translate(53.9375,163.625)"/>
<path d="M0 0 C4.52733233 1.64243447 10.8585021 4.31466045 13.078125 8.75390625 C13.46744698 12.33566845 13.51409218 14.11672346 11.453125 17.12890625 C8.36050041 19.24491255 6.78406224 19.11414316 3.078125 18.75390625 C0.12109375 17.29296875 0.12109375 17.29296875 -2.734375 15.37890625 C-4.16716797 14.43917969 -4.16716797 14.43917969 -5.62890625 13.48046875 C-7.921875 11.75390625 -7.921875 11.75390625 -8.921875 9.75390625 C-9.30937552 6.18890149 -9.31623394 4.36910619 -7.359375 1.31640625 C-4.65645148 -0.41623703 -3.14065436 -0.6486134 0 0 Z " fill="#2E2D2D" transform="translate(60.921875,128.24609375)"/>
<path d="M0 0 C3.53949039 0.72234498 4.79012511 1.95615064 6.89453125 4.84375 C7.27996094 5.4315625 7.66539063 6.019375 8.0625 6.625 C8.65611328 7.50671875 8.65611328 7.50671875 9.26171875 8.40625 C11.41696025 11.85463639 12.94159584 14.55918173 12.0625 18.625 C10.5 20.9375 10.5 20.9375 8.0625 22.625 C4.5625 23.1875 4.5625 23.1875 1.0625 22.625 C-1.125 20.5625 -1.125 20.5625 -2.9375 17.625 C-3.31003906 17.07070312 -3.68257813 16.51640625 -4.06640625 15.9453125 C-6.53760132 12.0706164 -7.74965458 9.1933695 -6.9375 4.625 C-4.8524143 1.57756705 -3.61603624 0.76936941 0 0 Z " fill="#2E2D2D" transform="translate(84.9375,101.375)"/>
<path d="M0 0 C2 2 2 2 2.375 5.375 C2 9 2 9 0.5625 11.125 C-9.8253055 18.72583329 -9.8253055 18.72583329 -16 18 C-18.48855794 15.6459587 -19.75683066 13.86214586 -20.6875 10.5625 C-19.30534834 5.41084381 -14.2763615 2.8243168 -10 0.0625 C-6.23778478 -1.26995122 -3.84179509 -0.96044877 0 0 Z " fill="#2D2C2C" transform="translate(187,129)"/>
<path d="M0 0 C3.1875 0.3125 3.1875 0.3125 5.5625 1.9375 C7.78930202 5.1920568 7.91180832 6.40123507 7.1875 10.3125 C4.99583495 14.65573867 2.6408036 18.8591964 -0.8125 22.3125 C-6.76419082 22.8535628 -6.76419082 22.8535628 -9.75 21.3125 C-11.54949445 17.92521632 -11.69567012 14.95481539 -10.8125 11.3125 C-4.7023001 0.52247779 -4.7023001 0.52247779 0 0 Z " fill="#2C2B2C" transform="translate(155.8125,101.6875)"/>
<path d="M0 0 C6.0146422 0.12662405 11.87221132 4.37221132 16 8.5 C16.54587156 14.50458716 16.54587156 14.50458716 14.9375 17.4375 C11.67508806 19.22656461 9.69647394 19.02806771 6 18.5 C1.17399058 16.20258833 -3.00501595 13.99247607 -6 9.5 C-5.3964497 0.89940828 -5.3964497 0.89940828 0 0 Z " fill="#2C2B2B" transform="translate(173,194.5)"/>
<path d="M0 0 C2 1.5625 2 1.5625 3 4 C3.25 7.375 3.25 7.375 2 11 C-2.17758052 14.63408946 -6.86961891 17.84506319 -12.4375 18.25 C-16 18 -16 18 -17.9375 16.9375 C-19.7439244 13.64343197 -19.68708519 11.68527513 -19 8 C-13.75992273 2.54932861 -7.60728412 -0.82988554 0 0 Z " fill="#2C2B2B" transform="translate(71,195)"/>
<path d="M0 0 C1.69384766 1.27929688 1.69384766 1.27929688 3 3 C3.2981028 5.92257643 3.41882117 8.58345783 3.375 11.5 C3.38660156 12.27214844 3.39820312 13.04429687 3.41015625 13.83984375 C3.38073555 19.49842539 3.38073555 19.49842539 1.69384766 21.72070312 C-1.11451496 23.84174956 -3.61899107 23.36225096 -7 23 C-8.69384766 21.72070312 -8.69384766 21.72070312 -10 20 C-10.2981028 17.07742357 -10.41882117 14.41654217 -10.375 11.5 C-10.38660156 10.72785156 -10.39820312 9.95570313 -10.41015625 9.16015625 C-10.38073555 3.50157461 -10.38073555 3.50157461 -8.69384766 1.27929688 C-5.88548504 -0.84174956 -3.38100893 -0.36225096 0 0 Z " fill="#2A292A" transform="translate(124,226)"/>
<path d="M0 0 C6.3495494 -0.1021981 12.69888337 -0.17179699 19.04907227 -0.21972656 C21.20507737 -0.23972691 23.36102904 -0.26693624 25.5168457 -0.30175781 C28.63245912 -0.35078853 31.74734971 -0.37308514 34.86328125 -0.390625 C35.81270096 -0.41127014 36.76212067 -0.43191528 37.74031067 -0.45318604 C46.63938763 -0.45610806 55.19133563 1.81709664 62.125 7.625 C62.84945312 8.21539062 63.57390625 8.80578125 64.3203125 9.4140625 C66 11 66 11 67 13 C63.08377865 11.48404335 59.28204335 9.77127836 55.4765625 8 C48.60994064 5.22735773 42.61017155 4.67353345 35.25390625 4.5859375 C34.24279282 4.56657135 33.23167938 4.5472052 32.18992615 4.5272522 C28.98086818 4.4677801 25.77177372 4.42120084 22.5625 4.375 C20.37824012 4.33679043 18.19399483 4.29773698 16.00976562 4.2578125 C10.67330719 4.16210542 5.3367599 4.07696443 0 4 C0 2.68 0 1.36 0 0 Z " fill="#E6992C" transform="translate(301,113)"/>
<path d="M0 0 C4.36086099 2.40092347 7.90789397 5.35980769 11.625 8.625 C12.86374592 9.70018431 14.10333981 10.77439238 15.34375 11.84765625 C15.95734375 12.37891113 16.5709375 12.91016602 17.203125 13.45751953 C22.65994114 18.14178099 28.21737573 22.72298988 34 27 C33.505 28.485 33.505 28.485 33 30 C26.9032509 25.64517922 21.2889026 20.84289801 15.66552734 15.90405273 C11.12987399 11.93321874 6.4965121 8.18764641 1.66015625 4.5859375 C1.11230469 4.06257813 0.56445312 3.53921875 0 3 C0 2.01 0 1.02 0 0 Z " fill="#DF952D" transform="translate(215,360)"/>
<path d="M0 0 C4.81560774 4.81560774 4.26556486 13.94727914 4.32861328 20.39868164 C4.3232959 21.3602417 4.31797852 22.32180176 4.3125 23.3125 C4.30839111 24.82154907 4.30839111 24.82154907 4.30419922 26.36108398 C4.16569356 36.23876648 2.15591215 44.65575575 -1 54 C-2.61323505 49.96691237 -1.20687236 47.02290786 0 43 C0.79910839 37.68370945 1.16106966 32.50388878 1.125 27.125 C1.12306641 26.40900635 1.12113281 25.6930127 1.11914062 24.95532227 C1.05421451 16.62223638 0.54449703 8.3133028 0 0 Z " fill="#D8C3C7" transform="translate(200,147)"/>
</svg>
