<?xml version="1.0" encoding="UTF-8"?>
<svg version="1.1" xmlns="http://www.w3.org/2000/svg" width="512" height="512">
<path d="M0 0 C2 2 2 2 2.375 4.875 C2.28594277 9.58513817 0.45404157 13.78581816 -1.22265625 18.1328125 C-2.07134051 21.26313535 -1.96712535 22.93479396 -1 26 C-0.03886134 27.36161311 0.95884159 28.69855198 2 30 C3.49710296 34.49130889 3.83279047 38.10729438 1.8828125 42.5390625 C0.98210693 44.26414267 0.05352122 45.97503895 -0.90625 47.66796875 C-2.28308543 50.17428138 -2.28308543 50.17428138 -2 54 C-1.67 54.66 -1.34 55.32 -1 56 C-0.55927917 60.31397888 -0.57157016 63.97176839 -2.25 68 C-4.22115596 70.25274966 -5.1587122 70.43643878 -8 71 C-8.061875 72.27875 -8.12375 73.5575 -8.1875 74.875 C-9.25235631 84.39871488 -14.65092513 92.15663151 -21.6875 98.375 C-24 100 -24 100 -26 100 C-26.07592404 101.70677249 -26.08300005 103.41666263 -26.0625 105.125 C-26.07990234 106.55199219 -26.07990234 106.55199219 -26.09765625 108.0078125 C-24.59292058 112.1096898 -22.40104996 113.58351002 -18.72094727 115.81787109 C-13.85584419 117.93153903 -9.17034247 117.86751861 -3.9375 117.75 C-2.90044922 117.77320313 -1.86339844 117.79640625 -0.79492188 117.8203125 C5.6395426 117.77135018 9.44593947 116.80960645 14.27905273 112.48144531 C17.156314 110.00460869 19.18215545 109 23 109 C23.66 110.32 24.32 111.64 25 113 C25.95261719 112.10796875 26.90523438 111.2159375 27.88671875 110.296875 C29.15355924 109.11449055 30.42049116 107.93220405 31.6875 106.75 C32.31333984 106.16347656 32.93917969 105.57695312 33.58398438 104.97265625 C34.50727539 104.11220703 34.50727539 104.11220703 35.44921875 103.234375 C36.00955811 102.71069336 36.56989746 102.18701172 37.1472168 101.64746094 C39 100 39 100 41.62304688 98.5703125 C45.55356782 94.3200532 45.18498668 89.24351125 45.58203125 83.640625 C45.73788948 81.81310699 45.73788948 81.81310699 45.89689636 79.94866943 C46.22369409 76.05054066 46.51804923 72.15069156 46.8125 68.25 C47.02856062 65.63785143 47.24663647 63.02586872 47.46679688 60.4140625 C50.19626548 43.85408917 50.19626548 43.85408917 47.25 28.11328125 C46.8890625 27.48486328 46.528125 26.85644531 46.15625 26.20898438 C45.7746875 25.58314453 45.393125 24.95730469 45 24.3125 C40.33746518 16.52323153 40.33746518 16.52323153 41 12 C42.0625 10.125 42.0625 10.125 44 9 C47.5625 9.125 47.5625 9.125 51 10 C51.66 10.99 52.32 11.98 53 13 C53.01417969 12.443125 53.02835937 11.88625 53.04296875 11.3125 C53.49360122 4.10238052 55.72901774 -1.10284429 61.1875 -5.9375 C66.79640744 -8.05642059 71.94426421 -8.54819621 77.75 -7 C82.57256971 -4.0322648 86.19061458 -0.42815626 88 5 C88.25447029 10.25905262 87.89303597 15.00029108 87 20.1875 C85.08485796 31.84386798 86.03960271 43.36031156 87.34765625 55.03515625 C87.55484426 56.99337891 87.76201815 58.95160317 87.96839809 60.90991116 C88.47125921 65.65906003 88.99014641 70.40646623 89.51196289 75.15356445 C89.80682046 77.84118859 90.09522566 80.5293734 90.37730408 83.21836853 C90.64095564 85.72609155 90.91404194 88.23284852 91.19850159 90.73829651 C92.21572755 100.51344127 92.98968506 111.13949047 88.6875 120.25 C88.25050781 121.2296875 87.81351562 122.209375 87.36328125 123.21875 C86.49323785 124.99373826 85.57769649 126.74760733 84.60546875 128.46875 C83.40074671 130.70226641 82.45971454 132.50175331 82 135 C82.91482318 137.44811836 84.06402275 139.21666242 85.66796875 141.2734375 C89.43276461 146.15331952 88.49569617 153.19145767 88 159 C87.10636658 162.25162414 86.03714139 165.31524173 84.77734375 168.44140625 C83.69680551 171.9979517 84.3516606 173.76203872 86.03515625 176.9765625 C87.73980594 180.55149585 87.67421627 184.14161384 87 188 C85.28631391 191.07061968 83.19098548 193.40450726 80 195 C79.45667442 196.85183702 79.45667442 196.85183702 79.125 199.0625 C77.26383021 207.98765512 72.80690591 214.89026322 66 221 C63.24609375 222.2578125 63.24609375 222.2578125 61 223 C60.951276 224.54089652 60.96362861 226.08376243 61 227.625 C61 228.48351562 61 229.34203125 61 230.2265625 C62.33417166 233.92680421 64.03176092 235.55262163 67.25341797 237.76513672 C73.17875328 240.42916747 79.67406637 240.26261543 86.0625 240.25 C86.80233124 240.25524689 87.54216248 240.26049377 88.30441284 240.26589966 C96.54262758 240.25146059 103.75130759 239.96996637 110.26464844 234.33569336 C112.58381744 231.88708676 114.68581693 229.3426531 116.68945312 226.63085938 C118.4240769 224.4722739 120.49001872 223.16544263 122.8125 221.6875 C126.45206697 218.49894258 126.69478326 214.99640924 127.09765625 210.4140625 C127.17402313 209.66659256 127.25039001 208.91912262 127.32907104 208.14900208 C127.56774715 205.76718181 127.78545814 203.38410513 128 201 C128.14434418 199.47661842 128.28895299 197.95326189 128.43383789 196.42993164 C128.7888546 192.62030664 129.11678561 188.80890854 129.43261719 184.99584961 C129.62641394 182.67053451 129.82866934 180.3460488 130.03125 178.02148438 C130.40170003 173.68377398 130.72172417 169.34456371 131 165 C131.07516846 163.83984375 131.15033691 162.6796875 131.2277832 161.484375 C131.46030795 154.99191927 130.71841392 150.91449227 126.9375 145.625 C122.98162247 139.91022817 122.98162247 139.91022817 123.06640625 135.7109375 C124 133 124 133 127 131 C130.0625 131.1875 130.0625 131.1875 133 132 C133.66 132.99 134.32 133.98 135 135 C135.11214844 133.93072266 135.11214844 133.93072266 135.2265625 132.83984375 C136.1647332 126.00591406 137.54999835 121.43048633 143 117 C147.94803552 113.95505507 151.94693602 113.56783113 157.56640625 114.36328125 C162.67997097 115.70118021 165.7976366 118.40977743 168.9375 122.5625 C171.48356561 130.7997711 169.99166093 139.37798213 168.4375 147.69921875 C167.28836755 156.36901267 168.38911118 164.93982186 169.3125 173.58203125 C169.51605617 175.55462811 169.71960507 177.52722574 169.92274475 179.49986553 C170.42059033 184.31873055 170.92875487 189.13651809 171.43652344 193.9543457 C171.72231459 196.66923705 172.00474051 199.38444385 172.28393555 202.10002136 C172.5456333 204.64168951 172.81241305 207.18284153 173.08520508 209.7233429 C174.74272518 225.88520609 174.97399391 239.57577227 164.53515625 252.921875 C163.69855469 253.93765625 162.86195313 254.9534375 162 256 C160.89435276 257.35922983 159.78889808 258.71861631 158.68359375 260.078125 C155.68628688 263.74754531 152.66318992 267.39482148 149.63183594 271.03613281 C147.46989108 273.6379707 145.32718562 276.25482358 143.1875 278.875 C142.48367188 279.73609375 141.77984375 280.5971875 141.0546875 281.484375 C140.37664062 282.31453125 139.69859375 283.1446875 139 284 C133.68116099 290.51203864 128.34675152 297.01087146 123 303.5 C116.90163215 310.90245237 116.90163215 310.90245237 110.8125 318.3125 C110.13832031 319.13363281 109.46414063 319.95476562 108.76953125 320.80078125 C108.18558594 321.52652344 107.60164063 322.25226563 107 323 C106.47709381 323.53141602 105.95418762 324.06283203 105.41543579 324.61035156 C103.35068978 328.09621585 103.56867802 331.49518787 103.58349609 335.43359375 C103.57491074 336.28297012 103.56632538 337.1323465 103.55747986 338.00746155 C103.53237712 340.8175584 103.52803404 343.62730113 103.5234375 346.4375 C103.50911961 348.39844837 103.49336118 350.35938671 103.47622681 352.3203125 C103.43432491 357.49092599 103.40937557 362.66147742 103.38873291 367.83221436 C103.35298053 376.07925634 103.29144037 384.32614363 103.23024368 392.57302856 C103.21133405 395.43988024 103.19946949 398.30669119 103.18881226 401.17358398 C103.17858332 402.95947345 103.16822405 404.74536217 103.15771484 406.53125 C103.15667252 407.31403824 103.15563019 408.09682648 103.15455627 408.90333557 C103.10825368 415.35265046 102.54073637 421.51116358 102 428 C-22.74 428 -147.48 428 -276 428 C-276 320.90721649 -276 320.90721649 -264 308 C-254.42716984 299.7035472 -244.52944711 296.81144251 -231.9765625 296.90234375 C-231.23038666 296.9037587 -230.48421082 296.90517365 -229.71542358 296.90663147 C-227.35190682 296.91219126 -224.98848773 296.92473611 -222.625 296.9375 C-221.01432429 296.9425202 -219.40364709 296.9470822 -217.79296875 296.95117188 C-213.86194201 296.96214749 -209.93098752 296.97938404 -206 297 C-206 296.34 -206 295.68 -206 295 C-207.134375 295.04125 -208.26875 295.0825 -209.4375 295.125 C-214.25038647 295.125 -218.97345827 294.66384994 -223.75 294.125 C-224.48275146 294.04652832 -225.21550293 293.96805664 -225.97045898 293.88720703 C-233.55575757 292.98504048 -233.55575757 292.98504048 -237 291 C-238.44894551 286.88280767 -237.67832302 282.98037352 -237.125 278.75 C-234.68999966 258.58042158 -234.23274469 240.85272952 -240.0625 221.25 C-243.99838708 207.97935915 -247.14991725 193.13845958 -241 180 C-236.21138755 171.58923199 -228.55621994 165.1646143 -219.2578125 162.39453125 C-216.8537403 161.97444251 -214.80257886 162.06484568 -212.375 162.25 C-209.60454268 162.36005271 -208.44626636 162.34578254 -206.23046875 160.62890625 C-205.09903056 159.39677801 -203.98482442 158.14864438 -202.88671875 156.88671875 C-197.09028059 151.09028059 -188.98362014 148.9187329 -181 148.6875 C-169.29892246 148.84456144 -159.66158222 153.80266078 -150 160 C-152.16617438 156.75073843 -154.52754276 153.69350906 -156.9375 150.625 C-157.42114014 150.0072168 -157.90478027 149.38943359 -158.40307617 148.75292969 C-161.32008523 145.0521129 -164.31349975 141.43844817 -167.40087891 137.87890625 C-176.67788877 127.17392358 -182.40513656 118.00809998 -182.28125 103.64453125 C-182.27685913 102.73709671 -182.27246826 101.82966217 -182.26794434 100.89472961 C-182.10322645 89.42879751 -180.776319 78.07243683 -179.5 66.6875 C-176.59210436 41.22525185 -176.59210436 41.22525185 -178.54296875 15.76953125 C-179.61208062 9.2908961 -179.2552539 4.77545047 -176 -1 C-172.64379821 -5.14863832 -169.38066425 -7.30159342 -164.0625 -8.0625 C-157.50154295 -8.32174754 -153.06420989 -6.79496512 -148.125 -2.5 C-144.96818113 1.68783379 -144.60479147 6.92697303 -144 12 C-143.08927734 11.26910156 -143.08927734 11.26910156 -142.16015625 10.5234375 C-139.50381426 8.65006792 -138.18733284 8.5096411 -135 9 C-133.1875 10.125 -133.1875 10.125 -132 12 C-131.34660771 17.42937881 -132.98240795 19.87552964 -136.0625 24.25 C-139.41048654 29.56473697 -140.51264186 33.69181171 -139.8359375 40.01171875 C-139.70525012 41.6036059 -139.5754967 43.19556992 -139.4465332 44.78759766 C-139.37125397 45.63018127 -139.29597473 46.47276489 -139.21841431 47.34088135 C-138.9120841 51.07034569 -138.73010063 54.80338453 -138.53910828 58.54025269 C-138.32313881 62.5355747 -138.04695732 66.52571022 -137.76489258 70.5168457 C-137.62896421 72.56232982 -137.51039209 74.60903497 -137.40844727 76.65649414 C-137.15271705 88.53079726 -137.15271705 88.53079726 -132.79785156 99.23046875 C-130.31076609 101.47579284 -127.84851043 103.24774045 -125 105 C-123.96798809 105.88664971 -122.95442427 106.79615228 -121.9765625 107.7421875 C-121.20054687 108.44601563 -120.42453125 109.14984375 -119.625 109.875 C-118.83351562 110.59429687 -118.04203125 111.31359375 -117.2265625 112.0546875 C-116.12441406 113.01761719 -116.12441406 113.01761719 -115 114 C-114.4632666 114.524729 -113.9265332 115.04945801 -113.37353516 115.59008789 C-109.96342751 117.61573813 -106.65607782 117.4870335 -102.796875 117.50390625 C-102.00025452 117.51389145 -101.20363403 117.52387665 -100.38287354 117.53416443 C-98.69849833 117.5493311 -97.01403327 117.55639067 -95.32958984 117.5559082 C-92.77156945 117.56244488 -90.21748565 117.61686158 -87.66015625 117.67382812 C-76.54533847 118.02922471 -76.54533847 118.02922471 -67.18847656 112.7175293 C-65.31976947 110.01696348 -65 107.8775388 -65 104.625 C-64.979375 103.56539063 -64.95875 102.50578125 -64.9375 101.4140625 C-64.9684375 100.21910156 -64.9684375 100.21910156 -65 99 C-65.86625 98.63068359 -65.86625 98.63068359 -66.75 98.25390625 C-73.79532926 94.32760296 -78.69386527 86.57158685 -81 79 C-81.52574714 76.30386082 -81.80015906 73.74781297 -82 71 C-82.78375 70.731875 -83.5675 70.46375 -84.375 70.1875 C-87 69 -87 69 -89 66 C-89.30078125 63.6953125 -89.30078125 63.6953125 -89.3125 61.125 C-89.32925781 60.28195313 -89.34601563 59.43890625 -89.36328125 58.5703125 C-89 56 -89 56 -87.28125 53.61328125 C-86.8584375 52.75089844 -86.435625 51.88851562 -86 51 C-86.91618764 48.38013232 -87.81080817 46.41783463 -89.1875 44.0625 C-93.61422001 36.09785562 -96.34391904 29.22915828 -95 20 C-93.29133569 16.43439885 -90.88273857 14.46238687 -87.375 12.625 C-85 12 -85 12 -82 12 C-81.95875 11.175 -81.9175 10.35 -81.875 9.5 C-80.37639285 3.50557139 -77.46218658 -0.41216945 -72.25 -3.7734375 C-50.60792626 -15.09135871 -20.63580411 -12.69337687 0 0 Z M-138 174 C-137.566875 175.175625 -137.13375 176.35125 -136.6875 177.5625 C-128.38356009 203.10700085 -132.42449059 229.29467392 -136.34765625 255.30493164 C-137.23716317 261.4163207 -137.14660291 267.52707082 -137.125 273.6875 C-137.12886719 274.80189453 -137.13273437 275.91628906 -137.13671875 277.06445312 C-137.13478516 278.67803711 -137.13478516 278.67803711 -137.1328125 280.32421875 C-137.13168457 281.29447998 -137.13055664 282.26474121 -137.12939453 283.2644043 C-137.04936307 286.40130894 -137.04936307 286.40130894 -136 291 C-145.24 292.32 -154.48 293.64 -164 295 C-164 295.66 -164 296.32 -164 297 C-162.99735107 297.01458252 -161.99470215 297.02916504 -160.96166992 297.04418945 C-157.19098758 297.1027866 -153.42086475 297.1800068 -149.65063477 297.26245117 C-148.02833229 297.29541499 -146.40592297 297.32353272 -144.78344727 297.34643555 C-132.39100891 297.5260361 -122.48851557 299.04950306 -111 304 C-110.81435343 291.24769092 -110.67234723 278.49570511 -110.58550262 265.74231815 C-110.54381356 259.81983147 -110.4872987 253.89827164 -110.39648438 247.97631836 C-110.30933635 242.2574247 -110.26167863 236.53942047 -110.24098206 230.81991386 C-110.22623997 228.64178915 -110.1974508 226.46371123 -110.15415955 224.28596687 C-109.34315807 210.87527103 -109.34315807 210.87527103 -114.89672852 199.27270508 C-116.23235719 198.14269526 -117.59675096 197.04485323 -119 196 C-120.4939733 194.22066101 -121.97605556 192.43115161 -123.4375 190.625 C-124.17871094 189.71363281 -124.91992188 188.80226562 -125.68359375 187.86328125 C-126.87608635 186.38925583 -128.06842949 184.91510707 -129.25830078 183.43896484 C-130.50328507 181.89499388 -131.75159985 180.35371033 -133 178.8125 C-134.11375 177.42998047 -134.11375 177.42998047 -135.25 176.01953125 C-135.8275 175.35308594 -136.405 174.68664062 -137 174 C-137.33 174 -137.66 174 -138 174 Z M21 222 C21 225.63 21 229.26 21 233 C21.33 233 21.66 233 22 233 C22 229.37 22 225.74 22 222 C21.67 222 21.34 222 21 222 Z " fill="#2D77FB" transform="translate(307,47)"/>
<path d="M0 0 C4.04976131 2.64561574 6.45747957 5.31969494 7.91015625 10.01953125 C8.59885892 17.39531463 7.70168249 24.46906786 6.34765625 31.71875 C5.1985238 40.38854392 6.29926743 48.95935311 7.22265625 57.6015625 C7.42621242 59.57415936 7.62976132 61.54675699 7.832901 63.51939678 C8.33074658 68.3382618 8.83891112 73.15604934 9.34667969 77.97387695 C9.63247084 80.6887683 9.91489676 83.4039751 10.1940918 86.11955261 C10.45578955 88.66122076 10.7225693 91.20237278 10.99536133 93.74287415 C12.65288143 109.90473734 12.88415016 123.59530352 2.4453125 136.94140625 C1.60871094 137.9571875 0.77210938 138.97296875 -0.08984375 140.01953125 C-1.19549099 141.37876108 -2.30094567 142.73814756 -3.40625 144.09765625 C-6.40355687 147.76707656 -9.42665383 151.41435273 -12.45800781 155.05566406 C-14.61995267 157.65750195 -16.76265813 160.27435483 -18.90234375 162.89453125 C-19.60617187 163.755625 -20.31 164.61671875 -21.03515625 165.50390625 C-21.71320313 166.3340625 -22.39125 167.16421875 -23.08984375 168.01953125 C-28.40868276 174.53156989 -33.74309223 181.03040271 -39.08984375 187.51953125 C-45.1882116 194.92198362 -45.1882116 194.92198362 -51.27734375 202.33203125 C-51.95152344 203.15316406 -52.62570312 203.97429687 -53.3203125 204.8203125 C-53.90425781 205.54605469 -54.48820313 206.27179688 -55.08984375 207.01953125 C-55.61274994 207.55094727 -56.13565613 208.08236328 -56.67440796 208.62988281 C-58.73915397 212.1157471 -58.52116573 215.51471912 -58.50634766 219.453125 C-58.51922569 220.72718956 -58.51922569 220.72718956 -58.53236389 222.0269928 C-58.55746663 224.83708965 -58.56180971 227.64683238 -58.56640625 230.45703125 C-58.58072414 232.41797962 -58.59648257 234.37891796 -58.61361694 236.33984375 C-58.65551884 241.51045724 -58.68046818 246.68100867 -58.70111084 251.85174561 C-58.73686322 260.09878759 -58.79840338 268.34567488 -58.85960007 276.59255981 C-58.8785097 279.45941149 -58.89037426 282.32622244 -58.90103149 285.19311523 C-58.91126043 286.9790047 -58.9216197 288.76489342 -58.93212891 290.55078125 C-58.93317123 291.33356949 -58.93421356 292.11635773 -58.93528748 292.92286682 C-58.98159007 299.37218171 -59.54910738 305.53069483 -60.08984375 312.01953125 C-117.83984375 312.01953125 -175.58984375 312.01953125 -235.08984375 312.01953125 C-232.93018032 300.14138236 -232.93018032 300.14138236 -231.34591675 295.12963867 C-227.14744064 281.75733912 -225.74432071 267.87239925 -223.96484375 254.01953125 C-223.30033155 248.95639769 -222.62905777 243.89417221 -221.95703125 238.83203125 C-221.71730339 237.01214943 -221.71730339 237.01214943 -221.47273254 235.15550232 C-220.48569126 227.73381331 -219.37430133 220.34910884 -218.0974884 212.97218323 C-216.92068094 206.15700993 -216.02314729 199.31683056 -215.15234375 192.45703125 C-213.88248429 182.7061922 -212.52149321 172.97893943 -210.96484375 163.26953125 C-210.80636963 162.27751709 -210.64789551 161.28550293 -210.48461914 160.26342773 C-210.03617995 157.51229452 -209.57031798 154.76524181 -209.08984375 152.01953125 C-208.92991943 151.10526367 -208.76999512 150.19099609 -208.60522461 149.24902344 C-208.44159424 148.36891602 -208.27796387 147.48880859 -208.109375 146.58203125 C-207.96604736 145.80472656 -207.82271973 145.02742187 -207.67504883 144.2265625 C-205.88067328 137.45928885 -200.98522684 131.67315989 -195.08984375 128.01953125 C-189.29294284 125.50266841 -184.70691012 124.59680889 -178.42578125 124.6484375 C-176.79296652 124.63106801 -175.16015406 124.61348351 -173.52734375 124.59570312 C-170.98856572 124.58561689 -168.44993011 124.58204123 -165.91113281 124.58374023 C-163.43642838 124.58016131 -160.96279418 124.55280666 -158.48828125 124.5234375 C-157.73501556 124.53162003 -156.98174988 124.53980255 -156.20565796 124.54823303 C-150.98784633 124.47494524 -148.20371251 123.13409686 -144.08984375 120.01953125 C-143.42984375 120.01953125 -142.76984375 120.01953125 -142.08984375 120.01953125 C-140.53106776 115.34320328 -140.24791083 110.88631424 -141.08984375 106.01953125 C-142.59082493 103.85896397 -144.21295935 102.38692058 -146.2109375 100.68359375 C-151.93773822 95.61162471 -154.55648031 88.34975645 -156.08984375 81.01953125 C-156.08984375 79.69953125 -156.08984375 78.37953125 -156.08984375 77.01953125 C-156.68796875 76.95765625 -157.28609375 76.89578125 -157.90234375 76.83203125 C-160.08984375 76.01953125 -160.08984375 76.01953125 -161.83984375 73.95703125 C-163.55463154 69.92727994 -163.50683813 67.39797227 -163.08984375 63.01953125 C-161.71484375 60.51953125 -161.71484375 60.51953125 -160.08984375 59.01953125 C-159.42984375 59.01953125 -158.76984375 59.01953125 -158.08984375 59.01953125 C-157.84234375 59.98890625 -157.59484375 60.95828125 -157.33984375 61.95703125 C-156.92734375 62.96765625 -156.51484375 63.97828125 -156.08984375 65.01953125 C-154.05740827 65.98830182 -154.05740827 65.98830182 -152.08984375 66.01953125 C-151.94546875 64.78203125 -151.80109375 63.54453125 -151.65234375 62.26953125 C-151.41122707 60.20281684 -151.15876747 58.25864354 -150.58203125 56.2578125 C-149.68469314 52.17706061 -149.72523793 47.94295305 -149.57226562 43.77539062 C-149.38880065 40.04724387 -149.20580887 38.19347893 -147.08984375 35.01953125 C-145.61041348 35.30985786 -144.13131752 35.60188804 -142.65234375 35.89453125 C-141.72550781 36.075 -140.79867187 36.25546875 -139.84375 36.44140625 C-138.23656091 36.77880197 -136.63440783 37.14890652 -135.0546875 37.59765625 C-121.95838587 41.24275014 -108.98386066 39.38088452 -96.37109375 35.11328125 C-93.08984375 34.01953125 -93.08984375 34.01953125 -91.08984375 34.01953125 C-91.25484375 34.53515625 -91.41984375 35.05078125 -91.58984375 35.58203125 C-92.65981968 40.7981639 -92.43881002 44.63849708 -90.08984375 49.39453125 C-87.76549142 54.14963232 -87.75690726 57.7757815 -88.08984375 63.01953125 C-86.10984375 63.01953125 -84.12984375 63.01953125 -82.08984375 63.01953125 C-81.42984375 61.36953125 -80.76984375 59.71953125 -80.08984375 58.01953125 C-77.08984375 59.01953125 -77.08984375 59.01953125 -75.9296875 60.80859375 C-74.50583314 64.55697314 -74.40166358 68.08123283 -75.08984375 72.01953125 C-76.80352984 75.09015093 -78.89885827 77.42403851 -82.08984375 79.01953125 C-82.63316933 80.87136827 -82.63316933 80.87136827 -82.96484375 83.08203125 C-84.82601354 92.00718637 -89.28293784 98.90979447 -96.08984375 105.01953125 C-98.84375 106.27734375 -98.84375 106.27734375 -101.08984375 107.01953125 C-101.13856775 108.56042777 -101.12621514 110.10329368 -101.08984375 111.64453125 C-101.08984375 112.50304687 -101.08984375 113.3615625 -101.08984375 114.24609375 C-99.75567209 117.94633546 -98.05808283 119.57215288 -94.83642578 121.78466797 C-88.91109047 124.44869872 -82.41577738 124.28214668 -76.02734375 124.26953125 C-74.91759689 124.27740158 -74.91759689 124.27740158 -73.78543091 124.28543091 C-65.54721617 124.27099184 -58.33853616 123.98949762 -51.82519531 118.35522461 C-49.50602631 115.90661801 -47.40402682 113.36218435 -45.40039062 110.65039062 C-43.66576685 108.49180515 -41.59982503 107.18497388 -39.27734375 105.70703125 C-35.63777678 102.51847383 -35.39506049 99.01594049 -34.9921875 94.43359375 C-34.91582062 93.68612381 -34.83945374 92.93865387 -34.76077271 92.16853333 C-34.5220966 89.78671306 -34.30438561 87.40363638 -34.08984375 85.01953125 C-33.94549957 83.49614967 -33.80089076 81.97279314 -33.65600586 80.44946289 C-33.30098915 76.63983789 -32.97305814 72.82843979 -32.65722656 69.01538086 C-32.46342981 66.69006576 -32.26117441 64.36558005 -32.05859375 62.04101562 C-31.68814372 57.70330523 -31.36811958 53.36409496 -31.08984375 49.01953125 C-30.97709106 47.27929688 -30.97709106 47.27929688 -30.86206055 45.50390625 C-30.6295358 39.01145052 -31.37142983 34.93402352 -35.15234375 29.64453125 C-39.10822128 23.92975942 -39.10822128 23.92975942 -39.0234375 19.73046875 C-38.08984375 17.01953125 -38.08984375 17.01953125 -35.08984375 15.01953125 C-32.02734375 15.20703125 -32.02734375 15.20703125 -29.08984375 16.01953125 C-28.09984375 17.50453125 -28.09984375 17.50453125 -27.08984375 19.01953125 C-27.01507813 18.30667969 -26.9403125 17.59382813 -26.86328125 16.859375 C-25.92511055 10.02544531 -24.5398454 5.45001758 -19.08984375 1.01953125 C-13.01267916 -2.72026235 -6.4837835 -3.0419246 0 0 Z " fill="#03C78B" transform="translate(469.08984375,162.98046875)"/>
<path d="M0 0 C46.58912678 17.91676804 46.58912678 17.91676804 55.59375 37.625 C60.50649351 49.41558442 60.50649351 49.41558442 60 56 C60.66 56 61.32 56 62 56 C64.40656211 48.74822618 65.89644911 41.55607786 67 34 C70.76806585 34.70047378 72.62670584 36.11677881 75.015625 39.19140625 C76.78015361 42.43337746 76.65449892 45.43582653 76 49 C74.43348822 53.15125622 72.87278868 55.75128399 69 58 C68.34 58 67.68 58 67 58 C66.9175 59.27875 66.835 60.5575 66.75 61.875 C65.6610835 71.26322601 61.63139679 79.27729309 55 86 C54.27159912 86.4643042 53.54319824 86.9286084 52.79272461 87.40698242 C47.82136746 90.61800815 47.82136746 90.61800815 45.1784668 95.71704102 C44.89233613 98.82349412 44.85427486 101.81946062 44.9375 104.9375 C44.93041016 106.00291016 44.92332031 107.06832031 44.91601562 108.16601562 C44.90429334 110.78008614 44.93334218 113.38694965 45 116 C46.00264893 115.98428955 47.00529785 115.9685791 48.03833008 115.95239258 C51.80859128 115.89751205 55.57881825 115.86344183 59.34936523 115.83520508 C60.97182175 115.82024934 62.59423877 115.79987723 64.21655273 115.77368164 C79.82920241 115.52815431 91.76696571 117.13334506 103.625 128.0625 C112.51808149 137.24791462 115.16337905 147.13024962 115.11352539 159.47192383 C115.11364593 160.43400851 115.11376646 161.3960932 115.11389065 162.38733196 C115.11314574 165.49392211 115.10553669 168.60045187 115.09765625 171.70703125 C115.09618553 173.62805146 115.09516562 175.54907208 115.09460449 177.47009277 C115.08936674 184.58423464 115.07540551 191.69836791 115.0625 198.8125 C115.041875 214.714375 115.02125 230.61625 115 247 C54.94 247 -5.12 247 -67 247 C-67.0825 231.428125 -67.165 215.85625 -67.25 199.8125 C-67.28641602 194.91897705 -67.32283203 190.0254541 -67.36035156 184.98364258 C-67.37841797 178.9486084 -67.37841797 178.9486084 -67.3817749 176.11186218 C-67.38786567 174.15572964 -67.40182547 172.1996109 -67.42230225 170.24357605 C-67.58636793 153.72716316 -66.85367213 139.74982604 -55 127 C-45.42716984 118.7035472 -35.52944711 115.81144251 -22.9765625 115.90234375 C-22.23038666 115.9037587 -21.48421082 115.90517365 -20.71542358 115.90663147 C-18.35190682 115.91219126 -15.98848773 115.92473611 -13.625 115.9375 C-12.01432429 115.9425202 -10.40364709 115.9470822 -8.79296875 115.95117188 C-4.86194201 115.96214749 -0.93098752 115.97938404 3 116 C3 115.34 3 114.68 3 114 C1.865625 114.04125 0.73125 114.0825 -0.4375 114.125 C-5.25038647 114.125 -9.97345827 113.66384994 -14.75 113.125 C-15.48275146 113.04652832 -16.21550293 112.96805664 -16.97045898 112.88720703 C-24.55575757 111.98504048 -24.55575757 111.98504048 -28 110 C-29.44894551 105.88280767 -28.67832302 101.98037352 -28.125 97.75 C-25.35619087 75.52158652 -25.35619087 75.52158652 -27.5390625 53.4140625 C-28.58999161 47.91004394 -28.81046175 43.6509406 -26.3125 38.5625 C-24 36 -24 36 -19 34 C-18.505 41.425 -18.505 41.425 -18 49 C-10.68669983 33.02484786 -5.12534969 16.77869926 0 0 Z " fill="#FE8E2E" transform="translate(98,228)"/>
<path d="M0 0 C2 2 2 2 2.375 4.875 C2.28594277 9.58513817 0.45404157 13.78581816 -1.22265625 18.1328125 C-2.07134051 21.26313535 -1.96712535 22.93479396 -1 26 C-0.03886134 27.36161311 0.95884159 28.69855198 2 30 C3.49710296 34.49130889 3.83279047 38.10729438 1.8828125 42.5390625 C0.98210693 44.26414267 0.05352122 45.97503895 -0.90625 47.66796875 C-2.28308543 50.17428138 -2.28308543 50.17428138 -2 54 C-1.67 54.66 -1.34 55.32 -1 56 C-0.55927917 60.31397888 -0.57157016 63.97176839 -2.25 68 C-4.22115596 70.25274966 -5.1587122 70.43643878 -8 71 C-8.0928125 72.918125 -8.0928125 72.918125 -8.1875 74.875 C-9.25235631 84.39871488 -14.65092513 92.15663151 -21.6875 98.375 C-24 100 -24 100 -26 100 C-26.32820008 106.97312404 -26.32820008 106.97312404 -23.3515625 113.03125 C-17.37520641 117.43260972 -11.26217205 117.97542412 -4 118 C-5.56190401 122.48087215 -7.96155896 126.25598824 -10.5625 130.1875 C-11.26910767 131.26717041 -11.26910767 131.26717041 -11.98999023 132.36865234 C-13.05534658 133.99579726 -14.1226087 135.62169541 -15.19140625 137.24658203 C-17.55143656 140.83951155 -19.89818711 144.44104423 -22.24555969 148.04225159 C-24.80678687 151.97006379 -27.37648565 155.89221368 -29.94921875 159.8125 C-32.38808069 163.5295094 -34.81102996 167.25523583 -37.20703125 171 C-38.09634647 172.37500498 -38.98566866 173.75000545 -39.875 175.125 C-40.45423218 176.04756592 -40.45423218 176.04756592 -41.04516602 176.98876953 C-42.1171875 178.6328125 -42.1171875 178.6328125 -44 181 C-44.99 181 -45.98 181 -47 181 C-48.64923315 178.8861508 -50.0761579 176.82272683 -51.5 174.5625 C-52.15802612 173.54639648 -52.15802612 173.54639648 -52.8293457 172.50976562 C-53.76137914 171.06819416 -54.68874767 169.62359767 -55.61181641 168.17626953 C-56.92322432 166.12036202 -58.24593708 164.07237901 -59.57421875 162.02734375 C-61.36123079 159.27498854 -63.14333675 156.51955704 -64.921875 153.76171875 C-68.57659091 148.10080226 -72.2567019 142.45647956 -75.9375 136.8125 C-76.57647217 135.83216797 -77.21544434 134.85183594 -77.8737793 133.84179688 C-78.48133057 132.91044922 -79.08888184 131.97910156 -79.71484375 131.01953125 C-80.28444824 130.14506348 -80.85405273 129.2705957 -81.44091797 128.36962891 C-82.75102818 126.37840909 -84.08898429 124.41168449 -85.44140625 122.44921875 C-87 120 -87 120 -87 118 C-85.7315625 117.99613281 -85.7315625 117.99613281 -84.4375 117.9921875 C-77.91848856 117.76994847 -72.48764941 117.45582628 -67.390625 113.09765625 C-64.59795782 108.88512177 -64.87296496 103.90672854 -65 99 C-65.5775 98.75378906 -66.155 98.50757813 -66.75 98.25390625 C-73.79532926 94.32760296 -78.69386527 86.57158685 -81 79 C-81.52574714 76.30386082 -81.80015906 73.74781297 -82 71 C-82.78375 70.731875 -83.5675 70.46375 -84.375 70.1875 C-87 69 -87 69 -89 66 C-89.30078125 63.6953125 -89.30078125 63.6953125 -89.3125 61.125 C-89.32925781 60.28195313 -89.34601563 59.43890625 -89.36328125 58.5703125 C-89 56 -89 56 -87.28125 53.61328125 C-86.8584375 52.75089844 -86.435625 51.88851562 -86 51 C-86.91618764 48.38013232 -87.81080817 46.41783463 -89.1875 44.0625 C-93.61422001 36.09785562 -96.34391904 29.22915828 -95 20 C-93.29133569 16.43439885 -90.88273857 14.46238687 -87.375 12.625 C-85 12 -85 12 -82 12 C-81.95875 11.175 -81.9175 10.35 -81.875 9.5 C-80.37639285 3.50557139 -77.46218658 -0.41216945 -72.25 -3.7734375 C-50.60792626 -15.09135871 -20.63580411 -12.69337687 0 0 Z " fill="#F7B19B" transform="translate(307,47)"/>
<path d="M0 0 C46.58912678 17.91676804 46.58912678 17.91676804 55.59375 37.625 C60.50649351 49.41558442 60.50649351 49.41558442 60 56 C60.66 56 61.32 56 62 56 C64.40656211 48.74822618 65.89644911 41.55607786 67 34 C70.76806585 34.70047378 72.62670584 36.11677881 75.015625 39.19140625 C76.78015361 42.43337746 76.65449892 45.43582653 76 49 C74.43348822 53.15125622 72.87278868 55.75128399 69 58 C68.34 58 67.68 58 67 58 C66.9175 59.27875 66.835 60.5575 66.75 61.875 C65.6610835 71.26322601 61.63139679 79.27729309 55 86 C54.27159912 86.4643042 53.54319824 86.9286084 52.79272461 87.40698242 C47.82136746 90.61800815 47.82136746 90.61800815 45.1784668 95.71704102 C44.89233613 98.82349412 44.85427486 101.81946062 44.9375 104.9375 C44.93041016 106.00291016 44.92332031 107.06832031 44.91601562 108.16601562 C44.90430508 110.77746755 44.94671562 113.38906548 45 116 C51.93 116 58.86 116 66 116 C64.29457599 127.93796807 61.38592197 140.37263088 51.375 148 C45.38031436 149.77620315 39.13408561 150.51829036 33.36328125 147.72265625 C31.85269089 146.70144723 30.3723959 145.63290133 28.9375 144.5078125 C27.03585867 143.02790614 25.18327383 142.00391609 23 141 C22.55269531 141.40992188 22.10539062 141.81984375 21.64453125 142.2421875 C21.03996094 142.78101563 20.43539062 143.31984375 19.8125 143.875 C19.22082031 144.40867187 18.62914062 144.94234375 18.01953125 145.4921875 C12.51077985 149.60510441 6.6327787 149.76306304 0 149 C-6.8324654 145.9060534 -10.72017021 140.13407137 -13.48828125 133.35546875 C-15.62797122 127.37421347 -17 122.44417585 -17 116 C-10.4 116 -3.8 116 3 116 C3 115.34 3 114.68 3 114 C1.865625 114.04125 0.73125 114.0825 -0.4375 114.125 C-5.25038647 114.125 -9.97345827 113.66384994 -14.75 113.125 C-15.48275146 113.04652832 -16.21550293 112.96805664 -16.97045898 112.88720703 C-24.55575757 111.98504048 -24.55575757 111.98504048 -28 110 C-29.44894551 105.88280767 -28.67832302 101.98037352 -28.125 97.75 C-25.35619087 75.52158652 -25.35619087 75.52158652 -27.5390625 53.4140625 C-28.58999161 47.91004394 -28.81046175 43.6509406 -26.3125 38.5625 C-24 36 -24 36 -19 34 C-18.67 38.95 -18.34 43.9 -18 49 C-10.68669983 33.02484786 -5.12534969 16.77869926 0 0 Z " fill="#F7B09B" transform="translate(98,228)"/>
<path d="M0 0 C10.78440004 8.44581719 16.38097503 20.48574112 18.5625 33.8203125 C20.94467948 54.1762314 17.84201117 75.07926524 14.65014648 95.20605469 C13.57531079 102.24446408 13.89330872 109.39937786 13.9375 116.5 C13.94252467 117.90885258 13.94708587 119.31770689 13.95117188 120.7265625 C13.9628997 124.15108638 13.97931309 127.57552047 14 131 C7.06265712 132.89220193 0.44592798 134.44250245 -6.75 134.6875 C-7.45898438 134.72166016 -8.16796875 134.75582031 -8.8984375 134.79101562 C-10.5984841 134.87142323 -12.29920431 134.93740727 -14 135 C-15.64399933 116.34440142 -15.64399933 116.34440142 -12.01953125 111.17578125 C-9.4375 109.3125 -9.4375 109.3125 -6.67578125 107.66015625 C1.48135764 102.59915767 4.67258957 92.84666221 7 84 C7.13792969 83.09894531 7.27585937 82.19789063 7.41796875 81.26953125 C8.31757587 77.76166724 11.05846704 76.92100111 14 75 C16.4059446 71.06299974 16.88105306 66.51099169 16 62 C14.02607004 58.47729422 11.89952392 56.29984131 8 55 C8.103125 56.216875 8.20625 57.43375 8.3125 58.6875 C8.36532413 65.30108102 5.58558579 71.02544999 3 77 C2.34 77 1.68 77 1 77 C0.85304688 76.29617188 0.70609375 75.59234375 0.5546875 74.8671875 C-2.57479111 61.09028741 -7.02018203 48.05745826 -19.1328125 39.88671875 C-26.43377792 35.42871763 -34.18924662 32.02563714 -42.09536743 28.78739929 C-45.22215468 27.49474574 -48.32960513 26.15761171 -51.4375 24.8203125 C-52.39172852 24.41051147 -52.39172852 24.41051147 -53.36523438 23.99243164 C-54.91036756 23.32877951 -56.4552146 22.66446126 -58 22 C-58.32685791 22.98170166 -58.65371582 23.96340332 -58.99047852 24.97485352 C-60.2321591 28.69616088 -61.48569211 32.41339279 -62.74243164 36.12963867 C-63.2797374 37.72364043 -63.81403065 39.31866155 -64.3449707 40.91479492 C-67.91486085 51.63797489 -71.9799152 61.87060532 -77 72 C-77.33 72 -77.66 72 -78 72 C-78 66.39 -78 60.78 -78 55 C-83.71126565 58.32769818 -83.71126565 58.32769818 -85.875 63.25 C-86.431875 65.10625 -86.431875 65.10625 -87 67 C-89.67428959 64.32571041 -90.05430885 61.88408823 -91.0625 58.25 C-91.40410156 57.03828125 -91.74570313 55.8265625 -92.09765625 54.578125 C-95.1220618 42.58524412 -96.08792819 28.93648925 -89.78125 17.859375 C-84.74639593 10.53086519 -77.81409017 4.94352686 -69.2578125 2.39453125 C-66.8537403 1.97444251 -64.80257886 2.06484568 -62.375 2.25 C-59.60454268 2.36005271 -58.44626636 2.34578254 -56.23046875 0.62890625 C-55.09903056 -0.60322199 -53.98482442 -1.85135562 -52.88671875 -3.11328125 C-38.1208548 -17.8791452 -14.75046078 -10.38531741 0 0 Z " fill="#15144F" transform="translate(157,207)"/>
<path d="M0 0 C-0.165 0.515625 -0.33 1.03125 -0.5 1.5625 C-1.56997593 6.77863265 -1.34896627 10.61896583 1 15.375 C3.32435233 20.13010107 3.33293649 23.75625025 3 29 C4.98 29 6.96 29 9 29 C9.99 26.525 9.99 26.525 11 24 C14 25 14 25 15.16015625 26.7890625 C16.58401061 30.53744189 16.68818017 34.06170158 16 38 C14.28631391 41.07061968 12.19098548 43.40450726 9 45 C8.45667442 46.85183702 8.45667442 46.85183702 8.125 49.0625 C6.26383021 57.98765512 1.80690591 64.89026322 -5 71 C-7.75390625 72.2578125 -7.75390625 72.2578125 -10 73 C-9.84917969 73.58265625 -9.69835937 74.1653125 -9.54296875 74.765625 C-9.09313898 77.90949022 -9.13467683 79.91528314 -10 83 C-13.13720038 87.16499233 -17.32464411 90.47061109 -21.38427734 93.70214844 C-22.85883374 94.88660625 -24.27147174 96.14710881 -25.67578125 97.4140625 C-28 99 -28 99 -29.9765625 99.046875 C-33.44634472 97.2516981 -36.03097612 94.52845628 -38.84130859 91.85522461 C-41.32822249 89.50637991 -43.76420535 87.43034894 -46.625 85.5625 C-49.88069889 82.04977225 -49.37527388 79.34658946 -49.54296875 74.70703125 C-50.21218253 70.74322656 -52.2059312 69.21536277 -55.15625 66.6640625 C-60.83514824 61.53861621 -63.4645501 54.34019954 -65 47 C-65 45.68 -65 44.36 -65 43 C-65.8971875 42.9071875 -65.8971875 42.9071875 -66.8125 42.8125 C-69 42 -69 42 -70.75 39.9375 C-72.46478779 35.90774869 -72.41699438 33.37844102 -72 29 C-70.625 26.5 -70.625 26.5 -69 25 C-68.34 25 -67.68 25 -67 25 C-66.7525 25.969375 -66.505 26.93875 -66.25 27.9375 C-65.8375 28.948125 -65.425 29.95875 -65 31 C-62.96756452 31.96877057 -62.96756452 31.96877057 -61 32 C-60.855625 30.7625 -60.71125 29.525 -60.5625 28.25 C-60.32138332 26.18328559 -60.06892372 24.23911229 -59.4921875 22.23828125 C-58.59484939 18.15752936 -58.63539418 13.9234218 -58.48242188 9.75585938 C-58.2989569 6.02771262 -58.11596512 4.17394768 -56 1 C-54.52056973 1.29032661 -53.04147377 1.58235679 -51.5625 1.875 C-50.63566406 2.05546875 -49.70882813 2.2359375 -48.75390625 2.421875 C-47.14671716 2.75927072 -45.54456408 3.12937527 -43.96484375 3.578125 C-30.86854212 7.22321889 -17.89401691 5.36135327 -5.28125 1.09375 C-2 0 -2 0 0 0 Z " fill="#F7B19B" transform="translate(378,197)"/>
<path d="M0 0 C4.29908158 3.60871811 7.27815835 6.64212063 7.8125 12.3984375 C7.97829511 16.95780298 7.40625174 21.24452106 6.640625 25.734375 C4.72658654 37.39122359 5.68017894 48.90675127 6.98828125 60.58203125 C7.19546926 62.54025391 7.40264315 64.49847817 7.60902309 66.45678616 C8.11188421 71.20593503 8.63077141 75.95334123 9.15258789 80.70043945 C9.44744546 83.38806359 9.73585066 86.0762484 10.01792908 88.76524353 C10.28158064 91.27296655 10.55466694 93.77972352 10.83912659 96.28517151 C11.88737238 106.35840473 12.48656023 116.89111217 8.203125 126.296875 C7.77128906 127.28171875 7.33945312 128.2665625 6.89453125 129.28125 C5.640625 131.546875 5.640625 131.546875 3.640625 132.546875 C3.16625 131.7425 2.691875 130.938125 2.203125 130.109375 C0.87162346 127.69934012 0.87162346 127.69934012 -0.359375 126.546875 C-1.98189992 126.44801147 -3.60884773 126.41716333 -5.234375 126.421875 C-6.11867188 126.41929687 -7.00296875 126.41671875 -7.9140625 126.4140625 C-10.49843791 126.44638915 -10.49843791 126.44638915 -13.359375 127.546875 C-13.46894531 126.85980469 -13.57851563 126.17273438 -13.69140625 125.46484375 C-13.84996094 124.56378906 -14.00851562 123.66273438 -14.171875 122.734375 C-14.32269531 121.84105469 -14.47351563 120.94773437 -14.62890625 120.02734375 C-15.42410947 117.32705475 -16.18627655 116.28206948 -18.359375 114.546875 C-23.72717847 111.86297327 -32.7186064 112.74074564 -38.328125 114.453125 C-43.79767408 117.08661159 -50.55535231 120.93882962 -53.359375 126.546875 C-54.019375 126.546875 -54.679375 126.546875 -55.359375 126.546875 C-56.3046875 123.49609375 -56.3046875 123.49609375 -56.359375 119.546875 C-54.40690642 116.67952228 -51.87473714 114.58475375 -49.234375 112.359375 C-48.55632812 111.75673828 -47.87828125 111.15410156 -47.1796875 110.53320312 C-41.80302616 105.78694491 -41.80302616 105.78694491 -38.72045898 104.11889648 C-34.81203922 99.86130138 -35.17384079 94.78265975 -34.77734375 89.1875 C-34.62148552 87.35998199 -34.62148552 87.35998199 -34.46247864 85.49554443 C-34.13568091 81.59741566 -33.84132577 77.69756656 -33.546875 73.796875 C-33.33081438 71.18472643 -33.11273853 68.57274372 -32.89257812 65.9609375 C-30.16310952 49.40096417 -30.16310952 49.40096417 -33.109375 33.66015625 C-33.4703125 33.03173828 -33.83125 32.40332031 -34.203125 31.75585938 C-34.5846875 31.13001953 -34.96625 30.50417969 -35.359375 29.859375 C-40.02190982 22.07010653 -40.02190982 22.07010653 -39.359375 17.546875 C-38.296875 15.671875 -38.296875 15.671875 -36.359375 14.546875 C-32.796875 14.671875 -32.796875 14.671875 -29.359375 15.546875 C-28.699375 16.536875 -28.039375 17.526875 -27.359375 18.546875 C-27.33810547 17.7115625 -27.33810547 17.7115625 -27.31640625 16.859375 C-26.93025743 10.68099388 -25.3644564 6.31482905 -21.359375 1.546875 C-15.17072254 -3.13235003 -6.78209596 -4.17705248 0 0 Z " fill="#2D76FB" transform="translate(387.359375,41.453125)"/>
<path d="M0 0 C19.8 0 39.6 0 60 0 C58.87354349 15.77039111 58.87354349 15.77039111 58.16796875 21.05078125 C57.93315796 22.81917358 57.93315796 22.81917358 57.69360352 24.62329102 C57.52658936 25.84072998 57.3595752 27.05816895 57.1875 28.3125 C57.00902461 29.63403204 56.83055799 30.95556527 56.65209961 32.27709961 C55.43348512 41.22046304 54.05614918 50.13275239 52.56445312 59.03466797 C51.53373384 65.29895325 50.65607842 71.56704741 49.8828125 77.8671875 C47.45223393 97.49729927 44.28062672 116.15811984 38 135 C31.07 135 24.14 135 17 135 C16.97812622 130.67092529 16.97812622 130.67092529 16.95581055 126.25439453 C16.90536475 116.69496753 16.83875205 107.13570171 16.76428509 97.57643318 C16.7196497 91.78339161 16.68037845 85.99041927 16.65356445 80.19726562 C16.62746346 74.60150829 16.58701284 69.0060183 16.53681374 63.41042709 C16.52019096 61.28075371 16.50864822 59.15103413 16.50238609 57.02130508 C16.49269505 54.0271051 16.464576 51.03358209 16.43237305 48.03955078 C16.43452568 46.73294746 16.43452568 46.73294746 16.4367218 45.39994812 C16.31926202 37.62510092 14.77924164 29.78829775 10.25 23.3125 C9.73695313 22.57257813 9.22390625 21.83265625 8.6953125 21.0703125 C6.99091896 18.98891025 5.18214706 17.41150583 3.125 15.6875 C0 12 0 12 0 0 Z " fill="#29285C" transform="translate(196,340)"/>
<path d="M0 0 C2 2 2 2 2.375 4.875 C2.28594277 9.58513817 0.45404157 13.78581816 -1.22265625 18.1328125 C-2.07134051 21.26313535 -1.96712535 22.93479396 -1 26 C-0.03886134 27.36161311 0.95884159 28.69855198 2 30 C4.30605213 36.91815638 2.59021656 41.60366848 -0.515625 47.86328125 C-2 50 -2 50 -4.09375 51.03515625 C-6.17492123 51.83149639 -6.17492123 51.83149639 -6.828125 53.9453125 C-6.96734375 54.66460937 -7.1065625 55.38390625 -7.25 56.125 C-7.62125 58.043125 -7.62125 58.043125 -8 60 C-9.32 60 -10.64 60 -12 60 C-14.59467813 53.21140816 -15.417351 46.82298103 -15.62084961 39.62304688 C-15.76136755 35.66715077 -16.27771745 32.57598426 -18 29 C-18.89976562 29.28875 -19.79953125 29.5775 -20.7265625 29.875 C-38.09752605 35.0407696 -56.15425982 34.90645319 -73 28 C-72.67 28.66 -72.34 29.32 -72 30 C-71.46938338 36.81638278 -71.52821472 41.99114086 -75 48 C-75.81345322 50.97280178 -76.428095 53.97226765 -77 57 C-79.25 57.35546875 -79.25 57.35546875 -82 57 C-89.7658249 48.01341096 -96.09685418 34.31084199 -95.48828125 22.3828125 C-94.66018369 18.34169639 -93.11467535 16.6993853 -90 14 C-87.00313201 12.43021201 -85.38755275 12 -82 12 C-81.95875 11.175 -81.9175 10.35 -81.875 9.5 C-80.37639285 3.50557139 -77.46218658 -0.41216945 -72.25 -3.7734375 C-50.60792626 -15.09135871 -20.63580411 -12.69337687 0 0 Z " fill="#15144F" transform="translate(307,47)"/>
<path d="M0 0 C3.60647206 2.70152704 4.00693455 4.92441981 4.7421875 9.3359375 C4.8659375 10.4084375 4.9896875 11.4809375 5.1171875 12.5859375 C5.7771875 12.2559375 6.4371875 11.9259375 7.1171875 11.5859375 C11.68544802 11.10046034 15.72564574 10.75763884 19.7421875 13.1484375 C21.62880194 16.49289037 21.5227012 18.80114293 21.1171875 22.5859375 C20.73175781 23.23433594 20.34632813 23.88273437 19.94921875 24.55078125 C19.53736328 25.55818359 19.53736328 25.55818359 19.1171875 26.5859375 C19.92839738 28.70371948 19.92839738 28.70371948 21.4296875 30.6484375 C25.87428294 36.99264085 25.83375186 42.99507991 25.1171875 50.5859375 C23.57306369 57.47796116 21.32125318 64.86969513 17.1171875 70.5859375 C13.9296875 70.8984375 13.9296875 70.8984375 11.1171875 70.5859375 C11.0346875 69.2865625 10.9521875 67.9871875 10.8671875 66.6484375 C10.48486625 63.01353251 9.65303397 60.24234844 8.0546875 56.9609375 C6.15254451 52.9975632 5.59363095 50.03616817 6.1171875 45.5859375 C6.74614196 44.23440559 7.40654558 42.8963612 8.1171875 41.5859375 C7.0653125 41.98425781 7.0653125 41.98425781 5.9921875 42.390625 C5.0434375 42.74382812 4.0946875 43.09703125 3.1171875 43.4609375 C2.1890625 43.80898437 1.2609375 44.15703125 0.3046875 44.515625 C-6.31627714 46.73884107 -12.38387593 47.97332363 -19.3828125 47.9609375 C-20.15310791 47.96222656 -20.92340332 47.96351563 -21.71704102 47.96484375 C-28.69331235 47.8393379 -35.05213804 46.40766098 -41.72265625 44.4609375 C-44.81817278 43.45251498 -44.81817278 43.45251498 -47.8828125 43.5859375 C-49.37298696 46.56628641 -49.12826629 49.6856468 -49.2578125 52.9609375 C-49.60685075 60.11338712 -50.81219861 66.70993666 -52.8828125 73.5859375 C-55.14453125 73.62109375 -55.14453125 73.62109375 -57.8828125 72.5859375 C-59.65286237 69.92641533 -60.64815602 67.02835912 -61.6953125 64.0234375 C-61.99791992 63.17096436 -62.30052734 62.31849121 -62.61230469 61.44018555 C-65.31269068 53.26688564 -67.57305653 43.38469671 -63.77734375 35.203125 C-62.90447613 33.93861883 -61.99342872 32.69945698 -61.04296875 31.4921875 C-59.53944804 29.02175617 -59.50798677 27.1484079 -59.3828125 24.2734375 C-58.98752404 17.15824517 -57.09763662 10.55033148 -51.7265625 5.59765625 C-47.83410349 2.87942238 -44.59638134 1.3328058 -39.8828125 0.5859375 C-38.59037714 4.7055752 -37.62028625 8.25425433 -37.8828125 12.5859375 C-37.2228125 12.5859375 -36.5628125 12.5859375 -35.8828125 12.5859375 C-35.63917969 11.99941406 -35.39554687 11.41289062 -35.14453125 10.80859375 C-32.25855361 5.72462694 -25.51648898 1.07567079 -20.1015625 -0.98046875 C-13.79226875 -2.21344693 -5.82129648 -2.85543269 0 0 Z " fill="#161550" transform="translate(369.8828125,155.4140625)"/>
<path d="M0 0 C27.39 0 54.78 0 83 0 C81.29457599 11.93796807 78.38592197 24.37263088 68.375 32 C62.38031436 33.77620315 56.13408561 34.51829036 50.36328125 31.72265625 C48.85269089 30.70144723 47.3723959 29.63290133 45.9375 28.5078125 C44.03585867 27.02790614 42.18327383 26.00391609 40 25 C39.55269531 25.40992188 39.10539062 25.81984375 38.64453125 26.2421875 C38.03996094 26.78101563 37.43539062 27.31984375 36.8125 27.875 C36.22082031 28.40867187 35.62914062 28.94234375 35.01953125 29.4921875 C29.51077985 33.60510441 23.6327787 33.76306304 17 33 C10.1675346 29.9060534 6.27982979 24.13407137 3.51171875 17.35546875 C1.37202878 11.37421347 0 6.44417585 0 0 Z " fill="#F7B39D" transform="translate(81,344)"/>
<path d="M0 0 C0.33 0 0.66 0 1 0 C1 11.88 1 23.76 1 36 C40.93 36 80.86 36 122 36 C122 40.29 122 44.58 122 49 C76.13 49 30.26 49 -17 49 C-17 44.05 -17 39.1 -17 34 C-15.35 35.65 -13.7 37.3 -12 39 C-8.78938212 39.41890218 -8.78938212 39.41890218 -6 39 C-5.9250803 35.10417551 -6.04630032 31.7563257 -7 28 C-7.77335644 20.9722089 -6.10135171 15.41074779 -3.5 8.9375 C-3.16613281 8.07189453 -2.83226562 7.20628906 -2.48828125 6.31445312 C-1.67209675 4.20403321 -0.84267008 2.09995178 0 0 Z " fill="#383981" transform="translate(287,426)"/>
<path d="M0 0 C5.69757433 5.1549482 7.10618027 9.98181887 7.625 17.375 C8.181875 16.88 8.73875 16.385 9.3125 15.875 C12.0661615 14.08884119 13.40256457 13.8792407 16.625 14.375 C18.4375 15.5 18.4375 15.5 19.625 17.375 C19.625 23.375 19.625 23.375 11.625 37.375 C-0.255 37.375 -12.135 37.375 -24.375 37.375 C-24.87 34.384375 -25.365 31.39375 -25.875 28.3125 C-26.03162109 27.38429443 -26.18824219 26.45608887 -26.34960938 25.49975586 C-27.59468759 17.7929523 -28.35134259 11.42980137 -24.375 4.375 C-17.36906606 -3.15553286 -9.43601252 -4.54326529 0 0 Z " fill="#F9B29C" transform="translate(155.375,41.625)"/>
<path d="M0 0 C3.58847294 3.01222181 6.73795408 5.80785267 7.640625 10.546875 C7.98174304 16.89117859 7.27803619 22.87994239 6.140625 29.109375 C5.645625 31.89375 5.150625 34.678125 4.640625 37.546875 C-7.239375 37.546875 -19.119375 37.546875 -31.359375 37.546875 C-39.359375 22.546875 -39.359375 22.546875 -39.359375 17.546875 C-38.296875 15.671875 -38.296875 15.671875 -36.359375 14.546875 C-32.796875 14.671875 -32.796875 14.671875 -29.359375 15.546875 C-28.699375 16.536875 -28.039375 17.526875 -27.359375 18.546875 C-27.33810547 17.7115625 -27.33810547 17.7115625 -27.31640625 16.859375 C-26.93025743 10.68099388 -25.3644564 6.31482905 -21.359375 1.546875 C-15.17072254 -3.13235003 -6.78209596 -4.17705248 0 0 Z " fill="#F9B29C" transform="translate(387.359375,41.453125)"/>
<path d="M0 0 C4.04976131 2.64561574 6.45747957 5.31969494 7.91015625 10.01953125 C8.68806961 16.99883843 7.73720939 23.60494707 6.38671875 30.43359375 C6.17462769 31.53344604 6.17462769 31.53344604 5.95825195 32.65551758 C5.61274681 34.44427205 5.26199645 36.23201206 4.91015625 38.01953125 C0.07274553 38.34291828 -4.75830314 38.57756203 -9.60400391 38.73364258 C-11.24802206 38.79871224 -12.89129628 38.88721822 -14.53271484 39.00024414 C-25.40843963 39.72991481 -25.40843963 39.72991481 -30.08984375 38.01953125 C-35.46175561 32.89851541 -38.49070772 26.4853279 -39.08984375 19.01953125 C-37.52734375 16.58203125 -37.52734375 16.58203125 -35.08984375 15.01953125 C-31.96484375 15.08203125 -31.96484375 15.08203125 -29.08984375 16.01953125 C-28.42984375 17.00953125 -27.76984375 17.99953125 -27.08984375 19.01953125 C-27.01507813 18.30667969 -26.9403125 17.59382813 -26.86328125 16.859375 C-25.92511055 10.02544531 -24.5398454 5.45001758 -19.08984375 1.01953125 C-13.01267916 -2.72026235 -6.4837835 -3.0419246 0 0 Z " fill="#F9B29C" transform="translate(469.08984375,162.98046875)"/>
<path d="M0 0 C6.54445601 2.97335941 6.54445601 2.97335941 8.6015625 7.609375 C8.96629531 8.98353856 9.30674493 10.36433437 9.625 11.75 C11.29452851 17.97935375 13.22276108 22.691448 17 28 C17.34289062 28.70769531 17.68578125 29.41539062 18.0390625 30.14453125 C19.31136213 32.60120736 20.49245529 32.84788486 23 34 C25.78965532 35.30919064 27.97753583 36.64749796 30 39 C30.86971318 42.63606577 30.66437627 46.10020594 30.4375 49.8125 C30.40591797 50.79154297 30.37433594 51.77058594 30.34179688 52.77929688 C30.2595047 55.18928203 30.1446501 57.59308593 30 60 C23.65775291 60.10390367 17.48324223 59.89684763 11.1875 59.125 C10.46369141 59.04636719 9.73988281 58.96773438 8.99414062 58.88671875 C5.08073767 58.42211383 1.44524183 57.98183435 -2 56 C-3.44945186 51.88292248 -2.67790865 47.9803318 -2.125 43.75 C-0.3730327 29.14536504 0.15311369 14.6989139 0 0 Z " fill="#17154F" transform="translate(72,282)"/>
<path d="M0 0 C27.16403693 -0.20638953 27.16403693 -0.20638953 38 1 C40.1663492 7.08291273 41.5197276 11.6447755 40 18 C37.03 18.495 37.03 18.495 34 19 C32.68 17.35 31.36 15.7 30 14 C29.67 18.62 29.34 23.24 29 28 C17.12 28 5.24 28 -7 28 C-5.73029565 21.01662609 -4.44608888 14.52547702 -2.375 7.8125 C-2.14554688 7.05130859 -1.91609375 6.29011719 -1.6796875 5.50585938 C-1.12514803 3.66894737 -0.56338265 1.8342191 0 0 Z " fill="#F6B09B" transform="translate(241,447)"/>
<path d="M0 0 C2.9762708 1.05044852 5.08308759 2.06687538 7.5625 4.0625 C12.52329675 6.85858544 17.38903204 6.81841528 23 7 C21.43812627 11.48078529 19.03873675 15.25621482 16.4375 19.1875 C15.73850586 20.25411865 15.73850586 20.25411865 15.02539062 21.34228516 C13.96488947 22.96046364 12.90276455 24.57757868 11.83935547 26.19384766 C10.13216196 28.79837144 8.43549069 31.40948402 6.74317932 34.0236969 C5.21281664 36.38735738 3.67924157 38.74892475 2.14529419 41.11026001 C1.38417649 42.28303715 0.6241388 43.45651595 -0.13479614 44.63070679 C-1.21133415 46.29515545 -2.29307656 47.95623443 -3.375 49.6171875 C-4.31472656 51.06520752 -4.31472656 51.06520752 -5.2734375 52.54248047 C-6.72733388 54.61189803 -8.14057665 56.30099469 -10 58 C-12.05572043 53.88855914 -11.96511935 48.89597643 -12.4375 44.375 C-12.57865234 43.30636719 -12.71980469 42.23773438 -12.86523438 41.13671875 C-13.4348088 35.45495182 -13.54611448 31.91128125 -10.03515625 27.2265625 C-9.05298347 26.12399435 -8.05092154 25.03724819 -7 24 C-7.70125 23.773125 -8.4025 23.54625 -9.125 23.3125 C-12.69343613 21.68343133 -15.06514511 19.59359269 -18 17 C-14.12676724 11.79116974 -9.49496035 7.98651785 -4.42578125 3.953125 C-1.99984814 2.07139213 -1.99984814 2.07139213 0 0 Z " fill="#F4F5F6" transform="translate(280,158)"/>
<path d="M0 0 C4.05130271 2.3713549 7.21860724 5.4953203 10.58203125 8.74609375 C11.62133789 9.73416016 11.62133789 9.73416016 12.68164062 10.7421875 C14.38381906 12.3621918 16.07941044 13.98852926 17.76953125 15.62109375 C14.43619792 18.95442708 11.10286458 22.28776042 7.76953125 25.62109375 C9.00896484 26.84892578 9.00896484 26.84892578 10.2734375 28.1015625 C12.97442206 31.35361274 13.2552219 33.6000056 12.95483398 37.73852539 C12.87305908 38.46289795 12.79128418 39.18727051 12.70703125 39.93359375 C12.64265869 40.68181396 12.57828613 41.43003418 12.51196289 42.20092773 C12.01822445 47.45738704 11.16002071 52.52263241 9.76953125 57.62109375 C6.76465658 53.97183286 4.05662872 50.18901607 1.45703125 46.24609375 C1.04114746 45.61904541 0.62526367 44.99199707 0.19677734 44.34594727 C-5.80608925 35.27272317 -11.73120501 26.14773844 -17.65527344 17.02294922 C-18.9706942 15.01719759 -20.31467791 13.03723509 -21.67578125 11.0625 C-23.23046875 8.62109375 -23.23046875 8.62109375 -23.23046875 6.62109375 C-21.96203125 6.61722656 -21.96203125 6.61722656 -20.66796875 6.61328125 C-13.53124106 6.36998371 -9.14273339 5.86912383 -4.01171875 0.703125 C-2.23046875 -0.37890625 -2.23046875 -0.37890625 0 0 Z " fill="#F4F5F6" transform="translate(243.23046875,158.37890625)"/>
<path d="M0 0 C0.33 0 0.66 0 1 0 C1.16336048 11.4061814 1.28715589 22.81207716 1.3626852 34.21919727 C1.39896564 39.51805737 1.44804561 44.81610772 1.52807617 50.11450195 C1.60504728 55.24339753 1.64617874 60.37152247 1.6641407 65.50095177 C1.67691364 67.44192297 1.70184785 69.3828598 1.7401104 71.32349586 C1.99124342 84.60885703 -0.02191922 94.93944985 -5.27224541 107.15328026 C-6.15663139 109.39746129 -6.661062 111.61439436 -7 114 C-7.33 113.34 -7.66 112.68 -8 112 C-12.29 112 -16.58 112 -21 112 C-21 111.67 -21 111.34 -21 111 C-19.02 111 -17.04 111 -15 111 C-15.07154297 109.4840625 -15.07154297 109.4840625 -15.14453125 107.9375 C-15.14056366 101.90676801 -14.02100852 96.02763132 -13.03488159 90.09378052 C-12.44054748 86.5115378 -11.86761299 82.92591153 -11.296875 79.33984375 C-11.18278793 78.6237645 -11.06870087 77.90768524 -10.95115662 77.16990662 C-9.97604887 70.98312144 -9.17151696 64.78246622 -8.4375 58.5625 C-7.35255975 49.42120274 -5.98285021 40.35099222 -4.48901367 31.26806641 C-2.78818454 20.8721906 -1.36903267 10.44405981 0 0 Z " fill="#04B07E" transform="translate(287,336)"/>
<path d="M0 0 C2.59321736 0.95887636 4.62155437 2.28444061 6.89453125 3.85546875 C7.69375 4.40332031 8.49296875 4.95117188 9.31640625 5.515625 C9.9196875 5.93714844 10.52296875 6.35867187 11.14453125 6.79296875 C10.11827823 9.00335987 9.19418428 10.73845416 7.54370117 12.55053711 C5.62993546 15.6177048 6.07711177 17.37384126 6.5703125 20.921875 C6.70630859 22.12263672 6.84230469 23.32339844 6.98242188 24.56054688 C7.29577459 27.06607909 7.63129766 29.56895023 7.99023438 32.06835938 C8.75736308 39.23204388 8.50897443 43.25340417 4.1875 49.1953125 C2.87430578 50.75749501 1.53787848 52.30183604 0.14453125 53.79296875 C-3.46575662 50.38325243 -6.69141769 47.28753634 -8.85546875 42.79296875 C-8.95294622 39.08232658 -8.34879959 35.4650661 -7.85546875 31.79296875 C-7.50950083 28.85882803 -7.23271783 25.92400923 -6.98046875 22.98046875 C-6.89514893 22.26334717 -6.8098291 21.54622559 -6.72192383 20.80737305 C-6.38764781 16.71261105 -6.76751107 14.3885314 -9.34765625 11.28125 C-10.17523438 10.46011719 -11.0028125 9.63898438 -11.85546875 8.79296875 C-2.98313955 -0.33285557 -2.98313955 -0.33285557 0 0 Z " fill="#F15169" transform="translate(261.85546875,175.20703125)"/>
<path d="M0 0 C3.63 0 7.26 0 11 0 C10.36694574 10.92018604 7.8138178 20.94939985 0 29 C-4.56258441 32.47625479 -9.37192927 32.620247 -14.94921875 32.48828125 C-19.8344424 31.70639526 -23.48493171 29.4362551 -27 26 C-28.2421875 23.796875 -28.2421875 23.796875 -29 22 C-27.081875 21.6596875 -27.081875 21.6596875 -25.125 21.3125 C-16.3151858 19.31468387 -9.01811878 15.68399438 -4 8 C-2.52459091 5.37192755 -1.25298319 2.74692469 0 0 Z " fill="#CAF3FB" transform="translate(152,345)"/>
<path d="M0 0 C3.82449434 -0.61246351 7.20310014 -0.86531558 11 0 C13.73432067 2.96594701 15.22966246 6.40400187 17 10 C23.66462486 17.89231891 30.93291025 20.76011946 41 22 C37.26236647 26.99720234 34.21021602 30.26928406 28 32 C22.78852389 32.60775232 18.51319124 32.68521867 13.6875 30.5 C5.81816508 23.17968844 0.35870968 12.98656547 -0.1328125 2.04296875 C-0.08898437 1.36878906 -0.04515625 0.69460938 0 0 Z " fill="#CAF3FB" transform="translate(81,345)"/>
<path d="M0 0 C4.05130271 2.3713549 7.21860724 5.4953203 10.58203125 8.74609375 C11.62133789 9.73416016 11.62133789 9.73416016 12.68164062 10.7421875 C14.38381906 12.3621918 16.07941044 13.98852926 17.76953125 15.62109375 C14.8145519 18.65887463 11.88232918 21.43719017 8.45703125 23.93359375 C7.75964844 24.44535156 7.06226563 24.95710938 6.34375 25.484375 C5.82425781 25.85949219 5.30476563 26.23460937 4.76953125 26.62109375 C1.65434626 25.27768064 -0.03799422 23.95183893 -2.02734375 21.21484375 C-2.51074219 20.55355469 -2.99414062 19.89226562 -3.4921875 19.2109375 C-3.98332031 18.52128906 -4.47445312 17.83164063 -4.98046875 17.12109375 C-5.48707031 16.43144531 -5.99367187 15.74179688 -6.515625 15.03125 C-10.23046875 9.89455231 -10.23046875 9.89455231 -10.23046875 7.62109375 C-16.66546875 8.11609375 -16.66546875 8.11609375 -23.23046875 8.62109375 C-23.23046875 7.96109375 -23.23046875 7.30109375 -23.23046875 6.62109375 C-21.96203125 6.61722656 -21.96203125 6.61722656 -20.66796875 6.61328125 C-13.53124106 6.36998371 -9.14273339 5.86912383 -4.01171875 0.703125 C-2.23046875 -0.37890625 -2.23046875 -0.37890625 0 0 Z " fill="#E4E6E7" transform="translate(243.23046875,158.37890625)"/>
<path d="M0 0 C0.33 0 0.66 0 1 0 C1 16.17 1 32.34 1 49 C-4.94 49 -10.88 49 -17 49 C-17 44.05 -17 39.1 -17 34 C-15.35 35.65 -13.7 37.3 -12 39 C-8.78938212 39.41890218 -8.78938212 39.41890218 -6 39 C-5.9250803 35.10417551 -6.04630032 31.7563257 -7 28 C-7.77335644 20.9722089 -6.10135171 15.41074779 -3.5 8.9375 C-3.16613281 8.07189453 -2.83226562 7.20628906 -2.48828125 6.31445312 C-1.67209675 4.20403321 -0.84267008 2.09995178 0 0 Z " fill="#2A2D5E" transform="translate(287,426)"/>
<path d="M0 0 C2.9762708 1.05044852 5.08308759 2.06687538 7.5625 4.0625 C12.52329675 6.85858544 17.38903204 6.81841528 23 7 C23 7.33 23 7.66 23 8 C22.29617188 7.86335937 21.59234375 7.72671875 20.8671875 7.5859375 C16.95808458 7.31036105 14.68912927 7.5475554 11 9 C5.45115418 14.18199151 1.20345756 20.71637467 -3 27 C-4.42800112 26.22935975 -5.85324714 25.45361313 -7.27734375 24.67578125 C-8.07132568 24.24434814 -8.86530762 23.81291504 -9.68334961 23.3684082 C-12.78213335 21.53800638 -15.3253575 19.40032019 -18 17 C-14.12676724 11.79116974 -9.49496035 7.98651785 -4.42578125 3.953125 C-1.99984814 2.07139213 -1.99984814 2.07139213 0 0 Z " fill="#E4E6E7" transform="translate(280,158)"/>
<path d="M0 0 C4.59306496 1.4859916 7.43569245 3.85014682 11 7 C8.96809303 11.25141066 6.36724173 14.93251086 3.625 18.75 C3.14289063 19.44738281 2.66078125 20.14476562 2.1640625 20.86328125 C1.6896875 21.52199219 1.2153125 22.18070312 0.7265625 22.859375 C0.08581787 23.76381348 0.08581787 23.76381348 -0.56787109 24.68652344 C-2 26 -2 26 -6 26 C-8.20181382 24.56254642 -10.20388034 23.1300427 -12.25 21.5 C-12.80429687 21.07074219 -13.35859375 20.64148438 -13.9296875 20.19921875 C-15.29313949 19.14136807 -16.64748772 18.07180218 -18 17 C-15.1608282 13.20101361 -12.15123278 10.31567004 -8.4375 7.375 C-4.03969949 3.88541714 -4.03969949 3.88541714 0 0 Z " fill="#03B07D" transform="translate(367,280)"/>
<path d="M0 0 C9.9 0 19.8 0 30 0 C28.82580645 9.39354839 28.82580645 9.39354839 24 14 C19.76183479 16.58998985 14.82942958 16.80214841 10 16 C5.88159842 14.15463929 3.49757317 11.77043587 1.0625 8 C0 5 0 5 0 0 Z " fill="#FEFBFA" transform="translate(107,294)"/>
<path d="M0 0 C2.79120295 1.29577958 5.04706873 2.7157439 7.3828125 4.71484375 C7.99253906 5.23626953 8.60226562 5.75769531 9.23046875 6.29492188 C9.85566406 6.83697266 10.48085938 7.37902344 11.125 7.9375 C11.75792969 8.47568359 12.39085937 9.01386719 13.04296875 9.56835938 C15.8314725 11.96907757 17.93657791 13.90486686 20 17 C18.44384991 18.29930979 16.8797832 19.58914138 15.3125 20.875 C14.44238281 21.59429687 13.57226562 22.31359375 12.67578125 23.0546875 C10.13637753 24.90085254 7.91442835 25.90255226 5 27 C2.65885474 24.04777314 0.32844546 21.08725012 -2 18.125 C-2.66773438 17.28324219 -3.33546875 16.44148438 -4.0234375 15.57421875 C-4.65507812 14.76855469 -5.28671875 13.96289062 -5.9375 13.1328125 C-6.81728516 12.01737061 -6.81728516 12.01737061 -7.71484375 10.87939453 C-9 9 -9 9 -9 7 C-3.58823529 3 -3.58823529 3 -1 3 C-0.67 2.01 -0.34 1.02 0 0 Z " fill="#03B07E" transform="translate(328,280)"/>
<path d="M0 0 C0.33 0 0.66 0 1 0 C1.14099121 1.05276123 1.28198242 2.10552246 1.42724609 3.19018555 C1.95901858 7.15829256 2.49246165 11.12617361 3.02636719 15.09399414 C3.25565233 16.79966368 3.48450581 18.50539131 3.71289062 20.21118164 C4.04438989 22.68652154 4.3772477 25.16167323 4.7109375 27.63671875 C4.81968201 28.44470917 4.92842651 29.25269958 5.04046631 30.08517456 C5.82019703 35.82226578 6.69428593 41.53931473 7.65478516 47.24926758 C8.62031033 54.94274151 8.62031033 54.94274151 6.7578125 58.1171875 C6.21898437 58.69726562 5.68015625 59.27734375 5.125 59.875 C4.59132813 60.47054687 4.05765625 61.06609375 3.5078125 61.6796875 C2 63 2 63 0 63 C0 42.21 0 21.42 0 0 Z " fill="#02B27F" transform="translate(409,311)"/>
<path d="M0 0 C8.58 0 17.16 0 26 0 C24.90190895 6.58854629 24.34545762 7.5510791 20 12 C15.92562242 13.35812586 12.25599909 13.65365174 8 13 C4.26377085 11.029415 1.31182574 8.06665981 0 4 C0 2.68 0 1.36 0 0 Z " fill="#FEFDFC" transform="translate(249,125)"/>
<path d="M0 0 C8.25 0 16.5 0 25 0 C23.84615385 8.07692308 23.84615385 8.07692308 19 12 C15.23308703 13.25563766 11.89567865 13.74067748 8 13 C5.09707872 11.44585476 2.84679877 9.73540339 1 7 C0.67 4.69 0.34 2.38 0 0 Z " fill="#FEFDFD" transform="translate(337,248)"/>
<path d="M0 0 C1.32 0 2.64 0 4 0 C4 21.12 4 42.24 4 64 C2.68 64 1.36 64 0 64 C0 42.88 0 21.76 0 0 Z " fill="#F87A1A" transform="translate(171,411)"/>
<path d="M0 0 C1.32 0 2.64 0 4 0 C4 21.12 4 42.24 4 64 C2.68 64 1.36 64 0 64 C0 42.88 0 21.76 0 0 Z " fill="#F77516" transform="translate(66,411)"/>
<path d="M0 0 C0.33 0 0.66 0 1 0 C1 20.13 1 40.26 1 61 C-5.80016561 55.55986751 -5.80016561 55.55986751 -6.24145508 52.11524963 C-6.14429804 46.09629333 -5.52135639 40.23613447 -4.6875 34.27734375 C-4.55432373 33.29125626 -4.42114746 32.30516876 -4.28393555 31.28919983 C-3.86153656 28.17117708 -3.43090854 25.05435692 -3 21.9375 C-2.71039074 19.81062125 -2.42132288 17.68366871 -2.1328125 15.55664062 C-1.42813172 10.37022418 -0.71670976 5.1847671 0 0 Z " fill="#135BC7" transform="translate(195,191)"/>
<path d="M0 0 C2.38198483 0.3841911 4.62799248 0.85459997 6.87890625 1.734375 C15.38942597 5.05708252 24.15388815 5.46523834 32.6875 2 C33.47511719 1.62875 34.26273437 1.2575 35.07421875 0.875 C37 0 37 0 39 0 C39 1.98 39 3.96 39 6 C30.54208962 10.65496788 21.4447735 11.37083633 12 10 C7.75508151 8.72608365 3.89731845 7.10259955 0 5 C0 3.35 0 1.7 0 0 Z " fill="#ED896B" transform="translate(242,147)"/>
<path d="M0 0 C0.639375 0.268125 1.27875 0.53625 1.9375 0.8125 C3.4534375 1.4003125 3.4534375 1.4003125 5 2 C5.63164062 2.26425781 6.26328125 2.52851563 6.9140625 2.80078125 C17.47846997 6.85367212 27.40575016 5.15573399 38 2 C37.67 3.65 37.34 5.3 37 7 C27.09619821 11.1700218 15.95066501 11.80321829 5.83203125 7.8515625 C3.8678394 6.93856927 1.92953407 5.98401959 0 5 C0 3.35 0 1.7 0 0 Z " fill="#ED896A" transform="translate(329,269)"/>
<path d="M0 0 C0 6.6 0 13.2 0 20 C-0.33 20 -0.66 20 -1 20 C-1 16.7 -1 13.4 -1 10 C-1.680625 10.04640625 -2.36125 10.0928125 -3.0625 10.140625 C-9.53925232 10.38178067 -15.31416626 9.70559491 -21.5625 8.125 C-22.25279297 7.95129883 -22.94308594 7.77759766 -23.65429688 7.59863281 C-26.87858161 6.73595327 -29.19649397 5.86900402 -32 4 C-30.68386719 4.04640625 -29.36773437 4.0928125 -28.01171875 4.140625 C-18.22819814 4.37881628 -8.77720812 0 0 0 Z " fill="#E7896E" transform="translate(143,321)"/>
<path d="M0 0 C0.66 0 1.32 0 2 0 C2.33 20.79 2.66 41.58 3 63 C2.01 63 1.02 63 0 63 C0 42.21 0 21.42 0 0 Z " fill="#F67112" transform="translate(172,412)"/>
<path d="M0 0 C1.65 0.33 3.3 0.66 5 1 C5.625 3.8125 5.625 3.8125 6 7 C5.01 8.485 5.01 8.485 4 10 C2.35 9.67 0.7 9.34 -1 9 C-1.625 6.1875 -1.625 6.1875 -2 3 C-1.34 2.01 -0.68 1.02 0 0 Z " fill="#241E54" transform="translate(137,266)"/>
<path d="M0 0 C4.70588235 0.70588235 4.70588235 0.70588235 6 2 C6.1875 4.9375 6.1875 4.9375 6 8 C5.34 8.66 4.68 9.32 4 10 C1.375 9.625 1.375 9.625 -1 9 C-1.09765625 2.84765625 -1.09765625 2.84765625 -1 1 C-0.67 0.67 -0.34 0.34 0 0 Z " fill="#201B52" transform="translate(103,266)"/>
<path d="M0 0 C2.125 0.375 2.125 0.375 4 1 C4 3.31 4 5.62 4 8 C2.125 8.625 2.125 8.625 0 9 C-2 7 -2 7 -2.25 4.5 C-2 2 -2 2 0 0 Z " fill="#292255" transform="translate(275,101)"/>
<path d="M0 0 C1.32 0.66 2.64 1.32 4 2 C3.67 4.31 3.34 6.62 3 9 C1.35 8.67 -0.3 8.34 -2 8 C-2.125 5.125 -2.125 5.125 -2 2 C-1.34 1.34 -0.68 0.68 0 0 Z " fill="#251F54" transform="translate(363,223)"/>
<path d="M0 0 C1.32 0.66 2.64 1.32 4 2 C4 3.98 4 5.96 4 8 C2.35 8.33 0.7 8.66 -1 9 C-1.625 5.625 -1.625 5.625 -2 2 C-1.34 1.34 -0.68 0.68 0 0 Z " fill="#262055" transform="translate(334,223)"/>
<path d="M0 0 C3.69230769 0.69230769 3.69230769 0.69230769 5 2 C5.04063832 3.66617115 5.042721 5.33388095 5 7 C3.02 7.99 3.02 7.99 1 9 C-1 7 -1 7 -1.1875 3.9375 C-1 1 -1 1 0 0 Z " fill="#211C53" transform="translate(246,101)"/>
<path d="M0 0 C0.66 0.99 1.32 1.98 2 3 C2.99 3.66 3.98 4.32 5 5 C3.35 5 1.7 5 0 5 C0.33 6.65 0.66 8.3 1 10 C0.01 9.67 -0.98 9.34 -2 9 C-2.6875 6.75 -2.6875 6.75 -3 4 C-1.5625 1.6875 -1.5625 1.6875 0 0 Z " fill="#DD8D7A" transform="translate(311,225)"/>
<path d="M0 0 C0.66 0 1.32 0 2 0 C1.814375 1.093125 1.62875 2.18625 1.4375 3.3125 C0.7421932 6.93624133 0.7421932 6.93624133 2 10 C1.01 9.67 0.02 9.34 -1 9 C-1.625 6.1875 -1.625 6.1875 -2 3 C-1.34 2.01 -0.68 1.02 0 0 Z " fill="#EF8F72" transform="translate(75,269)"/>
<path d="M0 0 C1.98 0.99 1.98 0.99 4 2 C3.67 4.31 3.34 6.62 3 9 C2.01 9 1.02 9 0 9 C0.185625 8.071875 0.37125 7.14375 0.5625 6.1875 C1.24123881 2.98656229 1.24123881 2.98656229 0 0 Z " fill="#EE8D6F" transform="translate(167,269)"/>
<path d="M0 0 C0.66 0 1.32 0 2 0 C1.75 2.375 1.75 2.375 1 5 C-1.0625 6.3125 -1.0625 6.3125 -3 7 C-2.25 2.25 -2.25 2.25 0 0 Z " fill="#E5A89E" transform="translate(309,222)"/>
</svg>
