<?xml version="1.0" encoding="UTF-8"?>
<svg version="1.1" xmlns="http://www.w3.org/2000/svg" width="512" height="512">
<path d="M0 0 C34.03790487 -0.92936259 65.33934888 12.77195018 90.15234375 35.45703125 C107.15251752 51.82267288 118.03132464 71.59984244 124.6015625 94.125 C124.9625 95.34445313 125.3234375 96.56390625 125.6953125 97.8203125 C130.03006807 116.08247718 129.80392515 140.13349582 124.6015625 158.125 C124.31152344 159.16938232 124.31152344 159.16938232 124.015625 160.23486328 C118.12069502 181.08090041 107.46278924 198.41882056 92.6015625 214.125 C91.44527344 215.37796875 91.44527344 215.37796875 90.265625 216.65625 C85.75013816 221.39093523 81.60317264 224.70875242 75.86843872 227.87937927 C71.91810177 230.40562772 69.92572525 232.14984943 68.41552353 236.69285774 C67.81696582 241.12052339 67.95979459 245.53744072 68.08154297 249.99243164 C68.08025715 251.69505643 68.07319927 253.39768511 68.06083679 255.1002655 C68.04324424 259.70502813 68.10490379 264.30570614 68.18030691 268.90975499 C68.2448491 273.73727255 68.23306788 278.56458102 68.22879028 283.3924408 C68.23166617 292.53482361 68.29802556 301.67552574 68.38955796 310.81740803 C68.52141223 324.22701984 68.56767399 337.63698739 68.60194588 351.04716396 C68.60575825 352.5248245 68.60575825 352.5248245 68.60964763 354.03233677 C68.61467102 355.99708766 68.6195058 357.96183903 68.62414658 359.92659086 C68.63998512 365.66747811 68.67766027 371.40769695 68.73450732 377.14832127 C68.76797866 380.72248515 68.78980762 384.29666422 68.80947304 387.87092781 C68.82140482 389.52371972 68.83861552 391.17648358 68.86159706 392.82915878 C69.10967251 410.9531935 69.10967251 410.9531935 63.2890625 417.875 C57.04314495 423.10414028 52.82731613 425.24777228 44.69546986 425.25922108 C43.98528815 425.26157331 43.27510644 425.26392554 42.54340407 425.26634905 C40.14552346 425.27304638 37.74769694 425.2725806 35.34980774 425.27217102 C33.62050312 425.27546919 31.89119927 425.27919465 30.16189641 425.2833125 C25.3954572 425.29334596 20.6290306 425.29705145 15.86258233 425.29970181 C10.72745929 425.30360086 5.59234627 425.31317945 0.45722961 425.32191467 C-11.95100807 425.34169011 -24.35924658 425.35174654 -36.76749608 425.36064246 C-42.6076659 425.36502349 -48.44783482 425.37039077 -54.28800392 425.37563133 C-73.69664541 425.39264449 -93.10528633 425.4071394 -112.51393414 425.41438007 C-117.5521768 425.41629003 -122.59041946 425.41821036 -127.62866211 425.42016602 C-128.88092533 425.42064976 -130.13318854 425.4211335 -131.42339913 425.4216319 C-151.71625863 425.42993494 -172.00905924 425.45527611 -192.30189302 425.48774669 C-213.12589633 425.52079615 -233.94986969 425.53882691 -254.77389938 425.54202431 C-266.4699718 425.54419134 -278.16595833 425.5529682 -289.86200523 425.57848549 C-299.82145823 425.60016359 -309.78080447 425.60825714 -319.74027839 425.59851871 C-324.82276754 425.59396567 -329.90503631 425.59591856 -334.98749542 425.61528015 C-339.64050047 425.63285284 -344.29312339 425.6319621 -348.94613216 425.61638286 C-350.62922003 425.61399782 -352.31233396 425.61837664 -353.99538191 425.63021151 C-371.04729134 425.7426879 -371.04729134 425.7426879 -378.421875 419.37890625 C-378.86789062 418.82074219 -379.31390625 418.26257813 -379.7734375 417.6875 C-380.23492187 417.13191406 -380.69640625 416.57632812 -381.171875 416.00390625 C-383.86270994 411.88195846 -384.64893442 408.26283729 -384.65849972 403.37837505 C-384.66556531 402.22383286 -384.6726309 401.06929067 -384.6799106 399.87976235 C-384.67749552 398.61577058 -384.67508043 397.35177881 -384.67259216 396.04948425 C-384.67704542 394.6896834 -384.68235976 393.32988514 -384.68846089 391.97009069 C-384.70264065 388.23429296 -384.70430419 384.49857844 -384.70386398 380.76275766 C-384.70551219 376.73332586 -384.71857872 372.70392833 -384.73005676 368.67451477 C-384.75290475 359.8646378 -384.76082702 351.05478492 -384.76588321 342.24488235 C-384.76914018 336.74393782 -384.77566262 331.24300028 -384.7828846 325.74205971 C-384.80244953 310.51099847 -384.81885461 295.27994374 -384.82176113 280.04886913 C-384.8219487 279.07424552 -384.82213627 278.09962191 -384.82232952 277.09546425 C-384.82269577 275.11967774 -384.82305947 273.14389124 -384.82342064 271.16810473 C-384.82360345 270.18732499 -384.82378626 269.20654526 -384.82397461 268.19604492 C-384.82415516 267.21406804 -384.82433571 266.23209115 -384.82452173 265.2203574 C-384.8280641 249.30543094 -384.85509088 233.39063973 -384.8924725 217.47576018 C-384.93054597 201.13557669 -384.94991853 184.79546033 -384.95022064 168.45523149 C-384.9508054 159.28097626 -384.95930905 150.1068824 -384.98821831 140.93266869 C-385.01271925 133.1215197 -385.02002376 125.31059095 -385.00497078 117.49941393 C-384.99779679 113.51452756 -384.99867999 109.53007622 -385.02138138 105.54523849 C-385.04197666 101.89510939 -385.03936687 98.24574959 -385.01850653 94.59562878 C-385.01336114 92.65421424 -385.03278703 90.71278223 -385.05316824 88.77146786 C-384.965391 79.65246603 -382.96675769 74.77441837 -376.6484375 68.3125 C-368.00602386 62.49549082 -359.51073719 62.76527392 -349.3984375 63.125 C-349.45064453 61.28035156 -349.45064453 61.28035156 -349.50390625 59.3984375 C-349.53205795 57.76563873 -349.55935663 56.1328251 -349.5859375 54.5 C-349.61107422 53.69175781 -349.63621094 52.88351563 -349.66210938 52.05078125 C-349.72374562 46.99660937 -349.39045798 43.4028993 -346.3984375 39.125 C-342.48879171 35.14920116 -339.38381099 34.85101861 -333.86328125 34.62890625 C-331.354091 34.62758214 -328.84481399 34.64779853 -326.3359375 34.6875 C-325.06943359 34.68041016 -323.80292969 34.67332031 -322.49804688 34.66601562 C-311.70272698 34.74015147 -311.70272698 34.74015147 -307.3984375 38.125 C-302.93334893 43.35911459 -302.89222221 47.45665558 -303.1484375 54 C-303.16648437 54.87914062 -303.18453125 55.75828125 -303.203125 56.6640625 C-303.24995371 58.8181832 -303.32168756 60.97173774 -303.3984375 63.125 C-277.83366069 63.25134972 -252.26939469 63.31493698 -226.70429134 63.30378246 C-214.83390738 63.30006694 -202.96421621 63.31689813 -191.09399414 63.38208008 C-180.74796505 63.43884025 -170.40270874 63.45706898 -160.05654913 63.4290064 C-154.5778309 63.41549239 -149.1006659 63.42128734 -143.6221447 63.47322655 C-138.46433288 63.52151646 -133.30911235 63.51825015 -128.15127563 63.47558594 C-126.25943004 63.46899729 -124.36741069 63.48118309 -122.47583199 63.51363564 C-112.39165825 64.02213393 -112.39165825 64.02213393 -103.78616524 59.71964455 C-101.98973967 56.91606155 -100.69140092 54.18531258 -99.3984375 51.125 C-97.62380955 48.6395487 -95.66326254 46.35590877 -93.6484375 44.0625 C-93.13385986 43.47307617 -92.61928223 42.88365234 -92.08911133 42.27636719 C-70.68801153 18.14970204 -40.75017851 3.19012555 -8.5859375 0.4375 C-5.72445085 0.27121506 -2.86230033 0.14917526 0 0 Z " fill="#020202" transform="translate(384.3984375,9.875)"/>
<path d="M0 0 C23.02458704 18.40693127 36.91091133 41.41906706 42.82421875 70.2578125 C43.08900024 71.44225952 43.08900024 71.44225952 43.35913086 72.65063477 C45.786604 86.25850126 44.62941087 102.03297498 40.82421875 115.2578125 C40.52620361 116.3099292 40.52620361 116.3099292 40.22216797 117.38330078 C32.71520523 143.33433678 17.14577334 166.87801202 -6.17578125 181.2578125 C-7.05105469 181.82757813 -7.92632812 182.39734375 -8.828125 182.984375 C-14.66690972 186.62060032 -20.6764937 189.46784575 -27.05078125 192.0078125 C-27.74494141 192.28947266 -28.43910156 192.57113281 -29.15429688 192.86132812 C-40.65248461 197.26109129 -52.18203552 198.74270367 -64.40942383 198.59399414 C-66.50445415 198.57012826 -68.59822473 198.57349961 -70.69335938 198.58007812 C-77.80584095 198.56485562 -84.29851758 198.12200479 -91.17578125 196.2578125 C-92.0884375 196.0928125 -93.00109375 195.9278125 -93.94140625 195.7578125 C-109.27837088 192.67112779 -124.40394179 184.41707121 -136.17578125 174.2578125 C-137.49255859 173.14599609 -137.49255859 173.14599609 -138.8359375 172.01171875 C-162.27455714 151.61340271 -175.13119129 123.68569892 -177.34863281 92.85449219 C-178.74229255 64.99300878 -168.8564094 38.62319503 -151.17578125 17.2578125 C-150.14904297 15.98550781 -150.14904297 15.98550781 -149.1015625 14.6875 C-136.23742908 -0.48314164 -118.11484254 -11.86156573 -99.17578125 -17.7421875 C-98.55638672 -17.93683594 -97.93699219 -18.13148437 -97.29882812 -18.33203125 C-64.41275506 -28.24645328 -27.21731261 -20.42269106 0 0 Z " fill="#FBDD75" transform="translate(453.17578125,47.7421875)"/>
<path d="M0 0 C81.51 0 163.02 0 247 0 C247.99 5.61 248.98 11.22 250 17 C250.33 18.32 250.66 19.64 251 21 C249.86140219 21.00054477 248.72280437 21.00108953 247.5497036 21.00165081 C219.8581383 21.01603971 192.16673032 21.05902933 164.47525597 21.13209057 C161.8104898 21.13898923 159.1457236 21.14584728 156.48095703 21.15258789 C155.81861441 21.15426695 155.1562718 21.15594602 154.47385819 21.15767596 C144.41632126 21.18268706 134.35883531 21.19307306 124.30126953 21.19555664 C112.63071052 21.19859398 100.9603351 21.21905371 89.28984702 21.26052457 C83.10911511 21.28187687 76.92864436 21.29444357 70.74787521 21.28615379 C64.93163001 21.27862801 59.11591461 21.29437718 53.29976654 21.32806015 C51.16405168 21.3363111 49.02828431 21.33602268 46.89257431 21.32659721 C43.97759117 21.31500519 41.06435294 21.33404842 38.14950562 21.36076355 C37.30319214 21.35009029 36.45687867 21.33941703 35.58491933 21.32842034 C31.41666204 21.39975428 28.79133896 21.7511462 25.4906559 24.41495228 C21.48595806 28.57142167 21.85368938 31.7286967 21.85955811 37.24847412 C21.85658698 38.11166268 21.85361586 38.97485123 21.8505547 39.86419702 C21.84184216 42.77373215 21.8403573 45.68322627 21.83886719 48.59277344 C21.83424078 50.67197763 21.82921637 52.75118096 21.82382202 54.8303833 C21.81067804 60.49164389 21.80424906 66.1528926 21.79981136 71.81416607 C21.79688358 75.34901528 21.79277932 78.88386123 21.78830719 82.4187088 C21.77462639 93.47225675 21.76496284 104.52579726 21.7611053 115.57935309 C21.75662433 128.35023422 21.73907702 141.12100833 21.7101047 153.89185691 C21.68850336 163.75518125 21.67840183 173.61847545 21.67706418 183.48182321 C21.67601495 189.37632877 21.67008222 195.27073382 21.65224457 201.16521454 C21.63579091 206.71047481 21.63359528 212.25555871 21.64238358 217.80083466 C21.64315543 219.83659334 21.63879182 221.87236139 21.62892532 223.90809631 C21.61624747 226.68680568 21.62206007 229.46488653 21.63250732 232.24359131 C21.62445092 233.04963106 21.61639452 233.85567081 21.60809398 234.68613601 C21.65065003 239.52429131 22.37287278 242.78548506 25 247 C29.53737408 251.23317464 35.42320705 250.4212696 41.26025391 250.38818359 C42.39733292 250.39344055 43.53441193 250.39869751 44.70594788 250.40411377 C48.46295928 250.41731365 52.21954682 250.4085765 55.9765625 250.3984375 C58.58539918 250.40045795 61.19423532 250.40336914 63.80307007 250.40713501 C69.26882523 250.41258757 74.73445864 250.40541253 80.20019531 250.39111328 C86.51975319 250.37477126 92.83902093 250.38008831 99.15857184 250.3965925 C105.24067577 250.41184064 111.322651 250.41023533 117.40476608 250.4014473 C119.99241552 250.39944222 122.58007234 250.40191527 125.16771317 250.40888596 C128.77818881 250.41647859 132.38810159 250.404927 135.99853516 250.38818359 C137.61162819 250.39729263 137.61162819 250.39729263 139.25730896 250.40658569 C140.23866318 250.39812622 141.2200174 250.38966675 142.23110962 250.38095093 C143.08464838 250.37981985 143.93818714 250.37868877 144.81759071 250.37752342 C147.51948604 249.91013686 148.40159087 249.20388409 150 247 C150.58333333 243.5 150.58333333 243.5 150 240 C144.29534185 235.14116927 144.29534185 235.14116927 127 236 C127 223.13 127 210.26 127 197 C152.41 197 177.82 197 204 197 C204 209.87 204 222.74 204 236 C190.1875 236.3125 190.1875 236.3125 185.84057617 236.38793945 C184.71111572 236.42105225 183.58165527 236.45416504 182.41796875 236.48828125 C181.26063232 236.51446533 180.1032959 236.54064941 178.91088867 236.56762695 C176.02417755 236.77500753 176.02417755 236.77500753 174.12231445 238.31323242 C172.22429797 241.16583105 172.64588527 243.69492914 173 247 C174.22457109 248.76484838 174.22457109 248.76484838 176 250 C178.9229809 250.29930973 181.63389041 250.41314914 184.55854797 250.39440918 C185.44300872 250.40050028 186.32746946 250.40659139 187.23873204 250.41286707 C190.21437812 250.4295696 193.18959967 250.42471091 196.1652832 250.41992188 C198.293899 250.42725808 200.42251081 250.43584299 202.55111694 250.44558716 C208.34251481 250.46786132 214.13377065 250.47073081 219.92520547 250.46883965 C224.75628149 250.46872019 229.58732714 250.47727416 234.41839474 250.48561716 C245.81532726 250.50487325 257.21218653 250.50772734 268.60913086 250.50097656 C280.37268286 250.49433685 292.13592121 250.51719248 303.89940959 250.55429029 C313.99206775 250.58496594 324.08462491 250.59634954 334.17732877 250.59245348 C340.20824855 250.59038344 346.23892445 250.59590451 352.26980019 250.62034607 C357.94240979 250.6425746 363.61450909 250.64076743 369.28712082 250.62041855 C371.36964373 250.61700141 373.45220072 250.62212775 375.53467751 250.63640213 C378.37721666 250.65454226 381.21801513 250.64188433 384.0605011 250.62145996 C385.29771966 250.64023673 385.29771966 250.64023673 386.55993253 250.65939283 C390.58986561 250.59728427 393.21394524 250.24530297 396.43371868 247.71115875 C400.33867647 243.58574958 401.24602203 241.19216707 401.2784729 235.54571533 C401.28963638 234.43796249 401.30079987 233.33020966 401.31230164 232.18888855 C401.31554192 230.37304008 401.31554192 230.37304008 401.31884766 228.52050781 C401.32889328 227.24220596 401.3389389 225.96390411 401.34928894 224.64686584 C401.37658447 221.145161 401.39173696 217.64349638 401.40471697 214.14171314 C401.4203495 210.4808014 401.44713932 206.81997176 401.4727478 203.15911865 C401.51953345 196.22837795 401.55627857 189.29762179 401.58942068 182.36680388 C401.62764359 174.47563764 401.6770533 166.58455386 401.72740483 158.69345713 C401.8307215 142.46236398 401.91998274 126.23122508 402 110 C404.58232914 109.01811439 407.16578683 108.03940411 409.75 107.0625 C410.47960937 106.78470703 411.20921875 106.50691406 411.9609375 106.22070312 C412.66992188 105.95322266 413.37890625 105.68574219 414.109375 105.41015625 C414.75874023 105.16402588 415.40810547 104.91789551 416.07714844 104.66430664 C418.032576 103.98874565 419.98665757 103.47199954 422 103 C422.11673315 124.44417871 422.20493906 145.88830514 422.25906086 167.33273697 C422.28485704 177.28947817 422.32003455 187.24602212 422.37719727 197.20263672 C422.42698898 205.87949527 422.45928073 214.55621098 422.47044247 223.23320842 C422.47696843 227.82890294 422.4923354 232.42418879 422.52865028 237.0197525 C422.56254306 241.34376453 422.57306668 245.66719886 422.56553841 249.9913311 C422.56691598 251.57966436 422.57688885 253.16801658 422.59602737 254.75623512 C422.62086281 256.92318436 422.61494304 259.08794528 422.60127258 261.25494385 C422.60588155 262.46802341 422.61049051 263.68110298 422.61523914 264.93094254 C422 268 422 268 419.90127438 270.16018122 C416.31326441 272.4354876 414.19532355 272.50211513 409.96437073 272.50615788 C409.26448953 272.51227123 408.56460833 272.51838459 407.84351861 272.52468321 C405.49242502 272.54031492 403.14235834 272.52740512 400.79125977 272.5146637 C399.09108406 272.51998753 397.39091307 272.52705227 395.69075108 272.53571075 C391.01415176 272.55438656 386.33786804 272.54801617 381.66125536 272.53755772 C376.61959073 272.53057974 371.57799186 272.54655292 366.53634644 272.55955505 C356.65793573 272.58122342 346.77964008 272.58106096 336.90121341 272.57292951 C328.8745708 272.56663595 320.84796182 272.56776063 312.82131958 272.57420158 C311.10932793 272.57555407 311.10932793 272.57555407 309.36275059 272.57693387 C307.04434291 272.57878502 304.72593523 272.58064758 302.40752757 272.58252143 C280.65528737 272.59910962 258.90311199 272.59037184 237.15087569 272.57353585 C217.23761315 272.55883622 197.32450145 272.57346924 177.41125834 272.60230602 C156.97704517 272.63167747 136.54290168 272.64267898 116.10866833 272.63312382 C113.79867237 272.63210123 111.4886764 272.63110663 109.17868042 272.6301403 C107.47372802 272.62942572 107.47372802 272.62942572 105.73433214 272.6286967 C97.71504271 272.62652969 89.69581903 272.63635182 81.67654419 272.65091133 C71.9069584 272.66840082 62.13756503 272.66836595 52.36798692 272.64555968 C47.38100865 272.63438698 42.3943698 272.63132333 37.40740585 272.64986038 C32.84520816 272.66660071 28.28364762 272.6604022 23.72149169 272.63564359 C22.06813393 272.63073863 20.4147254 272.63433464 18.76140988 272.64713103 C16.51870836 272.66324114 14.27822935 272.64873841 12.03562927 272.62641239 C10.78868003 272.6261427 9.54173079 272.62587301 8.2569952 272.62559515 C4.0494919 271.81742888 2.56876409 270.37803782 0 267 C-0.62099248 264.6669957 -0.62099248 264.6669957 -0.61523914 262.2149229 C-0.63017201 260.80489011 -0.63017201 260.80489011 -0.64540654 259.36637181 C-0.63084234 258.34205282 -0.61627813 257.31773383 -0.60127258 256.26237488 C-0.60768077 254.62050397 -0.60768077 254.62050397 -0.61421841 252.94546396 C-0.62246662 249.27076466 -0.59493111 245.5972019 -0.56762695 241.92260742 C-0.56621689 239.29136177 -0.56700764 236.66011414 -0.56983948 234.02886963 C-0.5724606 228.36047243 -0.55678024 222.69236311 -0.52865028 217.02403831 C-0.48800588 208.82865489 -0.47499214 200.63341059 -0.46871033 192.4379373 C-0.45776859 179.14124453 -0.42449774 165.84470518 -0.37719727 152.5480957 C-0.33129851 139.63208776 -0.29596551 126.71612171 -0.2746582 113.80004883 C-0.27331822 112.99571551 -0.27197823 112.19138219 -0.27059764 111.36267513 C-0.26020046 105.0722112 -0.25041586 98.78174636 -0.24082482 92.49128115 C-0.19366076 61.66071329 -0.09306861 30.83052948 0 0 Z " fill="#D3F1F5" transform="translate(15,148)"/>
<path d="M0 0 C1.58167508 -0.00947263 3.16334536 -0.01977589 4.74501014 -0.03083527 C9.08123305 -0.05854425 13.41742252 -0.07378548 17.75371122 -0.08678126 C21.47646656 -0.09955847 25.19916755 -0.11969433 28.92188886 -0.13990258 C41.19162711 -0.20646022 53.46139851 -0.24959457 65.73125803 -0.28630227 C68.93245857 -0.29590377 72.13365781 -0.30586915 75.33485699 -0.31591272 C95.25947715 -0.37790469 115.1841094 -0.43121837 135.10879898 -0.46475029 C139.72176382 -0.47264803 144.33472846 -0.48065415 148.94769287 -0.48880005 C150.09408421 -0.49081677 151.24047556 -0.49283349 152.42160603 -0.49491133 C170.93010947 -0.52881545 189.4380729 -0.6109098 207.94631365 -0.71284603 C226.99874789 -0.81690466 246.05090644 -0.87470224 265.1036222 -0.88914406 C275.78028792 -0.89840924 286.45607211 -0.927275 297.13245392 -1.00863266 C306.23995568 -1.07795356 315.3464169 -1.10482747 324.45416692 -1.07978438 C329.08523631 -1.06829165 333.71411629 -1.07467401 338.344841 -1.13612366 C362.46146244 -1.43912084 382.39187334 2.07985733 404.88045454 10.89952254 C410.61256708 13.12024328 416.43524263 15.05640248 422.26692557 16.99603736 C426.65714232 18.59148083 429.12492858 20.30131824 431.55023193 24.32125854 C432.08148193 26.60250854 432.08148193 26.60250854 432.05023193 28.82125854 C432.06570068 29.91953979 432.06570068 29.91953979 432.08148193 31.04000854 C431.31812201 34.31796589 429.87282987 35.88645442 427.55023193 38.32125854 C425.09100133 39.47102402 422.84664706 40.3714715 420.28851318 41.20407104 C418.83739926 41.70817728 417.38772101 42.21643231 415.93939209 42.72848511 C415.20432434 42.98778809 414.46925659 43.24709106 413.71191406 43.51425171 C411.03178531 44.51480688 408.45284435 45.67958573 405.85818481 46.88150024 C385.22855931 56.37170758 365.51446639 58.52664068 343.05023193 58.32125854 C342.3854974 58.31663353 341.72076286 58.31200851 341.03588486 58.30724335 C336.57037831 58.27303638 332.10803558 58.18838804 327.64398193 58.07125854 C326.49658035 58.0454068 325.34917877 58.01955505 324.16700745 57.99291992 C323.10431137 57.95174042 322.0416153 57.91056091 320.94671631 57.86813354 C320.02129028 57.83558472 319.09586426 57.80303589 318.14239502 57.76950073 C315.02893313 57.23111448 313.08387851 56.19134765 310.55023193 54.32125854 C309.73773193 51.63375854 309.73773193 51.63375854 309.55023193 49.32125854 C306.44443699 49.34405255 303.3423271 49.42133673 300.23773193 49.50875854 C298.91612061 49.51745972 298.91612061 49.51745972 297.56781006 49.52633667 C295.1303275 49.60974862 292.91875409 49.73472905 290.55023193 50.32125854 C288.61629452 52.6548742 288.61629452 52.6548742 287.55023193 55.32125854 C284.48637614 57.32642119 282.01266689 57.57227184 278.39796925 57.57573414 C276.82682038 57.58448243 276.82682038 57.58448243 275.22393113 57.59340745 C273.49969007 57.58773847 273.49969007 57.58773847 271.74061584 57.58195496 C270.51848253 57.5857805 269.29634921 57.58960605 268.03718156 57.59354752 C264.64304828 57.6020925 261.24913117 57.60163941 257.85500395 57.59736693 C254.19500623 57.59490411 250.53503416 57.6039085 246.87504578 57.61140442 C239.702988 57.62416724 232.53096763 57.62594303 225.35890041 57.62360416 C219.52811856 57.62182208 213.69734809 57.62356826 207.86656761 57.6278286 C206.62236575 57.62872138 206.62236575 57.62872138 205.3530285 57.6296322 C203.66798622 57.63084395 201.98294393 57.63205808 200.29790165 57.63327458 C184.48669391 57.64415686 168.67550749 57.64198476 152.86429854 57.63588973 C138.40498633 57.63072374 123.94574154 57.6419664 109.48644266 57.66098795 C94.63903325 57.6803702 79.79165574 57.68862143 64.9442336 57.6848647 C56.60890592 57.68295276 48.2736356 57.68543924 39.93831825 57.69957924 C32.83976645 57.71149917 25.74130727 57.71289132 18.64275417 57.70078907 C15.02239982 57.69490377 11.40221483 57.69379104 7.7818718 57.70579147 C3.8527529 57.71866367 -0.07610996 57.70817692 -4.00523376 57.69548035 C-5.1435742 57.70285463 -6.28191464 57.71022892 -7.45475024 57.71782666 C-14.81348685 57.6678196 -21.93285997 57.19031515 -27.82476807 52.38375854 C-28.36101807 51.70313354 -28.89726807 51.02250854 -29.44976807 50.32125854 C-30.00664307 49.64063354 -30.56351807 48.96000854 -31.13726807 48.25875854 C-34.58302792 43.17216067 -33.70965386 36.99192285 -33.74493408 31.08932495 C-33.76208834 29.09218306 -33.80598332 27.09532926 -33.85015869 25.09860229 C-33.91068901 15.90730549 -33.22100243 11.17820278 -26.69976807 4.50875854 C-18.69328521 -0.8802203 -9.27733737 0.01375903 0 0 Z " fill="#010100" transform="translate(33.44976806640625,444.6787414550781)"/>
<path d="M0 0 C1.13759766 -0.01160156 2.27519531 -0.02320313 3.44726562 -0.03515625 C23.00421545 0.0317814 39.97734584 7.62005322 54.15234375 20.94140625 C64.92998006 31.8238494 71.7757947 43.74969138 75.54296875 58.6328125 C76.71715591 61.79097106 77.93382061 63.28935675 80.5625 65.375 C81.8825 65.705 83.2025 66.035 84.5625 66.375 C84.5625 72.645 84.5625 78.915 84.5625 85.375 C82.2525 86.365 79.9425 87.355 77.5625 88.375 C76.07922304 91.80464953 76.07922304 91.80464953 75.41796875 94.45703125 C72.16984844 105.53623613 66.87399631 115.45784175 59.5625 124.375 C58.77875 125.36371094 57.995 126.35242188 57.1875 127.37109375 C45.11193416 141.18971001 26.647747 149.62299821 8.5625 151.375 C-12.4758298 152.64815289 -32.05585013 147.34995759 -48.26953125 133.36328125 C-48.98496094 132.70714844 -49.70039063 132.05101562 -50.4375 131.375 C-51.14261719 130.74980469 -51.84773438 130.12460938 -52.57421875 129.48046875 C-63.4431179 119.31546021 -69.69012878 105.57956251 -73.4375 91.375 C-73.61168457 90.76156738 -73.78586914 90.14813477 -73.96533203 89.51611328 C-74.46423835 87.25375112 -74.56687538 85.24067967 -74.5703125 82.92578125 C-74.57160156 82.07693359 -74.57289063 81.22808594 -74.57421875 80.35351562 C-74.57035156 79.47373047 -74.56648438 78.59394531 -74.5625 77.6875 C-74.56636719 76.82705078 -74.57023437 75.96660156 -74.57421875 75.08007812 C-74.54264725 54.13238971 -66.79091865 36.0886384 -52.16015625 21.03125 C-37.35297438 7.01602437 -20.32405836 -0.20656863 0 0 Z " fill="#FDFDFD" transform="translate(385.4375,60.625)"/>
<path d="M0 0 C81.51 0 163.02 0 247 0 C247.99 5.61 248.98 11.22 250 17 C250.33 18.32 250.66 19.64 251 21 C249.86140219 21.00054477 248.72280437 21.00108953 247.5497036 21.00165081 C219.8581383 21.01603971 192.16673032 21.05902933 164.47525597 21.13209057 C161.8104898 21.13898923 159.1457236 21.14584728 156.48095703 21.15258789 C155.81861441 21.15426695 155.1562718 21.15594602 154.47385819 21.15767596 C144.41632126 21.18268706 134.35883531 21.19307306 124.30126953 21.19555664 C112.63071052 21.19859398 100.9603351 21.21905371 89.28984702 21.26052457 C83.10911511 21.28187687 76.92864436 21.29444357 70.74787521 21.28615379 C64.93163001 21.27862801 59.11591461 21.29437718 53.29976654 21.32806015 C51.16405168 21.3363111 49.02828431 21.33602268 46.89257431 21.32659721 C43.97759117 21.31500519 41.06435294 21.33404842 38.14950562 21.36076355 C37.30319214 21.35009029 36.45687867 21.33941703 35.58491933 21.32842034 C31.41666204 21.39975428 28.79133896 21.7511462 25.4906559 24.41495228 C21.48595806 28.57142167 21.85368938 31.7286967 21.85955811 37.24847412 C21.85658698 38.11166268 21.85361586 38.97485123 21.8505547 39.86419702 C21.84184216 42.77373215 21.8403573 45.68322627 21.83886719 48.59277344 C21.83424078 50.67197763 21.82921637 52.75118096 21.82382202 54.8303833 C21.81067804 60.49164389 21.80424906 66.1528926 21.79981136 71.81416607 C21.79688358 75.34901528 21.79277932 78.88386123 21.78830719 82.4187088 C21.77462639 93.47225675 21.76496284 104.52579726 21.7611053 115.57935309 C21.75662433 128.35023422 21.73907702 141.12100833 21.7101047 153.89185691 C21.68850336 163.75518125 21.67840183 173.61847545 21.67706418 183.48182321 C21.67601495 189.37632877 21.67008222 195.27073382 21.65224457 201.16521454 C21.63579091 206.71047481 21.63359528 212.25555871 21.64238358 217.80083466 C21.64315543 219.83659334 21.63879182 221.87236139 21.62892532 223.90809631 C21.61624747 226.68680568 21.62206007 229.46488653 21.63250732 232.24359131 C21.62445092 233.04963106 21.61639452 233.85567081 21.60809398 234.68613601 C21.65064711 239.52395833 22.37178203 242.78636037 25 247 C29.51194805 251.173222 35.23956507 250.44030556 41.0324707 250.43237305 C42.70142647 250.44766052 42.70142647 250.44766052 44.40409851 250.46325684 C48.07804372 250.49342664 51.75172835 250.50265917 55.42578125 250.51171875 C57.9745521 250.52856242 60.52331462 250.54671223 63.07206726 250.56611633 C69.09260839 250.6087983 75.1130746 250.63831607 81.13371104 250.66143972 C87.98988303 250.68850828 94.84591499 250.73241869 101.70198691 250.77772844 C115.80124852 250.87052975 129.90055443 250.94223108 144 251 C144 251.33 144 251.66 144 252 C110.67 252 77.34 252 43 252 C43.33 258.27 43.66 264.54 44 271 C167.09 271 290.18 271 417 271 C417 271.33 417 271.66 417 272 C364.59877297 272.11437089 312.19755852 272.202511 259.79623129 272.25532665 C253.61390985 272.2615804 247.43158865 272.26805199 241.24926758 272.2746582 C240.01844584 272.27596976 238.78762411 272.27728131 237.51950475 272.2786326 C217.57361029 272.3004066 197.62778768 272.33983912 177.68193588 272.38576398 C157.22530174 272.4324731 136.76870529 272.46028366 116.31202 272.47044247 C103.6826784 272.47731313 91.05353983 272.49903624 78.4242607 272.53958233 C69.77133539 272.56595226 61.1185155 272.57401405 52.4655529 272.56750689 C47.46846156 272.56429504 42.47172572 272.56931967 37.47469711 272.59602737 C32.90308442 272.62028369 28.3320677 272.62163742 23.76042809 272.60449447 C22.10354137 272.60237445 20.4466181 272.6087817 18.78980378 272.62441591 C16.54233288 272.64439658 14.29703133 272.63372551 12.04959583 272.61523914 C10.79993623 272.61713775 9.55027662 272.61903635 8.26274854 272.62099248 C4.04855751 271.81891383 2.57080324 270.38298186 0 267 C-0.62099248 264.6669957 -0.62099248 264.6669957 -0.61523914 262.2149229 C-0.63017201 260.80489011 -0.63017201 260.80489011 -0.64540654 259.36637181 C-0.63084234 258.34205282 -0.61627813 257.31773383 -0.60127258 256.26237488 C-0.60768077 254.62050397 -0.60768077 254.62050397 -0.61421841 252.94546396 C-0.62246662 249.27076466 -0.59493111 245.5972019 -0.56762695 241.92260742 C-0.56621689 239.29136177 -0.56700764 236.66011414 -0.56983948 234.02886963 C-0.5724606 228.36047243 -0.55678024 222.69236311 -0.52865028 217.02403831 C-0.48800588 208.82865489 -0.47499214 200.63341059 -0.46871033 192.4379373 C-0.45776859 179.14124453 -0.42449774 165.84470518 -0.37719727 152.5480957 C-0.33129851 139.63208776 -0.29596551 126.71612171 -0.2746582 113.80004883 C-0.27331822 112.99571551 -0.27197823 112.19138219 -0.27059764 111.36267513 C-0.26020046 105.0722112 -0.25041586 98.78174636 -0.24082482 92.49128115 C-0.19366076 61.66071329 -0.09306861 30.83052948 0 0 Z " fill="#A2DFE7" transform="translate(15,148)"/>
<path d="M0 0 C1.03688965 0.0314209 1.03688965 0.0314209 2.09472656 0.06347656 C2.84882813 0.07636719 3.60292969 0.08925781 4.37988281 0.10253906 C5.54583984 0.1528125 5.54583984 0.1528125 6.73535156 0.20410156 C7.92451172 0.23117188 7.92451172 0.23117188 9.13769531 0.25878906 C11.08743504 0.30577074 13.03655034 0.37751112 14.98535156 0.45410156 C15.02273437 1.68386719 15.06011719 2.91363281 15.09863281 4.18066406 C15.16432184 5.81350557 15.23076816 7.44631674 15.29785156 9.07910156 C15.32041016 9.88734375 15.34296875 10.69558594 15.36621094 11.52832031 C15.58807411 16.48998773 16.13655242 20.2167573 18.98535156 24.45410156 C24.17727847 27.91415106 30.94594701 26.78165674 36.92285156 26.76660156 C38.83614258 26.79077148 38.83614258 26.79077148 40.78808594 26.81542969 C42.63176758 26.81639648 42.63176758 26.81639648 44.51269531 26.81738281 C45.63409912 26.82036377 46.75550293 26.82334473 47.91088867 26.82641602 C51.49391308 26.39251526 53.21715582 25.77588096 55.98535156 23.45410156 C59.95867621 15.26508927 59.95867621 15.26508927 59.98535156 0.45410156 C122.35535156 0.45410156 184.72535156 0.45410156 248.98535156 0.45410156 C247.66535156 5.73410156 246.34535156 11.01410156 244.98535156 16.45410156 C244.38744533 19.19662128 243.81441708 21.94510422 243.29785156 24.70410156 C243.06710937 25.90550781 242.83636719 27.10691406 242.59863281 28.34472656 C241.80206093 33.68226551 241.43351909 39.07609127 240.98535156 44.45410156 C159.47535156 44.45410156 77.96535156 44.45410156 -6.01464844 44.45410156 C-6.01464844 1.35570117 -6.01464844 1.35570117 0 0 Z " fill="#FD636E" transform="translate(21.0146484375,88.5458984375)"/>
<path d="M0 0 C105.6 0 211.2 0 320 0 C320 8.25 320 16.5 320 25 C316.43703125 25.02578125 312.8740625 25.0515625 309.203125 25.078125 C305.7544767 25.11653125 302.30597864 25.16169624 298.85742188 25.20751953 C296.4597083 25.23575465 294.06190121 25.25695646 291.6640625 25.27099609 C288.21826203 25.29238972 284.77358905 25.3390238 281.328125 25.390625 C279.71855927 25.39246796 279.71855927 25.39246796 278.07647705 25.39434814 C276.57537384 25.42392609 276.57537384 25.42392609 275.04394531 25.45410156 C274.16458313 25.46298401 273.28522095 25.47186646 272.37921143 25.48101807 C269.21424805 26.17139757 268.01614232 27.51522978 266 30 C265.67 30.99 265.34 31.98 265 33 C258.4 33 251.8 33 245 33 C244.01 31.02 243.02 29.04 242 27 C238.52151444 25.26075722 234.47834626 25.8458186 230.64816284 25.84178162 C229.66640143 25.83684364 228.68464001 25.83190566 227.67312825 25.82681805 C224.36265368 25.81138281 221.0521986 25.80306616 217.74169922 25.79467773 C215.3769005 25.78510394 213.01210351 25.77509416 210.64730835 25.76467896 C204.87904326 25.74038868 199.11077539 25.72066597 193.34248672 25.70292621 C186.63222532 25.68204539 179.92198953 25.65557969 173.21174969 25.62875474 C161.24453204 25.5810632 149.27730262 25.53780326 137.31005859 25.49731445 C125.68309614 25.45796747 114.05614417 25.41654316 102.42919922 25.37231445 C101.71284573 25.36959018 100.99649224 25.36686591 100.25843106 25.36405908 C96.6647951 25.35037974 93.07115929 25.33665944 89.47752357 25.32291877 C59.65170401 25.20892946 29.82586175 25.10239793 0 25 C0 16.75 0 8.5 0 0 Z " fill="#FEE076" transform="translate(78,461)"/>
<path d="M0 0 C1.69286133 -0.00483398 1.69286133 -0.00483398 3.41992188 -0.00976562 C28.5390379 0.1491247 48.94307023 10.33490032 67 27.4375 C78.05269174 38.73997009 87.60441263 54.6617552 90.4375 70.3125 C90.32486164 73.86060842 90.07194462 76.15557158 88.375 79.25 C85.82668158 80.64746494 83.34251343 80.82142978 80.47265625 81.00390625 C77.05491424 79.84279236 76.12695298 77.39059239 74.4375 74.3125 C73.59886821 71.78299047 72.86427151 69.31835727 72.1875 66.75 C66.84493086 48.4410535 54.00720768 33.82748247 37.4609375 24.6640625 C20.11466845 15.66156844 -1.92954807 12.31894387 -21 17.9375 C-22.87766975 18.67168422 -24.73452779 19.46209554 -26.5625 20.3125 C-27.55507813 20.73660156 -28.54765625 21.16070312 -29.5703125 21.59765625 C-49.66811706 30.82414197 -62.34131773 46.21362126 -70.5625 66.3125 C-75.26199347 80.41098042 -75.9856563 99.40752724 -70.5625 113.3125 C-70.01722656 114.78396484 -70.01722656 114.78396484 -69.4609375 116.28515625 C-61.66973348 136.16529296 -48.13248027 150.58897519 -28.76953125 159.546875 C-10.25934209 167.59887139 9.37780966 167.21248882 28.3203125 160.5703125 C36.77918667 157.15708257 44.39326759 152.98514614 50.94921875 146.59765625 C52.4375 145.3125 52.4375 145.3125 54.4375 145.3125 C54.71207031 144.714375 54.98664063 144.11625 55.26953125 143.5 C56.38804022 141.4051337 57.5000844 140.02200024 59.125 138.3125 C66.01060842 130.4024474 70.10369266 121.31392201 73.39453125 111.44140625 C75.9375 103.8125 75.9375 103.8125 78.4375 101.3125 C85.65259165 100.73987368 85.65259165 100.73987368 88.15625 102.56640625 C90.24532589 105.41340906 90.02444479 107.79915588 89.9140625 111.24609375 C88.91754231 117.65812938 86.16097561 123.47364886 83.4375 129.3125 C82.91929687 130.43269531 82.40109375 131.55289063 81.8671875 132.70703125 C71.32208569 153.77176361 52.52263278 169.19833319 30.3125 176.6875 C20.08627969 179.93970002 10.47760288 181.45678891 -0.25 181.5625 C-1.03431396 181.57200684 -1.81862793 181.58151367 -2.62670898 181.59130859 C-8.17923026 181.55979002 -13.18901141 180.65246381 -18.5625 179.3125 C-19.53316406 179.12429687 -20.50382812 178.93609375 -21.50390625 178.7421875 C-42.54088446 174.29024874 -62.35994394 159.75013845 -74.34643555 142.03857422 C-78.39482876 135.76163693 -81.81881353 129.26389537 -84.5625 122.3125 C-84.85769531 121.57902344 -85.15289062 120.84554687 -85.45703125 120.08984375 C-93.67113807 97.79441095 -90.97839119 71.86672433 -81.25390625 50.58984375 C-69.89965326 28.5893397 -50.30745615 10.91798624 -26.5625 3.3125 C-17.621549 0.73686392 -9.28039676 -0.13295697 0 0 Z " fill="#040302" transform="translate(385.5625,45.6875)"/>
<path d="M0 0 C0 0.33 0 0.66 0 1 C-1.175625 1.33 -2.35125 1.66 -3.5625 2 C-8.20840814 3.54371192 -12.43901758 5.64730706 -16.75 7.9375 C-17.38752197 8.27330078 -18.02504395 8.60910156 -18.68188477 8.95507812 C-22.45077268 10.99567512 -25.65102865 13.30757159 -29 16 C-29.66 16 -30.32 16 -31 16 C-31.66 17.32 -32.32 18.64 -33 20 C-32.01 20.99 -32.01 20.99 -31 22 C-31.680625 22.12375 -32.36125 22.2475 -33.0625 22.375 C-54.45977585 26.92761188 -75.27276008 41.08289664 -87.25390625 59.37890625 C-100.78442253 80.75684271 -105.5044767 104.87980118 -100.8125 129.87109375 C-96.22861787 147.52344752 -87.95711166 162.21067828 -75 175 C-74.25878906 175.73992187 -73.51757812 176.47984375 -72.75390625 177.2421875 C-61.45896632 187.89466296 -47.24892808 195.20436318 -32 198 C-32.99 198.66 -33.98 199.32 -35 200 C-25.16803262 207.46356953 -15.03090297 213.47119391 -4 219 C-4 219.33 -4 219.66 -4 220 C-7.8124338 220.05872928 -11.62474906 220.09383916 -15.4375 220.125 C-16.50677734 220.14175781 -17.57605469 220.15851563 -18.67773438 220.17578125 C-25.10715219 220.21510491 -30.79591462 219.64445637 -37 218 C-37.91265625 217.835 -38.8253125 217.67 -39.765625 217.5 C-55.10258963 214.41331529 -70.22816054 206.15925871 -82 196 C-83.31677734 194.88818359 -83.31677734 194.88818359 -84.66015625 193.75390625 C-108.09877589 173.35559021 -120.95541004 145.42788642 -123.17285156 114.59667969 C-124.5665113 86.73519628 -114.68062815 60.36538253 -97 39 C-95.97326172 37.72769531 -95.97326172 37.72769531 -94.92578125 36.4296875 C-82.06164783 21.25904586 -63.93906129 9.88062177 -45 4 C-44.38060547 3.80535156 -43.76121094 3.61070313 -43.12304688 3.41015625 C-28.93898388 -0.86602432 -14.68709508 -0.42514415 0 0 Z " fill="#FBCD59" transform="translate(399,26)"/>
<path d="M0 0 C-3.13932428 2.56146636 -6.32171676 4.93437237 -9.6875 7.1875 C-27.46731114 19.66502325 -40.16342089 37.85701301 -44.34375 59.3671875 C-48.11739596 82.81045581 -42.68950722 105.62294572 -29 125 C-26.17679105 128.52901118 -23.19475136 131.80524864 -20 135 C-19.36449219 135.63550781 -18.72898437 136.27101562 -18.07421875 136.92578125 C-11.25425905 143.29390097 -2.61736495 149.78142352 7 150 C7 150.33 7 150.66 7 151 C-14.18669839 151.94396181 -33.43452953 147.1335298 -49.83203125 132.98828125 C-50.54746094 132.33214844 -51.26289063 131.67601562 -52 131 C-52.70511719 130.37480469 -53.41023438 129.74960938 -54.13671875 129.10546875 C-65.0056179 118.94046021 -71.25262878 105.20456251 -75 91 C-75.17418457 90.38656738 -75.34836914 89.77313477 -75.52783203 89.14111328 C-76.02673835 86.87875112 -76.12937538 84.86567967 -76.1328125 82.55078125 C-76.13410156 81.70193359 -76.13539063 80.85308594 -76.13671875 79.97851562 C-76.13285156 79.09873047 -76.12898438 78.21894531 -76.125 77.3125 C-76.12886719 76.45205078 -76.13273437 75.59160156 -76.13671875 74.70507812 C-76.10514725 53.75738971 -68.35341865 35.7136384 -53.72265625 20.65625 C-38.3482505 6.10413824 -20.94471761 -0.76316785 0 0 Z " fill="#E8F7F7" transform="translate(387,61)"/>
<path d="M0 0 C67.32 0 134.64 0 204 0 C207 17 207 17 207 20 C138.69 20 70.38 20 0 20 C0 13.4 0 6.8 0 0 Z " fill="#D3F1F5" transform="translate(58,148)"/>
<path d="M0 0 C25.41 0 50.82 0 77 0 C77 12.87 77 25.74 77 39 C63.25 39.1875 63.25 39.1875 58.93066406 39.20776367 C57.80370117 39.23588135 56.67673828 39.26399902 55.515625 39.29296875 C54.36352539 39.3086792 53.21142578 39.32438965 52.02441406 39.34057617 C48.81044568 39.74915477 48.81044568 39.74915477 46.65527344 42.41918945 C45.02732818 44.85664358 45.02732818 44.85664358 44 47 C40.91738544 47.1746397 37.83604167 47.28094067 34.75 47.375 C33.87730469 47.42527344 33.00460938 47.47554688 32.10546875 47.52734375 C29.60293001 47.5846538 27.4396564 47.56970621 25 47 C22.515625 44.0390625 22.515625 44.0390625 21 41 C14.71067925 37.85533962 7.0219554 39.3695766 0 39 C0 26.13 0 13.26 0 0 Z " fill="#FBFBFB" transform="translate(142,345)"/>
<path d="M0 0 C25.41 0 50.82 0 77 0 C77 13.2 77 26.4 77 40 C51.59 40 26.18 40 0 40 C0 26.8 0 13.6 0 0 Z " fill="#F6F6F6" transform="translate(142,183)"/>
<path d="M0 0 C25.41 0 50.82 0 77 0 C77 12.87 77 25.74 77 39 C51.59 39 26.18 39 0 39 C0 26.13 0 13.26 0 0 Z " fill="#FE99A0" transform="translate(325,345)"/>
<path d="M0 0 C25.41 0 50.82 0 77 0 C77 12.87 77 25.74 77 39 C51.59 39 26.18 39 0 39 C0 26.13 0 13.26 0 0 Z " fill="#FE99A0" transform="translate(325,291)"/>
<path d="M0 0 C25.41 0 50.82 0 77 0 C77 12.87 77 25.74 77 39 C51.59 39 26.18 39 0 39 C0 26.13 0 13.26 0 0 Z " fill="#FBFBFB" transform="translate(142,291)"/>
<path d="M0 0 C25.41 0 50.82 0 77 0 C77 12.87 77 25.74 77 39 C51.59 39 26.18 39 0 39 C0 26.13 0 13.26 0 0 Z " fill="#FAFAFA" transform="translate(142,237)"/>
<path d="M0 0 C25.08 0 50.16 0 76 0 C76 12.87 76 25.74 76 39 C50.92 39 25.84 39 0 39 C0 26.13 0 13.26 0 0 Z " fill="#FDFDFD" transform="translate(234,345)"/>
<path d="M0 0 C25.08 0 50.16 0 76 0 C76 12.87 76 25.74 76 39 C50.92 39 25.84 39 0 39 C0 26.13 0 13.26 0 0 Z " fill="#FFFFFF" transform="translate(51,345)"/>
<path d="M0 0 C25.08 0 50.16 0 76 0 C76 12.87 76 25.74 76 39 C50.92 39 25.84 39 0 39 C0 26.13 0 13.26 0 0 Z " fill="#FDFDFD" transform="translate(234,291)"/>
<path d="M0 0 C25.08 0 50.16 0 76 0 C76 12.87 76 25.74 76 39 C50.92 39 25.84 39 0 39 C0 26.13 0 13.26 0 0 Z " fill="#FFFFFF" transform="translate(51,291)"/>
<path d="M0 0 C25.08 0 50.16 0 76 0 C76 12.87 76 25.74 76 39 C50.92 39 25.84 39 0 39 C0 26.13 0 13.26 0 0 Z " fill="#FCFCFC" transform="translate(234,237)"/>
<path d="M0 0 C25.08 0 50.16 0 76 0 C76 12.87 76 25.74 76 39 C50.92 39 25.84 39 0 39 C0 26.13 0 13.26 0 0 Z " fill="#FFFFFF" transform="translate(51,237)"/>
<path d="M0 0 C25.08 0 50.16 0 76 0 C76 12.54 76 25.08 76 38 C50.92 38 25.84 38 0 38 C0 25.46 0 12.92 0 0 Z " fill="#FFFFFF" transform="translate(51,184)"/>
<path d="M0 0 C12.21 0 24.42 0 37 0 C38.464375 2.8875 39.92875 5.775 41.4375 8.75 C45.08313947 15.78886078 48.9434799 22.15430501 53.89453125 28.359375 C56.38328415 31.48070516 58.67965862 34.75152207 61 38 C40.87 38 20.74 38 0 38 C0 25.46 0 12.92 0 0 Z " fill="#FEFEFE" transform="translate(234,184)"/>
<path d="M0 0 C4.09362214 0.58480316 4.98905057 1.31492472 7.5 4.5 C7.98101807 6.95513916 7.98101807 6.95513916 7.95410156 9.72753906 C7.95379944 10.76831604 7.95349731 11.80909302 7.95318604 12.88140869 C7.93254089 13.99820007 7.91189575 15.11499146 7.890625 16.265625 C7.88496521 17.41415955 7.87930542 18.56269409 7.87347412 19.74603271 C7.85108331 23.41444574 7.80087942 27.08188217 7.75 30.75 C7.72993861 33.23696506 7.71168722 35.72394543 7.6953125 38.2109375 C7.65120955 44.30762489 7.58426949 50.40374267 7.5 56.5 C8.75135742 56.47381592 10.00271484 56.44763184 11.29199219 56.4206543 C15.93601593 56.33013385 20.57996178 56.2727439 25.22460938 56.2253418 C27.2345084 56.20020184 29.24431605 56.16608471 31.25390625 56.12280273 C34.14345844 56.06212785 37.03180192 56.03378553 39.921875 56.01171875 C40.81992859 55.98591232 41.71798218 55.9601059 42.64324951 55.93351746 C48.88628179 55.93071256 48.88628179 55.93071256 52.05957031 58.87426758 C53.71218805 61.88679363 54.33792688 63.14829249 53.5 66.5 C49.97256091 70.46587158 47.613913 71.81015605 42.29248047 72.13110352 C40.23421506 72.15722193 38.1754546 72.15489143 36.1171875 72.12890625 C34.4794487 72.13252419 34.4794487 72.13252419 32.80862427 72.13621521 C30.5073075 72.1352381 28.20596684 72.12187718 25.90478516 72.09692383 C22.37972457 72.06254608 18.85716184 72.07629107 15.33203125 72.09570312 C13.09373932 72.08880649 10.85545386 72.07913578 8.6171875 72.06640625 C7.03585526 72.07384605 7.03585526 72.07384605 5.4225769 72.08143616 C-1.8607898 71.96390464 -1.8607898 71.96390464 -5.13232422 69.58959961 C-7.4485601 66.05074511 -7.6379572 63.96942709 -7.67700195 59.73681641 C-7.68983719 58.52861237 -7.70267242 57.32040833 -7.71589661 56.07559204 C-7.72328354 54.76416229 -7.73067047 53.45273254 -7.73828125 52.1015625 C-7.74235678 51.43540295 -7.7464323 50.76924339 -7.75063133 50.08289719 C-7.77148764 46.55754659 -7.78579167 43.03223488 -7.79516602 39.50683594 C-7.80623487 35.86599461 -7.84064031 32.22576374 -7.88033772 28.58513832 C-7.90648322 25.78499211 -7.91485589 22.98499189 -7.91844749 20.18473434 C-7.92568529 18.19050144 -7.95213206 16.19636826 -7.97883606 14.20230103 C-7.97591049 12.98779266 -7.97298492 11.7732843 -7.9699707 10.52197266 C-7.97583694 9.45322906 -7.98170319 8.38448547 -7.98774719 7.28335571 C-7.12924052 2.38424098 -4.78828554 0.68404079 0 0 Z " fill="#040404" transform="translate(386.5,72.5)"/>
<path d="M0 0 C1.03688965 0.0314209 1.03688965 0.0314209 2.09472656 0.06347656 C2.84882813 0.07636719 3.60292969 0.08925781 4.37988281 0.10253906 C5.54583984 0.1528125 5.54583984 0.1528125 6.73535156 0.20410156 C7.92451172 0.23117188 7.92451172 0.23117188 9.13769531 0.25878906 C11.08743504 0.30577074 13.03655034 0.37751112 14.98535156 0.45410156 C15.02273437 1.68386719 15.06011719 2.91363281 15.09863281 4.18066406 C15.16432184 5.81350557 15.23076816 7.44631674 15.29785156 9.07910156 C15.32041016 9.88734375 15.34296875 10.69558594 15.36621094 11.52832031 C15.58807411 16.48998773 16.13655242 20.2167573 18.98535156 24.45410156 C22.2281188 26.56469772 25.02501955 26.75123426 28.84472656 26.86816406 C30.51728516 26.92617187 30.51728516 26.92617187 32.22363281 26.98535156 C33.3825 27.01628906 34.54136719 27.04722656 35.73535156 27.07910156 C37.49685547 27.13710937 37.49685547 27.13710937 39.29394531 27.19628906 C42.19092424 27.29049976 45.08789783 27.37611758 47.98535156 27.45410156 C47.98535156 27.78410156 47.98535156 28.11410156 47.98535156 28.45410156 C44.35535156 28.45410156 40.72535156 28.45410156 36.98535156 28.45410156 C36.98535156 33.40410156 36.98535156 38.35410156 36.98535156 43.45410156 C103.97535156 43.45410156 170.96535156 43.45410156 239.98535156 43.45410156 C239.98535156 41.14410156 239.98535156 38.83410156 239.98535156 36.45410156 C240.31535156 36.45410156 240.64535156 36.45410156 240.98535156 36.45410156 C240.98535156 39.09410156 240.98535156 41.73410156 240.98535156 44.45410156 C159.47535156 44.45410156 77.96535156 44.45410156 -6.01464844 44.45410156 C-6.01464844 1.35570117 -6.01464844 1.35570117 0 0 Z " fill="#ED2E3C" transform="translate(21.0146484375,88.5458984375)"/>
<path d="M0 0 C3.58385783 1.19461928 6.90121944 2.32267455 10.328125 3.8046875 C32.76699939 13.31400527 52.89520321 14.71405935 77 15 C77 19.95 77 24.9 77 30 C51.59 30 26.18 30 0 30 C0 20.1 0 10.2 0 0 Z " fill="#F9969D" transform="translate(325,246)"/>
<path d="M0 0 C0.79497894 0.00444122 1.58995789 0.00888245 2.4090271 0.01345825 C3.76020126 0.01368484 3.76020126 0.01368484 5.13867188 0.01391602 C6.11266937 0.02423859 7.08666687 0.03456116 8.09017944 0.04519653 C9.08617157 0.04802643 10.0821637 0.05085632 11.1083374 0.05377197 C14.29771813 0.06499063 17.48682072 0.09009822 20.67611694 0.11550903 C22.83496706 0.12553666 24.99382157 0.13466288 27.15267944 0.14285278 C32.45235266 0.16323614 37.75142251 0.20238174 43.05111694 0.24050903 C43.05111694 8.49050903 43.05111694 16.74050903 43.05111694 25.24050903 C36.67886802 25.28635255 30.30718828 25.32619825 23.93490601 25.35037231 C21.765941 25.36044692 19.59698963 25.37410701 17.42807007 25.39138794 C14.31540569 25.41557226 11.20292043 25.42697736 8.09017944 25.43582153 C7.11618195 25.4461441 6.14218445 25.45646667 5.13867188 25.46710205 C4.2378891 25.46725311 3.33710632 25.46740417 2.4090271 25.46755981 C1.21655869 25.47422165 1.21655869 25.47422165 0 25.48101807 C-1.94888306 25.24050903 -1.94888306 25.24050903 -3.94888306 23.24050903 C-4.20767212 21.11746216 -4.20767212 21.11746216 -4.21450806 18.52175903 C-4.21708618 17.58976685 -4.21966431 16.65777466 -4.22232056 15.69754028 C-4.21458618 14.72171997 -4.20685181 13.74589966 -4.19888306 12.74050903 C-4.20661743 11.76468872 -4.21435181 10.78886841 -4.22232056 9.78347778 C-4.21974243 8.8514856 -4.21716431 7.91949341 -4.21450806 6.95925903 C-4.2122522 6.102677 -4.20999634 5.24609497 -4.20767212 4.36355591 C-3.85477644 1.46847967 -2.93643014 0.36238089 0 0 Z " fill="#FD989F" transform="translate(18.948883056640625,460.7594909667969)"/>
<path d="M0 0 C25.41 0 50.82 0 77 0 C77 12.87 77 25.74 77 39 C76.67 39 76.34 39 76 39 C76 26.46 76 13.92 76 1 C59.83 1 43.66 1 27 1 C27 13.54 27 26.08 27 39 C18.09 39 9.18 39 0 39 C0 26.13 0 13.26 0 0 Z " fill="#F57D84" transform="translate(325,345)"/>
<path d="M0 0 C25.41 0 50.82 0 77 0 C77 12.87 77 25.74 77 39 C76.67 39 76.34 39 76 39 C76 26.46 76 13.92 76 1 C59.83 1 43.66 1 27 1 C27 13.54 27 26.08 27 39 C18.09 39 9.18 39 0 39 C0 26.13 0 13.26 0 0 Z " fill="#F47D84" transform="translate(325,291)"/>
<path d="M0 0 C25.08 0 50.16 0 76 0 C76 0.33 76 0.66 76 1 C59.5 1 43 1 26 1 C26 13.54 26 26.08 26 39 C17.42 39 8.84 39 0 39 C0 26.13 0 13.26 0 0 Z " fill="#E7F5F6" transform="translate(51,345)"/>
<path d="M0 0 C25.08 0 50.16 0 76 0 C76 0.33 76 0.66 76 1 C59.5 1 43 1 26 1 C26 13.54 26 26.08 26 39 C17.42 39 8.84 39 0 39 C0 26.13 0 13.26 0 0 Z " fill="#E6F4F5" transform="translate(51,291)"/>
<path d="M0 0 C25.08 0 50.16 0 76 0 C76 0.33 76 0.66 76 1 C59.5 1 43 1 26 1 C26 13.54 26 26.08 26 39 C17.42 39 8.84 39 0 39 C0 26.13 0 13.26 0 0 Z " fill="#E3F2F2" transform="translate(51,237)"/>
<path d="M0 0 C8.58 0 17.16 0 26 0 C26 12.54 26 25.08 26 38 C17.42 38 8.84 38 0 38 C0 25.46 0 12.92 0 0 Z " fill="#EAF9FA" transform="translate(51,184)"/>
<path d="M0 0 C8.58 0 17.16 0 26 0 C26 8.25 26 16.5 26 25 C17.42 25 8.84 25 0 25 C0 16.75 0 8.5 0 0 Z " fill="#FFD15B" transform="translate(78,461)"/>
<path d="M0 0 C3.73275648 1.24425216 7.32761347 2.48254568 10.9609375 3.9453125 C11.84394531 4.29980469 12.72695313 4.65429688 13.63671875 5.01953125 C14.54035156 5.38433594 15.44398438 5.74914062 16.375 6.125 C17.30183594 6.49753906 18.22867187 6.87007812 19.18359375 7.25390625 C21.45636157 8.1676995 23.72826778 9.08363522 26 10 C26 16.6 26 23.2 26 30 C17.42 30 8.84 30 0 30 C0 20.1 0 10.2 0 0 Z " fill="#F97E85" transform="translate(325,246)"/>
<path d="M0 0 C4.62 0 9.24 0 14 0 C14 13.2 14 26.4 14 40 C9.38 40 4.76 40 0 40 C0 26.8 0 13.6 0 0 Z " fill="#FFE177" transform="translate(51,61)"/>
<path d="M0 0 C1.47670418 0.0114416 2.95330551 0.03741343 4.4296875 0.0703125 C7.0284375 0.1115625 9.6271875 0.1528125 12.3046875 0.1953125 C12.6346875 8.4453125 12.9646875 16.6953125 13.3046875 25.1953125 C10.5409375 25.2365625 7.7771875 25.2778125 4.9296875 25.3203125 C3.62572021 25.34762451 3.62572021 25.34762451 2.29541016 25.37548828 C0.29765272 25.39004988 -1.69998467 25.29487976 -3.6953125 25.1953125 C-6.18588501 22.70473999 -5.9518938 21.91058591 -5.9609375 18.4765625 C-5.96351562 17.54457031 -5.96609375 16.61257813 -5.96875 15.65234375 C-5.96101562 14.67652344 -5.95328125 13.70070313 -5.9453125 12.6953125 C-5.95304688 11.71949219 -5.96078125 10.74367188 -5.96875 9.73828125 C-5.96617188 8.80628906 -5.96359375 7.87429688 -5.9609375 6.9140625 C-5.95868164 6.05748047 -5.95642578 5.20089844 -5.95410156 4.31835938 C-5.46213238 0.28235555 -3.8387743 0.20289505 0 0 Z " fill="#FB7F86" transform="translate(20.6953125,460.8046875)"/>
<path d="M0 0 C7.85838083 2.22849606 15.40863087 4.98962948 23 8 C22.77514648 9.87988281 22.77514648 9.87988281 22 12 C20.08227539 13.09667969 20.08227539 13.09667969 17.59765625 13.921875 C16.70755859 14.22480469 15.81746094 14.52773438 14.90039062 14.83984375 C13.49563477 15.29037109 13.49563477 15.29037109 12.0625 15.75 C11.12986328 16.06582031 10.19722656 16.38164062 9.23632812 16.70703125 C2.37231128 19 2.37231128 19 0 19 C0 12.73 0 6.46 0 0 Z " fill="#F6C7B8" transform="translate(413,464)"/>
</svg>
